<?xml version="1.0" standalone="no"?>
 <!DOCTYPE svg PUBLIC "-//W3C//DTD SVG 1.1//EN" 
 "http://www.w3.org/Graphics/SVG/1.1/DTD/svg11.dtd"> 
<svg xmlns="http://www.w3.org/2000/svg" version="1.1" 
    width="41.9989cm" height="29.7002cm" viewBox="0 0 165350 116930 ">
<title>SVG Picture created as CZTKeyRev1TopAcrylic-F_Mask.svg date 2020/12/20 16:08:56 </title>
  <desc>Picture generated by PCBNEW </desc>
<g style="fill:#000000; fill-opacity:1;stroke:#000000; stroke-opacity:1;
stroke-linecap:round; stroke-linejoin:round; "
 transform="translate(0 0) scale(1 1)">
</g>
<g style="fill:#000000; fill-opacity:0.0; 
stroke:#000000; stroke-width:-0.000393701; stroke-opacity:1; 
stroke-linecap:round; stroke-linejoin:round;">
</g>
<g style="fill:#000000; fill-opacity:1.0; 
stroke:#000000; stroke-width:0; stroke-opacity:1; 
stroke-linecap:round; stroke-linejoin:round;">
<path style="fill:#000000; fill-opacity:1.0; 
stroke:#000000; stroke-width:0; stroke-opacity:1; 
stroke-linecap:round; stroke-linejoin:round;fill-rule:evenodd;"
d="M 76024,24867
76069,24876
76152,24910
76226,24960
76289,25023
76338,25097
76373,25180
76390,25267
76390,25357
76373,25444
76338,25527
76289,25601
76226,25664
76152,25714
76069,25748
76025,25756
75982,25765
75892,25765
75848,25756
75805,25748
75722,25714
75648,25664
75585,25601
75535,25527
75501,25444
75484,25357
75484,25267
75501,25180
75535,25097
75585,25023
75648,24960
75722,24910
75805,24876
75850,24867
75892,24859
75982,24859
76024,24867
Z" /> 
<path style="fill:#000000; fill-opacity:1.0; 
stroke:#000000; stroke-width:0; stroke-opacity:1; 
stroke-linecap:round; stroke-linejoin:round;fill-rule:evenodd;"
d="M 138838,24555
138882,24564
138964,24598
139038,24648
139101,24711
139151,24785
139185,24867
139203,24955
139203,25044
139185,25132
139151,25214
139101,25288
139038,25352
138964,25401
138882,25435
138838,25444
138794,25453
138705,25453
138661,25444
138617,25435
138535,25401
138461,25352
138398,25288
138348,25214
138314,25132
138296,25044
138296,24955
138314,24867
138348,24785
138398,24711
138461,24648
138535,24598
138617,24564
138661,24555
138705,24546
138794,24546
138838,24555
Z" /> 
<path style="fill:#000000; fill-opacity:1.0; 
stroke:#000000; stroke-width:0; stroke-opacity:1; 
stroke-linecap:round; stroke-linejoin:round;fill-rule:evenodd;"
d="M 7588,24555
7632,24564
7714,24598
7788,24648
7851,24711
7901,24785
7935,24867
7953,24955
7953,25044
7935,25132
7901,25214
7851,25288
7788,25352
7714,25401
7632,25435
7588,25444
7544,25453
7455,25453
7411,25444
7367,25435
7285,25401
7211,25352
7148,25288
7098,25214
7064,25132
7046,25044
7046,24955
7064,24867
7098,24785
7148,24711
7211,24648
7285,24598
7367,24564
7411,24555
7455,24546
7544,24546
7588,24555
Z" /> 
<path style="fill:#000000; fill-opacity:1.0; 
stroke:#000000; stroke-width:0; stroke-opacity:1; 
stroke-linecap:round; stroke-linejoin:round;fill-rule:evenodd;"
d="M 138838,7368
138882,7376
138964,7410
139038,7460
139101,7523
139151,7597
139185,7680
139203,7767
139203,7857
139185,7944
139151,8027
139101,8101
139038,8164
138964,8214
138882,8248
138838,8256
138794,8265
138705,8265
138661,8256
138617,8248
138535,8214
138461,8164
138398,8101
138348,8027
138314,7944
138296,7857
138296,7767
138314,7680
138348,7597
138398,7523
138461,7460
138535,7410
138617,7376
138661,7368
138705,7359
138794,7359
138838,7368
Z" /> 
<path style="fill:#000000; fill-opacity:1.0; 
stroke:#000000; stroke-width:0; stroke-opacity:1; 
stroke-linecap:round; stroke-linejoin:round;fill-rule:evenodd;"
d="M 75713,7368
75756,7376
75839,7410
75913,7460
75976,7523
76026,7597
76060,7680
76077,7767
76077,7857
76060,7944
76026,8027
75976,8101
75913,8164
75839,8214
75756,8248
75713,8256
75669,8265
75580,8265
75536,8256
75492,8248
75410,8214
75335,8164
75272,8101
75223,8027
75189,7944
75171,7857
75171,7767
75189,7680
75223,7597
75272,7523
75335,7460
75410,7410
75492,7376
75536,7368
75580,7359
75669,7359
75713,7368
Z" /> 
<path style="fill:#000000; fill-opacity:1.0; 
stroke:#000000; stroke-width:0; stroke-opacity:1; 
stroke-linecap:round; stroke-linejoin:round;fill-rule:evenodd;"
d="M 7588,7368
7632,7376
7714,7410
7788,7460
7851,7523
7901,7597
7935,7680
7953,7767
7953,7857
7935,7944
7901,8027
7851,8101
7788,8164
7714,8214
7632,8248
7588,8256
7544,8265
7455,8265
7411,8256
7367,8248
7285,8214
7211,8164
7148,8101
7098,8027
7064,7944
7046,7857
7046,7767
7064,7680
7098,7597
7148,7523
7211,7460
7285,7410
7367,7376
7411,7368
7455,7359
7544,7359
7588,7368
Z" /> 
</g> 
</svg>
