  0
SECTION
  2
HEADER
  9
$ACADVER
  1
AC1014
  9
$HANDSEED
  5
FFFF
  9
$MEASUREMENT
 70
     1
  0
ENDSEC
  0
SECTION
  2
TABLES
  0
TABLE
  2
VPORT
  5
8
330
0
100
AcDbSymbolTable
 70
     4
  0
VPORT
  5
2E
330
8
100
AcDbSymbolTableRecord
100
AcDbViewportTableRecord
  2
*ACTIVE
 70
     0
 10
0.0
 20
0.0
 11
1.0
 21
1.0
 12
210.0
 22
148.5
 13
0.0
 23
0.0
 14
10.0
 24
10.0
 15
10.0
 25
10.0
 16
0.0
 26
0.0
 36
1.0
 17
0.0
 27
0.0
 37
0.0
 40
341.0
 41
1.24
 42
50.0
 43
0.0
 44
0.0
 50
0.0
 51
0.0
 71
     0
 72
   100
 73
     1
 74
     3
 75
     0
 76
     0
 77
     0
 78
     0
  0
ENDTAB
  0
TABLE
  2
LTYPE
  5
5
330
0
100
AcDbSymbolTable
 70
     1
  0
LTYPE
  5
14
330
5
100
AcDbSymbolTableRecord
100
AcDbLinetypeTableRecord
  2
BYBLOCK
 70
     0
  3

 72
    65
 73
     0
 40
0.0
  0
LTYPE
  5
15
330
5
100
AcDbSymbolTableRecord
100
AcDbLinetypeTableRecord
  2
BYLAYER
 70
     0
  3

 72
    65
 73
     0
 40
0.0
  0
LTYPE
  5
16
330
5
100
AcDbSymbolTableRecord
100
AcDbLinetypeTableRecord
  2
CONTINUOUS
 70
     0
  3
Solid line
 72
    65
 73
     0
 40
0.0
  0
ENDTAB
  0
TABLE
  2
LAYER
  5
2
100
AcDbSymbolTable
 70
2
  0
LAYER
  5
50
100
AcDbSymbolTableRecord
100
AcDbLayerTableRecord
  2
0
 70
0
  6
CONTINUOUS
  0
LAYER
  5
51
100
AcDbSymbolTableRecord
100
AcDbLayerTableRecord
  2
Layer_1
 70
0
  6
CONTINUOUS
  0
ENDTAB
  0
TABLE
  2
STYLE
  5
3
330
0
100
AcDbSymbolTable
 70
     1
  0
STYLE
  5
11
330
3
100
AcDbSymbolTableRecord
100
AcDbTextStyleTableRecord
  2
STANDARD
 70
     0
 40
0.0
 41
1.0
 50
0.0
 71
     0
 42
2.5
  3
txt
  4

  0
ENDTAB
  0
TABLE
  2
VIEW
  5
6
330
0
100
AcDbSymbolTable
 70
     0
  0
ENDTAB
  0
TABLE
  2
UCS
  5
7
330
0
100
AcDbSymbolTable
 70
     0
  0
ENDTAB
  0
TABLE
  2
APPID
  5
9
330
0
100
AcDbSymbolTable
 70
     2
  0
APPID
  5
12
330
9
100
AcDbSymbolTableRecord
100
AcDbRegAppTableRecord
  2
ACAD
 70
     0
  0
ENDTAB
  0
TABLE
  2
DIMSTYLE
  5
A
330
0
100
AcDbSymbolTable
 70
     1
  0
DIMSTYLE
105
27
330
A
100
AcDbSymbolTableRecord
100
AcDbDimStyleTableRecord
  2
ISO-25
 70
     0
  3

  4

  5

  6

  7

 40
1.0
 41
2.5
 42
0.625
 43
3.75
 44
1.25
 45
0.0
 46
0.0
 47
0.0
 48
0.0
140
2.5
141
2.5
142
0.0
143
0.03937007874016
144
1.0
145
0.0
146
1.0
147
0.625
 71
     0
 72
     0
 73
     0
 74
     0
 75
     0
 76
     0
 77
     1
 78
     8
170
     0
171
     3
172
     1
173
     0
174
     0
175
     0
176
     0
177
     0
178
     0
270
     2
271
     2
272
     2
273
     2
274
     3
340
11
275
     0
280
     0
281
     0
282
     0
283
     0
284
     8
285
     0
286
     0
287
     3
288
     0
  0
ENDTAB
  0
TABLE
  2
BLOCK_RECORD
  5
1
330
0
100
AcDbSymbolTable
 70
     1
  0
BLOCK_RECORD
  5
1F
330
1
100
AcDbSymbolTableRecord
100
AcDbBlockTableRecord
  2
*MODEL_SPACE
  0
BLOCK_RECORD
  5
1B
330
1
100
AcDbSymbolTableRecord
100
AcDbBlockTableRecord
  2
*PAPER_SPACE
  0
ENDTAB
  0
ENDSEC
  0
SECTION
  2
BLOCKS
  0
BLOCK
  5
20
330
1F
100
AcDbEntity
  8
0
100
AcDbBlockBegin
  2
*MODEL_SPACE
 70
     0
 10
0.0
 20
0.0
 30
0.0
  3
*MODEL_SPACE
  1

  0
ENDBLK
  5
21
330
1F
100
AcDbEntity
  8
0
100
AcDbBlockEnd
  0
BLOCK
  5
1C
330
1B
100
AcDbEntity
 67
     1
  8
0
100
AcDbBlockBegin
  2
*PAPER_SPACE
  1

  0
ENDBLK
  5
1D
330
1B
100
AcDbEntity
 67
     1
  8
0
100
AcDbBlockEnd
  0
ENDSEC
  0
SECTION
  2
ENTITIES
  0
SPLINE
  5
100
100
AcDbEntity
  8
Layer_1
 62
7
100
AcDbSpline
 70
8
 71
3
 72
8
 73
4
 74
0
 40
0
 40
0
 40
0
 40
0
 40
1
 40
1
 40
1
 40
1
 10
-73.932500
 20
205.831550
 30
0.0
 10
-73.932500
 20
205.200003
 30
0.0
 10
-73.681619
 20
204.594323
 30
0.0
 10
-73.235048
 20
204.147752
 30
0.0
  0
SPLINE
  5
101
100
AcDbEntity
  8
Layer_1
 62
7
100
AcDbSpline
 70
8
 71
3
 72
8
 73
4
 74
0
 40
0
 40
0
 40
0
 40
0
 40
1
 40
1
 40
1
 40
1
 10
-73.235048
 20
204.147752
 30
0.0
 10
-72.788477
 20
203.701181
 30
0.0
 10
-72.182797
 20
203.450300
 30
0.0
 10
-71.551250
 20
203.450300
 30
0.0
  0
LWPOLYLINE
  5
102
100
AcDbEntity
  8
Layer_1
 62
7
100
AcDbPolyline
 90
2
 70
0
 10
-71.552520
 20
203.451570
 30
0.0
 10
266.584980
 20
203.451570
 30
0.0
  0
SPLINE
  5
103
100
AcDbEntity
  8
Layer_1
 62
7
100
AcDbSpline
 70
8
 71
3
 72
8
 73
4
 74
0
 40
0
 40
0
 40
0
 40
0
 40
1
 40
1
 40
1
 40
1
 10
266.587520
 20
203.450300
 30
0.0
 10
267.902152
 20
203.451001
 30
0.0
 10
268.967500
 20
204.516918
 30
0.0
 10
268.967500
 20
205.831550
 30
0.0
  0
SPLINE
  5
104
100
AcDbEntity
  8
Layer_1
 62
7
100
AcDbSpline
 70
8
 71
3
 72
8
 73
4
 74
0
 40
0
 40
0
 40
0
 40
0
 40
1
 40
1
 40
1
 40
1
 10
268.967500
 20
256.631550
 30
0.0
 10
268.967500
 20
257.946182
 30
0.0
 10
267.902152
 20
259.012099
 30
0.0
 10
266.587520
 20
259.012800
 30
0.0
  0
LWPOLYLINE
  5
105
100
AcDbEntity
  8
Layer_1
 62
7
100
AcDbPolyline
 90
2
 70
0
 10
-73.932500
 20
205.831550
 30
0.0
 10
-73.932500
 20
256.631550
 30
0.0
  0
SPLINE
  5
106
100
AcDbEntity
  8
Layer_1
 62
7
100
AcDbSpline
 70
8
 71
3
 72
8
 73
4
 74
0
 40
0
 40
0
 40
0
 40
0
 40
1
 40
1
 40
1
 40
1
 10
-71.551250
 20
259.012800
 30
0.0
 10
-72.182797
 20
259.012800
 30
0.0
 10
-72.788477
 20
258.761919
 30
0.0
 10
-73.235048
 20
258.315348
 30
0.0
  0
SPLINE
  5
107
100
AcDbEntity
  8
Layer_1
 62
7
100
AcDbSpline
 70
8
 71
3
 72
8
 73
4
 74
0
 40
0
 40
0
 40
0
 40
0
 40
1
 40
1
 40
1
 40
1
 10
-73.235048
 20
258.315348
 30
0.0
 10
-73.681619
 20
257.868777
 30
0.0
 10
-73.932500
 20
257.263097
 30
0.0
 10
-73.932500
 20
256.631550
 30
0.0
  0
LWPOLYLINE
  5
108
100
AcDbEntity
  8
Layer_1
 62
7
100
AcDbPolyline
 90
2
 70
0
 10
-71.552520
 20
259.014070
 30
0.0
 10
266.584980
 20
259.014070
 30
0.0
  0
LWPOLYLINE
  5
109
100
AcDbEntity
  8
Layer_1
 62
7
100
AcDbPolyline
 90
2
 70
0
 10
268.967500
 20
205.831550
 30
0.0
 10
268.967500
 20
256.631550
 30
0.0
  0
LWPOLYLINE
  5
10a
100
AcDbEntity
  8
Layer_1
 62
7
100
AcDbPolyline
 90
36
 70
1
 10
104.881960
 20
210.137470
 30
0.0
 10
104.996260
 20
210.114610
 30
0.0
 10
105.207080
 20
210.028250
 30
0.0
 10
105.395040
 20
209.901250
 30
0.0
 10
105.555060
 20
209.741230
 30
0.0
 10
105.679520
 20
209.553270
 30
0.0
 10
105.768420
 20
209.342450
 30
0.0
 10
105.811600
 20
209.121470
 30
0.0
 10
105.811600
 20
208.892870
 30
0.0
 10
105.768420
 20
208.671890
 30
0.0
 10
105.679520
 20
208.461070
 30
0.0
 10
105.555060
 20
208.273110
 30
0.0
 10
105.395040
 20
208.113090
 30
0.0
 10
105.207080
 20
207.986090
 30
0.0
 10
104.996260
 20
207.899730
 30
0.0
 10
104.884500
 20
207.879410
 30
0.0
 10
104.775280
 20
207.856550
 30
0.0
 10
104.546680
 20
207.856550
 30
0.0
 10
104.434920
 20
207.879410
 30
0.0
 10
104.325700
 20
207.899730
 30
0.0
 10
104.114880
 20
207.986090
 30
0.0
 10
103.926920
 20
208.113090
 30
0.0
 10
103.766900
 20
208.273110
 30
0.0
 10
103.639900
 20
208.461070
 30
0.0
 10
103.553540
 20
208.671890
 30
0.0
 10
103.510360
 20
208.892870
 30
0.0
 10
103.510360
 20
209.121470
 30
0.0
 10
103.553540
 20
209.342450
 30
0.0
 10
103.639900
 20
209.553270
 30
0.0
 10
103.766900
 20
209.741230
 30
0.0
 10
103.926920
 20
209.901250
 30
0.0
 10
104.114880
 20
210.028250
 30
0.0
 10
104.325700
 20
210.114610
 30
0.0
 10
104.440000
 20
210.137470
 30
0.0
 10
104.546680
 20
210.157790
 30
0.0
 10
104.775280
 20
210.157790
 30
0.0
  0
LWPOLYLINE
  5
10b
100
AcDbEntity
  8
Layer_1
 62
7
100
AcDbPolyline
 90
36
 70
1
 10
264.429520
 20
210.929950
 30
0.0
 10
264.541280
 20
210.907090
 30
0.0
 10
264.749560
 20
210.820730
 30
0.0
 10
264.937520
 20
210.693730
 30
0.0
 10
265.097540
 20
210.533710
 30
0.0
 10
265.224540
 20
210.345750
 30
0.0
 10
265.310900
 20
210.137470
 30
0.0
 10
265.356620
 20
209.913950
 30
0.0
 10
265.356620
 20
209.687890
 30
0.0
 10
265.310900
 20
209.464370
 30
0.0
 10
265.224540
 20
209.256090
 30
0.0
 10
265.097540
 20
209.068130
 30
0.0
 10
264.937520
 20
208.905570
 30
0.0
 10
264.749560
 20
208.781110
 30
0.0
 10
264.541280
 20
208.694750
 30
0.0
 10
264.429520
 20
208.671890
 30
0.0
 10
264.317760
 20
208.649030
 30
0.0
 10
264.091700
 20
208.649030
 30
0.0
 10
263.979940
 20
208.671890
 30
0.0
 10
263.868180
 20
208.694750
 30
0.0
 10
263.659900
 20
208.781110
 30
0.0
 10
263.471940
 20
208.905570
 30
0.0
 10
263.311920
 20
209.068130
 30
0.0
 10
263.184920
 20
209.256090
 30
0.0
 10
263.098560
 20
209.464370
 30
0.0
 10
263.052840
 20
209.687890
 30
0.0
 10
263.052840
 20
209.913950
 30
0.0
 10
263.098560
 20
210.137470
 30
0.0
 10
263.184920
 20
210.345750
 30
0.0
 10
263.311920
 20
210.533710
 30
0.0
 10
263.471940
 20
210.693730
 30
0.0
 10
263.659900
 20
210.820730
 30
0.0
 10
263.868180
 20
210.907090
 30
0.0
 10
263.979940
 20
210.929950
 30
0.0
 10
264.091700
 20
210.952810
 30
0.0
 10
264.317760
 20
210.952810
 30
0.0
  0
LWPOLYLINE
  5
10c
100
AcDbEntity
  8
Layer_1
 62
7
100
AcDbPolyline
 90
36
 70
1
 10
-68.945480
 20
210.929950
 30
0.0
 10
-68.833720
 20
210.907090
 30
0.0
 10
-68.625440
 20
210.820730
 30
0.0
 10
-68.437480
 20
210.693730
 30
0.0
 10
-68.277460
 20
210.533710
 30
0.0
 10
-68.150460
 20
210.345750
 30
0.0
 10
-68.064100
 20
210.137470
 30
0.0
 10
-68.018380
 20
209.913950
 30
0.0
 10
-68.018380
 20
209.687890
 30
0.0
 10
-68.064100
 20
209.464370
 30
0.0
 10
-68.150460
 20
209.256090
 30
0.0
 10
-68.277460
 20
209.068130
 30
0.0
 10
-68.437480
 20
208.905570
 30
0.0
 10
-68.625440
 20
208.781110
 30
0.0
 10
-68.833720
 20
208.694750
 30
0.0
 10
-68.945480
 20
208.671890
 30
0.0
 10
-69.057240
 20
208.649030
 30
0.0
 10
-69.283300
 20
208.649030
 30
0.0
 10
-69.395060
 20
208.671890
 30
0.0
 10
-69.506820
 20
208.694750
 30
0.0
 10
-69.715100
 20
208.781110
 30
0.0
 10
-69.903060
 20
208.905570
 30
0.0
 10
-70.063080
 20
209.068130
 30
0.0
 10
-70.190080
 20
209.256090
 30
0.0
 10
-70.276440
 20
209.464370
 30
0.0
 10
-70.322160
 20
209.687890
 30
0.0
 10
-70.322160
 20
209.913950
 30
0.0
 10
-70.276440
 20
210.137470
 30
0.0
 10
-70.190080
 20
210.345750
 30
0.0
 10
-70.063080
 20
210.533710
 30
0.0
 10
-69.903060
 20
210.693730
 30
0.0
 10
-69.715100
 20
210.820730
 30
0.0
 10
-69.506820
 20
210.907090
 30
0.0
 10
-69.395060
 20
210.929950
 30
0.0
 10
-69.283300
 20
210.952810
 30
0.0
 10
-69.057240
 20
210.952810
 30
0.0
  0
LWPOLYLINE
  5
10d
100
AcDbEntity
  8
Layer_1
 62
7
100
AcDbPolyline
 90
36
 70
1
 10
264.429520
 20
254.584930
 30
0.0
 10
264.541280
 20
254.564610
 30
0.0
 10
264.749560
 20
254.478250
 30
0.0
 10
264.937520
 20
254.351250
 30
0.0
 10
265.097540
 20
254.191230
 30
0.0
 10
265.224540
 20
254.003270
 30
0.0
 10
265.310900
 20
253.792450
 30
0.0
 10
265.356620
 20
253.571470
 30
0.0
 10
265.356620
 20
253.342870
 30
0.0
 10
265.310900
 20
253.121890
 30
0.0
 10
265.224540
 20
252.911070
 30
0.0
 10
265.097540
 20
252.723110
 30
0.0
 10
264.937520
 20
252.563090
 30
0.0
 10
264.749560
 20
252.436090
 30
0.0
 10
264.541280
 20
252.349730
 30
0.0
 10
264.429520
 20
252.329410
 30
0.0
 10
264.317760
 20
252.306550
 30
0.0
 10
264.091700
 20
252.306550
 30
0.0
 10
263.979940
 20
252.329410
 30
0.0
 10
263.868180
 20
252.349730
 30
0.0
 10
263.659900
 20
252.436090
 30
0.0
 10
263.471940
 20
252.563090
 30
0.0
 10
263.311920
 20
252.723110
 30
0.0
 10
263.184920
 20
252.911070
 30
0.0
 10
263.098560
 20
253.121890
 30
0.0
 10
263.052840
 20
253.342870
 30
0.0
 10
263.052840
 20
253.571470
 30
0.0
 10
263.098560
 20
253.792450
 30
0.0
 10
263.184920
 20
254.003270
 30
0.0
 10
263.311920
 20
254.191230
 30
0.0
 10
263.471940
 20
254.351250
 30
0.0
 10
263.659900
 20
254.478250
 30
0.0
 10
263.868180
 20
254.564610
 30
0.0
 10
263.979940
 20
254.584930
 30
0.0
 10
264.091700
 20
254.607790
 30
0.0
 10
264.317760
 20
254.607790
 30
0.0
  0
LWPOLYLINE
  5
10e
100
AcDbEntity
  8
Layer_1
 62
7
100
AcDbPolyline
 90
36
 70
1
 10
104.092020
 20
254.584930
 30
0.0
 10
104.201240
 20
254.564610
 30
0.0
 10
104.412060
 20
254.478250
 30
0.0
 10
104.600020
 20
254.351250
 30
0.0
 10
104.760040
 20
254.191230
 30
0.0
 10
104.887040
 20
254.003270
 30
0.0
 10
104.973400
 20
253.792450
 30
0.0
 10
105.016580
 20
253.571470
 30
0.0
 10
105.016580
 20
253.342870
 30
0.0
 10
104.973400
 20
253.121890
 30
0.0
 10
104.887040
 20
252.911070
 30
0.0
 10
104.760040
 20
252.723110
 30
0.0
 10
104.600020
 20
252.563090
 30
0.0
 10
104.412060
 20
252.436090
 30
0.0
 10
104.201240
 20
252.349730
 30
0.0
 10
104.092020
 20
252.329410
 30
0.0
 10
103.980260
 20
252.306550
 30
0.0
 10
103.754200
 20
252.306550
 30
0.0
 10
103.642440
 20
252.329410
 30
0.0
 10
103.530680
 20
252.349730
 30
0.0
 10
103.322400
 20
252.436090
 30
0.0
 10
103.131900
 20
252.563090
 30
0.0
 10
102.971880
 20
252.723110
 30
0.0
 10
102.847420
 20
252.911070
 30
0.0
 10
102.761060
 20
253.121890
 30
0.0
 10
102.715340
 20
253.342870
 30
0.0
 10
102.715340
 20
253.571470
 30
0.0
 10
102.761060
 20
253.792450
 30
0.0
 10
102.847420
 20
254.003270
 30
0.0
 10
102.971880
 20
254.191230
 30
0.0
 10
103.131900
 20
254.351250
 30
0.0
 10
103.322400
 20
254.478250
 30
0.0
 10
103.530680
 20
254.564610
 30
0.0
 10
103.642440
 20
254.584930
 30
0.0
 10
103.754200
 20
254.607790
 30
0.0
 10
103.980260
 20
254.607790
 30
0.0
  0
LWPOLYLINE
  5
10f
100
AcDbEntity
  8
Layer_1
 62
7
100
AcDbPolyline
 90
36
 70
1
 10
-68.945480
 20
254.584930
 30
0.0
 10
-68.833720
 20
254.564610
 30
0.0
 10
-68.625440
 20
254.478250
 30
0.0
 10
-68.437480
 20
254.351250
 30
0.0
 10
-68.277460
 20
254.191230
 30
0.0
 10
-68.150460
 20
254.003270
 30
0.0
 10
-68.064100
 20
253.792450
 30
0.0
 10
-68.018380
 20
253.571470
 30
0.0
 10
-68.018380
 20
253.342870
 30
0.0
 10
-68.064100
 20
253.121890
 30
0.0
 10
-68.150460
 20
252.911070
 30
0.0
 10
-68.277460
 20
252.723110
 30
0.0
 10
-68.437480
 20
252.563090
 30
0.0
 10
-68.625440
 20
252.436090
 30
0.0
 10
-68.833720
 20
252.349730
 30
0.0
 10
-68.945480
 20
252.329410
 30
0.0
 10
-69.057240
 20
252.306550
 30
0.0
 10
-69.283300
 20
252.306550
 30
0.0
 10
-69.395060
 20
252.329410
 30
0.0
 10
-69.506820
 20
252.349730
 30
0.0
 10
-69.715100
 20
252.436090
 30
0.0
 10
-69.903060
 20
252.563090
 30
0.0
 10
-70.063080
 20
252.723110
 30
0.0
 10
-70.190080
 20
252.911070
 30
0.0
 10
-70.276440
 20
253.121890
 30
0.0
 10
-70.322160
 20
253.342870
 30
0.0
 10
-70.322160
 20
253.571470
 30
0.0
 10
-70.276440
 20
253.792450
 30
0.0
 10
-70.190080
 20
254.003270
 30
0.0
 10
-70.063080
 20
254.191230
 30
0.0
 10
-69.903060
 20
254.351250
 30
0.0
 10
-69.715100
 20
254.478250
 30
0.0
 10
-69.506820
 20
254.564610
 30
0.0
 10
-69.395060
 20
254.584930
 30
0.0
 10
-69.283300
 20
254.607790
 30
0.0
 10
-69.057240
 20
254.607790
 30
0.0
  0
LWPOLYLINE
  5
110
100
AcDbEntity
  8
Layer_1
 62
7
100
AcDbPolyline
 90
36
 70
1
 10
104.881960
 20
210.137470
 30
0.0
 10
104.996260
 20
210.114610
 30
0.0
 10
105.207080
 20
210.028250
 30
0.0
 10
105.395040
 20
209.901250
 30
0.0
 10
105.555060
 20
209.741230
 30
0.0
 10
105.679520
 20
209.553270
 30
0.0
 10
105.768420
 20
209.342450
 30
0.0
 10
105.811600
 20
209.121470
 30
0.0
 10
105.811600
 20
208.892870
 30
0.0
 10
105.768420
 20
208.671890
 30
0.0
 10
105.679520
 20
208.461070
 30
0.0
 10
105.555060
 20
208.273110
 30
0.0
 10
105.395040
 20
208.113090
 30
0.0
 10
105.207080
 20
207.986090
 30
0.0
 10
104.996260
 20
207.899730
 30
0.0
 10
104.884500
 20
207.879410
 30
0.0
 10
104.775280
 20
207.856550
 30
0.0
 10
104.546680
 20
207.856550
 30
0.0
 10
104.434920
 20
207.879410
 30
0.0
 10
104.325700
 20
207.899730
 30
0.0
 10
104.114880
 20
207.986090
 30
0.0
 10
103.926920
 20
208.113090
 30
0.0
 10
103.766900
 20
208.273110
 30
0.0
 10
103.639900
 20
208.461070
 30
0.0
 10
103.553540
 20
208.671890
 30
0.0
 10
103.510360
 20
208.892870
 30
0.0
 10
103.510360
 20
209.121470
 30
0.0
 10
103.553540
 20
209.342450
 30
0.0
 10
103.639900
 20
209.553270
 30
0.0
 10
103.766900
 20
209.741230
 30
0.0
 10
103.926920
 20
209.901250
 30
0.0
 10
104.114880
 20
210.028250
 30
0.0
 10
104.325700
 20
210.114610
 30
0.0
 10
104.440000
 20
210.137470
 30
0.0
 10
104.546680
 20
210.157790
 30
0.0
 10
104.775280
 20
210.157790
 30
0.0
  0
LWPOLYLINE
  5
111
100
AcDbEntity
  8
Layer_1
 62
7
100
AcDbPolyline
 90
36
 70
1
 10
264.429520
 20
210.929950
 30
0.0
 10
264.541280
 20
210.907090
 30
0.0
 10
264.749560
 20
210.820730
 30
0.0
 10
264.937520
 20
210.693730
 30
0.0
 10
265.097540
 20
210.533710
 30
0.0
 10
265.224540
 20
210.345750
 30
0.0
 10
265.310900
 20
210.137470
 30
0.0
 10
265.356620
 20
209.913950
 30
0.0
 10
265.356620
 20
209.687890
 30
0.0
 10
265.310900
 20
209.464370
 30
0.0
 10
265.224540
 20
209.256090
 30
0.0
 10
265.097540
 20
209.068130
 30
0.0
 10
264.937520
 20
208.905570
 30
0.0
 10
264.749560
 20
208.781110
 30
0.0
 10
264.541280
 20
208.694750
 30
0.0
 10
264.429520
 20
208.671890
 30
0.0
 10
264.317760
 20
208.649030
 30
0.0
 10
264.091700
 20
208.649030
 30
0.0
 10
263.979940
 20
208.671890
 30
0.0
 10
263.868180
 20
208.694750
 30
0.0
 10
263.659900
 20
208.781110
 30
0.0
 10
263.471940
 20
208.905570
 30
0.0
 10
263.311920
 20
209.068130
 30
0.0
 10
263.184920
 20
209.256090
 30
0.0
 10
263.098560
 20
209.464370
 30
0.0
 10
263.052840
 20
209.687890
 30
0.0
 10
263.052840
 20
209.913950
 30
0.0
 10
263.098560
 20
210.137470
 30
0.0
 10
263.184920
 20
210.345750
 30
0.0
 10
263.311920
 20
210.533710
 30
0.0
 10
263.471940
 20
210.693730
 30
0.0
 10
263.659900
 20
210.820730
 30
0.0
 10
263.868180
 20
210.907090
 30
0.0
 10
263.979940
 20
210.929950
 30
0.0
 10
264.091700
 20
210.952810
 30
0.0
 10
264.317760
 20
210.952810
 30
0.0
  0
LWPOLYLINE
  5
112
100
AcDbEntity
  8
Layer_1
 62
7
100
AcDbPolyline
 90
36
 70
1
 10
-68.945480
 20
210.929950
 30
0.0
 10
-68.833720
 20
210.907090
 30
0.0
 10
-68.625440
 20
210.820730
 30
0.0
 10
-68.437480
 20
210.693730
 30
0.0
 10
-68.277460
 20
210.533710
 30
0.0
 10
-68.150460
 20
210.345750
 30
0.0
 10
-68.064100
 20
210.137470
 30
0.0
 10
-68.018380
 20
209.913950
 30
0.0
 10
-68.018380
 20
209.687890
 30
0.0
 10
-68.064100
 20
209.464370
 30
0.0
 10
-68.150460
 20
209.256090
 30
0.0
 10
-68.277460
 20
209.068130
 30
0.0
 10
-68.437480
 20
208.905570
 30
0.0
 10
-68.625440
 20
208.781110
 30
0.0
 10
-68.833720
 20
208.694750
 30
0.0
 10
-68.945480
 20
208.671890
 30
0.0
 10
-69.057240
 20
208.649030
 30
0.0
 10
-69.283300
 20
208.649030
 30
0.0
 10
-69.395060
 20
208.671890
 30
0.0
 10
-69.506820
 20
208.694750
 30
0.0
 10
-69.715100
 20
208.781110
 30
0.0
 10
-69.903060
 20
208.905570
 30
0.0
 10
-70.063080
 20
209.068130
 30
0.0
 10
-70.190080
 20
209.256090
 30
0.0
 10
-70.276440
 20
209.464370
 30
0.0
 10
-70.322160
 20
209.687890
 30
0.0
 10
-70.322160
 20
209.913950
 30
0.0
 10
-70.276440
 20
210.137470
 30
0.0
 10
-70.190080
 20
210.345750
 30
0.0
 10
-70.063080
 20
210.533710
 30
0.0
 10
-69.903060
 20
210.693730
 30
0.0
 10
-69.715100
 20
210.820730
 30
0.0
 10
-69.506820
 20
210.907090
 30
0.0
 10
-69.395060
 20
210.929950
 30
0.0
 10
-69.283300
 20
210.952810
 30
0.0
 10
-69.057240
 20
210.952810
 30
0.0
  0
LWPOLYLINE
  5
113
100
AcDbEntity
  8
Layer_1
 62
7
100
AcDbPolyline
 90
36
 70
1
 10
264.429520
 20
254.584930
 30
0.0
 10
264.541280
 20
254.564610
 30
0.0
 10
264.749560
 20
254.478250
 30
0.0
 10
264.937520
 20
254.351250
 30
0.0
 10
265.097540
 20
254.191230
 30
0.0
 10
265.224540
 20
254.003270
 30
0.0
 10
265.310900
 20
253.792450
 30
0.0
 10
265.356620
 20
253.571470
 30
0.0
 10
265.356620
 20
253.342870
 30
0.0
 10
265.310900
 20
253.121890
 30
0.0
 10
265.224540
 20
252.911070
 30
0.0
 10
265.097540
 20
252.723110
 30
0.0
 10
264.937520
 20
252.563090
 30
0.0
 10
264.749560
 20
252.436090
 30
0.0
 10
264.541280
 20
252.349730
 30
0.0
 10
264.429520
 20
252.329410
 30
0.0
 10
264.317760
 20
252.306550
 30
0.0
 10
264.091700
 20
252.306550
 30
0.0
 10
263.979940
 20
252.329410
 30
0.0
 10
263.868180
 20
252.349730
 30
0.0
 10
263.659900
 20
252.436090
 30
0.0
 10
263.471940
 20
252.563090
 30
0.0
 10
263.311920
 20
252.723110
 30
0.0
 10
263.184920
 20
252.911070
 30
0.0
 10
263.098560
 20
253.121890
 30
0.0
 10
263.052840
 20
253.342870
 30
0.0
 10
263.052840
 20
253.571470
 30
0.0
 10
263.098560
 20
253.792450
 30
0.0
 10
263.184920
 20
254.003270
 30
0.0
 10
263.311920
 20
254.191230
 30
0.0
 10
263.471940
 20
254.351250
 30
0.0
 10
263.659900
 20
254.478250
 30
0.0
 10
263.868180
 20
254.564610
 30
0.0
 10
263.979940
 20
254.584930
 30
0.0
 10
264.091700
 20
254.607790
 30
0.0
 10
264.317760
 20
254.607790
 30
0.0
  0
LWPOLYLINE
  5
114
100
AcDbEntity
  8
Layer_1
 62
7
100
AcDbPolyline
 90
36
 70
1
 10
104.092020
 20
254.584930
 30
0.0
 10
104.201240
 20
254.564610
 30
0.0
 10
104.412060
 20
254.478250
 30
0.0
 10
104.600020
 20
254.351250
 30
0.0
 10
104.760040
 20
254.191230
 30
0.0
 10
104.887040
 20
254.003270
 30
0.0
 10
104.973400
 20
253.792450
 30
0.0
 10
105.016580
 20
253.571470
 30
0.0
 10
105.016580
 20
253.342870
 30
0.0
 10
104.973400
 20
253.121890
 30
0.0
 10
104.887040
 20
252.911070
 30
0.0
 10
104.760040
 20
252.723110
 30
0.0
 10
104.600020
 20
252.563090
 30
0.0
 10
104.412060
 20
252.436090
 30
0.0
 10
104.201240
 20
252.349730
 30
0.0
 10
104.092020
 20
252.329410
 30
0.0
 10
103.980260
 20
252.306550
 30
0.0
 10
103.754200
 20
252.306550
 30
0.0
 10
103.642440
 20
252.329410
 30
0.0
 10
103.530680
 20
252.349730
 30
0.0
 10
103.322400
 20
252.436090
 30
0.0
 10
103.131900
 20
252.563090
 30
0.0
 10
102.971880
 20
252.723110
 30
0.0
 10
102.847420
 20
252.911070
 30
0.0
 10
102.761060
 20
253.121890
 30
0.0
 10
102.715340
 20
253.342870
 30
0.0
 10
102.715340
 20
253.571470
 30
0.0
 10
102.761060
 20
253.792450
 30
0.0
 10
102.847420
 20
254.003270
 30
0.0
 10
102.971880
 20
254.191230
 30
0.0
 10
103.131900
 20
254.351250
 30
0.0
 10
103.322400
 20
254.478250
 30
0.0
 10
103.530680
 20
254.564610
 30
0.0
 10
103.642440
 20
254.584930
 30
0.0
 10
103.754200
 20
254.607790
 30
0.0
 10
103.980260
 20
254.607790
 30
0.0
  0
LWPOLYLINE
  5
115
100
AcDbEntity
  8
Layer_1
 62
7
100
AcDbPolyline
 90
36
 70
1
 10
-68.945480
 20
254.584930
 30
0.0
 10
-68.833720
 20
254.564610
 30
0.0
 10
-68.625440
 20
254.478250
 30
0.0
 10
-68.437480
 20
254.351250
 30
0.0
 10
-68.277460
 20
254.191230
 30
0.0
 10
-68.150460
 20
254.003270
 30
0.0
 10
-68.064100
 20
253.792450
 30
0.0
 10
-68.018380
 20
253.571470
 30
0.0
 10
-68.018380
 20
253.342870
 30
0.0
 10
-68.064100
 20
253.121890
 30
0.0
 10
-68.150460
 20
252.911070
 30
0.0
 10
-68.277460
 20
252.723110
 30
0.0
 10
-68.437480
 20
252.563090
 30
0.0
 10
-68.625440
 20
252.436090
 30
0.0
 10
-68.833720
 20
252.349730
 30
0.0
 10
-68.945480
 20
252.329410
 30
0.0
 10
-69.057240
 20
252.306550
 30
0.0
 10
-69.283300
 20
252.306550
 30
0.0
 10
-69.395060
 20
252.329410
 30
0.0
 10
-69.506820
 20
252.349730
 30
0.0
 10
-69.715100
 20
252.436090
 30
0.0
 10
-69.903060
 20
252.563090
 30
0.0
 10
-70.063080
 20
252.723110
 30
0.0
 10
-70.190080
 20
252.911070
 30
0.0
 10
-70.276440
 20
253.121890
 30
0.0
 10
-70.322160
 20
253.342870
 30
0.0
 10
-70.322160
 20
253.571470
 30
0.0
 10
-70.276440
 20
253.792450
 30
0.0
 10
-70.190080
 20
254.003270
 30
0.0
 10
-70.063080
 20
254.191230
 30
0.0
 10
-69.903060
 20
254.351250
 30
0.0
 10
-69.715100
 20
254.478250
 30
0.0
 10
-69.506820
 20
254.564610
 30
0.0
 10
-69.395060
 20
254.584930
 30
0.0
 10
-69.283300
 20
254.607790
 30
0.0
 10
-69.057240
 20
254.607790
 30
0.0
  0
ENDSEC
  0
SECTION
  2
OBJECTS
  0
DICTIONARY
  5
C
330
0
100
AcDbDictionary
  3
ACAD_GROUP
350
D
  3
ACAD_MLINESTYLE
350
17
  0
DICTIONARY
  5
D
330
C
100
AcDbDictionary
  0
DICTIONARY
  5
1A
330
C
100
AcDbDictionary
  0
DICTIONARY
  5
17
330
C
100
AcDbDictionary
  3
STANDARD
350
18
  0
DICTIONARY
  5
19
330
C
100
AcDbDictionary
  0
ENDSEC
  0
EOF
