<?xml version="1.0" encoding="UTF-8" standalone="no"?>
<svg
   xmlns:dc="http://purl.org/dc/elements/1.1/"
   xmlns:cc="http://creativecommons.org/ns#"
   xmlns:rdf="http://www.w3.org/1999/02/22-rdf-syntax-ns#"
   xmlns:svg="http://www.w3.org/2000/svg"
   xmlns="http://www.w3.org/2000/svg"
   xmlns:sodipodi="http://sodipodi.sourceforge.net/DTD/sodipodi-0.dtd"
   xmlns:inkscape="http://www.inkscape.org/namespaces/inkscape"
   width="210mm"
   height="297mm"
   viewBox="0 0 210 297"
   version="1.1"
   id="svg8"
   inkscape:version="1.0.1 (3bc2e813f5, 2020-09-07)"
   sodipodi:docname="topAcrylic.svg">
  <defs
     id="defs2" />
  <sodipodi:namedview
     id="base"
     pagecolor="#ffffff"
     bordercolor="#666666"
     borderopacity="1.0"
     inkscape:pageopacity="0.0"
     inkscape:pageshadow="2"
     inkscape:zoom="0.175"
     inkscape:cx="172.16294"
     inkscape:cy="553.92443"
     inkscape:document-units="mm"
     inkscape:current-layer="layer1"
     inkscape:document-rotation="0"
     showgrid="false"
     inkscape:window-width="1267"
     inkscape:window-height="1041"
     inkscape:window-x="156"
     inkscape:window-y="30"
     inkscape:window-maximized="0" />
  <metadata
     id="metadata5">
    <rdf:RDF>
      <cc:Work
         rdf:about="">
        <dc:format>image/svg+xml</dc:format>
        <dc:type
           rdf:resource="http://purl.org/dc/dcmitype/StillImage" />
        <dc:title></dc:title>
      </cc:Work>
    </rdf:RDF>
  </metadata>
  <g
     inkscape:label="Layer 1"
     inkscape:groupmode="layer"
     id="layer1">
    <g
       id="g123"
       transform="scale(0.00254)">
      <g
         style="fill:#000000;fill-opacity:1;stroke:#000000;stroke-linecap:round;stroke-linejoin:round;stroke-opacity:1"
         id="g82" />
      <g
         style="fill:#000000;fill-opacity:0;stroke:#000000;stroke-width:-0.000393701;stroke-linecap:round;stroke-linejoin:round;stroke-opacity:1"
         id="g102">
        <g
           id="g84" />
        <g
           id="g86" />
        <g
           id="g88" />
        <g
           id="g90" />
        <g
           id="g92" />
        <g
           id="g94" />
        <g
           id="g96" />
        <g
           id="g98" />
        <g
           id="g100" />
      </g>
    </g>
    <g
       id="g170"
       transform="scale(0.00254)">
      <g
         style="fill:#000000;fill-opacity:1;stroke:#000000;stroke-linecap:round;stroke-linejoin:round;stroke-opacity:1"
         id="g129" />
      <g
         style="fill:#000000;fill-opacity:0;stroke:#000000;stroke-width:-0.000393701;stroke-linecap:round;stroke-linejoin:round;stroke-opacity:1"
         id="g149">
        <g
           id="g131" />
        <g
           id="g133" />
        <g
           id="g135" />
        <g
           id="g137" />
        <g
           id="g139" />
        <g
           id="g141" />
        <g
           id="g143" />
        <g
           id="g145" />
        <g
           id="g147" />
      </g>
    </g>
    <g
       id="g211"
       transform="scale(0.00254)">
      <g
         style="fill:#000000;fill-opacity:1;stroke:#000000;stroke-linecap:round;stroke-linejoin:round;stroke-opacity:1"
         id="g176" />
      <g
         style="fill:#000000;fill-opacity:0;stroke:#000000;stroke-width:-0.000393701;stroke-linecap:round;stroke-linejoin:round;stroke-opacity:1"
         id="g192">
        <g
           id="g178" />
        <g
           id="g180" />
        <g
           id="g182" />
        <g
           id="g184" />
        <g
           id="g186" />
        <g
           id="g188" />
        <g
           id="g190" />
      </g>
    </g>
    <g
       id="g252"
       transform="scale(0.00254)">
      <g
         style="fill:#000000;fill-opacity:1;stroke:#000000;stroke-linecap:round;stroke-linejoin:round;stroke-opacity:1"
         id="g217" />
      <g
         style="fill:#000000;fill-opacity:0;stroke:#000000;stroke-width:-0.000393701;stroke-linecap:round;stroke-linejoin:round;stroke-opacity:1"
         id="g233">
        <g
           id="g219" />
        <g
           id="g221" />
        <g
           id="g223" />
        <g
           id="g225" />
        <g
           id="g227" />
        <g
           id="g229" />
        <g
           id="g231" />
      </g>
    </g>
    <g
       id="g293"
       transform="scale(0.00254)">
      <g
         style="fill:#000000;fill-opacity:1;stroke:#000000;stroke-linecap:round;stroke-linejoin:round;stroke-opacity:1"
         id="g258" />
      <g
         style="fill:#000000;fill-opacity:0;stroke:#000000;stroke-width:-0.000393701;stroke-linecap:round;stroke-linejoin:round;stroke-opacity:1"
         id="g274">
        <g
           id="g260" />
        <g
           id="g262" />
        <g
           id="g264" />
        <g
           id="g266" />
        <g
           id="g268" />
        <g
           id="g270" />
        <g
           id="g272" />
      </g>
    </g>
    <g
       id="g361"
       transform="matrix(0.00254,0,0,0.00254,-411.31298,32.508142)">
      <g
         style="fill:#000000;fill-opacity:1;stroke:#000000;stroke-linecap:round;stroke-linejoin:round;stroke-opacity:1"
         id="g299" />
      <g
         style="fill:#000000;fill-opacity:0;stroke:#000000;stroke-width:-0.000393701;stroke-linecap:round;stroke-linejoin:round;stroke-opacity:1"
         id="g301" />
      <g
         style="fill:#000000;fill-opacity:0;stroke:#000000;stroke-width:19.685;stroke-linecap:round;stroke-linejoin:round;stroke-opacity:1"
         id="g333">
        <path
           d="M 6562,27812 H 139687"
           id="path303" />
        <path
           d="m 5625,26875 a 937.5,937.5 0 0 0 937.5,937.5"
           id="path305" />
        <path
           d="M 5625,26875 V 6875"
           id="path307" />
        <path
           d="m 139688,27812.5 a 937.5,937.5 0 0 0 937,-937.5"
           id="path309" />
        <path
           d="m 140625,6875 a 937.5,937.5 0 0 0 -937,-937.5"
           id="path311" />
        <path
           d="M 6562,5937 H 139687"
           id="path313" />
        <path
           d="M 6562.5,5937.5 A 937.5,937.5 0 0 0 5625,6875"
           id="path315" />
        <path
           d="M 140625,26875 V 6875"
           id="path317" />
        <g
           id="g319" />
        <g
           id="g321" />
        <g
           id="g323" />
        <g
           id="g325" />
        <g
           id="g327" />
        <g
           id="g329" />
        <g
           id="g331" />
      </g>
    </g>
    <g
       id="g408"
       transform="scale(0.00254)">
      <g
         style="fill:#000000;fill-opacity:1;stroke:#000000;stroke-linecap:round;stroke-linejoin:round;stroke-opacity:1"
         id="g367" />
      <g
         style="fill:#000000;fill-opacity:0;stroke:#000000;stroke-width:-0.000393701;stroke-linecap:round;stroke-linejoin:round;stroke-opacity:1"
         id="g387">
        <g
           id="g369" />
        <g
           id="g371" />
        <g
           id="g373" />
        <g
           id="g375" />
        <g
           id="g377" />
        <g
           id="g379" />
        <g
           id="g381" />
        <g
           id="g383" />
        <g
           id="g385" />
      </g>
    </g>
    <g
       id="g455"
       transform="scale(0.00254)">
      <g
         style="fill:#000000;fill-opacity:1;stroke:#000000;stroke-linecap:round;stroke-linejoin:round;stroke-opacity:1"
         id="g414" />
      <g
         style="fill:#000000;fill-opacity:0;stroke:#000000;stroke-width:-0.000393701;stroke-linecap:round;stroke-linejoin:round;stroke-opacity:1"
         id="g434">
        <g
           id="g416" />
        <g
           id="g418" />
        <g
           id="g420" />
        <g
           id="g422" />
        <g
           id="g424" />
        <g
           id="g426" />
        <g
           id="g428" />
        <g
           id="g430" />
        <g
           id="g432" />
      </g>
    </g>
    <g
       id="g496"
       transform="matrix(0.00254,0,0,0.00254,-411.31171,33.302527)">
      <g
         style="fill:#000000;fill-opacity:1;stroke:#000000;stroke-linecap:round;stroke-linejoin:round;stroke-opacity:1"
         id="g461" />
      <g
         style="fill:#000000;fill-opacity:0;stroke:#000000;stroke-width:-0.000393701;stroke-linecap:round;stroke-linejoin:round;stroke-opacity:1"
         id="g463" />
      <g
         style="fill:#000000;fill-opacity:1;stroke:#000000;stroke-width:0;stroke-linecap:round;stroke-linejoin:round;stroke-opacity:1"
         id="g477">
        <path
           style="fill:#000000;fill-opacity:1;fill-rule:evenodd;stroke:#000000;stroke-width:0;stroke-linecap:round;stroke-linejoin:round;stroke-opacity:1"
           d="m 76024,24867 45,9 83,34 74,50 63,63 49,74 35,83 17,87 v 90 l -17,87 -35,83 -49,74 -63,63 -74,50 -83,34 -44,8 -43,9 h -90 l -44,-9 -43,-8 -83,-34 -74,-50 -63,-63 -50,-74 -34,-83 -17,-87 v -90 l 17,-87 34,-83 50,-74 63,-63 74,-50 83,-34 45,-9 42,-8 h 90 z"
           id="path465" />
        <path
           style="fill:#000000;fill-opacity:1;fill-rule:evenodd;stroke:#000000;stroke-width:0;stroke-linecap:round;stroke-linejoin:round;stroke-opacity:1"
           d="m 138838,24555 44,9 82,34 74,50 63,63 50,74 34,82 18,88 v 89 l -18,88 -34,82 -50,74 -63,64 -74,49 -82,34 -44,9 -44,9 h -89 l -44,-9 -44,-9 -82,-34 -74,-49 -63,-64 -50,-74 -34,-82 -18,-88 v -89 l 18,-88 34,-82 50,-74 63,-63 74,-50 82,-34 44,-9 44,-9 h 89 z"
           id="path467" />
        <path
           style="fill:#000000;fill-opacity:1;fill-rule:evenodd;stroke:#000000;stroke-width:0;stroke-linecap:round;stroke-linejoin:round;stroke-opacity:1"
           d="m 7588,24555 44,9 82,34 74,50 63,63 50,74 34,82 18,88 v 89 l -18,88 -34,82 -50,74 -63,64 -74,49 -82,34 -44,9 -44,9 h -89 l -44,-9 -44,-9 -82,-34 -74,-49 -63,-64 -50,-74 -34,-82 -18,-88 v -89 l 18,-88 34,-82 50,-74 63,-63 74,-50 82,-34 44,-9 44,-9 h 89 z"
           id="path469" />
        <path
           style="fill:#000000;fill-opacity:1;fill-rule:evenodd;stroke:#000000;stroke-width:0;stroke-linecap:round;stroke-linejoin:round;stroke-opacity:1"
           d="m 138838,7368 44,8 82,34 74,50 63,63 50,74 34,83 18,87 v 90 l -18,87 -34,83 -50,74 -63,63 -74,50 -82,34 -44,8 -44,9 h -89 l -44,-9 -44,-8 -82,-34 -74,-50 -63,-63 -50,-74 -34,-83 -18,-87 v -90 l 18,-87 34,-83 50,-74 63,-63 74,-50 82,-34 44,-8 44,-9 h 89 z"
           id="path471" />
        <path
           style="fill:#000000;fill-opacity:1;fill-rule:evenodd;stroke:#000000;stroke-width:0;stroke-linecap:round;stroke-linejoin:round;stroke-opacity:1"
           d="m 75713,7368 43,8 83,34 74,50 63,63 50,74 34,83 17,87 v 90 l -17,87 -34,83 -50,74 -63,63 -74,50 -83,34 -43,8 -44,9 h -89 l -44,-9 -44,-8 -82,-34 -75,-50 -63,-63 -49,-74 -34,-83 -18,-87 v -90 l 18,-87 34,-83 49,-74 63,-63 75,-50 82,-34 44,-8 44,-9 h 89 z"
           id="path473" />
        <path
           style="fill:#000000;fill-opacity:1;fill-rule:evenodd;stroke:#000000;stroke-width:0;stroke-linecap:round;stroke-linejoin:round;stroke-opacity:1"
           d="m 7588,7368 44,8 82,34 74,50 63,63 50,74 34,83 18,87 v 90 l -18,87 -34,83 -50,74 -63,63 -74,50 -82,34 -44,8 -44,9 h -89 l -44,-9 -44,-8 -82,-34 -74,-50 -63,-63 -50,-74 -34,-83 -18,-87 v -90 l 18,-87 34,-83 50,-74 63,-63 74,-50 82,-34 44,-8 44,-9 h 89 z"
           id="path475" />
      </g>
    </g>
    <g
       id="g543"
       transform="scale(0.00254)">
      <g
         style="fill:#000000;fill-opacity:1;stroke:#000000;stroke-linecap:round;stroke-linejoin:round;stroke-opacity:1"
         id="g502" />
      <g
         style="fill:#000000;fill-opacity:0;stroke:#000000;stroke-width:-0.000393701;stroke-linecap:round;stroke-linejoin:round;stroke-opacity:1"
         id="g522">
        <g
           id="g504" />
        <g
           id="g506" />
        <g
           id="g508" />
        <g
           id="g510" />
        <g
           id="g512" />
        <g
           id="g514" />
        <g
           id="g516" />
        <g
           id="g518" />
        <g
           id="g520" />
      </g>
    </g>
    <g
       id="g566"
       transform="scale(0.00254)">
      <g
         style="fill:#000000;fill-opacity:1;stroke:#000000;stroke-linecap:round;stroke-linejoin:round;stroke-opacity:1"
         id="g549" />
      <g
         style="fill:#000000;fill-opacity:0;stroke:#000000;stroke-width:-0.000393701;stroke-linecap:round;stroke-linejoin:round;stroke-opacity:1"
         id="g553">
        <g
           id="g551" />
      </g>
    </g>
    <g
       id="g613"
       transform="scale(0.00254)">
      <g
         style="fill:#000000;fill-opacity:1;stroke:#000000;stroke-linecap:round;stroke-linejoin:round;stroke-opacity:1"
         id="g572" />
      <g
         style="fill:#000000;fill-opacity:0;stroke:#000000;stroke-width:-0.000393701;stroke-linecap:round;stroke-linejoin:round;stroke-opacity:1"
         id="g592">
        <g
           id="g574" />
        <g
           id="g576" />
        <g
           id="g578" />
        <g
           id="g580" />
        <g
           id="g582" />
        <g
           id="g584" />
        <g
           id="g586" />
        <g
           id="g588" />
        <g
           id="g590" />
      </g>
    </g>
    <g
       id="g660"
       transform="scale(0.00254)">
      <g
         style="fill:#000000;fill-opacity:1;stroke:#000000;stroke-linecap:round;stroke-linejoin:round;stroke-opacity:1"
         id="g619" />
      <g
         style="fill:#000000;fill-opacity:0;stroke:#000000;stroke-width:-0.000393701;stroke-linecap:round;stroke-linejoin:round;stroke-opacity:1"
         id="g639">
        <g
           id="g621" />
        <g
           id="g623" />
        <g
           id="g625" />
        <g
           id="g627" />
        <g
           id="g629" />
        <g
           id="g631" />
        <g
           id="g633" />
        <g
           id="g635" />
        <g
           id="g637" />
      </g>
    </g>
    <g
       id="g701"
       transform="matrix(0.00254,0,0,0.00254,-411.31171,33.302527)">
      <g
         style="fill:#000000;fill-opacity:1;stroke:#000000;stroke-linecap:round;stroke-linejoin:round;stroke-opacity:1"
         id="g666" />
      <g
         style="fill:#000000;fill-opacity:0;stroke:#000000;stroke-width:-0.000393701;stroke-linecap:round;stroke-linejoin:round;stroke-opacity:1"
         id="g668" />
      <g
         style="fill:#000000;fill-opacity:1;stroke:#000000;stroke-width:0;stroke-linecap:round;stroke-linejoin:round;stroke-opacity:1"
         id="g682">
        <path
           style="fill:#000000;fill-opacity:1;fill-rule:evenodd;stroke:#000000;stroke-width:0;stroke-linecap:round;stroke-linejoin:round;stroke-opacity:1"
           d="m 76024,24867 45,9 83,34 74,50 63,63 49,74 35,83 17,87 v 90 l -17,87 -35,83 -49,74 -63,63 -74,50 -83,34 -44,8 -43,9 h -90 l -44,-9 -43,-8 -83,-34 -74,-50 -63,-63 -50,-74 -34,-83 -17,-87 v -90 l 17,-87 34,-83 50,-74 63,-63 74,-50 83,-34 45,-9 42,-8 h 90 z"
           id="path670" />
        <path
           style="fill:#000000;fill-opacity:1;fill-rule:evenodd;stroke:#000000;stroke-width:0;stroke-linecap:round;stroke-linejoin:round;stroke-opacity:1"
           d="m 138838,24555 44,9 82,34 74,50 63,63 50,74 34,82 18,88 v 89 l -18,88 -34,82 -50,74 -63,64 -74,49 -82,34 -44,9 -44,9 h -89 l -44,-9 -44,-9 -82,-34 -74,-49 -63,-64 -50,-74 -34,-82 -18,-88 v -89 l 18,-88 34,-82 50,-74 63,-63 74,-50 82,-34 44,-9 44,-9 h 89 z"
           id="path672" />
        <path
           style="fill:#000000;fill-opacity:1;fill-rule:evenodd;stroke:#000000;stroke-width:0;stroke-linecap:round;stroke-linejoin:round;stroke-opacity:1"
           d="m 7588,24555 44,9 82,34 74,50 63,63 50,74 34,82 18,88 v 89 l -18,88 -34,82 -50,74 -63,64 -74,49 -82,34 -44,9 -44,9 h -89 l -44,-9 -44,-9 -82,-34 -74,-49 -63,-64 -50,-74 -34,-82 -18,-88 v -89 l 18,-88 34,-82 50,-74 63,-63 74,-50 82,-34 44,-9 44,-9 h 89 z"
           id="path674" />
        <path
           style="fill:#000000;fill-opacity:1;fill-rule:evenodd;stroke:#000000;stroke-width:0;stroke-linecap:round;stroke-linejoin:round;stroke-opacity:1"
           d="m 138838,7368 44,8 82,34 74,50 63,63 50,74 34,83 18,87 v 90 l -18,87 -34,83 -50,74 -63,63 -74,50 -82,34 -44,8 -44,9 h -89 l -44,-9 -44,-8 -82,-34 -74,-50 -63,-63 -50,-74 -34,-83 -18,-87 v -90 l 18,-87 34,-83 50,-74 63,-63 74,-50 82,-34 44,-8 44,-9 h 89 z"
           id="path676" />
        <path
           style="fill:#000000;fill-opacity:1;fill-rule:evenodd;stroke:#000000;stroke-width:0;stroke-linecap:round;stroke-linejoin:round;stroke-opacity:1"
           d="m 75713,7368 43,8 83,34 74,50 63,63 50,74 34,83 17,87 v 90 l -17,87 -34,83 -50,74 -63,63 -74,50 -83,34 -43,8 -44,9 h -89 l -44,-9 -44,-8 -82,-34 -75,-50 -63,-63 -49,-74 -34,-83 -18,-87 v -90 l 18,-87 34,-83 49,-74 63,-63 75,-50 82,-34 44,-8 44,-9 h 89 z"
           id="path678" />
        <path
           style="fill:#000000;fill-opacity:1;fill-rule:evenodd;stroke:#000000;stroke-width:0;stroke-linecap:round;stroke-linejoin:round;stroke-opacity:1"
           d="m 7588,7368 44,8 82,34 74,50 63,63 50,74 34,83 18,87 v 90 l -18,87 -34,83 -50,74 -63,63 -74,50 -82,34 -44,8 -44,9 h -89 l -44,-9 -44,-8 -82,-34 -74,-50 -63,-63 -50,-74 -34,-83 -18,-87 v -90 l 18,-87 34,-83 50,-74 63,-63 74,-50 82,-34 44,-8 44,-9 h 89 z"
           id="path680" />
      </g>
    </g>
    <g
       id="g748"
       transform="scale(0.00254)">
      <g
         style="fill:#000000;fill-opacity:1;stroke:#000000;stroke-linecap:round;stroke-linejoin:round;stroke-opacity:1"
         id="g707" />
      <g
         style="fill:#000000;fill-opacity:0;stroke:#000000;stroke-width:-0.000393701;stroke-linecap:round;stroke-linejoin:round;stroke-opacity:1"
         id="g727">
        <g
           id="g709" />
        <g
           id="g711" />
        <g
           id="g713" />
        <g
           id="g715" />
        <g
           id="g717" />
        <g
           id="g719" />
        <g
           id="g721" />
        <g
           id="g723" />
        <g
           id="g725" />
      </g>
    </g>
    <g
       id="g771"
       transform="scale(0.00254)">
      <g
         style="fill:#000000;fill-opacity:1;stroke:#000000;stroke-linecap:round;stroke-linejoin:round;stroke-opacity:1"
         id="g754" />
      <g
         style="fill:#000000;fill-opacity:0;stroke:#000000;stroke-width:-0.000393701;stroke-linecap:round;stroke-linejoin:round;stroke-opacity:1"
         id="g758">
        <g
           id="g756" />
      </g>
    </g>
  </g>
</svg>
