<?xml version="1.0" standalone="no"?>
 <!DOCTYPE svg PUBLIC "-//W3C//DTD SVG 1.1//EN" 
 "http://www.w3.org/Graphics/SVG/1.1/DTD/svg11.dtd"> 
<svg xmlns="http://www.w3.org/2000/svg" version="1.1" 
    width="41.9989cm" height="29.7002cm" viewBox="0 0 165350 116930 ">
<title>SVG Picture created as CZTKeyRev1Plate-Edge_Cuts.svg date 2020/12/20 15:49:19 </title>
  <desc>Picture generated by PCBNEW </desc>
<g style="fill:#000000; fill-opacity:1;stroke:#000000; stroke-opacity:1;
stroke-linecap:round; stroke-linejoin:round; "
 transform="translate(0 0) scale(1 1)">
</g>
<g style="fill:#000000; fill-opacity:0.0; 
stroke:#000000; stroke-width:-0.000393701; stroke-opacity:1; 
stroke-linecap:round; stroke-linejoin:round;">
</g>
<g style="fill:#000000; fill-opacity:0.0; 
stroke:#000000; stroke-width:19.685; stroke-opacity:1; 
stroke-linecap:round; stroke-linejoin:round;">
<path d="M5937.5 53750 A937.5 937.5 0.0 0 0 6875 54687.5 " />
<path d="M140000 54687.5 A937.5 937.5 0.0 0 0 140938 53750 " />
<path d="M140938 6875 A937.5 937.5 0.0 0 0 140000 5937.5 " />
<path d="M6875 5937.5 A937.5 937.5 0.0 0 0 5937.5 6875 " />
<path d="M134634 38803
L139752 38803
" />
<path d="M134634 38803.1 A196.85 196.85 0.0 0 0 134438 39000 " />
<path d="M139752 44315 A196.85 196.85 0.0 0 0 139949 44118.1 " />
<path d="M134438 44118.1 A196.85 196.85 0.0 0 0 134634 44315 " />
<path d="M139949 39000
L139949 44118
" />
<path d="M139949 39000 A196.85 196.85 0.0 0 0 139752 38803.1 " />
<path d="M134634 44314
L139752 44314
" />
<path d="M134437 39000
L134437 44118
" />
<path d="M130377 53690 A196.85 196.85 0.0 0 0 130574 53493.1 " />
<path d="M123074 48375
L123074 53493
" />
<path d="M137877 53690 A196.85 196.85 0.0 0 0 138074 53493.1 " />
<path d="M125062 48375
L125062 53493
" />
<path d="M6875 54687
L140000 54687
" />
<path d="M125259 48178.1 A196.85 196.85 0.0 0 0 125062 48375 " />
<path d="M5937 6875
L5937 53750
" />
<path d="M138074 48375 A196.85 196.85 0.0 0 0 137877 48178.1 " />
<path d="M123074 48375 A196.85 196.85 0.0 0 0 122877 48178.1 " />
<path d="M125062 53493.1 A196.85 196.85 0.0 0 0 125259 53690 " />
<path d="M125259 48178
L130377 48178
" />
<path d="M132562 48375
L132562 53493
" />
<path d="M140937 6875
L140937 53750
" />
<path d="M132759 48178.1 A196.85 196.85 0.0 0 0 132562 48375 " />
<path d="M117562 48375
L117562 53493
" />
<path d="M125259 53689
L130377 53689
" />
<path d="M138074 48375
L138074 53493
" />
<path d="M132562 53493.1 A196.85 196.85 0.0 0 0 132759 53690 " />
<path d="M130574 48375
L130574 53493
" />
<path d="M122877 53690 A196.85 196.85 0.0 0 0 123074 53493.1 " />
<path d="M117562 53493.1 A196.85 196.85 0.0 0 0 117759 53690 " />
<path d="M6875 5937
L140000 5937
" />
<path d="M130574 48375 A196.85 196.85 0.0 0 0 130377 48178.1 " />
<path d="M132759 53689
L137877 53689
" />
<path d="M132759 48178
L137877 48178
" />
<path d="M117759 48178.1 A196.85 196.85 0.0 0 0 117562 48375 " />
<path d="M85384.8 45490.7 A196.85 196.85 0.0 0 0 85188 45687.6 " />
<path d="M87943.9 45687.6 A196.85 196.85 0.0 0 0 87747 45490.7 " />
<path d="M111563 51789
L111957 51789
" />
<path d="M100707 51790 A196.85 196.85 0.0 0 0 100904 51593.1 " />
<path d="M48573.8 45687.6 A196.85 196.85 0.0 0 0 48377 45490.7 " />
<path d="M111563 46278
L111957 46278
" />
<path d="M91179 51789
L91573 51789
" />
<path d="M104634 51789
L109752 51789
" />
<path d="M91179.6 46278.1 A196.85 196.85 0.0 0 0 90982.8 46475 " />
<path d="M90982 46475
L90982 51593
" />
<path d="M85187 51199
L85187 45687
" />
<path d="M48377 51396.3 A196.85 196.85 0.0 0 0 48573.8 51199.4 " />
<path d="M87943 51199
L87943 45687
" />
<path d="M87747 51396.3 A196.85 196.85 0.0 0 0 87943.9 51199.4 " />
<path d="M90982.8 51593.1 A196.85 196.85 0.0 0 0 91179.6 51790 " />
<path d="M93187 46475
L93187 51593
" />
<path d="M93187.5 51593.1 A196.85 196.85 0.0 0 0 93384.4 51790 " />
<path d="M98502.5 51790 A196.85 196.85 0.0 0 0 98699.3 51593.1 " />
<path d="M93384 51789
L98502 51789
" />
<path d="M103020 46475
L103020 51593
" />
<path d="M102429 51789
L102823 51789
" />
<path d="M104438 51593.1 A196.85 196.85 0.0 0 0 104634 51790 " />
<path d="M100117 51593.1 A196.85 196.85 0.0 0 0 100313 51790 " />
<path d="M100313 51789
L100707 51789
" />
<path d="M98699.3 46475 A196.85 196.85 0.0 0 0 98502.5 46278.1 " />
<path d="M45817.9 51199.4 A196.85 196.85 0.0 0 0 46014.8 51396.3 " />
<path d="M104634 46278.1 A196.85 196.85 0.0 0 0 104438 46475 " />
<path d="M100116 46475
L100116 51593
" />
<path d="M98699 46475
L98699 51593
" />
<path d="M87747 45490
L85384 45490
" />
<path d="M45817 51199
L45817 45687
" />
<path d="M100904 46475
L100904 51593
" />
<path d="M93384 46278
L98502 46278
" />
<path d="M100313 46278
L100707 46278
" />
<path d="M46014.8 45490.7 A196.85 196.85 0.0 0 0 45817.9 45687.6 " />
<path d="M111366 46475
L111366 51593
" />
<path d="M87747 51396
L85384 51396
" />
<path d="M85188 51199.4 A196.85 196.85 0.0 0 0 85384.8 51396.3 " />
<path d="M100904 46475 A196.85 196.85 0.0 0 0 100707 46278.1 " />
<path d="M117759 53689
L122877 53689
" />
<path d="M111367 51593.1 A196.85 196.85 0.0 0 0 111563 51790 " />
<path d="M112154 46475 A196.85 196.85 0.0 0 0 111957 46278.1 " />
<path d="M109949 46475
L109949 51593
" />
<path d="M93384.4 46278.1 A196.85 196.85 0.0 0 0 93187.5 46475 " />
<path d="M117759 48178
L122877 48178
" />
<path d="M102232 46475
L102232 51593
" />
<path d="M102823 51790 A196.85 196.85 0.0 0 0 103020 51593.1 " />
<path d="M102233 51593.1 A196.85 196.85 0.0 0 0 102430 51790 " />
<path d="M103020 46475 A196.85 196.85 0.0 0 0 102823 46278.1 " />
<path d="M111957 51790 A196.85 196.85 0.0 0 0 112154 51593.1 " />
<path d="M48573 51199
L48573 45687
" />
<path d="M91573.3 51790 A196.85 196.85 0.0 0 0 91770.2 51593.1 " />
<path d="M112154 46475
L112154 51593
" />
<path d="M109949 46475 A196.85 196.85 0.0 0 0 109752 46278.1 " />
<path d="M91770.2 46475 A196.85 196.85 0.0 0 0 91573.3 46278.1 " />
<path d="M91179 46278
L91573 46278
" />
<path d="M102430 46278.1 A196.85 196.85 0.0 0 0 102233 46475 " />
<path d="M104634 46278
L109752 46278
" />
<path d="M102429 46278
L102823 46278
" />
<path d="M111563 46278.1 A196.85 196.85 0.0 0 0 111367 46475 " />
<path d="M109752 51790 A196.85 196.85 0.0 0 0 109949 51593.1 " />
<path d="M100313 46278.1 A196.85 196.85 0.0 0 0 100117 46475 " />
<path d="M104437 46475
L104437 51593
" />
<path d="M91770 46475
L91770 51593
" />
<path d="M109582 38975
L109582 44093
" />
<path d="M48376 45490
L46014 45490
" />
<path d="M69636.8 46475 A196.85 196.85 0.0 0 0 69440 46278.1 " />
<path d="M7134 51789
L12252 51789
" />
<path d="M26821 46278
L31939 46278
" />
<path d="M7134 46278
L12252 46278
" />
<path d="M125259 46189
L130377 46189
" />
<path d="M36000 51593.1 A196.85 196.85 0.0 0 0 36196.9 51790 " />
<path d="M7134.35 46278.1 A196.85 196.85 0.0 0 0 6937.5 46475 " />
<path d="M130574 40875 A196.85 196.85 0.0 0 0 130377 40678.1 " />
<path d="M36196 46278
L41314 46278
" />
<path d="M22761 46475
L22761 51593
" />
<path d="M48376 51396
L46014 51396
" />
<path d="M69440 51790 A196.85 196.85 0.0 0 0 69636.8 51593.1 " />
<path d="M64321 51789
L69439 51789
" />
<path d="M108795 38975
L108795 44093
" />
<path d="M64125 51593.1 A196.85 196.85 0.0 0 0 64321.9 51790 " />
<path d="M36000 46475
L36000 51593
" />
<path d="M22761.8 46475 A196.85 196.85 0.0 0 0 22565 46278.1 " />
<path d="M64321.9 46278.1 A196.85 196.85 0.0 0 0 64125 46475 " />
<path d="M41511 46475
L41511 51593
" />
<path d="M109386 44290 A196.85 196.85 0.0 0 0 109583 44093.1 " />
<path d="M69636 46475
L69636 51593
" />
<path d="M109583 38975 A196.85 196.85 0.0 0 0 109386 38778.1 " />
<path d="M26625 51593.1 A196.85 196.85 0.0 0 0 26821.9 51790 " />
<path d="M6937.5 51593.1 A196.85 196.85 0.0 0 0 7134.35 51790 " />
<path d="M32136 46475
L32136 51593
" />
<path d="M22565 51790 A196.85 196.85 0.0 0 0 22761.8 51593.1 " />
<path d="M17446 51789
L22564 51789
" />
<path d="M125062 45993.1 A196.85 196.85 0.0 0 0 125259 46190 " />
<path d="M64321 46278
L69439 46278
" />
<path d="M36196.9 46278.1 A196.85 196.85 0.0 0 0 36000 46475 " />
<path d="M125259 40678.1 A196.85 196.85 0.0 0 0 125062 40875 " />
<path d="M32136.8 46475 A196.85 196.85 0.0 0 0 31940 46278.1 " />
<path d="M125062 40875
L125062 45993
" />
<path d="M17250 46475
L17250 51593
" />
<path d="M12449 46475
L12449 51593
" />
<path d="M108992 38778.1 A196.85 196.85 0.0 0 0 108795 38975 " />
<path d="M41315 51790 A196.85 196.85 0.0 0 0 41511.8 51593.1 " />
<path d="M130574 40875
L130574 45993
" />
<path d="M31940 51790 A196.85 196.85 0.0 0 0 32136.8 51593.1 " />
<path d="M26821.9 46278.1 A196.85 196.85 0.0 0 0 26625 46475 " />
<path d="M17446.9 46278.1 A196.85 196.85 0.0 0 0 17250 46475 " />
<path d="M125259 40678
L130377 40678
" />
<path d="M17446 46278
L22564 46278
" />
<path d="M12252.5 51790 A196.85 196.85 0.0 0 0 12449.3 51593.1 " />
<path d="M108795 44093.1 A196.85 196.85 0.0 0 0 108992 44290 " />
<path d="M36196 51789
L41314 51789
" />
<path d="M130377 46190 A196.85 196.85 0.0 0 0 130574 45993.1 " />
<path d="M17250 51593.1 A196.85 196.85 0.0 0 0 17446.9 51790 " />
<path d="M64125 46475
L64125 51593
" />
<path d="M6937 46475
L6937 51593
" />
<path d="M41511.8 46475 A196.85 196.85 0.0 0 0 41315 46278.1 " />
<path d="M26625 46475
L26625 51593
" />
<path d="M26821 51789
L31939 51789
" />
<path d="M12449.3 46475 A196.85 196.85 0.0 0 0 12252.5 46278.1 " />
<path d="M118125 38778
L118519 38778
" />
<path d="M76199 38975
L76199 44093
" />
<path d="M106002 44290 A196.85 196.85 0.0 0 0 106199 44093.1 " />
<path d="M78187.5 44093.1 A196.85 196.85 0.0 0 0 78384.4 44290 " />
<path d="M78187 38975
L78187 44093
" />
<path d="M93187.5 44093.1 A196.85 196.85 0.0 0 0 93384.4 44290 " />
<path d="M111196 38778
L116314 38778
" />
<path d="M108992 44289
L109385 44289
" />
<path d="M108992 38778
L109385 38778
" />
<path d="M106199 38975
L106199 44093
" />
<path d="M118717 38975 A196.85 196.85 0.0 0 0 118520 38778.1 " />
<path d="M70687 38975
L70687 44093
" />
<path d="M118716 38975
L118716 44093
" />
<path d="M76199.3 38975 A196.85 196.85 0.0 0 0 76002.5 38778.1 " />
<path d="M118520 44290 A196.85 196.85 0.0 0 0 118717 44093.1 " />
<path d="M100688 44093.1 A196.85 196.85 0.0 0 0 100884 44290 " />
<path d="M70884 38778
L76002 38778
" />
<path d="M68699.3 38975 A196.85 196.85 0.0 0 0 68502.5 38778.1 " />
<path d="M117929 44093.1 A196.85 196.85 0.0 0 0 118126 44290 " />
<path d="M98699 38975
L98699 44093
" />
<path d="M116315 44290 A196.85 196.85 0.0 0 0 116512 44093.1 " />
<path d="M78384 38778
L83502 38778
" />
<path d="M85687.5 44093.1 A196.85 196.85 0.0 0 0 85884.4 44290 " />
<path d="M111000 44093.1 A196.85 196.85 0.0 0 0 111197 44290 " />
<path d="M83699.3 38975 A196.85 196.85 0.0 0 0 83502.5 38778.1 " />
<path d="M111000 38975
L111000 44093
" />
<path d="M111197 38778.1 A196.85 196.85 0.0 0 0 111000 38975 " />
<path d="M116511 38975
L116511 44093
" />
<path d="M91199 38975
L91199 44093
" />
<path d="M70884.4 38778.1 A196.85 196.85 0.0 0 0 70687.5 38975 " />
<path d="M111196 44289
L116314 44289
" />
<path d="M106199 38975 A196.85 196.85 0.0 0 0 106002 38778.1 " />
<path d="M100884 38778.1 A196.85 196.85 0.0 0 0 100688 38975 " />
<path d="M100884 44289
L106002 44289
" />
<path d="M98699.3 38975 A196.85 196.85 0.0 0 0 98502.5 38778.1 " />
<path d="M100884 38778
L106002 38778
" />
<path d="M93384 44289
L98502 44289
" />
<path d="M93384 38778
L98502 38778
" />
<path d="M91002.5 44290 A196.85 196.85 0.0 0 0 91199.3 44093.1 " />
<path d="M85687 38975
L85687 44093
" />
<path d="M85884 38778
L91002 38778
" />
<path d="M63187 38975
L63187 44093
" />
<path d="M83699 38975
L83699 44093
" />
<path d="M63187.5 44093.1 A196.85 196.85 0.0 0 0 63384.4 44290 " />
<path d="M68699 38975
L68699 44093
" />
<path d="M118126 38778.1 A196.85 196.85 0.0 0 0 117929 38975 " />
<path d="M76002.5 44290 A196.85 196.85 0.0 0 0 76199.3 44093.1 " />
<path d="M93187 38975
L93187 44093
" />
<path d="M70884 44289
L76002 44289
" />
<path d="M98502.5 44290 A196.85 196.85 0.0 0 0 98699.3 44093.1 " />
<path d="M117929 38975
L117929 44093
" />
<path d="M118125 44289
L118519 44289
" />
<path d="M116512 38975 A196.85 196.85 0.0 0 0 116315 38778.1 " />
<path d="M100687 38975
L100687 44093
" />
<path d="M68502.5 44290 A196.85 196.85 0.0 0 0 68699.3 44093.1 " />
<path d="M91199.3 38975 A196.85 196.85 0.0 0 0 91002.5 38778.1 " />
<path d="M85884.4 38778.1 A196.85 196.85 0.0 0 0 85687.5 38975 " />
<path d="M78384.4 38778.1 A196.85 196.85 0.0 0 0 78187.5 38975 " />
<path d="M83502.5 44290 A196.85 196.85 0.0 0 0 83699.3 44093.1 " />
<path d="M78384 44289
L83502 44289
" />
<path d="M63384.4 38778.1 A196.85 196.85 0.0 0 0 63187.5 38975 " />
<path d="M93384.4 38778.1 A196.85 196.85 0.0 0 0 93187.5 38975 " />
<path d="M85884 44289
L91002 44289
" />
<path d="M70687.5 44093.1 A196.85 196.85 0.0 0 0 70884.4 44290 " />
<path d="M29637 45077.4 A196.85 196.85 0.0 0 0 29833.9 44880.5 " />
<path d="M63384 38778
L68502 38778
" />
<path d="M61002.5 44290 A196.85 196.85 0.0 0 0 61199.3 44093.1 " />
<path d="M55687.5 44093.1 A196.85 196.85 0.0 0 0 55884.4 44290 " />
<path d="M61199.3 38975 A196.85 196.85 0.0 0 0 61002.5 38778.1 " />
<path d="M40884 44289
L46002 44289
" />
<path d="M55884.4 38778.1 A196.85 196.85 0.0 0 0 55687.5 38975 " />
<path d="M55687 38975
L55687 44093
" />
<path d="M40687.5 44093.1 A196.85 196.85 0.0 0 0 40884.4 44290 " />
<path d="M20433 39368
L20433 44880
" />
<path d="M61199 38975
L61199 44093
" />
<path d="M55884 44289
L61002 44289
" />
<path d="M55884 38778
L61002 38778
" />
<path d="M53502.5 44290 A196.85 196.85 0.0 0 0 53699.3 44093.1 " />
<path d="M48187.5 44093.1 A196.85 196.85 0.0 0 0 48384.4 44290 " />
<path d="M48384.4 38778.1 A196.85 196.85 0.0 0 0 48187.5 38975 " />
<path d="M53699.3 38975 A196.85 196.85 0.0 0 0 53502.5 38778.1 " />
<path d="M33187.5 44093.1 A196.85 196.85 0.0 0 0 33384.4 44290 " />
<path d="M33384 44289
L38502 44289
" />
<path d="M17874 45077
L20237 45077
" />
<path d="M26511.8 38975 A196.85 196.85 0.0 0 0 26315 38778.1 " />
<path d="M12449.3 38975 A196.85 196.85 0.0 0 0 12252.5 38778.1 " />
<path d="M21000 38975
L21000 44093
" />
<path d="M21196 44289
L26314 44289
" />
<path d="M53699 38975
L53699 44093
" />
<path d="M48187 38975
L48187 44093
" />
<path d="M48384 38778
L53502 38778
" />
<path d="M40884 38778
L46002 38778
" />
<path d="M17678 44880.5 A196.85 196.85 0.0 0 0 17874.8 45077.4 " />
<path d="M21196.9 38778.1 A196.85 196.85 0.0 0 0 21000 38975 " />
<path d="M7134.35 38778.1 A196.85 196.85 0.0 0 0 6937.5 38975 " />
<path d="M17677 39368
L17677 44880
" />
<path d="M17874 39171
L20237 39171
" />
<path d="M29833 39368
L29833 44880
" />
<path d="M27077 39368
L27077 44880
" />
<path d="M46002.5 44290 A196.85 196.85 0.0 0 0 46199.3 44093.1 " />
<path d="M40884.4 38778.1 A196.85 196.85 0.0 0 0 40687.5 38975 " />
<path d="M12449 38975
L12449 44093
" />
<path d="M46199 38975
L46199 44093
" />
<path d="M38699 38975
L38699 44093
" />
<path d="M20433.9 39368.7 A196.85 196.85 0.0 0 0 20237 39171.9 " />
<path d="M33384.4 38778.1 A196.85 196.85 0.0 0 0 33187.5 38975 " />
<path d="M40687 38975
L40687 44093
" />
<path d="M38699.3 38975 A196.85 196.85 0.0 0 0 38502.5 38778.1 " />
<path d="M33187 38975
L33187 44093
" />
<path d="M6937 38975
L6937 44093
" />
<path d="M29833.9 39368.7 A196.85 196.85 0.0 0 0 29637 39171.9 " />
<path d="M27274 45077
L29637 45077
" />
<path d="M21000 44093.1 A196.85 196.85 0.0 0 0 21196.9 44290 " />
<path d="M6937.5 44093.1 A196.85 196.85 0.0 0 0 7134.35 44290 " />
<path d="M21196 38778
L26314 38778
" />
<path d="M26315 44290 A196.85 196.85 0.0 0 0 26511.8 44093.1 " />
<path d="M48384 44289
L53502 44289
" />
<path d="M46199.3 38975 A196.85 196.85 0.0 0 0 46002.5 38778.1 " />
<path d="M38502.5 44290 A196.85 196.85 0.0 0 0 38699.3 44093.1 " />
<path d="M27078 44880.5 A196.85 196.85 0.0 0 0 27274.8 45077.4 " />
<path d="M33384 38778
L38502 38778
" />
<path d="M20237 45077.4 A196.85 196.85 0.0 0 0 20433.9 44880.5 " />
<path d="M26511 38975
L26511 44093
" />
<path d="M27274.8 39171.9 A196.85 196.85 0.0 0 0 27078 39368.7 " />
<path d="M27274 39171
L29637 39171
" />
<path d="M12252.5 44290 A196.85 196.85 0.0 0 0 12449.3 44093.1 " />
<path d="M17874.8 39171.9 A196.85 196.85 0.0 0 0 17678 39368.7 " />
<path d="M63384 44289
L68502 44289
" />
<path d="M96937.5 36593.1 A196.85 196.85 0.0 0 0 97134.4 36790 " />
<path d="M134634 36814
L139752 36814
" />
<path d="M115862 37577.4 A196.85 196.85 0.0 0 0 116059 37380.5 " />
<path d="M116058 31868
L116058 37380
" />
<path d="M113499 37577
L115862 37577
" />
<path d="M122703 37380.5 A196.85 196.85 0.0 0 0 122900 37577.4 " />
<path d="M113303 37380.5 A196.85 196.85 0.0 0 0 113500 37577.4 " />
<path d="M104634 31278.1 A196.85 196.85 0.0 0 0 104438 31475 " />
<path d="M122702 31868
L122702 37380
" />
<path d="M104437 31475
L104437 36593
" />
<path d="M125459 31868.7 A196.85 196.85 0.0 0 0 125262 31671.9 " />
<path d="M116625 31475
L116625 36593
" />
<path d="M122899 37577
L125262 37577
" />
<path d="M7134 44289
L12252 44289
" />
<path d="M7134 38778
L12252 38778
" />
<path d="M139752 36815 A196.85 196.85 0.0 0 0 139949 36618.1 " />
<path d="M134438 36618.1 A196.85 196.85 0.0 0 0 134634 36815 " />
<path d="M139949 31500 A196.85 196.85 0.0 0 0 139752 31303.1 " />
<path d="M116821 31278
L121939 31278
" />
<path d="M104634 31278
L109752 31278
" />
<path d="M89634.4 31278.1 A196.85 196.85 0.0 0 0 89437.5 31475 " />
<path d="M82134.4 31278.1 A196.85 196.85 0.0 0 0 81937.5 31475 " />
<path d="M89634 36789
L94752 36789
" />
<path d="M89634 31278
L94752 31278
" />
<path d="M134634 31303.1 A196.85 196.85 0.0 0 0 134438 31500 " />
<path d="M139949 31500
L139949 36618
" />
<path d="M113302 31868
L113302 37380
" />
<path d="M109752 36790 A196.85 196.85 0.0 0 0 109949 36593.1 " />
<path d="M116822 31278.1 A196.85 196.85 0.0 0 0 116625 31475 " />
<path d="M94949 31475
L94949 36593
" />
<path d="M87449 31475
L87449 36593
" />
<path d="M104634 36789
L109752 36789
" />
<path d="M102252 36790 A196.85 196.85 0.0 0 0 102449 36593.1 " />
<path d="M96937 31475
L96937 36593
" />
<path d="M97134 36789
L102252 36789
" />
<path d="M116059 31868.7 A196.85 196.85 0.0 0 0 115862 31671.9 " />
<path d="M116821 36789
L121939 36789
" />
<path d="M81937 31475
L81937 36593
" />
<path d="M122899 31671
L125262 31671
" />
<path d="M121940 36790 A196.85 196.85 0.0 0 0 122137 36593.1 " />
<path d="M134437 31500
L134437 36618
" />
<path d="M134634 31303
L139752 31303
" />
<path d="M113500 31671.9 A196.85 196.85 0.0 0 0 113303 31868.7 " />
<path d="M113499 31671
L115862 31671
" />
<path d="M125262 37577.4 A196.85 196.85 0.0 0 0 125459 37380.5 " />
<path d="M122900 31671.9 A196.85 196.85 0.0 0 0 122703 31868.7 " />
<path d="M97134.4 31278.1 A196.85 196.85 0.0 0 0 96937.5 31475 " />
<path d="M97134 31278
L102252 31278
" />
<path d="M94949.3 31475 A196.85 196.85 0.0 0 0 94752.5 31278.1 " />
<path d="M87449.3 31475 A196.85 196.85 0.0 0 0 87252.5 31278.1 " />
<path d="M87252.5 36790 A196.85 196.85 0.0 0 0 87449.3 36593.1 " />
<path d="M89437.5 36593.1 A196.85 196.85 0.0 0 0 89634.4 36790 " />
<path d="M122136 31475
L122136 36593
" />
<path d="M125458 31868
L125458 37380
" />
<path d="M122137 31475 A196.85 196.85 0.0 0 0 121940 31278.1 " />
<path d="M102449 31475 A196.85 196.85 0.0 0 0 102252 31278.1 " />
<path d="M116625 36593.1 A196.85 196.85 0.0 0 0 116822 36790 " />
<path d="M104438 36593.1 A196.85 196.85 0.0 0 0 104634 36790 " />
<path d="M89437 31475
L89437 36593
" />
<path d="M102449 31475
L102449 36593
" />
<path d="M94752.5 36790 A196.85 196.85 0.0 0 0 94949.3 36593.1 " />
<path d="M81937.5 36593.1 A196.85 196.85 0.0 0 0 82134.4 36790 " />
<path d="M109949 31475
L109949 36593
" />
<path d="M109949 31475 A196.85 196.85 0.0 0 0 109752 31278.1 " />
<path d="M26841.5 31475 A196.85 196.85 0.0 0 0 26644.7 31278.1 " />
<path d="M26841 31475
L26841 36593
" />
<path d="M24636 31475
L24636 36593
" />
<path d="M7134 36789
L12252 36789
" />
<path d="M126957 29290 A196.85 196.85 0.0 0 0 127154 29093.1 " />
<path d="M117429 29289
L117823 29289
" />
<path d="M17117 36789
L17510 36789
" />
<path d="M6937.5 36593.1 A196.85 196.85 0.0 0 0 7134.35 36790 " />
<path d="M118020 23975
L118020 29093
" />
<path d="M26054.1 36593.1 A196.85 196.85 0.0 0 0 26251 36790 " />
<path d="M26054 31475
L26054 36593
" />
<path d="M26250 36789
L26644 36789
" />
<path d="M24440 36790 A196.85 196.85 0.0 0 0 24636.8 36593.1 " />
<path d="M119438 29093.1 A196.85 196.85 0.0 0 0 119634 29290 " />
<path d="M19125 36593.1 A196.85 196.85 0.0 0 0 19321.9 36790 " />
<path d="M19125 31475
L19125 36593
" />
<path d="M134438 29118.1 A196.85 196.85 0.0 0 0 134634 29315 " />
<path d="M119437 23975
L119437 29093
" />
<path d="M24636.8 31475 A196.85 196.85 0.0 0 0 24440 31278.1 " />
<path d="M134634 29314
L139752 29314
" />
<path d="M126367 29093.1 A196.85 196.85 0.0 0 0 126563 29290 " />
<path d="M19321.9 31278.1 A196.85 196.85 0.0 0 0 19125 31475 " />
<path d="M126563 29289
L126957 29289
" />
<path d="M19321 36789
L24439 36789
" />
<path d="M19321 31278
L24439 31278
" />
<path d="M117233 29093.1 A196.85 196.85 0.0 0 0 117430 29290 " />
<path d="M126366 23975
L126366 29093
" />
<path d="M12252.5 36790 A196.85 196.85 0.0 0 0 12449.3 36593.1 " />
<path d="M7134 31278
L12252 31278
" />
<path d="M117232 23975
L117232 29093
" />
<path d="M126563 23778
L126957 23778
" />
<path d="M127154 23975
L127154 29093
" />
<path d="M12449 31475
L12449 36593
" />
<path d="M119634 23778.1 A196.85 196.85 0.0 0 0 119438 23975 " />
<path d="M127154 23975 A196.85 196.85 0.0 0 0 126957 23778.1 " />
<path d="M139949 24000
L139949 29118
" />
<path d="M118020 23975 A196.85 196.85 0.0 0 0 117823 23778.1 " />
<path d="M134634 23803.1 A196.85 196.85 0.0 0 0 134438 24000 " />
<path d="M17117 31278
L17510 31278
" />
<path d="M134437 24000
L134437 29118
" />
<path d="M7134.35 31278.1 A196.85 196.85 0.0 0 0 6937.5 31475 " />
<path d="M26251 31278.1 A196.85 196.85 0.0 0 0 26054.1 31475 " />
<path d="M139949 24000 A196.85 196.85 0.0 0 0 139752 23803.1 " />
<path d="M124949 23975 A196.85 196.85 0.0 0 0 124752 23778.1 " />
<path d="M6937 31475
L6937 36593
" />
<path d="M26250 31278
L26644 31278
" />
<path d="M12449.3 31475 A196.85 196.85 0.0 0 0 12252.5 31278.1 " />
<path d="M119634 29289
L124752 29289
" />
<path d="M124949 23975
L124949 29093
" />
<path d="M117429 23778
L117823 23778
" />
<path d="M139752 29315 A196.85 196.85 0.0 0 0 139949 29118.1 " />
<path d="M134634 23803
L139752 23803
" />
<path d="M117823 29290 A196.85 196.85 0.0 0 0 118020 29093.1 " />
<path d="M117430 23778.1 A196.85 196.85 0.0 0 0 117233 23975 " />
<path d="M126563 23778.1 A196.85 196.85 0.0 0 0 126367 23975 " />
<path d="M124752 29290 A196.85 196.85 0.0 0 0 124949 29093.1 " />
<path d="M26644.7 36790 A196.85 196.85 0.0 0 0 26841.5 36593.1 " />
<path d="M87562.5 29093.1 A196.85 196.85 0.0 0 0 87759.4 29290 " />
<path d="M93074.3 23975 A196.85 196.85 0.0 0 0 92877.5 23778.1 " />
<path d="M102759 23778
L107877 23778
" />
<path d="M102562 29093.1 A196.85 196.85 0.0 0 0 102759 29290 " />
<path d="M85574.3 23975 A196.85 196.85 0.0 0 0 85377.5 23778.1 " />
<path d="M107877 29290 A196.85 196.85 0.0 0 0 108074 29093.1 " />
<path d="M95062.5 29093.1 A196.85 196.85 0.0 0 0 95259.4 29290 " />
<path d="M95259 29289
L100377 29289
" />
<path d="M93074 23975
L93074 29093
" />
<path d="M72759.4 23778.1 A196.85 196.85 0.0 0 0 72562.5 23975 " />
<path d="M87562 23975
L87562 29093
" />
<path d="M85574 23975
L85574 29093
" />
<path d="M87759 29289
L92877 29289
" />
<path d="M70574.3 23975 A196.85 196.85 0.0 0 0 70377.5 23778.1 " />
<path d="M62877.5 29290 A196.85 196.85 0.0 0 0 63074.3 29093.1 " />
<path d="M78074.3 23975 A196.85 196.85 0.0 0 0 77877.5 23778.1 " />
<path d="M100574 23975 A196.85 196.85 0.0 0 0 100377 23778.1 " />
<path d="M72759 23778
L77877 23778
" />
<path d="M95259 23778
L100377 23778
" />
<path d="M108074 23975 A196.85 196.85 0.0 0 0 107877 23778.1 " />
<path d="M65259 29289
L70377 29289
" />
<path d="M102759 23778.1 A196.85 196.85 0.0 0 0 102562 23975 " />
<path d="M102759 29289
L107877 29289
" />
<path d="M65062 23975
L65062 29093
" />
<path d="M95259.4 23778.1 A196.85 196.85 0.0 0 0 95062.5 23975 " />
<path d="M80259.4 23778.1 A196.85 196.85 0.0 0 0 80062.5 23975 " />
<path d="M95062 23975
L95062 29093
" />
<path d="M92877.5 29290 A196.85 196.85 0.0 0 0 93074.3 29093.1 " />
<path d="M63074.3 23975 A196.85 196.85 0.0 0 0 62877.5 23778.1 " />
<path d="M87759 23778
L92877 23778
" />
<path d="M80062 23975
L80062 29093
" />
<path d="M78074 23975
L78074 29093
" />
<path d="M57562 23975
L57562 29093
" />
<path d="M80062.5 29093.1 A196.85 196.85 0.0 0 0 80259.4 29290 " />
<path d="M70574 23975
L70574 29093
" />
<path d="M70377.5 29290 A196.85 196.85 0.0 0 0 70574.3 29093.1 " />
<path d="M85377.5 29290 A196.85 196.85 0.0 0 0 85574.3 29093.1 " />
<path d="M87759.4 23778.1 A196.85 196.85 0.0 0 0 87562.5 23975 " />
<path d="M100377 29290 A196.85 196.85 0.0 0 0 100574 29093.1 " />
<path d="M57759.4 23778.1 A196.85 196.85 0.0 0 0 57562.5 23975 " />
<path d="M77877.5 29290 A196.85 196.85 0.0 0 0 78074.3 29093.1 " />
<path d="M119634 23778
L124752 23778
" />
<path d="M110259 29289
L115377 29289
" />
<path d="M100574 23975
L100574 29093
" />
<path d="M72562.5 29093.1 A196.85 196.85 0.0 0 0 72759.4 29290 " />
<path d="M108074 23975
L108074 29093
" />
<path d="M102562 23975
L102562 29093
" />
<path d="M72562 23975
L72562 29093
" />
<path d="M63074 23975
L63074 29093
" />
<path d="M57562.5 29093.1 A196.85 196.85 0.0 0 0 57759.4 29290 " />
<path d="M80259 29289
L85377 29289
" />
<path d="M115377 29290 A196.85 196.85 0.0 0 0 115574 29093.1 " />
<path d="M110062 29093.1 A196.85 196.85 0.0 0 0 110259 29290 " />
<path d="M65062.5 29093.1 A196.85 196.85 0.0 0 0 65259.4 29290 " />
<path d="M80259 23778
L85377 23778
" />
<path d="M115574 23975 A196.85 196.85 0.0 0 0 115377 23778.1 " />
<path d="M65259 23778
L70377 23778
" />
<path d="M110259 23778.1 A196.85 196.85 0.0 0 0 110062 23975 " />
<path d="M115574 23975
L115574 29093
" />
<path d="M65259.4 23778.1 A196.85 196.85 0.0 0 0 65062.5 23975 " />
<path d="M57759 29289
L62877 29289
" />
<path d="M110062 23975
L110062 29093
" />
<path d="M72759 29289
L77877 29289
" />
<path d="M110259 23778
L115377 23778
" />
<path d="M16920.3 36593.1 A196.85 196.85 0.0 0 0 17117.1 36790 " />
<path d="M82134 36789
L87252 36789
" />
<path d="M82134 31278
L87252 31278
" />
<path d="M44634.4 31278.1 A196.85 196.85 0.0 0 0 44437.5 31475 " />
<path d="M64949 31475
L64949 36593
" />
<path d="M49949 31475
L49949 36593
" />
<path d="M37134.4 31278.1 A196.85 196.85 0.0 0 0 36937.5 31475 " />
<path d="M74634 36789
L79752 36789
" />
<path d="M49752.5 36790 A196.85 196.85 0.0 0 0 49949.3 36593.1 " />
<path d="M44634 31278
L49752 31278
" />
<path d="M34949.3 31475 A196.85 196.85 0.0 0 0 34752.5 31278.1 " />
<path d="M29634.4 31278.1 A196.85 196.85 0.0 0 0 29437.5 31475 " />
<path d="M72449 31475
L72449 36593
" />
<path d="M51937.5 36593.1 A196.85 196.85 0.0 0 0 52134.4 36790 " />
<path d="M37134 31278
L42252 31278
" />
<path d="M16920 31475
L16920 36593
" />
<path d="M79752.5 36790 A196.85 196.85 0.0 0 0 79949.3 36593.1 " />
<path d="M74634.4 31278.1 A196.85 196.85 0.0 0 0 74437.5 31475 " />
<path d="M17707.7 31475 A196.85 196.85 0.0 0 0 17510.8 31278.1 " />
<path d="M74437.5 36593.1 A196.85 196.85 0.0 0 0 74634.4 36790 " />
<path d="M72449.3 31475 A196.85 196.85 0.0 0 0 72252.5 31278.1 " />
<path d="M59634 31278
L64752 31278
" />
<path d="M79949.3 31475 A196.85 196.85 0.0 0 0 79752.5 31278.1 " />
<path d="M66937.5 36593.1 A196.85 196.85 0.0 0 0 67134.4 36790 " />
<path d="M29437 31475
L29437 36593
" />
<path d="M79949 31475
L79949 36593
" />
<path d="M29634 31278
L34752 31278
" />
<path d="M67134 36789
L72252 36789
" />
<path d="M52134 36789
L57252 36789
" />
<path d="M59437.5 36593.1 A196.85 196.85 0.0 0 0 59634.4 36790 " />
<path d="M59437 31475
L59437 36593
" />
<path d="M52134.4 31278.1 A196.85 196.85 0.0 0 0 51937.5 31475 " />
<path d="M44634 36789
L49752 36789
" />
<path d="M74437 31475
L74437 36593
" />
<path d="M72252.5 36790 A196.85 196.85 0.0 0 0 72449.3 36593.1 " />
<path d="M42252.5 36790 A196.85 196.85 0.0 0 0 42449.3 36593.1 " />
<path d="M67134 31278
L72252 31278
" />
<path d="M42449.3 31475 A196.85 196.85 0.0 0 0 42252.5 31278.1 " />
<path d="M29437.5 36593.1 A196.85 196.85 0.0 0 0 29634.4 36790 " />
<path d="M57449.3 31475 A196.85 196.85 0.0 0 0 57252.5 31278.1 " />
<path d="M44437.5 36593.1 A196.85 196.85 0.0 0 0 44634.4 36790 " />
<path d="M37134 36789
L42252 36789
" />
<path d="M17510.8 36790 A196.85 196.85 0.0 0 0 17707.7 36593.1 " />
<path d="M36937 31475
L36937 36593
" />
<path d="M66937 31475
L66937 36593
" />
<path d="M36937.5 36593.1 A196.85 196.85 0.0 0 0 37134.4 36790 " />
<path d="M64752.5 36790 A196.85 196.85 0.0 0 0 64949.3 36593.1 " />
<path d="M57252.5 36790 A196.85 196.85 0.0 0 0 57449.3 36593.1 " />
<path d="M57449 31475
L57449 36593
" />
<path d="M42449 31475
L42449 36593
" />
<path d="M51937 31475
L51937 36593
" />
<path d="M17707 31475
L17707 36593
" />
<path d="M34752.5 36790 A196.85 196.85 0.0 0 0 34949.3 36593.1 " />
<path d="M29634 36789
L34752 36789
" />
<path d="M67134.4 31278.1 A196.85 196.85 0.0 0 0 66937.5 31475 " />
<path d="M44437 31475
L44437 36593
" />
<path d="M59634 36789
L64752 36789
" />
<path d="M17117.1 31278.1 A196.85 196.85 0.0 0 0 16920.3 31475 " />
<path d="M49949.3 31475 A196.85 196.85 0.0 0 0 49752.5 31278.1 " />
<path d="M74634 31278
L79752 31278
" />
<path d="M64949.3 31475 A196.85 196.85 0.0 0 0 64752.5 31278.1 " />
<path d="M59634.4 31278.1 A196.85 196.85 0.0 0 0 59437.5 31475 " />
<path d="M52134 31278
L57252 31278
" />
<path d="M34949 31475
L34949 36593
" />
<path d="M111938 12218.1 A196.85 196.85 0.0 0 0 112134 12415 " />
<path d="M94752.5 12415 A196.85 196.85 0.0 0 0 94949.3 12218.1 " />
<path d="M104437 7100
L104437 12218
" />
<path d="M96937.5 12218.1 A196.85 196.85 0.0 0 0 97134.4 12415 " />
<path d="M126824 7100 A196.85 196.85 0.0 0 0 126627 6903.15 " />
<path d="M112134 6903
L117252 6903
" />
<path d="M7134 21789
L12252 21789
" />
<path d="M104438 12218.1 A196.85 196.85 0.0 0 0 104634 12415 " />
<path d="M29127.5 21790 A196.85 196.85 0.0 0 0 29324.3 21593.1 " />
<path d="M23812.5 21593.1 A196.85 196.85 0.0 0 0 24009.4 21790 " />
<path d="M29324.3 16475 A196.85 196.85 0.0 0 0 29127.5 16278.1 " />
<path d="M16312.5 21593.1 A196.85 196.85 0.0 0 0 16509.4 21790 " />
<path d="M97134 12414
L102252 12414
" />
<path d="M112134 6903.15 A196.85 196.85 0.0 0 0 111938 7100 " />
<path d="M24009.4 16278.1 A196.85 196.85 0.0 0 0 23812.5 16475 " />
<path d="M29324 16475
L29324 21593
" />
<path d="M16509 21789
L21627 21789
" />
<path d="M117449 7100
L117449 12218
" />
<path d="M97134.4 6903.15 A196.85 196.85 0.0 0 0 96937.5 7100 " />
<path d="M6937.5 21593.1 A196.85 196.85 0.0 0 0 7134.35 21790 " />
<path d="M121509 6903
L126627 6903
" />
<path d="M104634 12414
L109752 12414
" />
<path d="M23812 16475
L23812 21593
" />
<path d="M24009 21789
L29127 21789
" />
<path d="M16509.4 16278.1 A196.85 196.85 0.0 0 0 16312.5 16475 " />
<path d="M117449 7100 A196.85 196.85 0.0 0 0 117252 6903.15 " />
<path d="M97134 6903
L102252 6903
" />
<path d="M121509 6903.15 A196.85 196.85 0.0 0 0 121312 7100 " />
<path d="M126824 7100
L126824 12218
" />
<path d="M109949 7100 A196.85 196.85 0.0 0 0 109752 6903.15 " />
<path d="M24009 16278
L29127 16278
" />
<path d="M21627.5 21790 A196.85 196.85 0.0 0 0 21824.3 21593.1 " />
<path d="M21824.3 16475 A196.85 196.85 0.0 0 0 21627.5 16278.1 " />
<path d="M12449 16475
L12449 21593
" />
<path d="M7134.35 16278.1 A196.85 196.85 0.0 0 0 6937.5 16475 " />
<path d="M16509 16278
L21627 16278
" />
<path d="M126627 12415 A196.85 196.85 0.0 0 0 126824 12218.1 " />
<path d="M117252 12415 A196.85 196.85 0.0 0 0 117449 12218.1 " />
<path d="M104634 6903.15 A196.85 196.85 0.0 0 0 104438 7100 " />
<path d="M102252 12415 A196.85 196.85 0.0 0 0 102449 12218.1 " />
<path d="M102449 7100
L102449 12218
" />
<path d="M121509 12414
L126627 12414
" />
<path d="M21824 16475
L21824 21593
" />
<path d="M16312 16475
L16312 21593
" />
<path d="M12252.5 21790 A196.85 196.85 0.0 0 0 12449.3 21593.1 " />
<path d="M121312 7100
L121312 12218
" />
<path d="M12449.3 16475 A196.85 196.85 0.0 0 0 12252.5 16278.1 " />
<path d="M7134 16278
L12252 16278
" />
<path d="M6937 16475
L6937 21593
" />
<path d="M121312 12218.1 A196.85 196.85 0.0 0 0 121509 12415 " />
<path d="M104634 6903
L109752 6903
" />
<path d="M109949 7100
L109949 12218
" />
<path d="M102449 7100 A196.85 196.85 0.0 0 0 102252 6903.15 " />
<path d="M111937 7100
L111937 12218
" />
<path d="M112134 12414
L117252 12414
" />
<path d="M109752 12415 A196.85 196.85 0.0 0 0 109949 12218.1 " />
<path d="M96937 7100
L96937 12218
" />
<path d="M46199 7100
L46199 12218
" />
<path d="M85574 7100
L85574 12218
" />
<path d="M80259 6903
L85377 6903
" />
<path d="M72562.5 12218.1 A196.85 196.85 0.0 0 0 72759.4 12415 " />
<path d="M72759.4 6903.15 A196.85 196.85 0.0 0 0 72562.5 7100 " />
<path d="M63074.3 7100 A196.85 196.85 0.0 0 0 62877.5 6903.15 " />
<path d="M70377.5 12415 A196.85 196.85 0.0 0 0 70574.3 12218.1 " />
<path d="M65062 7100
L65062 12218
" />
<path d="M46002.5 12415 A196.85 196.85 0.0 0 0 46199.3 12218.1 " />
<path d="M33384 12414
L38502 12414
" />
<path d="M77877.5 12415 A196.85 196.85 0.0 0 0 78074.3 12218.1 " />
<path d="M89437.5 12218.1 A196.85 196.85 0.0 0 0 89634.4 12415 " />
<path d="M94949.3 7100 A196.85 196.85 0.0 0 0 94752.5 6903.15 " />
<path d="M89634.4 6903.15 A196.85 196.85 0.0 0 0 89437.5 7100 " />
<path d="M89437 7100
L89437 12218
" />
<path d="M33187 7100
L33187 12218
" />
<path d="M89634 12414
L94752 12414
" />
<path d="M85377.5 12415 A196.85 196.85 0.0 0 0 85574.3 12218.1 " />
<path d="M78074 7100
L78074 12218
" />
<path d="M57562 7100
L57562 12218
" />
<path d="M80062.5 12218.1 A196.85 196.85 0.0 0 0 80259.4 12415 " />
<path d="M80259.4 6903.15 A196.85 196.85 0.0 0 0 80062.5 7100 " />
<path d="M53699.3 7100 A196.85 196.85 0.0 0 0 53502.5 6903.15 " />
<path d="M46199.3 7100 A196.85 196.85 0.0 0 0 46002.5 6903.15 " />
<path d="M80062 7100
L80062 12218
" />
<path d="M80259 12414
L85377 12414
" />
<path d="M78074.3 7100 A196.85 196.85 0.0 0 0 77877.5 6903.15 " />
<path d="M65259.4 6903.15 A196.85 196.85 0.0 0 0 65062.5 7100 " />
<path d="M57759.4 6903.15 A196.85 196.85 0.0 0 0 57562.5 7100 " />
<path d="M48187 7100
L48187 12218
" />
<path d="M40687.5 12218.1 A196.85 196.85 0.0 0 0 40884.4 12415 " />
<path d="M33384 6903
L38502 6903
" />
<path d="M40884.4 6903.15 A196.85 196.85 0.0 0 0 40687.5 7100 " />
<path d="M38502.5 12415 A196.85 196.85 0.0 0 0 38699.3 12218.1 " />
<path d="M33187.5 12218.1 A196.85 196.85 0.0 0 0 33384.4 12415 " />
<path d="M72759 6903
L77877 6903
" />
<path d="M70574 7100
L70574 12218
" />
<path d="M70574.3 7100 A196.85 196.85 0.0 0 0 70377.5 6903.15 " />
<path d="M62877.5 12415 A196.85 196.85 0.0 0 0 63074.3 12218.1 " />
<path d="M53502.5 12415 A196.85 196.85 0.0 0 0 53699.3 12218.1 " />
<path d="M48384 12414
L53502 12414
" />
<path d="M57759 6903
L62877 6903
" />
<path d="M72562 7100
L72562 12218
" />
<path d="M65259 6903
L70377 6903
" />
<path d="M48187.5 12218.1 A196.85 196.85 0.0 0 0 48384.4 12415 " />
<path d="M57759 12414
L62877 12414
" />
<path d="M40884 12414
L46002 12414
" />
<path d="M38699.3 7100 A196.85 196.85 0.0 0 0 38502.5 6903.15 " />
<path d="M31002.5 12415 A196.85 196.85 0.0 0 0 31199.3 12218.1 " />
<path d="M57562.5 12218.1 A196.85 196.85 0.0 0 0 57759.4 12415 " />
<path d="M72759 12414
L77877 12414
" />
<path d="M38699 7100
L38699 12218
" />
<path d="M94949 7100
L94949 12218
" />
<path d="M89634 6903
L94752 6903
" />
<path d="M85574.3 7100 A196.85 196.85 0.0 0 0 85377.5 6903.15 " />
<path d="M40687 7100
L40687 12218
" />
<path d="M65259 12414
L70377 12414
" />
<path d="M48384.4 6903.15 A196.85 196.85 0.0 0 0 48187.5 7100 " />
<path d="M53699 7100
L53699 12218
" />
<path d="M40884 6903
L46002 6903
" />
<path d="M33384.4 6903.15 A196.85 196.85 0.0 0 0 33187.5 7100 " />
<path d="M63074 7100
L63074 12218
" />
<path d="M48384 6903
L53502 6903
" />
<path d="M65062.5 12218.1 A196.85 196.85 0.0 0 0 65259.4 12415 " />
<path d="M25884.4 6903.15 A196.85 196.85 0.0 0 0 25687.5 7100 " />
<path d="M25687 7100
L25687 12218
" />
<path d="M16509.4 6903.15 A196.85 196.85 0.0 0 0 16312.5 7100 " />
<path d="M7334.35 7053.15 A196.85 196.85 0.0 0 0 7137.5 7250 " />
<path d="M12452.5 12565 A196.85 196.85 0.0 0 0 12649.3 12368.1 " />
<path d="M25884 6903
L31002 6903
" />
<path d="M21627.5 12415 A196.85 196.85 0.0 0 0 21824.3 12218.1 " />
<path d="M16312.5 12218.1 A196.85 196.85 0.0 0 0 16509.4 12415 " />
<path d="M16509 6903
L21627 6903
" />
<path d="M7334 12564
L12452 12564
" />
<path d="M16312 7100
L16312 12218
" />
<path d="M12649 7250
L12649 12368
" />
<path d="M16509 12414
L21627 12414
" />
<path d="M12649.3 7250 A196.85 196.85 0.0 0 0 12452.5 7053.15 " />
<path d="M7137.5 12368.1 A196.85 196.85 0.0 0 0 7334.35 12565 " />
<path d="M31199 7100
L31199 12218
" />
<path d="M21824.3 7100 A196.85 196.85 0.0 0 0 21627.5 6903.15 " />
<path d="M21824 7100
L21824 12218
" />
<path d="M7334 7053
L12452 7053
" />
<path d="M7137 7250
L7137 12368
" />
<path d="M25687.5 12218.1 A196.85 196.85 0.0 0 0 25884.4 12415 " />
<path d="M25884 12414
L31002 12414
" />
<path d="M31199.3 7100 A196.85 196.85 0.0 0 0 31002.5 6903.15 " />
<path d="M117562 21593.1 A196.85 196.85 0.0 0 0 117759 21790 " />
<path d="M117562 16475
L117562 21593
" />
<path d="M106312 16475
L106312 21593
" />
<path d="M91312.5 21593.1 A196.85 196.85 0.0 0 0 91509.4 21790 " />
<path d="M91312 16475
L91312 21593
" />
<path d="M117759 21789
L122877 21789
" />
<path d="M99009.4 16278.1 A196.85 196.85 0.0 0 0 98812.5 16475 " />
<path d="M123074 16475 A196.85 196.85 0.0 0 0 122877 16278.1 " />
<path d="M98812 16475
L98812 21593
" />
<path d="M7134 23778
L12252 23778
" />
<path d="M139752 21815 A196.85 196.85 0.0 0 0 139949 21618.1 " />
<path d="M134438 21618.1 A196.85 196.85 0.0 0 0 134634 21815 " />
<path d="M139949 16500 A196.85 196.85 0.0 0 0 139752 16303.1 " />
<path d="M134634 16303.1 A196.85 196.85 0.0 0 0 134438 16500 " />
<path d="M106509 16278
L111627 16278
" />
<path d="M139949 16500
L139949 21618
" />
<path d="M134437 16500
L134437 21618
" />
<path d="M114240 16868
L114240 22380
" />
<path d="M104127 21790 A196.85 196.85 0.0 0 0 104324 21593.1 " />
<path d="M91509 16278
L96627 16278
" />
<path d="M126396 16868.7 A196.85 196.85 0.0 0 0 126200 16671.9 " />
<path d="M106509 16278.1 A196.85 196.85 0.0 0 0 106312 16475 " />
<path d="M96824.3 16475 A196.85 196.85 0.0 0 0 96627.5 16278.1 " />
<path d="M123640 16868
L123640 22380
" />
<path d="M134634 21814
L139752 21814
" />
<path d="M134634 16303
L139752 16303
" />
<path d="M116800 22577.4 A196.85 196.85 0.0 0 0 116996 22380.5 " />
<path d="M106509 21789
L111627 21789
" />
<path d="M117759 16278
L122877 16278
" />
<path d="M111627 21790 A196.85 196.85 0.0 0 0 111824 21593.1 " />
<path d="M99009 21789
L104127 21789
" />
<path d="M114240 22380.5 A196.85 196.85 0.0 0 0 114437 22577.4 " />
<path d="M116996 16868.7 A196.85 196.85 0.0 0 0 116800 16671.9 " />
<path d="M114437 16671.9 A196.85 196.85 0.0 0 0 114240 16868.7 " />
<path d="M114437 16671
L116799 16671
" />
<path d="M123837 16671.9 A196.85 196.85 0.0 0 0 123640 16868.7 " />
<path d="M123837 16671
L126199 16671
" />
<path d="M122877 21790 A196.85 196.85 0.0 0 0 123074 21593.1 " />
<path d="M111824 16475
L111824 21593
" />
<path d="M99009 16278
L104127 16278
" />
<path d="M96824 16475
L96824 21593
" />
<path d="M116996 16868
L116996 22380
" />
<path d="M111824 16475 A196.85 196.85 0.0 0 0 111627 16278.1 " />
<path d="M123074 16475
L123074 21593
" />
<path d="M114437 22577
L116799 22577
" />
<path d="M126200 22577.4 A196.85 196.85 0.0 0 0 126396 22380.5 " />
<path d="M106312 21593.1 A196.85 196.85 0.0 0 0 106509 21790 " />
<path d="M123640 22380.5 A196.85 196.85 0.0 0 0 123837 22577.4 " />
<path d="M126396 16868
L126396 22380
" />
<path d="M117759 16278.1 A196.85 196.85 0.0 0 0 117562 16475 " />
<path d="M123837 22577
L126199 22577
" />
<path d="M91509.4 16278.1 A196.85 196.85 0.0 0 0 91312.5 16475 " />
<path d="M96627.5 21790 A196.85 196.85 0.0 0 0 96824.3 21593.1 " />
<path d="M91509 21789
L96627 21789
" />
<path d="M98812.5 21593.1 A196.85 196.85 0.0 0 0 99009.4 21790 " />
<path d="M104324 16475 A196.85 196.85 0.0 0 0 104127 16278.1 " />
<path d="M104324 16475
L104324 21593
" />
<path d="M74127.5 21790 A196.85 196.85 0.0 0 0 74324.3 21593.1 " />
<path d="M69009.4 16278.1 A196.85 196.85 0.0 0 0 68812.5 16475 " />
<path d="M44324.3 16475 A196.85 196.85 0.0 0 0 44127.5 16278.1 " />
<path d="M51824 16475
L51824 21593
" />
<path d="M36824.3 16475 A196.85 196.85 0.0 0 0 36627.5 16278.1 " />
<path d="M68812 16475
L68812 21593
" />
<path d="M51627.5 21790 A196.85 196.85 0.0 0 0 51824.3 21593.1 " />
<path d="M46509.4 16278.1 A196.85 196.85 0.0 0 0 46312.5 16475 " />
<path d="M51824.3 16475 A196.85 196.85 0.0 0 0 51627.5 16278.1 " />
<path d="M74324 16475
L74324 21593
" />
<path d="M38812 16475
L38812 21593
" />
<path d="M36824 16475
L36824 21593
" />
<path d="M39009 21789
L44127 21789
" />
<path d="M84009 16278
L89127 16278
" />
<path d="M66824 16475
L66824 21593
" />
<path d="M61312.5 21593.1 A196.85 196.85 0.0 0 0 61509.4 21790 " />
<path d="M81824.3 16475 A196.85 196.85 0.0 0 0 81627.5 16278.1 " />
<path d="M66627.5 21790 A196.85 196.85 0.0 0 0 66824.3 21593.1 " />
<path d="M44324 16475
L44324 21593
" />
<path d="M59127.5 21790 A196.85 196.85 0.0 0 0 59324.3 21593.1 " />
<path d="M84009.4 16278.1 A196.85 196.85 0.0 0 0 83812.5 16475 " />
<path d="M68812.5 21593.1 A196.85 196.85 0.0 0 0 69009.4 21790 " />
<path d="M74324.3 16475 A196.85 196.85 0.0 0 0 74127.5 16278.1 " />
<path d="M46509 21789
L51627 21789
" />
<path d="M54009 21789
L59127 21789
" />
<path d="M31509.4 16278.1 A196.85 196.85 0.0 0 0 31312.5 16475 " />
<path d="M46312 16475
L46312 21593
" />
<path d="M54009 16278
L59127 16278
" />
<path d="M69009 21789
L74127 21789
" />
<path d="M39009 16278
L44127 16278
" />
<path d="M31312 16475
L31312 21593
" />
<path d="M59324 16475
L59324 21593
" />
<path d="M69009 16278
L74127 16278
" />
<path d="M66824.3 16475 A196.85 196.85 0.0 0 0 66627.5 16278.1 " />
<path d="M31312.5 21593.1 A196.85 196.85 0.0 0 0 31509.4 21790 " />
<path d="M61509 21789
L66627 21789
" />
<path d="M36627.5 21790 A196.85 196.85 0.0 0 0 36824.3 21593.1 " />
<path d="M54009.4 16278.1 A196.85 196.85 0.0 0 0 53812.5 16475 " />
<path d="M84009 21789
L89127 21789
" />
<path d="M38812.5 21593.1 A196.85 196.85 0.0 0 0 39009.4 21790 " />
<path d="M39009.4 16278.1 A196.85 196.85 0.0 0 0 38812.5 16475 " />
<path d="M76312 16475
L76312 21593
" />
<path d="M46312.5 21593.1 A196.85 196.85 0.0 0 0 46509.4 21790 " />
<path d="M76312.5 21593.1 A196.85 196.85 0.0 0 0 76509.4 21790 " />
<path d="M81824 16475
L81824 21593
" />
<path d="M76509 16278
L81627 16278
" />
<path d="M59324.3 16475 A196.85 196.85 0.0 0 0 59127.5 16278.1 " />
<path d="M44127.5 21790 A196.85 196.85 0.0 0 0 44324.3 21593.1 " />
<path d="M61312 16475
L61312 21593
" />
<path d="M46509 16278
L51627 16278
" />
<path d="M31509 21789
L36627 21789
" />
<path d="M81627.5 21790 A196.85 196.85 0.0 0 0 81824.3 21593.1 " />
<path d="M61509 16278
L66627 16278
" />
<path d="M53812.5 21593.1 A196.85 196.85 0.0 0 0 54009.4 21790 " />
<path d="M31509 16278
L36627 16278
" />
<path d="M89127.5 21790 A196.85 196.85 0.0 0 0 89324.3 21593.1 " />
<path d="M53812 16475
L53812 21593
" />
<path d="M83812.5 21593.1 A196.85 196.85 0.0 0 0 84009.4 21790 " />
<path d="M89324.3 16475 A196.85 196.85 0.0 0 0 89127.5 16278.1 " />
<path d="M89324 16475
L89324 21593
" />
<path d="M76509.4 16278.1 A196.85 196.85 0.0 0 0 76312.5 16475 " />
<path d="M83812 16475
L83812 21593
" />
<path d="M61509.4 16278.1 A196.85 196.85 0.0 0 0 61312.5 16475 " />
<path d="M76509 21789
L81627 21789
" />
<path d="M23502.5 29290 A196.85 196.85 0.0 0 0 23699.3 29093.1 " />
<path d="M16573.3 29290 A196.85 196.85 0.0 0 0 16770.2 29093.1 " />
<path d="M35062 23975
L35062 29093
" />
<path d="M27562.5 29093.1 A196.85 196.85 0.0 0 0 27759.4 29290 " />
<path d="M25904 23975 A196.85 196.85 0.0 0 0 25707.2 23778.1 " />
<path d="M25904 23975
L25904 29093
" />
<path d="M57759 23778
L62877 23778
" />
<path d="M42759 23778
L47877 23778
" />
<path d="M50062.5 29093.1 A196.85 196.85 0.0 0 0 50259.4 29290 " />
<path d="M35062.5 29093.1 A196.85 196.85 0.0 0 0 35259.4 29290 " />
<path d="M42562.5 29093.1 A196.85 196.85 0.0 0 0 42759.4 29290 " />
<path d="M15982.8 29093.1 A196.85 196.85 0.0 0 0 16179.6 29290 " />
<path d="M55574.3 23975 A196.85 196.85 0.0 0 0 55377.5 23778.1 " />
<path d="M27759 29289
L32877 29289
" />
<path d="M55377.5 29290 A196.85 196.85 0.0 0 0 55574.3 29093.1 " />
<path d="M50259.4 23778.1 A196.85 196.85 0.0 0 0 50062.5 23975 " />
<path d="M16179.6 23778.1 A196.85 196.85 0.0 0 0 15982.8 23975 " />
<path d="M16179 29289
L16573 29289
" />
<path d="M42759.4 23778.1 A196.85 196.85 0.0 0 0 42562.5 23975 " />
<path d="M27759.4 23778.1 A196.85 196.85 0.0 0 0 27562.5 23975 " />
<path d="M12449.3 23975 A196.85 196.85 0.0 0 0 12252.5 23778.1 " />
<path d="M25313 29289
L25707 29289
" />
<path d="M6937 23975
L6937 29093
" />
<path d="M7134 29289
L12252 29289
" />
<path d="M35259 29289
L40377 29289
" />
<path d="M55574 23975
L55574 29093
" />
<path d="M50259 23778
L55377 23778
" />
<path d="M48074 23975
L48074 29093
" />
<path d="M40574.3 23975 A196.85 196.85 0.0 0 0 40377.5 23778.1 " />
<path d="M27759 23778
L32877 23778
" />
<path d="M7134.35 23778.1 A196.85 196.85 0.0 0 0 6937.5 23975 " />
<path d="M25116 23975
L25116 29093
" />
<path d="M25313 23778
L25707 23778
" />
<path d="M23699 23975
L23699 29093
" />
<path d="M18187 23975
L18187 29093
" />
<path d="M50062 23975
L50062 29093
" />
<path d="M50259 29289
L55377 29289
" />
<path d="M48074.3 23975 A196.85 196.85 0.0 0 0 47877.5 23778.1 " />
<path d="M47877.5 29290 A196.85 196.85 0.0 0 0 48074.3 29093.1 " />
<path d="M35259.4 23778.1 A196.85 196.85 0.0 0 0 35062.5 23975 " />
<path d="M32877.5 29290 A196.85 196.85 0.0 0 0 33074.3 29093.1 " />
<path d="M25116.6 29093.1 A196.85 196.85 0.0 0 0 25313.5 29290 " />
<path d="M33074 23975
L33074 29093
" />
<path d="M15982 23975
L15982 29093
" />
<path d="M25707.2 29290 A196.85 196.85 0.0 0 0 25904 29093.1 " />
<path d="M25313.5 23778.1 A196.85 196.85 0.0 0 0 25116.6 23975 " />
<path d="M23699.3 23975 A196.85 196.85 0.0 0 0 23502.5 23778.1 " />
<path d="M18384 29289
L23502 29289
" />
<path d="M16770.2 23975 A196.85 196.85 0.0 0 0 16573.3 23778.1 " />
<path d="M42562 23975
L42562 29093
" />
<path d="M6937.5 29093.1 A196.85 196.85 0.0 0 0 7134.35 29290 " />
<path d="M12252.5 29290 A196.85 196.85 0.0 0 0 12449.3 29093.1 " />
<path d="M40574 23975
L40574 29093
" />
<path d="M35259 23778
L40377 23778
" />
<path d="M16770 23975
L16770 29093
" />
<path d="M18187.5 29093.1 A196.85 196.85 0.0 0 0 18384.4 29290 " />
<path d="M33074.3 23975 A196.85 196.85 0.0 0 0 32877.5 23778.1 " />
<path d="M16179 23778
L16573 23778
" />
<path d="M12449 23975
L12449 29093
" />
<path d="M18384.4 23778.1 A196.85 196.85 0.0 0 0 18187.5 23975 " />
<path d="M18384 23778
L23502 23778
" />
<path d="M42759 29289
L47877 29289
" />
<path d="M40377.5 29290 A196.85 196.85 0.0 0 0 40574.3 29093.1 " />
<path d="M27562 23975
L27562 29093
" />
<g >
</g>
</g> 
</svg>
