G04 #@! TF.GenerationSoftware,KiCad,Pcbnew,(5.1.4)-1*
G04 #@! TF.CreationDate,2020-12-18T22:25:40+01:00*
G04 #@! TF.ProjectId,CZTKeyRev1,435a544b-6579-4526-9576-312e6b696361,rev?*
G04 #@! TF.SameCoordinates,Original*
G04 #@! TF.FileFunction,Profile,NP*
%FSLAX46Y46*%
G04 Gerber Fmt 4.6, Leading zero omitted, Abs format (unit mm)*
G04 Created by KiCad (PCBNEW (5.1.4)-1) date 2020-12-18 22:25:40*
%MOMM*%
%LPD*%
G04 APERTURE LIST*
%ADD10C,0.050000*%
%ADD11C,0.100000*%
G04 APERTURE END LIST*
D10*
X354806250Y-15081250D02*
G75*
G02X357187500Y-17462500I0J-2381250D01*
G01*
X16668750Y-15081250D02*
X354806250Y-15081250D01*
X14287500Y-17462500D02*
G75*
G02X16668750Y-15081250I2381250J0D01*
G01*
X357187500Y-192087500D02*
X357187500Y-17462500D01*
X357187500Y-192087500D02*
G75*
G02X354806250Y-194468750I-2381250J0D01*
G01*
X16668750Y-194468750D02*
X354806250Y-194468750D01*
X16668750Y-194468750D02*
G75*
G02X14287500Y-192087500I0J2381250D01*
G01*
X14287500Y-17462500D02*
X14287500Y-192087500D01*
D11*
X167990290Y-176638299D02*
G75*
G02X168242548Y-176570000I252258J-431701D01*
G01*
X169831452Y-176570000D02*
X168242548Y-176570000D01*
X169831452Y-176570000D02*
G75*
G02X170083711Y-176638299I0J-500000D01*
G01*
X170786484Y-175989719D02*
G75*
G02X170083711Y-176638299I-450515J-216879D01*
G01*
X170786484Y-175989720D02*
G75*
G02X170736999Y-175772842I450515J216878D01*
G01*
X170736999Y-174367158D02*
X170736999Y-175772842D01*
X170736999Y-174367157D02*
G75*
G02X170786484Y-174150280I500000J-1D01*
G01*
X170083711Y-173501703D02*
G75*
G02X170786484Y-174150280I252258J-431700D01*
G01*
X170083711Y-173501702D02*
G75*
G02X169831453Y-173570001I-252258J431701D01*
G01*
X168242548Y-173570001D02*
X169831453Y-173570001D01*
X168242547Y-173570000D02*
G75*
G02X167990289Y-173501701I1J499999D01*
G01*
X167287516Y-174150280D02*
G75*
G02X167990289Y-173501701I450515J216878D01*
G01*
X167287516Y-174150280D02*
G75*
G02X167337001Y-174367158I-450515J-216878D01*
G01*
X167337001Y-175772842D02*
X167337001Y-174367158D01*
X167337001Y-175772843D02*
G75*
G02X167287516Y-175989720I-500000J1D01*
G01*
X167990289Y-176638297D02*
G75*
G02X167287516Y-175989720I-252258J431700D01*
G01*
X172496710Y-83775701D02*
G75*
G02X172244452Y-83844000I-252258J431701D01*
G01*
X170655548Y-83844000D02*
X172244452Y-83844000D01*
X170655548Y-83844000D02*
G75*
G02X170403289Y-83775701I0J500000D01*
G01*
X169700516Y-84424281D02*
G75*
G02X170403289Y-83775701I450515J216879D01*
G01*
X169700516Y-84424280D02*
G75*
G02X169750001Y-84641158I-450515J-216878D01*
G01*
X169750001Y-86046842D02*
X169750001Y-84641158D01*
X169750001Y-86046843D02*
G75*
G02X169700516Y-86263720I-500000J1D01*
G01*
X170403289Y-86912297D02*
G75*
G02X169700516Y-86263720I-252258J431700D01*
G01*
X170403289Y-86912298D02*
G75*
G02X170655547Y-86843999I252258J-431701D01*
G01*
X172244452Y-86843999D02*
X170655547Y-86843999D01*
X172244453Y-86844000D02*
G75*
G02X172496711Y-86912299I-1J-499999D01*
G01*
X173199484Y-86263720D02*
G75*
G02X172496711Y-86912299I-450515J-216878D01*
G01*
X173199484Y-86263720D02*
G75*
G02X173149999Y-86046842I450515J216878D01*
G01*
X173149999Y-84641158D02*
X173149999Y-86046842D01*
X173149999Y-84641157D02*
G75*
G02X173199484Y-84424280I500000J-1D01*
G01*
X172496711Y-83775703D02*
G75*
G02X173199484Y-84424280I252258J-431700D01*
G01*
X341853290Y-191623799D02*
G75*
G02X342105548Y-191555500I252258J-431701D01*
G01*
X343694452Y-191555500D02*
X342105548Y-191555500D01*
X343694452Y-191555500D02*
G75*
G02X343946711Y-191623799I0J-500000D01*
G01*
X344649484Y-190975219D02*
G75*
G02X343946711Y-191623799I-450515J-216879D01*
G01*
X344649484Y-190975220D02*
G75*
G02X344599999Y-190758342I450515J216878D01*
G01*
X344599999Y-189352658D02*
X344599999Y-190758342D01*
X344599999Y-189352657D02*
G75*
G02X344649484Y-189135780I500000J-1D01*
G01*
X343946711Y-188487203D02*
G75*
G02X344649484Y-189135780I252258J-431700D01*
G01*
X343946711Y-188487202D02*
G75*
G02X343694453Y-188555501I-252258J431701D01*
G01*
X342105548Y-188555501D02*
X343694453Y-188555501D01*
X342105547Y-188555500D02*
G75*
G02X341853289Y-188487201I1J499999D01*
G01*
X341150516Y-189135780D02*
G75*
G02X341853289Y-188487201I450515J216878D01*
G01*
X341150516Y-189135780D02*
G75*
G02X341200001Y-189352658I-450515J-216878D01*
G01*
X341200001Y-190758342D02*
X341200001Y-189352658D01*
X341200001Y-190758343D02*
G75*
G02X341150516Y-190975220I-500000J1D01*
G01*
X341853289Y-191623797D02*
G75*
G02X341150516Y-190975220I-252258J431700D01*
G01*
X322803290Y-191750799D02*
G75*
G02X323055548Y-191682500I252258J-431701D01*
G01*
X324644452Y-191682500D02*
X323055548Y-191682500D01*
X324644452Y-191682500D02*
G75*
G02X324896711Y-191750799I0J-500000D01*
G01*
X325599484Y-191102219D02*
G75*
G02X324896711Y-191750799I-450515J-216879D01*
G01*
X325599484Y-191102220D02*
G75*
G02X325549999Y-190885342I450515J216878D01*
G01*
X325549999Y-189479658D02*
X325549999Y-190885342D01*
X325549999Y-189479657D02*
G75*
G02X325599484Y-189262780I500000J-1D01*
G01*
X324896711Y-188614203D02*
G75*
G02X325599484Y-189262780I252258J-431700D01*
G01*
X324896711Y-188614202D02*
G75*
G02X324644453Y-188682501I-252258J431701D01*
G01*
X323055548Y-188682501D02*
X324644453Y-188682501D01*
X323055547Y-188682500D02*
G75*
G02X322803289Y-188614201I1J499999D01*
G01*
X322100516Y-189262780D02*
G75*
G02X322803289Y-188614201I450515J216878D01*
G01*
X322100516Y-189262780D02*
G75*
G02X322150001Y-189479658I-450515J-216878D01*
G01*
X322150001Y-190885342D02*
X322150001Y-189479658D01*
X322150001Y-190885343D02*
G75*
G02X322100516Y-191102220I-500000J1D01*
G01*
X322803289Y-191750797D02*
G75*
G02X322100516Y-191102220I-252258J431700D01*
G01*
X303753290Y-191623799D02*
G75*
G02X304005548Y-191555500I252258J-431701D01*
G01*
X305594452Y-191555500D02*
X304005548Y-191555500D01*
X305594452Y-191555500D02*
G75*
G02X305846711Y-191623799I0J-500000D01*
G01*
X306549484Y-190975219D02*
G75*
G02X305846711Y-191623799I-450515J-216879D01*
G01*
X306549484Y-190975220D02*
G75*
G02X306499999Y-190758342I450515J216878D01*
G01*
X306499999Y-189352658D02*
X306499999Y-190758342D01*
X306499999Y-189352657D02*
G75*
G02X306549484Y-189135780I500000J-1D01*
G01*
X305846711Y-188487203D02*
G75*
G02X306549484Y-189135780I252258J-431700D01*
G01*
X305846711Y-188487202D02*
G75*
G02X305594453Y-188555501I-252258J431701D01*
G01*
X304005548Y-188555501D02*
X305594453Y-188555501D01*
X304005547Y-188555500D02*
G75*
G02X303753289Y-188487201I1J499999D01*
G01*
X303050516Y-189135780D02*
G75*
G02X303753289Y-188487201I450515J216878D01*
G01*
X303050516Y-189135780D02*
G75*
G02X303100001Y-189352658I-450515J-216878D01*
G01*
X303100001Y-190758342D02*
X303100001Y-189352658D01*
X303100001Y-190758343D02*
G75*
G02X303050516Y-190975220I-500000J1D01*
G01*
X303753289Y-191623797D02*
G75*
G02X303050516Y-190975220I-252258J431700D01*
G01*
X22829290Y-186861299D02*
G75*
G02X23081548Y-186793000I252258J-431701D01*
G01*
X24670452Y-186793000D02*
X23081548Y-186793000D01*
X24670452Y-186793000D02*
G75*
G02X24922711Y-186861299I0J-500000D01*
G01*
X25625484Y-186212719D02*
G75*
G02X24922711Y-186861299I-450515J-216879D01*
G01*
X25625484Y-186212720D02*
G75*
G02X25575999Y-185995842I450515J216878D01*
G01*
X25575999Y-184590158D02*
X25575999Y-185995842D01*
X25575999Y-184590157D02*
G75*
G02X25625484Y-184373280I500000J-1D01*
G01*
X24922711Y-183724703D02*
G75*
G02X25625484Y-184373280I252258J-431700D01*
G01*
X24922711Y-183724702D02*
G75*
G02X24670453Y-183793001I-252258J431701D01*
G01*
X23081548Y-183793001D02*
X24670453Y-183793001D01*
X23081547Y-183793000D02*
G75*
G02X22829289Y-183724701I1J499999D01*
G01*
X22126516Y-184373280D02*
G75*
G02X22829289Y-183724701I450515J216878D01*
G01*
X22126516Y-184373280D02*
G75*
G02X22176001Y-184590158I-450515J-216878D01*
G01*
X22176001Y-185995842D02*
X22176001Y-184590158D01*
X22176001Y-185995843D02*
G75*
G02X22126516Y-186212720I-500000J1D01*
G01*
X22829289Y-186861297D02*
G75*
G02X22126516Y-186212720I-252258J431700D01*
G01*
X348772710Y-164674701D02*
G75*
G02X348520452Y-164743000I-252258J431701D01*
G01*
X346931548Y-164743000D02*
X348520452Y-164743000D01*
X346931548Y-164743000D02*
G75*
G02X346679289Y-164674701I0J500000D01*
G01*
X345976516Y-165323281D02*
G75*
G02X346679289Y-164674701I450515J216879D01*
G01*
X345976516Y-165323280D02*
G75*
G02X346026001Y-165540158I-450515J-216878D01*
G01*
X346026001Y-166945842D02*
X346026001Y-165540158D01*
X346026001Y-166945843D02*
G75*
G02X345976516Y-167162720I-500000J1D01*
G01*
X346679289Y-167811297D02*
G75*
G02X345976516Y-167162720I-252258J431700D01*
G01*
X346679289Y-167811298D02*
G75*
G02X346931547Y-167742999I252258J-431701D01*
G01*
X348520452Y-167742999D02*
X346931547Y-167742999D01*
X348520453Y-167743000D02*
G75*
G02X348772711Y-167811299I-1J-499999D01*
G01*
X349475484Y-167162720D02*
G75*
G02X348772711Y-167811299I-450515J-216878D01*
G01*
X349475484Y-167162720D02*
G75*
G02X349425999Y-166945842I450515J216878D01*
G01*
X349425999Y-165540158D02*
X349425999Y-166945842D01*
X349425999Y-165540157D02*
G75*
G02X349475484Y-165323280I500000J-1D01*
G01*
X348772711Y-164674703D02*
G75*
G02X349475484Y-165323280I252258J-431700D01*
G01*
X324896710Y-169564201D02*
G75*
G02X324644452Y-169632500I-252258J431701D01*
G01*
X323055548Y-169632500D02*
X324644452Y-169632500D01*
X323055548Y-169632500D02*
G75*
G02X322803289Y-169564201I0J500000D01*
G01*
X322100516Y-170212781D02*
G75*
G02X322803289Y-169564201I450515J216879D01*
G01*
X322100516Y-170212780D02*
G75*
G02X322150001Y-170429658I-450515J-216878D01*
G01*
X322150001Y-171835342D02*
X322150001Y-170429658D01*
X322150001Y-171835343D02*
G75*
G02X322100516Y-172052220I-500000J1D01*
G01*
X322803289Y-172700797D02*
G75*
G02X322100516Y-172052220I-252258J431700D01*
G01*
X322803289Y-172700798D02*
G75*
G02X323055547Y-172632499I252258J-431701D01*
G01*
X324644452Y-172632499D02*
X323055547Y-172632499D01*
X324644453Y-172632500D02*
G75*
G02X324896711Y-172700799I-1J-499999D01*
G01*
X325599484Y-172052220D02*
G75*
G02X324896711Y-172700799I-450515J-216878D01*
G01*
X325599484Y-172052220D02*
G75*
G02X325549999Y-171835342I450515J216878D01*
G01*
X325549999Y-170429658D02*
X325549999Y-171835342D01*
X325549999Y-170429657D02*
G75*
G02X325599484Y-170212780I500000J-1D01*
G01*
X324896711Y-169564203D02*
G75*
G02X325599484Y-170212780I252258J-431700D01*
G01*
X24922710Y-164674701D02*
G75*
G02X24670452Y-164743000I-252258J431701D01*
G01*
X23081548Y-164743000D02*
X24670452Y-164743000D01*
X23081548Y-164743000D02*
G75*
G02X22829289Y-164674701I0J500000D01*
G01*
X22126516Y-165323281D02*
G75*
G02X22829289Y-164674701I450515J216879D01*
G01*
X22126516Y-165323280D02*
G75*
G02X22176001Y-165540158I-450515J-216878D01*
G01*
X22176001Y-166945842D02*
X22176001Y-165540158D01*
X22176001Y-166945843D02*
G75*
G02X22126516Y-167162720I-500000J1D01*
G01*
X22829289Y-167811297D02*
G75*
G02X22126516Y-167162720I-252258J431700D01*
G01*
X22829289Y-167811298D02*
G75*
G02X23081547Y-167742999I252258J-431701D01*
G01*
X24670452Y-167742999D02*
X23081547Y-167742999D01*
X24670453Y-167743000D02*
G75*
G02X24922711Y-167811299I-1J-499999D01*
G01*
X25625484Y-167162720D02*
G75*
G02X24922711Y-167811299I-450515J-216878D01*
G01*
X25625484Y-167162720D02*
G75*
G02X25575999Y-166945842I450515J216878D01*
G01*
X25575999Y-165540158D02*
X25575999Y-166945842D01*
X25575999Y-165540157D02*
G75*
G02X25625484Y-165323280I500000J-1D01*
G01*
X24922711Y-164674703D02*
G75*
G02X25625484Y-165323280I252258J-431700D01*
G01*
X346679290Y-148761299D02*
G75*
G02X346931548Y-148693000I252258J-431701D01*
G01*
X348520452Y-148693000D02*
X346931548Y-148693000D01*
X348520452Y-148693000D02*
G75*
G02X348772711Y-148761299I0J-500000D01*
G01*
X349475484Y-148112719D02*
G75*
G02X348772711Y-148761299I-450515J-216879D01*
G01*
X349475484Y-148112720D02*
G75*
G02X349425999Y-147895842I450515J216878D01*
G01*
X349425999Y-146490158D02*
X349425999Y-147895842D01*
X349425999Y-146490157D02*
G75*
G02X349475484Y-146273280I500000J-1D01*
G01*
X348772711Y-145624703D02*
G75*
G02X349475484Y-146273280I252258J-431700D01*
G01*
X348772711Y-145624702D02*
G75*
G02X348520453Y-145693001I-252258J431701D01*
G01*
X346931548Y-145693001D02*
X348520453Y-145693001D01*
X346931547Y-145693000D02*
G75*
G02X346679289Y-145624701I1J499999D01*
G01*
X345976516Y-146273280D02*
G75*
G02X346679289Y-145624701I450515J216878D01*
G01*
X345976516Y-146273280D02*
G75*
G02X346026001Y-146490158I-450515J-216878D01*
G01*
X346026001Y-147895842D02*
X346026001Y-146490158D01*
X346026001Y-147895843D02*
G75*
G02X345976516Y-148112720I-500000J1D01*
G01*
X346679289Y-148761297D02*
G75*
G02X345976516Y-148112720I-252258J431700D01*
G01*
X270479290Y-148761299D02*
G75*
G02X270731548Y-148693000I252258J-431701D01*
G01*
X272320452Y-148693000D02*
X270731548Y-148693000D01*
X272320452Y-148693000D02*
G75*
G02X272572711Y-148761299I0J-500000D01*
G01*
X273275484Y-148112719D02*
G75*
G02X272572711Y-148761299I-450515J-216879D01*
G01*
X273275484Y-148112720D02*
G75*
G02X273225999Y-147895842I450515J216878D01*
G01*
X273225999Y-146490158D02*
X273225999Y-147895842D01*
X273225999Y-146490157D02*
G75*
G02X273275484Y-146273280I500000J-1D01*
G01*
X272572711Y-145624703D02*
G75*
G02X273275484Y-146273280I252258J-431700D01*
G01*
X272572711Y-145624702D02*
G75*
G02X272320453Y-145693001I-252258J431701D01*
G01*
X270731548Y-145693001D02*
X272320453Y-145693001D01*
X270731547Y-145693000D02*
G75*
G02X270479289Y-145624701I1J499999D01*
G01*
X269776516Y-146273280D02*
G75*
G02X270479289Y-145624701I450515J216878D01*
G01*
X269776516Y-146273280D02*
G75*
G02X269826001Y-146490158I-450515J-216878D01*
G01*
X269826001Y-147895842D02*
X269826001Y-146490158D01*
X269826001Y-147895843D02*
G75*
G02X269776516Y-148112720I-500000J1D01*
G01*
X270479289Y-148761297D02*
G75*
G02X269776516Y-148112720I-252258J431700D01*
G01*
X251429290Y-148761299D02*
G75*
G02X251681548Y-148693000I252258J-431701D01*
G01*
X253270452Y-148693000D02*
X251681548Y-148693000D01*
X253270452Y-148693000D02*
G75*
G02X253522711Y-148761299I0J-500000D01*
G01*
X254225484Y-148112719D02*
G75*
G02X253522711Y-148761299I-450515J-216879D01*
G01*
X254225484Y-148112720D02*
G75*
G02X254175999Y-147895842I450515J216878D01*
G01*
X254175999Y-146490158D02*
X254175999Y-147895842D01*
X254175999Y-146490157D02*
G75*
G02X254225484Y-146273280I500000J-1D01*
G01*
X253522711Y-145624703D02*
G75*
G02X254225484Y-146273280I252258J-431700D01*
G01*
X253522711Y-145624702D02*
G75*
G02X253270453Y-145693001I-252258J431701D01*
G01*
X251681548Y-145693001D02*
X253270453Y-145693001D01*
X251681547Y-145693000D02*
G75*
G02X251429289Y-145624701I1J499999D01*
G01*
X250726516Y-146273280D02*
G75*
G02X251429289Y-145624701I450515J216878D01*
G01*
X250726516Y-146273280D02*
G75*
G02X250776001Y-146490158I-450515J-216878D01*
G01*
X250776001Y-147895842D02*
X250776001Y-146490158D01*
X250776001Y-147895843D02*
G75*
G02X250726516Y-148112720I-500000J1D01*
G01*
X251429289Y-148761297D02*
G75*
G02X250726516Y-148112720I-252258J431700D01*
G01*
X232379290Y-148888299D02*
G75*
G02X232631548Y-148820000I252258J-431701D01*
G01*
X234220452Y-148820000D02*
X232631548Y-148820000D01*
X234220452Y-148820000D02*
G75*
G02X234472711Y-148888299I0J-500000D01*
G01*
X235175484Y-148239719D02*
G75*
G02X234472711Y-148888299I-450515J-216879D01*
G01*
X235175484Y-148239720D02*
G75*
G02X235125999Y-148022842I450515J216878D01*
G01*
X235125999Y-146617158D02*
X235125999Y-148022842D01*
X235125999Y-146617157D02*
G75*
G02X235175484Y-146400280I500000J-1D01*
G01*
X234472711Y-145751703D02*
G75*
G02X235175484Y-146400280I252258J-431700D01*
G01*
X234472711Y-145751702D02*
G75*
G02X234220453Y-145820001I-252258J431701D01*
G01*
X232631548Y-145820001D02*
X234220453Y-145820001D01*
X232631547Y-145820000D02*
G75*
G02X232379289Y-145751701I1J499999D01*
G01*
X231676516Y-146400280D02*
G75*
G02X232379289Y-145751701I450515J216878D01*
G01*
X231676516Y-146400280D02*
G75*
G02X231726001Y-146617158I-450515J-216878D01*
G01*
X231726001Y-148022842D02*
X231726001Y-146617158D01*
X231726001Y-148022843D02*
G75*
G02X231676516Y-148239720I-500000J1D01*
G01*
X232379289Y-148888297D02*
G75*
G02X231676516Y-148239720I-252258J431700D01*
G01*
X213329290Y-148761299D02*
G75*
G02X213581548Y-148693000I252258J-431701D01*
G01*
X215170452Y-148693000D02*
X213581548Y-148693000D01*
X215170452Y-148693000D02*
G75*
G02X215422711Y-148761299I0J-500000D01*
G01*
X216125484Y-148112719D02*
G75*
G02X215422711Y-148761299I-450515J-216879D01*
G01*
X216125484Y-148112720D02*
G75*
G02X216075999Y-147895842I450515J216878D01*
G01*
X216075999Y-146490158D02*
X216075999Y-147895842D01*
X216075999Y-146490157D02*
G75*
G02X216125484Y-146273280I500000J-1D01*
G01*
X215422711Y-145624703D02*
G75*
G02X216125484Y-146273280I252258J-431700D01*
G01*
X215422711Y-145624702D02*
G75*
G02X215170453Y-145693001I-252258J431701D01*
G01*
X213581548Y-145693001D02*
X215170453Y-145693001D01*
X213581547Y-145693000D02*
G75*
G02X213329289Y-145624701I1J499999D01*
G01*
X212626516Y-146273280D02*
G75*
G02X213329289Y-145624701I450515J216878D01*
G01*
X212626516Y-146273280D02*
G75*
G02X212676001Y-146490158I-450515J-216878D01*
G01*
X212676001Y-147895842D02*
X212676001Y-146490158D01*
X212676001Y-147895843D02*
G75*
G02X212626516Y-148112720I-500000J1D01*
G01*
X213329289Y-148761297D02*
G75*
G02X212626516Y-148112720I-252258J431700D01*
G01*
X194279290Y-148761299D02*
G75*
G02X194531548Y-148693000I252258J-431701D01*
G01*
X196120452Y-148693000D02*
X194531548Y-148693000D01*
X196120452Y-148693000D02*
G75*
G02X196372711Y-148761299I0J-500000D01*
G01*
X197075484Y-148112719D02*
G75*
G02X196372711Y-148761299I-450515J-216879D01*
G01*
X197075484Y-148112720D02*
G75*
G02X197025999Y-147895842I450515J216878D01*
G01*
X197025999Y-146490158D02*
X197025999Y-147895842D01*
X197025999Y-146490157D02*
G75*
G02X197075484Y-146273280I500000J-1D01*
G01*
X196372711Y-145624703D02*
G75*
G02X197075484Y-146273280I252258J-431700D01*
G01*
X196372711Y-145624702D02*
G75*
G02X196120453Y-145693001I-252258J431701D01*
G01*
X194531548Y-145693001D02*
X196120453Y-145693001D01*
X194531547Y-145693000D02*
G75*
G02X194279289Y-145624701I1J499999D01*
G01*
X193576516Y-146273280D02*
G75*
G02X194279289Y-145624701I450515J216878D01*
G01*
X193576516Y-146273280D02*
G75*
G02X193626001Y-146490158I-450515J-216878D01*
G01*
X193626001Y-147895842D02*
X193626001Y-146490158D01*
X193626001Y-147895843D02*
G75*
G02X193576516Y-148112720I-500000J1D01*
G01*
X194279289Y-148761297D02*
G75*
G02X193576516Y-148112720I-252258J431700D01*
G01*
X175229290Y-148888299D02*
G75*
G02X175481548Y-148820000I252258J-431701D01*
G01*
X177070452Y-148820000D02*
X175481548Y-148820000D01*
X177070452Y-148820000D02*
G75*
G02X177322711Y-148888299I0J-500000D01*
G01*
X178025484Y-148239719D02*
G75*
G02X177322711Y-148888299I-450515J-216879D01*
G01*
X178025484Y-148239720D02*
G75*
G02X177975999Y-148022842I450515J216878D01*
G01*
X177975999Y-146617158D02*
X177975999Y-148022842D01*
X177975999Y-146617157D02*
G75*
G02X178025484Y-146400280I500000J-1D01*
G01*
X177322711Y-145751703D02*
G75*
G02X178025484Y-146400280I252258J-431700D01*
G01*
X177322711Y-145751702D02*
G75*
G02X177070453Y-145820001I-252258J431701D01*
G01*
X175481548Y-145820001D02*
X177070453Y-145820001D01*
X175481547Y-145820000D02*
G75*
G02X175229289Y-145751701I1J499999D01*
G01*
X174526516Y-146400280D02*
G75*
G02X175229289Y-145751701I450515J216878D01*
G01*
X174526516Y-146400280D02*
G75*
G02X174576001Y-146617158I-450515J-216878D01*
G01*
X174576001Y-148022842D02*
X174576001Y-146617158D01*
X174576001Y-148022843D02*
G75*
G02X174526516Y-148239720I-500000J1D01*
G01*
X175229289Y-148888297D02*
G75*
G02X174526516Y-148239720I-252258J431700D01*
G01*
X156179290Y-148761299D02*
G75*
G02X156431548Y-148693000I252258J-431701D01*
G01*
X158020452Y-148693000D02*
X156431548Y-148693000D01*
X158020452Y-148693000D02*
G75*
G02X158272711Y-148761299I0J-500000D01*
G01*
X158975484Y-148112719D02*
G75*
G02X158272711Y-148761299I-450515J-216879D01*
G01*
X158975484Y-148112720D02*
G75*
G02X158925999Y-147895842I450515J216878D01*
G01*
X158925999Y-146490158D02*
X158925999Y-147895842D01*
X158925999Y-146490157D02*
G75*
G02X158975484Y-146273280I500000J-1D01*
G01*
X158272711Y-145624703D02*
G75*
G02X158975484Y-146273280I252258J-431700D01*
G01*
X158272711Y-145624702D02*
G75*
G02X158020453Y-145693001I-252258J431701D01*
G01*
X156431548Y-145693001D02*
X158020453Y-145693001D01*
X156431547Y-145693000D02*
G75*
G02X156179289Y-145624701I1J499999D01*
G01*
X155476516Y-146273280D02*
G75*
G02X156179289Y-145624701I450515J216878D01*
G01*
X155476516Y-146273280D02*
G75*
G02X155526001Y-146490158I-450515J-216878D01*
G01*
X155526001Y-147895842D02*
X155526001Y-146490158D01*
X155526001Y-147895843D02*
G75*
G02X155476516Y-148112720I-500000J1D01*
G01*
X156179289Y-148761297D02*
G75*
G02X155476516Y-148112720I-252258J431700D01*
G01*
X137129290Y-148888299D02*
G75*
G02X137381548Y-148820000I252258J-431701D01*
G01*
X138970452Y-148820000D02*
X137381548Y-148820000D01*
X138970452Y-148820000D02*
G75*
G02X139222711Y-148888299I0J-500000D01*
G01*
X139925484Y-148239719D02*
G75*
G02X139222711Y-148888299I-450515J-216879D01*
G01*
X139925484Y-148239720D02*
G75*
G02X139875999Y-148022842I450515J216878D01*
G01*
X139875999Y-146617158D02*
X139875999Y-148022842D01*
X139875999Y-146617157D02*
G75*
G02X139925484Y-146400280I500000J-1D01*
G01*
X139222711Y-145751703D02*
G75*
G02X139925484Y-146400280I252258J-431700D01*
G01*
X139222711Y-145751702D02*
G75*
G02X138970453Y-145820001I-252258J431701D01*
G01*
X137381548Y-145820001D02*
X138970453Y-145820001D01*
X137381547Y-145820000D02*
G75*
G02X137129289Y-145751701I1J499999D01*
G01*
X136426516Y-146400280D02*
G75*
G02X137129289Y-145751701I450515J216878D01*
G01*
X136426516Y-146400280D02*
G75*
G02X136476001Y-146617158I-450515J-216878D01*
G01*
X136476001Y-148022842D02*
X136476001Y-146617158D01*
X136476001Y-148022843D02*
G75*
G02X136426516Y-148239720I-500000J1D01*
G01*
X137129289Y-148888297D02*
G75*
G02X136426516Y-148239720I-252258J431700D01*
G01*
X118079290Y-148761299D02*
G75*
G02X118331548Y-148693000I252258J-431701D01*
G01*
X119920452Y-148693000D02*
X118331548Y-148693000D01*
X119920452Y-148693000D02*
G75*
G02X120172711Y-148761299I0J-500000D01*
G01*
X120875484Y-148112719D02*
G75*
G02X120172711Y-148761299I-450515J-216879D01*
G01*
X120875484Y-148112720D02*
G75*
G02X120825999Y-147895842I450515J216878D01*
G01*
X120825999Y-146490158D02*
X120825999Y-147895842D01*
X120825999Y-146490157D02*
G75*
G02X120875484Y-146273280I500000J-1D01*
G01*
X120172711Y-145624703D02*
G75*
G02X120875484Y-146273280I252258J-431700D01*
G01*
X120172711Y-145624702D02*
G75*
G02X119920453Y-145693001I-252258J431701D01*
G01*
X118331548Y-145693001D02*
X119920453Y-145693001D01*
X118331547Y-145693000D02*
G75*
G02X118079289Y-145624701I1J499999D01*
G01*
X117376516Y-146273280D02*
G75*
G02X118079289Y-145624701I450515J216878D01*
G01*
X117376516Y-146273280D02*
G75*
G02X117426001Y-146490158I-450515J-216878D01*
G01*
X117426001Y-147895842D02*
X117426001Y-146490158D01*
X117426001Y-147895843D02*
G75*
G02X117376516Y-148112720I-500000J1D01*
G01*
X118079289Y-148761297D02*
G75*
G02X117376516Y-148112720I-252258J431700D01*
G01*
X99029290Y-148761299D02*
G75*
G02X99281548Y-148693000I252258J-431701D01*
G01*
X100870452Y-148693000D02*
X99281548Y-148693000D01*
X100870452Y-148693000D02*
G75*
G02X101122711Y-148761299I0J-500000D01*
G01*
X101825484Y-148112719D02*
G75*
G02X101122711Y-148761299I-450515J-216879D01*
G01*
X101825484Y-148112720D02*
G75*
G02X101775999Y-147895842I450515J216878D01*
G01*
X101775999Y-146490158D02*
X101775999Y-147895842D01*
X101775999Y-146490157D02*
G75*
G02X101825484Y-146273280I500000J-1D01*
G01*
X101122711Y-145624703D02*
G75*
G02X101825484Y-146273280I252258J-431700D01*
G01*
X101122711Y-145624702D02*
G75*
G02X100870453Y-145693001I-252258J431701D01*
G01*
X99281548Y-145693001D02*
X100870453Y-145693001D01*
X99281547Y-145693000D02*
G75*
G02X99029289Y-145624701I1J499999D01*
G01*
X98326516Y-146273280D02*
G75*
G02X99029289Y-145624701I450515J216878D01*
G01*
X98326516Y-146273280D02*
G75*
G02X98376001Y-146490158I-450515J-216878D01*
G01*
X98376001Y-147895842D02*
X98376001Y-146490158D01*
X98376001Y-147895843D02*
G75*
G02X98326516Y-148112720I-500000J1D01*
G01*
X99029289Y-148761297D02*
G75*
G02X98326516Y-148112720I-252258J431700D01*
G01*
X79979290Y-148761299D02*
G75*
G02X80231548Y-148693000I252258J-431701D01*
G01*
X81820452Y-148693000D02*
X80231548Y-148693000D01*
X81820452Y-148693000D02*
G75*
G02X82072711Y-148761299I0J-500000D01*
G01*
X82775484Y-148112719D02*
G75*
G02X82072711Y-148761299I-450515J-216879D01*
G01*
X82775484Y-148112720D02*
G75*
G02X82725999Y-147895842I450515J216878D01*
G01*
X82725999Y-146490158D02*
X82725999Y-147895842D01*
X82725999Y-146490157D02*
G75*
G02X82775484Y-146273280I500000J-1D01*
G01*
X82072711Y-145624703D02*
G75*
G02X82775484Y-146273280I252258J-431700D01*
G01*
X82072711Y-145624702D02*
G75*
G02X81820453Y-145693001I-252258J431701D01*
G01*
X80231548Y-145693001D02*
X81820453Y-145693001D01*
X80231547Y-145693000D02*
G75*
G02X79979289Y-145624701I1J499999D01*
G01*
X79276516Y-146273280D02*
G75*
G02X79979289Y-145624701I450515J216878D01*
G01*
X79276516Y-146273280D02*
G75*
G02X79326001Y-146490158I-450515J-216878D01*
G01*
X79326001Y-147895842D02*
X79326001Y-146490158D01*
X79326001Y-147895843D02*
G75*
G02X79276516Y-148112720I-500000J1D01*
G01*
X79979289Y-148761297D02*
G75*
G02X79276516Y-148112720I-252258J431700D01*
G01*
X22702290Y-148761299D02*
G75*
G02X22954548Y-148693000I252258J-431701D01*
G01*
X24543452Y-148693000D02*
X22954548Y-148693000D01*
X24543452Y-148693000D02*
G75*
G02X24795711Y-148761299I0J-500000D01*
G01*
X25498484Y-148112719D02*
G75*
G02X24795711Y-148761299I-450515J-216879D01*
G01*
X25498484Y-148112720D02*
G75*
G02X25448999Y-147895842I450515J216878D01*
G01*
X25448999Y-146490158D02*
X25448999Y-147895842D01*
X25448999Y-146490157D02*
G75*
G02X25498484Y-146273280I500000J-1D01*
G01*
X24795711Y-145624703D02*
G75*
G02X25498484Y-146273280I252258J-431700D01*
G01*
X24795711Y-145624702D02*
G75*
G02X24543453Y-145693001I-252258J431701D01*
G01*
X22954548Y-145693001D02*
X24543453Y-145693001D01*
X22954547Y-145693000D02*
G75*
G02X22702289Y-145624701I1J499999D01*
G01*
X21999516Y-146273280D02*
G75*
G02X22702289Y-145624701I450515J216878D01*
G01*
X21999516Y-146273280D02*
G75*
G02X22049001Y-146490158I-450515J-216878D01*
G01*
X22049001Y-147895842D02*
X22049001Y-146490158D01*
X22049001Y-147895843D02*
G75*
G02X21999516Y-148112720I-500000J1D01*
G01*
X22702289Y-148761297D02*
G75*
G02X21999516Y-148112720I-252258J431700D01*
G01*
X348772710Y-126574701D02*
G75*
G02X348520452Y-126643000I-252258J431701D01*
G01*
X346931548Y-126643000D02*
X348520452Y-126643000D01*
X346931548Y-126643000D02*
G75*
G02X346679289Y-126574701I0J500000D01*
G01*
X345976516Y-127223281D02*
G75*
G02X346679289Y-126574701I450515J216879D01*
G01*
X345976516Y-127223280D02*
G75*
G02X346026001Y-127440158I-450515J-216878D01*
G01*
X346026001Y-128845842D02*
X346026001Y-127440158D01*
X346026001Y-128845843D02*
G75*
G02X345976516Y-129062720I-500000J1D01*
G01*
X346679289Y-129711297D02*
G75*
G02X345976516Y-129062720I-252258J431700D01*
G01*
X346679289Y-129711298D02*
G75*
G02X346931547Y-129642999I252258J-431701D01*
G01*
X348520452Y-129642999D02*
X346931547Y-129642999D01*
X348520453Y-129643000D02*
G75*
G02X348772711Y-129711299I-1J-499999D01*
G01*
X349475484Y-129062720D02*
G75*
G02X348772711Y-129711299I-450515J-216878D01*
G01*
X349475484Y-129062720D02*
G75*
G02X349425999Y-128845842I450515J216878D01*
G01*
X349425999Y-127440158D02*
X349425999Y-128845842D01*
X349425999Y-127440157D02*
G75*
G02X349475484Y-127223280I500000J-1D01*
G01*
X348772711Y-126574703D02*
G75*
G02X349475484Y-127223280I252258J-431700D01*
G01*
X286796710Y-126574701D02*
G75*
G02X286544452Y-126643000I-252258J431701D01*
G01*
X284955548Y-126643000D02*
X286544452Y-126643000D01*
X284955548Y-126643000D02*
G75*
G02X284703289Y-126574701I0J500000D01*
G01*
X284000516Y-127223281D02*
G75*
G02X284703289Y-126574701I450515J216879D01*
G01*
X284000516Y-127223280D02*
G75*
G02X284050001Y-127440158I-450515J-216878D01*
G01*
X284050001Y-128845842D02*
X284050001Y-127440158D01*
X284050001Y-128845843D02*
G75*
G02X284000516Y-129062720I-500000J1D01*
G01*
X284703289Y-129711297D02*
G75*
G02X284000516Y-129062720I-252258J431700D01*
G01*
X284703289Y-129711298D02*
G75*
G02X284955547Y-129642999I252258J-431701D01*
G01*
X286544452Y-129642999D02*
X284955547Y-129642999D01*
X286544453Y-129643000D02*
G75*
G02X286796711Y-129711299I-1J-499999D01*
G01*
X287499484Y-129062720D02*
G75*
G02X286796711Y-129711299I-450515J-216878D01*
G01*
X287499484Y-129062720D02*
G75*
G02X287449999Y-128845842I450515J216878D01*
G01*
X287449999Y-127440158D02*
X287449999Y-128845842D01*
X287449999Y-127440157D02*
G75*
G02X287499484Y-127223280I500000J-1D01*
G01*
X286796711Y-126574703D02*
G75*
G02X287499484Y-127223280I252258J-431700D01*
G01*
X267746710Y-126574701D02*
G75*
G02X267494452Y-126643000I-252258J431701D01*
G01*
X265905548Y-126643000D02*
X267494452Y-126643000D01*
X265905548Y-126643000D02*
G75*
G02X265653289Y-126574701I0J500000D01*
G01*
X264950516Y-127223281D02*
G75*
G02X265653289Y-126574701I450515J216879D01*
G01*
X264950516Y-127223280D02*
G75*
G02X265000001Y-127440158I-450515J-216878D01*
G01*
X265000001Y-128845842D02*
X265000001Y-127440158D01*
X265000001Y-128845843D02*
G75*
G02X264950516Y-129062720I-500000J1D01*
G01*
X265653289Y-129711297D02*
G75*
G02X264950516Y-129062720I-252258J431700D01*
G01*
X265653289Y-129711298D02*
G75*
G02X265905547Y-129642999I252258J-431701D01*
G01*
X267494452Y-129642999D02*
X265905547Y-129642999D01*
X267494453Y-129643000D02*
G75*
G02X267746711Y-129711299I-1J-499999D01*
G01*
X268449484Y-129062720D02*
G75*
G02X267746711Y-129711299I-450515J-216878D01*
G01*
X268449484Y-129062720D02*
G75*
G02X268399999Y-128845842I450515J216878D01*
G01*
X268399999Y-127440158D02*
X268399999Y-128845842D01*
X268399999Y-127440157D02*
G75*
G02X268449484Y-127223280I500000J-1D01*
G01*
X267746711Y-126574703D02*
G75*
G02X268449484Y-127223280I252258J-431700D01*
G01*
X248696710Y-126574701D02*
G75*
G02X248444452Y-126643000I-252258J431701D01*
G01*
X246855548Y-126643000D02*
X248444452Y-126643000D01*
X246855548Y-126643000D02*
G75*
G02X246603289Y-126574701I0J500000D01*
G01*
X245900516Y-127223281D02*
G75*
G02X246603289Y-126574701I450515J216879D01*
G01*
X245900516Y-127223280D02*
G75*
G02X245950001Y-127440158I-450515J-216878D01*
G01*
X245950001Y-128845842D02*
X245950001Y-127440158D01*
X245950001Y-128845843D02*
G75*
G02X245900516Y-129062720I-500000J1D01*
G01*
X246603289Y-129711297D02*
G75*
G02X245900516Y-129062720I-252258J431700D01*
G01*
X246603289Y-129711298D02*
G75*
G02X246855547Y-129642999I252258J-431701D01*
G01*
X248444452Y-129642999D02*
X246855547Y-129642999D01*
X248444453Y-129643000D02*
G75*
G02X248696711Y-129711299I-1J-499999D01*
G01*
X249399484Y-129062720D02*
G75*
G02X248696711Y-129711299I-450515J-216878D01*
G01*
X249399484Y-129062720D02*
G75*
G02X249349999Y-128845842I450515J216878D01*
G01*
X249349999Y-127440158D02*
X249349999Y-128845842D01*
X249349999Y-127440157D02*
G75*
G02X249399484Y-127223280I500000J-1D01*
G01*
X248696711Y-126574703D02*
G75*
G02X249399484Y-127223280I252258J-431700D01*
G01*
X229646710Y-126574701D02*
G75*
G02X229394452Y-126643000I-252258J431701D01*
G01*
X227805548Y-126643000D02*
X229394452Y-126643000D01*
X227805548Y-126643000D02*
G75*
G02X227553289Y-126574701I0J500000D01*
G01*
X226850516Y-127223281D02*
G75*
G02X227553289Y-126574701I450515J216879D01*
G01*
X226850516Y-127223280D02*
G75*
G02X226900001Y-127440158I-450515J-216878D01*
G01*
X226900001Y-128845842D02*
X226900001Y-127440158D01*
X226900001Y-128845843D02*
G75*
G02X226850516Y-129062720I-500000J1D01*
G01*
X227553289Y-129711297D02*
G75*
G02X226850516Y-129062720I-252258J431700D01*
G01*
X227553289Y-129711298D02*
G75*
G02X227805547Y-129642999I252258J-431701D01*
G01*
X229394452Y-129642999D02*
X227805547Y-129642999D01*
X229394453Y-129643000D02*
G75*
G02X229646711Y-129711299I-1J-499999D01*
G01*
X230349484Y-129062720D02*
G75*
G02X229646711Y-129711299I-450515J-216878D01*
G01*
X230349484Y-129062720D02*
G75*
G02X230299999Y-128845842I450515J216878D01*
G01*
X230299999Y-127440158D02*
X230299999Y-128845842D01*
X230299999Y-127440157D02*
G75*
G02X230349484Y-127223280I500000J-1D01*
G01*
X229646711Y-126574703D02*
G75*
G02X230349484Y-127223280I252258J-431700D01*
G01*
X210596710Y-126574701D02*
G75*
G02X210344452Y-126643000I-252258J431701D01*
G01*
X208755548Y-126643000D02*
X210344452Y-126643000D01*
X208755548Y-126643000D02*
G75*
G02X208503289Y-126574701I0J500000D01*
G01*
X207800516Y-127223281D02*
G75*
G02X208503289Y-126574701I450515J216879D01*
G01*
X207800516Y-127223280D02*
G75*
G02X207850001Y-127440158I-450515J-216878D01*
G01*
X207850001Y-128845842D02*
X207850001Y-127440158D01*
X207850001Y-128845843D02*
G75*
G02X207800516Y-129062720I-500000J1D01*
G01*
X208503289Y-129711297D02*
G75*
G02X207800516Y-129062720I-252258J431700D01*
G01*
X208503289Y-129711298D02*
G75*
G02X208755547Y-129642999I252258J-431701D01*
G01*
X210344452Y-129642999D02*
X208755547Y-129642999D01*
X210344453Y-129643000D02*
G75*
G02X210596711Y-129711299I-1J-499999D01*
G01*
X211299484Y-129062720D02*
G75*
G02X210596711Y-129711299I-450515J-216878D01*
G01*
X211299484Y-129062720D02*
G75*
G02X211249999Y-128845842I450515J216878D01*
G01*
X211249999Y-127440158D02*
X211249999Y-128845842D01*
X211249999Y-127440157D02*
G75*
G02X211299484Y-127223280I500000J-1D01*
G01*
X210596711Y-126574703D02*
G75*
G02X211299484Y-127223280I252258J-431700D01*
G01*
X191546710Y-126574701D02*
G75*
G02X191294452Y-126643000I-252258J431701D01*
G01*
X189705548Y-126643000D02*
X191294452Y-126643000D01*
X189705548Y-126643000D02*
G75*
G02X189453289Y-126574701I0J500000D01*
G01*
X188750516Y-127223281D02*
G75*
G02X189453289Y-126574701I450515J216879D01*
G01*
X188750516Y-127223280D02*
G75*
G02X188800001Y-127440158I-450515J-216878D01*
G01*
X188800001Y-128845842D02*
X188800001Y-127440158D01*
X188800001Y-128845843D02*
G75*
G02X188750516Y-129062720I-500000J1D01*
G01*
X189453289Y-129711297D02*
G75*
G02X188750516Y-129062720I-252258J431700D01*
G01*
X189453289Y-129711298D02*
G75*
G02X189705547Y-129642999I252258J-431701D01*
G01*
X191294452Y-129642999D02*
X189705547Y-129642999D01*
X191294453Y-129643000D02*
G75*
G02X191546711Y-129711299I-1J-499999D01*
G01*
X192249484Y-129062720D02*
G75*
G02X191546711Y-129711299I-450515J-216878D01*
G01*
X192249484Y-129062720D02*
G75*
G02X192199999Y-128845842I450515J216878D01*
G01*
X192199999Y-127440158D02*
X192199999Y-128845842D01*
X192199999Y-127440157D02*
G75*
G02X192249484Y-127223280I500000J-1D01*
G01*
X191546711Y-126574703D02*
G75*
G02X192249484Y-127223280I252258J-431700D01*
G01*
X172496710Y-126701701D02*
G75*
G02X172244452Y-126770000I-252258J431701D01*
G01*
X170655548Y-126770000D02*
X172244452Y-126770000D01*
X170655548Y-126770000D02*
G75*
G02X170403289Y-126701701I0J500000D01*
G01*
X169700516Y-127350281D02*
G75*
G02X170403289Y-126701701I450515J216879D01*
G01*
X169700516Y-127350280D02*
G75*
G02X169750001Y-127567158I-450515J-216878D01*
G01*
X169750001Y-128972842D02*
X169750001Y-127567158D01*
X169750001Y-128972843D02*
G75*
G02X169700516Y-129189720I-500000J1D01*
G01*
X170403289Y-129838297D02*
G75*
G02X169700516Y-129189720I-252258J431700D01*
G01*
X170403289Y-129838298D02*
G75*
G02X170655547Y-129769999I252258J-431701D01*
G01*
X172244452Y-129769999D02*
X170655547Y-129769999D01*
X172244453Y-129770000D02*
G75*
G02X172496711Y-129838299I-1J-499999D01*
G01*
X173199484Y-129189720D02*
G75*
G02X172496711Y-129838299I-450515J-216878D01*
G01*
X173199484Y-129189720D02*
G75*
G02X173149999Y-128972842I450515J216878D01*
G01*
X173149999Y-127567158D02*
X173149999Y-128972842D01*
X173149999Y-127567157D02*
G75*
G02X173199484Y-127350280I500000J-1D01*
G01*
X172496711Y-126701703D02*
G75*
G02X173199484Y-127350280I252258J-431700D01*
G01*
X153446710Y-126447701D02*
G75*
G02X153194452Y-126516000I-252258J431701D01*
G01*
X151605548Y-126516000D02*
X153194452Y-126516000D01*
X151605548Y-126516000D02*
G75*
G02X151353289Y-126447701I0J500000D01*
G01*
X150650516Y-127096281D02*
G75*
G02X151353289Y-126447701I450515J216879D01*
G01*
X150650516Y-127096280D02*
G75*
G02X150700001Y-127313158I-450515J-216878D01*
G01*
X150700001Y-128718842D02*
X150700001Y-127313158D01*
X150700001Y-128718843D02*
G75*
G02X150650516Y-128935720I-500000J1D01*
G01*
X151353289Y-129584297D02*
G75*
G02X150650516Y-128935720I-252258J431700D01*
G01*
X151353289Y-129584298D02*
G75*
G02X151605547Y-129515999I252258J-431701D01*
G01*
X153194452Y-129515999D02*
X151605547Y-129515999D01*
X153194453Y-129516000D02*
G75*
G02X153446711Y-129584299I-1J-499999D01*
G01*
X154149484Y-128935720D02*
G75*
G02X153446711Y-129584299I-450515J-216878D01*
G01*
X154149484Y-128935720D02*
G75*
G02X154099999Y-128718842I450515J216878D01*
G01*
X154099999Y-127313158D02*
X154099999Y-128718842D01*
X154099999Y-127313157D02*
G75*
G02X154149484Y-127096280I500000J-1D01*
G01*
X153446711Y-126447703D02*
G75*
G02X154149484Y-127096280I252258J-431700D01*
G01*
X134396710Y-126574701D02*
G75*
G02X134144452Y-126643000I-252258J431701D01*
G01*
X132555548Y-126643000D02*
X134144452Y-126643000D01*
X132555548Y-126643000D02*
G75*
G02X132303289Y-126574701I0J500000D01*
G01*
X131600516Y-127223281D02*
G75*
G02X132303289Y-126574701I450515J216879D01*
G01*
X131600516Y-127223280D02*
G75*
G02X131650001Y-127440158I-450515J-216878D01*
G01*
X131650001Y-128845842D02*
X131650001Y-127440158D01*
X131650001Y-128845843D02*
G75*
G02X131600516Y-129062720I-500000J1D01*
G01*
X132303289Y-129711297D02*
G75*
G02X131600516Y-129062720I-252258J431700D01*
G01*
X132303289Y-129711298D02*
G75*
G02X132555547Y-129642999I252258J-431701D01*
G01*
X134144452Y-129642999D02*
X132555547Y-129642999D01*
X134144453Y-129643000D02*
G75*
G02X134396711Y-129711299I-1J-499999D01*
G01*
X135099484Y-129062720D02*
G75*
G02X134396711Y-129711299I-450515J-216878D01*
G01*
X135099484Y-129062720D02*
G75*
G02X135049999Y-128845842I450515J216878D01*
G01*
X135049999Y-127440158D02*
X135049999Y-128845842D01*
X135049999Y-127440157D02*
G75*
G02X135099484Y-127223280I500000J-1D01*
G01*
X134396711Y-126574703D02*
G75*
G02X135099484Y-127223280I252258J-431700D01*
G01*
X115346710Y-126574701D02*
G75*
G02X115094452Y-126643000I-252258J431701D01*
G01*
X113505548Y-126643000D02*
X115094452Y-126643000D01*
X113505548Y-126643000D02*
G75*
G02X113253289Y-126574701I0J500000D01*
G01*
X112550516Y-127223281D02*
G75*
G02X113253289Y-126574701I450515J216879D01*
G01*
X112550516Y-127223280D02*
G75*
G02X112600001Y-127440158I-450515J-216878D01*
G01*
X112600001Y-128845842D02*
X112600001Y-127440158D01*
X112600001Y-128845843D02*
G75*
G02X112550516Y-129062720I-500000J1D01*
G01*
X113253289Y-129711297D02*
G75*
G02X112550516Y-129062720I-252258J431700D01*
G01*
X113253289Y-129711298D02*
G75*
G02X113505547Y-129642999I252258J-431701D01*
G01*
X115094452Y-129642999D02*
X113505547Y-129642999D01*
X115094453Y-129643000D02*
G75*
G02X115346711Y-129711299I-1J-499999D01*
G01*
X116049484Y-129062720D02*
G75*
G02X115346711Y-129711299I-450515J-216878D01*
G01*
X116049484Y-129062720D02*
G75*
G02X115999999Y-128845842I450515J216878D01*
G01*
X115999999Y-127440158D02*
X115999999Y-128845842D01*
X115999999Y-127440157D02*
G75*
G02X116049484Y-127223280I500000J-1D01*
G01*
X115346711Y-126574703D02*
G75*
G02X116049484Y-127223280I252258J-431700D01*
G01*
X96296710Y-126574701D02*
G75*
G02X96044452Y-126643000I-252258J431701D01*
G01*
X94455548Y-126643000D02*
X96044452Y-126643000D01*
X94455548Y-126643000D02*
G75*
G02X94203289Y-126574701I0J500000D01*
G01*
X93500516Y-127223281D02*
G75*
G02X94203289Y-126574701I450515J216879D01*
G01*
X93500516Y-127223280D02*
G75*
G02X93550001Y-127440158I-450515J-216878D01*
G01*
X93550001Y-128845842D02*
X93550001Y-127440158D01*
X93550001Y-128845843D02*
G75*
G02X93500516Y-129062720I-500000J1D01*
G01*
X94203289Y-129711297D02*
G75*
G02X93500516Y-129062720I-252258J431700D01*
G01*
X94203289Y-129711298D02*
G75*
G02X94455547Y-129642999I252258J-431701D01*
G01*
X96044452Y-129642999D02*
X94455547Y-129642999D01*
X96044453Y-129643000D02*
G75*
G02X96296711Y-129711299I-1J-499999D01*
G01*
X96999484Y-129062720D02*
G75*
G02X96296711Y-129711299I-450515J-216878D01*
G01*
X96999484Y-129062720D02*
G75*
G02X96949999Y-128845842I450515J216878D01*
G01*
X96949999Y-127440158D02*
X96949999Y-128845842D01*
X96949999Y-127440157D02*
G75*
G02X96999484Y-127223280I500000J-1D01*
G01*
X96296711Y-126574703D02*
G75*
G02X96999484Y-127223280I252258J-431700D01*
G01*
X77246710Y-126574701D02*
G75*
G02X76994452Y-126643000I-252258J431701D01*
G01*
X75405548Y-126643000D02*
X76994452Y-126643000D01*
X75405548Y-126643000D02*
G75*
G02X75153289Y-126574701I0J500000D01*
G01*
X74450516Y-127223281D02*
G75*
G02X75153289Y-126574701I450515J216879D01*
G01*
X74450516Y-127223280D02*
G75*
G02X74500001Y-127440158I-450515J-216878D01*
G01*
X74500001Y-128845842D02*
X74500001Y-127440158D01*
X74500001Y-128845843D02*
G75*
G02X74450516Y-129062720I-500000J1D01*
G01*
X75153289Y-129711297D02*
G75*
G02X74450516Y-129062720I-252258J431700D01*
G01*
X75153289Y-129711298D02*
G75*
G02X75405547Y-129642999I252258J-431701D01*
G01*
X76994452Y-129642999D02*
X75405547Y-129642999D01*
X76994453Y-129643000D02*
G75*
G02X77246711Y-129711299I-1J-499999D01*
G01*
X77949484Y-129062720D02*
G75*
G02X77246711Y-129711299I-450515J-216878D01*
G01*
X77949484Y-129062720D02*
G75*
G02X77899999Y-128845842I450515J216878D01*
G01*
X77899999Y-127440158D02*
X77899999Y-128845842D01*
X77899999Y-127440157D02*
G75*
G02X77949484Y-127223280I500000J-1D01*
G01*
X77246711Y-126574703D02*
G75*
G02X77949484Y-127223280I252258J-431700D01*
G01*
X24922710Y-126574701D02*
G75*
G02X24670452Y-126643000I-252258J431701D01*
G01*
X23081548Y-126643000D02*
X24670452Y-126643000D01*
X23081548Y-126643000D02*
G75*
G02X22829289Y-126574701I0J500000D01*
G01*
X22126516Y-127223281D02*
G75*
G02X22829289Y-126574701I450515J216879D01*
G01*
X22126516Y-127223280D02*
G75*
G02X22176001Y-127440158I-450515J-216878D01*
G01*
X22176001Y-128845842D02*
X22176001Y-127440158D01*
X22176001Y-128845843D02*
G75*
G02X22126516Y-129062720I-500000J1D01*
G01*
X22829289Y-129711297D02*
G75*
G02X22126516Y-129062720I-252258J431700D01*
G01*
X22829289Y-129711298D02*
G75*
G02X23081547Y-129642999I252258J-431701D01*
G01*
X24670452Y-129642999D02*
X23081547Y-129642999D01*
X24670453Y-129643000D02*
G75*
G02X24922711Y-129711299I-1J-499999D01*
G01*
X25625484Y-129062720D02*
G75*
G02X24922711Y-129711299I-450515J-216878D01*
G01*
X25625484Y-129062720D02*
G75*
G02X25575999Y-128845842I450515J216878D01*
G01*
X25575999Y-127440158D02*
X25575999Y-128845842D01*
X25575999Y-127440157D02*
G75*
G02X25625484Y-127223280I500000J-1D01*
G01*
X24922711Y-126574703D02*
G75*
G02X25625484Y-127223280I252258J-431700D01*
G01*
X346679290Y-110661299D02*
G75*
G02X346931548Y-110593000I252258J-431701D01*
G01*
X348520452Y-110593000D02*
X346931548Y-110593000D01*
X348520452Y-110593000D02*
G75*
G02X348772711Y-110661299I0J-500000D01*
G01*
X349475484Y-110012719D02*
G75*
G02X348772711Y-110661299I-450515J-216879D01*
G01*
X349475484Y-110012720D02*
G75*
G02X349425999Y-109795842I450515J216878D01*
G01*
X349425999Y-108390158D02*
X349425999Y-109795842D01*
X349425999Y-108390157D02*
G75*
G02X349475484Y-108173280I500000J-1D01*
G01*
X348772711Y-107524703D02*
G75*
G02X349475484Y-108173280I252258J-431700D01*
G01*
X348772711Y-107524702D02*
G75*
G02X348520453Y-107593001I-252258J431701D01*
G01*
X346931548Y-107593001D02*
X348520453Y-107593001D01*
X346931547Y-107593000D02*
G75*
G02X346679289Y-107524701I1J499999D01*
G01*
X345976516Y-108173280D02*
G75*
G02X346679289Y-107524701I450515J216878D01*
G01*
X345976516Y-108173280D02*
G75*
G02X346026001Y-108390158I-450515J-216878D01*
G01*
X346026001Y-109795842D02*
X346026001Y-108390158D01*
X346026001Y-109795843D02*
G75*
G02X345976516Y-110012720I-500000J1D01*
G01*
X346679289Y-110661297D02*
G75*
G02X345976516Y-110012720I-252258J431700D01*
G01*
X275178290Y-110661299D02*
G75*
G02X275430548Y-110593000I252258J-431701D01*
G01*
X277019452Y-110593000D02*
X275430548Y-110593000D01*
X277019452Y-110593000D02*
G75*
G02X277271711Y-110661299I0J-500000D01*
G01*
X277974484Y-110012719D02*
G75*
G02X277271711Y-110661299I-450515J-216879D01*
G01*
X277974484Y-110012720D02*
G75*
G02X277924999Y-109795842I450515J216878D01*
G01*
X277924999Y-108390158D02*
X277924999Y-109795842D01*
X277924999Y-108390157D02*
G75*
G02X277974484Y-108173280I500000J-1D01*
G01*
X277271711Y-107524703D02*
G75*
G02X277974484Y-108173280I252258J-431700D01*
G01*
X277271711Y-107524702D02*
G75*
G02X277019453Y-107593001I-252258J431701D01*
G01*
X275430548Y-107593001D02*
X277019453Y-107593001D01*
X275430547Y-107593000D02*
G75*
G02X275178289Y-107524701I1J499999D01*
G01*
X274475516Y-108173280D02*
G75*
G02X275178289Y-107524701I450515J216878D01*
G01*
X274475516Y-108173280D02*
G75*
G02X274525001Y-108390158I-450515J-216878D01*
G01*
X274525001Y-109795842D02*
X274525001Y-108390158D01*
X274525001Y-109795843D02*
G75*
G02X274475516Y-110012720I-500000J1D01*
G01*
X275178289Y-110661297D02*
G75*
G02X274475516Y-110012720I-252258J431700D01*
G01*
X256128290Y-110788299D02*
G75*
G02X256380548Y-110720000I252258J-431701D01*
G01*
X257969452Y-110720000D02*
X256380548Y-110720000D01*
X257969452Y-110720000D02*
G75*
G02X258221711Y-110788299I0J-500000D01*
G01*
X258924484Y-110139719D02*
G75*
G02X258221711Y-110788299I-450515J-216879D01*
G01*
X258924484Y-110139720D02*
G75*
G02X258874999Y-109922842I450515J216878D01*
G01*
X258874999Y-108517158D02*
X258874999Y-109922842D01*
X258874999Y-108517157D02*
G75*
G02X258924484Y-108300280I500000J-1D01*
G01*
X258221711Y-107651703D02*
G75*
G02X258924484Y-108300280I252258J-431700D01*
G01*
X258221711Y-107651702D02*
G75*
G02X257969453Y-107720001I-252258J431701D01*
G01*
X256380548Y-107720001D02*
X257969453Y-107720001D01*
X256380547Y-107720000D02*
G75*
G02X256128289Y-107651701I1J499999D01*
G01*
X255425516Y-108300280D02*
G75*
G02X256128289Y-107651701I450515J216878D01*
G01*
X255425516Y-108300280D02*
G75*
G02X255475001Y-108517158I-450515J-216878D01*
G01*
X255475001Y-109922842D02*
X255475001Y-108517158D01*
X255475001Y-109922843D02*
G75*
G02X255425516Y-110139720I-500000J1D01*
G01*
X256128289Y-110788297D02*
G75*
G02X255425516Y-110139720I-252258J431700D01*
G01*
X237078290Y-110661299D02*
G75*
G02X237330548Y-110593000I252258J-431701D01*
G01*
X238919452Y-110593000D02*
X237330548Y-110593000D01*
X238919452Y-110593000D02*
G75*
G02X239171711Y-110661299I0J-500000D01*
G01*
X239874484Y-110012719D02*
G75*
G02X239171711Y-110661299I-450515J-216879D01*
G01*
X239874484Y-110012720D02*
G75*
G02X239824999Y-109795842I450515J216878D01*
G01*
X239824999Y-108390158D02*
X239824999Y-109795842D01*
X239824999Y-108390157D02*
G75*
G02X239874484Y-108173280I500000J-1D01*
G01*
X239171711Y-107524703D02*
G75*
G02X239874484Y-108173280I252258J-431700D01*
G01*
X239171711Y-107524702D02*
G75*
G02X238919453Y-107593001I-252258J431701D01*
G01*
X237330548Y-107593001D02*
X238919453Y-107593001D01*
X237330547Y-107593000D02*
G75*
G02X237078289Y-107524701I1J499999D01*
G01*
X236375516Y-108173280D02*
G75*
G02X237078289Y-107524701I450515J216878D01*
G01*
X236375516Y-108173280D02*
G75*
G02X236425001Y-108390158I-450515J-216878D01*
G01*
X236425001Y-109795842D02*
X236425001Y-108390158D01*
X236425001Y-109795843D02*
G75*
G02X236375516Y-110012720I-500000J1D01*
G01*
X237078289Y-110661297D02*
G75*
G02X236375516Y-110012720I-252258J431700D01*
G01*
X218028290Y-110661299D02*
G75*
G02X218280548Y-110593000I252258J-431701D01*
G01*
X219869452Y-110593000D02*
X218280548Y-110593000D01*
X219869452Y-110593000D02*
G75*
G02X220121711Y-110661299I0J-500000D01*
G01*
X220824484Y-110012719D02*
G75*
G02X220121711Y-110661299I-450515J-216879D01*
G01*
X220824484Y-110012720D02*
G75*
G02X220774999Y-109795842I450515J216878D01*
G01*
X220774999Y-108390158D02*
X220774999Y-109795842D01*
X220774999Y-108390157D02*
G75*
G02X220824484Y-108173280I500000J-1D01*
G01*
X220121711Y-107524703D02*
G75*
G02X220824484Y-108173280I252258J-431700D01*
G01*
X220121711Y-107524702D02*
G75*
G02X219869453Y-107593001I-252258J431701D01*
G01*
X218280548Y-107593001D02*
X219869453Y-107593001D01*
X218280547Y-107593000D02*
G75*
G02X218028289Y-107524701I1J499999D01*
G01*
X217325516Y-108173280D02*
G75*
G02X218028289Y-107524701I450515J216878D01*
G01*
X217325516Y-108173280D02*
G75*
G02X217375001Y-108390158I-450515J-216878D01*
G01*
X217375001Y-109795842D02*
X217375001Y-108390158D01*
X217375001Y-109795843D02*
G75*
G02X217325516Y-110012720I-500000J1D01*
G01*
X218028289Y-110661297D02*
G75*
G02X217325516Y-110012720I-252258J431700D01*
G01*
X198978290Y-110788299D02*
G75*
G02X199230548Y-110720000I252258J-431701D01*
G01*
X200819452Y-110720000D02*
X199230548Y-110720000D01*
X200819452Y-110720000D02*
G75*
G02X201071711Y-110788299I0J-500000D01*
G01*
X201774484Y-110139719D02*
G75*
G02X201071711Y-110788299I-450515J-216879D01*
G01*
X201774484Y-110139720D02*
G75*
G02X201724999Y-109922842I450515J216878D01*
G01*
X201724999Y-108517158D02*
X201724999Y-109922842D01*
X201724999Y-108517157D02*
G75*
G02X201774484Y-108300280I500000J-1D01*
G01*
X201071711Y-107651703D02*
G75*
G02X201774484Y-108300280I252258J-431700D01*
G01*
X201071711Y-107651702D02*
G75*
G02X200819453Y-107720001I-252258J431701D01*
G01*
X199230548Y-107720001D02*
X200819453Y-107720001D01*
X199230547Y-107720000D02*
G75*
G02X198978289Y-107651701I1J499999D01*
G01*
X198275516Y-108300280D02*
G75*
G02X198978289Y-107651701I450515J216878D01*
G01*
X198275516Y-108300280D02*
G75*
G02X198325001Y-108517158I-450515J-216878D01*
G01*
X198325001Y-109922842D02*
X198325001Y-108517158D01*
X198325001Y-109922843D02*
G75*
G02X198275516Y-110139720I-500000J1D01*
G01*
X198978289Y-110788297D02*
G75*
G02X198275516Y-110139720I-252258J431700D01*
G01*
X179928290Y-110788299D02*
G75*
G02X180180548Y-110720000I252258J-431701D01*
G01*
X181769452Y-110720000D02*
X180180548Y-110720000D01*
X181769452Y-110720000D02*
G75*
G02X182021711Y-110788299I0J-500000D01*
G01*
X182724484Y-110139719D02*
G75*
G02X182021711Y-110788299I-450515J-216879D01*
G01*
X182724484Y-110139720D02*
G75*
G02X182674999Y-109922842I450515J216878D01*
G01*
X182674999Y-108517158D02*
X182674999Y-109922842D01*
X182674999Y-108517157D02*
G75*
G02X182724484Y-108300280I500000J-1D01*
G01*
X182021711Y-107651703D02*
G75*
G02X182724484Y-108300280I252258J-431700D01*
G01*
X182021711Y-107651702D02*
G75*
G02X181769453Y-107720001I-252258J431701D01*
G01*
X180180548Y-107720001D02*
X181769453Y-107720001D01*
X180180547Y-107720000D02*
G75*
G02X179928289Y-107651701I1J499999D01*
G01*
X179225516Y-108300280D02*
G75*
G02X179928289Y-107651701I450515J216878D01*
G01*
X179225516Y-108300280D02*
G75*
G02X179275001Y-108517158I-450515J-216878D01*
G01*
X179275001Y-109922842D02*
X179275001Y-108517158D01*
X179275001Y-109922843D02*
G75*
G02X179225516Y-110139720I-500000J1D01*
G01*
X179928289Y-110788297D02*
G75*
G02X179225516Y-110139720I-252258J431700D01*
G01*
X160878290Y-110661299D02*
G75*
G02X161130548Y-110593000I252258J-431701D01*
G01*
X162719452Y-110593000D02*
X161130548Y-110593000D01*
X162719452Y-110593000D02*
G75*
G02X162971711Y-110661299I0J-500000D01*
G01*
X163674484Y-110012719D02*
G75*
G02X162971711Y-110661299I-450515J-216879D01*
G01*
X163674484Y-110012720D02*
G75*
G02X163624999Y-109795842I450515J216878D01*
G01*
X163624999Y-108390158D02*
X163624999Y-109795842D01*
X163624999Y-108390157D02*
G75*
G02X163674484Y-108173280I500000J-1D01*
G01*
X162971711Y-107524703D02*
G75*
G02X163674484Y-108173280I252258J-431700D01*
G01*
X162971711Y-107524702D02*
G75*
G02X162719453Y-107593001I-252258J431701D01*
G01*
X161130548Y-107593001D02*
X162719453Y-107593001D01*
X161130547Y-107593000D02*
G75*
G02X160878289Y-107524701I1J499999D01*
G01*
X160175516Y-108173280D02*
G75*
G02X160878289Y-107524701I450515J216878D01*
G01*
X160175516Y-108173280D02*
G75*
G02X160225001Y-108390158I-450515J-216878D01*
G01*
X160225001Y-109795842D02*
X160225001Y-108390158D01*
X160225001Y-109795843D02*
G75*
G02X160175516Y-110012720I-500000J1D01*
G01*
X160878289Y-110661297D02*
G75*
G02X160175516Y-110012720I-252258J431700D01*
G01*
X141828290Y-110661299D02*
G75*
G02X142080548Y-110593000I252258J-431701D01*
G01*
X143669452Y-110593000D02*
X142080548Y-110593000D01*
X143669452Y-110593000D02*
G75*
G02X143921711Y-110661299I0J-500000D01*
G01*
X144624484Y-110012719D02*
G75*
G02X143921711Y-110661299I-450515J-216879D01*
G01*
X144624484Y-110012720D02*
G75*
G02X144574999Y-109795842I450515J216878D01*
G01*
X144574999Y-108390158D02*
X144574999Y-109795842D01*
X144574999Y-108390157D02*
G75*
G02X144624484Y-108173280I500000J-1D01*
G01*
X143921711Y-107524703D02*
G75*
G02X144624484Y-108173280I252258J-431700D01*
G01*
X143921711Y-107524702D02*
G75*
G02X143669453Y-107593001I-252258J431701D01*
G01*
X142080548Y-107593001D02*
X143669453Y-107593001D01*
X142080547Y-107593000D02*
G75*
G02X141828289Y-107524701I1J499999D01*
G01*
X141125516Y-108173280D02*
G75*
G02X141828289Y-107524701I450515J216878D01*
G01*
X141125516Y-108173280D02*
G75*
G02X141175001Y-108390158I-450515J-216878D01*
G01*
X141175001Y-109795842D02*
X141175001Y-108390158D01*
X141175001Y-109795843D02*
G75*
G02X141125516Y-110012720I-500000J1D01*
G01*
X141828289Y-110661297D02*
G75*
G02X141125516Y-110012720I-252258J431700D01*
G01*
X122778290Y-110661299D02*
G75*
G02X123030548Y-110593000I252258J-431701D01*
G01*
X124619452Y-110593000D02*
X123030548Y-110593000D01*
X124619452Y-110593000D02*
G75*
G02X124871711Y-110661299I0J-500000D01*
G01*
X125574484Y-110012719D02*
G75*
G02X124871711Y-110661299I-450515J-216879D01*
G01*
X125574484Y-110012720D02*
G75*
G02X125524999Y-109795842I450515J216878D01*
G01*
X125524999Y-108390158D02*
X125524999Y-109795842D01*
X125524999Y-108390157D02*
G75*
G02X125574484Y-108173280I500000J-1D01*
G01*
X124871711Y-107524703D02*
G75*
G02X125574484Y-108173280I252258J-431700D01*
G01*
X124871711Y-107524702D02*
G75*
G02X124619453Y-107593001I-252258J431701D01*
G01*
X123030548Y-107593001D02*
X124619453Y-107593001D01*
X123030547Y-107593000D02*
G75*
G02X122778289Y-107524701I1J499999D01*
G01*
X122075516Y-108173280D02*
G75*
G02X122778289Y-107524701I450515J216878D01*
G01*
X122075516Y-108173280D02*
G75*
G02X122125001Y-108390158I-450515J-216878D01*
G01*
X122125001Y-109795842D02*
X122125001Y-108390158D01*
X122125001Y-109795843D02*
G75*
G02X122075516Y-110012720I-500000J1D01*
G01*
X122778289Y-110661297D02*
G75*
G02X122075516Y-110012720I-252258J431700D01*
G01*
X103728290Y-110661299D02*
G75*
G02X103980548Y-110593000I252258J-431701D01*
G01*
X105569452Y-110593000D02*
X103980548Y-110593000D01*
X105569452Y-110593000D02*
G75*
G02X105821711Y-110661299I0J-500000D01*
G01*
X106524484Y-110012719D02*
G75*
G02X105821711Y-110661299I-450515J-216879D01*
G01*
X106524484Y-110012720D02*
G75*
G02X106474999Y-109795842I450515J216878D01*
G01*
X106474999Y-108390158D02*
X106474999Y-109795842D01*
X106474999Y-108390157D02*
G75*
G02X106524484Y-108173280I500000J-1D01*
G01*
X105821711Y-107524703D02*
G75*
G02X106524484Y-108173280I252258J-431700D01*
G01*
X105821711Y-107524702D02*
G75*
G02X105569453Y-107593001I-252258J431701D01*
G01*
X103980548Y-107593001D02*
X105569453Y-107593001D01*
X103980547Y-107593000D02*
G75*
G02X103728289Y-107524701I1J499999D01*
G01*
X103025516Y-108173280D02*
G75*
G02X103728289Y-107524701I450515J216878D01*
G01*
X103025516Y-108173280D02*
G75*
G02X103075001Y-108390158I-450515J-216878D01*
G01*
X103075001Y-109795842D02*
X103075001Y-108390158D01*
X103075001Y-109795843D02*
G75*
G02X103025516Y-110012720I-500000J1D01*
G01*
X103728289Y-110661297D02*
G75*
G02X103025516Y-110012720I-252258J431700D01*
G01*
X84678290Y-110788299D02*
G75*
G02X84930548Y-110720000I252258J-431701D01*
G01*
X86519452Y-110720000D02*
X84930548Y-110720000D01*
X86519452Y-110720000D02*
G75*
G02X86771711Y-110788299I0J-500000D01*
G01*
X87474484Y-110139719D02*
G75*
G02X86771711Y-110788299I-450515J-216879D01*
G01*
X87474484Y-110139720D02*
G75*
G02X87424999Y-109922842I450515J216878D01*
G01*
X87424999Y-108517158D02*
X87424999Y-109922842D01*
X87424999Y-108517157D02*
G75*
G02X87474484Y-108300280I500000J-1D01*
G01*
X86771711Y-107651703D02*
G75*
G02X87474484Y-108300280I252258J-431700D01*
G01*
X86771711Y-107651702D02*
G75*
G02X86519453Y-107720001I-252258J431701D01*
G01*
X84930548Y-107720001D02*
X86519453Y-107720001D01*
X84930547Y-107720000D02*
G75*
G02X84678289Y-107651701I1J499999D01*
G01*
X83975516Y-108300280D02*
G75*
G02X84678289Y-107651701I450515J216878D01*
G01*
X83975516Y-108300280D02*
G75*
G02X84025001Y-108517158I-450515J-216878D01*
G01*
X84025001Y-109922842D02*
X84025001Y-108517158D01*
X84025001Y-109922843D02*
G75*
G02X83975516Y-110139720I-500000J1D01*
G01*
X84678289Y-110788297D02*
G75*
G02X83975516Y-110139720I-252258J431700D01*
G01*
X65628290Y-110661299D02*
G75*
G02X65880548Y-110593000I252258J-431701D01*
G01*
X67469452Y-110593000D02*
X65880548Y-110593000D01*
X67469452Y-110593000D02*
G75*
G02X67721711Y-110661299I0J-500000D01*
G01*
X68424484Y-110012719D02*
G75*
G02X67721711Y-110661299I-450515J-216879D01*
G01*
X68424484Y-110012720D02*
G75*
G02X68374999Y-109795842I450515J216878D01*
G01*
X68374999Y-108390158D02*
X68374999Y-109795842D01*
X68374999Y-108390157D02*
G75*
G02X68424484Y-108173280I500000J-1D01*
G01*
X67721711Y-107524703D02*
G75*
G02X68424484Y-108173280I252258J-431700D01*
G01*
X67721711Y-107524702D02*
G75*
G02X67469453Y-107593001I-252258J431701D01*
G01*
X65880548Y-107593001D02*
X67469453Y-107593001D01*
X65880547Y-107593000D02*
G75*
G02X65628289Y-107524701I1J499999D01*
G01*
X64925516Y-108173280D02*
G75*
G02X65628289Y-107524701I450515J216878D01*
G01*
X64925516Y-108173280D02*
G75*
G02X64975001Y-108390158I-450515J-216878D01*
G01*
X64975001Y-109795842D02*
X64975001Y-108390158D01*
X64975001Y-109795843D02*
G75*
G02X64925516Y-110012720I-500000J1D01*
G01*
X65628289Y-110661297D02*
G75*
G02X64925516Y-110012720I-252258J431700D01*
G01*
X46578290Y-110788299D02*
G75*
G02X46830548Y-110720000I252258J-431701D01*
G01*
X48419452Y-110720000D02*
X46830548Y-110720000D01*
X48419452Y-110720000D02*
G75*
G02X48671711Y-110788299I0J-500000D01*
G01*
X49374484Y-110139719D02*
G75*
G02X48671711Y-110788299I-450515J-216879D01*
G01*
X49374484Y-110139720D02*
G75*
G02X49324999Y-109922842I450515J216878D01*
G01*
X49324999Y-108517158D02*
X49324999Y-109922842D01*
X49324999Y-108517157D02*
G75*
G02X49374484Y-108300280I500000J-1D01*
G01*
X48671711Y-107651703D02*
G75*
G02X49374484Y-108300280I252258J-431700D01*
G01*
X48671711Y-107651702D02*
G75*
G02X48419453Y-107720001I-252258J431701D01*
G01*
X46830548Y-107720001D02*
X48419453Y-107720001D01*
X46830547Y-107720000D02*
G75*
G02X46578289Y-107651701I1J499999D01*
G01*
X45875516Y-108300280D02*
G75*
G02X46578289Y-107651701I450515J216878D01*
G01*
X45875516Y-108300280D02*
G75*
G02X45925001Y-108517158I-450515J-216878D01*
G01*
X45925001Y-109922842D02*
X45925001Y-108517158D01*
X45925001Y-109922843D02*
G75*
G02X45875516Y-110139720I-500000J1D01*
G01*
X46578289Y-110788297D02*
G75*
G02X45875516Y-110139720I-252258J431700D01*
G01*
X22829290Y-110788299D02*
G75*
G02X23081548Y-110720000I252258J-431701D01*
G01*
X24670452Y-110720000D02*
X23081548Y-110720000D01*
X24670452Y-110720000D02*
G75*
G02X24922711Y-110788299I0J-500000D01*
G01*
X25625484Y-110139719D02*
G75*
G02X24922711Y-110788299I-450515J-216879D01*
G01*
X25625484Y-110139720D02*
G75*
G02X25575999Y-109922842I450515J216878D01*
G01*
X25575999Y-108517158D02*
X25575999Y-109922842D01*
X25575999Y-108517157D02*
G75*
G02X25625484Y-108300280I500000J-1D01*
G01*
X24922711Y-107651703D02*
G75*
G02X25625484Y-108300280I252258J-431700D01*
G01*
X24922711Y-107651702D02*
G75*
G02X24670453Y-107720001I-252258J431701D01*
G01*
X23081548Y-107720001D02*
X24670453Y-107720001D01*
X23081547Y-107720000D02*
G75*
G02X22829289Y-107651701I1J499999D01*
G01*
X22126516Y-108300280D02*
G75*
G02X22829289Y-107651701I450515J216878D01*
G01*
X22126516Y-108300280D02*
G75*
G02X22176001Y-108517158I-450515J-216878D01*
G01*
X22176001Y-109922842D02*
X22176001Y-108517158D01*
X22176001Y-109922843D02*
G75*
G02X22126516Y-110139720I-500000J1D01*
G01*
X22829289Y-110788297D02*
G75*
G02X22126516Y-110139720I-252258J431700D01*
G01*
X315371710Y-83775701D02*
G75*
G02X315119452Y-83844000I-252258J431701D01*
G01*
X313530548Y-83844000D02*
X315119452Y-83844000D01*
X313530548Y-83844000D02*
G75*
G02X313278289Y-83775701I0J500000D01*
G01*
X312575516Y-84424281D02*
G75*
G02X313278289Y-83775701I450515J216879D01*
G01*
X312575516Y-84424280D02*
G75*
G02X312625001Y-84641158I-450515J-216878D01*
G01*
X312625001Y-86046842D02*
X312625001Y-84641158D01*
X312625001Y-86046843D02*
G75*
G02X312575516Y-86263720I-500000J1D01*
G01*
X313278289Y-86912297D02*
G75*
G02X312575516Y-86263720I-252258J431700D01*
G01*
X313278289Y-86912298D02*
G75*
G02X313530547Y-86843999I252258J-431701D01*
G01*
X315119452Y-86843999D02*
X313530547Y-86843999D01*
X315119453Y-86844000D02*
G75*
G02X315371711Y-86912299I-1J-499999D01*
G01*
X316074484Y-86263720D02*
G75*
G02X315371711Y-86912299I-450515J-216878D01*
G01*
X316074484Y-86263720D02*
G75*
G02X316024999Y-86046842I450515J216878D01*
G01*
X316024999Y-84641158D02*
X316024999Y-86046842D01*
X316024999Y-84641157D02*
G75*
G02X316074484Y-84424280I500000J-1D01*
G01*
X315371711Y-83775703D02*
G75*
G02X316074484Y-84424280I252258J-431700D01*
G01*
X291622710Y-83775701D02*
G75*
G02X291370452Y-83844000I-252258J431701D01*
G01*
X289781548Y-83844000D02*
X291370452Y-83844000D01*
X289781548Y-83844000D02*
G75*
G02X289529289Y-83775701I0J500000D01*
G01*
X288826516Y-84424281D02*
G75*
G02X289529289Y-83775701I450515J216879D01*
G01*
X288826516Y-84424280D02*
G75*
G02X288876001Y-84641158I-450515J-216878D01*
G01*
X288876001Y-86046842D02*
X288876001Y-84641158D01*
X288876001Y-86046843D02*
G75*
G02X288826516Y-86263720I-500000J1D01*
G01*
X289529289Y-86912297D02*
G75*
G02X288826516Y-86263720I-252258J431700D01*
G01*
X289529289Y-86912298D02*
G75*
G02X289781547Y-86843999I252258J-431701D01*
G01*
X291370452Y-86843999D02*
X289781547Y-86843999D01*
X291370453Y-86844000D02*
G75*
G02X291622711Y-86912299I-1J-499999D01*
G01*
X292325484Y-86263720D02*
G75*
G02X291622711Y-86912299I-450515J-216878D01*
G01*
X292325484Y-86263720D02*
G75*
G02X292275999Y-86046842I450515J216878D01*
G01*
X292275999Y-84641158D02*
X292275999Y-86046842D01*
X292275999Y-84641157D02*
G75*
G02X292325484Y-84424280I500000J-1D01*
G01*
X291622711Y-83775703D02*
G75*
G02X292325484Y-84424280I252258J-431700D01*
G01*
X272572710Y-83775701D02*
G75*
G02X272320452Y-83844000I-252258J431701D01*
G01*
X270731548Y-83844000D02*
X272320452Y-83844000D01*
X270731548Y-83844000D02*
G75*
G02X270479289Y-83775701I0J500000D01*
G01*
X269776516Y-84424281D02*
G75*
G02X270479289Y-83775701I450515J216879D01*
G01*
X269776516Y-84424280D02*
G75*
G02X269826001Y-84641158I-450515J-216878D01*
G01*
X269826001Y-86046842D02*
X269826001Y-84641158D01*
X269826001Y-86046843D02*
G75*
G02X269776516Y-86263720I-500000J1D01*
G01*
X270479289Y-86912297D02*
G75*
G02X269776516Y-86263720I-252258J431700D01*
G01*
X270479289Y-86912298D02*
G75*
G02X270731547Y-86843999I252258J-431701D01*
G01*
X272320452Y-86843999D02*
X270731547Y-86843999D01*
X272320453Y-86844000D02*
G75*
G02X272572711Y-86912299I-1J-499999D01*
G01*
X273275484Y-86263720D02*
G75*
G02X272572711Y-86912299I-450515J-216878D01*
G01*
X273275484Y-86263720D02*
G75*
G02X273225999Y-86046842I450515J216878D01*
G01*
X273225999Y-84641158D02*
X273225999Y-86046842D01*
X273225999Y-84641157D02*
G75*
G02X273275484Y-84424280I500000J-1D01*
G01*
X272572711Y-83775703D02*
G75*
G02X273275484Y-84424280I252258J-431700D01*
G01*
X253395710Y-83775701D02*
G75*
G02X253143452Y-83844000I-252258J431701D01*
G01*
X251554548Y-83844000D02*
X253143452Y-83844000D01*
X251554548Y-83844000D02*
G75*
G02X251302289Y-83775701I0J500000D01*
G01*
X250599516Y-84424281D02*
G75*
G02X251302289Y-83775701I450515J216879D01*
G01*
X250599516Y-84424280D02*
G75*
G02X250649001Y-84641158I-450515J-216878D01*
G01*
X250649001Y-86046842D02*
X250649001Y-84641158D01*
X250649001Y-86046843D02*
G75*
G02X250599516Y-86263720I-500000J1D01*
G01*
X251302289Y-86912297D02*
G75*
G02X250599516Y-86263720I-252258J431700D01*
G01*
X251302289Y-86912298D02*
G75*
G02X251554547Y-86843999I252258J-431701D01*
G01*
X253143452Y-86843999D02*
X251554547Y-86843999D01*
X253143453Y-86844000D02*
G75*
G02X253395711Y-86912299I-1J-499999D01*
G01*
X254098484Y-86263720D02*
G75*
G02X253395711Y-86912299I-450515J-216878D01*
G01*
X254098484Y-86263720D02*
G75*
G02X254048999Y-86046842I450515J216878D01*
G01*
X254048999Y-84641158D02*
X254048999Y-86046842D01*
X254048999Y-84641157D02*
G75*
G02X254098484Y-84424280I500000J-1D01*
G01*
X253395711Y-83775703D02*
G75*
G02X254098484Y-84424280I252258J-431700D01*
G01*
X234472710Y-83775701D02*
G75*
G02X234220452Y-83844000I-252258J431701D01*
G01*
X232631548Y-83844000D02*
X234220452Y-83844000D01*
X232631548Y-83844000D02*
G75*
G02X232379289Y-83775701I0J500000D01*
G01*
X231676516Y-84424281D02*
G75*
G02X232379289Y-83775701I450515J216879D01*
G01*
X231676516Y-84424280D02*
G75*
G02X231726001Y-84641158I-450515J-216878D01*
G01*
X231726001Y-86046842D02*
X231726001Y-84641158D01*
X231726001Y-86046843D02*
G75*
G02X231676516Y-86263720I-500000J1D01*
G01*
X232379289Y-86912297D02*
G75*
G02X231676516Y-86263720I-252258J431700D01*
G01*
X232379289Y-86912298D02*
G75*
G02X232631547Y-86843999I252258J-431701D01*
G01*
X234220452Y-86843999D02*
X232631547Y-86843999D01*
X234220453Y-86844000D02*
G75*
G02X234472711Y-86912299I-1J-499999D01*
G01*
X235175484Y-86263720D02*
G75*
G02X234472711Y-86912299I-450515J-216878D01*
G01*
X235175484Y-86263720D02*
G75*
G02X235125999Y-86046842I450515J216878D01*
G01*
X235125999Y-84641158D02*
X235125999Y-86046842D01*
X235125999Y-84641157D02*
G75*
G02X235175484Y-84424280I500000J-1D01*
G01*
X234472711Y-83775703D02*
G75*
G02X235175484Y-84424280I252258J-431700D01*
G01*
X210596710Y-83775701D02*
G75*
G02X210344452Y-83844000I-252258J431701D01*
G01*
X208755548Y-83844000D02*
X210344452Y-83844000D01*
X208755548Y-83844000D02*
G75*
G02X208503289Y-83775701I0J500000D01*
G01*
X207800516Y-84424281D02*
G75*
G02X208503289Y-83775701I450515J216879D01*
G01*
X207800516Y-84424280D02*
G75*
G02X207850001Y-84641158I-450515J-216878D01*
G01*
X207850001Y-86046842D02*
X207850001Y-84641158D01*
X207850001Y-86046843D02*
G75*
G02X207800516Y-86263720I-500000J1D01*
G01*
X208503289Y-86912297D02*
G75*
G02X207800516Y-86263720I-252258J431700D01*
G01*
X208503289Y-86912298D02*
G75*
G02X208755547Y-86843999I252258J-431701D01*
G01*
X210344452Y-86843999D02*
X208755547Y-86843999D01*
X210344453Y-86844000D02*
G75*
G02X210596711Y-86912299I-1J-499999D01*
G01*
X211299484Y-86263720D02*
G75*
G02X210596711Y-86912299I-450515J-216878D01*
G01*
X211299484Y-86263720D02*
G75*
G02X211249999Y-86046842I450515J216878D01*
G01*
X211249999Y-84641158D02*
X211249999Y-86046842D01*
X211249999Y-84641157D02*
G75*
G02X211299484Y-84424280I500000J-1D01*
G01*
X210596711Y-83775703D02*
G75*
G02X211299484Y-84424280I252258J-431700D01*
G01*
X191673710Y-84283701D02*
G75*
G02X191421452Y-84352000I-252258J431701D01*
G01*
X189832548Y-84352000D02*
X191421452Y-84352000D01*
X189832548Y-84352000D02*
G75*
G02X189580289Y-84283701I0J500000D01*
G01*
X188877516Y-84932281D02*
G75*
G02X189580289Y-84283701I450515J216879D01*
G01*
X188877516Y-84932280D02*
G75*
G02X188927001Y-85149158I-450515J-216878D01*
G01*
X188927001Y-86554842D02*
X188927001Y-85149158D01*
X188927001Y-86554843D02*
G75*
G02X188877516Y-86771720I-500000J1D01*
G01*
X189580289Y-87420297D02*
G75*
G02X188877516Y-86771720I-252258J431700D01*
G01*
X189580289Y-87420298D02*
G75*
G02X189832547Y-87351999I252258J-431701D01*
G01*
X191421452Y-87351999D02*
X189832547Y-87351999D01*
X191421453Y-87352000D02*
G75*
G02X191673711Y-87420299I-1J-499999D01*
G01*
X192376484Y-86771720D02*
G75*
G02X191673711Y-87420299I-450515J-216878D01*
G01*
X192376484Y-86771720D02*
G75*
G02X192326999Y-86554842I450515J216878D01*
G01*
X192326999Y-85149158D02*
X192326999Y-86554842D01*
X192326999Y-85149157D02*
G75*
G02X192376484Y-84932280I500000J-1D01*
G01*
X191673711Y-84283703D02*
G75*
G02X192376484Y-84932280I252258J-431700D01*
G01*
X153446710Y-83775701D02*
G75*
G02X153194452Y-83844000I-252258J431701D01*
G01*
X151605548Y-83844000D02*
X153194452Y-83844000D01*
X151605548Y-83844000D02*
G75*
G02X151353289Y-83775701I0J500000D01*
G01*
X150650516Y-84424281D02*
G75*
G02X151353289Y-83775701I450515J216879D01*
G01*
X150650516Y-84424280D02*
G75*
G02X150700001Y-84641158I-450515J-216878D01*
G01*
X150700001Y-86046842D02*
X150700001Y-84641158D01*
X150700001Y-86046843D02*
G75*
G02X150650516Y-86263720I-500000J1D01*
G01*
X151353289Y-86912297D02*
G75*
G02X150650516Y-86263720I-252258J431700D01*
G01*
X151353289Y-86912298D02*
G75*
G02X151605547Y-86843999I252258J-431701D01*
G01*
X153194452Y-86843999D02*
X151605547Y-86843999D01*
X153194453Y-86844000D02*
G75*
G02X153446711Y-86912299I-1J-499999D01*
G01*
X154149484Y-86263720D02*
G75*
G02X153446711Y-86912299I-450515J-216878D01*
G01*
X154149484Y-86263720D02*
G75*
G02X154099999Y-86046842I450515J216878D01*
G01*
X154099999Y-84641158D02*
X154099999Y-86046842D01*
X154099999Y-84641157D02*
G75*
G02X154149484Y-84424280I500000J-1D01*
G01*
X153446711Y-83775703D02*
G75*
G02X154149484Y-84424280I252258J-431700D01*
G01*
X129697710Y-83775701D02*
G75*
G02X129445452Y-83844000I-252258J431701D01*
G01*
X127856548Y-83844000D02*
X129445452Y-83844000D01*
X127856548Y-83844000D02*
G75*
G02X127604289Y-83775701I0J500000D01*
G01*
X126901516Y-84424281D02*
G75*
G02X127604289Y-83775701I450515J216879D01*
G01*
X126901516Y-84424280D02*
G75*
G02X126951001Y-84641158I-450515J-216878D01*
G01*
X126951001Y-86046842D02*
X126951001Y-84641158D01*
X126951001Y-86046843D02*
G75*
G02X126901516Y-86263720I-500000J1D01*
G01*
X127604289Y-86912297D02*
G75*
G02X126901516Y-86263720I-252258J431700D01*
G01*
X127604289Y-86912298D02*
G75*
G02X127856547Y-86843999I252258J-431701D01*
G01*
X129445452Y-86843999D02*
X127856547Y-86843999D01*
X129445453Y-86844000D02*
G75*
G02X129697711Y-86912299I-1J-499999D01*
G01*
X130400484Y-86263720D02*
G75*
G02X129697711Y-86912299I-450515J-216878D01*
G01*
X130400484Y-86263720D02*
G75*
G02X130350999Y-86046842I450515J216878D01*
G01*
X130350999Y-84641158D02*
X130350999Y-86046842D01*
X130350999Y-84641157D02*
G75*
G02X130400484Y-84424280I500000J-1D01*
G01*
X129697711Y-83775703D02*
G75*
G02X130400484Y-84424280I252258J-431700D01*
G01*
X110647710Y-83775701D02*
G75*
G02X110395452Y-83844000I-252258J431701D01*
G01*
X108806548Y-83844000D02*
X110395452Y-83844000D01*
X108806548Y-83844000D02*
G75*
G02X108554289Y-83775701I0J500000D01*
G01*
X107851516Y-84424281D02*
G75*
G02X108554289Y-83775701I450515J216879D01*
G01*
X107851516Y-84424280D02*
G75*
G02X107901001Y-84641158I-450515J-216878D01*
G01*
X107901001Y-86046842D02*
X107901001Y-84641158D01*
X107901001Y-86046843D02*
G75*
G02X107851516Y-86263720I-500000J1D01*
G01*
X108554289Y-86912297D02*
G75*
G02X107851516Y-86263720I-252258J431700D01*
G01*
X108554289Y-86912298D02*
G75*
G02X108806547Y-86843999I252258J-431701D01*
G01*
X110395452Y-86843999D02*
X108806547Y-86843999D01*
X110395453Y-86844000D02*
G75*
G02X110647711Y-86912299I-1J-499999D01*
G01*
X111350484Y-86263720D02*
G75*
G02X110647711Y-86912299I-450515J-216878D01*
G01*
X111350484Y-86263720D02*
G75*
G02X111300999Y-86046842I450515J216878D01*
G01*
X111300999Y-84641158D02*
X111300999Y-86046842D01*
X111300999Y-84641157D02*
G75*
G02X111350484Y-84424280I500000J-1D01*
G01*
X110647711Y-83775703D02*
G75*
G02X111350484Y-84424280I252258J-431700D01*
G01*
X91470710Y-83902701D02*
G75*
G02X91218452Y-83971000I-252258J431701D01*
G01*
X89629548Y-83971000D02*
X91218452Y-83971000D01*
X89629548Y-83971000D02*
G75*
G02X89377289Y-83902701I0J500000D01*
G01*
X88674516Y-84551281D02*
G75*
G02X89377289Y-83902701I450515J216879D01*
G01*
X88674516Y-84551280D02*
G75*
G02X88724001Y-84768158I-450515J-216878D01*
G01*
X88724001Y-86173842D02*
X88724001Y-84768158D01*
X88724001Y-86173843D02*
G75*
G02X88674516Y-86390720I-500000J1D01*
G01*
X89377289Y-87039297D02*
G75*
G02X88674516Y-86390720I-252258J431700D01*
G01*
X89377289Y-87039298D02*
G75*
G02X89629547Y-86970999I252258J-431701D01*
G01*
X91218452Y-86970999D02*
X89629547Y-86970999D01*
X91218453Y-86971000D02*
G75*
G02X91470711Y-87039299I-1J-499999D01*
G01*
X92173484Y-86390720D02*
G75*
G02X91470711Y-87039299I-450515J-216878D01*
G01*
X92173484Y-86390720D02*
G75*
G02X92123999Y-86173842I450515J216878D01*
G01*
X92123999Y-84768158D02*
X92123999Y-86173842D01*
X92123999Y-84768157D02*
G75*
G02X92173484Y-84551280I500000J-1D01*
G01*
X91470711Y-83902703D02*
G75*
G02X92173484Y-84551280I252258J-431700D01*
G01*
X72484210Y-83775701D02*
G75*
G02X72231952Y-83844000I-252258J431701D01*
G01*
X70643048Y-83844000D02*
X72231952Y-83844000D01*
X70643048Y-83844000D02*
G75*
G02X70390789Y-83775701I0J500000D01*
G01*
X69688016Y-84424281D02*
G75*
G02X70390789Y-83775701I450515J216879D01*
G01*
X69688016Y-84424280D02*
G75*
G02X69737501Y-84641158I-450515J-216878D01*
G01*
X69737501Y-86046842D02*
X69737501Y-84641158D01*
X69737501Y-86046843D02*
G75*
G02X69688016Y-86263720I-500000J1D01*
G01*
X70390789Y-86912297D02*
G75*
G02X69688016Y-86263720I-252258J431700D01*
G01*
X70390789Y-86912298D02*
G75*
G02X70643047Y-86843999I252258J-431701D01*
G01*
X72231952Y-86843999D02*
X70643047Y-86843999D01*
X72231953Y-86844000D02*
G75*
G02X72484211Y-86912299I-1J-499999D01*
G01*
X73186984Y-86263720D02*
G75*
G02X72484211Y-86912299I-450515J-216878D01*
G01*
X73186984Y-86263720D02*
G75*
G02X73137499Y-86046842I450515J216878D01*
G01*
X73137499Y-84641158D02*
X73137499Y-86046842D01*
X73137499Y-84641157D02*
G75*
G02X73186984Y-84424280I500000J-1D01*
G01*
X72484211Y-83775703D02*
G75*
G02X73186984Y-84424280I252258J-431700D01*
G01*
X48671710Y-83712201D02*
G75*
G02X48419452Y-83780500I-252258J431701D01*
G01*
X46830548Y-83780500D02*
X48419452Y-83780500D01*
X46830548Y-83780500D02*
G75*
G02X46578289Y-83712201I0J500000D01*
G01*
X45875516Y-84360781D02*
G75*
G02X46578289Y-83712201I450515J216879D01*
G01*
X45875516Y-84360780D02*
G75*
G02X45925001Y-84577658I-450515J-216878D01*
G01*
X45925001Y-85983342D02*
X45925001Y-84577658D01*
X45925001Y-85983343D02*
G75*
G02X45875516Y-86200220I-500000J1D01*
G01*
X46578289Y-86848797D02*
G75*
G02X45875516Y-86200220I-252258J431700D01*
G01*
X46578289Y-86848798D02*
G75*
G02X46830547Y-86780499I252258J-431701D01*
G01*
X48419452Y-86780499D02*
X46830547Y-86780499D01*
X48419453Y-86780500D02*
G75*
G02X48671711Y-86848799I-1J-499999D01*
G01*
X49374484Y-86200220D02*
G75*
G02X48671711Y-86848799I-450515J-216878D01*
G01*
X49374484Y-86200220D02*
G75*
G02X49324999Y-85983342I450515J216878D01*
G01*
X49324999Y-84577658D02*
X49324999Y-85983342D01*
X49324999Y-84577657D02*
G75*
G02X49374484Y-84360780I500000J-1D01*
G01*
X48671711Y-83712203D02*
G75*
G02X49374484Y-84360780I252258J-431700D01*
G01*
X303753290Y-110661299D02*
G75*
G02X304005548Y-110593000I252258J-431701D01*
G01*
X305594452Y-110593000D02*
X304005548Y-110593000D01*
X305594452Y-110593000D02*
G75*
G02X305846711Y-110661299I0J-500000D01*
G01*
X306549484Y-110012719D02*
G75*
G02X305846711Y-110661299I-450515J-216879D01*
G01*
X306549484Y-110012720D02*
G75*
G02X306499999Y-109795842I450515J216878D01*
G01*
X306499999Y-108390158D02*
X306499999Y-109795842D01*
X306499999Y-108390157D02*
G75*
G02X306549484Y-108173280I500000J-1D01*
G01*
X305846711Y-107524703D02*
G75*
G02X306549484Y-108173280I252258J-431700D01*
G01*
X305846711Y-107524702D02*
G75*
G02X305594453Y-107593001I-252258J431701D01*
G01*
X304005548Y-107593001D02*
X305594453Y-107593001D01*
X304005547Y-107593000D02*
G75*
G02X303753289Y-107524701I1J499999D01*
G01*
X303050516Y-108173280D02*
G75*
G02X303753289Y-107524701I450515J216878D01*
G01*
X303050516Y-108173280D02*
G75*
G02X303100001Y-108390158I-450515J-216878D01*
G01*
X303100001Y-109795842D02*
X303100001Y-108390158D01*
X303100001Y-109795843D02*
G75*
G02X303050516Y-110012720I-500000J1D01*
G01*
X303753289Y-110661297D02*
G75*
G02X303050516Y-110012720I-252258J431700D01*
G01*
X270416290Y-186861299D02*
G75*
G02X270668548Y-186793000I252258J-431701D01*
G01*
X272257452Y-186793000D02*
X270668548Y-186793000D01*
X272257452Y-186793000D02*
G75*
G02X272509711Y-186861299I0J-500000D01*
G01*
X273212484Y-186212719D02*
G75*
G02X272509711Y-186861299I-450515J-216879D01*
G01*
X273212484Y-186212720D02*
G75*
G02X273162999Y-185995842I450515J216878D01*
G01*
X273162999Y-184590158D02*
X273162999Y-185995842D01*
X273162999Y-184590157D02*
G75*
G02X273212484Y-184373280I500000J-1D01*
G01*
X272509711Y-183724703D02*
G75*
G02X273212484Y-184373280I252258J-431700D01*
G01*
X272509711Y-183724702D02*
G75*
G02X272257453Y-183793001I-252258J431701D01*
G01*
X270668548Y-183793001D02*
X272257453Y-183793001D01*
X270668547Y-183793000D02*
G75*
G02X270416289Y-183724701I1J499999D01*
G01*
X269713516Y-184373280D02*
G75*
G02X270416289Y-183724701I450515J216878D01*
G01*
X269713516Y-184373280D02*
G75*
G02X269763001Y-184590158I-450515J-216878D01*
G01*
X269763001Y-185995842D02*
X269763001Y-184590158D01*
X269763001Y-185995843D02*
G75*
G02X269713516Y-186212720I-500000J1D01*
G01*
X270416289Y-186861297D02*
G75*
G02X269713516Y-186212720I-252258J431700D01*
G01*
X241840290Y-186861299D02*
G75*
G02X242092548Y-186793000I252258J-431701D01*
G01*
X243681452Y-186793000D02*
X242092548Y-186793000D01*
X243681452Y-186793000D02*
G75*
G02X243933711Y-186861299I0J-500000D01*
G01*
X244636484Y-186212719D02*
G75*
G02X243933711Y-186861299I-450515J-216879D01*
G01*
X244636484Y-186212720D02*
G75*
G02X244586999Y-185995842I450515J216878D01*
G01*
X244586999Y-184590158D02*
X244586999Y-185995842D01*
X244586999Y-184590157D02*
G75*
G02X244636484Y-184373280I500000J-1D01*
G01*
X243933711Y-183724703D02*
G75*
G02X244636484Y-184373280I252258J-431700D01*
G01*
X243933711Y-183724702D02*
G75*
G02X243681453Y-183793001I-252258J431701D01*
G01*
X242092548Y-183793001D02*
X243681453Y-183793001D01*
X242092547Y-183793000D02*
G75*
G02X241840289Y-183724701I1J499999D01*
G01*
X241137516Y-184373280D02*
G75*
G02X241840289Y-183724701I450515J216878D01*
G01*
X241137516Y-184373280D02*
G75*
G02X241187001Y-184590158I-450515J-216878D01*
G01*
X241187001Y-185995842D02*
X241187001Y-184590158D01*
X241187001Y-185995843D02*
G75*
G02X241137516Y-186212720I-500000J1D01*
G01*
X241840289Y-186861297D02*
G75*
G02X241137516Y-186212720I-252258J431700D01*
G01*
X96584490Y-186861299D02*
G75*
G02X96836748Y-186793000I252258J-431701D01*
G01*
X98425652Y-186793000D02*
X96836748Y-186793000D01*
X98425652Y-186793000D02*
G75*
G02X98677911Y-186861299I0J-500000D01*
G01*
X99380684Y-186212719D02*
G75*
G02X98677911Y-186861299I-450515J-216879D01*
G01*
X99380684Y-186212720D02*
G75*
G02X99331199Y-185995842I450515J216878D01*
G01*
X99331199Y-184590158D02*
X99331199Y-185995842D01*
X99331199Y-184590157D02*
G75*
G02X99380684Y-184373280I500000J-1D01*
G01*
X98677911Y-183724703D02*
G75*
G02X99380684Y-184373280I252258J-431700D01*
G01*
X98677911Y-183724702D02*
G75*
G02X98425653Y-183793001I-252258J431701D01*
G01*
X96836748Y-183793001D02*
X98425653Y-183793001D01*
X96836747Y-183793000D02*
G75*
G02X96584489Y-183724701I1J499999D01*
G01*
X95881716Y-184373280D02*
G75*
G02X96584489Y-183724701I450515J216878D01*
G01*
X95881716Y-184373280D02*
G75*
G02X95931201Y-184590158I-450515J-216878D01*
G01*
X95931201Y-185995842D02*
X95931201Y-184590158D01*
X95931201Y-185995843D02*
G75*
G02X95881716Y-186212720I-500000J1D01*
G01*
X96584489Y-186861297D02*
G75*
G02X95881716Y-186212720I-252258J431700D01*
G01*
X72772090Y-186861299D02*
G75*
G02X73024348Y-186793000I252258J-431701D01*
G01*
X74613252Y-186793000D02*
X73024348Y-186793000D01*
X74613252Y-186793000D02*
G75*
G02X74865511Y-186861299I0J-500000D01*
G01*
X75568284Y-186212719D02*
G75*
G02X74865511Y-186861299I-450515J-216879D01*
G01*
X75568284Y-186212720D02*
G75*
G02X75518799Y-185995842I450515J216878D01*
G01*
X75518799Y-184590158D02*
X75518799Y-185995842D01*
X75518799Y-184590157D02*
G75*
G02X75568284Y-184373280I500000J-1D01*
G01*
X74865511Y-183724703D02*
G75*
G02X75568284Y-184373280I252258J-431700D01*
G01*
X74865511Y-183724702D02*
G75*
G02X74613253Y-183793001I-252258J431701D01*
G01*
X73024348Y-183793001D02*
X74613253Y-183793001D01*
X73024347Y-183793000D02*
G75*
G02X72772089Y-183724701I1J499999D01*
G01*
X72069316Y-184373280D02*
G75*
G02X72772089Y-183724701I450515J216878D01*
G01*
X72069316Y-184373280D02*
G75*
G02X72118801Y-184590158I-450515J-216878D01*
G01*
X72118801Y-185995842D02*
X72118801Y-184590158D01*
X72118801Y-185995843D02*
G75*
G02X72069316Y-186212720I-500000J1D01*
G01*
X72772089Y-186861297D02*
G75*
G02X72069316Y-186212720I-252258J431700D01*
G01*
X48959490Y-186861299D02*
G75*
G02X49211748Y-186793000I252258J-431701D01*
G01*
X50800652Y-186793000D02*
X49211748Y-186793000D01*
X50800652Y-186793000D02*
G75*
G02X51052911Y-186861299I0J-500000D01*
G01*
X51755684Y-186212719D02*
G75*
G02X51052911Y-186861299I-450515J-216879D01*
G01*
X51755684Y-186212720D02*
G75*
G02X51706199Y-185995842I450515J216878D01*
G01*
X51706199Y-184590158D02*
X51706199Y-185995842D01*
X51706199Y-184590157D02*
G75*
G02X51755684Y-184373280I500000J-1D01*
G01*
X51052911Y-183724703D02*
G75*
G02X51755684Y-184373280I252258J-431700D01*
G01*
X51052911Y-183724702D02*
G75*
G02X50800653Y-183793001I-252258J431701D01*
G01*
X49211748Y-183793001D02*
X50800653Y-183793001D01*
X49211747Y-183793000D02*
G75*
G02X48959489Y-183724701I1J499999D01*
G01*
X48256716Y-184373280D02*
G75*
G02X48959489Y-183724701I450515J216878D01*
G01*
X48256716Y-184373280D02*
G75*
G02X48306201Y-184590158I-450515J-216878D01*
G01*
X48306201Y-185995842D02*
X48306201Y-184590158D01*
X48306201Y-185995843D02*
G75*
G02X48256716Y-186212720I-500000J1D01*
G01*
X48959489Y-186861297D02*
G75*
G02X48256716Y-186212720I-252258J431700D01*
G01*
X289177710Y-164674701D02*
G75*
G02X288925452Y-164743000I-252258J431701D01*
G01*
X287336548Y-164743000D02*
X288925452Y-164743000D01*
X287336548Y-164743000D02*
G75*
G02X287084289Y-164674701I0J500000D01*
G01*
X286381516Y-165323281D02*
G75*
G02X287084289Y-164674701I450515J216879D01*
G01*
X286381516Y-165323280D02*
G75*
G02X286431001Y-165540158I-450515J-216878D01*
G01*
X286431001Y-166945842D02*
X286431001Y-165540158D01*
X286431001Y-166945843D02*
G75*
G02X286381516Y-167162720I-500000J1D01*
G01*
X287084289Y-167811297D02*
G75*
G02X286381516Y-167162720I-252258J431700D01*
G01*
X287084289Y-167811298D02*
G75*
G02X287336547Y-167742999I252258J-431701D01*
G01*
X288925452Y-167742999D02*
X287336547Y-167742999D01*
X288925453Y-167743000D02*
G75*
G02X289177711Y-167811299I-1J-499999D01*
G01*
X289880484Y-167162720D02*
G75*
G02X289177711Y-167811299I-450515J-216878D01*
G01*
X289880484Y-167162720D02*
G75*
G02X289830999Y-166945842I450515J216878D01*
G01*
X289830999Y-165540158D02*
X289830999Y-166945842D01*
X289830999Y-165540157D02*
G75*
G02X289880484Y-165323280I500000J-1D01*
G01*
X289177711Y-164674703D02*
G75*
G02X289880484Y-165323280I252258J-431700D01*
G01*
X262983710Y-164674701D02*
G75*
G02X262731452Y-164743000I-252258J431701D01*
G01*
X261142548Y-164743000D02*
X262731452Y-164743000D01*
X261142548Y-164743000D02*
G75*
G02X260890289Y-164674701I0J500000D01*
G01*
X260187516Y-165323281D02*
G75*
G02X260890289Y-164674701I450515J216879D01*
G01*
X260187516Y-165323280D02*
G75*
G02X260237001Y-165540158I-450515J-216878D01*
G01*
X260237001Y-166945842D02*
X260237001Y-165540158D01*
X260237001Y-166945843D02*
G75*
G02X260187516Y-167162720I-500000J1D01*
G01*
X260890289Y-167811297D02*
G75*
G02X260187516Y-167162720I-252258J431700D01*
G01*
X260890289Y-167811298D02*
G75*
G02X261142547Y-167742999I252258J-431701D01*
G01*
X262731452Y-167742999D02*
X261142547Y-167742999D01*
X262731453Y-167743000D02*
G75*
G02X262983711Y-167811299I-1J-499999D01*
G01*
X263686484Y-167162720D02*
G75*
G02X262983711Y-167811299I-450515J-216878D01*
G01*
X263686484Y-167162720D02*
G75*
G02X263636999Y-166945842I450515J216878D01*
G01*
X263636999Y-165540158D02*
X263636999Y-166945842D01*
X263636999Y-165540157D02*
G75*
G02X263686484Y-165323280I500000J-1D01*
G01*
X262983711Y-164674703D02*
G75*
G02X263686484Y-165323280I252258J-431700D01*
G01*
X243933710Y-164674701D02*
G75*
G02X243681452Y-164743000I-252258J431701D01*
G01*
X242092548Y-164743000D02*
X243681452Y-164743000D01*
X242092548Y-164743000D02*
G75*
G02X241840289Y-164674701I0J500000D01*
G01*
X241137516Y-165323281D02*
G75*
G02X241840289Y-164674701I450515J216879D01*
G01*
X241137516Y-165323280D02*
G75*
G02X241187001Y-165540158I-450515J-216878D01*
G01*
X241187001Y-166945842D02*
X241187001Y-165540158D01*
X241187001Y-166945843D02*
G75*
G02X241137516Y-167162720I-500000J1D01*
G01*
X241840289Y-167811297D02*
G75*
G02X241137516Y-167162720I-252258J431700D01*
G01*
X241840289Y-167811298D02*
G75*
G02X242092547Y-167742999I252258J-431701D01*
G01*
X243681452Y-167742999D02*
X242092547Y-167742999D01*
X243681453Y-167743000D02*
G75*
G02X243933711Y-167811299I-1J-499999D01*
G01*
X244636484Y-167162720D02*
G75*
G02X243933711Y-167811299I-450515J-216878D01*
G01*
X244636484Y-167162720D02*
G75*
G02X244586999Y-166945842I450515J216878D01*
G01*
X244586999Y-165540158D02*
X244586999Y-166945842D01*
X244586999Y-165540157D02*
G75*
G02X244636484Y-165323280I500000J-1D01*
G01*
X243933711Y-164674703D02*
G75*
G02X244636484Y-165323280I252258J-431700D01*
G01*
X224883710Y-164674701D02*
G75*
G02X224631452Y-164743000I-252258J431701D01*
G01*
X223042548Y-164743000D02*
X224631452Y-164743000D01*
X223042548Y-164743000D02*
G75*
G02X222790289Y-164674701I0J500000D01*
G01*
X222087516Y-165323281D02*
G75*
G02X222790289Y-164674701I450515J216879D01*
G01*
X222087516Y-165323280D02*
G75*
G02X222137001Y-165540158I-450515J-216878D01*
G01*
X222137001Y-166945842D02*
X222137001Y-165540158D01*
X222137001Y-166945843D02*
G75*
G02X222087516Y-167162720I-500000J1D01*
G01*
X222790289Y-167811297D02*
G75*
G02X222087516Y-167162720I-252258J431700D01*
G01*
X222790289Y-167811298D02*
G75*
G02X223042547Y-167742999I252258J-431701D01*
G01*
X224631452Y-167742999D02*
X223042547Y-167742999D01*
X224631453Y-167743000D02*
G75*
G02X224883711Y-167811299I-1J-499999D01*
G01*
X225586484Y-167162720D02*
G75*
G02X224883711Y-167811299I-450515J-216878D01*
G01*
X225586484Y-167162720D02*
G75*
G02X225536999Y-166945842I450515J216878D01*
G01*
X225536999Y-165540158D02*
X225536999Y-166945842D01*
X225536999Y-165540157D02*
G75*
G02X225586484Y-165323280I500000J-1D01*
G01*
X224883711Y-164674703D02*
G75*
G02X225586484Y-165323280I252258J-431700D01*
G01*
X205833710Y-164674701D02*
G75*
G02X205581452Y-164743000I-252258J431701D01*
G01*
X203992548Y-164743000D02*
X205581452Y-164743000D01*
X203992548Y-164743000D02*
G75*
G02X203740289Y-164674701I0J500000D01*
G01*
X203037516Y-165323281D02*
G75*
G02X203740289Y-164674701I450515J216879D01*
G01*
X203037516Y-165323280D02*
G75*
G02X203087001Y-165540158I-450515J-216878D01*
G01*
X203087001Y-166945842D02*
X203087001Y-165540158D01*
X203087001Y-166945843D02*
G75*
G02X203037516Y-167162720I-500000J1D01*
G01*
X203740289Y-167811297D02*
G75*
G02X203037516Y-167162720I-252258J431700D01*
G01*
X203740289Y-167811298D02*
G75*
G02X203992547Y-167742999I252258J-431701D01*
G01*
X205581452Y-167742999D02*
X203992547Y-167742999D01*
X205581453Y-167743000D02*
G75*
G02X205833711Y-167811299I-1J-499999D01*
G01*
X206536484Y-167162720D02*
G75*
G02X205833711Y-167811299I-450515J-216878D01*
G01*
X206536484Y-167162720D02*
G75*
G02X206486999Y-166945842I450515J216878D01*
G01*
X206486999Y-165540158D02*
X206486999Y-166945842D01*
X206486999Y-165540157D02*
G75*
G02X206536484Y-165323280I500000J-1D01*
G01*
X205833711Y-164674703D02*
G75*
G02X206536484Y-165323280I252258J-431700D01*
G01*
X186783710Y-164674701D02*
G75*
G02X186531452Y-164743000I-252258J431701D01*
G01*
X184942548Y-164743000D02*
X186531452Y-164743000D01*
X184942548Y-164743000D02*
G75*
G02X184690289Y-164674701I0J500000D01*
G01*
X183987516Y-165323281D02*
G75*
G02X184690289Y-164674701I450515J216879D01*
G01*
X183987516Y-165323280D02*
G75*
G02X184037001Y-165540158I-450515J-216878D01*
G01*
X184037001Y-166945842D02*
X184037001Y-165540158D01*
X184037001Y-166945843D02*
G75*
G02X183987516Y-167162720I-500000J1D01*
G01*
X184690289Y-167811297D02*
G75*
G02X183987516Y-167162720I-252258J431700D01*
G01*
X184690289Y-167811298D02*
G75*
G02X184942547Y-167742999I252258J-431701D01*
G01*
X186531452Y-167742999D02*
X184942547Y-167742999D01*
X186531453Y-167743000D02*
G75*
G02X186783711Y-167811299I-1J-499999D01*
G01*
X187486484Y-167162720D02*
G75*
G02X186783711Y-167811299I-450515J-216878D01*
G01*
X187486484Y-167162720D02*
G75*
G02X187436999Y-166945842I450515J216878D01*
G01*
X187436999Y-165540158D02*
X187436999Y-166945842D01*
X187436999Y-165540157D02*
G75*
G02X187486484Y-165323280I500000J-1D01*
G01*
X186783711Y-164674703D02*
G75*
G02X187486484Y-165323280I252258J-431700D01*
G01*
X167733710Y-164674701D02*
G75*
G02X167481452Y-164743000I-252258J431701D01*
G01*
X165892548Y-164743000D02*
X167481452Y-164743000D01*
X165892548Y-164743000D02*
G75*
G02X165640289Y-164674701I0J500000D01*
G01*
X164937516Y-165323281D02*
G75*
G02X165640289Y-164674701I450515J216879D01*
G01*
X164937516Y-165323280D02*
G75*
G02X164987001Y-165540158I-450515J-216878D01*
G01*
X164987001Y-166945842D02*
X164987001Y-165540158D01*
X164987001Y-166945843D02*
G75*
G02X164937516Y-167162720I-500000J1D01*
G01*
X165640289Y-167811297D02*
G75*
G02X164937516Y-167162720I-252258J431700D01*
G01*
X165640289Y-167811298D02*
G75*
G02X165892547Y-167742999I252258J-431701D01*
G01*
X167481452Y-167742999D02*
X165892547Y-167742999D01*
X167481453Y-167743000D02*
G75*
G02X167733711Y-167811299I-1J-499999D01*
G01*
X168436484Y-167162720D02*
G75*
G02X167733711Y-167811299I-450515J-216878D01*
G01*
X168436484Y-167162720D02*
G75*
G02X168386999Y-166945842I450515J216878D01*
G01*
X168386999Y-165540158D02*
X168386999Y-166945842D01*
X168386999Y-165540157D02*
G75*
G02X168436484Y-165323280I500000J-1D01*
G01*
X167733711Y-164674703D02*
G75*
G02X168436484Y-165323280I252258J-431700D01*
G01*
X148683710Y-164674701D02*
G75*
G02X148431452Y-164743000I-252258J431701D01*
G01*
X146842548Y-164743000D02*
X148431452Y-164743000D01*
X146842548Y-164743000D02*
G75*
G02X146590289Y-164674701I0J500000D01*
G01*
X145887516Y-165323281D02*
G75*
G02X146590289Y-164674701I450515J216879D01*
G01*
X145887516Y-165323280D02*
G75*
G02X145937001Y-165540158I-450515J-216878D01*
G01*
X145937001Y-166945842D02*
X145937001Y-165540158D01*
X145937001Y-166945843D02*
G75*
G02X145887516Y-167162720I-500000J1D01*
G01*
X146590289Y-167811297D02*
G75*
G02X145887516Y-167162720I-252258J431700D01*
G01*
X146590289Y-167811298D02*
G75*
G02X146842547Y-167742999I252258J-431701D01*
G01*
X148431452Y-167742999D02*
X146842547Y-167742999D01*
X148431453Y-167743000D02*
G75*
G02X148683711Y-167811299I-1J-499999D01*
G01*
X149386484Y-167162720D02*
G75*
G02X148683711Y-167811299I-450515J-216878D01*
G01*
X149386484Y-167162720D02*
G75*
G02X149336999Y-166945842I450515J216878D01*
G01*
X149336999Y-165540158D02*
X149336999Y-166945842D01*
X149336999Y-165540157D02*
G75*
G02X149386484Y-165323280I500000J-1D01*
G01*
X148683711Y-164674703D02*
G75*
G02X149386484Y-165323280I252258J-431700D01*
G01*
X129633710Y-164674701D02*
G75*
G02X129381452Y-164743000I-252258J431701D01*
G01*
X127792548Y-164743000D02*
X129381452Y-164743000D01*
X127792548Y-164743000D02*
G75*
G02X127540289Y-164674701I0J500000D01*
G01*
X126837516Y-165323281D02*
G75*
G02X127540289Y-164674701I450515J216879D01*
G01*
X126837516Y-165323280D02*
G75*
G02X126887001Y-165540158I-450515J-216878D01*
G01*
X126887001Y-166945842D02*
X126887001Y-165540158D01*
X126887001Y-166945843D02*
G75*
G02X126837516Y-167162720I-500000J1D01*
G01*
X127540289Y-167811297D02*
G75*
G02X126837516Y-167162720I-252258J431700D01*
G01*
X127540289Y-167811298D02*
G75*
G02X127792547Y-167742999I252258J-431701D01*
G01*
X129381452Y-167742999D02*
X127792547Y-167742999D01*
X129381453Y-167743000D02*
G75*
G02X129633711Y-167811299I-1J-499999D01*
G01*
X130336484Y-167162720D02*
G75*
G02X129633711Y-167811299I-450515J-216878D01*
G01*
X130336484Y-167162720D02*
G75*
G02X130286999Y-166945842I450515J216878D01*
G01*
X130286999Y-165540158D02*
X130286999Y-166945842D01*
X130286999Y-165540157D02*
G75*
G02X130336484Y-165323280I500000J-1D01*
G01*
X129633711Y-164674703D02*
G75*
G02X130336484Y-165323280I252258J-431700D01*
G01*
X110584710Y-164674701D02*
G75*
G02X110332452Y-164743000I-252258J431701D01*
G01*
X108743548Y-164743000D02*
X110332452Y-164743000D01*
X108743548Y-164743000D02*
G75*
G02X108491289Y-164674701I0J500000D01*
G01*
X107788516Y-165323281D02*
G75*
G02X108491289Y-164674701I450515J216879D01*
G01*
X107788516Y-165323280D02*
G75*
G02X107838001Y-165540158I-450515J-216878D01*
G01*
X107838001Y-166945842D02*
X107838001Y-165540158D01*
X107838001Y-166945843D02*
G75*
G02X107788516Y-167162720I-500000J1D01*
G01*
X108491289Y-167811297D02*
G75*
G02X107788516Y-167162720I-252258J431700D01*
G01*
X108491289Y-167811298D02*
G75*
G02X108743547Y-167742999I252258J-431701D01*
G01*
X110332452Y-167742999D02*
X108743547Y-167742999D01*
X110332453Y-167743000D02*
G75*
G02X110584711Y-167811299I-1J-499999D01*
G01*
X111287484Y-167162720D02*
G75*
G02X110584711Y-167811299I-450515J-216878D01*
G01*
X111287484Y-167162720D02*
G75*
G02X111237999Y-166945842I450515J216878D01*
G01*
X111237999Y-165540158D02*
X111237999Y-166945842D01*
X111237999Y-165540157D02*
G75*
G02X111287484Y-165323280I500000J-1D01*
G01*
X110584711Y-164674703D02*
G75*
G02X111287484Y-165323280I252258J-431700D01*
G01*
X91534210Y-164674701D02*
G75*
G02X91281952Y-164743000I-252258J431701D01*
G01*
X89693048Y-164743000D02*
X91281952Y-164743000D01*
X89693048Y-164743000D02*
G75*
G02X89440789Y-164674701I0J500000D01*
G01*
X88738016Y-165323281D02*
G75*
G02X89440789Y-164674701I450515J216879D01*
G01*
X88738016Y-165323280D02*
G75*
G02X88787501Y-165540158I-450515J-216878D01*
G01*
X88787501Y-166945842D02*
X88787501Y-165540158D01*
X88787501Y-166945843D02*
G75*
G02X88738016Y-167162720I-500000J1D01*
G01*
X89440789Y-167811297D02*
G75*
G02X88738016Y-167162720I-252258J431700D01*
G01*
X89440789Y-167811298D02*
G75*
G02X89693047Y-167742999I252258J-431701D01*
G01*
X91281952Y-167742999D02*
X89693047Y-167742999D01*
X91281953Y-167743000D02*
G75*
G02X91534211Y-167811299I-1J-499999D01*
G01*
X92236984Y-167162720D02*
G75*
G02X91534211Y-167811299I-450515J-216878D01*
G01*
X92236984Y-167162720D02*
G75*
G02X92187499Y-166945842I450515J216878D01*
G01*
X92187499Y-165540158D02*
X92187499Y-166945842D01*
X92187499Y-165540157D02*
G75*
G02X92236984Y-165323280I500000J-1D01*
G01*
X91534211Y-164674703D02*
G75*
G02X92236984Y-165323280I252258J-431700D01*
G01*
X60577910Y-164674701D02*
G75*
G02X60325652Y-164743000I-252258J431701D01*
G01*
X58736748Y-164743000D02*
X60325652Y-164743000D01*
X58736748Y-164743000D02*
G75*
G02X58484489Y-164674701I0J500000D01*
G01*
X57781716Y-165323281D02*
G75*
G02X58484489Y-164674701I450515J216879D01*
G01*
X57781716Y-165323280D02*
G75*
G02X57831201Y-165540158I-450515J-216878D01*
G01*
X57831201Y-166945842D02*
X57831201Y-165540158D01*
X57831201Y-166945843D02*
G75*
G02X57781716Y-167162720I-500000J1D01*
G01*
X58484489Y-167811297D02*
G75*
G02X57781716Y-167162720I-252258J431700D01*
G01*
X58484489Y-167811298D02*
G75*
G02X58736747Y-167742999I252258J-431701D01*
G01*
X60325652Y-167742999D02*
X58736747Y-167742999D01*
X60325653Y-167743000D02*
G75*
G02X60577911Y-167811299I-1J-499999D01*
G01*
X61280684Y-167162720D02*
G75*
G02X60577911Y-167811299I-450515J-216878D01*
G01*
X61280684Y-167162720D02*
G75*
G02X61231199Y-166945842I450515J216878D01*
G01*
X61231199Y-165540158D02*
X61231199Y-166945842D01*
X61231199Y-165540157D02*
G75*
G02X61280684Y-165323280I500000J-1D01*
G01*
X60577911Y-164674703D02*
G75*
G02X61280684Y-165323280I252258J-431700D01*
G01*
X301372290Y-148761299D02*
G75*
G02X301624548Y-148693000I252258J-431701D01*
G01*
X303213452Y-148693000D02*
X301624548Y-148693000D01*
X303213452Y-148693000D02*
G75*
G02X303465711Y-148761299I0J-500000D01*
G01*
X304168484Y-148112719D02*
G75*
G02X303465711Y-148761299I-450515J-216879D01*
G01*
X304168484Y-148112720D02*
G75*
G02X304118999Y-147895842I450515J216878D01*
G01*
X304118999Y-146490158D02*
X304118999Y-147895842D01*
X304118999Y-146490157D02*
G75*
G02X304168484Y-146273280I500000J-1D01*
G01*
X303465711Y-145624703D02*
G75*
G02X304168484Y-146273280I252258J-431700D01*
G01*
X303465711Y-145624702D02*
G75*
G02X303213453Y-145693001I-252258J431701D01*
G01*
X301624548Y-145693001D02*
X303213453Y-145693001D01*
X301624547Y-145693000D02*
G75*
G02X301372289Y-145624701I1J499999D01*
G01*
X300669516Y-146273280D02*
G75*
G02X301372289Y-145624701I450515J216878D01*
G01*
X300669516Y-146273280D02*
G75*
G02X300719001Y-146490158I-450515J-216878D01*
G01*
X300719001Y-147895842D02*
X300719001Y-146490158D01*
X300719001Y-147895843D02*
G75*
G02X300669516Y-148112720I-500000J1D01*
G01*
X301372289Y-148761297D02*
G75*
G02X300669516Y-148112720I-252258J431700D01*
G01*
X53722090Y-148761299D02*
G75*
G02X53974348Y-148693000I252258J-431701D01*
G01*
X55563252Y-148693000D02*
X53974348Y-148693000D01*
X55563252Y-148693000D02*
G75*
G02X55815511Y-148761299I0J-500000D01*
G01*
X56518284Y-148112719D02*
G75*
G02X55815511Y-148761299I-450515J-216879D01*
G01*
X56518284Y-148112720D02*
G75*
G02X56468799Y-147895842I450515J216878D01*
G01*
X56468799Y-146490158D02*
X56468799Y-147895842D01*
X56468799Y-146490157D02*
G75*
G02X56518284Y-146273280I500000J-1D01*
G01*
X55815511Y-145624703D02*
G75*
G02X56518284Y-146273280I252258J-431700D01*
G01*
X55815511Y-145624702D02*
G75*
G02X55563253Y-145693001I-252258J431701D01*
G01*
X53974348Y-145693001D02*
X55563253Y-145693001D01*
X53974347Y-145693000D02*
G75*
G02X53722089Y-145624701I1J499999D01*
G01*
X53019316Y-146273280D02*
G75*
G02X53722089Y-145624701I450515J216878D01*
G01*
X53019316Y-146273280D02*
G75*
G02X53068801Y-146490158I-450515J-216878D01*
G01*
X53068801Y-147895842D02*
X53068801Y-146490158D01*
X53068801Y-147895843D02*
G75*
G02X53019316Y-148112720I-500000J1D01*
G01*
X53722089Y-148761297D02*
G75*
G02X53019316Y-148112720I-252258J431700D01*
G01*
X310609710Y-126574701D02*
G75*
G02X310357452Y-126643000I-252258J431701D01*
G01*
X308768548Y-126643000D02*
X310357452Y-126643000D01*
X308768548Y-126643000D02*
G75*
G02X308516289Y-126574701I0J500000D01*
G01*
X307813516Y-127223281D02*
G75*
G02X308516289Y-126574701I450515J216879D01*
G01*
X307813516Y-127223280D02*
G75*
G02X307863001Y-127440158I-450515J-216878D01*
G01*
X307863001Y-128845842D02*
X307863001Y-127440158D01*
X307863001Y-128845843D02*
G75*
G02X307813516Y-129062720I-500000J1D01*
G01*
X308516289Y-129711297D02*
G75*
G02X307813516Y-129062720I-252258J431700D01*
G01*
X308516289Y-129711298D02*
G75*
G02X308768547Y-129642999I252258J-431701D01*
G01*
X310357452Y-129642999D02*
X308768547Y-129642999D01*
X310357453Y-129643000D02*
G75*
G02X310609711Y-129711299I-1J-499999D01*
G01*
X311312484Y-129062720D02*
G75*
G02X310609711Y-129711299I-450515J-216878D01*
G01*
X311312484Y-129062720D02*
G75*
G02X311262999Y-128845842I450515J216878D01*
G01*
X311262999Y-127440158D02*
X311262999Y-128845842D01*
X311262999Y-127440157D02*
G75*
G02X311312484Y-127223280I500000J-1D01*
G01*
X310609711Y-126574703D02*
G75*
G02X311312484Y-127223280I252258J-431700D01*
G01*
X53434210Y-126542701D02*
G75*
G02X53181952Y-126611000I-252258J431701D01*
G01*
X51593048Y-126611000D02*
X53181952Y-126611000D01*
X51593048Y-126611000D02*
G75*
G02X51340789Y-126542701I0J500000D01*
G01*
X50638016Y-127191281D02*
G75*
G02X51340789Y-126542701I450515J216879D01*
G01*
X50638016Y-127191280D02*
G75*
G02X50687501Y-127408158I-450515J-216878D01*
G01*
X50687501Y-128813842D02*
X50687501Y-127408158D01*
X50687501Y-128813843D02*
G75*
G02X50638016Y-129030720I-500000J1D01*
G01*
X51340789Y-129679297D02*
G75*
G02X50638016Y-129030720I-252258J431700D01*
G01*
X51340789Y-129679298D02*
G75*
G02X51593047Y-129610999I252258J-431701D01*
G01*
X53181952Y-129610999D02*
X51593047Y-129610999D01*
X53181953Y-129611000D02*
G75*
G02X53434211Y-129679299I-1J-499999D01*
G01*
X54136984Y-129030720D02*
G75*
G02X53434211Y-129679299I-450515J-216878D01*
G01*
X54136984Y-129030720D02*
G75*
G02X54087499Y-128813842I450515J216878D01*
G01*
X54087499Y-127408158D02*
X54087499Y-128813842D01*
X54087499Y-127408157D02*
G75*
G02X54136984Y-127191280I500000J-1D01*
G01*
X53434211Y-126542703D02*
G75*
G02X54136984Y-127191280I252258J-431700D01*
G01*
M02*
