G04 #@! TF.GenerationSoftware,KiCad,Pcbnew,(5.1.4)-1*
G04 #@! TF.CreationDate,2020-12-30T22:06:46+01:00*
G04 #@! TF.ProjectId,CZTKeyRev1,435a544b-6579-4526-9576-312e6b696361,rev?*
G04 #@! TF.SameCoordinates,Original*
G04 #@! TF.FileFunction,Legend,Top*
G04 #@! TF.FilePolarity,Positive*
%FSLAX46Y46*%
G04 Gerber Fmt 4.6, Leading zero omitted, Abs format (unit mm)*
G04 Created by KiCad (PCBNEW (5.1.4)-1) date 2020-12-30 22:06:46*
%MOMM*%
%LPD*%
G04 APERTURE LIST*
%ADD10C,0.120000*%
%ADD11C,0.100000*%
%ADD12C,0.375000*%
%ADD13C,0.250000*%
%ADD14C,0.150000*%
G04 APERTURE END LIST*
D10*
X350043751Y-18510251D02*
G75*
G02X354806249Y-18510251I2381249J-1587499D01*
G01*
X189706251Y-18510251D02*
G75*
G02X194468749Y-18510251I2381249J-1587499D01*
G01*
X194468750Y-18510249D02*
X350043750Y-18510250D01*
X357187500Y-18510250D02*
X354806250Y-18510250D01*
X357187500Y-37560250D02*
X357187500Y-18510250D01*
D11*
G36*
X57150000Y-37560250D02*
G01*
X54768750Y-37560250D01*
X54768750Y-35972750D01*
X57150000Y-37560250D01*
G37*
X57150000Y-37560250D02*
X54768750Y-37560250D01*
X54768750Y-35972750D01*
X57150000Y-37560250D01*
G36*
X70643750Y-37560250D02*
G01*
X68262500Y-37560250D01*
X70643750Y-35972750D01*
X70643750Y-37560250D01*
G37*
X70643750Y-37560250D02*
X68262500Y-37560250D01*
X70643750Y-35972750D01*
X70643750Y-37560250D01*
G36*
X76993750Y-37560250D02*
G01*
X74612500Y-37560250D01*
X74612500Y-35972750D01*
X76993750Y-37560250D01*
G37*
X76993750Y-37560250D02*
X74612500Y-37560250D01*
X74612500Y-35972750D01*
X76993750Y-37560250D01*
G36*
X90487500Y-37560250D02*
G01*
X88106250Y-37560250D01*
X90487500Y-35972750D01*
X90487500Y-37560250D01*
G37*
X90487500Y-37560250D02*
X88106250Y-37560250D01*
X90487500Y-35972750D01*
X90487500Y-37560250D01*
G36*
X96837500Y-37560250D02*
G01*
X94456250Y-37560250D01*
X94456250Y-35972750D01*
X96837500Y-37560250D01*
G37*
X96837500Y-37560250D02*
X94456250Y-37560250D01*
X94456250Y-35972750D01*
X96837500Y-37560250D01*
G36*
X110331250Y-37560250D02*
G01*
X107950000Y-37560250D01*
X110331250Y-35972750D01*
X110331250Y-37560250D01*
G37*
X110331250Y-37560250D02*
X107950000Y-37560250D01*
X110331250Y-35972750D01*
X110331250Y-37560250D01*
G36*
X116681250Y-37560250D02*
G01*
X114300000Y-37560250D01*
X114300000Y-35972750D01*
X116681250Y-37560250D01*
G37*
X116681250Y-37560250D02*
X114300000Y-37560250D01*
X114300000Y-35972750D01*
X116681250Y-37560250D01*
G36*
X130175000Y-37560250D02*
G01*
X127793750Y-37560250D01*
X130175000Y-35972750D01*
X130175000Y-37560250D01*
G37*
X130175000Y-37560250D02*
X127793750Y-37560250D01*
X130175000Y-35972750D01*
X130175000Y-37560250D01*
G36*
X136525000Y-37560250D02*
G01*
X134143750Y-37560250D01*
X134143750Y-35972750D01*
X136525000Y-37560250D01*
G37*
X136525000Y-37560250D02*
X134143750Y-37560250D01*
X134143750Y-35972750D01*
X136525000Y-37560250D01*
G36*
X150018750Y-37560250D02*
G01*
X147637500Y-37560250D01*
X150018750Y-35972750D01*
X150018750Y-37560250D01*
G37*
X150018750Y-37560250D02*
X147637500Y-37560250D01*
X150018750Y-35972750D01*
X150018750Y-37560250D01*
G36*
X156368750Y-37560250D02*
G01*
X153987500Y-37560250D01*
X153987500Y-35972750D01*
X156368750Y-37560250D01*
G37*
X156368750Y-37560250D02*
X153987500Y-37560250D01*
X153987500Y-35972750D01*
X156368750Y-37560250D01*
G36*
X169862500Y-37560250D02*
G01*
X167481250Y-37560250D01*
X169862500Y-35972750D01*
X169862500Y-37560250D01*
G37*
X169862500Y-37560250D02*
X167481250Y-37560250D01*
X169862500Y-35972750D01*
X169862500Y-37560250D01*
G36*
X176212500Y-37560250D02*
G01*
X173831250Y-37560250D01*
X173831250Y-35972750D01*
X176212500Y-37560250D01*
G37*
X176212500Y-37560250D02*
X173831250Y-37560250D01*
X173831250Y-35972750D01*
X176212500Y-37560250D01*
G36*
X189706250Y-37560250D02*
G01*
X187325000Y-37560250D01*
X189706250Y-35972750D01*
X189706250Y-37560250D01*
G37*
X189706250Y-37560250D02*
X187325000Y-37560250D01*
X189706250Y-35972750D01*
X189706250Y-37560250D01*
G36*
X196056250Y-37560250D02*
G01*
X193675000Y-37560250D01*
X193675000Y-35972750D01*
X196056250Y-37560250D01*
G37*
X196056250Y-37560250D02*
X193675000Y-37560250D01*
X193675000Y-35972750D01*
X196056250Y-37560250D01*
G36*
X209550000Y-37560250D02*
G01*
X207168750Y-37560250D01*
X209550000Y-35972750D01*
X209550000Y-37560250D01*
G37*
X209550000Y-37560250D02*
X207168750Y-37560250D01*
X209550000Y-35972750D01*
X209550000Y-37560250D01*
G36*
X215900000Y-37560250D02*
G01*
X213518750Y-37560250D01*
X213518750Y-35972750D01*
X215900000Y-37560250D01*
G37*
X215900000Y-37560250D02*
X213518750Y-37560250D01*
X213518750Y-35972750D01*
X215900000Y-37560250D01*
G36*
X229393750Y-37560250D02*
G01*
X227012500Y-37560250D01*
X229393750Y-35972750D01*
X229393750Y-37560250D01*
G37*
X229393750Y-37560250D02*
X227012500Y-37560250D01*
X229393750Y-35972750D01*
X229393750Y-37560250D01*
G36*
X235743750Y-37560250D02*
G01*
X233362500Y-37560250D01*
X233362500Y-35972750D01*
X235743750Y-37560250D01*
G37*
X235743750Y-37560250D02*
X233362500Y-37560250D01*
X233362500Y-35972750D01*
X235743750Y-37560250D01*
G36*
X249237500Y-37560250D02*
G01*
X246856250Y-37560250D01*
X249237500Y-35972750D01*
X249237500Y-37560250D01*
G37*
X249237500Y-37560250D02*
X246856250Y-37560250D01*
X249237500Y-35972750D01*
X249237500Y-37560250D01*
G36*
X255587500Y-37560250D02*
G01*
X253206250Y-37560250D01*
X253206250Y-35972750D01*
X255587500Y-37560250D01*
G37*
X255587500Y-37560250D02*
X253206250Y-37560250D01*
X253206250Y-35972750D01*
X255587500Y-37560250D01*
G36*
X269081250Y-37560250D02*
G01*
X266700000Y-37560250D01*
X269081250Y-35972750D01*
X269081250Y-37560250D01*
G37*
X269081250Y-37560250D02*
X266700000Y-37560250D01*
X269081250Y-35972750D01*
X269081250Y-37560250D01*
G36*
X275431250Y-37560250D02*
G01*
X273050000Y-37560250D01*
X273050000Y-35972750D01*
X275431250Y-37560250D01*
G37*
X275431250Y-37560250D02*
X273050000Y-37560250D01*
X273050000Y-35972750D01*
X275431250Y-37560250D01*
G36*
X288925000Y-37560250D02*
G01*
X286543750Y-37560250D01*
X288925000Y-35972750D01*
X288925000Y-37560250D01*
G37*
X288925000Y-37560250D02*
X286543750Y-37560250D01*
X288925000Y-35972750D01*
X288925000Y-37560250D01*
G36*
X295275000Y-37560250D02*
G01*
X292893750Y-37560250D01*
X292893750Y-35972750D01*
X295275000Y-37560250D01*
G37*
X295275000Y-37560250D02*
X292893750Y-37560250D01*
X292893750Y-35972750D01*
X295275000Y-37560250D01*
G36*
X308768750Y-37560250D02*
G01*
X306387500Y-37560250D01*
X308768750Y-35972750D01*
X308768750Y-37560250D01*
G37*
X308768750Y-37560250D02*
X306387500Y-37560250D01*
X308768750Y-35972750D01*
X308768750Y-37560250D01*
G36*
X315118750Y-37560250D02*
G01*
X312737500Y-37560250D01*
X312737500Y-35972750D01*
X315118750Y-37560250D01*
G37*
X315118750Y-37560250D02*
X312737500Y-37560250D01*
X312737500Y-35972750D01*
X315118750Y-37560250D01*
G36*
X328612500Y-37560250D02*
G01*
X326231250Y-37560250D01*
X328612500Y-35972750D01*
X328612500Y-37560250D01*
G37*
X328612500Y-37560250D02*
X326231250Y-37560250D01*
X328612500Y-35972750D01*
X328612500Y-37560250D01*
G36*
X334962500Y-37560250D02*
G01*
X332581250Y-37560250D01*
X332581250Y-35972750D01*
X334962500Y-37560250D01*
G37*
X334962500Y-37560250D02*
X332581250Y-37560250D01*
X332581250Y-35972750D01*
X334962500Y-37560250D01*
G36*
X348456250Y-37560250D02*
G01*
X346075000Y-37560250D01*
X348456250Y-35972750D01*
X348456250Y-37560250D01*
G37*
X348456250Y-37560250D02*
X346075000Y-37560250D01*
X348456250Y-35972750D01*
X348456250Y-37560250D01*
D10*
X68262500Y-37560250D02*
X70643750Y-35972750D01*
X70643750Y-37560250D02*
X68262500Y-37560250D01*
X57150000Y-37560250D02*
X54768750Y-35972750D01*
X54768750Y-37560250D02*
X57150000Y-37560250D01*
X76993750Y-37560250D02*
X74612500Y-35972750D01*
X74612500Y-37560250D02*
X76993750Y-37560250D01*
X88106250Y-37560250D02*
X90487500Y-35972750D01*
X90487500Y-37560250D02*
X88106250Y-37560250D01*
X96837500Y-37560250D02*
X94456250Y-35972750D01*
X94456250Y-37560250D02*
X96837500Y-37560250D01*
X348456250Y-37560250D02*
X346075000Y-37560250D01*
X332581250Y-37560250D02*
X334962500Y-37560250D01*
X346075000Y-37560250D02*
X348456250Y-35972750D01*
X334962500Y-37560250D02*
X332581250Y-35972750D01*
X332581250Y-28035250D02*
G75*
G02X348456250Y-28035250I7937500J0D01*
G01*
X348456250Y-37560250D02*
X348456250Y-31210250D01*
X357187500Y-37560250D02*
X348456250Y-37560250D01*
X348456250Y-31210250D02*
X348456250Y-28035250D01*
X332581250Y-28035250D02*
X332581250Y-37560250D01*
X328612500Y-37560250D02*
X326231250Y-37560250D01*
X312737500Y-37560250D02*
X315118750Y-37560250D01*
X326231250Y-37560250D02*
X328612500Y-35972750D01*
X315118750Y-37560250D02*
X312737500Y-35972750D01*
X312737500Y-28035250D02*
G75*
G02X328612500Y-28035250I7937500J0D01*
G01*
X328612500Y-37560250D02*
X328612500Y-31210250D01*
X332581250Y-37560250D02*
X328612500Y-37560250D01*
X328612500Y-31210250D02*
X328612500Y-28035250D01*
X312737500Y-28035250D02*
X312737500Y-37560250D01*
X306387500Y-37560250D02*
X308768750Y-35972750D01*
X308768750Y-37560250D02*
X306387500Y-37560250D01*
X295275000Y-37560250D02*
X292893750Y-35972750D01*
X292893750Y-37560250D02*
X295275000Y-37560250D01*
X286543750Y-37560250D02*
X288925000Y-35972750D01*
X288925000Y-37560250D02*
X286543750Y-37560250D01*
X275431250Y-37560250D02*
X273050000Y-35972750D01*
X273050000Y-37560250D02*
X275431250Y-37560250D01*
X266700000Y-37560250D02*
X269081250Y-35972750D01*
X269081250Y-37560250D02*
X266700000Y-37560250D01*
X255587500Y-37560250D02*
X253206250Y-35972750D01*
X253206250Y-37560250D02*
X255587500Y-37560250D01*
X246856250Y-37560250D02*
X249237500Y-35972750D01*
X249237500Y-37560250D02*
X246856250Y-37560250D01*
X235743750Y-37560250D02*
X233362500Y-35972750D01*
X233362500Y-37560250D02*
X235743750Y-37560250D01*
X227012500Y-37560250D02*
X229393750Y-35972750D01*
X229393750Y-37560250D02*
X227012500Y-37560250D01*
X215900000Y-37560250D02*
X213518750Y-35972750D01*
X213518750Y-37560250D02*
X215900000Y-37560250D01*
X207168750Y-37560250D02*
X209550000Y-35972750D01*
X209550000Y-37560250D02*
X207168750Y-37560250D01*
X196056250Y-37560250D02*
X193675000Y-35972750D01*
X193675000Y-37560250D02*
X196056250Y-37560250D01*
X187325000Y-37560250D02*
X189706250Y-35972750D01*
X189706250Y-37560250D02*
X187325000Y-37560250D01*
X176212500Y-37560250D02*
X173831250Y-35972750D01*
X173831250Y-37560250D02*
X176212500Y-37560250D01*
X167481250Y-37560250D02*
X169862500Y-35972750D01*
X169862500Y-37560250D02*
X167481250Y-37560250D01*
X156368750Y-37560250D02*
X153987500Y-35972750D01*
X153987500Y-37560250D02*
X156368750Y-37560250D01*
X147637500Y-37560250D02*
X150018750Y-35972750D01*
X150018750Y-37560250D02*
X147637500Y-37560250D01*
X136525000Y-37560250D02*
X134143750Y-35972750D01*
X134143750Y-37560250D02*
X136525000Y-37560250D01*
X127793750Y-37560250D02*
X130175000Y-35972750D01*
X130175000Y-37560250D02*
X127793750Y-37560250D01*
X116681250Y-37560250D02*
X114300000Y-35972750D01*
X114300000Y-37560250D02*
X116681250Y-37560250D01*
X107950000Y-37560250D02*
X110331250Y-35972750D01*
X110331250Y-37560250D02*
X107950000Y-37560250D01*
X50800000Y-37560250D02*
X54768750Y-37560250D01*
X54768750Y-28035250D02*
G75*
G02X70643750Y-28035250I7937500J0D01*
G01*
X70643750Y-37560250D02*
X70643750Y-28035250D01*
X54768750Y-28035250D02*
X54768750Y-37560250D01*
X74612500Y-37560250D02*
X70643750Y-37560250D01*
X74612500Y-28035250D02*
G75*
G02X90487500Y-28035250I7937500J0D01*
G01*
X90487500Y-37560250D02*
X90487500Y-28035250D01*
X74612500Y-28035250D02*
X74612500Y-37560250D01*
X94456250Y-37560250D02*
X90487500Y-37560250D01*
X94456250Y-28035250D02*
G75*
G02X110331250Y-28035250I7937500J0D01*
G01*
X110331250Y-37560250D02*
X110331250Y-28035250D01*
X94456250Y-28035250D02*
X94456250Y-37560250D01*
X114300000Y-37560250D02*
X110331250Y-37560250D01*
X114300000Y-28035250D02*
G75*
G02X130175000Y-28035250I7937500J0D01*
G01*
X130175000Y-37560250D02*
X130175000Y-28035250D01*
X114300000Y-28035250D02*
X114300000Y-37560250D01*
X134143750Y-37560250D02*
X130175000Y-37560250D01*
X134143750Y-28035250D02*
G75*
G02X150018750Y-28035250I7937500J0D01*
G01*
X150018750Y-37560250D02*
X150018750Y-28035250D01*
X134143750Y-28035250D02*
X134143750Y-37560250D01*
X153987500Y-37560250D02*
X150018750Y-37560250D01*
X153987500Y-28035250D02*
G75*
G02X169862500Y-28035250I7937500J0D01*
G01*
X169862500Y-37560250D02*
X169862500Y-28035250D01*
X153987500Y-28035250D02*
X153987500Y-37560250D01*
X173831250Y-37560250D02*
X169862500Y-37560250D01*
X173831250Y-28035250D02*
G75*
G02X189706250Y-28035250I7937500J0D01*
G01*
X189706250Y-37560250D02*
X189706250Y-28035250D01*
X173831250Y-28035250D02*
X173831250Y-37560250D01*
X193675000Y-37560250D02*
X189706250Y-37560250D01*
X193675000Y-28035250D02*
G75*
G02X209550000Y-28035250I7937500J0D01*
G01*
X209550000Y-37560250D02*
X209550000Y-28035250D01*
X193675000Y-28035250D02*
X193675000Y-37560250D01*
X213518750Y-37560250D02*
X209550000Y-37560250D01*
X213518750Y-28035250D02*
G75*
G02X229393750Y-28035250I7937500J0D01*
G01*
X229393750Y-37560250D02*
X229393750Y-28035250D01*
X213518750Y-28035250D02*
X213518750Y-37560250D01*
X233362500Y-37560250D02*
X229393750Y-37560250D01*
X233362500Y-28035250D02*
G75*
G02X249237500Y-28035250I7937500J0D01*
G01*
X249237500Y-37560250D02*
X249237500Y-28035250D01*
X233362500Y-28035250D02*
X233362500Y-37560250D01*
X253206250Y-37560250D02*
X249237500Y-37560250D01*
X253206250Y-28035250D02*
G75*
G02X269081250Y-28035250I7937500J0D01*
G01*
X269081250Y-37560250D02*
X269081250Y-28035250D01*
X253206250Y-28035250D02*
X253206250Y-37560250D01*
X273050000Y-37560250D02*
X269081250Y-37560250D01*
X273050000Y-28035250D02*
X273050000Y-37560250D01*
X273050000Y-28035250D02*
G75*
G02X288925000Y-28035250I7937500J0D01*
G01*
X288925000Y-37560250D02*
X288925000Y-28035250D01*
X292893750Y-37560250D02*
X288925000Y-37560250D01*
X292893750Y-28035250D02*
X292893750Y-37560250D01*
X292893750Y-28035250D02*
G75*
G02X308768750Y-28035250I7937500J0D01*
G01*
X308768750Y-31210250D02*
X308768750Y-28035250D01*
X308768750Y-37560250D02*
X308768750Y-31210250D01*
X312737500Y-37560250D02*
X308768750Y-37560250D01*
X50800000Y-18510250D02*
X189706250Y-18510250D01*
X50800000Y-18510250D02*
X50800000Y-37560250D01*
D12*
X315595000Y-46831250D02*
X325479400Y-49244924D01*
X326016850Y-44632574D02*
X325699075Y-45052199D01*
X326822575Y-44234699D02*
X326435200Y-44355074D01*
X346084075Y-50966024D02*
X346184575Y-51139799D01*
X345798400Y-51899924D02*
X345752800Y-51899924D01*
X325430950Y-48147525D02*
X325559875Y-48995399D01*
X329578525Y-46483649D02*
X329480425Y-46202099D01*
X345935125Y-51856799D02*
X345798400Y-51899924D01*
X327152200Y-44189474D02*
X326954350Y-44219999D01*
X329480425Y-46202099D02*
X329083750Y-45393149D01*
X327771850Y-44261174D02*
X327152200Y-44189474D01*
X326954350Y-44219999D02*
X326822575Y-44234699D01*
X325364275Y-46316024D02*
X325347100Y-47160750D01*
X345284050Y-51353024D02*
X345284050Y-51299699D01*
X328481425Y-44652149D02*
X327771850Y-44261174D01*
X326221150Y-49459649D02*
X329578525Y-46483649D01*
X325614850Y-49276124D02*
X326221150Y-49459649D01*
X325559875Y-48995399D02*
X325614850Y-49276124D01*
X345320725Y-51565799D02*
X345284050Y-51405899D01*
X345284050Y-51405899D02*
X345284050Y-51353024D01*
X326016850Y-44632574D02*
X325699075Y-45052199D01*
X345798400Y-50806124D02*
X345935125Y-50848874D01*
X325481425Y-45613199D02*
X325364275Y-46316024D01*
X326822575Y-44234699D02*
X326435200Y-44355074D01*
X328481425Y-44652149D02*
X327771850Y-44261174D01*
X345706825Y-50806124D02*
X345752800Y-50806124D01*
X345752800Y-51899924D02*
X345706825Y-51899924D01*
X345570100Y-51856799D02*
X345421150Y-51739574D01*
X345935125Y-50848874D02*
X346084075Y-50966024D01*
X346084075Y-51739574D02*
X345935125Y-51856799D01*
X327771850Y-44261174D02*
X327152200Y-44189474D01*
X329083750Y-45393149D02*
X328481425Y-44652149D01*
X329480425Y-46202099D02*
X329083750Y-45393149D01*
X345706825Y-51899924D02*
X345570100Y-51856799D01*
X346184575Y-51139799D02*
X346221550Y-51299699D01*
X345570100Y-50848874D02*
X345706825Y-50806124D01*
X325481425Y-45613199D02*
X325364275Y-46316024D01*
X325699075Y-45052199D02*
X325481425Y-45613199D01*
X326435200Y-44355074D02*
X326016850Y-44632574D01*
X345421150Y-50966024D02*
X345570100Y-50848874D01*
X327152200Y-44189474D02*
X326954350Y-44219999D01*
X345284050Y-51299699D02*
X345320725Y-51139799D01*
X345752800Y-50806124D02*
X345798400Y-50806124D01*
X326954350Y-44219999D02*
X326822575Y-44234699D01*
X329083750Y-45393149D02*
X328481425Y-44652149D01*
X326435200Y-44355074D02*
X326016850Y-44632574D01*
X329578525Y-46483649D02*
X329480425Y-46202099D01*
X346221550Y-51353024D02*
X346221550Y-51353024D01*
X325347100Y-47160750D02*
X325430950Y-48147525D01*
X325699075Y-45052199D02*
X325481425Y-45613199D01*
X345421150Y-51739574D02*
X345320725Y-51565799D01*
X346221550Y-51299699D02*
X346221550Y-51353024D01*
X345320725Y-51139799D02*
X345421150Y-50966024D01*
X346332250Y-50101349D02*
X346336675Y-50058224D01*
X345049675Y-49787699D02*
X345070825Y-49662374D01*
X345596575Y-49871024D02*
X345574975Y-49996424D01*
X345596575Y-49829549D02*
X345596575Y-49871024D01*
X346423450Y-49888574D02*
X346565800Y-49811249D01*
X345574975Y-49996424D02*
X345516325Y-50133149D01*
X345070825Y-49662374D02*
X345129475Y-49525649D01*
X344659075Y-50962424D02*
X344659075Y-50934674D01*
X345349600Y-49399874D02*
X345429325Y-49433624D01*
X346184575Y-51565799D02*
X346084075Y-51739574D01*
X346221550Y-51405899D02*
X346184575Y-51565799D01*
X346221550Y-51353024D02*
X346221550Y-51405899D01*
X344971525Y-50934674D02*
X344971525Y-50962424D01*
X344842600Y-50806124D02*
X344925625Y-50851649D01*
X344659075Y-50989649D02*
X344659075Y-50962424D01*
X344704675Y-51072674D02*
X344659075Y-50989649D01*
X346753000Y-49923149D02*
X346803025Y-50107049D01*
X346327825Y-50144174D02*
X346332250Y-50101349D01*
X346798525Y-50150174D02*
X346794025Y-50192924D01*
X345574975Y-49662374D02*
X345596575Y-49787699D01*
X345596575Y-49829549D02*
X345596575Y-49829549D01*
X344787625Y-51118649D02*
X344704675Y-51072674D01*
X345129475Y-49525649D02*
X345216550Y-49433624D01*
X345516325Y-50133149D02*
X345429325Y-50225099D01*
X344925625Y-50851649D02*
X344971525Y-50934674D01*
X344815300Y-50806124D02*
X344842600Y-50806124D01*
X344815300Y-51118649D02*
X344787625Y-51118649D01*
X345296275Y-49399874D02*
X345323125Y-49399874D01*
X345216550Y-49433624D02*
X345296275Y-49399874D01*
X344842600Y-51118649D02*
X344815300Y-51118649D01*
X344925625Y-51072674D02*
X344842600Y-51118649D01*
X347838250Y-50131424D02*
X347949250Y-50397599D01*
X344971525Y-50989649D02*
X344925625Y-51072674D01*
X344971525Y-50962424D02*
X344971525Y-50989649D01*
X346798525Y-50150174D02*
X346798525Y-50150174D01*
X346803025Y-50107049D02*
X346798525Y-50150174D01*
X346630075Y-49818224D02*
X346753000Y-49923149D01*
X345070825Y-49996424D02*
X345049675Y-49871024D01*
X345596575Y-49787699D02*
X345596575Y-49829549D01*
X346532800Y-50436674D02*
X346500325Y-50432999D01*
X345429325Y-49433624D02*
X345516325Y-49525649D01*
X346564975Y-50439899D02*
X346532800Y-50436674D01*
X346706950Y-50362574D02*
X346564975Y-50439899D01*
X346597900Y-49814924D02*
X346630075Y-49818224D01*
X346565800Y-49811249D02*
X346597900Y-49814924D01*
X346377400Y-50327999D02*
X346327825Y-50144174D01*
X345216550Y-50225099D02*
X345129475Y-50133149D01*
X345349600Y-50259299D02*
X345323125Y-50259299D01*
X345429325Y-50225099D02*
X345349600Y-50259299D01*
X345129475Y-50133149D02*
X345070825Y-49996424D01*
X345049675Y-49871024D02*
X345049675Y-49829549D01*
X346794025Y-50192924D02*
X346706950Y-50362574D01*
X345323125Y-50259299D02*
X345296275Y-50259299D01*
X347416675Y-49370999D02*
X347838250Y-50131424D01*
X345516325Y-49525649D02*
X345574975Y-49662374D01*
X346500325Y-50432999D02*
X346377400Y-50327999D01*
X345049675Y-49829549D02*
X345049675Y-49787699D01*
X345296275Y-50259299D02*
X345216550Y-50225099D01*
X345323125Y-49399874D02*
X345349600Y-49399874D01*
X344971525Y-50962424D02*
X344971525Y-50962424D01*
X344787625Y-50806124D02*
X344815300Y-50806124D01*
X344704675Y-50851649D02*
X344787625Y-50806124D01*
X344659075Y-50934674D02*
X344704675Y-50851649D01*
X346336675Y-50058224D02*
X346423450Y-49888574D01*
X334494250Y-47086649D02*
X334525225Y-47321849D01*
X334446625Y-47631149D02*
X334335625Y-47791050D01*
X333459850Y-47164349D02*
X333483550Y-47105399D01*
X333404575Y-47414549D02*
X333436375Y-47222999D01*
X338286999Y-49213499D02*
X338674750Y-49154924D01*
X335812600Y-47980200D02*
X335813875Y-48069674D01*
X336164125Y-48505124D02*
X336592975Y-48480749D01*
X334257475Y-46785524D02*
X334386025Y-46892625D01*
X333721525Y-47970824D02*
X333672250Y-47950949D01*
X335813875Y-48069674D02*
X335904175Y-48338324D01*
X334335625Y-47791050D02*
X334150000Y-47938724D01*
X334386025Y-46892625D02*
X334494250Y-47086649D01*
X333435475Y-47649824D02*
X333404575Y-47414549D01*
X333770425Y-47990400D02*
X333721525Y-47970824D01*
X333779800Y-46797824D02*
X333992575Y-46733849D01*
X333672250Y-47950949D02*
X333544150Y-47843850D01*
X333594175Y-46945424D02*
X333779800Y-46797824D01*
X337190424Y-48264974D02*
X337250200Y-48403424D01*
X343839550Y-52538324D02*
X343766725Y-51477524D01*
X337250200Y-48403424D02*
X337492675Y-48792374D01*
X334470325Y-47572500D02*
X334470325Y-47572500D01*
X333779800Y-46797824D02*
X333992575Y-46733849D01*
X333594175Y-46945424D02*
X333779800Y-46797824D01*
X334493875Y-47513925D02*
X334470325Y-47572500D01*
X334208650Y-46766024D02*
X334257475Y-46785524D01*
X346819675Y-48690599D02*
X347416675Y-49370999D01*
X334470325Y-47572500D02*
X334446625Y-47631149D01*
X346158850Y-48355799D02*
X346819675Y-48690599D01*
X345605950Y-48324900D02*
X346158850Y-48355799D01*
X345434125Y-48366749D02*
X345605950Y-48324900D01*
X345299875Y-48378974D02*
X345434125Y-48366749D01*
X344905600Y-48497774D02*
X345299875Y-48378974D01*
X344149600Y-49225274D02*
X344477575Y-48784274D01*
X343921750Y-49820999D02*
X344149600Y-49225274D01*
X334386025Y-46892625D02*
X334494250Y-47086649D01*
X334470325Y-47572500D02*
X334470325Y-47572500D01*
X343766725Y-51477524D02*
X343794400Y-50572199D01*
X333483550Y-47105399D02*
X333594175Y-46945424D01*
X333544150Y-47843850D02*
X333435475Y-47649824D01*
X343960825Y-53451449D02*
X343839550Y-52538324D01*
X338674750Y-49154924D02*
X338793924Y-49109399D01*
X334159375Y-46746074D02*
X334208650Y-46766024D01*
X337856050Y-49108124D02*
X338286999Y-49213499D01*
X335904175Y-48338324D02*
X336164125Y-48505124D01*
X337492675Y-48792374D02*
X337856050Y-49108124D01*
X334525225Y-47321849D02*
X334493875Y-47513925D01*
X333992575Y-46733849D02*
X334159375Y-46746074D01*
X334159375Y-46746074D02*
X334208650Y-46766024D01*
X334257475Y-46785524D02*
X334386025Y-46892625D01*
X334150000Y-47938724D02*
X333937150Y-48002624D01*
X337046350Y-48330525D02*
X337190424Y-48264974D01*
X333992575Y-46733849D02*
X334159375Y-46746074D01*
X334494250Y-47086649D02*
X334525225Y-47321849D01*
X334493875Y-47513925D02*
X334470325Y-47572500D01*
X334525225Y-47321849D02*
X334493875Y-47513925D01*
X333937150Y-48002624D02*
X333770425Y-47990400D01*
X334208650Y-46766024D02*
X334257475Y-46785524D01*
X333483550Y-47105399D02*
X333594175Y-46945424D01*
X333436375Y-47222999D02*
X333459850Y-47164349D01*
X333459850Y-47164349D02*
X333483550Y-47105399D01*
X336592975Y-48480749D02*
X337046350Y-48330525D01*
X344477575Y-48784274D02*
X344905600Y-48497774D01*
X343794400Y-50572199D02*
X343921750Y-49820999D01*
X344012875Y-53753774D02*
X343960825Y-53451449D01*
X342826750Y-49375949D02*
X342870700Y-49398224D01*
X333721525Y-47970824D02*
X333672250Y-47950949D01*
X342624550Y-49334774D02*
X342782350Y-49353149D01*
X342930925Y-50294699D02*
X342802000Y-50459474D01*
X342143950Y-50605949D02*
X342036100Y-50489174D01*
X333770425Y-47990400D02*
X333721525Y-47970824D01*
X342993250Y-50173049D02*
X342962275Y-50234024D01*
X342188350Y-50628749D02*
X342143950Y-50605949D01*
X342411775Y-49395374D02*
X342624550Y-49334774D01*
X342083725Y-49709549D02*
X342212800Y-49544774D01*
X333937150Y-48002624D02*
X333770425Y-47990400D01*
X342993250Y-50173049D02*
X342962275Y-50234024D01*
X342930925Y-50294699D02*
X342802000Y-50459474D01*
X342962275Y-50234024D02*
X342962275Y-50234024D01*
X334470325Y-47572500D02*
X334446625Y-47631149D01*
X334150000Y-47938724D02*
X333937150Y-48002624D01*
X342870700Y-49398224D02*
X342978550Y-49514999D01*
X341960125Y-50281274D02*
X341964175Y-50032199D01*
X343050625Y-49971974D02*
X342993250Y-50173049D01*
X336103525Y-41535749D02*
X335963500Y-41798099D01*
X342826750Y-49375949D02*
X342870700Y-49398224D01*
X342232300Y-50651174D02*
X342188350Y-50628749D01*
X342962275Y-50234024D02*
X342962275Y-50234024D01*
X342978550Y-49514999D02*
X343054675Y-49723049D01*
X342802000Y-50459474D02*
X342603400Y-50608724D01*
X342083725Y-49709549D02*
X342212800Y-49544774D01*
X342022000Y-49831274D02*
X342052825Y-49770599D01*
X342603400Y-50608724D02*
X342390175Y-50669399D01*
X342022000Y-49831274D02*
X342052825Y-49770599D01*
X342390175Y-50669399D02*
X342232300Y-50651174D01*
X343050625Y-49971974D02*
X342993250Y-50173049D01*
X342036100Y-50489174D02*
X341960125Y-50281274D01*
X341964175Y-50032199D02*
X342022000Y-49831274D01*
X342802000Y-50459474D02*
X342603400Y-50608724D01*
X342232300Y-50651174D02*
X342188350Y-50628749D01*
X342390175Y-50669399D02*
X342232300Y-50651174D01*
X334335625Y-47791050D02*
X334150000Y-47938724D01*
X342782350Y-49353149D02*
X342826750Y-49375949D01*
X342143950Y-50605949D02*
X342036100Y-50489174D01*
X341960125Y-50281274D02*
X341964175Y-50032199D01*
X342624550Y-49334774D02*
X342782350Y-49353149D01*
X343054675Y-49723049D02*
X343050625Y-49971974D01*
X342978550Y-49514999D02*
X343054675Y-49723049D01*
X342962275Y-50234024D02*
X342930925Y-50294699D01*
X342962275Y-50234024D02*
X342930925Y-50294699D01*
X342052825Y-49770599D02*
X342083725Y-49709549D01*
X342212800Y-49544774D02*
X342411775Y-49395374D01*
X333436375Y-47222999D02*
X333459850Y-47164349D01*
X334446625Y-47631149D02*
X334335625Y-47791050D01*
X343054675Y-49723049D02*
X343050625Y-49971974D01*
X342212800Y-49544774D02*
X342411775Y-49395374D01*
X342036100Y-50489174D02*
X341960125Y-50281274D01*
X342188350Y-50628749D02*
X342143950Y-50605949D01*
X342603400Y-50608724D02*
X342390175Y-50669399D01*
X342782350Y-49353149D02*
X342826750Y-49375949D01*
X335963500Y-41798099D02*
X335963500Y-41798099D01*
X342052825Y-49770599D02*
X342083725Y-49709549D01*
X333404575Y-47414549D02*
X333436375Y-47222999D01*
X341964175Y-50032199D02*
X342022000Y-49831274D01*
X333435475Y-47649824D02*
X333404575Y-47414549D01*
X342870700Y-49398224D02*
X342978550Y-49514999D01*
X333544150Y-47843850D02*
X333435475Y-47649824D01*
X333672250Y-47950949D02*
X333544150Y-47843850D01*
X342411775Y-49395374D02*
X342624550Y-49334774D01*
X347471950Y-54554024D02*
X351531250Y-55518449D01*
X350998975Y-50207174D02*
X351009175Y-49846649D01*
X334647700Y-51496649D02*
X338353750Y-52382474D01*
X348223525Y-45306899D02*
X346727275Y-44171249D01*
X352800325Y-55367474D02*
X352160275Y-53044499D01*
X351341575Y-48445274D02*
X351458725Y-48006225D01*
X351009175Y-49846649D02*
X351039250Y-49501274D01*
X331341550Y-43657724D02*
X329988250Y-44530499D01*
X325867600Y-49375124D02*
X326941375Y-49638299D01*
X329988250Y-44530499D02*
X328728100Y-45529874D01*
X336551950Y-40764299D02*
X336103525Y-41535749D01*
X337843825Y-39435299D02*
X337796274Y-39435299D01*
X337986625Y-39466274D02*
X337843825Y-39435299D01*
X340554700Y-41850224D02*
X339946750Y-41798099D01*
X349813225Y-45050099D02*
X348958000Y-45556349D01*
X351869350Y-45281249D02*
X351799750Y-44712374D01*
X327561850Y-46655324D02*
X326489275Y-47907374D01*
X332788525Y-42911474D02*
X331341550Y-43657724D01*
X326941375Y-49638299D02*
X328941625Y-50124599D01*
X351591025Y-47393849D02*
X351650425Y-47086274D01*
X351799750Y-46157699D02*
X351869350Y-45281249D01*
X338149450Y-39563024D02*
X337986625Y-39466274D01*
X351039250Y-49501274D02*
X351088075Y-49239599D01*
X337053625Y-40025699D02*
X336551950Y-40764299D01*
X338308975Y-39730274D02*
X338149450Y-39563024D01*
X351155650Y-49010924D02*
X351240325Y-48763124D01*
X352884550Y-55839899D02*
X352800325Y-55367474D01*
X328728100Y-45529874D02*
X327561850Y-46655324D01*
X351088075Y-49239599D02*
X351155650Y-49010924D01*
X338491225Y-39973199D02*
X338308975Y-39730274D01*
X338720724Y-40296674D02*
X338491225Y-39973199D01*
X342362050Y-42204299D02*
X340554700Y-41850224D01*
X338353750Y-52382474D02*
X342628600Y-53401349D01*
X325510300Y-49285949D02*
X325867600Y-49375124D01*
X325739350Y-48931124D02*
X325510300Y-49285949D01*
X326489275Y-47907374D02*
X325739350Y-48931124D01*
X331510075Y-50743874D02*
X334647700Y-51496649D01*
X351536125Y-44362049D02*
X351269575Y-44384474D01*
X351650425Y-47086274D02*
X351799750Y-46157699D01*
X351591025Y-44401574D02*
X351536125Y-44362049D01*
X351458725Y-48006225D02*
X351560950Y-47547299D01*
X351662200Y-44452424D02*
X351591025Y-44401574D01*
X352160275Y-53044499D02*
X351228850Y-50773949D01*
X337468300Y-39582599D02*
X337053625Y-40025699D01*
X339023125Y-40705199D02*
X338720724Y-40296674D01*
X339423025Y-41204024D02*
X339023125Y-40705199D01*
X339812500Y-41652524D02*
X339423025Y-41204024D01*
X342628600Y-53401349D02*
X347471950Y-54554024D01*
X344622400Y-42995324D02*
X342362050Y-42204299D01*
X350677075Y-44600924D02*
X349813225Y-45050099D01*
X351228850Y-50773949D02*
X350998975Y-50327624D01*
X339946750Y-41798099D02*
X339812500Y-41652524D01*
X328941625Y-50124599D02*
X331510075Y-50743874D01*
X351799750Y-44712374D02*
X351662200Y-44452424D01*
X351560950Y-47547299D02*
X351591025Y-47393849D01*
X346727275Y-44171249D02*
X344622400Y-42995324D01*
X351269575Y-44384474D02*
X350677075Y-44600924D01*
X350998975Y-50327624D02*
X350998975Y-50207174D01*
X351240325Y-48763124D02*
X351341575Y-48445274D01*
X337714074Y-39435299D02*
X337468300Y-39582599D01*
X351531250Y-55518449D02*
X352884550Y-55839899D01*
X337796274Y-39435299D02*
X337714074Y-39435299D01*
X348678025Y-45732525D02*
X348223525Y-45306899D01*
X348958000Y-45556349D02*
X348678025Y-45732525D01*
X345835375Y-61031549D02*
X345839875Y-61021799D01*
X345528250Y-64151249D02*
X345474475Y-64238774D01*
X349223650Y-57643349D02*
X349202875Y-57744599D01*
X327056950Y-56666774D02*
X325094875Y-56206124D01*
X342876475Y-58475024D02*
X345010600Y-54907724D01*
X345430900Y-63884774D02*
X345486625Y-63374924D01*
X345568075Y-62765400D02*
X345658825Y-62140724D01*
X345839875Y-61021799D02*
X345844375Y-61011674D01*
X346416850Y-59907674D02*
X321807475Y-54126449D01*
X345844375Y-61011674D02*
X345982675Y-60800849D01*
X331361125Y-57686024D02*
X329367250Y-57213224D01*
X349025500Y-58129574D02*
X348842350Y-58472624D01*
X320732050Y-55251524D02*
X320542825Y-55216949D01*
X345474475Y-64238774D02*
X345455425Y-64266899D01*
X348074125Y-57642899D02*
X348613750Y-56834399D01*
X345839875Y-61021799D02*
X345839875Y-61021799D01*
X347370625Y-61051124D02*
X347032900Y-61626899D01*
X320513125Y-55242149D02*
X320513125Y-55242149D01*
X345668500Y-63921374D02*
X345528250Y-64151249D01*
X345658825Y-62140724D02*
X345744700Y-61585274D01*
X345486625Y-63374924D02*
X345568075Y-62765400D01*
X346869775Y-59457299D02*
X347468350Y-58553924D01*
X347468350Y-58553924D02*
X348074125Y-57642899D01*
X321299650Y-55354049D02*
X320732050Y-55251524D01*
X349297675Y-56625224D02*
X349261525Y-57266549D01*
X345982675Y-60800849D02*
X346350475Y-60242999D01*
X329367250Y-57213224D02*
X327056950Y-56666774D01*
X323481025Y-55832999D02*
X322215999Y-55548524D01*
X345455425Y-64266899D02*
X345415075Y-64210274D01*
X346393600Y-62709974D02*
X346110925Y-63184875D01*
X345455425Y-64266899D02*
X345455425Y-64266899D01*
X345865900Y-63594299D02*
X345668500Y-63921374D01*
X347032900Y-61626899D02*
X346704175Y-62185124D01*
X349207000Y-55963649D02*
X349287175Y-56098349D01*
X349261525Y-57266549D02*
X349223650Y-57643349D01*
X348335800Y-59379599D02*
X348031450Y-59911349D01*
X325094875Y-56206124D02*
X323481025Y-55832999D01*
X334329025Y-42291374D02*
X332788525Y-42911474D01*
X335550175Y-41903549D02*
X334329025Y-42291374D01*
X345810175Y-61184174D02*
X345835375Y-61031549D01*
X345744700Y-61585274D02*
X345810175Y-61184174D01*
X349202875Y-57744599D02*
X349195600Y-57779999D01*
X348031450Y-59911349D02*
X347706325Y-60474074D01*
X349207000Y-55963649D02*
X349207000Y-55963649D01*
X348609250Y-58894499D02*
X348335800Y-59379599D01*
X348842350Y-58472624D02*
X348609250Y-58894499D01*
X345415075Y-64210274D02*
X345430900Y-63884774D01*
X320542825Y-55216949D02*
X320513125Y-55242149D01*
X349165900Y-56014499D02*
X349207000Y-55963649D01*
X348613750Y-56834399D02*
X349015750Y-56237924D01*
X335963500Y-41798099D02*
X335550175Y-41903549D01*
X349287175Y-56098349D02*
X349297675Y-56625224D01*
X347706325Y-60474074D02*
X347370625Y-61051124D01*
X334580950Y-56587424D02*
X336963775Y-53032724D01*
X326535700Y-54925649D02*
X329353150Y-51019349D01*
X330440275Y-55727999D02*
X332979400Y-52095224D01*
X322215999Y-55548524D02*
X321299650Y-55354049D01*
X346704175Y-62185124D02*
X346393600Y-62709974D01*
X338526250Y-57798299D02*
X341182525Y-54204599D01*
X346110925Y-63184875D02*
X345865900Y-63594299D01*
X349149175Y-57881324D02*
X349025500Y-58129574D01*
X346350475Y-60242999D02*
X346869775Y-59457299D01*
X349195600Y-57779999D02*
X349149175Y-57881324D01*
X349015750Y-56237924D02*
X349165900Y-56014499D01*
X345804850Y-61099499D02*
X345199750Y-60956699D01*
X320277925Y-56018099D02*
X320183950Y-56820899D01*
X345367900Y-64337174D02*
X345804850Y-61099499D01*
X325620925Y-50082674D02*
X325620925Y-50082674D01*
X349152100Y-55934699D02*
X325620925Y-50082674D01*
X320387800Y-55491974D02*
X320277925Y-56018099D01*
X332026000Y-57843824D02*
X331361125Y-57686024D01*
X332281975Y-57904574D02*
X332026000Y-57843824D01*
X339143125Y-59527274D02*
X337321450Y-59097149D01*
X320183950Y-56820899D02*
X320120950Y-57630299D01*
X337321450Y-59097149D02*
X335698600Y-58713449D01*
X320105425Y-57900374D02*
X345367900Y-64337174D01*
X320468725Y-55279124D02*
X320387800Y-55491974D01*
X333051025Y-58086899D02*
X332281975Y-57904574D01*
X325620925Y-50082674D02*
X320591275Y-55133549D01*
X334274950Y-58376999D02*
X333051025Y-58086899D01*
X335698600Y-58713449D02*
X334274950Y-58376999D01*
X341164600Y-60004574D02*
X339143125Y-59527274D01*
X320513125Y-55242149D02*
X320468725Y-55279124D01*
X343385125Y-60528674D02*
X341164600Y-60004574D01*
X345897250Y-61101974D02*
X349152100Y-55934699D01*
X320591275Y-55133549D02*
X345897250Y-61101974D01*
X345199750Y-60956699D02*
X343385125Y-60528674D01*
X320120950Y-57630299D02*
X320105425Y-57900374D01*
X327432475Y-46587374D02*
X327466675Y-46587374D01*
X327784075Y-47173349D02*
X327784075Y-47173349D01*
X327295375Y-46633349D02*
X327397900Y-46587374D01*
X327680725Y-46758749D02*
X327756325Y-46945124D01*
X327183850Y-46758749D02*
X327295375Y-46633349D01*
X327108250Y-46945124D02*
X327183850Y-46758749D01*
X327080950Y-47115900D02*
X327108250Y-46945124D01*
X327108250Y-47401125D02*
X327080950Y-47230275D01*
X327080950Y-47230275D02*
X327080950Y-47173349D01*
X327080950Y-47173349D02*
X327080950Y-47115900D01*
X327569275Y-46633349D02*
X327680725Y-46758749D01*
X327784075Y-47115900D02*
X327784075Y-47173349D01*
X327295375Y-47712899D02*
X327183850Y-47587574D01*
X352867075Y-55843499D02*
X368760625Y-59673299D01*
X327756325Y-46945124D02*
X327784075Y-47115900D01*
X327183850Y-47587574D02*
X327108250Y-47401125D01*
X327466675Y-46587374D02*
X327569275Y-46633349D01*
X327397900Y-46587374D02*
X327432475Y-46587374D01*
X326355400Y-46688774D02*
X326331850Y-46571174D01*
X326474275Y-46770524D02*
X326453125Y-46766474D01*
X326643550Y-46604474D02*
X326638225Y-46630950D01*
X327784075Y-47230275D02*
X327756325Y-47401125D01*
X326341975Y-46518224D02*
X326407900Y-46417724D01*
X326915275Y-45884249D02*
X326770075Y-45804074D01*
X326624800Y-46460024D02*
X326648425Y-46577624D01*
X327397900Y-47759249D02*
X327295375Y-47712899D01*
X328294225Y-46177574D02*
X328173400Y-46232999D01*
X327237175Y-45562424D02*
X327237175Y-45610799D01*
X327432475Y-47759249D02*
X327397900Y-47759249D01*
X327466675Y-47759249D02*
X327432475Y-47759249D01*
X327569275Y-47712899D02*
X327466675Y-47759249D01*
X326690275Y-45610799D02*
X326690275Y-45562424D01*
X326770075Y-45804074D02*
X326690275Y-45658874D01*
X328361425Y-46011225D02*
X328361425Y-46044599D01*
X327237175Y-45610799D02*
X327237175Y-45658874D01*
X326915275Y-45337424D02*
X326963725Y-45337424D01*
X327904900Y-46044599D02*
X327904900Y-46011225D01*
X328092475Y-46232999D02*
X327971650Y-46177574D01*
X327904900Y-46077524D02*
X327904900Y-46044599D01*
X326963725Y-45337424D02*
X327011725Y-45337424D01*
X326648425Y-46577624D02*
X326643550Y-46604474D01*
X327680725Y-47587574D02*
X327569275Y-47712899D01*
X327756325Y-47401125D02*
X327680725Y-47587574D01*
X328294225Y-45911174D02*
X328361425Y-46011225D01*
X326337100Y-46544699D02*
X326341975Y-46518224D01*
X328361425Y-46044599D02*
X328361425Y-46077524D01*
X326643550Y-46604474D02*
X326643550Y-46604474D01*
X328173400Y-45856124D02*
X328294225Y-45911174D01*
X328133200Y-45856124D02*
X328173400Y-45856124D01*
X328092475Y-45856124D02*
X328133200Y-45856124D01*
X327971650Y-45911174D02*
X328092475Y-45856124D01*
X327904900Y-46011225D02*
X327971650Y-45911174D01*
X326453125Y-46766474D02*
X326431975Y-46761974D01*
X326963725Y-45884249D02*
X326915275Y-45884249D01*
X326572300Y-46730999D02*
X326474275Y-46770524D01*
X327971650Y-46177574D02*
X327904900Y-46077524D01*
X328173400Y-46232999D02*
X328133200Y-46232999D01*
X326407900Y-46417724D02*
X326506375Y-46378650D01*
X325364275Y-46316024D02*
X325347100Y-47160750D01*
X326431975Y-46761974D02*
X326355400Y-46688774D01*
X327237175Y-45610799D02*
X327237175Y-45610799D01*
X326690275Y-45658874D02*
X326690275Y-45610799D01*
X327157000Y-45417149D02*
X327237175Y-45562424D01*
X327011725Y-45337424D02*
X327157000Y-45417149D01*
X325347100Y-47160750D02*
X325430950Y-48147525D01*
X325430950Y-48147525D02*
X325559875Y-48995399D01*
X328133200Y-46232999D02*
X328092475Y-46232999D01*
X325614850Y-49276124D02*
X326221150Y-49459649D01*
X326506375Y-46378650D02*
X326527600Y-46382700D01*
X326638225Y-46630950D02*
X326572300Y-46730999D01*
X327237175Y-45658874D02*
X327157000Y-45804074D01*
X328361425Y-46077524D02*
X328294225Y-46177574D01*
X326527600Y-46382700D02*
X326548750Y-46386750D01*
X327157000Y-45804074D02*
X327011725Y-45884249D01*
X325559875Y-48995399D02*
X325614850Y-49276124D01*
X327011725Y-45884249D02*
X326963725Y-45884249D01*
X326331850Y-46571174D02*
X326337100Y-46544699D01*
X326770075Y-45417149D02*
X326915275Y-45337424D01*
X326690275Y-45562424D02*
X326770075Y-45417149D01*
X327784075Y-47173349D02*
X327784075Y-47230275D01*
X328361425Y-46044599D02*
X328361425Y-46044599D01*
X326548750Y-46386750D02*
X326624800Y-46460024D01*
D13*
X335605892Y-79493892D02*
X334605892Y-78065321D01*
X333891607Y-79493892D02*
X333891607Y-76493892D01*
X335034464Y-76493892D01*
X335320178Y-76636750D01*
X335463035Y-76779607D01*
X335605892Y-77065321D01*
X335605892Y-77493892D01*
X335463035Y-77779607D01*
X335320178Y-77922464D01*
X335034464Y-78065321D01*
X333891607Y-78065321D01*
X338034464Y-79351035D02*
X337748750Y-79493892D01*
X337177321Y-79493892D01*
X336891607Y-79351035D01*
X336748750Y-79065321D01*
X336748750Y-77922464D01*
X336891607Y-77636750D01*
X337177321Y-77493892D01*
X337748750Y-77493892D01*
X338034464Y-77636750D01*
X338177321Y-77922464D01*
X338177321Y-78208178D01*
X336748750Y-78493892D01*
X339177321Y-77493892D02*
X339891607Y-79493892D01*
X340605892Y-77493892D01*
X341748750Y-79208178D02*
X341891607Y-79351035D01*
X341748750Y-79493892D01*
X341605892Y-79351035D01*
X341748750Y-79208178D01*
X341748750Y-79493892D01*
X344748750Y-79493892D02*
X343034464Y-79493892D01*
X343891607Y-79493892D02*
X343891607Y-76493892D01*
X343605892Y-76922464D01*
X343320178Y-77208178D01*
X343034464Y-77351035D01*
X324179330Y-84256392D02*
X324554330Y-81256392D01*
X324411473Y-82399250D02*
X324715044Y-82256392D01*
X325286473Y-82256392D01*
X325554330Y-82399250D01*
X325679330Y-82542107D01*
X325786473Y-82827821D01*
X325679330Y-83684964D01*
X325500758Y-83970678D01*
X325340044Y-84113535D01*
X325036473Y-84256392D01*
X324465044Y-84256392D01*
X324197187Y-84113535D01*
X326857901Y-82256392D02*
X327322187Y-84256392D01*
X328286473Y-82256392D02*
X327322187Y-84256392D01*
X326947187Y-84970678D01*
X326786473Y-85113535D01*
X326482901Y-85256392D01*
X332768616Y-84113535D02*
X332465044Y-84256392D01*
X331893616Y-84256392D01*
X331625758Y-84113535D01*
X331500758Y-83970678D01*
X331393616Y-83684964D01*
X331500758Y-82827821D01*
X331679330Y-82542107D01*
X331840044Y-82399250D01*
X332143616Y-82256392D01*
X332715044Y-82256392D01*
X332982901Y-82399250D01*
X334000758Y-82256392D02*
X335572187Y-82256392D01*
X333750758Y-84256392D01*
X335322187Y-84256392D01*
X336286473Y-82256392D02*
X337429330Y-82256392D01*
X336840044Y-81256392D02*
X336518616Y-83827821D01*
X336625758Y-84113535D01*
X336893616Y-84256392D01*
X337179330Y-84256392D01*
X338179330Y-84256392D02*
X338429330Y-82256392D01*
X338357901Y-82827821D02*
X338536473Y-82542107D01*
X338697187Y-82399250D01*
X339000758Y-82256392D01*
X339286473Y-82256392D01*
X340465044Y-84256392D02*
X340197187Y-84113535D01*
X340072187Y-83970678D01*
X339965044Y-83684964D01*
X340072187Y-82827821D01*
X340250758Y-82542107D01*
X340411473Y-82399250D01*
X340715044Y-82256392D01*
X341143616Y-82256392D01*
X341411473Y-82399250D01*
X341536473Y-82542107D01*
X341643616Y-82827821D01*
X341536473Y-83684964D01*
X341357901Y-83970678D01*
X341197187Y-84113535D01*
X340893616Y-84256392D01*
X340465044Y-84256392D01*
X343179330Y-84256392D02*
X342911473Y-84113535D01*
X342804330Y-83827821D01*
X343125758Y-81256392D01*
X344750758Y-84256392D02*
X344482901Y-84113535D01*
X344375758Y-83827821D01*
X344697187Y-81256392D01*
X346322187Y-84256392D02*
X346054330Y-84113535D01*
X345929330Y-83970678D01*
X345822187Y-83684964D01*
X345929330Y-82827821D01*
X346107901Y-82542107D01*
X346268616Y-82399250D01*
X346572187Y-82256392D01*
X347000758Y-82256392D01*
X347268616Y-82399250D01*
X347393616Y-82542107D01*
X347500758Y-82827821D01*
X347393616Y-83684964D01*
X347215044Y-83970678D01*
X347054330Y-84113535D01*
X346750758Y-84256392D01*
X346322187Y-84256392D01*
X349036473Y-84256392D02*
X348768616Y-84113535D01*
X348661473Y-83827821D01*
X348982901Y-81256392D01*
X351482901Y-84113535D02*
X351179330Y-84256392D01*
X350607901Y-84256392D01*
X350340044Y-84113535D01*
X350215044Y-83970678D01*
X350107901Y-83684964D01*
X350215044Y-82827821D01*
X350393616Y-82542107D01*
X350554330Y-82399250D01*
X350857901Y-82256392D01*
X351429330Y-82256392D01*
X351697187Y-82399250D01*
X352715044Y-82256392D02*
X354286473Y-82256392D01*
X352465044Y-84256392D01*
X354036473Y-84256392D01*
X333677321Y-74445678D02*
X333534464Y-74588535D01*
X333105892Y-74731392D01*
X332820178Y-74731392D01*
X332391607Y-74588535D01*
X332105892Y-74302821D01*
X331963035Y-74017107D01*
X331820178Y-73445678D01*
X331820178Y-73017107D01*
X331963035Y-72445678D01*
X332105892Y-72159964D01*
X332391607Y-71874250D01*
X332820178Y-71731392D01*
X333105892Y-71731392D01*
X333534464Y-71874250D01*
X333677321Y-72017107D01*
X334677321Y-71731392D02*
X336677321Y-71731392D01*
X334677321Y-74731392D01*
X336677321Y-74731392D01*
X337391607Y-71731392D02*
X339105892Y-71731392D01*
X338248750Y-74731392D02*
X338248750Y-71731392D01*
X340105892Y-74731392D02*
X340105892Y-71731392D01*
X341820178Y-74731392D02*
X340534464Y-73017107D01*
X341820178Y-71731392D02*
X340105892Y-73445678D01*
X344248750Y-74588535D02*
X343963035Y-74731392D01*
X343391607Y-74731392D01*
X343105892Y-74588535D01*
X342963035Y-74302821D01*
X342963035Y-73159964D01*
X343105892Y-72874250D01*
X343391607Y-72731392D01*
X343963035Y-72731392D01*
X344248750Y-72874250D01*
X344391607Y-73159964D01*
X344391607Y-73445678D01*
X342963035Y-73731392D01*
X345391607Y-72731392D02*
X346105892Y-74731392D01*
X346820178Y-72731392D02*
X346105892Y-74731392D01*
X345820178Y-75445678D01*
X345677321Y-75588535D01*
X345391607Y-75731392D01*
D10*
X32125000Y-80352200D02*
G75*
G03X32125000Y-80352200I-7800000J0D01*
G01*
X318620000Y-51502400D02*
X316380000Y-51502400D01*
X318620000Y-51742400D02*
X316380000Y-51742400D01*
X318620000Y-51622400D02*
X316380000Y-51622400D01*
X317500000Y-55792400D02*
X317500000Y-55142400D01*
X317500000Y-50252400D02*
X317500000Y-50902400D01*
X318620000Y-55142400D02*
X318620000Y-50902400D01*
X316380000Y-55142400D02*
X318620000Y-55142400D01*
X316380000Y-50902400D02*
X316380000Y-55142400D01*
X318620000Y-50902400D02*
X316380000Y-50902400D01*
X267884000Y-43596800D02*
X265644000Y-43596800D01*
X267884000Y-43836800D02*
X265644000Y-43836800D01*
X267884000Y-43716800D02*
X265644000Y-43716800D01*
X266764000Y-47886800D02*
X266764000Y-47236800D01*
X266764000Y-42346800D02*
X266764000Y-42996800D01*
X267884000Y-47236800D02*
X267884000Y-42996800D01*
X265644000Y-47236800D02*
X267884000Y-47236800D01*
X265644000Y-42996800D02*
X265644000Y-47236800D01*
X267884000Y-42996800D02*
X265644000Y-42996800D01*
X112245000Y-60233800D02*
X110005000Y-60233800D01*
X112245000Y-60473800D02*
X110005000Y-60473800D01*
X112245000Y-60353800D02*
X110005000Y-60353800D01*
X111125000Y-64523800D02*
X111125000Y-63873800D01*
X111125000Y-58983800D02*
X111125000Y-59633800D01*
X112245000Y-63873800D02*
X112245000Y-59633800D01*
X110005000Y-63873800D02*
X112245000Y-63873800D01*
X110005000Y-59633800D02*
X110005000Y-63873800D01*
X112245000Y-59633800D02*
X110005000Y-59633800D01*
X108276000Y-59440000D02*
X106036000Y-59440000D01*
X108276000Y-59680000D02*
X106036000Y-59680000D01*
X108276000Y-59560000D02*
X106036000Y-59560000D01*
X107156000Y-63730000D02*
X107156000Y-63080000D01*
X107156000Y-58190000D02*
X107156000Y-58840000D01*
X108276000Y-63080000D02*
X108276000Y-58840000D01*
X106036000Y-63080000D02*
X108276000Y-63080000D01*
X106036000Y-58840000D02*
X106036000Y-63080000D01*
X108276000Y-58840000D02*
X106036000Y-58840000D01*
X104307000Y-58646200D02*
X102067000Y-58646200D01*
X104307000Y-58886200D02*
X102067000Y-58886200D01*
X104307000Y-58766200D02*
X102067000Y-58766200D01*
X103187000Y-62936200D02*
X103187000Y-62286200D01*
X103187000Y-57396200D02*
X103187000Y-58046200D01*
X104307000Y-62286200D02*
X104307000Y-58046200D01*
X102067000Y-62286200D02*
X104307000Y-62286200D01*
X102067000Y-58046200D02*
X102067000Y-62286200D01*
X104307000Y-58046200D02*
X102067000Y-58046200D01*
X100338500Y-57852500D02*
X98098500Y-57852500D01*
X100338500Y-58092500D02*
X98098500Y-58092500D01*
X100338500Y-57972500D02*
X98098500Y-57972500D01*
X99218500Y-62142500D02*
X99218500Y-61492500D01*
X99218500Y-56602500D02*
X99218500Y-57252500D01*
X100338500Y-61492500D02*
X100338500Y-57252500D01*
X98098500Y-61492500D02*
X100338500Y-61492500D01*
X98098500Y-57252500D02*
X98098500Y-61492500D01*
X100338500Y-57252500D02*
X98098500Y-57252500D01*
X96369800Y-57058700D02*
X94129800Y-57058700D01*
X96369800Y-57298700D02*
X94129800Y-57298700D01*
X96369800Y-57178700D02*
X94129800Y-57178700D01*
X95249800Y-61348700D02*
X95249800Y-60698700D01*
X95249800Y-55808700D02*
X95249800Y-56458700D01*
X96369800Y-60698700D02*
X96369800Y-56458700D01*
X94129800Y-60698700D02*
X96369800Y-60698700D01*
X94129800Y-56458700D02*
X94129800Y-60698700D01*
X96369800Y-56458700D02*
X94129800Y-56458700D01*
X309888000Y-61027400D02*
X307648000Y-61027400D01*
X309888000Y-61267400D02*
X307648000Y-61267400D01*
X309888000Y-61147400D02*
X307648000Y-61147400D01*
X308768000Y-65317400D02*
X308768000Y-64667400D01*
X308768000Y-59777400D02*
X308768000Y-60427400D01*
X309888000Y-64667400D02*
X309888000Y-60427400D01*
X307648000Y-64667400D02*
X309888000Y-64667400D01*
X307648000Y-60427400D02*
X307648000Y-64667400D01*
X309888000Y-60427400D02*
X307648000Y-60427400D01*
X283696000Y-61027400D02*
X281456000Y-61027400D01*
X283696000Y-61267400D02*
X281456000Y-61267400D01*
X283696000Y-61147400D02*
X281456000Y-61147400D01*
X282576000Y-65317400D02*
X282576000Y-64667400D01*
X282576000Y-59777400D02*
X282576000Y-60427400D01*
X283696000Y-64667400D02*
X283696000Y-60427400D01*
X281456000Y-64667400D02*
X283696000Y-64667400D01*
X281456000Y-60427400D02*
X281456000Y-64667400D01*
X283696000Y-60427400D02*
X281456000Y-60427400D01*
X283758000Y-46771800D02*
X281518000Y-46771800D01*
X283758000Y-47011800D02*
X281518000Y-47011800D01*
X283758000Y-46891800D02*
X281518000Y-46891800D01*
X282638000Y-51061800D02*
X282638000Y-50411800D01*
X282638000Y-45521800D02*
X282638000Y-46171800D01*
X283758000Y-50411800D02*
X283758000Y-46171800D01*
X281518000Y-50411800D02*
X283758000Y-50411800D01*
X281518000Y-46171800D02*
X281518000Y-50411800D01*
X283758000Y-46171800D02*
X281518000Y-46171800D01*
X257502000Y-61821200D02*
X255262000Y-61821200D01*
X257502000Y-62061200D02*
X255262000Y-62061200D01*
X257502000Y-61941200D02*
X255262000Y-61941200D01*
X256382000Y-66111200D02*
X256382000Y-65461200D01*
X256382000Y-60571200D02*
X256382000Y-61221200D01*
X257502000Y-65461200D02*
X257502000Y-61221200D01*
X255262000Y-65461200D02*
X257502000Y-65461200D01*
X255262000Y-61221200D02*
X255262000Y-65461200D01*
X257502000Y-61221200D02*
X255262000Y-61221200D01*
X257565000Y-47565600D02*
X255325000Y-47565600D01*
X257565000Y-47805600D02*
X255325000Y-47805600D01*
X257565000Y-47685600D02*
X255325000Y-47685600D01*
X256445000Y-51855600D02*
X256445000Y-51205600D01*
X256445000Y-46315600D02*
X256445000Y-46965600D01*
X257565000Y-51205600D02*
X257565000Y-46965600D01*
X255325000Y-51205600D02*
X257565000Y-51205600D01*
X255325000Y-46965600D02*
X255325000Y-51205600D01*
X257565000Y-46965600D02*
X255325000Y-46965600D01*
X202732000Y-57852500D02*
X200492000Y-57852500D01*
X202732000Y-58092500D02*
X200492000Y-58092500D01*
X202732000Y-57972500D02*
X200492000Y-57972500D01*
X201612000Y-62142500D02*
X201612000Y-61492500D01*
X201612000Y-56602500D02*
X201612000Y-57252500D01*
X202732000Y-61492500D02*
X202732000Y-57252500D01*
X200492000Y-61492500D02*
X202732000Y-61492500D01*
X200492000Y-57252500D02*
X200492000Y-61492500D01*
X202732000Y-57252500D02*
X200492000Y-57252500D01*
X202732000Y-44358800D02*
X200492000Y-44358800D01*
X202732000Y-44598800D02*
X200492000Y-44598800D01*
X202732000Y-44478800D02*
X200492000Y-44478800D01*
X201612000Y-48648800D02*
X201612000Y-47998800D01*
X201612000Y-43108800D02*
X201612000Y-43758800D01*
X202732000Y-47998800D02*
X202732000Y-43758800D01*
X200492000Y-47998800D02*
X202732000Y-47998800D01*
X200492000Y-43758800D02*
X200492000Y-47998800D01*
X202732000Y-43758800D02*
X200492000Y-43758800D01*
X141614000Y-61027500D02*
X139374000Y-61027500D01*
X141614000Y-61267500D02*
X139374000Y-61267500D01*
X141614000Y-61147500D02*
X139374000Y-61147500D01*
X140494000Y-65317500D02*
X140494000Y-64667500D01*
X140494000Y-59777500D02*
X140494000Y-60427500D01*
X141614000Y-64667500D02*
X141614000Y-60427500D01*
X139374000Y-64667500D02*
X141614000Y-64667500D01*
X139374000Y-60427500D02*
X139374000Y-64667500D01*
X141614000Y-60427500D02*
X139374000Y-60427500D01*
X141677000Y-47533800D02*
X139437000Y-47533800D01*
X141677000Y-47773800D02*
X139437000Y-47773800D01*
X141677000Y-47653800D02*
X139437000Y-47653800D01*
X140557000Y-51823800D02*
X140557000Y-51173800D01*
X140557000Y-46283800D02*
X140557000Y-46933800D01*
X141677000Y-51173800D02*
X141677000Y-46933800D01*
X139437000Y-51173800D02*
X141677000Y-51173800D01*
X139437000Y-46933800D02*
X139437000Y-51173800D01*
X141677000Y-46933800D02*
X139437000Y-46933800D01*
X279726000Y-60233700D02*
X277486000Y-60233700D01*
X279726000Y-60473700D02*
X277486000Y-60473700D01*
X279726000Y-60353700D02*
X277486000Y-60353700D01*
X278606000Y-64523700D02*
X278606000Y-63873700D01*
X278606000Y-58983700D02*
X278606000Y-59633700D01*
X279726000Y-63873700D02*
X279726000Y-59633700D01*
X277486000Y-63873700D02*
X279726000Y-63873700D01*
X277486000Y-59633700D02*
X277486000Y-63873700D01*
X279726000Y-59633700D02*
X277486000Y-59633700D01*
X305920000Y-60233700D02*
X303680000Y-60233700D01*
X305920000Y-60473700D02*
X303680000Y-60473700D01*
X305920000Y-60353700D02*
X303680000Y-60353700D01*
X304800000Y-64523700D02*
X304800000Y-63873700D01*
X304800000Y-58983700D02*
X304800000Y-59633700D01*
X305920000Y-63873700D02*
X305920000Y-59633700D01*
X303680000Y-63873700D02*
X305920000Y-63873700D01*
X303680000Y-59633700D02*
X303680000Y-63873700D01*
X305920000Y-59633700D02*
X303680000Y-59633700D01*
X253533000Y-61027400D02*
X251293000Y-61027400D01*
X253533000Y-61267400D02*
X251293000Y-61267400D01*
X253533000Y-61147400D02*
X251293000Y-61147400D01*
X252413000Y-65317400D02*
X252413000Y-64667400D01*
X252413000Y-59777400D02*
X252413000Y-60427400D01*
X253533000Y-64667400D02*
X253533000Y-60427400D01*
X251293000Y-64667400D02*
X253533000Y-64667400D01*
X251293000Y-60427400D02*
X251293000Y-64667400D01*
X253533000Y-60427400D02*
X251293000Y-60427400D01*
X253597000Y-46771800D02*
X251357000Y-46771800D01*
X253597000Y-47011800D02*
X251357000Y-47011800D01*
X253597000Y-46891800D02*
X251357000Y-46891800D01*
X252477000Y-51061800D02*
X252477000Y-50411800D01*
X252477000Y-45521800D02*
X252477000Y-46171800D01*
X253597000Y-50411800D02*
X253597000Y-46171800D01*
X251357000Y-50411800D02*
X253597000Y-50411800D01*
X251357000Y-46171800D02*
X251357000Y-50411800D01*
X253597000Y-46171800D02*
X251357000Y-46171800D01*
X198764000Y-57058800D02*
X196524000Y-57058800D01*
X198764000Y-57298800D02*
X196524000Y-57298800D01*
X198764000Y-57178800D02*
X196524000Y-57178800D01*
X197644000Y-61348800D02*
X197644000Y-60698800D01*
X197644000Y-55808800D02*
X197644000Y-56458800D01*
X198764000Y-60698800D02*
X198764000Y-56458800D01*
X196524000Y-60698800D02*
X198764000Y-60698800D01*
X196524000Y-56458800D02*
X196524000Y-60698800D01*
X198764000Y-56458800D02*
X196524000Y-56458800D01*
X309952000Y-46771800D02*
X307712000Y-46771800D01*
X309952000Y-47011800D02*
X307712000Y-47011800D01*
X309952000Y-46891800D02*
X307712000Y-46891800D01*
X308832000Y-51061800D02*
X308832000Y-50411800D01*
X308832000Y-45521800D02*
X308832000Y-46171800D01*
X309952000Y-50411800D02*
X309952000Y-46171800D01*
X307712000Y-50411800D02*
X309952000Y-50411800D01*
X307712000Y-46171800D02*
X307712000Y-50411800D01*
X309952000Y-46171800D02*
X307712000Y-46171800D01*
X226544000Y-61027400D02*
X224304000Y-61027400D01*
X226544000Y-61267400D02*
X224304000Y-61267400D01*
X226544000Y-61147400D02*
X224304000Y-61147400D01*
X225424000Y-65317400D02*
X225424000Y-64667400D01*
X225424000Y-59777400D02*
X225424000Y-60427400D01*
X226544000Y-64667400D02*
X226544000Y-60427400D01*
X224304000Y-64667400D02*
X226544000Y-64667400D01*
X224304000Y-60427400D02*
X224304000Y-64667400D01*
X226544000Y-60427400D02*
X224304000Y-60427400D01*
X226608000Y-46771800D02*
X224368000Y-46771800D01*
X226608000Y-47011800D02*
X224368000Y-47011800D01*
X226608000Y-46891800D02*
X224368000Y-46891800D01*
X225488000Y-51061800D02*
X225488000Y-50411800D01*
X225488000Y-45521800D02*
X225488000Y-46171800D01*
X226608000Y-50411800D02*
X226608000Y-46171800D01*
X224368000Y-50411800D02*
X226608000Y-50411800D01*
X224368000Y-46171800D02*
X224368000Y-50411800D01*
X226608000Y-46171800D02*
X224368000Y-46171800D01*
X198827000Y-43565000D02*
X196587000Y-43565000D01*
X198827000Y-43805000D02*
X196587000Y-43805000D01*
X198827000Y-43685000D02*
X196587000Y-43685000D01*
X197707000Y-47855000D02*
X197707000Y-47205000D01*
X197707000Y-42315000D02*
X197707000Y-42965000D01*
X198827000Y-47205000D02*
X198827000Y-42965000D01*
X196587000Y-47205000D02*
X198827000Y-47205000D01*
X196587000Y-42965000D02*
X196587000Y-47205000D01*
X198827000Y-42965000D02*
X196587000Y-42965000D01*
X167807000Y-60233800D02*
X165567000Y-60233800D01*
X167807000Y-60473800D02*
X165567000Y-60473800D01*
X167807000Y-60353800D02*
X165567000Y-60353800D01*
X166687000Y-64523800D02*
X166687000Y-63873800D01*
X166687000Y-58983800D02*
X166687000Y-59633800D01*
X167807000Y-63873800D02*
X167807000Y-59633800D01*
X165567000Y-63873800D02*
X167807000Y-63873800D01*
X165567000Y-59633800D02*
X165567000Y-63873800D01*
X167807000Y-59633800D02*
X165567000Y-59633800D01*
X167870000Y-46740000D02*
X165630000Y-46740000D01*
X167870000Y-46980000D02*
X165630000Y-46980000D01*
X167870000Y-46860000D02*
X165630000Y-46860000D01*
X166750000Y-51030000D02*
X166750000Y-50380000D01*
X166750000Y-45490000D02*
X166750000Y-46140000D01*
X167870000Y-50380000D02*
X167870000Y-46140000D01*
X165630000Y-50380000D02*
X167870000Y-50380000D01*
X165630000Y-46140000D02*
X165630000Y-50380000D01*
X167870000Y-46140000D02*
X165630000Y-46140000D01*
X137645000Y-60233700D02*
X135405000Y-60233700D01*
X137645000Y-60473700D02*
X135405000Y-60473700D01*
X137645000Y-60353700D02*
X135405000Y-60353700D01*
X136525000Y-64523700D02*
X136525000Y-63873700D01*
X136525000Y-58983700D02*
X136525000Y-59633700D01*
X137645000Y-63873700D02*
X137645000Y-59633700D01*
X135405000Y-63873700D02*
X137645000Y-63873700D01*
X135405000Y-59633700D02*
X135405000Y-63873700D01*
X137645000Y-59633700D02*
X135405000Y-59633700D01*
X137709000Y-46771800D02*
X135469000Y-46771800D01*
X137709000Y-47011800D02*
X135469000Y-47011800D01*
X137709000Y-46891800D02*
X135469000Y-46891800D01*
X136589000Y-51061800D02*
X136589000Y-50411800D01*
X136589000Y-45521800D02*
X136589000Y-46171800D01*
X137709000Y-50411800D02*
X137709000Y-46171800D01*
X135469000Y-50411800D02*
X137709000Y-50411800D01*
X135469000Y-46171800D02*
X135469000Y-50411800D01*
X137709000Y-46171800D02*
X135469000Y-46171800D01*
X112309000Y-46771800D02*
X110069000Y-46771800D01*
X112309000Y-47011800D02*
X110069000Y-47011800D01*
X112309000Y-46891800D02*
X110069000Y-46891800D01*
X111189000Y-51061800D02*
X111189000Y-50411800D01*
X111189000Y-45521800D02*
X111189000Y-46171800D01*
X112309000Y-50411800D02*
X112309000Y-46171800D01*
X110069000Y-50411800D02*
X112309000Y-50411800D01*
X110069000Y-46171800D02*
X110069000Y-50411800D01*
X112309000Y-46171800D02*
X110069000Y-46171800D01*
X275758000Y-59439900D02*
X273518000Y-59439900D01*
X275758000Y-59679900D02*
X273518000Y-59679900D01*
X275758000Y-59559900D02*
X273518000Y-59559900D01*
X274638000Y-63729900D02*
X274638000Y-63079900D01*
X274638000Y-58189900D02*
X274638000Y-58839900D01*
X275758000Y-63079900D02*
X275758000Y-58839900D01*
X273518000Y-63079900D02*
X275758000Y-63079900D01*
X273518000Y-58839900D02*
X273518000Y-63079900D01*
X275758000Y-58839900D02*
X273518000Y-58839900D01*
X279789000Y-45978100D02*
X277549000Y-45978100D01*
X279789000Y-46218100D02*
X277549000Y-46218100D01*
X279789000Y-46098100D02*
X277549000Y-46098100D01*
X278669000Y-50268100D02*
X278669000Y-49618100D01*
X278669000Y-44728100D02*
X278669000Y-45378100D01*
X279789000Y-49618100D02*
X279789000Y-45378100D01*
X277549000Y-49618100D02*
X279789000Y-49618100D01*
X277549000Y-45378100D02*
X277549000Y-49618100D01*
X279789000Y-45378100D02*
X277549000Y-45378100D01*
X249564000Y-60233700D02*
X247324000Y-60233700D01*
X249564000Y-60473700D02*
X247324000Y-60473700D01*
X249564000Y-60353700D02*
X247324000Y-60353700D01*
X248444000Y-64523700D02*
X248444000Y-63873700D01*
X248444000Y-58983700D02*
X248444000Y-59633700D01*
X249564000Y-63873700D02*
X249564000Y-59633700D01*
X247324000Y-63873700D02*
X249564000Y-63873700D01*
X247324000Y-59633700D02*
X247324000Y-63873700D01*
X249564000Y-59633700D02*
X247324000Y-59633700D01*
X249627000Y-45978100D02*
X247387000Y-45978100D01*
X249627000Y-46218100D02*
X247387000Y-46218100D01*
X249627000Y-46098100D02*
X247387000Y-46098100D01*
X248507000Y-50268100D02*
X248507000Y-49618100D01*
X248507000Y-44728100D02*
X248507000Y-45378100D01*
X249627000Y-49618100D02*
X249627000Y-45378100D01*
X247387000Y-49618100D02*
X249627000Y-49618100D01*
X247387000Y-45378100D02*
X247387000Y-49618100D01*
X249627000Y-45378100D02*
X247387000Y-45378100D01*
X189239000Y-59440000D02*
X186999000Y-59440000D01*
X189239000Y-59680000D02*
X186999000Y-59680000D01*
X189239000Y-59560000D02*
X186999000Y-59560000D01*
X188119000Y-63730000D02*
X188119000Y-63080000D01*
X188119000Y-58190000D02*
X188119000Y-58840000D01*
X189239000Y-63080000D02*
X189239000Y-58840000D01*
X186999000Y-63080000D02*
X189239000Y-63080000D01*
X186999000Y-58840000D02*
X186999000Y-63080000D01*
X189239000Y-58840000D02*
X186999000Y-58840000D01*
X305984000Y-45978100D02*
X303744000Y-45978100D01*
X305984000Y-46218100D02*
X303744000Y-46218100D01*
X305984000Y-46098100D02*
X303744000Y-46098100D01*
X304864000Y-50268100D02*
X304864000Y-49618100D01*
X304864000Y-44728100D02*
X304864000Y-45378100D01*
X305984000Y-49618100D02*
X305984000Y-45378100D01*
X303744000Y-49618100D02*
X305984000Y-49618100D01*
X303744000Y-45378100D02*
X303744000Y-49618100D01*
X305984000Y-45378100D02*
X303744000Y-45378100D01*
X222576000Y-60233700D02*
X220336000Y-60233700D01*
X222576000Y-60473700D02*
X220336000Y-60473700D01*
X222576000Y-60353700D02*
X220336000Y-60353700D01*
X221456000Y-64523700D02*
X221456000Y-63873700D01*
X221456000Y-58983700D02*
X221456000Y-59633700D01*
X222576000Y-63873700D02*
X222576000Y-59633700D01*
X220336000Y-63873700D02*
X222576000Y-63873700D01*
X220336000Y-59633700D02*
X220336000Y-63873700D01*
X222576000Y-59633700D02*
X220336000Y-59633700D01*
X222640000Y-45978100D02*
X220400000Y-45978100D01*
X222640000Y-46218100D02*
X220400000Y-46218100D01*
X222640000Y-46098100D02*
X220400000Y-46098100D01*
X221520000Y-50268100D02*
X221520000Y-49618100D01*
X221520000Y-44728100D02*
X221520000Y-45378100D01*
X222640000Y-49618100D02*
X222640000Y-45378100D01*
X220400000Y-49618100D02*
X222640000Y-49618100D01*
X220400000Y-45378100D02*
X220400000Y-49618100D01*
X222640000Y-45378100D02*
X220400000Y-45378100D01*
X189239000Y-45946200D02*
X186999000Y-45946200D01*
X189239000Y-46186200D02*
X186999000Y-46186200D01*
X189239000Y-46066200D02*
X186999000Y-46066200D01*
X188119000Y-50236200D02*
X188119000Y-49586200D01*
X188119000Y-44696200D02*
X188119000Y-45346200D01*
X189239000Y-49586200D02*
X189239000Y-45346200D01*
X186999000Y-49586200D02*
X189239000Y-49586200D01*
X186999000Y-45346200D02*
X186999000Y-49586200D01*
X189239000Y-45346200D02*
X186999000Y-45346200D01*
X163839000Y-59439900D02*
X161599000Y-59439900D01*
X163839000Y-59679900D02*
X161599000Y-59679900D01*
X163839000Y-59559900D02*
X161599000Y-59559900D01*
X162719000Y-63729900D02*
X162719000Y-63079900D01*
X162719000Y-58189900D02*
X162719000Y-58839900D01*
X163839000Y-63079900D02*
X163839000Y-58839900D01*
X161599000Y-63079900D02*
X163839000Y-63079900D01*
X161599000Y-58839900D02*
X161599000Y-63079900D01*
X163839000Y-58839900D02*
X161599000Y-58839900D01*
X163902000Y-45978100D02*
X161662000Y-45978100D01*
X163902000Y-46218100D02*
X161662000Y-46218100D01*
X163902000Y-46098100D02*
X161662000Y-46098100D01*
X162782000Y-50268100D02*
X162782000Y-49618100D01*
X162782000Y-44728100D02*
X162782000Y-45378100D01*
X163902000Y-49618100D02*
X163902000Y-45378100D01*
X161662000Y-49618100D02*
X163902000Y-49618100D01*
X161662000Y-45378100D02*
X161662000Y-49618100D01*
X163902000Y-45378100D02*
X161662000Y-45378100D01*
X133677000Y-59439900D02*
X131437000Y-59439900D01*
X133677000Y-59679900D02*
X131437000Y-59679900D01*
X133677000Y-59559900D02*
X131437000Y-59559900D01*
X132557000Y-63729900D02*
X132557000Y-63079900D01*
X132557000Y-58189900D02*
X132557000Y-58839900D01*
X133677000Y-63079900D02*
X133677000Y-58839900D01*
X131437000Y-63079900D02*
X133677000Y-63079900D01*
X131437000Y-58839900D02*
X131437000Y-63079900D01*
X133677000Y-58839900D02*
X131437000Y-58839900D01*
X133740000Y-45978100D02*
X131500000Y-45978100D01*
X133740000Y-46218100D02*
X131500000Y-46218100D01*
X133740000Y-46098100D02*
X131500000Y-46098100D01*
X132620000Y-50268100D02*
X132620000Y-49618100D01*
X132620000Y-44728100D02*
X132620000Y-45378100D01*
X133740000Y-49618100D02*
X133740000Y-45378100D01*
X131500000Y-49618100D02*
X133740000Y-49618100D01*
X131500000Y-45378100D02*
X131500000Y-49618100D01*
X133740000Y-45378100D02*
X131500000Y-45378100D01*
X108340000Y-45965400D02*
X106100000Y-45965400D01*
X108340000Y-46205400D02*
X106100000Y-46205400D01*
X108340000Y-46085400D02*
X106100000Y-46085400D01*
X107220000Y-50255400D02*
X107220000Y-49605400D01*
X107220000Y-44715400D02*
X107220000Y-45365400D01*
X108340000Y-49605400D02*
X108340000Y-45365400D01*
X106100000Y-49605400D02*
X108340000Y-49605400D01*
X106100000Y-45365400D02*
X106100000Y-49605400D01*
X108340000Y-45365400D02*
X106100000Y-45365400D01*
X271788000Y-58646200D02*
X269548000Y-58646200D01*
X271788000Y-58886200D02*
X269548000Y-58886200D01*
X271788000Y-58766200D02*
X269548000Y-58766200D01*
X270668000Y-62936200D02*
X270668000Y-62286200D01*
X270668000Y-57396200D02*
X270668000Y-58046200D01*
X271788000Y-62286200D02*
X271788000Y-58046200D01*
X269548000Y-62286200D02*
X271788000Y-62286200D01*
X269548000Y-58046200D02*
X269548000Y-62286200D01*
X271788000Y-58046200D02*
X269548000Y-58046200D01*
X301951000Y-59439900D02*
X299711000Y-59439900D01*
X301951000Y-59679900D02*
X299711000Y-59679900D01*
X301951000Y-59559900D02*
X299711000Y-59559900D01*
X300831000Y-63729900D02*
X300831000Y-63079900D01*
X300831000Y-58189900D02*
X300831000Y-58839900D01*
X301951000Y-63079900D02*
X301951000Y-58839900D01*
X299711000Y-63079900D02*
X301951000Y-63079900D01*
X299711000Y-58839900D02*
X299711000Y-63079900D01*
X301951000Y-58839900D02*
X299711000Y-58839900D01*
X275821000Y-45184300D02*
X273581000Y-45184300D01*
X275821000Y-45424300D02*
X273581000Y-45424300D01*
X275821000Y-45304300D02*
X273581000Y-45304300D01*
X274701000Y-49474300D02*
X274701000Y-48824300D01*
X274701000Y-43934300D02*
X274701000Y-44584300D01*
X275821000Y-48824300D02*
X275821000Y-44584300D01*
X273581000Y-48824300D02*
X275821000Y-48824300D01*
X273581000Y-44584300D02*
X273581000Y-48824300D01*
X275821000Y-44584300D02*
X273581000Y-44584300D01*
X245596000Y-59439900D02*
X243356000Y-59439900D01*
X245596000Y-59679900D02*
X243356000Y-59679900D01*
X245596000Y-59559900D02*
X243356000Y-59559900D01*
X244476000Y-63729900D02*
X244476000Y-63079900D01*
X244476000Y-58189900D02*
X244476000Y-58839900D01*
X245596000Y-63079900D02*
X245596000Y-58839900D01*
X243356000Y-63079900D02*
X245596000Y-63079900D01*
X243356000Y-58839900D02*
X243356000Y-63079900D01*
X245596000Y-58839900D02*
X243356000Y-58839900D01*
X245660000Y-45184300D02*
X243420000Y-45184300D01*
X245660000Y-45424300D02*
X243420000Y-45424300D01*
X245660000Y-45304300D02*
X243420000Y-45304300D01*
X244540000Y-49474300D02*
X244540000Y-48824300D01*
X244540000Y-43934300D02*
X244540000Y-44584300D01*
X245660000Y-48824300D02*
X245660000Y-44584300D01*
X243420000Y-48824300D02*
X245660000Y-48824300D01*
X243420000Y-44584300D02*
X243420000Y-48824300D01*
X245660000Y-44584300D02*
X243420000Y-44584300D01*
X185270000Y-58646200D02*
X183030000Y-58646200D01*
X185270000Y-58886200D02*
X183030000Y-58886200D01*
X185270000Y-58766200D02*
X183030000Y-58766200D01*
X184150000Y-62936200D02*
X184150000Y-62286200D01*
X184150000Y-57396200D02*
X184150000Y-58046200D01*
X185270000Y-62286200D02*
X185270000Y-58046200D01*
X183030000Y-62286200D02*
X185270000Y-62286200D01*
X183030000Y-58046200D02*
X183030000Y-62286200D01*
X185270000Y-58046200D02*
X183030000Y-58046200D01*
X302015000Y-45184300D02*
X299775000Y-45184300D01*
X302015000Y-45424300D02*
X299775000Y-45424300D01*
X302015000Y-45304300D02*
X299775000Y-45304300D01*
X300895000Y-49474300D02*
X300895000Y-48824300D01*
X300895000Y-43934300D02*
X300895000Y-44584300D01*
X302015000Y-48824300D02*
X302015000Y-44584300D01*
X299775000Y-48824300D02*
X302015000Y-48824300D01*
X299775000Y-44584300D02*
X299775000Y-48824300D01*
X302015000Y-44584300D02*
X299775000Y-44584300D01*
X218607000Y-59439900D02*
X216367000Y-59439900D01*
X218607000Y-59679900D02*
X216367000Y-59679900D01*
X218607000Y-59559900D02*
X216367000Y-59559900D01*
X217487000Y-63729900D02*
X217487000Y-63079900D01*
X217487000Y-58189900D02*
X217487000Y-58839900D01*
X218607000Y-63079900D02*
X218607000Y-58839900D01*
X216367000Y-63079900D02*
X218607000Y-63079900D01*
X216367000Y-58839900D02*
X216367000Y-63079900D01*
X218607000Y-58839900D02*
X216367000Y-58839900D01*
X218671000Y-45184300D02*
X216431000Y-45184300D01*
X218671000Y-45424300D02*
X216431000Y-45424300D01*
X218671000Y-45304300D02*
X216431000Y-45304300D01*
X217551000Y-49474300D02*
X217551000Y-48824300D01*
X217551000Y-43934300D02*
X217551000Y-44584300D01*
X218671000Y-48824300D02*
X218671000Y-44584300D01*
X216431000Y-48824300D02*
X218671000Y-48824300D01*
X216431000Y-44584300D02*
X216431000Y-48824300D01*
X218671000Y-44584300D02*
X216431000Y-44584300D01*
X185270000Y-45152500D02*
X183030000Y-45152500D01*
X185270000Y-45392500D02*
X183030000Y-45392500D01*
X185270000Y-45272500D02*
X183030000Y-45272500D01*
X184150000Y-49442500D02*
X184150000Y-48792500D01*
X184150000Y-43902500D02*
X184150000Y-44552500D01*
X185270000Y-48792500D02*
X185270000Y-44552500D01*
X183030000Y-48792500D02*
X185270000Y-48792500D01*
X183030000Y-44552500D02*
X183030000Y-48792500D01*
X185270000Y-44552500D02*
X183030000Y-44552500D01*
X159871000Y-58646200D02*
X157631000Y-58646200D01*
X159871000Y-58886200D02*
X157631000Y-58886200D01*
X159871000Y-58766200D02*
X157631000Y-58766200D01*
X158751000Y-62936200D02*
X158751000Y-62286200D01*
X158751000Y-57396200D02*
X158751000Y-58046200D01*
X159871000Y-62286200D02*
X159871000Y-58046200D01*
X157631000Y-62286200D02*
X159871000Y-62286200D01*
X157631000Y-58046200D02*
X157631000Y-62286200D01*
X159871000Y-58046200D02*
X157631000Y-58046200D01*
X159935000Y-45184300D02*
X157695000Y-45184300D01*
X159935000Y-45424300D02*
X157695000Y-45424300D01*
X159935000Y-45304300D02*
X157695000Y-45304300D01*
X158815000Y-49474300D02*
X158815000Y-48824300D01*
X158815000Y-43934300D02*
X158815000Y-44584300D01*
X159935000Y-48824300D02*
X159935000Y-44584300D01*
X157695000Y-48824300D02*
X159935000Y-48824300D01*
X157695000Y-44584300D02*
X157695000Y-48824300D01*
X159935000Y-44584300D02*
X157695000Y-44584300D01*
X129708000Y-58646200D02*
X127468000Y-58646200D01*
X129708000Y-58886200D02*
X127468000Y-58886200D01*
X129708000Y-58766200D02*
X127468000Y-58766200D01*
X128588000Y-62936200D02*
X128588000Y-62286200D01*
X128588000Y-57396200D02*
X128588000Y-58046200D01*
X129708000Y-62286200D02*
X129708000Y-58046200D01*
X127468000Y-62286200D02*
X129708000Y-62286200D01*
X127468000Y-58046200D02*
X127468000Y-62286200D01*
X129708000Y-58046200D02*
X127468000Y-58046200D01*
X129771000Y-45184300D02*
X127531000Y-45184300D01*
X129771000Y-45424300D02*
X127531000Y-45424300D01*
X129771000Y-45304300D02*
X127531000Y-45304300D01*
X128651000Y-49474300D02*
X128651000Y-48824300D01*
X128651000Y-43934300D02*
X128651000Y-44584300D01*
X129771000Y-48824300D02*
X129771000Y-44584300D01*
X127531000Y-48824300D02*
X129771000Y-48824300D01*
X127531000Y-44584300D02*
X127531000Y-48824300D01*
X129771000Y-44584300D02*
X127531000Y-44584300D01*
X104371000Y-45184300D02*
X102131000Y-45184300D01*
X104371000Y-45424300D02*
X102131000Y-45424300D01*
X104371000Y-45304300D02*
X102131000Y-45304300D01*
X103251000Y-49474300D02*
X103251000Y-48824300D01*
X103251000Y-43934300D02*
X103251000Y-44584300D01*
X104371000Y-48824300D02*
X104371000Y-44584300D01*
X102131000Y-48824300D02*
X104371000Y-48824300D01*
X102131000Y-44584300D02*
X102131000Y-48824300D01*
X104371000Y-44584300D02*
X102131000Y-44584300D01*
X267820000Y-57852400D02*
X265580000Y-57852400D01*
X267820000Y-58092400D02*
X265580000Y-58092400D01*
X267820000Y-57972400D02*
X265580000Y-57972400D01*
X266700000Y-62142400D02*
X266700000Y-61492400D01*
X266700000Y-56602400D02*
X266700000Y-57252400D01*
X267820000Y-61492400D02*
X267820000Y-57252400D01*
X265580000Y-61492400D02*
X267820000Y-61492400D01*
X265580000Y-57252400D02*
X265580000Y-61492400D01*
X267820000Y-57252400D02*
X265580000Y-57252400D01*
X297983000Y-58646200D02*
X295743000Y-58646200D01*
X297983000Y-58886200D02*
X295743000Y-58886200D01*
X297983000Y-58766200D02*
X295743000Y-58766200D01*
X296863000Y-62936200D02*
X296863000Y-62286200D01*
X296863000Y-57396200D02*
X296863000Y-58046200D01*
X297983000Y-62286200D02*
X297983000Y-58046200D01*
X295743000Y-62286200D02*
X297983000Y-62286200D01*
X295743000Y-58046200D02*
X295743000Y-62286200D01*
X297983000Y-58046200D02*
X295743000Y-58046200D01*
X271851000Y-44390600D02*
X269611000Y-44390600D01*
X271851000Y-44630600D02*
X269611000Y-44630600D01*
X271851000Y-44510600D02*
X269611000Y-44510600D01*
X270731000Y-48680600D02*
X270731000Y-48030600D01*
X270731000Y-43140600D02*
X270731000Y-43790600D01*
X271851000Y-48030600D02*
X271851000Y-43790600D01*
X269611000Y-48030600D02*
X271851000Y-48030600D01*
X269611000Y-43790600D02*
X269611000Y-48030600D01*
X271851000Y-43790600D02*
X269611000Y-43790600D01*
X241627000Y-58646200D02*
X239387000Y-58646200D01*
X241627000Y-58886200D02*
X239387000Y-58886200D01*
X241627000Y-58766200D02*
X239387000Y-58766200D01*
X240507000Y-62936200D02*
X240507000Y-62286200D01*
X240507000Y-57396200D02*
X240507000Y-58046200D01*
X241627000Y-62286200D02*
X241627000Y-58046200D01*
X239387000Y-62286200D02*
X241627000Y-62286200D01*
X239387000Y-58046200D02*
X239387000Y-62286200D01*
X241627000Y-58046200D02*
X239387000Y-58046200D01*
X241690000Y-44390600D02*
X239450000Y-44390600D01*
X241690000Y-44630600D02*
X239450000Y-44630600D01*
X241690000Y-44510600D02*
X239450000Y-44510600D01*
X240570000Y-48680600D02*
X240570000Y-48030600D01*
X240570000Y-43140600D02*
X240570000Y-43790600D01*
X241690000Y-48030600D02*
X241690000Y-43790600D01*
X239450000Y-48030600D02*
X241690000Y-48030600D01*
X239450000Y-43790600D02*
X239450000Y-48030600D01*
X241690000Y-43790600D02*
X239450000Y-43790600D01*
X181301000Y-57852400D02*
X179061000Y-57852400D01*
X181301000Y-58092400D02*
X179061000Y-58092400D01*
X181301000Y-57972400D02*
X179061000Y-57972400D01*
X180181000Y-62142400D02*
X180181000Y-61492400D01*
X180181000Y-56602400D02*
X180181000Y-57252400D01*
X181301000Y-61492400D02*
X181301000Y-57252400D01*
X179061000Y-61492400D02*
X181301000Y-61492400D01*
X179061000Y-57252400D02*
X179061000Y-61492400D01*
X181301000Y-57252400D02*
X179061000Y-57252400D01*
X298046000Y-44390600D02*
X295806000Y-44390600D01*
X298046000Y-44630600D02*
X295806000Y-44630600D01*
X298046000Y-44510600D02*
X295806000Y-44510600D01*
X296926000Y-48680600D02*
X296926000Y-48030600D01*
X296926000Y-43140600D02*
X296926000Y-43790600D01*
X298046000Y-48030600D02*
X298046000Y-43790600D01*
X295806000Y-48030600D02*
X298046000Y-48030600D01*
X295806000Y-43790600D02*
X295806000Y-48030600D01*
X298046000Y-43790600D02*
X295806000Y-43790600D01*
X214639000Y-58646200D02*
X212399000Y-58646200D01*
X214639000Y-58886200D02*
X212399000Y-58886200D01*
X214639000Y-58766200D02*
X212399000Y-58766200D01*
X213519000Y-62936200D02*
X213519000Y-62286200D01*
X213519000Y-57396200D02*
X213519000Y-58046200D01*
X214639000Y-62286200D02*
X214639000Y-58046200D01*
X212399000Y-62286200D02*
X214639000Y-62286200D01*
X212399000Y-58046200D02*
X212399000Y-62286200D01*
X214639000Y-58046200D02*
X212399000Y-58046200D01*
X214702000Y-44390600D02*
X212462000Y-44390600D01*
X214702000Y-44630600D02*
X212462000Y-44630600D01*
X214702000Y-44510600D02*
X212462000Y-44510600D01*
X213582000Y-48680600D02*
X213582000Y-48030600D01*
X213582000Y-43140600D02*
X213582000Y-43790600D01*
X214702000Y-48030600D02*
X214702000Y-43790600D01*
X212462000Y-48030600D02*
X214702000Y-48030600D01*
X212462000Y-43790600D02*
X212462000Y-48030600D01*
X214702000Y-43790600D02*
X212462000Y-43790600D01*
X181365000Y-44390600D02*
X179125000Y-44390600D01*
X181365000Y-44630600D02*
X179125000Y-44630600D01*
X181365000Y-44510600D02*
X179125000Y-44510600D01*
X180245000Y-48680600D02*
X180245000Y-48030600D01*
X180245000Y-43140600D02*
X180245000Y-43790600D01*
X181365000Y-48030600D02*
X181365000Y-43790600D01*
X179125000Y-48030600D02*
X181365000Y-48030600D01*
X179125000Y-43790600D02*
X179125000Y-48030600D01*
X181365000Y-43790600D02*
X179125000Y-43790600D01*
X155902000Y-57852400D02*
X153662000Y-57852400D01*
X155902000Y-58092400D02*
X153662000Y-58092400D01*
X155902000Y-57972400D02*
X153662000Y-57972400D01*
X154782000Y-62142400D02*
X154782000Y-61492400D01*
X154782000Y-56602400D02*
X154782000Y-57252400D01*
X155902000Y-61492400D02*
X155902000Y-57252400D01*
X153662000Y-61492400D02*
X155902000Y-61492400D01*
X153662000Y-57252400D02*
X153662000Y-61492400D01*
X155902000Y-57252400D02*
X153662000Y-57252400D01*
X155965000Y-44390600D02*
X153725000Y-44390600D01*
X155965000Y-44630600D02*
X153725000Y-44630600D01*
X155965000Y-44510600D02*
X153725000Y-44510600D01*
X154845000Y-48680600D02*
X154845000Y-48030600D01*
X154845000Y-43140600D02*
X154845000Y-43790600D01*
X155965000Y-48030600D02*
X155965000Y-43790600D01*
X153725000Y-48030600D02*
X155965000Y-48030600D01*
X153725000Y-43790600D02*
X153725000Y-48030600D01*
X155965000Y-43790600D02*
X153725000Y-43790600D01*
X125739000Y-57852400D02*
X123499000Y-57852400D01*
X125739000Y-58092400D02*
X123499000Y-58092400D01*
X125739000Y-57972400D02*
X123499000Y-57972400D01*
X124619000Y-62142400D02*
X124619000Y-61492400D01*
X124619000Y-56602400D02*
X124619000Y-57252400D01*
X125739000Y-61492400D02*
X125739000Y-57252400D01*
X123499000Y-61492400D02*
X125739000Y-61492400D01*
X123499000Y-57252400D02*
X123499000Y-61492400D01*
X125739000Y-57252400D02*
X123499000Y-57252400D01*
X125802000Y-44390600D02*
X123562000Y-44390600D01*
X125802000Y-44630600D02*
X123562000Y-44630600D01*
X125802000Y-44510600D02*
X123562000Y-44510600D01*
X124682000Y-48680600D02*
X124682000Y-48030600D01*
X124682000Y-43140600D02*
X124682000Y-43790600D01*
X125802000Y-48030600D02*
X125802000Y-43790600D01*
X123562000Y-48030600D02*
X125802000Y-48030600D01*
X123562000Y-43790600D02*
X123562000Y-48030600D01*
X125802000Y-43790600D02*
X123562000Y-43790600D01*
X100402500Y-44390600D02*
X98162500Y-44390600D01*
X100402500Y-44630600D02*
X98162500Y-44630600D01*
X100402500Y-44510600D02*
X98162500Y-44510600D01*
X99282500Y-48680600D02*
X99282500Y-48030600D01*
X99282500Y-43140600D02*
X99282500Y-43790600D01*
X100402500Y-48030600D02*
X100402500Y-43790600D01*
X98162500Y-48030600D02*
X100402500Y-48030600D01*
X98162500Y-43790600D02*
X98162500Y-48030600D01*
X100402500Y-43790600D02*
X98162500Y-43790600D01*
X294013000Y-57852400D02*
X291773000Y-57852400D01*
X294013000Y-58092400D02*
X291773000Y-58092400D01*
X294013000Y-57972400D02*
X291773000Y-57972400D01*
X292893000Y-62142400D02*
X292893000Y-61492400D01*
X292893000Y-56602400D02*
X292893000Y-57252400D01*
X294013000Y-61492400D02*
X294013000Y-57252400D01*
X291773000Y-61492400D02*
X294013000Y-61492400D01*
X291773000Y-57252400D02*
X291773000Y-61492400D01*
X294013000Y-57252400D02*
X291773000Y-57252400D01*
X237658000Y-57852400D02*
X235418000Y-57852400D01*
X237658000Y-58092400D02*
X235418000Y-58092400D01*
X237658000Y-57972400D02*
X235418000Y-57972400D01*
X236538000Y-62142400D02*
X236538000Y-61492400D01*
X236538000Y-56602400D02*
X236538000Y-57252400D01*
X237658000Y-61492400D02*
X237658000Y-57252400D01*
X235418000Y-61492400D02*
X237658000Y-61492400D01*
X235418000Y-57252400D02*
X235418000Y-61492400D01*
X237658000Y-57252400D02*
X235418000Y-57252400D01*
X237722000Y-43596800D02*
X235482000Y-43596800D01*
X237722000Y-43836800D02*
X235482000Y-43836800D01*
X237722000Y-43716800D02*
X235482000Y-43716800D01*
X236602000Y-47886800D02*
X236602000Y-47236800D01*
X236602000Y-42346800D02*
X236602000Y-42996800D01*
X237722000Y-47236800D02*
X237722000Y-42996800D01*
X235482000Y-47236800D02*
X237722000Y-47236800D01*
X235482000Y-42996800D02*
X235482000Y-47236800D01*
X237722000Y-42996800D02*
X235482000Y-42996800D01*
X177332000Y-57058800D02*
X175092000Y-57058800D01*
X177332000Y-57298800D02*
X175092000Y-57298800D01*
X177332000Y-57178800D02*
X175092000Y-57178800D01*
X176212000Y-61348800D02*
X176212000Y-60698800D01*
X176212000Y-55808800D02*
X176212000Y-56458800D01*
X177332000Y-60698800D02*
X177332000Y-56458800D01*
X175092000Y-60698800D02*
X177332000Y-60698800D01*
X175092000Y-56458800D02*
X175092000Y-60698800D01*
X177332000Y-56458800D02*
X175092000Y-56458800D01*
X294077000Y-43596800D02*
X291837000Y-43596800D01*
X294077000Y-43836800D02*
X291837000Y-43836800D01*
X294077000Y-43716800D02*
X291837000Y-43716800D01*
X292957000Y-47886800D02*
X292957000Y-47236800D01*
X292957000Y-42346800D02*
X292957000Y-42996800D01*
X294077000Y-47236800D02*
X294077000Y-42996800D01*
X291837000Y-47236800D02*
X294077000Y-47236800D01*
X291837000Y-42996800D02*
X291837000Y-47236800D01*
X294077000Y-42996800D02*
X291837000Y-42996800D01*
X210669000Y-57852400D02*
X208429000Y-57852400D01*
X210669000Y-58092400D02*
X208429000Y-58092400D01*
X210669000Y-57972400D02*
X208429000Y-57972400D01*
X209549000Y-62142400D02*
X209549000Y-61492400D01*
X209549000Y-56602400D02*
X209549000Y-57252400D01*
X210669000Y-61492400D02*
X210669000Y-57252400D01*
X208429000Y-61492400D02*
X210669000Y-61492400D01*
X208429000Y-57252400D02*
X208429000Y-61492400D01*
X210669000Y-57252400D02*
X208429000Y-57252400D01*
X210733000Y-43596800D02*
X208493000Y-43596800D01*
X210733000Y-43836800D02*
X208493000Y-43836800D01*
X210733000Y-43716800D02*
X208493000Y-43716800D01*
X209613000Y-47886800D02*
X209613000Y-47236800D01*
X209613000Y-42346800D02*
X209613000Y-42996800D01*
X210733000Y-47236800D02*
X210733000Y-42996800D01*
X208493000Y-47236800D02*
X210733000Y-47236800D01*
X208493000Y-42996800D02*
X208493000Y-47236800D01*
X210733000Y-42996800D02*
X208493000Y-42996800D01*
X177396000Y-43596800D02*
X175156000Y-43596800D01*
X177396000Y-43836800D02*
X175156000Y-43836800D01*
X177396000Y-43716800D02*
X175156000Y-43716800D01*
X176276000Y-47886800D02*
X176276000Y-47236800D01*
X176276000Y-42346800D02*
X176276000Y-42996800D01*
X177396000Y-47236800D02*
X177396000Y-42996800D01*
X175156000Y-47236800D02*
X177396000Y-47236800D01*
X175156000Y-42996800D02*
X175156000Y-47236800D01*
X177396000Y-42996800D02*
X175156000Y-42996800D01*
X151933000Y-57058700D02*
X149693000Y-57058700D01*
X151933000Y-57298700D02*
X149693000Y-57298700D01*
X151933000Y-57178700D02*
X149693000Y-57178700D01*
X150813000Y-61348700D02*
X150813000Y-60698700D01*
X150813000Y-55808700D02*
X150813000Y-56458700D01*
X151933000Y-60698700D02*
X151933000Y-56458700D01*
X149693000Y-60698700D02*
X151933000Y-60698700D01*
X149693000Y-56458700D02*
X149693000Y-60698700D01*
X151933000Y-56458700D02*
X149693000Y-56458700D01*
X151996000Y-43596800D02*
X149756000Y-43596800D01*
X151996000Y-43836800D02*
X149756000Y-43836800D01*
X151996000Y-43716800D02*
X149756000Y-43716800D01*
X150876000Y-47886800D02*
X150876000Y-47236800D01*
X150876000Y-42346800D02*
X150876000Y-42996800D01*
X151996000Y-47236800D02*
X151996000Y-42996800D01*
X149756000Y-47236800D02*
X151996000Y-47236800D01*
X149756000Y-42996800D02*
X149756000Y-47236800D01*
X151996000Y-42996800D02*
X149756000Y-42996800D01*
X121771000Y-57058700D02*
X119531000Y-57058700D01*
X121771000Y-57298700D02*
X119531000Y-57298700D01*
X121771000Y-57178700D02*
X119531000Y-57178700D01*
X120651000Y-61348700D02*
X120651000Y-60698700D01*
X120651000Y-55808700D02*
X120651000Y-56458700D01*
X121771000Y-60698700D02*
X121771000Y-56458700D01*
X119531000Y-60698700D02*
X121771000Y-60698700D01*
X119531000Y-56458700D02*
X119531000Y-60698700D01*
X121771000Y-56458700D02*
X119531000Y-56458700D01*
X121833000Y-43596800D02*
X119593000Y-43596800D01*
X121833000Y-43836800D02*
X119593000Y-43836800D01*
X121833000Y-43716800D02*
X119593000Y-43716800D01*
X120713000Y-47886800D02*
X120713000Y-47236800D01*
X120713000Y-42346800D02*
X120713000Y-42996800D01*
X121833000Y-47236800D02*
X121833000Y-42996800D01*
X119593000Y-47236800D02*
X121833000Y-47236800D01*
X119593000Y-42996800D02*
X119593000Y-47236800D01*
X121833000Y-42996800D02*
X119593000Y-42996800D01*
X96433800Y-43596800D02*
X94193800Y-43596800D01*
X96433800Y-43836800D02*
X94193800Y-43836800D01*
X96433800Y-43716800D02*
X94193800Y-43716800D01*
X95313800Y-47886800D02*
X95313800Y-47236800D01*
X95313800Y-42346800D02*
X95313800Y-42996800D01*
X96433800Y-47236800D02*
X96433800Y-42996800D01*
X94193800Y-47236800D02*
X96433800Y-47236800D01*
X94193800Y-42996800D02*
X94193800Y-47236800D01*
X96433800Y-42996800D02*
X94193800Y-42996800D01*
D14*
X36596000Y-52625100D02*
X36596000Y-64125100D01*
X34183000Y-49901100D02*
X34183000Y-51171100D01*
X33675000Y-51425100D02*
X33929000Y-51425100D01*
X33675000Y-48885100D02*
X34185000Y-48885100D01*
X50185000Y-47615100D02*
X50185000Y-16401100D01*
X32405000Y-16401100D02*
X32405000Y-47615100D01*
X33675000Y-15131100D02*
X48915000Y-15131100D01*
X50185000Y-16401100D02*
G75*
G03X48915000Y-15131100I-1270000J0D01*
G01*
X42025000Y-34890100D02*
G75*
G03X42025000Y-34890100I-750000J0D01*
G01*
X33675000Y-15131100D02*
G75*
G03X32405000Y-16401100I0J-1270000D01*
G01*
X48407000Y-48885100D02*
G75*
G03X48407000Y-49901100I0J-508000D01*
G01*
X48915000Y-48885100D02*
G75*
G03X50185000Y-47615100I0J1270000D01*
G01*
X32405000Y-47615100D02*
G75*
G03X33675000Y-48885100I1270000J0D01*
G01*
X34183000Y-49901100D02*
G75*
G03X34183000Y-48885100I0J508000D01*
G01*
X48407000Y-48885100D02*
X48915000Y-48885100D01*
X48915000Y-66665100D02*
G75*
G03X50185000Y-65395100I0J1270000D01*
G01*
X32405000Y-65395100D02*
G75*
G03X33675000Y-66665100I1270000J0D01*
G01*
X50185000Y-52695100D02*
G75*
G03X48915000Y-51425100I-1270000J0D01*
G01*
X33675000Y-51425100D02*
G75*
G03X32405000Y-52695100I0J-1270000D01*
G01*
X48407000Y-51171100D02*
G75*
G03X48661000Y-51425100I254000J0D01*
G01*
X33929000Y-51425100D02*
G75*
G03X34183000Y-51171100I0J254000D01*
G01*
X48407000Y-49901100D02*
X48407000Y-51171100D01*
X48661000Y-51425100D02*
X48915000Y-51425100D01*
X50185000Y-52695100D02*
X50185000Y-65395100D01*
X32405000Y-52695100D02*
X32405000Y-65395100D01*
X48915000Y-66665100D02*
X33675000Y-66665100D01*
X36596000Y-64125100D02*
X45975000Y-64125100D01*
X36596000Y-52625100D02*
X45975000Y-52625100D01*
X45975000Y-64125100D02*
X45975000Y-52625100D01*
D10*
X62006200Y-39293800D02*
X89406200Y-39293800D01*
X89406200Y-39293800D02*
X89406200Y-66593800D01*
X89406200Y-66593800D02*
X62006200Y-66593800D01*
X62006200Y-66593800D02*
X62006200Y-39293800D01*
X85528200Y-59188800D02*
X62428200Y-59188800D01*
X62428200Y-59188800D02*
X62428200Y-42588800D01*
X62428200Y-42588800D02*
X85528200Y-42588800D01*
X70707200Y-39782800D02*
X80486200Y-39782800D01*
X80486200Y-39782800D02*
X80486200Y-42195800D01*
X80486200Y-42195800D02*
X70707200Y-42195800D01*
X70707200Y-39782800D02*
X70707200Y-42195800D01*
X85528200Y-42588800D02*
X88614200Y-42588800D01*
X85528200Y-59188800D02*
X88868200Y-59213800D01*
X88868200Y-59213800D02*
X88868200Y-42576800D01*
X88868200Y-42576800D02*
X88614200Y-42588800D01*
X27325000Y-80352200D02*
G75*
G03X27325000Y-80352200I-3000000J0D01*
G01*
X18425000Y-78352200D02*
X18425000Y-74252200D01*
X30225000Y-74252200D02*
X30225000Y-78352200D01*
X30225000Y-82352200D02*
X30225000Y-86452200D01*
X18425000Y-82352200D02*
X18425000Y-86452200D01*
X18425000Y-86452200D02*
X30225000Y-86452200D01*
X20525000Y-87852200D02*
X20225000Y-88152200D01*
X20225000Y-88152200D02*
X20225000Y-87552200D01*
X20225000Y-87552200D02*
X20525000Y-87852200D01*
X18425000Y-74252200D02*
X20825000Y-74252200D01*
X23025000Y-74252200D02*
X25625000Y-74252200D01*
X27825000Y-74252200D02*
X30225000Y-74252200D01*
X23825000Y-80352200D02*
X24825000Y-80352200D01*
X24325000Y-80852200D02*
X24325000Y-79852200D01*
D14*
X29622321Y-25653571D02*
X29669940Y-25510714D01*
X29717559Y-25463095D01*
X29812797Y-25415476D01*
X29955654Y-25415476D01*
X30050892Y-25463095D01*
X30098511Y-25510714D01*
X30146130Y-25605952D01*
X30146130Y-25986904D01*
X29146130Y-25986904D01*
X29146130Y-25653571D01*
X29193750Y-25558333D01*
X29241369Y-25510714D01*
X29336607Y-25463095D01*
X29431845Y-25463095D01*
X29527083Y-25510714D01*
X29574702Y-25558333D01*
X29622321Y-25653571D01*
X29622321Y-25986904D01*
X29146130Y-24701190D02*
X29860416Y-24701190D01*
X30003273Y-24748809D01*
X30098511Y-24844047D01*
X30146130Y-24986904D01*
X30146130Y-25082142D01*
X30241369Y-24463095D02*
X30241369Y-23701190D01*
X30146130Y-22986904D02*
X30146130Y-23463095D01*
X29146130Y-23463095D01*
X29622321Y-22653571D02*
X29622321Y-22320238D01*
X30146130Y-22177380D02*
X30146130Y-22653571D01*
X29146130Y-22653571D01*
X29146130Y-22177380D01*
X30146130Y-21748809D02*
X29146130Y-21748809D01*
X29146130Y-21510714D01*
X29193750Y-21367857D01*
X29288988Y-21272619D01*
X29384226Y-21225000D01*
X29574702Y-21177380D01*
X29717559Y-21177380D01*
X29908035Y-21225000D01*
X30003273Y-21272619D01*
X30098511Y-21367857D01*
X30146130Y-21510714D01*
X30146130Y-21748809D01*
X29146130Y-20272619D02*
X29146130Y-20748809D01*
X29622321Y-20796428D01*
X29574702Y-20748809D01*
X29527083Y-20653571D01*
X29527083Y-20415476D01*
X29574702Y-20320238D01*
X29622321Y-20272619D01*
X29717559Y-20225000D01*
X29955654Y-20225000D01*
X30050892Y-20272619D01*
X30098511Y-20320238D01*
X30146130Y-20415476D01*
X30146130Y-20653571D01*
X30098511Y-20748809D01*
X30050892Y-20796428D01*
X29146130Y-19939285D02*
X30146130Y-19605952D01*
X29146130Y-19272619D01*
X30146130Y-18415476D02*
X30146130Y-18986904D01*
X30146130Y-18701190D02*
X29146130Y-18701190D01*
X29288988Y-18796428D01*
X29384226Y-18891666D01*
X29431845Y-18986904D01*
X320278751Y-52490495D02*
X319278751Y-52490495D01*
X319278751Y-52252400D01*
X319326371Y-52109542D01*
X319421609Y-52014304D01*
X319516847Y-51966685D01*
X319707323Y-51919066D01*
X319850180Y-51919066D01*
X320040656Y-51966685D01*
X320135894Y-52014304D01*
X320231132Y-52109542D01*
X320278751Y-52252400D01*
X320278751Y-52490495D01*
X320278751Y-50966685D02*
X320278751Y-51538114D01*
X320278751Y-51252400D02*
X319278751Y-51252400D01*
X319421609Y-51347638D01*
X319516847Y-51442876D01*
X319564466Y-51538114D01*
X269542751Y-45061085D02*
X268542751Y-45061085D01*
X268542751Y-44822990D01*
X268590371Y-44680133D01*
X268685609Y-44584895D01*
X268780847Y-44537276D01*
X268971323Y-44489657D01*
X269114180Y-44489657D01*
X269304656Y-44537276D01*
X269399894Y-44584895D01*
X269495132Y-44680133D01*
X269542751Y-44822990D01*
X269542751Y-45061085D01*
X269542751Y-43537276D02*
X269542751Y-44108704D01*
X269542751Y-43822990D02*
X268542751Y-43822990D01*
X268685609Y-43918228D01*
X268780847Y-44013466D01*
X268828466Y-44108704D01*
X268876085Y-42680133D02*
X269542751Y-42680133D01*
X268495132Y-42918228D02*
X269209418Y-43156323D01*
X269209418Y-42537276D01*
X113903751Y-61698085D02*
X112903751Y-61698085D01*
X112903751Y-61459990D01*
X112951371Y-61317133D01*
X113046609Y-61221895D01*
X113141847Y-61174276D01*
X113332323Y-61126657D01*
X113475180Y-61126657D01*
X113665656Y-61174276D01*
X113760894Y-61221895D01*
X113856132Y-61317133D01*
X113903751Y-61459990D01*
X113903751Y-61698085D01*
X112903751Y-60793323D02*
X112903751Y-60126657D01*
X113903751Y-60555228D01*
X113332323Y-59602847D02*
X113284704Y-59698085D01*
X113237085Y-59745704D01*
X113141847Y-59793323D01*
X113094228Y-59793323D01*
X112998990Y-59745704D01*
X112951371Y-59698085D01*
X112903751Y-59602847D01*
X112903751Y-59412371D01*
X112951371Y-59317133D01*
X112998990Y-59269514D01*
X113094228Y-59221895D01*
X113141847Y-59221895D01*
X113237085Y-59269514D01*
X113284704Y-59317133D01*
X113332323Y-59412371D01*
X113332323Y-59602847D01*
X113379942Y-59698085D01*
X113427561Y-59745704D01*
X113522799Y-59793323D01*
X113713275Y-59793323D01*
X113808513Y-59745704D01*
X113856132Y-59698085D01*
X113903751Y-59602847D01*
X113903751Y-59412371D01*
X113856132Y-59317133D01*
X113808513Y-59269514D01*
X113713275Y-59221895D01*
X113522799Y-59221895D01*
X113427561Y-59269514D01*
X113379942Y-59317133D01*
X113332323Y-59412371D01*
X109934751Y-60904285D02*
X108934751Y-60904285D01*
X108934751Y-60666190D01*
X108982371Y-60523333D01*
X109077609Y-60428095D01*
X109172847Y-60380476D01*
X109363323Y-60332857D01*
X109506180Y-60332857D01*
X109696656Y-60380476D01*
X109791894Y-60428095D01*
X109887132Y-60523333D01*
X109934751Y-60666190D01*
X109934751Y-60904285D01*
X108934751Y-59475714D02*
X108934751Y-59666190D01*
X108982371Y-59761428D01*
X109029990Y-59809047D01*
X109172847Y-59904285D01*
X109363323Y-59951904D01*
X109744275Y-59951904D01*
X109839513Y-59904285D01*
X109887132Y-59856666D01*
X109934751Y-59761428D01*
X109934751Y-59570952D01*
X109887132Y-59475714D01*
X109839513Y-59428095D01*
X109744275Y-59380476D01*
X109506180Y-59380476D01*
X109410942Y-59428095D01*
X109363323Y-59475714D01*
X109315704Y-59570952D01*
X109315704Y-59761428D01*
X109363323Y-59856666D01*
X109410942Y-59904285D01*
X109506180Y-59951904D01*
X108934751Y-59047142D02*
X108934751Y-58428095D01*
X109315704Y-58761428D01*
X109315704Y-58618571D01*
X109363323Y-58523333D01*
X109410942Y-58475714D01*
X109506180Y-58428095D01*
X109744275Y-58428095D01*
X109839513Y-58475714D01*
X109887132Y-58523333D01*
X109934751Y-58618571D01*
X109934751Y-58904285D01*
X109887132Y-58999523D01*
X109839513Y-59047142D01*
X105965751Y-60110485D02*
X104965751Y-60110485D01*
X104965751Y-59872390D01*
X105013371Y-59729533D01*
X105108609Y-59634295D01*
X105203847Y-59586676D01*
X105394323Y-59539057D01*
X105537180Y-59539057D01*
X105727656Y-59586676D01*
X105822894Y-59634295D01*
X105918132Y-59729533D01*
X105965751Y-59872390D01*
X105965751Y-60110485D01*
X105299085Y-58681914D02*
X105965751Y-58681914D01*
X104918132Y-58920009D02*
X105632418Y-59158104D01*
X105632418Y-58539057D01*
X105394323Y-58015247D02*
X105346704Y-58110485D01*
X105299085Y-58158104D01*
X105203847Y-58205723D01*
X105156228Y-58205723D01*
X105060990Y-58158104D01*
X105013371Y-58110485D01*
X104965751Y-58015247D01*
X104965751Y-57824771D01*
X105013371Y-57729533D01*
X105060990Y-57681914D01*
X105156228Y-57634295D01*
X105203847Y-57634295D01*
X105299085Y-57681914D01*
X105346704Y-57729533D01*
X105394323Y-57824771D01*
X105394323Y-58015247D01*
X105441942Y-58110485D01*
X105489561Y-58158104D01*
X105584799Y-58205723D01*
X105775275Y-58205723D01*
X105870513Y-58158104D01*
X105918132Y-58110485D01*
X105965751Y-58015247D01*
X105965751Y-57824771D01*
X105918132Y-57729533D01*
X105870513Y-57681914D01*
X105775275Y-57634295D01*
X105584799Y-57634295D01*
X105489561Y-57681914D01*
X105441942Y-57729533D01*
X105394323Y-57824771D01*
X101997251Y-59316785D02*
X100997251Y-59316785D01*
X100997251Y-59078690D01*
X101044871Y-58935833D01*
X101140109Y-58840595D01*
X101235347Y-58792976D01*
X101425823Y-58745357D01*
X101568680Y-58745357D01*
X101759156Y-58792976D01*
X101854394Y-58840595D01*
X101949632Y-58935833D01*
X101997251Y-59078690D01*
X101997251Y-59316785D01*
X100997251Y-58412023D02*
X100997251Y-57792976D01*
X101378204Y-58126309D01*
X101378204Y-57983452D01*
X101425823Y-57888214D01*
X101473442Y-57840595D01*
X101568680Y-57792976D01*
X101806775Y-57792976D01*
X101902013Y-57840595D01*
X101949632Y-57888214D01*
X101997251Y-57983452D01*
X101997251Y-58269166D01*
X101949632Y-58364404D01*
X101902013Y-58412023D01*
X101092490Y-57412023D02*
X101044871Y-57364404D01*
X100997251Y-57269166D01*
X100997251Y-57031071D01*
X101044871Y-56935833D01*
X101092490Y-56888214D01*
X101187728Y-56840595D01*
X101282966Y-56840595D01*
X101425823Y-56888214D01*
X101997251Y-57459642D01*
X101997251Y-56840595D01*
X98028551Y-58522985D02*
X97028551Y-58522985D01*
X97028551Y-58284890D01*
X97076171Y-58142033D01*
X97171409Y-58046795D01*
X97266647Y-57999176D01*
X97457123Y-57951557D01*
X97599980Y-57951557D01*
X97790456Y-57999176D01*
X97885694Y-58046795D01*
X97980932Y-58142033D01*
X98028551Y-58284890D01*
X98028551Y-58522985D01*
X98028551Y-56999176D02*
X98028551Y-57570604D01*
X98028551Y-57284890D02*
X97028551Y-57284890D01*
X97171409Y-57380128D01*
X97266647Y-57475366D01*
X97314266Y-57570604D01*
X97028551Y-56142033D02*
X97028551Y-56332509D01*
X97076171Y-56427747D01*
X97123790Y-56475366D01*
X97266647Y-56570604D01*
X97457123Y-56618223D01*
X97838075Y-56618223D01*
X97933313Y-56570604D01*
X97980932Y-56522985D01*
X98028551Y-56427747D01*
X98028551Y-56237271D01*
X97980932Y-56142033D01*
X97933313Y-56094414D01*
X97838075Y-56046795D01*
X97599980Y-56046795D01*
X97504742Y-56094414D01*
X97457123Y-56142033D01*
X97409504Y-56237271D01*
X97409504Y-56427747D01*
X97457123Y-56522985D01*
X97504742Y-56570604D01*
X97599980Y-56618223D01*
X311546751Y-62491685D02*
X310546751Y-62491685D01*
X310546751Y-62253590D01*
X310594371Y-62110733D01*
X310689609Y-62015495D01*
X310784847Y-61967876D01*
X310975323Y-61920257D01*
X311118180Y-61920257D01*
X311308656Y-61967876D01*
X311403894Y-62015495D01*
X311499132Y-62110733D01*
X311546751Y-62253590D01*
X311546751Y-62491685D01*
X310546751Y-61586923D02*
X310546751Y-60920257D01*
X311546751Y-61348828D01*
X311546751Y-60491685D02*
X311546751Y-60301209D01*
X311499132Y-60205971D01*
X311451513Y-60158352D01*
X311308656Y-60063114D01*
X311118180Y-60015495D01*
X310737228Y-60015495D01*
X310641990Y-60063114D01*
X310594371Y-60110733D01*
X310546751Y-60205971D01*
X310546751Y-60396447D01*
X310594371Y-60491685D01*
X310641990Y-60539304D01*
X310737228Y-60586923D01*
X310975323Y-60586923D01*
X311070561Y-60539304D01*
X311118180Y-60491685D01*
X311165799Y-60396447D01*
X311165799Y-60205971D01*
X311118180Y-60110733D01*
X311070561Y-60063114D01*
X310975323Y-60015495D01*
X285354751Y-62491685D02*
X284354751Y-62491685D01*
X284354751Y-62253590D01*
X284402371Y-62110733D01*
X284497609Y-62015495D01*
X284592847Y-61967876D01*
X284783323Y-61920257D01*
X284926180Y-61920257D01*
X285116656Y-61967876D01*
X285211894Y-62015495D01*
X285307132Y-62110733D01*
X285354751Y-62253590D01*
X285354751Y-62491685D01*
X284783323Y-61348828D02*
X284735704Y-61444066D01*
X284688085Y-61491685D01*
X284592847Y-61539304D01*
X284545228Y-61539304D01*
X284449990Y-61491685D01*
X284402371Y-61444066D01*
X284354751Y-61348828D01*
X284354751Y-61158352D01*
X284402371Y-61063114D01*
X284449990Y-61015495D01*
X284545228Y-60967876D01*
X284592847Y-60967876D01*
X284688085Y-61015495D01*
X284735704Y-61063114D01*
X284783323Y-61158352D01*
X284783323Y-61348828D01*
X284830942Y-61444066D01*
X284878561Y-61491685D01*
X284973799Y-61539304D01*
X285164275Y-61539304D01*
X285259513Y-61491685D01*
X285307132Y-61444066D01*
X285354751Y-61348828D01*
X285354751Y-61158352D01*
X285307132Y-61063114D01*
X285259513Y-61015495D01*
X285164275Y-60967876D01*
X284973799Y-60967876D01*
X284878561Y-61015495D01*
X284830942Y-61063114D01*
X284783323Y-61158352D01*
X284354751Y-60634542D02*
X284354751Y-59967876D01*
X285354751Y-60396447D01*
X285416751Y-48236085D02*
X284416751Y-48236085D01*
X284416751Y-47997990D01*
X284464371Y-47855133D01*
X284559609Y-47759895D01*
X284654847Y-47712276D01*
X284845323Y-47664657D01*
X284988180Y-47664657D01*
X285178656Y-47712276D01*
X285273894Y-47759895D01*
X285369132Y-47855133D01*
X285416751Y-47997990D01*
X285416751Y-48236085D01*
X284845323Y-47093228D02*
X284797704Y-47188466D01*
X284750085Y-47236085D01*
X284654847Y-47283704D01*
X284607228Y-47283704D01*
X284511990Y-47236085D01*
X284464371Y-47188466D01*
X284416751Y-47093228D01*
X284416751Y-46902752D01*
X284464371Y-46807514D01*
X284511990Y-46759895D01*
X284607228Y-46712276D01*
X284654847Y-46712276D01*
X284750085Y-46759895D01*
X284797704Y-46807514D01*
X284845323Y-46902752D01*
X284845323Y-47093228D01*
X284892942Y-47188466D01*
X284940561Y-47236085D01*
X285035799Y-47283704D01*
X285226275Y-47283704D01*
X285321513Y-47236085D01*
X285369132Y-47188466D01*
X285416751Y-47093228D01*
X285416751Y-46902752D01*
X285369132Y-46807514D01*
X285321513Y-46759895D01*
X285226275Y-46712276D01*
X285035799Y-46712276D01*
X284940561Y-46759895D01*
X284892942Y-46807514D01*
X284845323Y-46902752D01*
X284416751Y-45855133D02*
X284416751Y-46045609D01*
X284464371Y-46140847D01*
X284511990Y-46188466D01*
X284654847Y-46283704D01*
X284845323Y-46331323D01*
X285226275Y-46331323D01*
X285321513Y-46283704D01*
X285369132Y-46236085D01*
X285416751Y-46140847D01*
X285416751Y-45950371D01*
X285369132Y-45855133D01*
X285321513Y-45807514D01*
X285226275Y-45759895D01*
X284988180Y-45759895D01*
X284892942Y-45807514D01*
X284845323Y-45855133D01*
X284797704Y-45950371D01*
X284797704Y-46140847D01*
X284845323Y-46236085D01*
X284892942Y-46283704D01*
X284988180Y-46331323D01*
X259160751Y-63285485D02*
X258160751Y-63285485D01*
X258160751Y-63047390D01*
X258208371Y-62904533D01*
X258303609Y-62809295D01*
X258398847Y-62761676D01*
X258589323Y-62714057D01*
X258732180Y-62714057D01*
X258922656Y-62761676D01*
X259017894Y-62809295D01*
X259113132Y-62904533D01*
X259160751Y-63047390D01*
X259160751Y-63285485D01*
X258589323Y-62142628D02*
X258541704Y-62237866D01*
X258494085Y-62285485D01*
X258398847Y-62333104D01*
X258351228Y-62333104D01*
X258255990Y-62285485D01*
X258208371Y-62237866D01*
X258160751Y-62142628D01*
X258160751Y-61952152D01*
X258208371Y-61856914D01*
X258255990Y-61809295D01*
X258351228Y-61761676D01*
X258398847Y-61761676D01*
X258494085Y-61809295D01*
X258541704Y-61856914D01*
X258589323Y-61952152D01*
X258589323Y-62142628D01*
X258636942Y-62237866D01*
X258684561Y-62285485D01*
X258779799Y-62333104D01*
X258970275Y-62333104D01*
X259065513Y-62285485D01*
X259113132Y-62237866D01*
X259160751Y-62142628D01*
X259160751Y-61952152D01*
X259113132Y-61856914D01*
X259065513Y-61809295D01*
X258970275Y-61761676D01*
X258779799Y-61761676D01*
X258684561Y-61809295D01*
X258636942Y-61856914D01*
X258589323Y-61952152D01*
X258160751Y-60856914D02*
X258160751Y-61333104D01*
X258636942Y-61380723D01*
X258589323Y-61333104D01*
X258541704Y-61237866D01*
X258541704Y-60999771D01*
X258589323Y-60904533D01*
X258636942Y-60856914D01*
X258732180Y-60809295D01*
X258970275Y-60809295D01*
X259065513Y-60856914D01*
X259113132Y-60904533D01*
X259160751Y-60999771D01*
X259160751Y-61237866D01*
X259113132Y-61333104D01*
X259065513Y-61380723D01*
X259223751Y-49029885D02*
X258223751Y-49029885D01*
X258223751Y-48791790D01*
X258271371Y-48648933D01*
X258366609Y-48553695D01*
X258461847Y-48506076D01*
X258652323Y-48458457D01*
X258795180Y-48458457D01*
X258985656Y-48506076D01*
X259080894Y-48553695D01*
X259176132Y-48648933D01*
X259223751Y-48791790D01*
X259223751Y-49029885D01*
X258652323Y-47887028D02*
X258604704Y-47982266D01*
X258557085Y-48029885D01*
X258461847Y-48077504D01*
X258414228Y-48077504D01*
X258318990Y-48029885D01*
X258271371Y-47982266D01*
X258223751Y-47887028D01*
X258223751Y-47696552D01*
X258271371Y-47601314D01*
X258318990Y-47553695D01*
X258414228Y-47506076D01*
X258461847Y-47506076D01*
X258557085Y-47553695D01*
X258604704Y-47601314D01*
X258652323Y-47696552D01*
X258652323Y-47887028D01*
X258699942Y-47982266D01*
X258747561Y-48029885D01*
X258842799Y-48077504D01*
X259033275Y-48077504D01*
X259128513Y-48029885D01*
X259176132Y-47982266D01*
X259223751Y-47887028D01*
X259223751Y-47696552D01*
X259176132Y-47601314D01*
X259128513Y-47553695D01*
X259033275Y-47506076D01*
X258842799Y-47506076D01*
X258747561Y-47553695D01*
X258699942Y-47601314D01*
X258652323Y-47696552D01*
X258557085Y-46648933D02*
X259223751Y-46648933D01*
X258176132Y-46887028D02*
X258890418Y-47125123D01*
X258890418Y-46506076D01*
X204390751Y-59316785D02*
X203390751Y-59316785D01*
X203390751Y-59078690D01*
X203438371Y-58935833D01*
X203533609Y-58840595D01*
X203628847Y-58792976D01*
X203819323Y-58745357D01*
X203962180Y-58745357D01*
X204152656Y-58792976D01*
X204247894Y-58840595D01*
X204343132Y-58935833D01*
X204390751Y-59078690D01*
X204390751Y-59316785D01*
X203819323Y-58173928D02*
X203771704Y-58269166D01*
X203724085Y-58316785D01*
X203628847Y-58364404D01*
X203581228Y-58364404D01*
X203485990Y-58316785D01*
X203438371Y-58269166D01*
X203390751Y-58173928D01*
X203390751Y-57983452D01*
X203438371Y-57888214D01*
X203485990Y-57840595D01*
X203581228Y-57792976D01*
X203628847Y-57792976D01*
X203724085Y-57840595D01*
X203771704Y-57888214D01*
X203819323Y-57983452D01*
X203819323Y-58173928D01*
X203866942Y-58269166D01*
X203914561Y-58316785D01*
X204009799Y-58364404D01*
X204200275Y-58364404D01*
X204295513Y-58316785D01*
X204343132Y-58269166D01*
X204390751Y-58173928D01*
X204390751Y-57983452D01*
X204343132Y-57888214D01*
X204295513Y-57840595D01*
X204200275Y-57792976D01*
X204009799Y-57792976D01*
X203914561Y-57840595D01*
X203866942Y-57888214D01*
X203819323Y-57983452D01*
X203390751Y-57459642D02*
X203390751Y-56840595D01*
X203771704Y-57173928D01*
X203771704Y-57031071D01*
X203819323Y-56935833D01*
X203866942Y-56888214D01*
X203962180Y-56840595D01*
X204200275Y-56840595D01*
X204295513Y-56888214D01*
X204343132Y-56935833D01*
X204390751Y-57031071D01*
X204390751Y-57316785D01*
X204343132Y-57412023D01*
X204295513Y-57459642D01*
X204390751Y-45823085D02*
X203390751Y-45823085D01*
X203390751Y-45584990D01*
X203438371Y-45442133D01*
X203533609Y-45346895D01*
X203628847Y-45299276D01*
X203819323Y-45251657D01*
X203962180Y-45251657D01*
X204152656Y-45299276D01*
X204247894Y-45346895D01*
X204343132Y-45442133D01*
X204390751Y-45584990D01*
X204390751Y-45823085D01*
X203819323Y-44680228D02*
X203771704Y-44775466D01*
X203724085Y-44823085D01*
X203628847Y-44870704D01*
X203581228Y-44870704D01*
X203485990Y-44823085D01*
X203438371Y-44775466D01*
X203390751Y-44680228D01*
X203390751Y-44489752D01*
X203438371Y-44394514D01*
X203485990Y-44346895D01*
X203581228Y-44299276D01*
X203628847Y-44299276D01*
X203724085Y-44346895D01*
X203771704Y-44394514D01*
X203819323Y-44489752D01*
X203819323Y-44680228D01*
X203866942Y-44775466D01*
X203914561Y-44823085D01*
X204009799Y-44870704D01*
X204200275Y-44870704D01*
X204295513Y-44823085D01*
X204343132Y-44775466D01*
X204390751Y-44680228D01*
X204390751Y-44489752D01*
X204343132Y-44394514D01*
X204295513Y-44346895D01*
X204200275Y-44299276D01*
X204009799Y-44299276D01*
X203914561Y-44346895D01*
X203866942Y-44394514D01*
X203819323Y-44489752D01*
X203485990Y-43918323D02*
X203438371Y-43870704D01*
X203390751Y-43775466D01*
X203390751Y-43537371D01*
X203438371Y-43442133D01*
X203485990Y-43394514D01*
X203581228Y-43346895D01*
X203676466Y-43346895D01*
X203819323Y-43394514D01*
X204390751Y-43965942D01*
X204390751Y-43346895D01*
X143272751Y-62491785D02*
X142272751Y-62491785D01*
X142272751Y-62253690D01*
X142320371Y-62110833D01*
X142415609Y-62015595D01*
X142510847Y-61967976D01*
X142701323Y-61920357D01*
X142844180Y-61920357D01*
X143034656Y-61967976D01*
X143129894Y-62015595D01*
X143225132Y-62110833D01*
X143272751Y-62253690D01*
X143272751Y-62491785D01*
X142701323Y-61348928D02*
X142653704Y-61444166D01*
X142606085Y-61491785D01*
X142510847Y-61539404D01*
X142463228Y-61539404D01*
X142367990Y-61491785D01*
X142320371Y-61444166D01*
X142272751Y-61348928D01*
X142272751Y-61158452D01*
X142320371Y-61063214D01*
X142367990Y-61015595D01*
X142463228Y-60967976D01*
X142510847Y-60967976D01*
X142606085Y-61015595D01*
X142653704Y-61063214D01*
X142701323Y-61158452D01*
X142701323Y-61348928D01*
X142748942Y-61444166D01*
X142796561Y-61491785D01*
X142891799Y-61539404D01*
X143082275Y-61539404D01*
X143177513Y-61491785D01*
X143225132Y-61444166D01*
X143272751Y-61348928D01*
X143272751Y-61158452D01*
X143225132Y-61063214D01*
X143177513Y-61015595D01*
X143082275Y-60967976D01*
X142891799Y-60967976D01*
X142796561Y-61015595D01*
X142748942Y-61063214D01*
X142701323Y-61158452D01*
X143272751Y-60015595D02*
X143272751Y-60587023D01*
X143272751Y-60301309D02*
X142272751Y-60301309D01*
X142415609Y-60396547D01*
X142510847Y-60491785D01*
X142558466Y-60587023D01*
X143335751Y-48998085D02*
X142335751Y-48998085D01*
X142335751Y-48759990D01*
X142383371Y-48617133D01*
X142478609Y-48521895D01*
X142573847Y-48474276D01*
X142764323Y-48426657D01*
X142907180Y-48426657D01*
X143097656Y-48474276D01*
X143192894Y-48521895D01*
X143288132Y-48617133D01*
X143335751Y-48759990D01*
X143335751Y-48998085D01*
X142764323Y-47855228D02*
X142716704Y-47950466D01*
X142669085Y-47998085D01*
X142573847Y-48045704D01*
X142526228Y-48045704D01*
X142430990Y-47998085D01*
X142383371Y-47950466D01*
X142335751Y-47855228D01*
X142335751Y-47664752D01*
X142383371Y-47569514D01*
X142430990Y-47521895D01*
X142526228Y-47474276D01*
X142573847Y-47474276D01*
X142669085Y-47521895D01*
X142716704Y-47569514D01*
X142764323Y-47664752D01*
X142764323Y-47855228D01*
X142811942Y-47950466D01*
X142859561Y-47998085D01*
X142954799Y-48045704D01*
X143145275Y-48045704D01*
X143240513Y-47998085D01*
X143288132Y-47950466D01*
X143335751Y-47855228D01*
X143335751Y-47664752D01*
X143288132Y-47569514D01*
X143240513Y-47521895D01*
X143145275Y-47474276D01*
X142954799Y-47474276D01*
X142859561Y-47521895D01*
X142811942Y-47569514D01*
X142764323Y-47664752D01*
X142335751Y-46855228D02*
X142335751Y-46759990D01*
X142383371Y-46664752D01*
X142430990Y-46617133D01*
X142526228Y-46569514D01*
X142716704Y-46521895D01*
X142954799Y-46521895D01*
X143145275Y-46569514D01*
X143240513Y-46617133D01*
X143288132Y-46664752D01*
X143335751Y-46759990D01*
X143335751Y-46855228D01*
X143288132Y-46950466D01*
X143240513Y-46998085D01*
X143145275Y-47045704D01*
X142954799Y-47093323D01*
X142716704Y-47093323D01*
X142526228Y-47045704D01*
X142430990Y-46998085D01*
X142383371Y-46950466D01*
X142335751Y-46855228D01*
X281384751Y-61697985D02*
X280384751Y-61697985D01*
X280384751Y-61459890D01*
X280432371Y-61317033D01*
X280527609Y-61221795D01*
X280622847Y-61174176D01*
X280813323Y-61126557D01*
X280956180Y-61126557D01*
X281146656Y-61174176D01*
X281241894Y-61221795D01*
X281337132Y-61317033D01*
X281384751Y-61459890D01*
X281384751Y-61697985D01*
X280384751Y-60793223D02*
X280384751Y-60126557D01*
X281384751Y-60555128D01*
X280384751Y-59840842D02*
X280384751Y-59174176D01*
X281384751Y-59602747D01*
X307578751Y-61697985D02*
X306578751Y-61697985D01*
X306578751Y-61459890D01*
X306626371Y-61317033D01*
X306721609Y-61221795D01*
X306816847Y-61174176D01*
X307007323Y-61126557D01*
X307150180Y-61126557D01*
X307340656Y-61174176D01*
X307435894Y-61221795D01*
X307531132Y-61317033D01*
X307578751Y-61459890D01*
X307578751Y-61697985D01*
X306578751Y-60793223D02*
X306578751Y-60126557D01*
X307578751Y-60555128D01*
X306578751Y-59317033D02*
X306578751Y-59507509D01*
X306626371Y-59602747D01*
X306673990Y-59650366D01*
X306816847Y-59745604D01*
X307007323Y-59793223D01*
X307388275Y-59793223D01*
X307483513Y-59745604D01*
X307531132Y-59697985D01*
X307578751Y-59602747D01*
X307578751Y-59412271D01*
X307531132Y-59317033D01*
X307483513Y-59269414D01*
X307388275Y-59221795D01*
X307150180Y-59221795D01*
X307054942Y-59269414D01*
X307007323Y-59317033D01*
X306959704Y-59412271D01*
X306959704Y-59602747D01*
X307007323Y-59697985D01*
X307054942Y-59745604D01*
X307150180Y-59793223D01*
X255191751Y-62491685D02*
X254191751Y-62491685D01*
X254191751Y-62253590D01*
X254239371Y-62110733D01*
X254334609Y-62015495D01*
X254429847Y-61967876D01*
X254620323Y-61920257D01*
X254763180Y-61920257D01*
X254953656Y-61967876D01*
X255048894Y-62015495D01*
X255144132Y-62110733D01*
X255191751Y-62253590D01*
X255191751Y-62491685D01*
X254191751Y-61586923D02*
X254191751Y-60920257D01*
X255191751Y-61348828D01*
X254191751Y-60063114D02*
X254191751Y-60539304D01*
X254667942Y-60586923D01*
X254620323Y-60539304D01*
X254572704Y-60444066D01*
X254572704Y-60205971D01*
X254620323Y-60110733D01*
X254667942Y-60063114D01*
X254763180Y-60015495D01*
X255001275Y-60015495D01*
X255096513Y-60063114D01*
X255144132Y-60110733D01*
X255191751Y-60205971D01*
X255191751Y-60444066D01*
X255144132Y-60539304D01*
X255096513Y-60586923D01*
X255255751Y-48236085D02*
X254255751Y-48236085D01*
X254255751Y-47997990D01*
X254303371Y-47855133D01*
X254398609Y-47759895D01*
X254493847Y-47712276D01*
X254684323Y-47664657D01*
X254827180Y-47664657D01*
X255017656Y-47712276D01*
X255112894Y-47759895D01*
X255208132Y-47855133D01*
X255255751Y-47997990D01*
X255255751Y-48236085D01*
X254255751Y-47331323D02*
X254255751Y-46664657D01*
X255255751Y-47093228D01*
X254589085Y-45855133D02*
X255255751Y-45855133D01*
X254208132Y-46093228D02*
X254922418Y-46331323D01*
X254922418Y-45712276D01*
X200422751Y-58523085D02*
X199422751Y-58523085D01*
X199422751Y-58284990D01*
X199470371Y-58142133D01*
X199565609Y-58046895D01*
X199660847Y-57999276D01*
X199851323Y-57951657D01*
X199994180Y-57951657D01*
X200184656Y-57999276D01*
X200279894Y-58046895D01*
X200375132Y-58142133D01*
X200422751Y-58284990D01*
X200422751Y-58523085D01*
X199422751Y-57618323D02*
X199422751Y-56951657D01*
X200422751Y-57380228D01*
X199422751Y-56665942D02*
X199422751Y-56046895D01*
X199803704Y-56380228D01*
X199803704Y-56237371D01*
X199851323Y-56142133D01*
X199898942Y-56094514D01*
X199994180Y-56046895D01*
X200232275Y-56046895D01*
X200327513Y-56094514D01*
X200375132Y-56142133D01*
X200422751Y-56237371D01*
X200422751Y-56523085D01*
X200375132Y-56618323D01*
X200327513Y-56665942D01*
X311610751Y-48236085D02*
X310610751Y-48236085D01*
X310610751Y-47997990D01*
X310658371Y-47855133D01*
X310753609Y-47759895D01*
X310848847Y-47712276D01*
X311039323Y-47664657D01*
X311182180Y-47664657D01*
X311372656Y-47712276D01*
X311467894Y-47759895D01*
X311563132Y-47855133D01*
X311610751Y-47997990D01*
X311610751Y-48236085D01*
X310610751Y-47331323D02*
X310610751Y-46664657D01*
X311610751Y-47093228D01*
X310705990Y-46331323D02*
X310658371Y-46283704D01*
X310610751Y-46188466D01*
X310610751Y-45950371D01*
X310658371Y-45855133D01*
X310705990Y-45807514D01*
X310801228Y-45759895D01*
X310896466Y-45759895D01*
X311039323Y-45807514D01*
X311610751Y-46378942D01*
X311610751Y-45759895D01*
X228202751Y-62491685D02*
X227202751Y-62491685D01*
X227202751Y-62253590D01*
X227250371Y-62110733D01*
X227345609Y-62015495D01*
X227440847Y-61967876D01*
X227631323Y-61920257D01*
X227774180Y-61920257D01*
X227964656Y-61967876D01*
X228059894Y-62015495D01*
X228155132Y-62110733D01*
X228202751Y-62253590D01*
X228202751Y-62491685D01*
X227202751Y-61586923D02*
X227202751Y-60920257D01*
X228202751Y-61348828D01*
X228202751Y-60015495D02*
X228202751Y-60586923D01*
X228202751Y-60301209D02*
X227202751Y-60301209D01*
X227345609Y-60396447D01*
X227440847Y-60491685D01*
X227488466Y-60586923D01*
X228266751Y-48236085D02*
X227266751Y-48236085D01*
X227266751Y-47997990D01*
X227314371Y-47855133D01*
X227409609Y-47759895D01*
X227504847Y-47712276D01*
X227695323Y-47664657D01*
X227838180Y-47664657D01*
X228028656Y-47712276D01*
X228123894Y-47759895D01*
X228219132Y-47855133D01*
X228266751Y-47997990D01*
X228266751Y-48236085D01*
X227266751Y-47331323D02*
X227266751Y-46664657D01*
X228266751Y-47093228D01*
X227266751Y-46093228D02*
X227266751Y-45997990D01*
X227314371Y-45902752D01*
X227361990Y-45855133D01*
X227457228Y-45807514D01*
X227647704Y-45759895D01*
X227885799Y-45759895D01*
X228076275Y-45807514D01*
X228171513Y-45855133D01*
X228219132Y-45902752D01*
X228266751Y-45997990D01*
X228266751Y-46093228D01*
X228219132Y-46188466D01*
X228171513Y-46236085D01*
X228076275Y-46283704D01*
X227885799Y-46331323D01*
X227647704Y-46331323D01*
X227457228Y-46283704D01*
X227361990Y-46236085D01*
X227314371Y-46188466D01*
X227266751Y-46093228D01*
X200485751Y-45029285D02*
X199485751Y-45029285D01*
X199485751Y-44791190D01*
X199533371Y-44648333D01*
X199628609Y-44553095D01*
X199723847Y-44505476D01*
X199914323Y-44457857D01*
X200057180Y-44457857D01*
X200247656Y-44505476D01*
X200342894Y-44553095D01*
X200438132Y-44648333D01*
X200485751Y-44791190D01*
X200485751Y-45029285D01*
X199485751Y-43600714D02*
X199485751Y-43791190D01*
X199533371Y-43886428D01*
X199580990Y-43934047D01*
X199723847Y-44029285D01*
X199914323Y-44076904D01*
X200295275Y-44076904D01*
X200390513Y-44029285D01*
X200438132Y-43981666D01*
X200485751Y-43886428D01*
X200485751Y-43695952D01*
X200438132Y-43600714D01*
X200390513Y-43553095D01*
X200295275Y-43505476D01*
X200057180Y-43505476D01*
X199961942Y-43553095D01*
X199914323Y-43600714D01*
X199866704Y-43695952D01*
X199866704Y-43886428D01*
X199914323Y-43981666D01*
X199961942Y-44029285D01*
X200057180Y-44076904D01*
X200485751Y-43029285D02*
X200485751Y-42838809D01*
X200438132Y-42743571D01*
X200390513Y-42695952D01*
X200247656Y-42600714D01*
X200057180Y-42553095D01*
X199676228Y-42553095D01*
X199580990Y-42600714D01*
X199533371Y-42648333D01*
X199485751Y-42743571D01*
X199485751Y-42934047D01*
X199533371Y-43029285D01*
X199580990Y-43076904D01*
X199676228Y-43124523D01*
X199914323Y-43124523D01*
X200009561Y-43076904D01*
X200057180Y-43029285D01*
X200104799Y-42934047D01*
X200104799Y-42743571D01*
X200057180Y-42648333D01*
X200009561Y-42600714D01*
X199914323Y-42553095D01*
X169465751Y-61698085D02*
X168465751Y-61698085D01*
X168465751Y-61459990D01*
X168513371Y-61317133D01*
X168608609Y-61221895D01*
X168703847Y-61174276D01*
X168894323Y-61126657D01*
X169037180Y-61126657D01*
X169227656Y-61174276D01*
X169322894Y-61221895D01*
X169418132Y-61317133D01*
X169465751Y-61459990D01*
X169465751Y-61698085D01*
X168465751Y-60269514D02*
X168465751Y-60459990D01*
X168513371Y-60555228D01*
X168560990Y-60602847D01*
X168703847Y-60698085D01*
X168894323Y-60745704D01*
X169275275Y-60745704D01*
X169370513Y-60698085D01*
X169418132Y-60650466D01*
X169465751Y-60555228D01*
X169465751Y-60364752D01*
X169418132Y-60269514D01*
X169370513Y-60221895D01*
X169275275Y-60174276D01*
X169037180Y-60174276D01*
X168941942Y-60221895D01*
X168894323Y-60269514D01*
X168846704Y-60364752D01*
X168846704Y-60555228D01*
X168894323Y-60650466D01*
X168941942Y-60698085D01*
X169037180Y-60745704D01*
X168894323Y-59602847D02*
X168846704Y-59698085D01*
X168799085Y-59745704D01*
X168703847Y-59793323D01*
X168656228Y-59793323D01*
X168560990Y-59745704D01*
X168513371Y-59698085D01*
X168465751Y-59602847D01*
X168465751Y-59412371D01*
X168513371Y-59317133D01*
X168560990Y-59269514D01*
X168656228Y-59221895D01*
X168703847Y-59221895D01*
X168799085Y-59269514D01*
X168846704Y-59317133D01*
X168894323Y-59412371D01*
X168894323Y-59602847D01*
X168941942Y-59698085D01*
X168989561Y-59745704D01*
X169084799Y-59793323D01*
X169275275Y-59793323D01*
X169370513Y-59745704D01*
X169418132Y-59698085D01*
X169465751Y-59602847D01*
X169465751Y-59412371D01*
X169418132Y-59317133D01*
X169370513Y-59269514D01*
X169275275Y-59221895D01*
X169084799Y-59221895D01*
X168989561Y-59269514D01*
X168941942Y-59317133D01*
X168894323Y-59412371D01*
X169528751Y-48204285D02*
X168528751Y-48204285D01*
X168528751Y-47966190D01*
X168576371Y-47823333D01*
X168671609Y-47728095D01*
X168766847Y-47680476D01*
X168957323Y-47632857D01*
X169100180Y-47632857D01*
X169290656Y-47680476D01*
X169385894Y-47728095D01*
X169481132Y-47823333D01*
X169528751Y-47966190D01*
X169528751Y-48204285D01*
X168528751Y-46775714D02*
X168528751Y-46966190D01*
X168576371Y-47061428D01*
X168623990Y-47109047D01*
X168766847Y-47204285D01*
X168957323Y-47251904D01*
X169338275Y-47251904D01*
X169433513Y-47204285D01*
X169481132Y-47156666D01*
X169528751Y-47061428D01*
X169528751Y-46870952D01*
X169481132Y-46775714D01*
X169433513Y-46728095D01*
X169338275Y-46680476D01*
X169100180Y-46680476D01*
X169004942Y-46728095D01*
X168957323Y-46775714D01*
X168909704Y-46870952D01*
X168909704Y-47061428D01*
X168957323Y-47156666D01*
X169004942Y-47204285D01*
X169100180Y-47251904D01*
X168528751Y-46347142D02*
X168528751Y-45680476D01*
X169528751Y-46109047D01*
X139303751Y-61697985D02*
X138303751Y-61697985D01*
X138303751Y-61459890D01*
X138351371Y-61317033D01*
X138446609Y-61221795D01*
X138541847Y-61174176D01*
X138732323Y-61126557D01*
X138875180Y-61126557D01*
X139065656Y-61174176D01*
X139160894Y-61221795D01*
X139256132Y-61317033D01*
X139303751Y-61459890D01*
X139303751Y-61697985D01*
X138303751Y-60269414D02*
X138303751Y-60459890D01*
X138351371Y-60555128D01*
X138398990Y-60602747D01*
X138541847Y-60697985D01*
X138732323Y-60745604D01*
X139113275Y-60745604D01*
X139208513Y-60697985D01*
X139256132Y-60650366D01*
X139303751Y-60555128D01*
X139303751Y-60364652D01*
X139256132Y-60269414D01*
X139208513Y-60221795D01*
X139113275Y-60174176D01*
X138875180Y-60174176D01*
X138779942Y-60221795D01*
X138732323Y-60269414D01*
X138684704Y-60364652D01*
X138684704Y-60555128D01*
X138732323Y-60650366D01*
X138779942Y-60697985D01*
X138875180Y-60745604D01*
X138303751Y-59317033D02*
X138303751Y-59507509D01*
X138351371Y-59602747D01*
X138398990Y-59650366D01*
X138541847Y-59745604D01*
X138732323Y-59793223D01*
X139113275Y-59793223D01*
X139208513Y-59745604D01*
X139256132Y-59697985D01*
X139303751Y-59602747D01*
X139303751Y-59412271D01*
X139256132Y-59317033D01*
X139208513Y-59269414D01*
X139113275Y-59221795D01*
X138875180Y-59221795D01*
X138779942Y-59269414D01*
X138732323Y-59317033D01*
X138684704Y-59412271D01*
X138684704Y-59602747D01*
X138732323Y-59697985D01*
X138779942Y-59745604D01*
X138875180Y-59793223D01*
X139367751Y-48236085D02*
X138367751Y-48236085D01*
X138367751Y-47997990D01*
X138415371Y-47855133D01*
X138510609Y-47759895D01*
X138605847Y-47712276D01*
X138796323Y-47664657D01*
X138939180Y-47664657D01*
X139129656Y-47712276D01*
X139224894Y-47759895D01*
X139320132Y-47855133D01*
X139367751Y-47997990D01*
X139367751Y-48236085D01*
X138367751Y-46807514D02*
X138367751Y-46997990D01*
X138415371Y-47093228D01*
X138462990Y-47140847D01*
X138605847Y-47236085D01*
X138796323Y-47283704D01*
X139177275Y-47283704D01*
X139272513Y-47236085D01*
X139320132Y-47188466D01*
X139367751Y-47093228D01*
X139367751Y-46902752D01*
X139320132Y-46807514D01*
X139272513Y-46759895D01*
X139177275Y-46712276D01*
X138939180Y-46712276D01*
X138843942Y-46759895D01*
X138796323Y-46807514D01*
X138748704Y-46902752D01*
X138748704Y-47093228D01*
X138796323Y-47188466D01*
X138843942Y-47236085D01*
X138939180Y-47283704D01*
X138367751Y-45807514D02*
X138367751Y-46283704D01*
X138843942Y-46331323D01*
X138796323Y-46283704D01*
X138748704Y-46188466D01*
X138748704Y-45950371D01*
X138796323Y-45855133D01*
X138843942Y-45807514D01*
X138939180Y-45759895D01*
X139177275Y-45759895D01*
X139272513Y-45807514D01*
X139320132Y-45855133D01*
X139367751Y-45950371D01*
X139367751Y-46188466D01*
X139320132Y-46283704D01*
X139272513Y-46331323D01*
X113967751Y-48236085D02*
X112967751Y-48236085D01*
X112967751Y-47997990D01*
X113015371Y-47855133D01*
X113110609Y-47759895D01*
X113205847Y-47712276D01*
X113396323Y-47664657D01*
X113539180Y-47664657D01*
X113729656Y-47712276D01*
X113824894Y-47759895D01*
X113920132Y-47855133D01*
X113967751Y-47997990D01*
X113967751Y-48236085D01*
X112967751Y-46807514D02*
X112967751Y-46997990D01*
X113015371Y-47093228D01*
X113062990Y-47140847D01*
X113205847Y-47236085D01*
X113396323Y-47283704D01*
X113777275Y-47283704D01*
X113872513Y-47236085D01*
X113920132Y-47188466D01*
X113967751Y-47093228D01*
X113967751Y-46902752D01*
X113920132Y-46807514D01*
X113872513Y-46759895D01*
X113777275Y-46712276D01*
X113539180Y-46712276D01*
X113443942Y-46759895D01*
X113396323Y-46807514D01*
X113348704Y-46902752D01*
X113348704Y-47093228D01*
X113396323Y-47188466D01*
X113443942Y-47236085D01*
X113539180Y-47283704D01*
X113301085Y-45855133D02*
X113967751Y-45855133D01*
X112920132Y-46093228D02*
X113634418Y-46331323D01*
X113634418Y-45712276D01*
X277416751Y-60904185D02*
X276416751Y-60904185D01*
X276416751Y-60666090D01*
X276464371Y-60523233D01*
X276559609Y-60427995D01*
X276654847Y-60380376D01*
X276845323Y-60332757D01*
X276988180Y-60332757D01*
X277178656Y-60380376D01*
X277273894Y-60427995D01*
X277369132Y-60523233D01*
X277416751Y-60666090D01*
X277416751Y-60904185D01*
X276416751Y-59475614D02*
X276416751Y-59666090D01*
X276464371Y-59761328D01*
X276511990Y-59808947D01*
X276654847Y-59904185D01*
X276845323Y-59951804D01*
X277226275Y-59951804D01*
X277321513Y-59904185D01*
X277369132Y-59856566D01*
X277416751Y-59761328D01*
X277416751Y-59570852D01*
X277369132Y-59475614D01*
X277321513Y-59427995D01*
X277226275Y-59380376D01*
X276988180Y-59380376D01*
X276892942Y-59427995D01*
X276845323Y-59475614D01*
X276797704Y-59570852D01*
X276797704Y-59761328D01*
X276845323Y-59856566D01*
X276892942Y-59904185D01*
X276988180Y-59951804D01*
X276511990Y-58999423D02*
X276464371Y-58951804D01*
X276416751Y-58856566D01*
X276416751Y-58618471D01*
X276464371Y-58523233D01*
X276511990Y-58475614D01*
X276607228Y-58427995D01*
X276702466Y-58427995D01*
X276845323Y-58475614D01*
X277416751Y-59047042D01*
X277416751Y-58427995D01*
X281447751Y-47442385D02*
X280447751Y-47442385D01*
X280447751Y-47204290D01*
X280495371Y-47061433D01*
X280590609Y-46966195D01*
X280685847Y-46918576D01*
X280876323Y-46870957D01*
X281019180Y-46870957D01*
X281209656Y-46918576D01*
X281304894Y-46966195D01*
X281400132Y-47061433D01*
X281447751Y-47204290D01*
X281447751Y-47442385D01*
X280447751Y-46013814D02*
X280447751Y-46204290D01*
X280495371Y-46299528D01*
X280542990Y-46347147D01*
X280685847Y-46442385D01*
X280876323Y-46490004D01*
X281257275Y-46490004D01*
X281352513Y-46442385D01*
X281400132Y-46394766D01*
X281447751Y-46299528D01*
X281447751Y-46109052D01*
X281400132Y-46013814D01*
X281352513Y-45966195D01*
X281257275Y-45918576D01*
X281019180Y-45918576D01*
X280923942Y-45966195D01*
X280876323Y-46013814D01*
X280828704Y-46109052D01*
X280828704Y-46299528D01*
X280876323Y-46394766D01*
X280923942Y-46442385D01*
X281019180Y-46490004D01*
X281447751Y-44966195D02*
X281447751Y-45537623D01*
X281447751Y-45251909D02*
X280447751Y-45251909D01*
X280590609Y-45347147D01*
X280685847Y-45442385D01*
X280733466Y-45537623D01*
X251222751Y-61697985D02*
X250222751Y-61697985D01*
X250222751Y-61459890D01*
X250270371Y-61317033D01*
X250365609Y-61221795D01*
X250460847Y-61174176D01*
X250651323Y-61126557D01*
X250794180Y-61126557D01*
X250984656Y-61174176D01*
X251079894Y-61221795D01*
X251175132Y-61317033D01*
X251222751Y-61459890D01*
X251222751Y-61697985D01*
X250222751Y-60269414D02*
X250222751Y-60459890D01*
X250270371Y-60555128D01*
X250317990Y-60602747D01*
X250460847Y-60697985D01*
X250651323Y-60745604D01*
X251032275Y-60745604D01*
X251127513Y-60697985D01*
X251175132Y-60650366D01*
X251222751Y-60555128D01*
X251222751Y-60364652D01*
X251175132Y-60269414D01*
X251127513Y-60221795D01*
X251032275Y-60174176D01*
X250794180Y-60174176D01*
X250698942Y-60221795D01*
X250651323Y-60269414D01*
X250603704Y-60364652D01*
X250603704Y-60555128D01*
X250651323Y-60650366D01*
X250698942Y-60697985D01*
X250794180Y-60745604D01*
X250222751Y-59555128D02*
X250222751Y-59459890D01*
X250270371Y-59364652D01*
X250317990Y-59317033D01*
X250413228Y-59269414D01*
X250603704Y-59221795D01*
X250841799Y-59221795D01*
X251032275Y-59269414D01*
X251127513Y-59317033D01*
X251175132Y-59364652D01*
X251222751Y-59459890D01*
X251222751Y-59555128D01*
X251175132Y-59650366D01*
X251127513Y-59697985D01*
X251032275Y-59745604D01*
X250841799Y-59793223D01*
X250603704Y-59793223D01*
X250413228Y-59745604D01*
X250317990Y-59697985D01*
X250270371Y-59650366D01*
X250222751Y-59555128D01*
X251285751Y-47442385D02*
X250285751Y-47442385D01*
X250285751Y-47204290D01*
X250333371Y-47061433D01*
X250428609Y-46966195D01*
X250523847Y-46918576D01*
X250714323Y-46870957D01*
X250857180Y-46870957D01*
X251047656Y-46918576D01*
X251142894Y-46966195D01*
X251238132Y-47061433D01*
X251285751Y-47204290D01*
X251285751Y-47442385D01*
X250285751Y-45966195D02*
X250285751Y-46442385D01*
X250761942Y-46490004D01*
X250714323Y-46442385D01*
X250666704Y-46347147D01*
X250666704Y-46109052D01*
X250714323Y-46013814D01*
X250761942Y-45966195D01*
X250857180Y-45918576D01*
X251095275Y-45918576D01*
X251190513Y-45966195D01*
X251238132Y-46013814D01*
X251285751Y-46109052D01*
X251285751Y-46347147D01*
X251238132Y-46442385D01*
X251190513Y-46490004D01*
X251285751Y-45442385D02*
X251285751Y-45251909D01*
X251238132Y-45156671D01*
X251190513Y-45109052D01*
X251047656Y-45013814D01*
X250857180Y-44966195D01*
X250476228Y-44966195D01*
X250380990Y-45013814D01*
X250333371Y-45061433D01*
X250285751Y-45156671D01*
X250285751Y-45347147D01*
X250333371Y-45442385D01*
X250380990Y-45490004D01*
X250476228Y-45537623D01*
X250714323Y-45537623D01*
X250809561Y-45490004D01*
X250857180Y-45442385D01*
X250904799Y-45347147D01*
X250904799Y-45156671D01*
X250857180Y-45061433D01*
X250809561Y-45013814D01*
X250714323Y-44966195D01*
X190897751Y-60904285D02*
X189897751Y-60904285D01*
X189897751Y-60666190D01*
X189945371Y-60523333D01*
X190040609Y-60428095D01*
X190135847Y-60380476D01*
X190326323Y-60332857D01*
X190469180Y-60332857D01*
X190659656Y-60380476D01*
X190754894Y-60428095D01*
X190850132Y-60523333D01*
X190897751Y-60666190D01*
X190897751Y-60904285D01*
X189897751Y-59428095D02*
X189897751Y-59904285D01*
X190373942Y-59951904D01*
X190326323Y-59904285D01*
X190278704Y-59809047D01*
X190278704Y-59570952D01*
X190326323Y-59475714D01*
X190373942Y-59428095D01*
X190469180Y-59380476D01*
X190707275Y-59380476D01*
X190802513Y-59428095D01*
X190850132Y-59475714D01*
X190897751Y-59570952D01*
X190897751Y-59809047D01*
X190850132Y-59904285D01*
X190802513Y-59951904D01*
X190326323Y-58809047D02*
X190278704Y-58904285D01*
X190231085Y-58951904D01*
X190135847Y-58999523D01*
X190088228Y-58999523D01*
X189992990Y-58951904D01*
X189945371Y-58904285D01*
X189897751Y-58809047D01*
X189897751Y-58618571D01*
X189945371Y-58523333D01*
X189992990Y-58475714D01*
X190088228Y-58428095D01*
X190135847Y-58428095D01*
X190231085Y-58475714D01*
X190278704Y-58523333D01*
X190326323Y-58618571D01*
X190326323Y-58809047D01*
X190373942Y-58904285D01*
X190421561Y-58951904D01*
X190516799Y-58999523D01*
X190707275Y-58999523D01*
X190802513Y-58951904D01*
X190850132Y-58904285D01*
X190897751Y-58809047D01*
X190897751Y-58618571D01*
X190850132Y-58523333D01*
X190802513Y-58475714D01*
X190707275Y-58428095D01*
X190516799Y-58428095D01*
X190421561Y-58475714D01*
X190373942Y-58523333D01*
X190326323Y-58618571D01*
X307642751Y-47442385D02*
X306642751Y-47442385D01*
X306642751Y-47204290D01*
X306690371Y-47061433D01*
X306785609Y-46966195D01*
X306880847Y-46918576D01*
X307071323Y-46870957D01*
X307214180Y-46870957D01*
X307404656Y-46918576D01*
X307499894Y-46966195D01*
X307595132Y-47061433D01*
X307642751Y-47204290D01*
X307642751Y-47442385D01*
X306642751Y-45966195D02*
X306642751Y-46442385D01*
X307118942Y-46490004D01*
X307071323Y-46442385D01*
X307023704Y-46347147D01*
X307023704Y-46109052D01*
X307071323Y-46013814D01*
X307118942Y-45966195D01*
X307214180Y-45918576D01*
X307452275Y-45918576D01*
X307547513Y-45966195D01*
X307595132Y-46013814D01*
X307642751Y-46109052D01*
X307642751Y-46347147D01*
X307595132Y-46442385D01*
X307547513Y-46490004D01*
X306642751Y-45585242D02*
X306642751Y-44918576D01*
X307642751Y-45347147D01*
X224234751Y-61697985D02*
X223234751Y-61697985D01*
X223234751Y-61459890D01*
X223282371Y-61317033D01*
X223377609Y-61221795D01*
X223472847Y-61174176D01*
X223663323Y-61126557D01*
X223806180Y-61126557D01*
X223996656Y-61174176D01*
X224091894Y-61221795D01*
X224187132Y-61317033D01*
X224234751Y-61459890D01*
X224234751Y-61697985D01*
X223234751Y-60221795D02*
X223234751Y-60697985D01*
X223710942Y-60745604D01*
X223663323Y-60697985D01*
X223615704Y-60602747D01*
X223615704Y-60364652D01*
X223663323Y-60269414D01*
X223710942Y-60221795D01*
X223806180Y-60174176D01*
X224044275Y-60174176D01*
X224139513Y-60221795D01*
X224187132Y-60269414D01*
X224234751Y-60364652D01*
X224234751Y-60602747D01*
X224187132Y-60697985D01*
X224139513Y-60745604D01*
X223234751Y-59317033D02*
X223234751Y-59507509D01*
X223282371Y-59602747D01*
X223329990Y-59650366D01*
X223472847Y-59745604D01*
X223663323Y-59793223D01*
X224044275Y-59793223D01*
X224139513Y-59745604D01*
X224187132Y-59697985D01*
X224234751Y-59602747D01*
X224234751Y-59412271D01*
X224187132Y-59317033D01*
X224139513Y-59269414D01*
X224044275Y-59221795D01*
X223806180Y-59221795D01*
X223710942Y-59269414D01*
X223663323Y-59317033D01*
X223615704Y-59412271D01*
X223615704Y-59602747D01*
X223663323Y-59697985D01*
X223710942Y-59745604D01*
X223806180Y-59793223D01*
X224298751Y-47442385D02*
X223298751Y-47442385D01*
X223298751Y-47204290D01*
X223346371Y-47061433D01*
X223441609Y-46966195D01*
X223536847Y-46918576D01*
X223727323Y-46870957D01*
X223870180Y-46870957D01*
X224060656Y-46918576D01*
X224155894Y-46966195D01*
X224251132Y-47061433D01*
X224298751Y-47204290D01*
X224298751Y-47442385D01*
X223298751Y-45966195D02*
X223298751Y-46442385D01*
X223774942Y-46490004D01*
X223727323Y-46442385D01*
X223679704Y-46347147D01*
X223679704Y-46109052D01*
X223727323Y-46013814D01*
X223774942Y-45966195D01*
X223870180Y-45918576D01*
X224108275Y-45918576D01*
X224203513Y-45966195D01*
X224251132Y-46013814D01*
X224298751Y-46109052D01*
X224298751Y-46347147D01*
X224251132Y-46442385D01*
X224203513Y-46490004D01*
X223298751Y-45013814D02*
X223298751Y-45490004D01*
X223774942Y-45537623D01*
X223727323Y-45490004D01*
X223679704Y-45394766D01*
X223679704Y-45156671D01*
X223727323Y-45061433D01*
X223774942Y-45013814D01*
X223870180Y-44966195D01*
X224108275Y-44966195D01*
X224203513Y-45013814D01*
X224251132Y-45061433D01*
X224298751Y-45156671D01*
X224298751Y-45394766D01*
X224251132Y-45490004D01*
X224203513Y-45537623D01*
X190897751Y-47410485D02*
X189897751Y-47410485D01*
X189897751Y-47172390D01*
X189945371Y-47029533D01*
X190040609Y-46934295D01*
X190135847Y-46886676D01*
X190326323Y-46839057D01*
X190469180Y-46839057D01*
X190659656Y-46886676D01*
X190754894Y-46934295D01*
X190850132Y-47029533D01*
X190897751Y-47172390D01*
X190897751Y-47410485D01*
X189897751Y-45934295D02*
X189897751Y-46410485D01*
X190373942Y-46458104D01*
X190326323Y-46410485D01*
X190278704Y-46315247D01*
X190278704Y-46077152D01*
X190326323Y-45981914D01*
X190373942Y-45934295D01*
X190469180Y-45886676D01*
X190707275Y-45886676D01*
X190802513Y-45934295D01*
X190850132Y-45981914D01*
X190897751Y-46077152D01*
X190897751Y-46315247D01*
X190850132Y-46410485D01*
X190802513Y-46458104D01*
X190231085Y-45029533D02*
X190897751Y-45029533D01*
X189850132Y-45267628D02*
X190564418Y-45505723D01*
X190564418Y-44886676D01*
X165497751Y-60904185D02*
X164497751Y-60904185D01*
X164497751Y-60666090D01*
X164545371Y-60523233D01*
X164640609Y-60427995D01*
X164735847Y-60380376D01*
X164926323Y-60332757D01*
X165069180Y-60332757D01*
X165259656Y-60380376D01*
X165354894Y-60427995D01*
X165450132Y-60523233D01*
X165497751Y-60666090D01*
X165497751Y-60904185D01*
X164497751Y-59427995D02*
X164497751Y-59904185D01*
X164973942Y-59951804D01*
X164926323Y-59904185D01*
X164878704Y-59808947D01*
X164878704Y-59570852D01*
X164926323Y-59475614D01*
X164973942Y-59427995D01*
X165069180Y-59380376D01*
X165307275Y-59380376D01*
X165402513Y-59427995D01*
X165450132Y-59475614D01*
X165497751Y-59570852D01*
X165497751Y-59808947D01*
X165450132Y-59904185D01*
X165402513Y-59951804D01*
X164497751Y-59047042D02*
X164497751Y-58427995D01*
X164878704Y-58761328D01*
X164878704Y-58618471D01*
X164926323Y-58523233D01*
X164973942Y-58475614D01*
X165069180Y-58427995D01*
X165307275Y-58427995D01*
X165402513Y-58475614D01*
X165450132Y-58523233D01*
X165497751Y-58618471D01*
X165497751Y-58904185D01*
X165450132Y-58999423D01*
X165402513Y-59047042D01*
X165560751Y-47442385D02*
X164560751Y-47442385D01*
X164560751Y-47204290D01*
X164608371Y-47061433D01*
X164703609Y-46966195D01*
X164798847Y-46918576D01*
X164989323Y-46870957D01*
X165132180Y-46870957D01*
X165322656Y-46918576D01*
X165417894Y-46966195D01*
X165513132Y-47061433D01*
X165560751Y-47204290D01*
X165560751Y-47442385D01*
X164560751Y-45966195D02*
X164560751Y-46442385D01*
X165036942Y-46490004D01*
X164989323Y-46442385D01*
X164941704Y-46347147D01*
X164941704Y-46109052D01*
X164989323Y-46013814D01*
X165036942Y-45966195D01*
X165132180Y-45918576D01*
X165370275Y-45918576D01*
X165465513Y-45966195D01*
X165513132Y-46013814D01*
X165560751Y-46109052D01*
X165560751Y-46347147D01*
X165513132Y-46442385D01*
X165465513Y-46490004D01*
X164655990Y-45537623D02*
X164608371Y-45490004D01*
X164560751Y-45394766D01*
X164560751Y-45156671D01*
X164608371Y-45061433D01*
X164655990Y-45013814D01*
X164751228Y-44966195D01*
X164846466Y-44966195D01*
X164989323Y-45013814D01*
X165560751Y-45585242D01*
X165560751Y-44966195D01*
X135335751Y-60904185D02*
X134335751Y-60904185D01*
X134335751Y-60666090D01*
X134383371Y-60523233D01*
X134478609Y-60427995D01*
X134573847Y-60380376D01*
X134764323Y-60332757D01*
X134907180Y-60332757D01*
X135097656Y-60380376D01*
X135192894Y-60427995D01*
X135288132Y-60523233D01*
X135335751Y-60666090D01*
X135335751Y-60904185D01*
X134335751Y-59427995D02*
X134335751Y-59904185D01*
X134811942Y-59951804D01*
X134764323Y-59904185D01*
X134716704Y-59808947D01*
X134716704Y-59570852D01*
X134764323Y-59475614D01*
X134811942Y-59427995D01*
X134907180Y-59380376D01*
X135145275Y-59380376D01*
X135240513Y-59427995D01*
X135288132Y-59475614D01*
X135335751Y-59570852D01*
X135335751Y-59808947D01*
X135288132Y-59904185D01*
X135240513Y-59951804D01*
X135335751Y-58427995D02*
X135335751Y-58999423D01*
X135335751Y-58713709D02*
X134335751Y-58713709D01*
X134478609Y-58808947D01*
X134573847Y-58904185D01*
X134621466Y-58999423D01*
X135398751Y-47442385D02*
X134398751Y-47442385D01*
X134398751Y-47204290D01*
X134446371Y-47061433D01*
X134541609Y-46966195D01*
X134636847Y-46918576D01*
X134827323Y-46870957D01*
X134970180Y-46870957D01*
X135160656Y-46918576D01*
X135255894Y-46966195D01*
X135351132Y-47061433D01*
X135398751Y-47204290D01*
X135398751Y-47442385D01*
X134398751Y-45966195D02*
X134398751Y-46442385D01*
X134874942Y-46490004D01*
X134827323Y-46442385D01*
X134779704Y-46347147D01*
X134779704Y-46109052D01*
X134827323Y-46013814D01*
X134874942Y-45966195D01*
X134970180Y-45918576D01*
X135208275Y-45918576D01*
X135303513Y-45966195D01*
X135351132Y-46013814D01*
X135398751Y-46109052D01*
X135398751Y-46347147D01*
X135351132Y-46442385D01*
X135303513Y-46490004D01*
X134398751Y-45299528D02*
X134398751Y-45204290D01*
X134446371Y-45109052D01*
X134493990Y-45061433D01*
X134589228Y-45013814D01*
X134779704Y-44966195D01*
X135017799Y-44966195D01*
X135208275Y-45013814D01*
X135303513Y-45061433D01*
X135351132Y-45109052D01*
X135398751Y-45204290D01*
X135398751Y-45299528D01*
X135351132Y-45394766D01*
X135303513Y-45442385D01*
X135208275Y-45490004D01*
X135017799Y-45537623D01*
X134779704Y-45537623D01*
X134589228Y-45490004D01*
X134493990Y-45442385D01*
X134446371Y-45394766D01*
X134398751Y-45299528D01*
X109998751Y-47429685D02*
X108998751Y-47429685D01*
X108998751Y-47191590D01*
X109046371Y-47048733D01*
X109141609Y-46953495D01*
X109236847Y-46905876D01*
X109427323Y-46858257D01*
X109570180Y-46858257D01*
X109760656Y-46905876D01*
X109855894Y-46953495D01*
X109951132Y-47048733D01*
X109998751Y-47191590D01*
X109998751Y-47429685D01*
X109332085Y-46001114D02*
X109998751Y-46001114D01*
X108951132Y-46239209D02*
X109665418Y-46477304D01*
X109665418Y-45858257D01*
X109998751Y-45429685D02*
X109998751Y-45239209D01*
X109951132Y-45143971D01*
X109903513Y-45096352D01*
X109760656Y-45001114D01*
X109570180Y-44953495D01*
X109189228Y-44953495D01*
X109093990Y-45001114D01*
X109046371Y-45048733D01*
X108998751Y-45143971D01*
X108998751Y-45334447D01*
X109046371Y-45429685D01*
X109093990Y-45477304D01*
X109189228Y-45524923D01*
X109427323Y-45524923D01*
X109522561Y-45477304D01*
X109570180Y-45429685D01*
X109617799Y-45334447D01*
X109617799Y-45143971D01*
X109570180Y-45048733D01*
X109522561Y-45001114D01*
X109427323Y-44953495D01*
X273446751Y-60110485D02*
X272446751Y-60110485D01*
X272446751Y-59872390D01*
X272494371Y-59729533D01*
X272589609Y-59634295D01*
X272684847Y-59586676D01*
X272875323Y-59539057D01*
X273018180Y-59539057D01*
X273208656Y-59586676D01*
X273303894Y-59634295D01*
X273399132Y-59729533D01*
X273446751Y-59872390D01*
X273446751Y-60110485D01*
X272780085Y-58681914D02*
X273446751Y-58681914D01*
X272399132Y-58920009D02*
X273113418Y-59158104D01*
X273113418Y-58539057D01*
X272446751Y-58253342D02*
X272446751Y-57586676D01*
X273446751Y-58015247D01*
X303609751Y-60904185D02*
X302609751Y-60904185D01*
X302609751Y-60666090D01*
X302657371Y-60523233D01*
X302752609Y-60427995D01*
X302847847Y-60380376D01*
X303038323Y-60332757D01*
X303181180Y-60332757D01*
X303371656Y-60380376D01*
X303466894Y-60427995D01*
X303562132Y-60523233D01*
X303609751Y-60666090D01*
X303609751Y-60904185D01*
X302943085Y-59475614D02*
X303609751Y-59475614D01*
X302562132Y-59713709D02*
X303276418Y-59951804D01*
X303276418Y-59332757D01*
X302609751Y-58523233D02*
X302609751Y-58713709D01*
X302657371Y-58808947D01*
X302704990Y-58856566D01*
X302847847Y-58951804D01*
X303038323Y-58999423D01*
X303419275Y-58999423D01*
X303514513Y-58951804D01*
X303562132Y-58904185D01*
X303609751Y-58808947D01*
X303609751Y-58618471D01*
X303562132Y-58523233D01*
X303514513Y-58475614D01*
X303419275Y-58427995D01*
X303181180Y-58427995D01*
X303085942Y-58475614D01*
X303038323Y-58523233D01*
X302990704Y-58618471D01*
X302990704Y-58808947D01*
X303038323Y-58904185D01*
X303085942Y-58951804D01*
X303181180Y-58999423D01*
X277479751Y-46648585D02*
X276479751Y-46648585D01*
X276479751Y-46410490D01*
X276527371Y-46267633D01*
X276622609Y-46172395D01*
X276717847Y-46124776D01*
X276908323Y-46077157D01*
X277051180Y-46077157D01*
X277241656Y-46124776D01*
X277336894Y-46172395D01*
X277432132Y-46267633D01*
X277479751Y-46410490D01*
X277479751Y-46648585D01*
X276813085Y-45220014D02*
X277479751Y-45220014D01*
X276432132Y-45458109D02*
X277146418Y-45696204D01*
X277146418Y-45077157D01*
X276479751Y-44220014D02*
X276479751Y-44696204D01*
X276955942Y-44743823D01*
X276908323Y-44696204D01*
X276860704Y-44600966D01*
X276860704Y-44362871D01*
X276908323Y-44267633D01*
X276955942Y-44220014D01*
X277051180Y-44172395D01*
X277289275Y-44172395D01*
X277384513Y-44220014D01*
X277432132Y-44267633D01*
X277479751Y-44362871D01*
X277479751Y-44600966D01*
X277432132Y-44696204D01*
X277384513Y-44743823D01*
X247254751Y-60904185D02*
X246254751Y-60904185D01*
X246254751Y-60666090D01*
X246302371Y-60523233D01*
X246397609Y-60427995D01*
X246492847Y-60380376D01*
X246683323Y-60332757D01*
X246826180Y-60332757D01*
X247016656Y-60380376D01*
X247111894Y-60427995D01*
X247207132Y-60523233D01*
X247254751Y-60666090D01*
X247254751Y-60904185D01*
X246588085Y-59475614D02*
X247254751Y-59475614D01*
X246207132Y-59713709D02*
X246921418Y-59951804D01*
X246921418Y-59332757D01*
X246588085Y-58523233D02*
X247254751Y-58523233D01*
X246207132Y-58761328D02*
X246921418Y-58999423D01*
X246921418Y-58380376D01*
X247318751Y-46648585D02*
X246318751Y-46648585D01*
X246318751Y-46410490D01*
X246366371Y-46267633D01*
X246461609Y-46172395D01*
X246556847Y-46124776D01*
X246747323Y-46077157D01*
X246890180Y-46077157D01*
X247080656Y-46124776D01*
X247175894Y-46172395D01*
X247271132Y-46267633D01*
X247318751Y-46410490D01*
X247318751Y-46648585D01*
X246652085Y-45220014D02*
X247318751Y-45220014D01*
X246271132Y-45458109D02*
X246985418Y-45696204D01*
X246985418Y-45077157D01*
X246318751Y-44791442D02*
X246318751Y-44172395D01*
X246699704Y-44505728D01*
X246699704Y-44362871D01*
X246747323Y-44267633D01*
X246794942Y-44220014D01*
X246890180Y-44172395D01*
X247128275Y-44172395D01*
X247223513Y-44220014D01*
X247271132Y-44267633D01*
X247318751Y-44362871D01*
X247318751Y-44648585D01*
X247271132Y-44743823D01*
X247223513Y-44791442D01*
X186928751Y-60110485D02*
X185928751Y-60110485D01*
X185928751Y-59872390D01*
X185976371Y-59729533D01*
X186071609Y-59634295D01*
X186166847Y-59586676D01*
X186357323Y-59539057D01*
X186500180Y-59539057D01*
X186690656Y-59586676D01*
X186785894Y-59634295D01*
X186881132Y-59729533D01*
X186928751Y-59872390D01*
X186928751Y-60110485D01*
X186262085Y-58681914D02*
X186928751Y-58681914D01*
X185881132Y-58920009D02*
X186595418Y-59158104D01*
X186595418Y-58539057D01*
X186023990Y-58205723D02*
X185976371Y-58158104D01*
X185928751Y-58062866D01*
X185928751Y-57824771D01*
X185976371Y-57729533D01*
X186023990Y-57681914D01*
X186119228Y-57634295D01*
X186214466Y-57634295D01*
X186357323Y-57681914D01*
X186928751Y-58253342D01*
X186928751Y-57634295D01*
X303673751Y-46648585D02*
X302673751Y-46648585D01*
X302673751Y-46410490D01*
X302721371Y-46267633D01*
X302816609Y-46172395D01*
X302911847Y-46124776D01*
X303102323Y-46077157D01*
X303245180Y-46077157D01*
X303435656Y-46124776D01*
X303530894Y-46172395D01*
X303626132Y-46267633D01*
X303673751Y-46410490D01*
X303673751Y-46648585D01*
X303007085Y-45220014D02*
X303673751Y-45220014D01*
X302626132Y-45458109D02*
X303340418Y-45696204D01*
X303340418Y-45077157D01*
X303673751Y-44172395D02*
X303673751Y-44743823D01*
X303673751Y-44458109D02*
X302673751Y-44458109D01*
X302816609Y-44553347D01*
X302911847Y-44648585D01*
X302959466Y-44743823D01*
X220265751Y-60904185D02*
X219265751Y-60904185D01*
X219265751Y-60666090D01*
X219313371Y-60523233D01*
X219408609Y-60427995D01*
X219503847Y-60380376D01*
X219694323Y-60332757D01*
X219837180Y-60332757D01*
X220027656Y-60380376D01*
X220122894Y-60427995D01*
X220218132Y-60523233D01*
X220265751Y-60666090D01*
X220265751Y-60904185D01*
X219599085Y-59475614D02*
X220265751Y-59475614D01*
X219218132Y-59713709D02*
X219932418Y-59951804D01*
X219932418Y-59332757D01*
X219265751Y-58761328D02*
X219265751Y-58666090D01*
X219313371Y-58570852D01*
X219360990Y-58523233D01*
X219456228Y-58475614D01*
X219646704Y-58427995D01*
X219884799Y-58427995D01*
X220075275Y-58475614D01*
X220170513Y-58523233D01*
X220218132Y-58570852D01*
X220265751Y-58666090D01*
X220265751Y-58761328D01*
X220218132Y-58856566D01*
X220170513Y-58904185D01*
X220075275Y-58951804D01*
X219884799Y-58999423D01*
X219646704Y-58999423D01*
X219456228Y-58951804D01*
X219360990Y-58904185D01*
X219313371Y-58856566D01*
X219265751Y-58761328D01*
X220329751Y-46648585D02*
X219329751Y-46648585D01*
X219329751Y-46410490D01*
X219377371Y-46267633D01*
X219472609Y-46172395D01*
X219567847Y-46124776D01*
X219758323Y-46077157D01*
X219901180Y-46077157D01*
X220091656Y-46124776D01*
X220186894Y-46172395D01*
X220282132Y-46267633D01*
X220329751Y-46410490D01*
X220329751Y-46648585D01*
X219329751Y-45743823D02*
X219329751Y-45124776D01*
X219710704Y-45458109D01*
X219710704Y-45315252D01*
X219758323Y-45220014D01*
X219805942Y-45172395D01*
X219901180Y-45124776D01*
X220139275Y-45124776D01*
X220234513Y-45172395D01*
X220282132Y-45220014D01*
X220329751Y-45315252D01*
X220329751Y-45600966D01*
X220282132Y-45696204D01*
X220234513Y-45743823D01*
X220329751Y-44648585D02*
X220329751Y-44458109D01*
X220282132Y-44362871D01*
X220234513Y-44315252D01*
X220091656Y-44220014D01*
X219901180Y-44172395D01*
X219520228Y-44172395D01*
X219424990Y-44220014D01*
X219377371Y-44267633D01*
X219329751Y-44362871D01*
X219329751Y-44553347D01*
X219377371Y-44648585D01*
X219424990Y-44696204D01*
X219520228Y-44743823D01*
X219758323Y-44743823D01*
X219853561Y-44696204D01*
X219901180Y-44648585D01*
X219948799Y-44553347D01*
X219948799Y-44362871D01*
X219901180Y-44267633D01*
X219853561Y-44220014D01*
X219758323Y-44172395D01*
X186928751Y-46616785D02*
X185928751Y-46616785D01*
X185928751Y-46378690D01*
X185976371Y-46235833D01*
X186071609Y-46140595D01*
X186166847Y-46092976D01*
X186357323Y-46045357D01*
X186500180Y-46045357D01*
X186690656Y-46092976D01*
X186785894Y-46140595D01*
X186881132Y-46235833D01*
X186928751Y-46378690D01*
X186928751Y-46616785D01*
X185928751Y-45712023D02*
X185928751Y-45092976D01*
X186309704Y-45426309D01*
X186309704Y-45283452D01*
X186357323Y-45188214D01*
X186404942Y-45140595D01*
X186500180Y-45092976D01*
X186738275Y-45092976D01*
X186833513Y-45140595D01*
X186881132Y-45188214D01*
X186928751Y-45283452D01*
X186928751Y-45569166D01*
X186881132Y-45664404D01*
X186833513Y-45712023D01*
X186357323Y-44521547D02*
X186309704Y-44616785D01*
X186262085Y-44664404D01*
X186166847Y-44712023D01*
X186119228Y-44712023D01*
X186023990Y-44664404D01*
X185976371Y-44616785D01*
X185928751Y-44521547D01*
X185928751Y-44331071D01*
X185976371Y-44235833D01*
X186023990Y-44188214D01*
X186119228Y-44140595D01*
X186166847Y-44140595D01*
X186262085Y-44188214D01*
X186309704Y-44235833D01*
X186357323Y-44331071D01*
X186357323Y-44521547D01*
X186404942Y-44616785D01*
X186452561Y-44664404D01*
X186547799Y-44712023D01*
X186738275Y-44712023D01*
X186833513Y-44664404D01*
X186881132Y-44616785D01*
X186928751Y-44521547D01*
X186928751Y-44331071D01*
X186881132Y-44235833D01*
X186833513Y-44188214D01*
X186738275Y-44140595D01*
X186547799Y-44140595D01*
X186452561Y-44188214D01*
X186404942Y-44235833D01*
X186357323Y-44331071D01*
X161529751Y-60110485D02*
X160529751Y-60110485D01*
X160529751Y-59872390D01*
X160577371Y-59729533D01*
X160672609Y-59634295D01*
X160767847Y-59586676D01*
X160958323Y-59539057D01*
X161101180Y-59539057D01*
X161291656Y-59586676D01*
X161386894Y-59634295D01*
X161482132Y-59729533D01*
X161529751Y-59872390D01*
X161529751Y-60110485D01*
X160529751Y-59205723D02*
X160529751Y-58586676D01*
X160910704Y-58920009D01*
X160910704Y-58777152D01*
X160958323Y-58681914D01*
X161005942Y-58634295D01*
X161101180Y-58586676D01*
X161339275Y-58586676D01*
X161434513Y-58634295D01*
X161482132Y-58681914D01*
X161529751Y-58777152D01*
X161529751Y-59062866D01*
X161482132Y-59158104D01*
X161434513Y-59205723D01*
X160529751Y-58253342D02*
X160529751Y-57586676D01*
X161529751Y-58015247D01*
X161593751Y-46648585D02*
X160593751Y-46648585D01*
X160593751Y-46410490D01*
X160641371Y-46267633D01*
X160736609Y-46172395D01*
X160831847Y-46124776D01*
X161022323Y-46077157D01*
X161165180Y-46077157D01*
X161355656Y-46124776D01*
X161450894Y-46172395D01*
X161546132Y-46267633D01*
X161593751Y-46410490D01*
X161593751Y-46648585D01*
X160593751Y-45743823D02*
X160593751Y-45124776D01*
X160974704Y-45458109D01*
X160974704Y-45315252D01*
X161022323Y-45220014D01*
X161069942Y-45172395D01*
X161165180Y-45124776D01*
X161403275Y-45124776D01*
X161498513Y-45172395D01*
X161546132Y-45220014D01*
X161593751Y-45315252D01*
X161593751Y-45600966D01*
X161546132Y-45696204D01*
X161498513Y-45743823D01*
X160593751Y-44267633D02*
X160593751Y-44458109D01*
X160641371Y-44553347D01*
X160688990Y-44600966D01*
X160831847Y-44696204D01*
X161022323Y-44743823D01*
X161403275Y-44743823D01*
X161498513Y-44696204D01*
X161546132Y-44648585D01*
X161593751Y-44553347D01*
X161593751Y-44362871D01*
X161546132Y-44267633D01*
X161498513Y-44220014D01*
X161403275Y-44172395D01*
X161165180Y-44172395D01*
X161069942Y-44220014D01*
X161022323Y-44267633D01*
X160974704Y-44362871D01*
X160974704Y-44553347D01*
X161022323Y-44648585D01*
X161069942Y-44696204D01*
X161165180Y-44743823D01*
X131366751Y-60110485D02*
X130366751Y-60110485D01*
X130366751Y-59872390D01*
X130414371Y-59729533D01*
X130509609Y-59634295D01*
X130604847Y-59586676D01*
X130795323Y-59539057D01*
X130938180Y-59539057D01*
X131128656Y-59586676D01*
X131223894Y-59634295D01*
X131319132Y-59729533D01*
X131366751Y-59872390D01*
X131366751Y-60110485D01*
X130366751Y-59205723D02*
X130366751Y-58586676D01*
X130747704Y-58920009D01*
X130747704Y-58777152D01*
X130795323Y-58681914D01*
X130842942Y-58634295D01*
X130938180Y-58586676D01*
X131176275Y-58586676D01*
X131271513Y-58634295D01*
X131319132Y-58681914D01*
X131366751Y-58777152D01*
X131366751Y-59062866D01*
X131319132Y-59158104D01*
X131271513Y-59205723D01*
X130366751Y-57681914D02*
X130366751Y-58158104D01*
X130842942Y-58205723D01*
X130795323Y-58158104D01*
X130747704Y-58062866D01*
X130747704Y-57824771D01*
X130795323Y-57729533D01*
X130842942Y-57681914D01*
X130938180Y-57634295D01*
X131176275Y-57634295D01*
X131271513Y-57681914D01*
X131319132Y-57729533D01*
X131366751Y-57824771D01*
X131366751Y-58062866D01*
X131319132Y-58158104D01*
X131271513Y-58205723D01*
X131429751Y-46648585D02*
X130429751Y-46648585D01*
X130429751Y-46410490D01*
X130477371Y-46267633D01*
X130572609Y-46172395D01*
X130667847Y-46124776D01*
X130858323Y-46077157D01*
X131001180Y-46077157D01*
X131191656Y-46124776D01*
X131286894Y-46172395D01*
X131382132Y-46267633D01*
X131429751Y-46410490D01*
X131429751Y-46648585D01*
X130429751Y-45743823D02*
X130429751Y-45124776D01*
X130810704Y-45458109D01*
X130810704Y-45315252D01*
X130858323Y-45220014D01*
X130905942Y-45172395D01*
X131001180Y-45124776D01*
X131239275Y-45124776D01*
X131334513Y-45172395D01*
X131382132Y-45220014D01*
X131429751Y-45315252D01*
X131429751Y-45600966D01*
X131382132Y-45696204D01*
X131334513Y-45743823D01*
X130763085Y-44267633D02*
X131429751Y-44267633D01*
X130382132Y-44505728D02*
X131096418Y-44743823D01*
X131096418Y-44124776D01*
X106029751Y-46648585D02*
X105029751Y-46648585D01*
X105029751Y-46410490D01*
X105077371Y-46267633D01*
X105172609Y-46172395D01*
X105267847Y-46124776D01*
X105458323Y-46077157D01*
X105601180Y-46077157D01*
X105791656Y-46124776D01*
X105886894Y-46172395D01*
X105982132Y-46267633D01*
X106029751Y-46410490D01*
X106029751Y-46648585D01*
X105029751Y-45743823D02*
X105029751Y-45124776D01*
X105410704Y-45458109D01*
X105410704Y-45315252D01*
X105458323Y-45220014D01*
X105505942Y-45172395D01*
X105601180Y-45124776D01*
X105839275Y-45124776D01*
X105934513Y-45172395D01*
X105982132Y-45220014D01*
X106029751Y-45315252D01*
X106029751Y-45600966D01*
X105982132Y-45696204D01*
X105934513Y-45743823D01*
X105029751Y-44791442D02*
X105029751Y-44172395D01*
X105410704Y-44505728D01*
X105410704Y-44362871D01*
X105458323Y-44267633D01*
X105505942Y-44220014D01*
X105601180Y-44172395D01*
X105839275Y-44172395D01*
X105934513Y-44220014D01*
X105982132Y-44267633D01*
X106029751Y-44362871D01*
X106029751Y-44648585D01*
X105982132Y-44743823D01*
X105934513Y-44791442D01*
X269478751Y-59316685D02*
X268478751Y-59316685D01*
X268478751Y-59078590D01*
X268526371Y-58935733D01*
X268621609Y-58840495D01*
X268716847Y-58792876D01*
X268907323Y-58745257D01*
X269050180Y-58745257D01*
X269240656Y-58792876D01*
X269335894Y-58840495D01*
X269431132Y-58935733D01*
X269478751Y-59078590D01*
X269478751Y-59316685D01*
X268478751Y-58411923D02*
X268478751Y-57792876D01*
X268859704Y-58126209D01*
X268859704Y-57983352D01*
X268907323Y-57888114D01*
X268954942Y-57840495D01*
X269050180Y-57792876D01*
X269288275Y-57792876D01*
X269383513Y-57840495D01*
X269431132Y-57888114D01*
X269478751Y-57983352D01*
X269478751Y-58269066D01*
X269431132Y-58364304D01*
X269383513Y-58411923D01*
X269478751Y-56840495D02*
X269478751Y-57411923D01*
X269478751Y-57126209D02*
X268478751Y-57126209D01*
X268621609Y-57221447D01*
X268716847Y-57316685D01*
X268764466Y-57411923D01*
X299641751Y-60110485D02*
X298641751Y-60110485D01*
X298641751Y-59872390D01*
X298689371Y-59729533D01*
X298784609Y-59634295D01*
X298879847Y-59586676D01*
X299070323Y-59539057D01*
X299213180Y-59539057D01*
X299403656Y-59586676D01*
X299498894Y-59634295D01*
X299594132Y-59729533D01*
X299641751Y-59872390D01*
X299641751Y-60110485D01*
X298641751Y-59205723D02*
X298641751Y-58586676D01*
X299022704Y-58920009D01*
X299022704Y-58777152D01*
X299070323Y-58681914D01*
X299117942Y-58634295D01*
X299213180Y-58586676D01*
X299451275Y-58586676D01*
X299546513Y-58634295D01*
X299594132Y-58681914D01*
X299641751Y-58777152D01*
X299641751Y-59062866D01*
X299594132Y-59158104D01*
X299546513Y-59205723D01*
X298641751Y-57967628D02*
X298641751Y-57872390D01*
X298689371Y-57777152D01*
X298736990Y-57729533D01*
X298832228Y-57681914D01*
X299022704Y-57634295D01*
X299260799Y-57634295D01*
X299451275Y-57681914D01*
X299546513Y-57729533D01*
X299594132Y-57777152D01*
X299641751Y-57872390D01*
X299641751Y-57967628D01*
X299594132Y-58062866D01*
X299546513Y-58110485D01*
X299451275Y-58158104D01*
X299260799Y-58205723D01*
X299022704Y-58205723D01*
X298832228Y-58158104D01*
X298736990Y-58110485D01*
X298689371Y-58062866D01*
X298641751Y-57967628D01*
X273509751Y-45854885D02*
X272509751Y-45854885D01*
X272509751Y-45616790D01*
X272557371Y-45473933D01*
X272652609Y-45378695D01*
X272747847Y-45331076D01*
X272938323Y-45283457D01*
X273081180Y-45283457D01*
X273271656Y-45331076D01*
X273366894Y-45378695D01*
X273462132Y-45473933D01*
X273509751Y-45616790D01*
X273509751Y-45854885D01*
X272604990Y-44902504D02*
X272557371Y-44854885D01*
X272509751Y-44759647D01*
X272509751Y-44521552D01*
X272557371Y-44426314D01*
X272604990Y-44378695D01*
X272700228Y-44331076D01*
X272795466Y-44331076D01*
X272938323Y-44378695D01*
X273509751Y-44950123D01*
X273509751Y-44331076D01*
X273509751Y-43854885D02*
X273509751Y-43664409D01*
X273462132Y-43569171D01*
X273414513Y-43521552D01*
X273271656Y-43426314D01*
X273081180Y-43378695D01*
X272700228Y-43378695D01*
X272604990Y-43426314D01*
X272557371Y-43473933D01*
X272509751Y-43569171D01*
X272509751Y-43759647D01*
X272557371Y-43854885D01*
X272604990Y-43902504D01*
X272700228Y-43950123D01*
X272938323Y-43950123D01*
X273033561Y-43902504D01*
X273081180Y-43854885D01*
X273128799Y-43759647D01*
X273128799Y-43569171D01*
X273081180Y-43473933D01*
X273033561Y-43426314D01*
X272938323Y-43378695D01*
X243285751Y-60110485D02*
X242285751Y-60110485D01*
X242285751Y-59872390D01*
X242333371Y-59729533D01*
X242428609Y-59634295D01*
X242523847Y-59586676D01*
X242714323Y-59539057D01*
X242857180Y-59539057D01*
X243047656Y-59586676D01*
X243142894Y-59634295D01*
X243238132Y-59729533D01*
X243285751Y-59872390D01*
X243285751Y-60110485D01*
X242380990Y-59158104D02*
X242333371Y-59110485D01*
X242285751Y-59015247D01*
X242285751Y-58777152D01*
X242333371Y-58681914D01*
X242380990Y-58634295D01*
X242476228Y-58586676D01*
X242571466Y-58586676D01*
X242714323Y-58634295D01*
X243285751Y-59205723D01*
X243285751Y-58586676D01*
X242714323Y-58015247D02*
X242666704Y-58110485D01*
X242619085Y-58158104D01*
X242523847Y-58205723D01*
X242476228Y-58205723D01*
X242380990Y-58158104D01*
X242333371Y-58110485D01*
X242285751Y-58015247D01*
X242285751Y-57824771D01*
X242333371Y-57729533D01*
X242380990Y-57681914D01*
X242476228Y-57634295D01*
X242523847Y-57634295D01*
X242619085Y-57681914D01*
X242666704Y-57729533D01*
X242714323Y-57824771D01*
X242714323Y-58015247D01*
X242761942Y-58110485D01*
X242809561Y-58158104D01*
X242904799Y-58205723D01*
X243095275Y-58205723D01*
X243190513Y-58158104D01*
X243238132Y-58110485D01*
X243285751Y-58015247D01*
X243285751Y-57824771D01*
X243238132Y-57729533D01*
X243190513Y-57681914D01*
X243095275Y-57634295D01*
X242904799Y-57634295D01*
X242809561Y-57681914D01*
X242761942Y-57729533D01*
X242714323Y-57824771D01*
X243348751Y-45854885D02*
X242348751Y-45854885D01*
X242348751Y-45616790D01*
X242396371Y-45473933D01*
X242491609Y-45378695D01*
X242586847Y-45331076D01*
X242777323Y-45283457D01*
X242920180Y-45283457D01*
X243110656Y-45331076D01*
X243205894Y-45378695D01*
X243301132Y-45473933D01*
X243348751Y-45616790D01*
X243348751Y-45854885D01*
X242443990Y-44902504D02*
X242396371Y-44854885D01*
X242348751Y-44759647D01*
X242348751Y-44521552D01*
X242396371Y-44426314D01*
X242443990Y-44378695D01*
X242539228Y-44331076D01*
X242634466Y-44331076D01*
X242777323Y-44378695D01*
X243348751Y-44950123D01*
X243348751Y-44331076D01*
X242348751Y-43997742D02*
X242348751Y-43331076D01*
X243348751Y-43759647D01*
X182959751Y-59316685D02*
X181959751Y-59316685D01*
X181959751Y-59078590D01*
X182007371Y-58935733D01*
X182102609Y-58840495D01*
X182197847Y-58792876D01*
X182388323Y-58745257D01*
X182531180Y-58745257D01*
X182721656Y-58792876D01*
X182816894Y-58840495D01*
X182912132Y-58935733D01*
X182959751Y-59078590D01*
X182959751Y-59316685D01*
X182054990Y-58364304D02*
X182007371Y-58316685D01*
X181959751Y-58221447D01*
X181959751Y-57983352D01*
X182007371Y-57888114D01*
X182054990Y-57840495D01*
X182150228Y-57792876D01*
X182245466Y-57792876D01*
X182388323Y-57840495D01*
X182959751Y-58411923D01*
X182959751Y-57792876D01*
X181959751Y-56935733D02*
X181959751Y-57126209D01*
X182007371Y-57221447D01*
X182054990Y-57269066D01*
X182197847Y-57364304D01*
X182388323Y-57411923D01*
X182769275Y-57411923D01*
X182864513Y-57364304D01*
X182912132Y-57316685D01*
X182959751Y-57221447D01*
X182959751Y-57030971D01*
X182912132Y-56935733D01*
X182864513Y-56888114D01*
X182769275Y-56840495D01*
X182531180Y-56840495D01*
X182435942Y-56888114D01*
X182388323Y-56935733D01*
X182340704Y-57030971D01*
X182340704Y-57221447D01*
X182388323Y-57316685D01*
X182435942Y-57364304D01*
X182531180Y-57411923D01*
X299704751Y-45854885D02*
X298704751Y-45854885D01*
X298704751Y-45616790D01*
X298752371Y-45473933D01*
X298847609Y-45378695D01*
X298942847Y-45331076D01*
X299133323Y-45283457D01*
X299276180Y-45283457D01*
X299466656Y-45331076D01*
X299561894Y-45378695D01*
X299657132Y-45473933D01*
X299704751Y-45616790D01*
X299704751Y-45854885D01*
X298799990Y-44902504D02*
X298752371Y-44854885D01*
X298704751Y-44759647D01*
X298704751Y-44521552D01*
X298752371Y-44426314D01*
X298799990Y-44378695D01*
X298895228Y-44331076D01*
X298990466Y-44331076D01*
X299133323Y-44378695D01*
X299704751Y-44950123D01*
X299704751Y-44331076D01*
X298704751Y-43426314D02*
X298704751Y-43902504D01*
X299180942Y-43950123D01*
X299133323Y-43902504D01*
X299085704Y-43807266D01*
X299085704Y-43569171D01*
X299133323Y-43473933D01*
X299180942Y-43426314D01*
X299276180Y-43378695D01*
X299514275Y-43378695D01*
X299609513Y-43426314D01*
X299657132Y-43473933D01*
X299704751Y-43569171D01*
X299704751Y-43807266D01*
X299657132Y-43902504D01*
X299609513Y-43950123D01*
X216297751Y-60110485D02*
X215297751Y-60110485D01*
X215297751Y-59872390D01*
X215345371Y-59729533D01*
X215440609Y-59634295D01*
X215535847Y-59586676D01*
X215726323Y-59539057D01*
X215869180Y-59539057D01*
X216059656Y-59586676D01*
X216154894Y-59634295D01*
X216250132Y-59729533D01*
X216297751Y-59872390D01*
X216297751Y-60110485D01*
X215392990Y-59158104D02*
X215345371Y-59110485D01*
X215297751Y-59015247D01*
X215297751Y-58777152D01*
X215345371Y-58681914D01*
X215392990Y-58634295D01*
X215488228Y-58586676D01*
X215583466Y-58586676D01*
X215726323Y-58634295D01*
X216297751Y-59205723D01*
X216297751Y-58586676D01*
X215631085Y-57729533D02*
X216297751Y-57729533D01*
X215250132Y-57967628D02*
X215964418Y-58205723D01*
X215964418Y-57586676D01*
X216360751Y-45854885D02*
X215360751Y-45854885D01*
X215360751Y-45616790D01*
X215408371Y-45473933D01*
X215503609Y-45378695D01*
X215598847Y-45331076D01*
X215789323Y-45283457D01*
X215932180Y-45283457D01*
X216122656Y-45331076D01*
X216217894Y-45378695D01*
X216313132Y-45473933D01*
X216360751Y-45616790D01*
X216360751Y-45854885D01*
X215455990Y-44902504D02*
X215408371Y-44854885D01*
X215360751Y-44759647D01*
X215360751Y-44521552D01*
X215408371Y-44426314D01*
X215455990Y-44378695D01*
X215551228Y-44331076D01*
X215646466Y-44331076D01*
X215789323Y-44378695D01*
X216360751Y-44950123D01*
X216360751Y-44331076D01*
X215360751Y-43997742D02*
X215360751Y-43378695D01*
X215741704Y-43712028D01*
X215741704Y-43569171D01*
X215789323Y-43473933D01*
X215836942Y-43426314D01*
X215932180Y-43378695D01*
X216170275Y-43378695D01*
X216265513Y-43426314D01*
X216313132Y-43473933D01*
X216360751Y-43569171D01*
X216360751Y-43854885D01*
X216313132Y-43950123D01*
X216265513Y-43997742D01*
X183023751Y-45854885D02*
X182023751Y-45854885D01*
X182023751Y-45616790D01*
X182071371Y-45473933D01*
X182166609Y-45378695D01*
X182261847Y-45331076D01*
X182452323Y-45283457D01*
X182595180Y-45283457D01*
X182785656Y-45331076D01*
X182880894Y-45378695D01*
X182976132Y-45473933D01*
X183023751Y-45616790D01*
X183023751Y-45854885D01*
X182118990Y-44902504D02*
X182071371Y-44854885D01*
X182023751Y-44759647D01*
X182023751Y-44521552D01*
X182071371Y-44426314D01*
X182118990Y-44378695D01*
X182214228Y-44331076D01*
X182309466Y-44331076D01*
X182452323Y-44378695D01*
X183023751Y-44950123D01*
X183023751Y-44331076D01*
X182118990Y-43950123D02*
X182071371Y-43902504D01*
X182023751Y-43807266D01*
X182023751Y-43569171D01*
X182071371Y-43473933D01*
X182118990Y-43426314D01*
X182214228Y-43378695D01*
X182309466Y-43378695D01*
X182452323Y-43426314D01*
X183023751Y-43997742D01*
X183023751Y-43378695D01*
X157560751Y-59316685D02*
X156560751Y-59316685D01*
X156560751Y-59078590D01*
X156608371Y-58935733D01*
X156703609Y-58840495D01*
X156798847Y-58792876D01*
X156989323Y-58745257D01*
X157132180Y-58745257D01*
X157322656Y-58792876D01*
X157417894Y-58840495D01*
X157513132Y-58935733D01*
X157560751Y-59078590D01*
X157560751Y-59316685D01*
X156655990Y-58364304D02*
X156608371Y-58316685D01*
X156560751Y-58221447D01*
X156560751Y-57983352D01*
X156608371Y-57888114D01*
X156655990Y-57840495D01*
X156751228Y-57792876D01*
X156846466Y-57792876D01*
X156989323Y-57840495D01*
X157560751Y-58411923D01*
X157560751Y-57792876D01*
X157560751Y-56840495D02*
X157560751Y-57411923D01*
X157560751Y-57126209D02*
X156560751Y-57126209D01*
X156703609Y-57221447D01*
X156798847Y-57316685D01*
X156846466Y-57411923D01*
X157623751Y-45854885D02*
X156623751Y-45854885D01*
X156623751Y-45616790D01*
X156671371Y-45473933D01*
X156766609Y-45378695D01*
X156861847Y-45331076D01*
X157052323Y-45283457D01*
X157195180Y-45283457D01*
X157385656Y-45331076D01*
X157480894Y-45378695D01*
X157576132Y-45473933D01*
X157623751Y-45616790D01*
X157623751Y-45854885D01*
X156718990Y-44902504D02*
X156671371Y-44854885D01*
X156623751Y-44759647D01*
X156623751Y-44521552D01*
X156671371Y-44426314D01*
X156718990Y-44378695D01*
X156814228Y-44331076D01*
X156909466Y-44331076D01*
X157052323Y-44378695D01*
X157623751Y-44950123D01*
X157623751Y-44331076D01*
X156623751Y-43712028D02*
X156623751Y-43616790D01*
X156671371Y-43521552D01*
X156718990Y-43473933D01*
X156814228Y-43426314D01*
X157004704Y-43378695D01*
X157242799Y-43378695D01*
X157433275Y-43426314D01*
X157528513Y-43473933D01*
X157576132Y-43521552D01*
X157623751Y-43616790D01*
X157623751Y-43712028D01*
X157576132Y-43807266D01*
X157528513Y-43854885D01*
X157433275Y-43902504D01*
X157242799Y-43950123D01*
X157004704Y-43950123D01*
X156814228Y-43902504D01*
X156718990Y-43854885D01*
X156671371Y-43807266D01*
X156623751Y-43712028D01*
X127397751Y-59316685D02*
X126397751Y-59316685D01*
X126397751Y-59078590D01*
X126445371Y-58935733D01*
X126540609Y-58840495D01*
X126635847Y-58792876D01*
X126826323Y-58745257D01*
X126969180Y-58745257D01*
X127159656Y-58792876D01*
X127254894Y-58840495D01*
X127350132Y-58935733D01*
X127397751Y-59078590D01*
X127397751Y-59316685D01*
X127397751Y-57792876D02*
X127397751Y-58364304D01*
X127397751Y-58078590D02*
X126397751Y-58078590D01*
X126540609Y-58173828D01*
X126635847Y-58269066D01*
X126683466Y-58364304D01*
X127397751Y-57316685D02*
X127397751Y-57126209D01*
X127350132Y-57030971D01*
X127302513Y-56983352D01*
X127159656Y-56888114D01*
X126969180Y-56840495D01*
X126588228Y-56840495D01*
X126492990Y-56888114D01*
X126445371Y-56935733D01*
X126397751Y-57030971D01*
X126397751Y-57221447D01*
X126445371Y-57316685D01*
X126492990Y-57364304D01*
X126588228Y-57411923D01*
X126826323Y-57411923D01*
X126921561Y-57364304D01*
X126969180Y-57316685D01*
X127016799Y-57221447D01*
X127016799Y-57030971D01*
X126969180Y-56935733D01*
X126921561Y-56888114D01*
X126826323Y-56840495D01*
X127460751Y-45854885D02*
X126460751Y-45854885D01*
X126460751Y-45616790D01*
X126508371Y-45473933D01*
X126603609Y-45378695D01*
X126698847Y-45331076D01*
X126889323Y-45283457D01*
X127032180Y-45283457D01*
X127222656Y-45331076D01*
X127317894Y-45378695D01*
X127413132Y-45473933D01*
X127460751Y-45616790D01*
X127460751Y-45854885D01*
X127460751Y-44331076D02*
X127460751Y-44902504D01*
X127460751Y-44616790D02*
X126460751Y-44616790D01*
X126603609Y-44712028D01*
X126698847Y-44807266D01*
X126746466Y-44902504D01*
X126889323Y-43759647D02*
X126841704Y-43854885D01*
X126794085Y-43902504D01*
X126698847Y-43950123D01*
X126651228Y-43950123D01*
X126555990Y-43902504D01*
X126508371Y-43854885D01*
X126460751Y-43759647D01*
X126460751Y-43569171D01*
X126508371Y-43473933D01*
X126555990Y-43426314D01*
X126651228Y-43378695D01*
X126698847Y-43378695D01*
X126794085Y-43426314D01*
X126841704Y-43473933D01*
X126889323Y-43569171D01*
X126889323Y-43759647D01*
X126936942Y-43854885D01*
X126984561Y-43902504D01*
X127079799Y-43950123D01*
X127270275Y-43950123D01*
X127365513Y-43902504D01*
X127413132Y-43854885D01*
X127460751Y-43759647D01*
X127460751Y-43569171D01*
X127413132Y-43473933D01*
X127365513Y-43426314D01*
X127270275Y-43378695D01*
X127079799Y-43378695D01*
X126984561Y-43426314D01*
X126936942Y-43473933D01*
X126889323Y-43569171D01*
X102061251Y-45854885D02*
X101061251Y-45854885D01*
X101061251Y-45616790D01*
X101108871Y-45473933D01*
X101204109Y-45378695D01*
X101299347Y-45331076D01*
X101489823Y-45283457D01*
X101632680Y-45283457D01*
X101823156Y-45331076D01*
X101918394Y-45378695D01*
X102013632Y-45473933D01*
X102061251Y-45616790D01*
X102061251Y-45854885D01*
X102061251Y-44331076D02*
X102061251Y-44902504D01*
X102061251Y-44616790D02*
X101061251Y-44616790D01*
X101204109Y-44712028D01*
X101299347Y-44807266D01*
X101346966Y-44902504D01*
X101061251Y-43997742D02*
X101061251Y-43331076D01*
X102061251Y-43759647D01*
X295671751Y-59316685D02*
X294671751Y-59316685D01*
X294671751Y-59078590D01*
X294719371Y-58935733D01*
X294814609Y-58840495D01*
X294909847Y-58792876D01*
X295100323Y-58745257D01*
X295243180Y-58745257D01*
X295433656Y-58792876D01*
X295528894Y-58840495D01*
X295624132Y-58935733D01*
X295671751Y-59078590D01*
X295671751Y-59316685D01*
X295671751Y-57792876D02*
X295671751Y-58364304D01*
X295671751Y-58078590D02*
X294671751Y-58078590D01*
X294814609Y-58173828D01*
X294909847Y-58269066D01*
X294957466Y-58364304D01*
X294671751Y-56888114D02*
X294671751Y-57364304D01*
X295147942Y-57411923D01*
X295100323Y-57364304D01*
X295052704Y-57269066D01*
X295052704Y-57030971D01*
X295100323Y-56935733D01*
X295147942Y-56888114D01*
X295243180Y-56840495D01*
X295481275Y-56840495D01*
X295576513Y-56888114D01*
X295624132Y-56935733D01*
X295671751Y-57030971D01*
X295671751Y-57269066D01*
X295624132Y-57364304D01*
X295576513Y-57411923D01*
X239316751Y-59316685D02*
X238316751Y-59316685D01*
X238316751Y-59078590D01*
X238364371Y-58935733D01*
X238459609Y-58840495D01*
X238554847Y-58792876D01*
X238745323Y-58745257D01*
X238888180Y-58745257D01*
X239078656Y-58792876D01*
X239173894Y-58840495D01*
X239269132Y-58935733D01*
X239316751Y-59078590D01*
X239316751Y-59316685D01*
X239316751Y-57792876D02*
X239316751Y-58364304D01*
X239316751Y-58078590D02*
X238316751Y-58078590D01*
X238459609Y-58173828D01*
X238554847Y-58269066D01*
X238602466Y-58364304D01*
X238316751Y-57459542D02*
X238316751Y-56840495D01*
X238697704Y-57173828D01*
X238697704Y-57030971D01*
X238745323Y-56935733D01*
X238792942Y-56888114D01*
X238888180Y-56840495D01*
X239126275Y-56840495D01*
X239221513Y-56888114D01*
X239269132Y-56935733D01*
X239316751Y-57030971D01*
X239316751Y-57316685D01*
X239269132Y-57411923D01*
X239221513Y-57459542D01*
X239380751Y-45061085D02*
X238380751Y-45061085D01*
X238380751Y-44822990D01*
X238428371Y-44680133D01*
X238523609Y-44584895D01*
X238618847Y-44537276D01*
X238809323Y-44489657D01*
X238952180Y-44489657D01*
X239142656Y-44537276D01*
X239237894Y-44584895D01*
X239333132Y-44680133D01*
X239380751Y-44822990D01*
X239380751Y-45061085D01*
X239380751Y-43537276D02*
X239380751Y-44108704D01*
X239380751Y-43822990D02*
X238380751Y-43822990D01*
X238523609Y-43918228D01*
X238618847Y-44013466D01*
X238666466Y-44108704D01*
X238475990Y-43156323D02*
X238428371Y-43108704D01*
X238380751Y-43013466D01*
X238380751Y-42775371D01*
X238428371Y-42680133D01*
X238475990Y-42632514D01*
X238571228Y-42584895D01*
X238666466Y-42584895D01*
X238809323Y-42632514D01*
X239380751Y-43203942D01*
X239380751Y-42584895D01*
X178990751Y-58523085D02*
X177990751Y-58523085D01*
X177990751Y-58284990D01*
X178038371Y-58142133D01*
X178133609Y-58046895D01*
X178228847Y-57999276D01*
X178419323Y-57951657D01*
X178562180Y-57951657D01*
X178752656Y-57999276D01*
X178847894Y-58046895D01*
X178943132Y-58142133D01*
X178990751Y-58284990D01*
X178990751Y-58523085D01*
X178990751Y-56999276D02*
X178990751Y-57570704D01*
X178990751Y-57284990D02*
X177990751Y-57284990D01*
X178133609Y-57380228D01*
X178228847Y-57475466D01*
X178276466Y-57570704D01*
X178990751Y-56046895D02*
X178990751Y-56618323D01*
X178990751Y-56332609D02*
X177990751Y-56332609D01*
X178133609Y-56427847D01*
X178228847Y-56523085D01*
X178276466Y-56618323D01*
X295735751Y-45061085D02*
X294735751Y-45061085D01*
X294735751Y-44822990D01*
X294783371Y-44680133D01*
X294878609Y-44584895D01*
X294973847Y-44537276D01*
X295164323Y-44489657D01*
X295307180Y-44489657D01*
X295497656Y-44537276D01*
X295592894Y-44584895D01*
X295688132Y-44680133D01*
X295735751Y-44822990D01*
X295735751Y-45061085D01*
X295735751Y-43537276D02*
X295735751Y-44108704D01*
X295735751Y-43822990D02*
X294735751Y-43822990D01*
X294878609Y-43918228D01*
X294973847Y-44013466D01*
X295021466Y-44108704D01*
X294735751Y-42918228D02*
X294735751Y-42822990D01*
X294783371Y-42727752D01*
X294830990Y-42680133D01*
X294926228Y-42632514D01*
X295116704Y-42584895D01*
X295354799Y-42584895D01*
X295545275Y-42632514D01*
X295640513Y-42680133D01*
X295688132Y-42727752D01*
X295735751Y-42822990D01*
X295735751Y-42918228D01*
X295688132Y-43013466D01*
X295640513Y-43061085D01*
X295545275Y-43108704D01*
X295354799Y-43156323D01*
X295116704Y-43156323D01*
X294926228Y-43108704D01*
X294830990Y-43061085D01*
X294783371Y-43013466D01*
X294735751Y-42918228D01*
X212327751Y-58840495D02*
X211327751Y-58840495D01*
X211327751Y-58602400D01*
X211375371Y-58459542D01*
X211470609Y-58364304D01*
X211565847Y-58316685D01*
X211756323Y-58269066D01*
X211899180Y-58269066D01*
X212089656Y-58316685D01*
X212184894Y-58364304D01*
X212280132Y-58459542D01*
X212327751Y-58602400D01*
X212327751Y-58840495D01*
X212327751Y-57792876D02*
X212327751Y-57602400D01*
X212280132Y-57507161D01*
X212232513Y-57459542D01*
X212089656Y-57364304D01*
X211899180Y-57316685D01*
X211518228Y-57316685D01*
X211422990Y-57364304D01*
X211375371Y-57411923D01*
X211327751Y-57507161D01*
X211327751Y-57697638D01*
X211375371Y-57792876D01*
X211422990Y-57840495D01*
X211518228Y-57888114D01*
X211756323Y-57888114D01*
X211851561Y-57840495D01*
X211899180Y-57792876D01*
X211946799Y-57697638D01*
X211946799Y-57507161D01*
X211899180Y-57411923D01*
X211851561Y-57364304D01*
X211756323Y-57316685D01*
X212391751Y-44584895D02*
X211391751Y-44584895D01*
X211391751Y-44346800D01*
X211439371Y-44203942D01*
X211534609Y-44108704D01*
X211629847Y-44061085D01*
X211820323Y-44013466D01*
X211963180Y-44013466D01*
X212153656Y-44061085D01*
X212248894Y-44108704D01*
X212344132Y-44203942D01*
X212391751Y-44346800D01*
X212391751Y-44584895D01*
X211820323Y-43442038D02*
X211772704Y-43537276D01*
X211725085Y-43584895D01*
X211629847Y-43632514D01*
X211582228Y-43632514D01*
X211486990Y-43584895D01*
X211439371Y-43537276D01*
X211391751Y-43442038D01*
X211391751Y-43251561D01*
X211439371Y-43156323D01*
X211486990Y-43108704D01*
X211582228Y-43061085D01*
X211629847Y-43061085D01*
X211725085Y-43108704D01*
X211772704Y-43156323D01*
X211820323Y-43251561D01*
X211820323Y-43442038D01*
X211867942Y-43537276D01*
X211915561Y-43584895D01*
X212010799Y-43632514D01*
X212201275Y-43632514D01*
X212296513Y-43584895D01*
X212344132Y-43537276D01*
X212391751Y-43442038D01*
X212391751Y-43251561D01*
X212344132Y-43156323D01*
X212296513Y-43108704D01*
X212201275Y-43061085D01*
X212010799Y-43061085D01*
X211915561Y-43108704D01*
X211867942Y-43156323D01*
X211820323Y-43251561D01*
X179054751Y-44584895D02*
X178054751Y-44584895D01*
X178054751Y-44346800D01*
X178102371Y-44203942D01*
X178197609Y-44108704D01*
X178292847Y-44061085D01*
X178483323Y-44013466D01*
X178626180Y-44013466D01*
X178816656Y-44061085D01*
X178911894Y-44108704D01*
X179007132Y-44203942D01*
X179054751Y-44346800D01*
X179054751Y-44584895D01*
X178054751Y-43680133D02*
X178054751Y-43013466D01*
X179054751Y-43442038D01*
X153591751Y-58046795D02*
X152591751Y-58046795D01*
X152591751Y-57808700D01*
X152639371Y-57665842D01*
X152734609Y-57570604D01*
X152829847Y-57522985D01*
X153020323Y-57475366D01*
X153163180Y-57475366D01*
X153353656Y-57522985D01*
X153448894Y-57570604D01*
X153544132Y-57665842D01*
X153591751Y-57808700D01*
X153591751Y-58046795D01*
X152591751Y-56618223D02*
X152591751Y-56808700D01*
X152639371Y-56903938D01*
X152686990Y-56951557D01*
X152829847Y-57046795D01*
X153020323Y-57094414D01*
X153401275Y-57094414D01*
X153496513Y-57046795D01*
X153544132Y-56999176D01*
X153591751Y-56903938D01*
X153591751Y-56713461D01*
X153544132Y-56618223D01*
X153496513Y-56570604D01*
X153401275Y-56522985D01*
X153163180Y-56522985D01*
X153067942Y-56570604D01*
X153020323Y-56618223D01*
X152972704Y-56713461D01*
X152972704Y-56903938D01*
X153020323Y-56999176D01*
X153067942Y-57046795D01*
X153163180Y-57094414D01*
X153654751Y-44584895D02*
X152654751Y-44584895D01*
X152654751Y-44346800D01*
X152702371Y-44203942D01*
X152797609Y-44108704D01*
X152892847Y-44061085D01*
X153083323Y-44013466D01*
X153226180Y-44013466D01*
X153416656Y-44061085D01*
X153511894Y-44108704D01*
X153607132Y-44203942D01*
X153654751Y-44346800D01*
X153654751Y-44584895D01*
X152654751Y-43108704D02*
X152654751Y-43584895D01*
X153130942Y-43632514D01*
X153083323Y-43584895D01*
X153035704Y-43489657D01*
X153035704Y-43251561D01*
X153083323Y-43156323D01*
X153130942Y-43108704D01*
X153226180Y-43061085D01*
X153464275Y-43061085D01*
X153559513Y-43108704D01*
X153607132Y-43156323D01*
X153654751Y-43251561D01*
X153654751Y-43489657D01*
X153607132Y-43584895D01*
X153559513Y-43632514D01*
X123429751Y-58046795D02*
X122429751Y-58046795D01*
X122429751Y-57808700D01*
X122477371Y-57665842D01*
X122572609Y-57570604D01*
X122667847Y-57522985D01*
X122858323Y-57475366D01*
X123001180Y-57475366D01*
X123191656Y-57522985D01*
X123286894Y-57570604D01*
X123382132Y-57665842D01*
X123429751Y-57808700D01*
X123429751Y-58046795D01*
X122763085Y-56618223D02*
X123429751Y-56618223D01*
X122382132Y-56856319D02*
X123096418Y-57094414D01*
X123096418Y-56475366D01*
X123491751Y-44584895D02*
X122491751Y-44584895D01*
X122491751Y-44346800D01*
X122539371Y-44203942D01*
X122634609Y-44108704D01*
X122729847Y-44061085D01*
X122920323Y-44013466D01*
X123063180Y-44013466D01*
X123253656Y-44061085D01*
X123348894Y-44108704D01*
X123444132Y-44203942D01*
X123491751Y-44346800D01*
X123491751Y-44584895D01*
X122491751Y-43680133D02*
X122491751Y-43061085D01*
X122872704Y-43394419D01*
X122872704Y-43251561D01*
X122920323Y-43156323D01*
X122967942Y-43108704D01*
X123063180Y-43061085D01*
X123301275Y-43061085D01*
X123396513Y-43108704D01*
X123444132Y-43156323D01*
X123491751Y-43251561D01*
X123491751Y-43537276D01*
X123444132Y-43632514D01*
X123396513Y-43680133D01*
X98092551Y-44584895D02*
X97092551Y-44584895D01*
X97092551Y-44346800D01*
X97140171Y-44203942D01*
X97235409Y-44108704D01*
X97330647Y-44061085D01*
X97521123Y-44013466D01*
X97663980Y-44013466D01*
X97854456Y-44061085D01*
X97949694Y-44108704D01*
X98044932Y-44203942D01*
X98092551Y-44346800D01*
X98092551Y-44584895D01*
X97187790Y-43632514D02*
X97140171Y-43584895D01*
X97092551Y-43489657D01*
X97092551Y-43251561D01*
X97140171Y-43156323D01*
X97187790Y-43108704D01*
X97283028Y-43061085D01*
X97378266Y-43061085D01*
X97521123Y-43108704D01*
X98092551Y-43680133D01*
X98092551Y-43061085D01*
X40523095Y-37767480D02*
X40523095Y-38577004D01*
X40570714Y-38672242D01*
X40618333Y-38719861D01*
X40713571Y-38767480D01*
X40904047Y-38767480D01*
X40999285Y-38719861D01*
X41046904Y-38672242D01*
X41094523Y-38577004D01*
X41094523Y-37767480D01*
X42094523Y-38767480D02*
X41523095Y-38767480D01*
X41808809Y-38767480D02*
X41808809Y-37767480D01*
X41713571Y-37910338D01*
X41618333Y-38005576D01*
X41523095Y-38053195D01*
X37272619Y-16397480D02*
X37272619Y-17207004D01*
X37320238Y-17302242D01*
X37367857Y-17349861D01*
X37463095Y-17397480D01*
X37653571Y-17397480D01*
X37748809Y-17349861D01*
X37796428Y-17302242D01*
X37844047Y-17207004D01*
X37844047Y-16397480D01*
X38272619Y-17349861D02*
X38415476Y-17397480D01*
X38653571Y-17397480D01*
X38748809Y-17349861D01*
X38796428Y-17302242D01*
X38844047Y-17207004D01*
X38844047Y-17111766D01*
X38796428Y-17016528D01*
X38748809Y-16968909D01*
X38653571Y-16921290D01*
X38463095Y-16873671D01*
X38367857Y-16826052D01*
X38320238Y-16778433D01*
X38272619Y-16683195D01*
X38272619Y-16587957D01*
X38320238Y-16492719D01*
X38367857Y-16445100D01*
X38463095Y-16397480D01*
X38701190Y-16397480D01*
X38844047Y-16445100D01*
X39605952Y-16873671D02*
X39748809Y-16921290D01*
X39796428Y-16968909D01*
X39844047Y-17064147D01*
X39844047Y-17207004D01*
X39796428Y-17302242D01*
X39748809Y-17349861D01*
X39653571Y-17397480D01*
X39272619Y-17397480D01*
X39272619Y-16397480D01*
X39605952Y-16397480D01*
X39701190Y-16445100D01*
X39748809Y-16492719D01*
X39796428Y-16587957D01*
X39796428Y-16683195D01*
X39748809Y-16778433D01*
X39701190Y-16826052D01*
X39605952Y-16873671D01*
X39272619Y-16873671D01*
X40891666Y-16730814D02*
X41272619Y-16730814D01*
X41034523Y-17397480D02*
X41034523Y-16540338D01*
X41082142Y-16445100D01*
X41177380Y-16397480D01*
X41272619Y-16397480D01*
X42034523Y-17397480D02*
X42034523Y-16873671D01*
X41986904Y-16778433D01*
X41891666Y-16730814D01*
X41701190Y-16730814D01*
X41605952Y-16778433D01*
X42034523Y-17349861D02*
X41939285Y-17397480D01*
X41701190Y-17397480D01*
X41605952Y-17349861D01*
X41558333Y-17254623D01*
X41558333Y-17159385D01*
X41605952Y-17064147D01*
X41701190Y-17016528D01*
X41939285Y-17016528D01*
X42034523Y-16968909D01*
X42939285Y-17349861D02*
X42844047Y-17397480D01*
X42653571Y-17397480D01*
X42558333Y-17349861D01*
X42510714Y-17302242D01*
X42463095Y-17207004D01*
X42463095Y-16921290D01*
X42510714Y-16826052D01*
X42558333Y-16778433D01*
X42653571Y-16730814D01*
X42844047Y-16730814D01*
X42939285Y-16778433D01*
X43367857Y-17397480D02*
X43367857Y-16730814D01*
X43367857Y-16397480D02*
X43320238Y-16445100D01*
X43367857Y-16492719D01*
X43415476Y-16445100D01*
X43367857Y-16397480D01*
X43367857Y-16492719D01*
X43844047Y-16730814D02*
X43844047Y-17397480D01*
X43844047Y-16826052D02*
X43891666Y-16778433D01*
X43986904Y-16730814D01*
X44129761Y-16730814D01*
X44224999Y-16778433D01*
X44272619Y-16873671D01*
X44272619Y-17397480D01*
X45177380Y-16730814D02*
X45177380Y-17540338D01*
X45129761Y-17635576D01*
X45082142Y-17683195D01*
X44986904Y-17730814D01*
X44844047Y-17730814D01*
X44748809Y-17683195D01*
X45177380Y-17349861D02*
X45082142Y-17397480D01*
X44891666Y-17397480D01*
X44796428Y-17349861D01*
X44748809Y-17302242D01*
X44701190Y-17207004D01*
X44701190Y-16921290D01*
X44748809Y-16826052D01*
X44796428Y-16778433D01*
X44891666Y-16730814D01*
X45082142Y-16730814D01*
X45177380Y-16778433D01*
X38272619Y-19730814D02*
X38653571Y-19730814D01*
X38415476Y-19397480D02*
X38415476Y-20254623D01*
X38463095Y-20349861D01*
X38558333Y-20397480D01*
X38653571Y-20397480D01*
X38986904Y-20397480D02*
X38986904Y-19397480D01*
X39415476Y-20397480D02*
X39415476Y-19873671D01*
X39367857Y-19778433D01*
X39272619Y-19730814D01*
X39129761Y-19730814D01*
X39034523Y-19778433D01*
X38986904Y-19826052D01*
X40272619Y-20349861D02*
X40177380Y-20397480D01*
X39986904Y-20397480D01*
X39891666Y-20349861D01*
X39844047Y-20254623D01*
X39844047Y-19873671D01*
X39891666Y-19778433D01*
X39986904Y-19730814D01*
X40177380Y-19730814D01*
X40272619Y-19778433D01*
X40320238Y-19873671D01*
X40320238Y-19968909D01*
X39844047Y-20064147D01*
X41510714Y-20397480D02*
X41510714Y-19397480D01*
X41891666Y-19397480D01*
X41986904Y-19445100D01*
X42034523Y-19492719D01*
X42082142Y-19587957D01*
X42082142Y-19730814D01*
X42034523Y-19826052D01*
X41986904Y-19873671D01*
X41891666Y-19921290D01*
X41510714Y-19921290D01*
X43082142Y-20302242D02*
X43034523Y-20349861D01*
X42891666Y-20397480D01*
X42796428Y-20397480D01*
X42653571Y-20349861D01*
X42558333Y-20254623D01*
X42510714Y-20159385D01*
X42463095Y-19968909D01*
X42463095Y-19826052D01*
X42510714Y-19635576D01*
X42558333Y-19540338D01*
X42653571Y-19445100D01*
X42796428Y-19397480D01*
X42891666Y-19397480D01*
X43034523Y-19445100D01*
X43082142Y-19492719D01*
X43844047Y-19873671D02*
X43986904Y-19921290D01*
X44034523Y-19968909D01*
X44082142Y-20064147D01*
X44082142Y-20207004D01*
X44034523Y-20302242D01*
X43986904Y-20349861D01*
X43891666Y-20397480D01*
X43510714Y-20397480D01*
X43510714Y-19397480D01*
X43844047Y-19397480D01*
X43939285Y-19445100D01*
X43986904Y-19492719D01*
X44034523Y-19587957D01*
X44034523Y-19683195D01*
X43986904Y-19778433D01*
X43939285Y-19826052D01*
X43844047Y-19873671D01*
X43510714Y-19873671D01*
X37986904Y-18897480D02*
X37986904Y-18373671D01*
X37939285Y-18278433D01*
X37844047Y-18230814D01*
X37653571Y-18230814D01*
X37558333Y-18278433D01*
X37986904Y-18849861D02*
X37891666Y-18897480D01*
X37653571Y-18897480D01*
X37558333Y-18849861D01*
X37510714Y-18754623D01*
X37510714Y-18659385D01*
X37558333Y-18564147D01*
X37653571Y-18516528D01*
X37891666Y-18516528D01*
X37986904Y-18468909D01*
X38367857Y-18230814D02*
X38558333Y-18897480D01*
X38748809Y-18421290D01*
X38939285Y-18897480D01*
X39129761Y-18230814D01*
X39939285Y-18897480D02*
X39939285Y-18373671D01*
X39891666Y-18278433D01*
X39796428Y-18230814D01*
X39605952Y-18230814D01*
X39510714Y-18278433D01*
X39939285Y-18849861D02*
X39844047Y-18897480D01*
X39605952Y-18897480D01*
X39510714Y-18849861D01*
X39463095Y-18754623D01*
X39463095Y-18659385D01*
X39510714Y-18564147D01*
X39605952Y-18516528D01*
X39844047Y-18516528D01*
X39939285Y-18468909D01*
X40320238Y-18230814D02*
X40558333Y-18897480D01*
X40796428Y-18230814D02*
X40558333Y-18897480D01*
X40463095Y-19135576D01*
X40415476Y-19183195D01*
X40320238Y-19230814D01*
X41796428Y-18230814D02*
X42177380Y-18230814D01*
X41939285Y-18897480D02*
X41939285Y-18040338D01*
X41986904Y-17945100D01*
X42082142Y-17897480D01*
X42177380Y-17897480D01*
X42510714Y-18897480D02*
X42510714Y-18230814D01*
X42510714Y-18421290D02*
X42558333Y-18326052D01*
X42605952Y-18278433D01*
X42701190Y-18230814D01*
X42796428Y-18230814D01*
X43272619Y-18897480D02*
X43177380Y-18849861D01*
X43129761Y-18802242D01*
X43082142Y-18707004D01*
X43082142Y-18421290D01*
X43129761Y-18326052D01*
X43177380Y-18278433D01*
X43272619Y-18230814D01*
X43415476Y-18230814D01*
X43510714Y-18278433D01*
X43558333Y-18326052D01*
X43605952Y-18421290D01*
X43605952Y-18707004D01*
X43558333Y-18802242D01*
X43510714Y-18849861D01*
X43415476Y-18897480D01*
X43272619Y-18897480D01*
X44034523Y-18897480D02*
X44034523Y-18230814D01*
X44034523Y-18326052D02*
X44082142Y-18278433D01*
X44177380Y-18230814D01*
X44320238Y-18230814D01*
X44415476Y-18278433D01*
X44463095Y-18373671D01*
X44463095Y-18897480D01*
X44463095Y-18373671D02*
X44510714Y-18278433D01*
X44605952Y-18230814D01*
X44748809Y-18230814D01*
X44844047Y-18278433D01*
X44891666Y-18373671D01*
X44891666Y-18897480D01*
X73477628Y-51300180D02*
X73668104Y-51300180D01*
X73763342Y-51347800D01*
X73858580Y-51443038D01*
X73906200Y-51633514D01*
X73906200Y-51966847D01*
X73858580Y-52157323D01*
X73763342Y-52252561D01*
X73668104Y-52300180D01*
X73477628Y-52300180D01*
X73382390Y-52252561D01*
X73287152Y-52157323D01*
X73239533Y-51966847D01*
X73239533Y-51633514D01*
X73287152Y-51443038D01*
X73382390Y-51347800D01*
X73477628Y-51300180D01*
X74810961Y-52300180D02*
X74334771Y-52300180D01*
X74334771Y-51300180D01*
X75144295Y-51776371D02*
X75477628Y-51776371D01*
X75620485Y-52300180D02*
X75144295Y-52300180D01*
X75144295Y-51300180D01*
X75620485Y-51300180D01*
X76049057Y-52300180D02*
X76049057Y-51300180D01*
X76287152Y-51300180D01*
X76430009Y-51347800D01*
X76525247Y-51443038D01*
X76572866Y-51538276D01*
X76620485Y-51728752D01*
X76620485Y-51871609D01*
X76572866Y-52062085D01*
X76525247Y-52157323D01*
X76430009Y-52252561D01*
X76287152Y-52300180D01*
X76049057Y-52300180D01*
X77572866Y-52300180D02*
X77001438Y-52300180D01*
X77287152Y-52300180D02*
X77287152Y-51300180D01*
X77191914Y-51443038D01*
X77096676Y-51538276D01*
X77001438Y-51585895D01*
X17053571Y-86766485D02*
X17053571Y-86433152D01*
X17577380Y-86290295D02*
X17577380Y-86766485D01*
X16577380Y-86766485D01*
X16577380Y-86290295D01*
X17577380Y-85861723D02*
X16577380Y-85861723D01*
X17577380Y-85290295D01*
X16577380Y-85290295D01*
X17482142Y-84242676D02*
X17529761Y-84290295D01*
X17577380Y-84433152D01*
X17577380Y-84528390D01*
X17529761Y-84671247D01*
X17434523Y-84766485D01*
X17339285Y-84814104D01*
X17148809Y-84861723D01*
X17005952Y-84861723D01*
X16815476Y-84814104D01*
X16720238Y-84766485D01*
X16625000Y-84671247D01*
X16577380Y-84528390D01*
X16577380Y-84433152D01*
X16625000Y-84290295D01*
X16672619Y-84242676D01*
X17577380Y-83290295D02*
X17577380Y-83861723D01*
X17577380Y-83576009D02*
X16577380Y-83576009D01*
X16720238Y-83671247D01*
X16815476Y-83766485D01*
X16863095Y-83861723D01*
M02*
