G04 #@! TF.GenerationSoftware,KiCad,Pcbnew,(5.1.4)-1*
G04 #@! TF.CreationDate,2020-12-14T01:18:04+01:00*
G04 #@! TF.ProjectId,CZTKeyRev1,435a544b-6579-4526-9576-312e6b696361,rev?*
G04 #@! TF.SameCoordinates,Original*
G04 #@! TF.FileFunction,Legend,Top*
G04 #@! TF.FilePolarity,Positive*
%FSLAX46Y46*%
G04 Gerber Fmt 4.6, Leading zero omitted, Abs format (unit mm)*
G04 Created by KiCad (PCBNEW (5.1.4)-1) date 2020-12-14 01:18:04*
%MOMM*%
%LPD*%
G04 APERTURE LIST*
%ADD10C,0.120000*%
%ADD11C,0.100000*%
%ADD12C,0.375000*%
%ADD13C,0.250000*%
%ADD14C,0.150000*%
G04 APERTURE END LIST*
D10*
X350043751Y-18510251D02*
G75*
G02X354806249Y-18510251I2381249J-1587499D01*
G01*
X189706251Y-18510251D02*
G75*
G02X194468749Y-18510251I2381249J-1587499D01*
G01*
X194468750Y-18510249D02*
X350043750Y-18510250D01*
X357187500Y-18510250D02*
X354806250Y-18510250D01*
X357187500Y-37560250D02*
X357187500Y-18510250D01*
D11*
G36*
X57150000Y-37560250D02*
G01*
X54768750Y-37560250D01*
X54768750Y-35972750D01*
X57150000Y-37560250D01*
G37*
X57150000Y-37560250D02*
X54768750Y-37560250D01*
X54768750Y-35972750D01*
X57150000Y-37560250D01*
G36*
X70643750Y-37560250D02*
G01*
X68262500Y-37560250D01*
X70643750Y-35972750D01*
X70643750Y-37560250D01*
G37*
X70643750Y-37560250D02*
X68262500Y-37560250D01*
X70643750Y-35972750D01*
X70643750Y-37560250D01*
G36*
X76993750Y-37560250D02*
G01*
X74612500Y-37560250D01*
X74612500Y-35972750D01*
X76993750Y-37560250D01*
G37*
X76993750Y-37560250D02*
X74612500Y-37560250D01*
X74612500Y-35972750D01*
X76993750Y-37560250D01*
G36*
X90487500Y-37560250D02*
G01*
X88106250Y-37560250D01*
X90487500Y-35972750D01*
X90487500Y-37560250D01*
G37*
X90487500Y-37560250D02*
X88106250Y-37560250D01*
X90487500Y-35972750D01*
X90487500Y-37560250D01*
G36*
X96837500Y-37560250D02*
G01*
X94456250Y-37560250D01*
X94456250Y-35972750D01*
X96837500Y-37560250D01*
G37*
X96837500Y-37560250D02*
X94456250Y-37560250D01*
X94456250Y-35972750D01*
X96837500Y-37560250D01*
G36*
X110331250Y-37560250D02*
G01*
X107950000Y-37560250D01*
X110331250Y-35972750D01*
X110331250Y-37560250D01*
G37*
X110331250Y-37560250D02*
X107950000Y-37560250D01*
X110331250Y-35972750D01*
X110331250Y-37560250D01*
G36*
X116681250Y-37560250D02*
G01*
X114300000Y-37560250D01*
X114300000Y-35972750D01*
X116681250Y-37560250D01*
G37*
X116681250Y-37560250D02*
X114300000Y-37560250D01*
X114300000Y-35972750D01*
X116681250Y-37560250D01*
G36*
X130175000Y-37560250D02*
G01*
X127793750Y-37560250D01*
X130175000Y-35972750D01*
X130175000Y-37560250D01*
G37*
X130175000Y-37560250D02*
X127793750Y-37560250D01*
X130175000Y-35972750D01*
X130175000Y-37560250D01*
G36*
X136525000Y-37560250D02*
G01*
X134143750Y-37560250D01*
X134143750Y-35972750D01*
X136525000Y-37560250D01*
G37*
X136525000Y-37560250D02*
X134143750Y-37560250D01*
X134143750Y-35972750D01*
X136525000Y-37560250D01*
G36*
X150018750Y-37560250D02*
G01*
X147637500Y-37560250D01*
X150018750Y-35972750D01*
X150018750Y-37560250D01*
G37*
X150018750Y-37560250D02*
X147637500Y-37560250D01*
X150018750Y-35972750D01*
X150018750Y-37560250D01*
G36*
X156368750Y-37560250D02*
G01*
X153987500Y-37560250D01*
X153987500Y-35972750D01*
X156368750Y-37560250D01*
G37*
X156368750Y-37560250D02*
X153987500Y-37560250D01*
X153987500Y-35972750D01*
X156368750Y-37560250D01*
G36*
X169862500Y-37560250D02*
G01*
X167481250Y-37560250D01*
X169862500Y-35972750D01*
X169862500Y-37560250D01*
G37*
X169862500Y-37560250D02*
X167481250Y-37560250D01*
X169862500Y-35972750D01*
X169862500Y-37560250D01*
G36*
X176212500Y-37560250D02*
G01*
X173831250Y-37560250D01*
X173831250Y-35972750D01*
X176212500Y-37560250D01*
G37*
X176212500Y-37560250D02*
X173831250Y-37560250D01*
X173831250Y-35972750D01*
X176212500Y-37560250D01*
G36*
X189706250Y-37560250D02*
G01*
X187325000Y-37560250D01*
X189706250Y-35972750D01*
X189706250Y-37560250D01*
G37*
X189706250Y-37560250D02*
X187325000Y-37560250D01*
X189706250Y-35972750D01*
X189706250Y-37560250D01*
G36*
X196056250Y-37560250D02*
G01*
X193675000Y-37560250D01*
X193675000Y-35972750D01*
X196056250Y-37560250D01*
G37*
X196056250Y-37560250D02*
X193675000Y-37560250D01*
X193675000Y-35972750D01*
X196056250Y-37560250D01*
G36*
X209550000Y-37560250D02*
G01*
X207168750Y-37560250D01*
X209550000Y-35972750D01*
X209550000Y-37560250D01*
G37*
X209550000Y-37560250D02*
X207168750Y-37560250D01*
X209550000Y-35972750D01*
X209550000Y-37560250D01*
G36*
X215900000Y-37560250D02*
G01*
X213518750Y-37560250D01*
X213518750Y-35972750D01*
X215900000Y-37560250D01*
G37*
X215900000Y-37560250D02*
X213518750Y-37560250D01*
X213518750Y-35972750D01*
X215900000Y-37560250D01*
G36*
X229393750Y-37560250D02*
G01*
X227012500Y-37560250D01*
X229393750Y-35972750D01*
X229393750Y-37560250D01*
G37*
X229393750Y-37560250D02*
X227012500Y-37560250D01*
X229393750Y-35972750D01*
X229393750Y-37560250D01*
G36*
X235743750Y-37560250D02*
G01*
X233362500Y-37560250D01*
X233362500Y-35972750D01*
X235743750Y-37560250D01*
G37*
X235743750Y-37560250D02*
X233362500Y-37560250D01*
X233362500Y-35972750D01*
X235743750Y-37560250D01*
G36*
X249237500Y-37560250D02*
G01*
X246856250Y-37560250D01*
X249237500Y-35972750D01*
X249237500Y-37560250D01*
G37*
X249237500Y-37560250D02*
X246856250Y-37560250D01*
X249237500Y-35972750D01*
X249237500Y-37560250D01*
G36*
X255587500Y-37560250D02*
G01*
X253206250Y-37560250D01*
X253206250Y-35972750D01*
X255587500Y-37560250D01*
G37*
X255587500Y-37560250D02*
X253206250Y-37560250D01*
X253206250Y-35972750D01*
X255587500Y-37560250D01*
G36*
X269081250Y-37560250D02*
G01*
X266700000Y-37560250D01*
X269081250Y-35972750D01*
X269081250Y-37560250D01*
G37*
X269081250Y-37560250D02*
X266700000Y-37560250D01*
X269081250Y-35972750D01*
X269081250Y-37560250D01*
G36*
X275431250Y-37560250D02*
G01*
X273050000Y-37560250D01*
X273050000Y-35972750D01*
X275431250Y-37560250D01*
G37*
X275431250Y-37560250D02*
X273050000Y-37560250D01*
X273050000Y-35972750D01*
X275431250Y-37560250D01*
G36*
X288925000Y-37560250D02*
G01*
X286543750Y-37560250D01*
X288925000Y-35972750D01*
X288925000Y-37560250D01*
G37*
X288925000Y-37560250D02*
X286543750Y-37560250D01*
X288925000Y-35972750D01*
X288925000Y-37560250D01*
G36*
X295275000Y-37560250D02*
G01*
X292893750Y-37560250D01*
X292893750Y-35972750D01*
X295275000Y-37560250D01*
G37*
X295275000Y-37560250D02*
X292893750Y-37560250D01*
X292893750Y-35972750D01*
X295275000Y-37560250D01*
G36*
X308768750Y-37560250D02*
G01*
X306387500Y-37560250D01*
X308768750Y-35972750D01*
X308768750Y-37560250D01*
G37*
X308768750Y-37560250D02*
X306387500Y-37560250D01*
X308768750Y-35972750D01*
X308768750Y-37560250D01*
G36*
X315118750Y-37560250D02*
G01*
X312737500Y-37560250D01*
X312737500Y-35972750D01*
X315118750Y-37560250D01*
G37*
X315118750Y-37560250D02*
X312737500Y-37560250D01*
X312737500Y-35972750D01*
X315118750Y-37560250D01*
G36*
X328612500Y-37560250D02*
G01*
X326231250Y-37560250D01*
X328612500Y-35972750D01*
X328612500Y-37560250D01*
G37*
X328612500Y-37560250D02*
X326231250Y-37560250D01*
X328612500Y-35972750D01*
X328612500Y-37560250D01*
G36*
X334962500Y-37560250D02*
G01*
X332581250Y-37560250D01*
X332581250Y-35972750D01*
X334962500Y-37560250D01*
G37*
X334962500Y-37560250D02*
X332581250Y-37560250D01*
X332581250Y-35972750D01*
X334962500Y-37560250D01*
G36*
X348456250Y-37560250D02*
G01*
X346075000Y-37560250D01*
X348456250Y-35972750D01*
X348456250Y-37560250D01*
G37*
X348456250Y-37560250D02*
X346075000Y-37560250D01*
X348456250Y-35972750D01*
X348456250Y-37560250D01*
D10*
X68262500Y-37560250D02*
X70643750Y-35972750D01*
X70643750Y-37560250D02*
X68262500Y-37560250D01*
X57150000Y-37560250D02*
X54768750Y-35972750D01*
X54768750Y-37560250D02*
X57150000Y-37560250D01*
X76993750Y-37560250D02*
X74612500Y-35972750D01*
X74612500Y-37560250D02*
X76993750Y-37560250D01*
X88106250Y-37560250D02*
X90487500Y-35972750D01*
X90487500Y-37560250D02*
X88106250Y-37560250D01*
X96837500Y-37560250D02*
X94456250Y-35972750D01*
X94456250Y-37560250D02*
X96837500Y-37560250D01*
X348456250Y-37560250D02*
X346075000Y-37560250D01*
X332581250Y-37560250D02*
X334962500Y-37560250D01*
X346075000Y-37560250D02*
X348456250Y-35972750D01*
X334962500Y-37560250D02*
X332581250Y-35972750D01*
X332581250Y-28035250D02*
G75*
G02X348456250Y-28035250I7937500J0D01*
G01*
X348456250Y-37560250D02*
X348456250Y-31210250D01*
X357187500Y-37560250D02*
X348456250Y-37560250D01*
X348456250Y-31210250D02*
X348456250Y-28035250D01*
X332581250Y-28035250D02*
X332581250Y-37560250D01*
X328612500Y-37560250D02*
X326231250Y-37560250D01*
X312737500Y-37560250D02*
X315118750Y-37560250D01*
X326231250Y-37560250D02*
X328612500Y-35972750D01*
X315118750Y-37560250D02*
X312737500Y-35972750D01*
X312737500Y-28035250D02*
G75*
G02X328612500Y-28035250I7937500J0D01*
G01*
X328612500Y-37560250D02*
X328612500Y-31210250D01*
X332581250Y-37560250D02*
X328612500Y-37560250D01*
X328612500Y-31210250D02*
X328612500Y-28035250D01*
X312737500Y-28035250D02*
X312737500Y-37560250D01*
X306387500Y-37560250D02*
X308768750Y-35972750D01*
X308768750Y-37560250D02*
X306387500Y-37560250D01*
X295275000Y-37560250D02*
X292893750Y-35972750D01*
X292893750Y-37560250D02*
X295275000Y-37560250D01*
X286543750Y-37560250D02*
X288925000Y-35972750D01*
X288925000Y-37560250D02*
X286543750Y-37560250D01*
X275431250Y-37560250D02*
X273050000Y-35972750D01*
X273050000Y-37560250D02*
X275431250Y-37560250D01*
X266700000Y-37560250D02*
X269081250Y-35972750D01*
X269081250Y-37560250D02*
X266700000Y-37560250D01*
X255587500Y-37560250D02*
X253206250Y-35972750D01*
X253206250Y-37560250D02*
X255587500Y-37560250D01*
X246856250Y-37560250D02*
X249237500Y-35972750D01*
X249237500Y-37560250D02*
X246856250Y-37560250D01*
X235743750Y-37560250D02*
X233362500Y-35972750D01*
X233362500Y-37560250D02*
X235743750Y-37560250D01*
X227012500Y-37560250D02*
X229393750Y-35972750D01*
X229393750Y-37560250D02*
X227012500Y-37560250D01*
X215900000Y-37560250D02*
X213518750Y-35972750D01*
X213518750Y-37560250D02*
X215900000Y-37560250D01*
X207168750Y-37560250D02*
X209550000Y-35972750D01*
X209550000Y-37560250D02*
X207168750Y-37560250D01*
X196056250Y-37560250D02*
X193675000Y-35972750D01*
X193675000Y-37560250D02*
X196056250Y-37560250D01*
X187325000Y-37560250D02*
X189706250Y-35972750D01*
X189706250Y-37560250D02*
X187325000Y-37560250D01*
X176212500Y-37560250D02*
X173831250Y-35972750D01*
X173831250Y-37560250D02*
X176212500Y-37560250D01*
X167481250Y-37560250D02*
X169862500Y-35972750D01*
X169862500Y-37560250D02*
X167481250Y-37560250D01*
X156368750Y-37560250D02*
X153987500Y-35972750D01*
X153987500Y-37560250D02*
X156368750Y-37560250D01*
X147637500Y-37560250D02*
X150018750Y-35972750D01*
X150018750Y-37560250D02*
X147637500Y-37560250D01*
X136525000Y-37560250D02*
X134143750Y-35972750D01*
X134143750Y-37560250D02*
X136525000Y-37560250D01*
X127793750Y-37560250D02*
X130175000Y-35972750D01*
X130175000Y-37560250D02*
X127793750Y-37560250D01*
X116681250Y-37560250D02*
X114300000Y-35972750D01*
X114300000Y-37560250D02*
X116681250Y-37560250D01*
X107950000Y-37560250D02*
X110331250Y-35972750D01*
X110331250Y-37560250D02*
X107950000Y-37560250D01*
X50800000Y-37560250D02*
X54768750Y-37560250D01*
X54768750Y-28035250D02*
G75*
G02X70643750Y-28035250I7937500J0D01*
G01*
X70643750Y-37560250D02*
X70643750Y-28035250D01*
X54768750Y-28035250D02*
X54768750Y-37560250D01*
X74612500Y-37560250D02*
X70643750Y-37560250D01*
X74612500Y-28035250D02*
G75*
G02X90487500Y-28035250I7937500J0D01*
G01*
X90487500Y-37560250D02*
X90487500Y-28035250D01*
X74612500Y-28035250D02*
X74612500Y-37560250D01*
X94456250Y-37560250D02*
X90487500Y-37560250D01*
X94456250Y-28035250D02*
G75*
G02X110331250Y-28035250I7937500J0D01*
G01*
X110331250Y-37560250D02*
X110331250Y-28035250D01*
X94456250Y-28035250D02*
X94456250Y-37560250D01*
X114300000Y-37560250D02*
X110331250Y-37560250D01*
X114300000Y-28035250D02*
G75*
G02X130175000Y-28035250I7937500J0D01*
G01*
X130175000Y-37560250D02*
X130175000Y-28035250D01*
X114300000Y-28035250D02*
X114300000Y-37560250D01*
X134143750Y-37560250D02*
X130175000Y-37560250D01*
X134143750Y-28035250D02*
G75*
G02X150018750Y-28035250I7937500J0D01*
G01*
X150018750Y-37560250D02*
X150018750Y-28035250D01*
X134143750Y-28035250D02*
X134143750Y-37560250D01*
X153987500Y-37560250D02*
X150018750Y-37560250D01*
X153987500Y-28035250D02*
G75*
G02X169862500Y-28035250I7937500J0D01*
G01*
X169862500Y-37560250D02*
X169862500Y-28035250D01*
X153987500Y-28035250D02*
X153987500Y-37560250D01*
X173831250Y-37560250D02*
X169862500Y-37560250D01*
X173831250Y-28035250D02*
G75*
G02X189706250Y-28035250I7937500J0D01*
G01*
X189706250Y-37560250D02*
X189706250Y-28035250D01*
X173831250Y-28035250D02*
X173831250Y-37560250D01*
X193675000Y-37560250D02*
X189706250Y-37560250D01*
X193675000Y-28035250D02*
G75*
G02X209550000Y-28035250I7937500J0D01*
G01*
X209550000Y-37560250D02*
X209550000Y-28035250D01*
X193675000Y-28035250D02*
X193675000Y-37560250D01*
X213518750Y-37560250D02*
X209550000Y-37560250D01*
X213518750Y-28035250D02*
G75*
G02X229393750Y-28035250I7937500J0D01*
G01*
X229393750Y-37560250D02*
X229393750Y-28035250D01*
X213518750Y-28035250D02*
X213518750Y-37560250D01*
X233362500Y-37560250D02*
X229393750Y-37560250D01*
X233362500Y-28035250D02*
G75*
G02X249237500Y-28035250I7937500J0D01*
G01*
X249237500Y-37560250D02*
X249237500Y-28035250D01*
X233362500Y-28035250D02*
X233362500Y-37560250D01*
X253206250Y-37560250D02*
X249237500Y-37560250D01*
X253206250Y-28035250D02*
G75*
G02X269081250Y-28035250I7937500J0D01*
G01*
X269081250Y-37560250D02*
X269081250Y-28035250D01*
X253206250Y-28035250D02*
X253206250Y-37560250D01*
X273050000Y-37560250D02*
X269081250Y-37560250D01*
X273050000Y-28035250D02*
X273050000Y-37560250D01*
X273050000Y-28035250D02*
G75*
G02X288925000Y-28035250I7937500J0D01*
G01*
X288925000Y-37560250D02*
X288925000Y-28035250D01*
X292893750Y-37560250D02*
X288925000Y-37560250D01*
X292893750Y-28035250D02*
X292893750Y-37560250D01*
X292893750Y-28035250D02*
G75*
G02X308768750Y-28035250I7937500J0D01*
G01*
X308768750Y-31210250D02*
X308768750Y-28035250D01*
X308768750Y-37560250D02*
X308768750Y-31210250D01*
X312737500Y-37560250D02*
X308768750Y-37560250D01*
X50800000Y-18510250D02*
X189706250Y-18510250D01*
X50800000Y-18510250D02*
X50800000Y-37560250D01*
D12*
X315595000Y-46831250D02*
X325479400Y-49244924D01*
X326016850Y-44632574D02*
X325699075Y-45052199D01*
X326822575Y-44234699D02*
X326435200Y-44355074D01*
X346084075Y-50966024D02*
X346184575Y-51139799D01*
X345798400Y-51899924D02*
X345752800Y-51899924D01*
X325430950Y-48147525D02*
X325559875Y-48995399D01*
X329578525Y-46483649D02*
X329480425Y-46202099D01*
X345935125Y-51856799D02*
X345798400Y-51899924D01*
X327152200Y-44189474D02*
X326954350Y-44219999D01*
X329480425Y-46202099D02*
X329083750Y-45393149D01*
X327771850Y-44261174D02*
X327152200Y-44189474D01*
X326954350Y-44219999D02*
X326822575Y-44234699D01*
X325364275Y-46316024D02*
X325347100Y-47160750D01*
X345284050Y-51353024D02*
X345284050Y-51299699D01*
X328481425Y-44652149D02*
X327771850Y-44261174D01*
X326221150Y-49459649D02*
X329578525Y-46483649D01*
X325614850Y-49276124D02*
X326221150Y-49459649D01*
X325559875Y-48995399D02*
X325614850Y-49276124D01*
X345320725Y-51565799D02*
X345284050Y-51405899D01*
X345284050Y-51405899D02*
X345284050Y-51353024D01*
X326016850Y-44632574D02*
X325699075Y-45052199D01*
X345798400Y-50806124D02*
X345935125Y-50848874D01*
X325481425Y-45613199D02*
X325364275Y-46316024D01*
X326822575Y-44234699D02*
X326435200Y-44355074D01*
X328481425Y-44652149D02*
X327771850Y-44261174D01*
X345706825Y-50806124D02*
X345752800Y-50806124D01*
X345752800Y-51899924D02*
X345706825Y-51899924D01*
X345570100Y-51856799D02*
X345421150Y-51739574D01*
X345935125Y-50848874D02*
X346084075Y-50966024D01*
X346084075Y-51739574D02*
X345935125Y-51856799D01*
X327771850Y-44261174D02*
X327152200Y-44189474D01*
X329083750Y-45393149D02*
X328481425Y-44652149D01*
X329480425Y-46202099D02*
X329083750Y-45393149D01*
X345706825Y-51899924D02*
X345570100Y-51856799D01*
X346184575Y-51139799D02*
X346221550Y-51299699D01*
X345570100Y-50848874D02*
X345706825Y-50806124D01*
X325481425Y-45613199D02*
X325364275Y-46316024D01*
X325699075Y-45052199D02*
X325481425Y-45613199D01*
X326435200Y-44355074D02*
X326016850Y-44632574D01*
X345421150Y-50966024D02*
X345570100Y-50848874D01*
X327152200Y-44189474D02*
X326954350Y-44219999D01*
X345284050Y-51299699D02*
X345320725Y-51139799D01*
X345752800Y-50806124D02*
X345798400Y-50806124D01*
X326954350Y-44219999D02*
X326822575Y-44234699D01*
X329083750Y-45393149D02*
X328481425Y-44652149D01*
X326435200Y-44355074D02*
X326016850Y-44632574D01*
X329578525Y-46483649D02*
X329480425Y-46202099D01*
X346221550Y-51353024D02*
X346221550Y-51353024D01*
X325347100Y-47160750D02*
X325430950Y-48147525D01*
X325699075Y-45052199D02*
X325481425Y-45613199D01*
X345421150Y-51739574D02*
X345320725Y-51565799D01*
X346221550Y-51299699D02*
X346221550Y-51353024D01*
X345320725Y-51139799D02*
X345421150Y-50966024D01*
X346332250Y-50101349D02*
X346336675Y-50058224D01*
X345049675Y-49787699D02*
X345070825Y-49662374D01*
X345596575Y-49871024D02*
X345574975Y-49996424D01*
X345596575Y-49829549D02*
X345596575Y-49871024D01*
X346423450Y-49888574D02*
X346565800Y-49811249D01*
X345574975Y-49996424D02*
X345516325Y-50133149D01*
X345070825Y-49662374D02*
X345129475Y-49525649D01*
X344659075Y-50962424D02*
X344659075Y-50934674D01*
X345349600Y-49399874D02*
X345429325Y-49433624D01*
X346184575Y-51565799D02*
X346084075Y-51739574D01*
X346221550Y-51405899D02*
X346184575Y-51565799D01*
X346221550Y-51353024D02*
X346221550Y-51405899D01*
X344971525Y-50934674D02*
X344971525Y-50962424D01*
X344842600Y-50806124D02*
X344925625Y-50851649D01*
X344659075Y-50989649D02*
X344659075Y-50962424D01*
X344704675Y-51072674D02*
X344659075Y-50989649D01*
X346753000Y-49923149D02*
X346803025Y-50107049D01*
X346327825Y-50144174D02*
X346332250Y-50101349D01*
X346798525Y-50150174D02*
X346794025Y-50192924D01*
X345574975Y-49662374D02*
X345596575Y-49787699D01*
X345596575Y-49829549D02*
X345596575Y-49829549D01*
X344787625Y-51118649D02*
X344704675Y-51072674D01*
X345129475Y-49525649D02*
X345216550Y-49433624D01*
X345516325Y-50133149D02*
X345429325Y-50225099D01*
X344925625Y-50851649D02*
X344971525Y-50934674D01*
X344815300Y-50806124D02*
X344842600Y-50806124D01*
X344815300Y-51118649D02*
X344787625Y-51118649D01*
X345296275Y-49399874D02*
X345323125Y-49399874D01*
X345216550Y-49433624D02*
X345296275Y-49399874D01*
X344842600Y-51118649D02*
X344815300Y-51118649D01*
X344925625Y-51072674D02*
X344842600Y-51118649D01*
X347838250Y-50131424D02*
X347949250Y-50397599D01*
X344971525Y-50989649D02*
X344925625Y-51072674D01*
X344971525Y-50962424D02*
X344971525Y-50989649D01*
X346798525Y-50150174D02*
X346798525Y-50150174D01*
X346803025Y-50107049D02*
X346798525Y-50150174D01*
X346630075Y-49818224D02*
X346753000Y-49923149D01*
X345070825Y-49996424D02*
X345049675Y-49871024D01*
X345596575Y-49787699D02*
X345596575Y-49829549D01*
X346532800Y-50436674D02*
X346500325Y-50432999D01*
X345429325Y-49433624D02*
X345516325Y-49525649D01*
X346564975Y-50439899D02*
X346532800Y-50436674D01*
X346706950Y-50362574D02*
X346564975Y-50439899D01*
X346597900Y-49814924D02*
X346630075Y-49818224D01*
X346565800Y-49811249D02*
X346597900Y-49814924D01*
X346377400Y-50327999D02*
X346327825Y-50144174D01*
X345216550Y-50225099D02*
X345129475Y-50133149D01*
X345349600Y-50259299D02*
X345323125Y-50259299D01*
X345429325Y-50225099D02*
X345349600Y-50259299D01*
X345129475Y-50133149D02*
X345070825Y-49996424D01*
X345049675Y-49871024D02*
X345049675Y-49829549D01*
X346794025Y-50192924D02*
X346706950Y-50362574D01*
X345323125Y-50259299D02*
X345296275Y-50259299D01*
X347416675Y-49370999D02*
X347838250Y-50131424D01*
X345516325Y-49525649D02*
X345574975Y-49662374D01*
X346500325Y-50432999D02*
X346377400Y-50327999D01*
X345049675Y-49829549D02*
X345049675Y-49787699D01*
X345296275Y-50259299D02*
X345216550Y-50225099D01*
X345323125Y-49399874D02*
X345349600Y-49399874D01*
X344971525Y-50962424D02*
X344971525Y-50962424D01*
X344787625Y-50806124D02*
X344815300Y-50806124D01*
X344704675Y-50851649D02*
X344787625Y-50806124D01*
X344659075Y-50934674D02*
X344704675Y-50851649D01*
X346336675Y-50058224D02*
X346423450Y-49888574D01*
X334494250Y-47086649D02*
X334525225Y-47321849D01*
X334446625Y-47631149D02*
X334335625Y-47791050D01*
X333459850Y-47164349D02*
X333483550Y-47105399D01*
X333404575Y-47414549D02*
X333436375Y-47222999D01*
X338286999Y-49213499D02*
X338674750Y-49154924D01*
X335812600Y-47980200D02*
X335813875Y-48069674D01*
X336164125Y-48505124D02*
X336592975Y-48480749D01*
X334257475Y-46785524D02*
X334386025Y-46892625D01*
X333721525Y-47970824D02*
X333672250Y-47950949D01*
X335813875Y-48069674D02*
X335904175Y-48338324D01*
X334335625Y-47791050D02*
X334150000Y-47938724D01*
X334386025Y-46892625D02*
X334494250Y-47086649D01*
X333435475Y-47649824D02*
X333404575Y-47414549D01*
X333770425Y-47990400D02*
X333721525Y-47970824D01*
X333779800Y-46797824D02*
X333992575Y-46733849D01*
X333672250Y-47950949D02*
X333544150Y-47843850D01*
X333594175Y-46945424D02*
X333779800Y-46797824D01*
X337190424Y-48264974D02*
X337250200Y-48403424D01*
X343839550Y-52538324D02*
X343766725Y-51477524D01*
X337250200Y-48403424D02*
X337492675Y-48792374D01*
X334470325Y-47572500D02*
X334470325Y-47572500D01*
X333779800Y-46797824D02*
X333992575Y-46733849D01*
X333594175Y-46945424D02*
X333779800Y-46797824D01*
X334493875Y-47513925D02*
X334470325Y-47572500D01*
X334208650Y-46766024D02*
X334257475Y-46785524D01*
X346819675Y-48690599D02*
X347416675Y-49370999D01*
X334470325Y-47572500D02*
X334446625Y-47631149D01*
X346158850Y-48355799D02*
X346819675Y-48690599D01*
X345605950Y-48324900D02*
X346158850Y-48355799D01*
X345434125Y-48366749D02*
X345605950Y-48324900D01*
X345299875Y-48378974D02*
X345434125Y-48366749D01*
X344905600Y-48497774D02*
X345299875Y-48378974D01*
X344149600Y-49225274D02*
X344477575Y-48784274D01*
X343921750Y-49820999D02*
X344149600Y-49225274D01*
X334386025Y-46892625D02*
X334494250Y-47086649D01*
X334470325Y-47572500D02*
X334470325Y-47572500D01*
X343766725Y-51477524D02*
X343794400Y-50572199D01*
X333483550Y-47105399D02*
X333594175Y-46945424D01*
X333544150Y-47843850D02*
X333435475Y-47649824D01*
X343960825Y-53451449D02*
X343839550Y-52538324D01*
X338674750Y-49154924D02*
X338793924Y-49109399D01*
X334159375Y-46746074D02*
X334208650Y-46766024D01*
X337856050Y-49108124D02*
X338286999Y-49213499D01*
X335904175Y-48338324D02*
X336164125Y-48505124D01*
X337492675Y-48792374D02*
X337856050Y-49108124D01*
X334525225Y-47321849D02*
X334493875Y-47513925D01*
X333992575Y-46733849D02*
X334159375Y-46746074D01*
X334159375Y-46746074D02*
X334208650Y-46766024D01*
X334257475Y-46785524D02*
X334386025Y-46892625D01*
X334150000Y-47938724D02*
X333937150Y-48002624D01*
X337046350Y-48330525D02*
X337190424Y-48264974D01*
X333992575Y-46733849D02*
X334159375Y-46746074D01*
X334494250Y-47086649D02*
X334525225Y-47321849D01*
X334493875Y-47513925D02*
X334470325Y-47572500D01*
X334525225Y-47321849D02*
X334493875Y-47513925D01*
X333937150Y-48002624D02*
X333770425Y-47990400D01*
X334208650Y-46766024D02*
X334257475Y-46785524D01*
X333483550Y-47105399D02*
X333594175Y-46945424D01*
X333436375Y-47222999D02*
X333459850Y-47164349D01*
X333459850Y-47164349D02*
X333483550Y-47105399D01*
X336592975Y-48480749D02*
X337046350Y-48330525D01*
X344477575Y-48784274D02*
X344905600Y-48497774D01*
X343794400Y-50572199D02*
X343921750Y-49820999D01*
X344012875Y-53753774D02*
X343960825Y-53451449D01*
X342826750Y-49375949D02*
X342870700Y-49398224D01*
X333721525Y-47970824D02*
X333672250Y-47950949D01*
X342624550Y-49334774D02*
X342782350Y-49353149D01*
X342930925Y-50294699D02*
X342802000Y-50459474D01*
X342143950Y-50605949D02*
X342036100Y-50489174D01*
X333770425Y-47990400D02*
X333721525Y-47970824D01*
X342993250Y-50173049D02*
X342962275Y-50234024D01*
X342188350Y-50628749D02*
X342143950Y-50605949D01*
X342411775Y-49395374D02*
X342624550Y-49334774D01*
X342083725Y-49709549D02*
X342212800Y-49544774D01*
X333937150Y-48002624D02*
X333770425Y-47990400D01*
X342993250Y-50173049D02*
X342962275Y-50234024D01*
X342930925Y-50294699D02*
X342802000Y-50459474D01*
X342962275Y-50234024D02*
X342962275Y-50234024D01*
X334470325Y-47572500D02*
X334446625Y-47631149D01*
X334150000Y-47938724D02*
X333937150Y-48002624D01*
X342870700Y-49398224D02*
X342978550Y-49514999D01*
X341960125Y-50281274D02*
X341964175Y-50032199D01*
X343050625Y-49971974D02*
X342993250Y-50173049D01*
X336103525Y-41535749D02*
X335963500Y-41798099D01*
X342826750Y-49375949D02*
X342870700Y-49398224D01*
X342232300Y-50651174D02*
X342188350Y-50628749D01*
X342962275Y-50234024D02*
X342962275Y-50234024D01*
X342978550Y-49514999D02*
X343054675Y-49723049D01*
X342802000Y-50459474D02*
X342603400Y-50608724D01*
X342083725Y-49709549D02*
X342212800Y-49544774D01*
X342022000Y-49831274D02*
X342052825Y-49770599D01*
X342603400Y-50608724D02*
X342390175Y-50669399D01*
X342022000Y-49831274D02*
X342052825Y-49770599D01*
X342390175Y-50669399D02*
X342232300Y-50651174D01*
X343050625Y-49971974D02*
X342993250Y-50173049D01*
X342036100Y-50489174D02*
X341960125Y-50281274D01*
X341964175Y-50032199D02*
X342022000Y-49831274D01*
X342802000Y-50459474D02*
X342603400Y-50608724D01*
X342232300Y-50651174D02*
X342188350Y-50628749D01*
X342390175Y-50669399D02*
X342232300Y-50651174D01*
X334335625Y-47791050D02*
X334150000Y-47938724D01*
X342782350Y-49353149D02*
X342826750Y-49375949D01*
X342143950Y-50605949D02*
X342036100Y-50489174D01*
X341960125Y-50281274D02*
X341964175Y-50032199D01*
X342624550Y-49334774D02*
X342782350Y-49353149D01*
X343054675Y-49723049D02*
X343050625Y-49971974D01*
X342978550Y-49514999D02*
X343054675Y-49723049D01*
X342962275Y-50234024D02*
X342930925Y-50294699D01*
X342962275Y-50234024D02*
X342930925Y-50294699D01*
X342052825Y-49770599D02*
X342083725Y-49709549D01*
X342212800Y-49544774D02*
X342411775Y-49395374D01*
X333436375Y-47222999D02*
X333459850Y-47164349D01*
X334446625Y-47631149D02*
X334335625Y-47791050D01*
X343054675Y-49723049D02*
X343050625Y-49971974D01*
X342212800Y-49544774D02*
X342411775Y-49395374D01*
X342036100Y-50489174D02*
X341960125Y-50281274D01*
X342188350Y-50628749D02*
X342143950Y-50605949D01*
X342603400Y-50608724D02*
X342390175Y-50669399D01*
X342782350Y-49353149D02*
X342826750Y-49375949D01*
X335963500Y-41798099D02*
X335963500Y-41798099D01*
X342052825Y-49770599D02*
X342083725Y-49709549D01*
X333404575Y-47414549D02*
X333436375Y-47222999D01*
X341964175Y-50032199D02*
X342022000Y-49831274D01*
X333435475Y-47649824D02*
X333404575Y-47414549D01*
X342870700Y-49398224D02*
X342978550Y-49514999D01*
X333544150Y-47843850D02*
X333435475Y-47649824D01*
X333672250Y-47950949D02*
X333544150Y-47843850D01*
X342411775Y-49395374D02*
X342624550Y-49334774D01*
X347471950Y-54554024D02*
X351531250Y-55518449D01*
X350998975Y-50207174D02*
X351009175Y-49846649D01*
X334647700Y-51496649D02*
X338353750Y-52382474D01*
X348223525Y-45306899D02*
X346727275Y-44171249D01*
X352800325Y-55367474D02*
X352160275Y-53044499D01*
X351341575Y-48445274D02*
X351458725Y-48006225D01*
X351009175Y-49846649D02*
X351039250Y-49501274D01*
X331341550Y-43657724D02*
X329988250Y-44530499D01*
X325867600Y-49375124D02*
X326941375Y-49638299D01*
X329988250Y-44530499D02*
X328728100Y-45529874D01*
X336551950Y-40764299D02*
X336103525Y-41535749D01*
X337843825Y-39435299D02*
X337796274Y-39435299D01*
X337986625Y-39466274D02*
X337843825Y-39435299D01*
X340554700Y-41850224D02*
X339946750Y-41798099D01*
X349813225Y-45050099D02*
X348958000Y-45556349D01*
X351869350Y-45281249D02*
X351799750Y-44712374D01*
X327561850Y-46655324D02*
X326489275Y-47907374D01*
X332788525Y-42911474D02*
X331341550Y-43657724D01*
X326941375Y-49638299D02*
X328941625Y-50124599D01*
X351591025Y-47393849D02*
X351650425Y-47086274D01*
X351799750Y-46157699D02*
X351869350Y-45281249D01*
X338149450Y-39563024D02*
X337986625Y-39466274D01*
X351039250Y-49501274D02*
X351088075Y-49239599D01*
X337053625Y-40025699D02*
X336551950Y-40764299D01*
X338308975Y-39730274D02*
X338149450Y-39563024D01*
X351155650Y-49010924D02*
X351240325Y-48763124D01*
X352884550Y-55839899D02*
X352800325Y-55367474D01*
X328728100Y-45529874D02*
X327561850Y-46655324D01*
X351088075Y-49239599D02*
X351155650Y-49010924D01*
X338491225Y-39973199D02*
X338308975Y-39730274D01*
X338720724Y-40296674D02*
X338491225Y-39973199D01*
X342362050Y-42204299D02*
X340554700Y-41850224D01*
X338353750Y-52382474D02*
X342628600Y-53401349D01*
X325510300Y-49285949D02*
X325867600Y-49375124D01*
X325739350Y-48931124D02*
X325510300Y-49285949D01*
X326489275Y-47907374D02*
X325739350Y-48931124D01*
X331510075Y-50743874D02*
X334647700Y-51496649D01*
X351536125Y-44362049D02*
X351269575Y-44384474D01*
X351650425Y-47086274D02*
X351799750Y-46157699D01*
X351591025Y-44401574D02*
X351536125Y-44362049D01*
X351458725Y-48006225D02*
X351560950Y-47547299D01*
X351662200Y-44452424D02*
X351591025Y-44401574D01*
X352160275Y-53044499D02*
X351228850Y-50773949D01*
X337468300Y-39582599D02*
X337053625Y-40025699D01*
X339023125Y-40705199D02*
X338720724Y-40296674D01*
X339423025Y-41204024D02*
X339023125Y-40705199D01*
X339812500Y-41652524D02*
X339423025Y-41204024D01*
X342628600Y-53401349D02*
X347471950Y-54554024D01*
X344622400Y-42995324D02*
X342362050Y-42204299D01*
X350677075Y-44600924D02*
X349813225Y-45050099D01*
X351228850Y-50773949D02*
X350998975Y-50327624D01*
X339946750Y-41798099D02*
X339812500Y-41652524D01*
X328941625Y-50124599D02*
X331510075Y-50743874D01*
X351799750Y-44712374D02*
X351662200Y-44452424D01*
X351560950Y-47547299D02*
X351591025Y-47393849D01*
X346727275Y-44171249D02*
X344622400Y-42995324D01*
X351269575Y-44384474D02*
X350677075Y-44600924D01*
X350998975Y-50327624D02*
X350998975Y-50207174D01*
X351240325Y-48763124D02*
X351341575Y-48445274D01*
X337714074Y-39435299D02*
X337468300Y-39582599D01*
X351531250Y-55518449D02*
X352884550Y-55839899D01*
X337796274Y-39435299D02*
X337714074Y-39435299D01*
X348678025Y-45732525D02*
X348223525Y-45306899D01*
X348958000Y-45556349D02*
X348678025Y-45732525D01*
X345835375Y-61031549D02*
X345839875Y-61021799D01*
X345528250Y-64151249D02*
X345474475Y-64238774D01*
X349223650Y-57643349D02*
X349202875Y-57744599D01*
X327056950Y-56666774D02*
X325094875Y-56206124D01*
X342876475Y-58475024D02*
X345010600Y-54907724D01*
X345430900Y-63884774D02*
X345486625Y-63374924D01*
X345568075Y-62765400D02*
X345658825Y-62140724D01*
X345839875Y-61021799D02*
X345844375Y-61011674D01*
X346416850Y-59907674D02*
X321807475Y-54126449D01*
X345844375Y-61011674D02*
X345982675Y-60800849D01*
X331361125Y-57686024D02*
X329367250Y-57213224D01*
X349025500Y-58129574D02*
X348842350Y-58472624D01*
X320732050Y-55251524D02*
X320542825Y-55216949D01*
X345474475Y-64238774D02*
X345455425Y-64266899D01*
X348074125Y-57642899D02*
X348613750Y-56834399D01*
X345839875Y-61021799D02*
X345839875Y-61021799D01*
X347370625Y-61051124D02*
X347032900Y-61626899D01*
X320513125Y-55242149D02*
X320513125Y-55242149D01*
X345668500Y-63921374D02*
X345528250Y-64151249D01*
X345658825Y-62140724D02*
X345744700Y-61585274D01*
X345486625Y-63374924D02*
X345568075Y-62765400D01*
X346869775Y-59457299D02*
X347468350Y-58553924D01*
X347468350Y-58553924D02*
X348074125Y-57642899D01*
X321299650Y-55354049D02*
X320732050Y-55251524D01*
X349297675Y-56625224D02*
X349261525Y-57266549D01*
X345982675Y-60800849D02*
X346350475Y-60242999D01*
X329367250Y-57213224D02*
X327056950Y-56666774D01*
X323481025Y-55832999D02*
X322215999Y-55548524D01*
X345455425Y-64266899D02*
X345415075Y-64210274D01*
X346393600Y-62709974D02*
X346110925Y-63184875D01*
X345455425Y-64266899D02*
X345455425Y-64266899D01*
X345865900Y-63594299D02*
X345668500Y-63921374D01*
X347032900Y-61626899D02*
X346704175Y-62185124D01*
X349207000Y-55963649D02*
X349287175Y-56098349D01*
X349261525Y-57266549D02*
X349223650Y-57643349D01*
X348335800Y-59379599D02*
X348031450Y-59911349D01*
X325094875Y-56206124D02*
X323481025Y-55832999D01*
X334329025Y-42291374D02*
X332788525Y-42911474D01*
X335550175Y-41903549D02*
X334329025Y-42291374D01*
X345810175Y-61184174D02*
X345835375Y-61031549D01*
X345744700Y-61585274D02*
X345810175Y-61184174D01*
X349202875Y-57744599D02*
X349195600Y-57779999D01*
X348031450Y-59911349D02*
X347706325Y-60474074D01*
X349207000Y-55963649D02*
X349207000Y-55963649D01*
X348609250Y-58894499D02*
X348335800Y-59379599D01*
X348842350Y-58472624D02*
X348609250Y-58894499D01*
X345415075Y-64210274D02*
X345430900Y-63884774D01*
X320542825Y-55216949D02*
X320513125Y-55242149D01*
X349165900Y-56014499D02*
X349207000Y-55963649D01*
X348613750Y-56834399D02*
X349015750Y-56237924D01*
X335963500Y-41798099D02*
X335550175Y-41903549D01*
X349287175Y-56098349D02*
X349297675Y-56625224D01*
X347706325Y-60474074D02*
X347370625Y-61051124D01*
X334580950Y-56587424D02*
X336963775Y-53032724D01*
X326535700Y-54925649D02*
X329353150Y-51019349D01*
X330440275Y-55727999D02*
X332979400Y-52095224D01*
X322215999Y-55548524D02*
X321299650Y-55354049D01*
X346704175Y-62185124D02*
X346393600Y-62709974D01*
X338526250Y-57798299D02*
X341182525Y-54204599D01*
X346110925Y-63184875D02*
X345865900Y-63594299D01*
X349149175Y-57881324D02*
X349025500Y-58129574D01*
X346350475Y-60242999D02*
X346869775Y-59457299D01*
X349195600Y-57779999D02*
X349149175Y-57881324D01*
X349015750Y-56237924D02*
X349165900Y-56014499D01*
X345804850Y-61099499D02*
X345199750Y-60956699D01*
X320277925Y-56018099D02*
X320183950Y-56820899D01*
X345367900Y-64337174D02*
X345804850Y-61099499D01*
X325620925Y-50082674D02*
X325620925Y-50082674D01*
X349152100Y-55934699D02*
X325620925Y-50082674D01*
X320387800Y-55491974D02*
X320277925Y-56018099D01*
X332026000Y-57843824D02*
X331361125Y-57686024D01*
X332281975Y-57904574D02*
X332026000Y-57843824D01*
X339143125Y-59527274D02*
X337321450Y-59097149D01*
X320183950Y-56820899D02*
X320120950Y-57630299D01*
X337321450Y-59097149D02*
X335698600Y-58713449D01*
X320105425Y-57900374D02*
X345367900Y-64337174D01*
X320468725Y-55279124D02*
X320387800Y-55491974D01*
X333051025Y-58086899D02*
X332281975Y-57904574D01*
X325620925Y-50082674D02*
X320591275Y-55133549D01*
X334274950Y-58376999D02*
X333051025Y-58086899D01*
X335698600Y-58713449D02*
X334274950Y-58376999D01*
X341164600Y-60004574D02*
X339143125Y-59527274D01*
X320513125Y-55242149D02*
X320468725Y-55279124D01*
X343385125Y-60528674D02*
X341164600Y-60004574D01*
X345897250Y-61101974D02*
X349152100Y-55934699D01*
X320591275Y-55133549D02*
X345897250Y-61101974D01*
X345199750Y-60956699D02*
X343385125Y-60528674D01*
X320120950Y-57630299D02*
X320105425Y-57900374D01*
X327432475Y-46587374D02*
X327466675Y-46587374D01*
X327784075Y-47173349D02*
X327784075Y-47173349D01*
X327295375Y-46633349D02*
X327397900Y-46587374D01*
X327680725Y-46758749D02*
X327756325Y-46945124D01*
X327183850Y-46758749D02*
X327295375Y-46633349D01*
X327108250Y-46945124D02*
X327183850Y-46758749D01*
X327080950Y-47115900D02*
X327108250Y-46945124D01*
X327108250Y-47401125D02*
X327080950Y-47230275D01*
X327080950Y-47230275D02*
X327080950Y-47173349D01*
X327080950Y-47173349D02*
X327080950Y-47115900D01*
X327569275Y-46633349D02*
X327680725Y-46758749D01*
X327784075Y-47115900D02*
X327784075Y-47173349D01*
X327295375Y-47712899D02*
X327183850Y-47587574D01*
X352867075Y-55843499D02*
X368760625Y-59673299D01*
X327756325Y-46945124D02*
X327784075Y-47115900D01*
X327183850Y-47587574D02*
X327108250Y-47401125D01*
X327466675Y-46587374D02*
X327569275Y-46633349D01*
X327397900Y-46587374D02*
X327432475Y-46587374D01*
X326355400Y-46688774D02*
X326331850Y-46571174D01*
X326474275Y-46770524D02*
X326453125Y-46766474D01*
X326643550Y-46604474D02*
X326638225Y-46630950D01*
X327784075Y-47230275D02*
X327756325Y-47401125D01*
X326341975Y-46518224D02*
X326407900Y-46417724D01*
X326915275Y-45884249D02*
X326770075Y-45804074D01*
X326624800Y-46460024D02*
X326648425Y-46577624D01*
X327397900Y-47759249D02*
X327295375Y-47712899D01*
X328294225Y-46177574D02*
X328173400Y-46232999D01*
X327237175Y-45562424D02*
X327237175Y-45610799D01*
X327432475Y-47759249D02*
X327397900Y-47759249D01*
X327466675Y-47759249D02*
X327432475Y-47759249D01*
X327569275Y-47712899D02*
X327466675Y-47759249D01*
X326690275Y-45610799D02*
X326690275Y-45562424D01*
X326770075Y-45804074D02*
X326690275Y-45658874D01*
X328361425Y-46011225D02*
X328361425Y-46044599D01*
X327237175Y-45610799D02*
X327237175Y-45658874D01*
X326915275Y-45337424D02*
X326963725Y-45337424D01*
X327904900Y-46044599D02*
X327904900Y-46011225D01*
X328092475Y-46232999D02*
X327971650Y-46177574D01*
X327904900Y-46077524D02*
X327904900Y-46044599D01*
X326963725Y-45337424D02*
X327011725Y-45337424D01*
X326648425Y-46577624D02*
X326643550Y-46604474D01*
X327680725Y-47587574D02*
X327569275Y-47712899D01*
X327756325Y-47401125D02*
X327680725Y-47587574D01*
X328294225Y-45911174D02*
X328361425Y-46011225D01*
X326337100Y-46544699D02*
X326341975Y-46518224D01*
X328361425Y-46044599D02*
X328361425Y-46077524D01*
X326643550Y-46604474D02*
X326643550Y-46604474D01*
X328173400Y-45856124D02*
X328294225Y-45911174D01*
X328133200Y-45856124D02*
X328173400Y-45856124D01*
X328092475Y-45856124D02*
X328133200Y-45856124D01*
X327971650Y-45911174D02*
X328092475Y-45856124D01*
X327904900Y-46011225D02*
X327971650Y-45911174D01*
X326453125Y-46766474D02*
X326431975Y-46761974D01*
X326963725Y-45884249D02*
X326915275Y-45884249D01*
X326572300Y-46730999D02*
X326474275Y-46770524D01*
X327971650Y-46177574D02*
X327904900Y-46077524D01*
X328173400Y-46232999D02*
X328133200Y-46232999D01*
X326407900Y-46417724D02*
X326506375Y-46378650D01*
X325364275Y-46316024D02*
X325347100Y-47160750D01*
X326431975Y-46761974D02*
X326355400Y-46688774D01*
X327237175Y-45610799D02*
X327237175Y-45610799D01*
X326690275Y-45658874D02*
X326690275Y-45610799D01*
X327157000Y-45417149D02*
X327237175Y-45562424D01*
X327011725Y-45337424D02*
X327157000Y-45417149D01*
X325347100Y-47160750D02*
X325430950Y-48147525D01*
X325430950Y-48147525D02*
X325559875Y-48995399D01*
X328133200Y-46232999D02*
X328092475Y-46232999D01*
X325614850Y-49276124D02*
X326221150Y-49459649D01*
X326506375Y-46378650D02*
X326527600Y-46382700D01*
X326638225Y-46630950D02*
X326572300Y-46730999D01*
X327237175Y-45658874D02*
X327157000Y-45804074D01*
X328361425Y-46077524D02*
X328294225Y-46177574D01*
X326527600Y-46382700D02*
X326548750Y-46386750D01*
X327157000Y-45804074D02*
X327011725Y-45884249D01*
X325559875Y-48995399D02*
X325614850Y-49276124D01*
X327011725Y-45884249D02*
X326963725Y-45884249D01*
X326331850Y-46571174D02*
X326337100Y-46544699D01*
X326770075Y-45417149D02*
X326915275Y-45337424D01*
X326690275Y-45562424D02*
X326770075Y-45417149D01*
X327784075Y-47173349D02*
X327784075Y-47230275D01*
X328361425Y-46044599D02*
X328361425Y-46044599D01*
X326548750Y-46386750D02*
X326624800Y-46460024D01*
D13*
X335605892Y-77112642D02*
X334605892Y-75684071D01*
X333891607Y-77112642D02*
X333891607Y-74112642D01*
X335034464Y-74112642D01*
X335320178Y-74255500D01*
X335463035Y-74398357D01*
X335605892Y-74684071D01*
X335605892Y-75112642D01*
X335463035Y-75398357D01*
X335320178Y-75541214D01*
X335034464Y-75684071D01*
X333891607Y-75684071D01*
X338034464Y-76969785D02*
X337748750Y-77112642D01*
X337177321Y-77112642D01*
X336891607Y-76969785D01*
X336748750Y-76684071D01*
X336748750Y-75541214D01*
X336891607Y-75255500D01*
X337177321Y-75112642D01*
X337748750Y-75112642D01*
X338034464Y-75255500D01*
X338177321Y-75541214D01*
X338177321Y-75826928D01*
X336748750Y-76112642D01*
X339177321Y-75112642D02*
X339891607Y-77112642D01*
X340605892Y-75112642D01*
X341748750Y-76826928D02*
X341891607Y-76969785D01*
X341748750Y-77112642D01*
X341605892Y-76969785D01*
X341748750Y-76826928D01*
X341748750Y-77112642D01*
X343748750Y-74112642D02*
X344034464Y-74112642D01*
X344320178Y-74255500D01*
X344463035Y-74398357D01*
X344605892Y-74684071D01*
X344748750Y-75255500D01*
X344748750Y-75969785D01*
X344605892Y-76541214D01*
X344463035Y-76826928D01*
X344320178Y-76969785D01*
X344034464Y-77112642D01*
X343748750Y-77112642D01*
X343463035Y-76969785D01*
X343320178Y-76826928D01*
X343177321Y-76541214D01*
X343034464Y-75969785D01*
X343034464Y-75255500D01*
X343177321Y-74684071D01*
X343320178Y-74398357D01*
X343463035Y-74255500D01*
X343748750Y-74112642D01*
X324179330Y-81875142D02*
X324554330Y-78875142D01*
X324411473Y-80018000D02*
X324715044Y-79875142D01*
X325286473Y-79875142D01*
X325554330Y-80018000D01*
X325679330Y-80160857D01*
X325786473Y-80446571D01*
X325679330Y-81303714D01*
X325500758Y-81589428D01*
X325340044Y-81732285D01*
X325036473Y-81875142D01*
X324465044Y-81875142D01*
X324197187Y-81732285D01*
X326857901Y-79875142D02*
X327322187Y-81875142D01*
X328286473Y-79875142D02*
X327322187Y-81875142D01*
X326947187Y-82589428D01*
X326786473Y-82732285D01*
X326482901Y-82875142D01*
X332768616Y-81732285D02*
X332465044Y-81875142D01*
X331893616Y-81875142D01*
X331625758Y-81732285D01*
X331500758Y-81589428D01*
X331393616Y-81303714D01*
X331500758Y-80446571D01*
X331679330Y-80160857D01*
X331840044Y-80018000D01*
X332143616Y-79875142D01*
X332715044Y-79875142D01*
X332982901Y-80018000D01*
X334000758Y-79875142D02*
X335572187Y-79875142D01*
X333750758Y-81875142D01*
X335322187Y-81875142D01*
X336286473Y-79875142D02*
X337429330Y-79875142D01*
X336840044Y-78875142D02*
X336518616Y-81446571D01*
X336625758Y-81732285D01*
X336893616Y-81875142D01*
X337179330Y-81875142D01*
X338179330Y-81875142D02*
X338429330Y-79875142D01*
X338357901Y-80446571D02*
X338536473Y-80160857D01*
X338697187Y-80018000D01*
X339000758Y-79875142D01*
X339286473Y-79875142D01*
X340465044Y-81875142D02*
X340197187Y-81732285D01*
X340072187Y-81589428D01*
X339965044Y-81303714D01*
X340072187Y-80446571D01*
X340250758Y-80160857D01*
X340411473Y-80018000D01*
X340715044Y-79875142D01*
X341143616Y-79875142D01*
X341411473Y-80018000D01*
X341536473Y-80160857D01*
X341643616Y-80446571D01*
X341536473Y-81303714D01*
X341357901Y-81589428D01*
X341197187Y-81732285D01*
X340893616Y-81875142D01*
X340465044Y-81875142D01*
X343179330Y-81875142D02*
X342911473Y-81732285D01*
X342804330Y-81446571D01*
X343125758Y-78875142D01*
X344750758Y-81875142D02*
X344482901Y-81732285D01*
X344375758Y-81446571D01*
X344697187Y-78875142D01*
X346322187Y-81875142D02*
X346054330Y-81732285D01*
X345929330Y-81589428D01*
X345822187Y-81303714D01*
X345929330Y-80446571D01*
X346107901Y-80160857D01*
X346268616Y-80018000D01*
X346572187Y-79875142D01*
X347000758Y-79875142D01*
X347268616Y-80018000D01*
X347393616Y-80160857D01*
X347500758Y-80446571D01*
X347393616Y-81303714D01*
X347215044Y-81589428D01*
X347054330Y-81732285D01*
X346750758Y-81875142D01*
X346322187Y-81875142D01*
X349036473Y-81875142D02*
X348768616Y-81732285D01*
X348661473Y-81446571D01*
X348982901Y-78875142D01*
X351482901Y-81732285D02*
X351179330Y-81875142D01*
X350607901Y-81875142D01*
X350340044Y-81732285D01*
X350215044Y-81589428D01*
X350107901Y-81303714D01*
X350215044Y-80446571D01*
X350393616Y-80160857D01*
X350554330Y-80018000D01*
X350857901Y-79875142D01*
X351429330Y-79875142D01*
X351697187Y-80018000D01*
X352715044Y-79875142D02*
X354286473Y-79875142D01*
X352465044Y-81875142D01*
X354036473Y-81875142D01*
X333677321Y-72064428D02*
X333534464Y-72207285D01*
X333105892Y-72350142D01*
X332820178Y-72350142D01*
X332391607Y-72207285D01*
X332105892Y-71921571D01*
X331963035Y-71635857D01*
X331820178Y-71064428D01*
X331820178Y-70635857D01*
X331963035Y-70064428D01*
X332105892Y-69778714D01*
X332391607Y-69493000D01*
X332820178Y-69350142D01*
X333105892Y-69350142D01*
X333534464Y-69493000D01*
X333677321Y-69635857D01*
X334677321Y-69350142D02*
X336677321Y-69350142D01*
X334677321Y-72350142D01*
X336677321Y-72350142D01*
X337391607Y-69350142D02*
X339105892Y-69350142D01*
X338248750Y-72350142D02*
X338248750Y-69350142D01*
X340105892Y-72350142D02*
X340105892Y-69350142D01*
X341820178Y-72350142D02*
X340534464Y-70635857D01*
X341820178Y-69350142D02*
X340105892Y-71064428D01*
X344248750Y-72207285D02*
X343963035Y-72350142D01*
X343391607Y-72350142D01*
X343105892Y-72207285D01*
X342963035Y-71921571D01*
X342963035Y-70778714D01*
X343105892Y-70493000D01*
X343391607Y-70350142D01*
X343963035Y-70350142D01*
X344248750Y-70493000D01*
X344391607Y-70778714D01*
X344391607Y-71064428D01*
X342963035Y-71350142D01*
X345391607Y-70350142D02*
X346105892Y-72350142D01*
X346820178Y-70350142D02*
X346105892Y-72350142D01*
X345820178Y-73064428D01*
X345677321Y-73207285D01*
X345391607Y-73350142D01*
D10*
X30855000Y-78274250D02*
G75*
G03X30855000Y-78274250I-7800000J0D01*
G01*
D14*
X36596000Y-52625100D02*
X36596000Y-64125100D01*
X34183000Y-49901100D02*
X34183000Y-51171100D01*
X33675000Y-51425100D02*
X33929000Y-51425100D01*
X33675000Y-48885100D02*
X34185000Y-48885100D01*
X50185000Y-47615100D02*
X50185000Y-16401100D01*
X32405000Y-16401100D02*
X32405000Y-47615100D01*
X33675000Y-15131100D02*
X48915000Y-15131100D01*
X50185000Y-16401100D02*
G75*
G03X48915000Y-15131100I-1270000J0D01*
G01*
X42025000Y-34890100D02*
G75*
G03X42025000Y-34890100I-750000J0D01*
G01*
X33675000Y-15131100D02*
G75*
G03X32405000Y-16401100I0J-1270000D01*
G01*
X48407000Y-48885100D02*
G75*
G03X48407000Y-49901100I0J-508000D01*
G01*
X48915000Y-48885100D02*
G75*
G03X50185000Y-47615100I0J1270000D01*
G01*
X32405000Y-47615100D02*
G75*
G03X33675000Y-48885100I1270000J0D01*
G01*
X34183000Y-49901100D02*
G75*
G03X34183000Y-48885100I0J508000D01*
G01*
X48407000Y-48885100D02*
X48915000Y-48885100D01*
X48915000Y-66665100D02*
G75*
G03X50185000Y-65395100I0J1270000D01*
G01*
X32405000Y-65395100D02*
G75*
G03X33675000Y-66665100I1270000J0D01*
G01*
X50185000Y-52695100D02*
G75*
G03X48915000Y-51425100I-1270000J0D01*
G01*
X33675000Y-51425100D02*
G75*
G03X32405000Y-52695100I0J-1270000D01*
G01*
X48407000Y-51171100D02*
G75*
G03X48661000Y-51425100I254000J0D01*
G01*
X33929000Y-51425100D02*
G75*
G03X34183000Y-51171100I0J254000D01*
G01*
X48407000Y-49901100D02*
X48407000Y-51171100D01*
X48661000Y-51425100D02*
X48915000Y-51425100D01*
X50185000Y-52695100D02*
X50185000Y-65395100D01*
X32405000Y-52695100D02*
X32405000Y-65395100D01*
X48915000Y-66665100D02*
X33675000Y-66665100D01*
X36596000Y-64125100D02*
X45975000Y-64125100D01*
X36596000Y-52625100D02*
X45975000Y-52625100D01*
X45975000Y-64125100D02*
X45975000Y-52625100D01*
D10*
X317500000Y-52966029D02*
X317500000Y-50312400D01*
X318826371Y-54292400D02*
G75*
G03X318826371Y-54292400I-1326371J0D01*
G01*
X266764000Y-45060429D02*
X266764000Y-42406800D01*
X268090371Y-46386800D02*
G75*
G03X268090371Y-46386800I-1326371J0D01*
G01*
X111125000Y-59316029D02*
X111125000Y-56662400D01*
X112451371Y-60642400D02*
G75*
G03X112451371Y-60642400I-1326371J0D01*
G01*
X107156000Y-59316029D02*
X107156000Y-56662400D01*
X108482371Y-60642400D02*
G75*
G03X108482371Y-60642400I-1326371J0D01*
G01*
X103187000Y-59316029D02*
X103187000Y-56662400D01*
X104513371Y-60642400D02*
G75*
G03X104513371Y-60642400I-1326371J0D01*
G01*
X99218500Y-59316029D02*
X99218500Y-56662400D01*
X100544871Y-60642400D02*
G75*
G03X100544871Y-60642400I-1326371J0D01*
G01*
X95249800Y-59316029D02*
X95249800Y-56662400D01*
X96576171Y-60642400D02*
G75*
G03X96576171Y-60642400I-1326371J0D01*
G01*
X308768000Y-59316029D02*
X308768000Y-56662400D01*
X310094371Y-60642400D02*
G75*
G03X310094371Y-60642400I-1326371J0D01*
G01*
X62006200Y-39293800D02*
X89406200Y-39293800D01*
X89406200Y-39293800D02*
X89406200Y-66593800D01*
X89406200Y-66593800D02*
X62006200Y-66593800D01*
X62006200Y-66593800D02*
X62006200Y-39293800D01*
X85528200Y-59188800D02*
X62428200Y-59188800D01*
X62428200Y-59188800D02*
X62428200Y-42588800D01*
X62428200Y-42588800D02*
X85528200Y-42588800D01*
X70707200Y-39782800D02*
X80486200Y-39782800D01*
X80486200Y-39782800D02*
X80486200Y-42195800D01*
X80486200Y-42195800D02*
X70707200Y-42195800D01*
X70707200Y-39782800D02*
X70707200Y-42195800D01*
X85528200Y-42588800D02*
X88614200Y-42588800D01*
X85528200Y-59188800D02*
X88868200Y-59213800D01*
X88868200Y-59213800D02*
X88868200Y-42576800D01*
X88868200Y-42576800D02*
X88614200Y-42588800D01*
X27325000Y-80352200D02*
G75*
G03X27325000Y-80352200I-3000000J0D01*
G01*
X18425000Y-78352200D02*
X18425000Y-74252200D01*
X30225000Y-74252200D02*
X30225000Y-78352200D01*
X30225000Y-82352200D02*
X30225000Y-86452200D01*
X18425000Y-82352200D02*
X18425000Y-86452200D01*
X18425000Y-86452200D02*
X30225000Y-86452200D01*
X20525000Y-87852200D02*
X20225000Y-88152200D01*
X20225000Y-88152200D02*
X20225000Y-87552200D01*
X20225000Y-87552200D02*
X20525000Y-87852200D01*
X18425000Y-74252200D02*
X20825000Y-74252200D01*
X23025000Y-74252200D02*
X25625000Y-74252200D01*
X27825000Y-74252200D02*
X30225000Y-74252200D01*
X23825000Y-80352200D02*
X24825000Y-80352200D01*
X24325000Y-80852200D02*
X24325000Y-79852200D01*
X282576000Y-59316029D02*
X282576000Y-56662400D01*
X283902371Y-60642400D02*
G75*
G03X283902371Y-60642400I-1326371J0D01*
G01*
X282638000Y-45060429D02*
X282638000Y-42406800D01*
X283964371Y-46386800D02*
G75*
G03X283964371Y-46386800I-1326371J0D01*
G01*
X256382000Y-59316029D02*
X256382000Y-56662400D01*
X257708371Y-60642400D02*
G75*
G03X257708371Y-60642400I-1326371J0D01*
G01*
X256445000Y-45060429D02*
X256445000Y-42406800D01*
X257771371Y-46386800D02*
G75*
G03X257771371Y-46386800I-1326371J0D01*
G01*
X199232000Y-59316029D02*
X199232000Y-56662400D01*
X200558371Y-60642400D02*
G75*
G03X200558371Y-60642400I-1326371J0D01*
G01*
X199294000Y-45060429D02*
X199294000Y-42406800D01*
X200620371Y-46386800D02*
G75*
G03X200620371Y-46386800I-1326371J0D01*
G01*
X142875000Y-59316029D02*
X142875000Y-56662400D01*
X144201371Y-60642400D02*
G75*
G03X144201371Y-60642400I-1326371J0D01*
G01*
X142938000Y-45060429D02*
X142938000Y-42406800D01*
X144264371Y-46386800D02*
G75*
G03X144264371Y-46386800I-1326371J0D01*
G01*
X278606000Y-59316029D02*
X278606000Y-56662400D01*
X279932371Y-60642400D02*
G75*
G03X279932371Y-60642400I-1326371J0D01*
G01*
X304800000Y-59316029D02*
X304800000Y-56662400D01*
X306126371Y-60642400D02*
G75*
G03X306126371Y-60642400I-1326371J0D01*
G01*
X252413000Y-59316029D02*
X252413000Y-56662400D01*
X253739371Y-60642400D02*
G75*
G03X253739371Y-60642400I-1326371J0D01*
G01*
X252477000Y-45060429D02*
X252477000Y-42406800D01*
X253803371Y-46386800D02*
G75*
G03X253803371Y-46386800I-1326371J0D01*
G01*
X195263000Y-59316029D02*
X195263000Y-56662400D01*
X196589371Y-60642400D02*
G75*
G03X196589371Y-60642400I-1326371J0D01*
G01*
X308832000Y-45060429D02*
X308832000Y-42406800D01*
X310158371Y-46386800D02*
G75*
G03X310158371Y-46386800I-1326371J0D01*
G01*
X225424000Y-59316029D02*
X225424000Y-56662400D01*
X226750371Y-60642400D02*
G75*
G03X226750371Y-60642400I-1326371J0D01*
G01*
X225488000Y-45060429D02*
X225488000Y-42406800D01*
X226814371Y-46386800D02*
G75*
G03X226814371Y-46386800I-1326371J0D01*
G01*
X195326000Y-45060429D02*
X195326000Y-42406800D01*
X196652371Y-46386800D02*
G75*
G03X196652371Y-46386800I-1326371J0D01*
G01*
X169068000Y-59316029D02*
X169068000Y-56662400D01*
X170394371Y-60642400D02*
G75*
G03X170394371Y-60642400I-1326371J0D01*
G01*
X169131000Y-45060429D02*
X169131000Y-42406800D01*
X170457371Y-46386800D02*
G75*
G03X170457371Y-46386800I-1326371J0D01*
G01*
X138906000Y-59316029D02*
X138906000Y-56662400D01*
X140232371Y-60642400D02*
G75*
G03X140232371Y-60642400I-1326371J0D01*
G01*
X138970000Y-45060429D02*
X138970000Y-42406800D01*
X140296371Y-46386800D02*
G75*
G03X140296371Y-46386800I-1326371J0D01*
G01*
X111189000Y-45060429D02*
X111189000Y-42406800D01*
X112515371Y-46386800D02*
G75*
G03X112515371Y-46386800I-1326371J0D01*
G01*
X274638000Y-59316029D02*
X274638000Y-56662400D01*
X275964371Y-60642400D02*
G75*
G03X275964371Y-60642400I-1326371J0D01*
G01*
X278669000Y-45060429D02*
X278669000Y-42406800D01*
X279995371Y-46386800D02*
G75*
G03X279995371Y-46386800I-1326371J0D01*
G01*
X248444000Y-59316029D02*
X248444000Y-56662400D01*
X249770371Y-60642400D02*
G75*
G03X249770371Y-60642400I-1326371J0D01*
G01*
X248507000Y-45060429D02*
X248507000Y-42406800D01*
X249833371Y-46386800D02*
G75*
G03X249833371Y-46386800I-1326371J0D01*
G01*
X191294000Y-58998629D02*
X191294000Y-56345000D01*
X192620371Y-60325000D02*
G75*
G03X192620371Y-60325000I-1326371J0D01*
G01*
X304864000Y-45060429D02*
X304864000Y-42406800D01*
X306190371Y-46386800D02*
G75*
G03X306190371Y-46386800I-1326371J0D01*
G01*
X221456000Y-59316029D02*
X221456000Y-56662400D01*
X222782371Y-60642400D02*
G75*
G03X222782371Y-60642400I-1326371J0D01*
G01*
X221520000Y-45060429D02*
X221520000Y-42406800D01*
X222846371Y-46386800D02*
G75*
G03X222846371Y-46386800I-1326371J0D01*
G01*
X191357000Y-45060429D02*
X191357000Y-42406800D01*
X192683371Y-46386800D02*
G75*
G03X192683371Y-46386800I-1326371J0D01*
G01*
X165100000Y-59316029D02*
X165100000Y-56662400D01*
X166426371Y-60642400D02*
G75*
G03X166426371Y-60642400I-1326371J0D01*
G01*
X165163000Y-45060429D02*
X165163000Y-42406800D01*
X166489371Y-46386800D02*
G75*
G03X166489371Y-46386800I-1326371J0D01*
G01*
X134938000Y-59316029D02*
X134938000Y-56662400D01*
X136264371Y-60642400D02*
G75*
G03X136264371Y-60642400I-1326371J0D01*
G01*
X135001000Y-45060429D02*
X135001000Y-42406800D01*
X136327371Y-46386800D02*
G75*
G03X136327371Y-46386800I-1326371J0D01*
G01*
X107220000Y-45047829D02*
X107220000Y-42394200D01*
X108546371Y-46374200D02*
G75*
G03X108546371Y-46374200I-1326371J0D01*
G01*
X270668000Y-59316029D02*
X270668000Y-56662400D01*
X271994371Y-60642400D02*
G75*
G03X271994371Y-60642400I-1326371J0D01*
G01*
X300831000Y-59316029D02*
X300831000Y-56662400D01*
X302157371Y-60642400D02*
G75*
G03X302157371Y-60642400I-1326371J0D01*
G01*
X274701000Y-45060429D02*
X274701000Y-42406800D01*
X276027371Y-46386800D02*
G75*
G03X276027371Y-46386800I-1326371J0D01*
G01*
X244476000Y-59316029D02*
X244476000Y-56662400D01*
X245802371Y-60642400D02*
G75*
G03X245802371Y-60642400I-1326371J0D01*
G01*
X244540000Y-45060429D02*
X244540000Y-42406800D01*
X245866371Y-46386800D02*
G75*
G03X245866371Y-46386800I-1326371J0D01*
G01*
X187325000Y-59316029D02*
X187325000Y-56662400D01*
X188651371Y-60642400D02*
G75*
G03X188651371Y-60642400I-1326371J0D01*
G01*
X300895000Y-45060429D02*
X300895000Y-42406800D01*
X302221371Y-46386800D02*
G75*
G03X302221371Y-46386800I-1326371J0D01*
G01*
X217487000Y-59316029D02*
X217487000Y-56662400D01*
X218813371Y-60642400D02*
G75*
G03X218813371Y-60642400I-1326371J0D01*
G01*
X217551000Y-45060429D02*
X217551000Y-42406800D01*
X218877371Y-46386800D02*
G75*
G03X218877371Y-46386800I-1326371J0D01*
G01*
X187388000Y-45060429D02*
X187388000Y-42406800D01*
X188714371Y-46386800D02*
G75*
G03X188714371Y-46386800I-1326371J0D01*
G01*
X161132000Y-59316029D02*
X161132000Y-56662400D01*
X162458371Y-60642400D02*
G75*
G03X162458371Y-60642400I-1326371J0D01*
G01*
X161196000Y-45060429D02*
X161196000Y-42406800D01*
X162522371Y-46386800D02*
G75*
G03X162522371Y-46386800I-1326371J0D01*
G01*
X130969000Y-59316029D02*
X130969000Y-56662400D01*
X132295371Y-60642400D02*
G75*
G03X132295371Y-60642400I-1326371J0D01*
G01*
X131032000Y-45060429D02*
X131032000Y-42406800D01*
X132358371Y-46386800D02*
G75*
G03X132358371Y-46386800I-1326371J0D01*
G01*
X103251000Y-45060429D02*
X103251000Y-42406800D01*
X104577371Y-46386800D02*
G75*
G03X104577371Y-46386800I-1326371J0D01*
G01*
X266700000Y-59316029D02*
X266700000Y-56662400D01*
X268026371Y-60642400D02*
G75*
G03X268026371Y-60642400I-1326371J0D01*
G01*
X296863000Y-59316029D02*
X296863000Y-56662400D01*
X298189371Y-60642400D02*
G75*
G03X298189371Y-60642400I-1326371J0D01*
G01*
X270731000Y-45060429D02*
X270731000Y-42406800D01*
X272057371Y-46386800D02*
G75*
G03X272057371Y-46386800I-1326371J0D01*
G01*
X240507000Y-59316029D02*
X240507000Y-56662400D01*
X241833371Y-60642400D02*
G75*
G03X241833371Y-60642400I-1326371J0D01*
G01*
X240570000Y-45060429D02*
X240570000Y-42406800D01*
X241896371Y-46386800D02*
G75*
G03X241896371Y-46386800I-1326371J0D01*
G01*
X183356000Y-59316029D02*
X183356000Y-56662400D01*
X184682371Y-60642400D02*
G75*
G03X184682371Y-60642400I-1326371J0D01*
G01*
X296926000Y-45060429D02*
X296926000Y-42406800D01*
X298252371Y-46386800D02*
G75*
G03X298252371Y-46386800I-1326371J0D01*
G01*
X213519000Y-59316029D02*
X213519000Y-56662400D01*
X214845371Y-60642400D02*
G75*
G03X214845371Y-60642400I-1326371J0D01*
G01*
X213582000Y-45060429D02*
X213582000Y-42406800D01*
X214908371Y-46386800D02*
G75*
G03X214908371Y-46386800I-1326371J0D01*
G01*
X183420000Y-45060429D02*
X183420000Y-42406800D01*
X184746371Y-46386800D02*
G75*
G03X184746371Y-46386800I-1326371J0D01*
G01*
X157163000Y-59316029D02*
X157163000Y-56662400D01*
X158489371Y-60642400D02*
G75*
G03X158489371Y-60642400I-1326371J0D01*
G01*
X157226000Y-45060429D02*
X157226000Y-42406800D01*
X158552371Y-46386800D02*
G75*
G03X158552371Y-46386800I-1326371J0D01*
G01*
X127000000Y-59316029D02*
X127000000Y-56662400D01*
X128326371Y-60642400D02*
G75*
G03X128326371Y-60642400I-1326371J0D01*
G01*
X127063000Y-45060429D02*
X127063000Y-42406800D01*
X128389371Y-46386800D02*
G75*
G03X128389371Y-46386800I-1326371J0D01*
G01*
X99282500Y-45060429D02*
X99282500Y-42406800D01*
X100608871Y-46386800D02*
G75*
G03X100608871Y-46386800I-1326371J0D01*
G01*
X292893000Y-59316029D02*
X292893000Y-56662400D01*
X294219371Y-60642400D02*
G75*
G03X294219371Y-60642400I-1326371J0D01*
G01*
X236538000Y-59316029D02*
X236538000Y-56662400D01*
X237864371Y-60642400D02*
G75*
G03X237864371Y-60642400I-1326371J0D01*
G01*
X236602000Y-45060429D02*
X236602000Y-42406800D01*
X237928371Y-46386800D02*
G75*
G03X237928371Y-46386800I-1326371J0D01*
G01*
X179388000Y-59316029D02*
X179388000Y-56662400D01*
X180714371Y-60642400D02*
G75*
G03X180714371Y-60642400I-1326371J0D01*
G01*
X292957000Y-45060429D02*
X292957000Y-42406800D01*
X294283371Y-46386800D02*
G75*
G03X294283371Y-46386800I-1326371J0D01*
G01*
X209549000Y-59316029D02*
X209549000Y-56662400D01*
X210875371Y-60642400D02*
G75*
G03X210875371Y-60642400I-1326371J0D01*
G01*
X209613000Y-45060429D02*
X209613000Y-42406800D01*
X210939371Y-46386800D02*
G75*
G03X210939371Y-46386800I-1326371J0D01*
G01*
X179451000Y-45060429D02*
X179451000Y-42406800D01*
X180777371Y-46386800D02*
G75*
G03X180777371Y-46386800I-1326371J0D01*
G01*
X153194000Y-59316029D02*
X153194000Y-56662400D01*
X154520371Y-60642400D02*
G75*
G03X154520371Y-60642400I-1326371J0D01*
G01*
X153257000Y-45060429D02*
X153257000Y-42406800D01*
X154583371Y-46386800D02*
G75*
G03X154583371Y-46386800I-1326371J0D01*
G01*
X123032000Y-59316029D02*
X123032000Y-56662400D01*
X124358371Y-60642400D02*
G75*
G03X124358371Y-60642400I-1326371J0D01*
G01*
X123094000Y-45060429D02*
X123094000Y-42406800D01*
X124420371Y-46386800D02*
G75*
G03X124420371Y-46386800I-1326371J0D01*
G01*
X95313800Y-45060429D02*
X95313800Y-42406800D01*
X96640171Y-46386800D02*
G75*
G03X96640171Y-46386800I-1326371J0D01*
G01*
D14*
X40523095Y-37767480D02*
X40523095Y-38577004D01*
X40570714Y-38672242D01*
X40618333Y-38719861D01*
X40713571Y-38767480D01*
X40904047Y-38767480D01*
X40999285Y-38719861D01*
X41046904Y-38672242D01*
X41094523Y-38577004D01*
X41094523Y-37767480D01*
X42094523Y-38767480D02*
X41523095Y-38767480D01*
X41808809Y-38767480D02*
X41808809Y-37767480D01*
X41713571Y-37910338D01*
X41618333Y-38005576D01*
X41523095Y-38053195D01*
X37272619Y-16397480D02*
X37272619Y-17207004D01*
X37320238Y-17302242D01*
X37367857Y-17349861D01*
X37463095Y-17397480D01*
X37653571Y-17397480D01*
X37748809Y-17349861D01*
X37796428Y-17302242D01*
X37844047Y-17207004D01*
X37844047Y-16397480D01*
X38272619Y-17349861D02*
X38415476Y-17397480D01*
X38653571Y-17397480D01*
X38748809Y-17349861D01*
X38796428Y-17302242D01*
X38844047Y-17207004D01*
X38844047Y-17111766D01*
X38796428Y-17016528D01*
X38748809Y-16968909D01*
X38653571Y-16921290D01*
X38463095Y-16873671D01*
X38367857Y-16826052D01*
X38320238Y-16778433D01*
X38272619Y-16683195D01*
X38272619Y-16587957D01*
X38320238Y-16492719D01*
X38367857Y-16445100D01*
X38463095Y-16397480D01*
X38701190Y-16397480D01*
X38844047Y-16445100D01*
X39605952Y-16873671D02*
X39748809Y-16921290D01*
X39796428Y-16968909D01*
X39844047Y-17064147D01*
X39844047Y-17207004D01*
X39796428Y-17302242D01*
X39748809Y-17349861D01*
X39653571Y-17397480D01*
X39272619Y-17397480D01*
X39272619Y-16397480D01*
X39605952Y-16397480D01*
X39701190Y-16445100D01*
X39748809Y-16492719D01*
X39796428Y-16587957D01*
X39796428Y-16683195D01*
X39748809Y-16778433D01*
X39701190Y-16826052D01*
X39605952Y-16873671D01*
X39272619Y-16873671D01*
X40891666Y-16730814D02*
X41272619Y-16730814D01*
X41034523Y-17397480D02*
X41034523Y-16540338D01*
X41082142Y-16445100D01*
X41177380Y-16397480D01*
X41272619Y-16397480D01*
X42034523Y-17397480D02*
X42034523Y-16873671D01*
X41986904Y-16778433D01*
X41891666Y-16730814D01*
X41701190Y-16730814D01*
X41605952Y-16778433D01*
X42034523Y-17349861D02*
X41939285Y-17397480D01*
X41701190Y-17397480D01*
X41605952Y-17349861D01*
X41558333Y-17254623D01*
X41558333Y-17159385D01*
X41605952Y-17064147D01*
X41701190Y-17016528D01*
X41939285Y-17016528D01*
X42034523Y-16968909D01*
X42939285Y-17349861D02*
X42844047Y-17397480D01*
X42653571Y-17397480D01*
X42558333Y-17349861D01*
X42510714Y-17302242D01*
X42463095Y-17207004D01*
X42463095Y-16921290D01*
X42510714Y-16826052D01*
X42558333Y-16778433D01*
X42653571Y-16730814D01*
X42844047Y-16730814D01*
X42939285Y-16778433D01*
X43367857Y-17397480D02*
X43367857Y-16730814D01*
X43367857Y-16397480D02*
X43320238Y-16445100D01*
X43367857Y-16492719D01*
X43415476Y-16445100D01*
X43367857Y-16397480D01*
X43367857Y-16492719D01*
X43844047Y-16730814D02*
X43844047Y-17397480D01*
X43844047Y-16826052D02*
X43891666Y-16778433D01*
X43986904Y-16730814D01*
X44129761Y-16730814D01*
X44224999Y-16778433D01*
X44272619Y-16873671D01*
X44272619Y-17397480D01*
X45177380Y-16730814D02*
X45177380Y-17540338D01*
X45129761Y-17635576D01*
X45082142Y-17683195D01*
X44986904Y-17730814D01*
X44844047Y-17730814D01*
X44748809Y-17683195D01*
X45177380Y-17349861D02*
X45082142Y-17397480D01*
X44891666Y-17397480D01*
X44796428Y-17349861D01*
X44748809Y-17302242D01*
X44701190Y-17207004D01*
X44701190Y-16921290D01*
X44748809Y-16826052D01*
X44796428Y-16778433D01*
X44891666Y-16730814D01*
X45082142Y-16730814D01*
X45177380Y-16778433D01*
X38272619Y-19730814D02*
X38653571Y-19730814D01*
X38415476Y-19397480D02*
X38415476Y-20254623D01*
X38463095Y-20349861D01*
X38558333Y-20397480D01*
X38653571Y-20397480D01*
X38986904Y-20397480D02*
X38986904Y-19397480D01*
X39415476Y-20397480D02*
X39415476Y-19873671D01*
X39367857Y-19778433D01*
X39272619Y-19730814D01*
X39129761Y-19730814D01*
X39034523Y-19778433D01*
X38986904Y-19826052D01*
X40272619Y-20349861D02*
X40177380Y-20397480D01*
X39986904Y-20397480D01*
X39891666Y-20349861D01*
X39844047Y-20254623D01*
X39844047Y-19873671D01*
X39891666Y-19778433D01*
X39986904Y-19730814D01*
X40177380Y-19730814D01*
X40272619Y-19778433D01*
X40320238Y-19873671D01*
X40320238Y-19968909D01*
X39844047Y-20064147D01*
X41510714Y-20397480D02*
X41510714Y-19397480D01*
X41891666Y-19397480D01*
X41986904Y-19445100D01*
X42034523Y-19492719D01*
X42082142Y-19587957D01*
X42082142Y-19730814D01*
X42034523Y-19826052D01*
X41986904Y-19873671D01*
X41891666Y-19921290D01*
X41510714Y-19921290D01*
X43082142Y-20302242D02*
X43034523Y-20349861D01*
X42891666Y-20397480D01*
X42796428Y-20397480D01*
X42653571Y-20349861D01*
X42558333Y-20254623D01*
X42510714Y-20159385D01*
X42463095Y-19968909D01*
X42463095Y-19826052D01*
X42510714Y-19635576D01*
X42558333Y-19540338D01*
X42653571Y-19445100D01*
X42796428Y-19397480D01*
X42891666Y-19397480D01*
X43034523Y-19445100D01*
X43082142Y-19492719D01*
X43844047Y-19873671D02*
X43986904Y-19921290D01*
X44034523Y-19968909D01*
X44082142Y-20064147D01*
X44082142Y-20207004D01*
X44034523Y-20302242D01*
X43986904Y-20349861D01*
X43891666Y-20397480D01*
X43510714Y-20397480D01*
X43510714Y-19397480D01*
X43844047Y-19397480D01*
X43939285Y-19445100D01*
X43986904Y-19492719D01*
X44034523Y-19587957D01*
X44034523Y-19683195D01*
X43986904Y-19778433D01*
X43939285Y-19826052D01*
X43844047Y-19873671D01*
X43510714Y-19873671D01*
X37986904Y-18897480D02*
X37986904Y-18373671D01*
X37939285Y-18278433D01*
X37844047Y-18230814D01*
X37653571Y-18230814D01*
X37558333Y-18278433D01*
X37986904Y-18849861D02*
X37891666Y-18897480D01*
X37653571Y-18897480D01*
X37558333Y-18849861D01*
X37510714Y-18754623D01*
X37510714Y-18659385D01*
X37558333Y-18564147D01*
X37653571Y-18516528D01*
X37891666Y-18516528D01*
X37986904Y-18468909D01*
X38367857Y-18230814D02*
X38558333Y-18897480D01*
X38748809Y-18421290D01*
X38939285Y-18897480D01*
X39129761Y-18230814D01*
X39939285Y-18897480D02*
X39939285Y-18373671D01*
X39891666Y-18278433D01*
X39796428Y-18230814D01*
X39605952Y-18230814D01*
X39510714Y-18278433D01*
X39939285Y-18849861D02*
X39844047Y-18897480D01*
X39605952Y-18897480D01*
X39510714Y-18849861D01*
X39463095Y-18754623D01*
X39463095Y-18659385D01*
X39510714Y-18564147D01*
X39605952Y-18516528D01*
X39844047Y-18516528D01*
X39939285Y-18468909D01*
X40320238Y-18230814D02*
X40558333Y-18897480D01*
X40796428Y-18230814D02*
X40558333Y-18897480D01*
X40463095Y-19135576D01*
X40415476Y-19183195D01*
X40320238Y-19230814D01*
X41796428Y-18230814D02*
X42177380Y-18230814D01*
X41939285Y-18897480D02*
X41939285Y-18040338D01*
X41986904Y-17945100D01*
X42082142Y-17897480D01*
X42177380Y-17897480D01*
X42510714Y-18897480D02*
X42510714Y-18230814D01*
X42510714Y-18421290D02*
X42558333Y-18326052D01*
X42605952Y-18278433D01*
X42701190Y-18230814D01*
X42796428Y-18230814D01*
X43272619Y-18897480D02*
X43177380Y-18849861D01*
X43129761Y-18802242D01*
X43082142Y-18707004D01*
X43082142Y-18421290D01*
X43129761Y-18326052D01*
X43177380Y-18278433D01*
X43272619Y-18230814D01*
X43415476Y-18230814D01*
X43510714Y-18278433D01*
X43558333Y-18326052D01*
X43605952Y-18421290D01*
X43605952Y-18707004D01*
X43558333Y-18802242D01*
X43510714Y-18849861D01*
X43415476Y-18897480D01*
X43272619Y-18897480D01*
X44034523Y-18897480D02*
X44034523Y-18230814D01*
X44034523Y-18326052D02*
X44082142Y-18278433D01*
X44177380Y-18230814D01*
X44320238Y-18230814D01*
X44415476Y-18278433D01*
X44463095Y-18373671D01*
X44463095Y-18897480D01*
X44463095Y-18373671D02*
X44510714Y-18278433D01*
X44605952Y-18230814D01*
X44748809Y-18230814D01*
X44844047Y-18278433D01*
X44891666Y-18373671D01*
X44891666Y-18897480D01*
X23197028Y-29335371D02*
X23339885Y-29382990D01*
X23387504Y-29430609D01*
X23435123Y-29525847D01*
X23435123Y-29668704D01*
X23387504Y-29763942D01*
X23339885Y-29811561D01*
X23244647Y-29859180D01*
X22863695Y-29859180D01*
X22863695Y-28859180D01*
X23197028Y-28859180D01*
X23292266Y-28906800D01*
X23339885Y-28954419D01*
X23387504Y-29049657D01*
X23387504Y-29144895D01*
X23339885Y-29240133D01*
X23292266Y-29287752D01*
X23197028Y-29335371D01*
X22863695Y-29335371D01*
X24149409Y-28859180D02*
X24149409Y-29573466D01*
X24101790Y-29716323D01*
X24006552Y-29811561D01*
X23863695Y-29859180D01*
X23768457Y-29859180D01*
X24387504Y-29954419D02*
X25149409Y-29954419D01*
X25863695Y-29859180D02*
X25387504Y-29859180D01*
X25387504Y-28859180D01*
X26197028Y-29335371D02*
X26530361Y-29335371D01*
X26673219Y-29859180D02*
X26197028Y-29859180D01*
X26197028Y-28859180D01*
X26673219Y-28859180D01*
X27101790Y-29859180D02*
X27101790Y-28859180D01*
X27339885Y-28859180D01*
X27482742Y-28906800D01*
X27577980Y-29002038D01*
X27625600Y-29097276D01*
X27673219Y-29287752D01*
X27673219Y-29430609D01*
X27625600Y-29621085D01*
X27577980Y-29716323D01*
X27482742Y-29811561D01*
X27339885Y-29859180D01*
X27101790Y-29859180D01*
X28577980Y-28859180D02*
X28101790Y-28859180D01*
X28054171Y-29335371D01*
X28101790Y-29287752D01*
X28197028Y-29240133D01*
X28435123Y-29240133D01*
X28530361Y-29287752D01*
X28577980Y-29335371D01*
X28625600Y-29430609D01*
X28625600Y-29668704D01*
X28577980Y-29763942D01*
X28530361Y-29811561D01*
X28435123Y-29859180D01*
X28197028Y-29859180D01*
X28101790Y-29811561D01*
X28054171Y-29763942D01*
X28911314Y-28859180D02*
X29244647Y-29859180D01*
X29577980Y-28859180D01*
X30435123Y-29859180D02*
X29863695Y-29859180D01*
X30149409Y-29859180D02*
X30149409Y-28859180D01*
X30054171Y-29002038D01*
X29958933Y-29097276D01*
X29863695Y-29144895D01*
X320278751Y-52490495D02*
X319278751Y-52490495D01*
X319278751Y-52252400D01*
X319326371Y-52109542D01*
X319421609Y-52014304D01*
X319516847Y-51966685D01*
X319707323Y-51919066D01*
X319850180Y-51919066D01*
X320040656Y-51966685D01*
X320135894Y-52014304D01*
X320231132Y-52109542D01*
X320278751Y-52252400D01*
X320278751Y-52490495D01*
X320278751Y-50966685D02*
X320278751Y-51538114D01*
X320278751Y-51252400D02*
X319278751Y-51252400D01*
X319421609Y-51347638D01*
X319516847Y-51442876D01*
X319564466Y-51538114D01*
X317152380Y-50974304D02*
X316152380Y-50974304D01*
X317152380Y-50402876D02*
X316580952Y-50831447D01*
X316152380Y-50402876D02*
X316723809Y-50974304D01*
X269542751Y-45061085D02*
X268542751Y-45061085D01*
X268542751Y-44822990D01*
X268590371Y-44680133D01*
X268685609Y-44584895D01*
X268780847Y-44537276D01*
X268971323Y-44489657D01*
X269114180Y-44489657D01*
X269304656Y-44537276D01*
X269399894Y-44584895D01*
X269495132Y-44680133D01*
X269542751Y-44822990D01*
X269542751Y-45061085D01*
X269542751Y-43537276D02*
X269542751Y-44108704D01*
X269542751Y-43822990D02*
X268542751Y-43822990D01*
X268685609Y-43918228D01*
X268780847Y-44013466D01*
X268828466Y-44108704D01*
X268876085Y-42680133D02*
X269542751Y-42680133D01*
X268495132Y-42918228D02*
X269209418Y-43156323D01*
X269209418Y-42537276D01*
X266416380Y-43068704D02*
X265416380Y-43068704D01*
X266416380Y-42497276D02*
X265844952Y-42925847D01*
X265416380Y-42497276D02*
X265987809Y-43068704D01*
X113903751Y-59316685D02*
X112903751Y-59316685D01*
X112903751Y-59078590D01*
X112951371Y-58935733D01*
X113046609Y-58840495D01*
X113141847Y-58792876D01*
X113332323Y-58745257D01*
X113475180Y-58745257D01*
X113665656Y-58792876D01*
X113760894Y-58840495D01*
X113856132Y-58935733D01*
X113903751Y-59078590D01*
X113903751Y-59316685D01*
X112903751Y-58411923D02*
X112903751Y-57745257D01*
X113903751Y-58173828D01*
X113332323Y-57221447D02*
X113284704Y-57316685D01*
X113237085Y-57364304D01*
X113141847Y-57411923D01*
X113094228Y-57411923D01*
X112998990Y-57364304D01*
X112951371Y-57316685D01*
X112903751Y-57221447D01*
X112903751Y-57030971D01*
X112951371Y-56935733D01*
X112998990Y-56888114D01*
X113094228Y-56840495D01*
X113141847Y-56840495D01*
X113237085Y-56888114D01*
X113284704Y-56935733D01*
X113332323Y-57030971D01*
X113332323Y-57221447D01*
X113379942Y-57316685D01*
X113427561Y-57364304D01*
X113522799Y-57411923D01*
X113713275Y-57411923D01*
X113808513Y-57364304D01*
X113856132Y-57316685D01*
X113903751Y-57221447D01*
X113903751Y-57030971D01*
X113856132Y-56935733D01*
X113808513Y-56888114D01*
X113713275Y-56840495D01*
X113522799Y-56840495D01*
X113427561Y-56888114D01*
X113379942Y-56935733D01*
X113332323Y-57030971D01*
X110777380Y-57324304D02*
X109777380Y-57324304D01*
X110777380Y-56752876D02*
X110205952Y-57181447D01*
X109777380Y-56752876D02*
X110348809Y-57324304D01*
X109934751Y-59316685D02*
X108934751Y-59316685D01*
X108934751Y-59078590D01*
X108982371Y-58935733D01*
X109077609Y-58840495D01*
X109172847Y-58792876D01*
X109363323Y-58745257D01*
X109506180Y-58745257D01*
X109696656Y-58792876D01*
X109791894Y-58840495D01*
X109887132Y-58935733D01*
X109934751Y-59078590D01*
X109934751Y-59316685D01*
X108934751Y-57888114D02*
X108934751Y-58078590D01*
X108982371Y-58173828D01*
X109029990Y-58221447D01*
X109172847Y-58316685D01*
X109363323Y-58364304D01*
X109744275Y-58364304D01*
X109839513Y-58316685D01*
X109887132Y-58269066D01*
X109934751Y-58173828D01*
X109934751Y-57983352D01*
X109887132Y-57888114D01*
X109839513Y-57840495D01*
X109744275Y-57792876D01*
X109506180Y-57792876D01*
X109410942Y-57840495D01*
X109363323Y-57888114D01*
X109315704Y-57983352D01*
X109315704Y-58173828D01*
X109363323Y-58269066D01*
X109410942Y-58316685D01*
X109506180Y-58364304D01*
X108934751Y-57459542D02*
X108934751Y-56840495D01*
X109315704Y-57173828D01*
X109315704Y-57030971D01*
X109363323Y-56935733D01*
X109410942Y-56888114D01*
X109506180Y-56840495D01*
X109744275Y-56840495D01*
X109839513Y-56888114D01*
X109887132Y-56935733D01*
X109934751Y-57030971D01*
X109934751Y-57316685D01*
X109887132Y-57411923D01*
X109839513Y-57459542D01*
X106808380Y-57324304D02*
X105808380Y-57324304D01*
X106808380Y-56752876D02*
X106236952Y-57181447D01*
X105808380Y-56752876D02*
X106379809Y-57324304D01*
X105965751Y-59316685D02*
X104965751Y-59316685D01*
X104965751Y-59078590D01*
X105013371Y-58935733D01*
X105108609Y-58840495D01*
X105203847Y-58792876D01*
X105394323Y-58745257D01*
X105537180Y-58745257D01*
X105727656Y-58792876D01*
X105822894Y-58840495D01*
X105918132Y-58935733D01*
X105965751Y-59078590D01*
X105965751Y-59316685D01*
X105299085Y-57888114D02*
X105965751Y-57888114D01*
X104918132Y-58126209D02*
X105632418Y-58364304D01*
X105632418Y-57745257D01*
X105394323Y-57221447D02*
X105346704Y-57316685D01*
X105299085Y-57364304D01*
X105203847Y-57411923D01*
X105156228Y-57411923D01*
X105060990Y-57364304D01*
X105013371Y-57316685D01*
X104965751Y-57221447D01*
X104965751Y-57030971D01*
X105013371Y-56935733D01*
X105060990Y-56888114D01*
X105156228Y-56840495D01*
X105203847Y-56840495D01*
X105299085Y-56888114D01*
X105346704Y-56935733D01*
X105394323Y-57030971D01*
X105394323Y-57221447D01*
X105441942Y-57316685D01*
X105489561Y-57364304D01*
X105584799Y-57411923D01*
X105775275Y-57411923D01*
X105870513Y-57364304D01*
X105918132Y-57316685D01*
X105965751Y-57221447D01*
X105965751Y-57030971D01*
X105918132Y-56935733D01*
X105870513Y-56888114D01*
X105775275Y-56840495D01*
X105584799Y-56840495D01*
X105489561Y-56888114D01*
X105441942Y-56935733D01*
X105394323Y-57030971D01*
X102839380Y-57324304D02*
X101839380Y-57324304D01*
X102839380Y-56752876D02*
X102267952Y-57181447D01*
X101839380Y-56752876D02*
X102410809Y-57324304D01*
X101997251Y-59316685D02*
X100997251Y-59316685D01*
X100997251Y-59078590D01*
X101044871Y-58935733D01*
X101140109Y-58840495D01*
X101235347Y-58792876D01*
X101425823Y-58745257D01*
X101568680Y-58745257D01*
X101759156Y-58792876D01*
X101854394Y-58840495D01*
X101949632Y-58935733D01*
X101997251Y-59078590D01*
X101997251Y-59316685D01*
X100997251Y-58411923D02*
X100997251Y-57792876D01*
X101378204Y-58126209D01*
X101378204Y-57983352D01*
X101425823Y-57888114D01*
X101473442Y-57840495D01*
X101568680Y-57792876D01*
X101806775Y-57792876D01*
X101902013Y-57840495D01*
X101949632Y-57888114D01*
X101997251Y-57983352D01*
X101997251Y-58269066D01*
X101949632Y-58364304D01*
X101902013Y-58411923D01*
X101092490Y-57411923D02*
X101044871Y-57364304D01*
X100997251Y-57269066D01*
X100997251Y-57030971D01*
X101044871Y-56935733D01*
X101092490Y-56888114D01*
X101187728Y-56840495D01*
X101282966Y-56840495D01*
X101425823Y-56888114D01*
X101997251Y-57459542D01*
X101997251Y-56840495D01*
X98870880Y-57324304D02*
X97870880Y-57324304D01*
X98870880Y-56752876D02*
X98299452Y-57181447D01*
X97870880Y-56752876D02*
X98442309Y-57324304D01*
X98028551Y-59316685D02*
X97028551Y-59316685D01*
X97028551Y-59078590D01*
X97076171Y-58935733D01*
X97171409Y-58840495D01*
X97266647Y-58792876D01*
X97457123Y-58745257D01*
X97599980Y-58745257D01*
X97790456Y-58792876D01*
X97885694Y-58840495D01*
X97980932Y-58935733D01*
X98028551Y-59078590D01*
X98028551Y-59316685D01*
X98028551Y-57792876D02*
X98028551Y-58364304D01*
X98028551Y-58078590D02*
X97028551Y-58078590D01*
X97171409Y-58173828D01*
X97266647Y-58269066D01*
X97314266Y-58364304D01*
X97028551Y-56935733D02*
X97028551Y-57126209D01*
X97076171Y-57221447D01*
X97123790Y-57269066D01*
X97266647Y-57364304D01*
X97457123Y-57411923D01*
X97838075Y-57411923D01*
X97933313Y-57364304D01*
X97980932Y-57316685D01*
X98028551Y-57221447D01*
X98028551Y-57030971D01*
X97980932Y-56935733D01*
X97933313Y-56888114D01*
X97838075Y-56840495D01*
X97599980Y-56840495D01*
X97504742Y-56888114D01*
X97457123Y-56935733D01*
X97409504Y-57030971D01*
X97409504Y-57221447D01*
X97457123Y-57316685D01*
X97504742Y-57364304D01*
X97599980Y-57411923D01*
X94902180Y-57324304D02*
X93902180Y-57324304D01*
X94902180Y-56752876D02*
X94330752Y-57181447D01*
X93902180Y-56752876D02*
X94473609Y-57324304D01*
X311546751Y-59316685D02*
X310546751Y-59316685D01*
X310546751Y-59078590D01*
X310594371Y-58935733D01*
X310689609Y-58840495D01*
X310784847Y-58792876D01*
X310975323Y-58745257D01*
X311118180Y-58745257D01*
X311308656Y-58792876D01*
X311403894Y-58840495D01*
X311499132Y-58935733D01*
X311546751Y-59078590D01*
X311546751Y-59316685D01*
X310546751Y-58411923D02*
X310546751Y-57745257D01*
X311546751Y-58173828D01*
X311546751Y-57316685D02*
X311546751Y-57126209D01*
X311499132Y-57030971D01*
X311451513Y-56983352D01*
X311308656Y-56888114D01*
X311118180Y-56840495D01*
X310737228Y-56840495D01*
X310641990Y-56888114D01*
X310594371Y-56935733D01*
X310546751Y-57030971D01*
X310546751Y-57221447D01*
X310594371Y-57316685D01*
X310641990Y-57364304D01*
X310737228Y-57411923D01*
X310975323Y-57411923D01*
X311070561Y-57364304D01*
X311118180Y-57316685D01*
X311165799Y-57221447D01*
X311165799Y-57030971D01*
X311118180Y-56935733D01*
X311070561Y-56888114D01*
X310975323Y-56840495D01*
X308420380Y-57324304D02*
X307420380Y-57324304D01*
X308420380Y-56752876D02*
X307848952Y-57181447D01*
X307420380Y-56752876D02*
X307991809Y-57324304D01*
X73477628Y-51300180D02*
X73668104Y-51300180D01*
X73763342Y-51347800D01*
X73858580Y-51443038D01*
X73906200Y-51633514D01*
X73906200Y-51966847D01*
X73858580Y-52157323D01*
X73763342Y-52252561D01*
X73668104Y-52300180D01*
X73477628Y-52300180D01*
X73382390Y-52252561D01*
X73287152Y-52157323D01*
X73239533Y-51966847D01*
X73239533Y-51633514D01*
X73287152Y-51443038D01*
X73382390Y-51347800D01*
X73477628Y-51300180D01*
X74810961Y-52300180D02*
X74334771Y-52300180D01*
X74334771Y-51300180D01*
X75144295Y-51776371D02*
X75477628Y-51776371D01*
X75620485Y-52300180D02*
X75144295Y-52300180D01*
X75144295Y-51300180D01*
X75620485Y-51300180D01*
X76049057Y-52300180D02*
X76049057Y-51300180D01*
X76287152Y-51300180D01*
X76430009Y-51347800D01*
X76525247Y-51443038D01*
X76572866Y-51538276D01*
X76620485Y-51728752D01*
X76620485Y-51871609D01*
X76572866Y-52062085D01*
X76525247Y-52157323D01*
X76430009Y-52252561D01*
X76287152Y-52300180D01*
X76049057Y-52300180D01*
X77572866Y-52300180D02*
X77001438Y-52300180D01*
X77287152Y-52300180D02*
X77287152Y-51300180D01*
X77191914Y-51443038D01*
X77096676Y-51538276D01*
X77001438Y-51585895D01*
X17053571Y-86766485D02*
X17053571Y-86433152D01*
X17577380Y-86290295D02*
X17577380Y-86766485D01*
X16577380Y-86766485D01*
X16577380Y-86290295D01*
X17577380Y-85861723D02*
X16577380Y-85861723D01*
X17577380Y-85290295D01*
X16577380Y-85290295D01*
X17482142Y-84242676D02*
X17529761Y-84290295D01*
X17577380Y-84433152D01*
X17577380Y-84528390D01*
X17529761Y-84671247D01*
X17434523Y-84766485D01*
X17339285Y-84814104D01*
X17148809Y-84861723D01*
X17005952Y-84861723D01*
X16815476Y-84814104D01*
X16720238Y-84766485D01*
X16625000Y-84671247D01*
X16577380Y-84528390D01*
X16577380Y-84433152D01*
X16625000Y-84290295D01*
X16672619Y-84242676D01*
X17577380Y-83290295D02*
X17577380Y-83861723D01*
X17577380Y-83576009D02*
X16577380Y-83576009D01*
X16720238Y-83671247D01*
X16815476Y-83766485D01*
X16863095Y-83861723D01*
X285354751Y-59316685D02*
X284354751Y-59316685D01*
X284354751Y-59078590D01*
X284402371Y-58935733D01*
X284497609Y-58840495D01*
X284592847Y-58792876D01*
X284783323Y-58745257D01*
X284926180Y-58745257D01*
X285116656Y-58792876D01*
X285211894Y-58840495D01*
X285307132Y-58935733D01*
X285354751Y-59078590D01*
X285354751Y-59316685D01*
X284783323Y-58173828D02*
X284735704Y-58269066D01*
X284688085Y-58316685D01*
X284592847Y-58364304D01*
X284545228Y-58364304D01*
X284449990Y-58316685D01*
X284402371Y-58269066D01*
X284354751Y-58173828D01*
X284354751Y-57983352D01*
X284402371Y-57888114D01*
X284449990Y-57840495D01*
X284545228Y-57792876D01*
X284592847Y-57792876D01*
X284688085Y-57840495D01*
X284735704Y-57888114D01*
X284783323Y-57983352D01*
X284783323Y-58173828D01*
X284830942Y-58269066D01*
X284878561Y-58316685D01*
X284973799Y-58364304D01*
X285164275Y-58364304D01*
X285259513Y-58316685D01*
X285307132Y-58269066D01*
X285354751Y-58173828D01*
X285354751Y-57983352D01*
X285307132Y-57888114D01*
X285259513Y-57840495D01*
X285164275Y-57792876D01*
X284973799Y-57792876D01*
X284878561Y-57840495D01*
X284830942Y-57888114D01*
X284783323Y-57983352D01*
X284354751Y-57459542D02*
X284354751Y-56792876D01*
X285354751Y-57221447D01*
X282228380Y-57324304D02*
X281228380Y-57324304D01*
X282228380Y-56752876D02*
X281656952Y-57181447D01*
X281228380Y-56752876D02*
X281799809Y-57324304D01*
X285416751Y-45061085D02*
X284416751Y-45061085D01*
X284416751Y-44822990D01*
X284464371Y-44680133D01*
X284559609Y-44584895D01*
X284654847Y-44537276D01*
X284845323Y-44489657D01*
X284988180Y-44489657D01*
X285178656Y-44537276D01*
X285273894Y-44584895D01*
X285369132Y-44680133D01*
X285416751Y-44822990D01*
X285416751Y-45061085D01*
X284845323Y-43918228D02*
X284797704Y-44013466D01*
X284750085Y-44061085D01*
X284654847Y-44108704D01*
X284607228Y-44108704D01*
X284511990Y-44061085D01*
X284464371Y-44013466D01*
X284416751Y-43918228D01*
X284416751Y-43727752D01*
X284464371Y-43632514D01*
X284511990Y-43584895D01*
X284607228Y-43537276D01*
X284654847Y-43537276D01*
X284750085Y-43584895D01*
X284797704Y-43632514D01*
X284845323Y-43727752D01*
X284845323Y-43918228D01*
X284892942Y-44013466D01*
X284940561Y-44061085D01*
X285035799Y-44108704D01*
X285226275Y-44108704D01*
X285321513Y-44061085D01*
X285369132Y-44013466D01*
X285416751Y-43918228D01*
X285416751Y-43727752D01*
X285369132Y-43632514D01*
X285321513Y-43584895D01*
X285226275Y-43537276D01*
X285035799Y-43537276D01*
X284940561Y-43584895D01*
X284892942Y-43632514D01*
X284845323Y-43727752D01*
X284416751Y-42680133D02*
X284416751Y-42870609D01*
X284464371Y-42965847D01*
X284511990Y-43013466D01*
X284654847Y-43108704D01*
X284845323Y-43156323D01*
X285226275Y-43156323D01*
X285321513Y-43108704D01*
X285369132Y-43061085D01*
X285416751Y-42965847D01*
X285416751Y-42775371D01*
X285369132Y-42680133D01*
X285321513Y-42632514D01*
X285226275Y-42584895D01*
X284988180Y-42584895D01*
X284892942Y-42632514D01*
X284845323Y-42680133D01*
X284797704Y-42775371D01*
X284797704Y-42965847D01*
X284845323Y-43061085D01*
X284892942Y-43108704D01*
X284988180Y-43156323D01*
X282290380Y-43068704D02*
X281290380Y-43068704D01*
X282290380Y-42497276D02*
X281718952Y-42925847D01*
X281290380Y-42497276D02*
X281861809Y-43068704D01*
X259160751Y-59316685D02*
X258160751Y-59316685D01*
X258160751Y-59078590D01*
X258208371Y-58935733D01*
X258303609Y-58840495D01*
X258398847Y-58792876D01*
X258589323Y-58745257D01*
X258732180Y-58745257D01*
X258922656Y-58792876D01*
X259017894Y-58840495D01*
X259113132Y-58935733D01*
X259160751Y-59078590D01*
X259160751Y-59316685D01*
X258589323Y-58173828D02*
X258541704Y-58269066D01*
X258494085Y-58316685D01*
X258398847Y-58364304D01*
X258351228Y-58364304D01*
X258255990Y-58316685D01*
X258208371Y-58269066D01*
X258160751Y-58173828D01*
X258160751Y-57983352D01*
X258208371Y-57888114D01*
X258255990Y-57840495D01*
X258351228Y-57792876D01*
X258398847Y-57792876D01*
X258494085Y-57840495D01*
X258541704Y-57888114D01*
X258589323Y-57983352D01*
X258589323Y-58173828D01*
X258636942Y-58269066D01*
X258684561Y-58316685D01*
X258779799Y-58364304D01*
X258970275Y-58364304D01*
X259065513Y-58316685D01*
X259113132Y-58269066D01*
X259160751Y-58173828D01*
X259160751Y-57983352D01*
X259113132Y-57888114D01*
X259065513Y-57840495D01*
X258970275Y-57792876D01*
X258779799Y-57792876D01*
X258684561Y-57840495D01*
X258636942Y-57888114D01*
X258589323Y-57983352D01*
X258160751Y-56888114D02*
X258160751Y-57364304D01*
X258636942Y-57411923D01*
X258589323Y-57364304D01*
X258541704Y-57269066D01*
X258541704Y-57030971D01*
X258589323Y-56935733D01*
X258636942Y-56888114D01*
X258732180Y-56840495D01*
X258970275Y-56840495D01*
X259065513Y-56888114D01*
X259113132Y-56935733D01*
X259160751Y-57030971D01*
X259160751Y-57269066D01*
X259113132Y-57364304D01*
X259065513Y-57411923D01*
X256034380Y-57324304D02*
X255034380Y-57324304D01*
X256034380Y-56752876D02*
X255462952Y-57181447D01*
X255034380Y-56752876D02*
X255605809Y-57324304D01*
X259223751Y-45061085D02*
X258223751Y-45061085D01*
X258223751Y-44822990D01*
X258271371Y-44680133D01*
X258366609Y-44584895D01*
X258461847Y-44537276D01*
X258652323Y-44489657D01*
X258795180Y-44489657D01*
X258985656Y-44537276D01*
X259080894Y-44584895D01*
X259176132Y-44680133D01*
X259223751Y-44822990D01*
X259223751Y-45061085D01*
X258652323Y-43918228D02*
X258604704Y-44013466D01*
X258557085Y-44061085D01*
X258461847Y-44108704D01*
X258414228Y-44108704D01*
X258318990Y-44061085D01*
X258271371Y-44013466D01*
X258223751Y-43918228D01*
X258223751Y-43727752D01*
X258271371Y-43632514D01*
X258318990Y-43584895D01*
X258414228Y-43537276D01*
X258461847Y-43537276D01*
X258557085Y-43584895D01*
X258604704Y-43632514D01*
X258652323Y-43727752D01*
X258652323Y-43918228D01*
X258699942Y-44013466D01*
X258747561Y-44061085D01*
X258842799Y-44108704D01*
X259033275Y-44108704D01*
X259128513Y-44061085D01*
X259176132Y-44013466D01*
X259223751Y-43918228D01*
X259223751Y-43727752D01*
X259176132Y-43632514D01*
X259128513Y-43584895D01*
X259033275Y-43537276D01*
X258842799Y-43537276D01*
X258747561Y-43584895D01*
X258699942Y-43632514D01*
X258652323Y-43727752D01*
X258557085Y-42680133D02*
X259223751Y-42680133D01*
X258176132Y-42918228D02*
X258890418Y-43156323D01*
X258890418Y-42537276D01*
X256097380Y-43068704D02*
X255097380Y-43068704D01*
X256097380Y-42497276D02*
X255525952Y-42925847D01*
X255097380Y-42497276D02*
X255668809Y-43068704D01*
X202010751Y-59316685D02*
X201010751Y-59316685D01*
X201010751Y-59078590D01*
X201058371Y-58935733D01*
X201153609Y-58840495D01*
X201248847Y-58792876D01*
X201439323Y-58745257D01*
X201582180Y-58745257D01*
X201772656Y-58792876D01*
X201867894Y-58840495D01*
X201963132Y-58935733D01*
X202010751Y-59078590D01*
X202010751Y-59316685D01*
X201439323Y-58173828D02*
X201391704Y-58269066D01*
X201344085Y-58316685D01*
X201248847Y-58364304D01*
X201201228Y-58364304D01*
X201105990Y-58316685D01*
X201058371Y-58269066D01*
X201010751Y-58173828D01*
X201010751Y-57983352D01*
X201058371Y-57888114D01*
X201105990Y-57840495D01*
X201201228Y-57792876D01*
X201248847Y-57792876D01*
X201344085Y-57840495D01*
X201391704Y-57888114D01*
X201439323Y-57983352D01*
X201439323Y-58173828D01*
X201486942Y-58269066D01*
X201534561Y-58316685D01*
X201629799Y-58364304D01*
X201820275Y-58364304D01*
X201915513Y-58316685D01*
X201963132Y-58269066D01*
X202010751Y-58173828D01*
X202010751Y-57983352D01*
X201963132Y-57888114D01*
X201915513Y-57840495D01*
X201820275Y-57792876D01*
X201629799Y-57792876D01*
X201534561Y-57840495D01*
X201486942Y-57888114D01*
X201439323Y-57983352D01*
X201010751Y-57459542D02*
X201010751Y-56840495D01*
X201391704Y-57173828D01*
X201391704Y-57030971D01*
X201439323Y-56935733D01*
X201486942Y-56888114D01*
X201582180Y-56840495D01*
X201820275Y-56840495D01*
X201915513Y-56888114D01*
X201963132Y-56935733D01*
X202010751Y-57030971D01*
X202010751Y-57316685D01*
X201963132Y-57411923D01*
X201915513Y-57459542D01*
X198884380Y-57324304D02*
X197884380Y-57324304D01*
X198884380Y-56752876D02*
X198312952Y-57181447D01*
X197884380Y-56752876D02*
X198455809Y-57324304D01*
X202072751Y-45061085D02*
X201072751Y-45061085D01*
X201072751Y-44822990D01*
X201120371Y-44680133D01*
X201215609Y-44584895D01*
X201310847Y-44537276D01*
X201501323Y-44489657D01*
X201644180Y-44489657D01*
X201834656Y-44537276D01*
X201929894Y-44584895D01*
X202025132Y-44680133D01*
X202072751Y-44822990D01*
X202072751Y-45061085D01*
X201501323Y-43918228D02*
X201453704Y-44013466D01*
X201406085Y-44061085D01*
X201310847Y-44108704D01*
X201263228Y-44108704D01*
X201167990Y-44061085D01*
X201120371Y-44013466D01*
X201072751Y-43918228D01*
X201072751Y-43727752D01*
X201120371Y-43632514D01*
X201167990Y-43584895D01*
X201263228Y-43537276D01*
X201310847Y-43537276D01*
X201406085Y-43584895D01*
X201453704Y-43632514D01*
X201501323Y-43727752D01*
X201501323Y-43918228D01*
X201548942Y-44013466D01*
X201596561Y-44061085D01*
X201691799Y-44108704D01*
X201882275Y-44108704D01*
X201977513Y-44061085D01*
X202025132Y-44013466D01*
X202072751Y-43918228D01*
X202072751Y-43727752D01*
X202025132Y-43632514D01*
X201977513Y-43584895D01*
X201882275Y-43537276D01*
X201691799Y-43537276D01*
X201596561Y-43584895D01*
X201548942Y-43632514D01*
X201501323Y-43727752D01*
X201167990Y-43156323D02*
X201120371Y-43108704D01*
X201072751Y-43013466D01*
X201072751Y-42775371D01*
X201120371Y-42680133D01*
X201167990Y-42632514D01*
X201263228Y-42584895D01*
X201358466Y-42584895D01*
X201501323Y-42632514D01*
X202072751Y-43203942D01*
X202072751Y-42584895D01*
X198946380Y-43068704D02*
X197946380Y-43068704D01*
X198946380Y-42497276D02*
X198374952Y-42925847D01*
X197946380Y-42497276D02*
X198517809Y-43068704D01*
X145653751Y-59316685D02*
X144653751Y-59316685D01*
X144653751Y-59078590D01*
X144701371Y-58935733D01*
X144796609Y-58840495D01*
X144891847Y-58792876D01*
X145082323Y-58745257D01*
X145225180Y-58745257D01*
X145415656Y-58792876D01*
X145510894Y-58840495D01*
X145606132Y-58935733D01*
X145653751Y-59078590D01*
X145653751Y-59316685D01*
X145082323Y-58173828D02*
X145034704Y-58269066D01*
X144987085Y-58316685D01*
X144891847Y-58364304D01*
X144844228Y-58364304D01*
X144748990Y-58316685D01*
X144701371Y-58269066D01*
X144653751Y-58173828D01*
X144653751Y-57983352D01*
X144701371Y-57888114D01*
X144748990Y-57840495D01*
X144844228Y-57792876D01*
X144891847Y-57792876D01*
X144987085Y-57840495D01*
X145034704Y-57888114D01*
X145082323Y-57983352D01*
X145082323Y-58173828D01*
X145129942Y-58269066D01*
X145177561Y-58316685D01*
X145272799Y-58364304D01*
X145463275Y-58364304D01*
X145558513Y-58316685D01*
X145606132Y-58269066D01*
X145653751Y-58173828D01*
X145653751Y-57983352D01*
X145606132Y-57888114D01*
X145558513Y-57840495D01*
X145463275Y-57792876D01*
X145272799Y-57792876D01*
X145177561Y-57840495D01*
X145129942Y-57888114D01*
X145082323Y-57983352D01*
X145653751Y-56840495D02*
X145653751Y-57411923D01*
X145653751Y-57126209D02*
X144653751Y-57126209D01*
X144796609Y-57221447D01*
X144891847Y-57316685D01*
X144939466Y-57411923D01*
X142527380Y-57324304D02*
X141527380Y-57324304D01*
X142527380Y-56752876D02*
X141955952Y-57181447D01*
X141527380Y-56752876D02*
X142098809Y-57324304D01*
X145716751Y-45061085D02*
X144716751Y-45061085D01*
X144716751Y-44822990D01*
X144764371Y-44680133D01*
X144859609Y-44584895D01*
X144954847Y-44537276D01*
X145145323Y-44489657D01*
X145288180Y-44489657D01*
X145478656Y-44537276D01*
X145573894Y-44584895D01*
X145669132Y-44680133D01*
X145716751Y-44822990D01*
X145716751Y-45061085D01*
X145145323Y-43918228D02*
X145097704Y-44013466D01*
X145050085Y-44061085D01*
X144954847Y-44108704D01*
X144907228Y-44108704D01*
X144811990Y-44061085D01*
X144764371Y-44013466D01*
X144716751Y-43918228D01*
X144716751Y-43727752D01*
X144764371Y-43632514D01*
X144811990Y-43584895D01*
X144907228Y-43537276D01*
X144954847Y-43537276D01*
X145050085Y-43584895D01*
X145097704Y-43632514D01*
X145145323Y-43727752D01*
X145145323Y-43918228D01*
X145192942Y-44013466D01*
X145240561Y-44061085D01*
X145335799Y-44108704D01*
X145526275Y-44108704D01*
X145621513Y-44061085D01*
X145669132Y-44013466D01*
X145716751Y-43918228D01*
X145716751Y-43727752D01*
X145669132Y-43632514D01*
X145621513Y-43584895D01*
X145526275Y-43537276D01*
X145335799Y-43537276D01*
X145240561Y-43584895D01*
X145192942Y-43632514D01*
X145145323Y-43727752D01*
X144716751Y-42918228D02*
X144716751Y-42822990D01*
X144764371Y-42727752D01*
X144811990Y-42680133D01*
X144907228Y-42632514D01*
X145097704Y-42584895D01*
X145335799Y-42584895D01*
X145526275Y-42632514D01*
X145621513Y-42680133D01*
X145669132Y-42727752D01*
X145716751Y-42822990D01*
X145716751Y-42918228D01*
X145669132Y-43013466D01*
X145621513Y-43061085D01*
X145526275Y-43108704D01*
X145335799Y-43156323D01*
X145097704Y-43156323D01*
X144907228Y-43108704D01*
X144811990Y-43061085D01*
X144764371Y-43013466D01*
X144716751Y-42918228D01*
X142590380Y-43068704D02*
X141590380Y-43068704D01*
X142590380Y-42497276D02*
X142018952Y-42925847D01*
X141590380Y-42497276D02*
X142161809Y-43068704D01*
X281384751Y-59316685D02*
X280384751Y-59316685D01*
X280384751Y-59078590D01*
X280432371Y-58935733D01*
X280527609Y-58840495D01*
X280622847Y-58792876D01*
X280813323Y-58745257D01*
X280956180Y-58745257D01*
X281146656Y-58792876D01*
X281241894Y-58840495D01*
X281337132Y-58935733D01*
X281384751Y-59078590D01*
X281384751Y-59316685D01*
X280384751Y-58411923D02*
X280384751Y-57745257D01*
X281384751Y-58173828D01*
X280384751Y-57459542D02*
X280384751Y-56792876D01*
X281384751Y-57221447D01*
X278258380Y-57324304D02*
X277258380Y-57324304D01*
X278258380Y-56752876D02*
X277686952Y-57181447D01*
X277258380Y-56752876D02*
X277829809Y-57324304D01*
X307578751Y-59316685D02*
X306578751Y-59316685D01*
X306578751Y-59078590D01*
X306626371Y-58935733D01*
X306721609Y-58840495D01*
X306816847Y-58792876D01*
X307007323Y-58745257D01*
X307150180Y-58745257D01*
X307340656Y-58792876D01*
X307435894Y-58840495D01*
X307531132Y-58935733D01*
X307578751Y-59078590D01*
X307578751Y-59316685D01*
X306578751Y-58411923D02*
X306578751Y-57745257D01*
X307578751Y-58173828D01*
X306578751Y-56935733D02*
X306578751Y-57126209D01*
X306626371Y-57221447D01*
X306673990Y-57269066D01*
X306816847Y-57364304D01*
X307007323Y-57411923D01*
X307388275Y-57411923D01*
X307483513Y-57364304D01*
X307531132Y-57316685D01*
X307578751Y-57221447D01*
X307578751Y-57030971D01*
X307531132Y-56935733D01*
X307483513Y-56888114D01*
X307388275Y-56840495D01*
X307150180Y-56840495D01*
X307054942Y-56888114D01*
X307007323Y-56935733D01*
X306959704Y-57030971D01*
X306959704Y-57221447D01*
X307007323Y-57316685D01*
X307054942Y-57364304D01*
X307150180Y-57411923D01*
X304452380Y-57324304D02*
X303452380Y-57324304D01*
X304452380Y-56752876D02*
X303880952Y-57181447D01*
X303452380Y-56752876D02*
X304023809Y-57324304D01*
X255191751Y-59316685D02*
X254191751Y-59316685D01*
X254191751Y-59078590D01*
X254239371Y-58935733D01*
X254334609Y-58840495D01*
X254429847Y-58792876D01*
X254620323Y-58745257D01*
X254763180Y-58745257D01*
X254953656Y-58792876D01*
X255048894Y-58840495D01*
X255144132Y-58935733D01*
X255191751Y-59078590D01*
X255191751Y-59316685D01*
X254191751Y-58411923D02*
X254191751Y-57745257D01*
X255191751Y-58173828D01*
X254191751Y-56888114D02*
X254191751Y-57364304D01*
X254667942Y-57411923D01*
X254620323Y-57364304D01*
X254572704Y-57269066D01*
X254572704Y-57030971D01*
X254620323Y-56935733D01*
X254667942Y-56888114D01*
X254763180Y-56840495D01*
X255001275Y-56840495D01*
X255096513Y-56888114D01*
X255144132Y-56935733D01*
X255191751Y-57030971D01*
X255191751Y-57269066D01*
X255144132Y-57364304D01*
X255096513Y-57411923D01*
X252065380Y-57324304D02*
X251065380Y-57324304D01*
X252065380Y-56752876D02*
X251493952Y-57181447D01*
X251065380Y-56752876D02*
X251636809Y-57324304D01*
X255255751Y-45061085D02*
X254255751Y-45061085D01*
X254255751Y-44822990D01*
X254303371Y-44680133D01*
X254398609Y-44584895D01*
X254493847Y-44537276D01*
X254684323Y-44489657D01*
X254827180Y-44489657D01*
X255017656Y-44537276D01*
X255112894Y-44584895D01*
X255208132Y-44680133D01*
X255255751Y-44822990D01*
X255255751Y-45061085D01*
X254255751Y-44156323D02*
X254255751Y-43489657D01*
X255255751Y-43918228D01*
X254589085Y-42680133D02*
X255255751Y-42680133D01*
X254208132Y-42918228D02*
X254922418Y-43156323D01*
X254922418Y-42537276D01*
X252129380Y-43068704D02*
X251129380Y-43068704D01*
X252129380Y-42497276D02*
X251557952Y-42925847D01*
X251129380Y-42497276D02*
X251700809Y-43068704D01*
X198041751Y-59316685D02*
X197041751Y-59316685D01*
X197041751Y-59078590D01*
X197089371Y-58935733D01*
X197184609Y-58840495D01*
X197279847Y-58792876D01*
X197470323Y-58745257D01*
X197613180Y-58745257D01*
X197803656Y-58792876D01*
X197898894Y-58840495D01*
X197994132Y-58935733D01*
X198041751Y-59078590D01*
X198041751Y-59316685D01*
X197041751Y-58411923D02*
X197041751Y-57745257D01*
X198041751Y-58173828D01*
X197041751Y-57459542D02*
X197041751Y-56840495D01*
X197422704Y-57173828D01*
X197422704Y-57030971D01*
X197470323Y-56935733D01*
X197517942Y-56888114D01*
X197613180Y-56840495D01*
X197851275Y-56840495D01*
X197946513Y-56888114D01*
X197994132Y-56935733D01*
X198041751Y-57030971D01*
X198041751Y-57316685D01*
X197994132Y-57411923D01*
X197946513Y-57459542D01*
X194915380Y-57324304D02*
X193915380Y-57324304D01*
X194915380Y-56752876D02*
X194343952Y-57181447D01*
X193915380Y-56752876D02*
X194486809Y-57324304D01*
X311610751Y-45061085D02*
X310610751Y-45061085D01*
X310610751Y-44822990D01*
X310658371Y-44680133D01*
X310753609Y-44584895D01*
X310848847Y-44537276D01*
X311039323Y-44489657D01*
X311182180Y-44489657D01*
X311372656Y-44537276D01*
X311467894Y-44584895D01*
X311563132Y-44680133D01*
X311610751Y-44822990D01*
X311610751Y-45061085D01*
X310610751Y-44156323D02*
X310610751Y-43489657D01*
X311610751Y-43918228D01*
X310705990Y-43156323D02*
X310658371Y-43108704D01*
X310610751Y-43013466D01*
X310610751Y-42775371D01*
X310658371Y-42680133D01*
X310705990Y-42632514D01*
X310801228Y-42584895D01*
X310896466Y-42584895D01*
X311039323Y-42632514D01*
X311610751Y-43203942D01*
X311610751Y-42584895D01*
X308484380Y-43068704D02*
X307484380Y-43068704D01*
X308484380Y-42497276D02*
X307912952Y-42925847D01*
X307484380Y-42497276D02*
X308055809Y-43068704D01*
X228202751Y-59316685D02*
X227202751Y-59316685D01*
X227202751Y-59078590D01*
X227250371Y-58935733D01*
X227345609Y-58840495D01*
X227440847Y-58792876D01*
X227631323Y-58745257D01*
X227774180Y-58745257D01*
X227964656Y-58792876D01*
X228059894Y-58840495D01*
X228155132Y-58935733D01*
X228202751Y-59078590D01*
X228202751Y-59316685D01*
X227202751Y-58411923D02*
X227202751Y-57745257D01*
X228202751Y-58173828D01*
X228202751Y-56840495D02*
X228202751Y-57411923D01*
X228202751Y-57126209D02*
X227202751Y-57126209D01*
X227345609Y-57221447D01*
X227440847Y-57316685D01*
X227488466Y-57411923D01*
X225076380Y-57324304D02*
X224076380Y-57324304D01*
X225076380Y-56752876D02*
X224504952Y-57181447D01*
X224076380Y-56752876D02*
X224647809Y-57324304D01*
X228266751Y-45061085D02*
X227266751Y-45061085D01*
X227266751Y-44822990D01*
X227314371Y-44680133D01*
X227409609Y-44584895D01*
X227504847Y-44537276D01*
X227695323Y-44489657D01*
X227838180Y-44489657D01*
X228028656Y-44537276D01*
X228123894Y-44584895D01*
X228219132Y-44680133D01*
X228266751Y-44822990D01*
X228266751Y-45061085D01*
X227266751Y-44156323D02*
X227266751Y-43489657D01*
X228266751Y-43918228D01*
X227266751Y-42918228D02*
X227266751Y-42822990D01*
X227314371Y-42727752D01*
X227361990Y-42680133D01*
X227457228Y-42632514D01*
X227647704Y-42584895D01*
X227885799Y-42584895D01*
X228076275Y-42632514D01*
X228171513Y-42680133D01*
X228219132Y-42727752D01*
X228266751Y-42822990D01*
X228266751Y-42918228D01*
X228219132Y-43013466D01*
X228171513Y-43061085D01*
X228076275Y-43108704D01*
X227885799Y-43156323D01*
X227647704Y-43156323D01*
X227457228Y-43108704D01*
X227361990Y-43061085D01*
X227314371Y-43013466D01*
X227266751Y-42918228D01*
X225140380Y-43068704D02*
X224140380Y-43068704D01*
X225140380Y-42497276D02*
X224568952Y-42925847D01*
X224140380Y-42497276D02*
X224711809Y-43068704D01*
X198104751Y-45061085D02*
X197104751Y-45061085D01*
X197104751Y-44822990D01*
X197152371Y-44680133D01*
X197247609Y-44584895D01*
X197342847Y-44537276D01*
X197533323Y-44489657D01*
X197676180Y-44489657D01*
X197866656Y-44537276D01*
X197961894Y-44584895D01*
X198057132Y-44680133D01*
X198104751Y-44822990D01*
X198104751Y-45061085D01*
X197104751Y-43632514D02*
X197104751Y-43822990D01*
X197152371Y-43918228D01*
X197199990Y-43965847D01*
X197342847Y-44061085D01*
X197533323Y-44108704D01*
X197914275Y-44108704D01*
X198009513Y-44061085D01*
X198057132Y-44013466D01*
X198104751Y-43918228D01*
X198104751Y-43727752D01*
X198057132Y-43632514D01*
X198009513Y-43584895D01*
X197914275Y-43537276D01*
X197676180Y-43537276D01*
X197580942Y-43584895D01*
X197533323Y-43632514D01*
X197485704Y-43727752D01*
X197485704Y-43918228D01*
X197533323Y-44013466D01*
X197580942Y-44061085D01*
X197676180Y-44108704D01*
X198104751Y-43061085D02*
X198104751Y-42870609D01*
X198057132Y-42775371D01*
X198009513Y-42727752D01*
X197866656Y-42632514D01*
X197676180Y-42584895D01*
X197295228Y-42584895D01*
X197199990Y-42632514D01*
X197152371Y-42680133D01*
X197104751Y-42775371D01*
X197104751Y-42965847D01*
X197152371Y-43061085D01*
X197199990Y-43108704D01*
X197295228Y-43156323D01*
X197533323Y-43156323D01*
X197628561Y-43108704D01*
X197676180Y-43061085D01*
X197723799Y-42965847D01*
X197723799Y-42775371D01*
X197676180Y-42680133D01*
X197628561Y-42632514D01*
X197533323Y-42584895D01*
X194978380Y-43068704D02*
X193978380Y-43068704D01*
X194978380Y-42497276D02*
X194406952Y-42925847D01*
X193978380Y-42497276D02*
X194549809Y-43068704D01*
X171846751Y-59316685D02*
X170846751Y-59316685D01*
X170846751Y-59078590D01*
X170894371Y-58935733D01*
X170989609Y-58840495D01*
X171084847Y-58792876D01*
X171275323Y-58745257D01*
X171418180Y-58745257D01*
X171608656Y-58792876D01*
X171703894Y-58840495D01*
X171799132Y-58935733D01*
X171846751Y-59078590D01*
X171846751Y-59316685D01*
X170846751Y-57888114D02*
X170846751Y-58078590D01*
X170894371Y-58173828D01*
X170941990Y-58221447D01*
X171084847Y-58316685D01*
X171275323Y-58364304D01*
X171656275Y-58364304D01*
X171751513Y-58316685D01*
X171799132Y-58269066D01*
X171846751Y-58173828D01*
X171846751Y-57983352D01*
X171799132Y-57888114D01*
X171751513Y-57840495D01*
X171656275Y-57792876D01*
X171418180Y-57792876D01*
X171322942Y-57840495D01*
X171275323Y-57888114D01*
X171227704Y-57983352D01*
X171227704Y-58173828D01*
X171275323Y-58269066D01*
X171322942Y-58316685D01*
X171418180Y-58364304D01*
X171275323Y-57221447D02*
X171227704Y-57316685D01*
X171180085Y-57364304D01*
X171084847Y-57411923D01*
X171037228Y-57411923D01*
X170941990Y-57364304D01*
X170894371Y-57316685D01*
X170846751Y-57221447D01*
X170846751Y-57030971D01*
X170894371Y-56935733D01*
X170941990Y-56888114D01*
X171037228Y-56840495D01*
X171084847Y-56840495D01*
X171180085Y-56888114D01*
X171227704Y-56935733D01*
X171275323Y-57030971D01*
X171275323Y-57221447D01*
X171322942Y-57316685D01*
X171370561Y-57364304D01*
X171465799Y-57411923D01*
X171656275Y-57411923D01*
X171751513Y-57364304D01*
X171799132Y-57316685D01*
X171846751Y-57221447D01*
X171846751Y-57030971D01*
X171799132Y-56935733D01*
X171751513Y-56888114D01*
X171656275Y-56840495D01*
X171465799Y-56840495D01*
X171370561Y-56888114D01*
X171322942Y-56935733D01*
X171275323Y-57030971D01*
X168720380Y-57324304D02*
X167720380Y-57324304D01*
X168720380Y-56752876D02*
X168148952Y-57181447D01*
X167720380Y-56752876D02*
X168291809Y-57324304D01*
X171909751Y-45061085D02*
X170909751Y-45061085D01*
X170909751Y-44822990D01*
X170957371Y-44680133D01*
X171052609Y-44584895D01*
X171147847Y-44537276D01*
X171338323Y-44489657D01*
X171481180Y-44489657D01*
X171671656Y-44537276D01*
X171766894Y-44584895D01*
X171862132Y-44680133D01*
X171909751Y-44822990D01*
X171909751Y-45061085D01*
X170909751Y-43632514D02*
X170909751Y-43822990D01*
X170957371Y-43918228D01*
X171004990Y-43965847D01*
X171147847Y-44061085D01*
X171338323Y-44108704D01*
X171719275Y-44108704D01*
X171814513Y-44061085D01*
X171862132Y-44013466D01*
X171909751Y-43918228D01*
X171909751Y-43727752D01*
X171862132Y-43632514D01*
X171814513Y-43584895D01*
X171719275Y-43537276D01*
X171481180Y-43537276D01*
X171385942Y-43584895D01*
X171338323Y-43632514D01*
X171290704Y-43727752D01*
X171290704Y-43918228D01*
X171338323Y-44013466D01*
X171385942Y-44061085D01*
X171481180Y-44108704D01*
X170909751Y-43203942D02*
X170909751Y-42537276D01*
X171909751Y-42965847D01*
X168783380Y-43068704D02*
X167783380Y-43068704D01*
X168783380Y-42497276D02*
X168211952Y-42925847D01*
X167783380Y-42497276D02*
X168354809Y-43068704D01*
X141684751Y-59316685D02*
X140684751Y-59316685D01*
X140684751Y-59078590D01*
X140732371Y-58935733D01*
X140827609Y-58840495D01*
X140922847Y-58792876D01*
X141113323Y-58745257D01*
X141256180Y-58745257D01*
X141446656Y-58792876D01*
X141541894Y-58840495D01*
X141637132Y-58935733D01*
X141684751Y-59078590D01*
X141684751Y-59316685D01*
X140684751Y-57888114D02*
X140684751Y-58078590D01*
X140732371Y-58173828D01*
X140779990Y-58221447D01*
X140922847Y-58316685D01*
X141113323Y-58364304D01*
X141494275Y-58364304D01*
X141589513Y-58316685D01*
X141637132Y-58269066D01*
X141684751Y-58173828D01*
X141684751Y-57983352D01*
X141637132Y-57888114D01*
X141589513Y-57840495D01*
X141494275Y-57792876D01*
X141256180Y-57792876D01*
X141160942Y-57840495D01*
X141113323Y-57888114D01*
X141065704Y-57983352D01*
X141065704Y-58173828D01*
X141113323Y-58269066D01*
X141160942Y-58316685D01*
X141256180Y-58364304D01*
X140684751Y-56935733D02*
X140684751Y-57126209D01*
X140732371Y-57221447D01*
X140779990Y-57269066D01*
X140922847Y-57364304D01*
X141113323Y-57411923D01*
X141494275Y-57411923D01*
X141589513Y-57364304D01*
X141637132Y-57316685D01*
X141684751Y-57221447D01*
X141684751Y-57030971D01*
X141637132Y-56935733D01*
X141589513Y-56888114D01*
X141494275Y-56840495D01*
X141256180Y-56840495D01*
X141160942Y-56888114D01*
X141113323Y-56935733D01*
X141065704Y-57030971D01*
X141065704Y-57221447D01*
X141113323Y-57316685D01*
X141160942Y-57364304D01*
X141256180Y-57411923D01*
X138558380Y-57324304D02*
X137558380Y-57324304D01*
X138558380Y-56752876D02*
X137986952Y-57181447D01*
X137558380Y-56752876D02*
X138129809Y-57324304D01*
X141748751Y-45061085D02*
X140748751Y-45061085D01*
X140748751Y-44822990D01*
X140796371Y-44680133D01*
X140891609Y-44584895D01*
X140986847Y-44537276D01*
X141177323Y-44489657D01*
X141320180Y-44489657D01*
X141510656Y-44537276D01*
X141605894Y-44584895D01*
X141701132Y-44680133D01*
X141748751Y-44822990D01*
X141748751Y-45061085D01*
X140748751Y-43632514D02*
X140748751Y-43822990D01*
X140796371Y-43918228D01*
X140843990Y-43965847D01*
X140986847Y-44061085D01*
X141177323Y-44108704D01*
X141558275Y-44108704D01*
X141653513Y-44061085D01*
X141701132Y-44013466D01*
X141748751Y-43918228D01*
X141748751Y-43727752D01*
X141701132Y-43632514D01*
X141653513Y-43584895D01*
X141558275Y-43537276D01*
X141320180Y-43537276D01*
X141224942Y-43584895D01*
X141177323Y-43632514D01*
X141129704Y-43727752D01*
X141129704Y-43918228D01*
X141177323Y-44013466D01*
X141224942Y-44061085D01*
X141320180Y-44108704D01*
X140748751Y-42632514D02*
X140748751Y-43108704D01*
X141224942Y-43156323D01*
X141177323Y-43108704D01*
X141129704Y-43013466D01*
X141129704Y-42775371D01*
X141177323Y-42680133D01*
X141224942Y-42632514D01*
X141320180Y-42584895D01*
X141558275Y-42584895D01*
X141653513Y-42632514D01*
X141701132Y-42680133D01*
X141748751Y-42775371D01*
X141748751Y-43013466D01*
X141701132Y-43108704D01*
X141653513Y-43156323D01*
X138622380Y-43068704D02*
X137622380Y-43068704D01*
X138622380Y-42497276D02*
X138050952Y-42925847D01*
X137622380Y-42497276D02*
X138193809Y-43068704D01*
X113967751Y-45061085D02*
X112967751Y-45061085D01*
X112967751Y-44822990D01*
X113015371Y-44680133D01*
X113110609Y-44584895D01*
X113205847Y-44537276D01*
X113396323Y-44489657D01*
X113539180Y-44489657D01*
X113729656Y-44537276D01*
X113824894Y-44584895D01*
X113920132Y-44680133D01*
X113967751Y-44822990D01*
X113967751Y-45061085D01*
X112967751Y-43632514D02*
X112967751Y-43822990D01*
X113015371Y-43918228D01*
X113062990Y-43965847D01*
X113205847Y-44061085D01*
X113396323Y-44108704D01*
X113777275Y-44108704D01*
X113872513Y-44061085D01*
X113920132Y-44013466D01*
X113967751Y-43918228D01*
X113967751Y-43727752D01*
X113920132Y-43632514D01*
X113872513Y-43584895D01*
X113777275Y-43537276D01*
X113539180Y-43537276D01*
X113443942Y-43584895D01*
X113396323Y-43632514D01*
X113348704Y-43727752D01*
X113348704Y-43918228D01*
X113396323Y-44013466D01*
X113443942Y-44061085D01*
X113539180Y-44108704D01*
X113301085Y-42680133D02*
X113967751Y-42680133D01*
X112920132Y-42918228D02*
X113634418Y-43156323D01*
X113634418Y-42537276D01*
X110841380Y-43068704D02*
X109841380Y-43068704D01*
X110841380Y-42497276D02*
X110269952Y-42925847D01*
X109841380Y-42497276D02*
X110412809Y-43068704D01*
X277416751Y-59316685D02*
X276416751Y-59316685D01*
X276416751Y-59078590D01*
X276464371Y-58935733D01*
X276559609Y-58840495D01*
X276654847Y-58792876D01*
X276845323Y-58745257D01*
X276988180Y-58745257D01*
X277178656Y-58792876D01*
X277273894Y-58840495D01*
X277369132Y-58935733D01*
X277416751Y-59078590D01*
X277416751Y-59316685D01*
X276416751Y-57888114D02*
X276416751Y-58078590D01*
X276464371Y-58173828D01*
X276511990Y-58221447D01*
X276654847Y-58316685D01*
X276845323Y-58364304D01*
X277226275Y-58364304D01*
X277321513Y-58316685D01*
X277369132Y-58269066D01*
X277416751Y-58173828D01*
X277416751Y-57983352D01*
X277369132Y-57888114D01*
X277321513Y-57840495D01*
X277226275Y-57792876D01*
X276988180Y-57792876D01*
X276892942Y-57840495D01*
X276845323Y-57888114D01*
X276797704Y-57983352D01*
X276797704Y-58173828D01*
X276845323Y-58269066D01*
X276892942Y-58316685D01*
X276988180Y-58364304D01*
X276511990Y-57411923D02*
X276464371Y-57364304D01*
X276416751Y-57269066D01*
X276416751Y-57030971D01*
X276464371Y-56935733D01*
X276511990Y-56888114D01*
X276607228Y-56840495D01*
X276702466Y-56840495D01*
X276845323Y-56888114D01*
X277416751Y-57459542D01*
X277416751Y-56840495D01*
X274290380Y-57324304D02*
X273290380Y-57324304D01*
X274290380Y-56752876D02*
X273718952Y-57181447D01*
X273290380Y-56752876D02*
X273861809Y-57324304D01*
X281447751Y-45061085D02*
X280447751Y-45061085D01*
X280447751Y-44822990D01*
X280495371Y-44680133D01*
X280590609Y-44584895D01*
X280685847Y-44537276D01*
X280876323Y-44489657D01*
X281019180Y-44489657D01*
X281209656Y-44537276D01*
X281304894Y-44584895D01*
X281400132Y-44680133D01*
X281447751Y-44822990D01*
X281447751Y-45061085D01*
X280447751Y-43632514D02*
X280447751Y-43822990D01*
X280495371Y-43918228D01*
X280542990Y-43965847D01*
X280685847Y-44061085D01*
X280876323Y-44108704D01*
X281257275Y-44108704D01*
X281352513Y-44061085D01*
X281400132Y-44013466D01*
X281447751Y-43918228D01*
X281447751Y-43727752D01*
X281400132Y-43632514D01*
X281352513Y-43584895D01*
X281257275Y-43537276D01*
X281019180Y-43537276D01*
X280923942Y-43584895D01*
X280876323Y-43632514D01*
X280828704Y-43727752D01*
X280828704Y-43918228D01*
X280876323Y-44013466D01*
X280923942Y-44061085D01*
X281019180Y-44108704D01*
X281447751Y-42584895D02*
X281447751Y-43156323D01*
X281447751Y-42870609D02*
X280447751Y-42870609D01*
X280590609Y-42965847D01*
X280685847Y-43061085D01*
X280733466Y-43156323D01*
X278321380Y-43068704D02*
X277321380Y-43068704D01*
X278321380Y-42497276D02*
X277749952Y-42925847D01*
X277321380Y-42497276D02*
X277892809Y-43068704D01*
X251222751Y-59316685D02*
X250222751Y-59316685D01*
X250222751Y-59078590D01*
X250270371Y-58935733D01*
X250365609Y-58840495D01*
X250460847Y-58792876D01*
X250651323Y-58745257D01*
X250794180Y-58745257D01*
X250984656Y-58792876D01*
X251079894Y-58840495D01*
X251175132Y-58935733D01*
X251222751Y-59078590D01*
X251222751Y-59316685D01*
X250222751Y-57888114D02*
X250222751Y-58078590D01*
X250270371Y-58173828D01*
X250317990Y-58221447D01*
X250460847Y-58316685D01*
X250651323Y-58364304D01*
X251032275Y-58364304D01*
X251127513Y-58316685D01*
X251175132Y-58269066D01*
X251222751Y-58173828D01*
X251222751Y-57983352D01*
X251175132Y-57888114D01*
X251127513Y-57840495D01*
X251032275Y-57792876D01*
X250794180Y-57792876D01*
X250698942Y-57840495D01*
X250651323Y-57888114D01*
X250603704Y-57983352D01*
X250603704Y-58173828D01*
X250651323Y-58269066D01*
X250698942Y-58316685D01*
X250794180Y-58364304D01*
X250222751Y-57173828D02*
X250222751Y-57078590D01*
X250270371Y-56983352D01*
X250317990Y-56935733D01*
X250413228Y-56888114D01*
X250603704Y-56840495D01*
X250841799Y-56840495D01*
X251032275Y-56888114D01*
X251127513Y-56935733D01*
X251175132Y-56983352D01*
X251222751Y-57078590D01*
X251222751Y-57173828D01*
X251175132Y-57269066D01*
X251127513Y-57316685D01*
X251032275Y-57364304D01*
X250841799Y-57411923D01*
X250603704Y-57411923D01*
X250413228Y-57364304D01*
X250317990Y-57316685D01*
X250270371Y-57269066D01*
X250222751Y-57173828D01*
X248096380Y-57324304D02*
X247096380Y-57324304D01*
X248096380Y-56752876D02*
X247524952Y-57181447D01*
X247096380Y-56752876D02*
X247667809Y-57324304D01*
X251285751Y-45061085D02*
X250285751Y-45061085D01*
X250285751Y-44822990D01*
X250333371Y-44680133D01*
X250428609Y-44584895D01*
X250523847Y-44537276D01*
X250714323Y-44489657D01*
X250857180Y-44489657D01*
X251047656Y-44537276D01*
X251142894Y-44584895D01*
X251238132Y-44680133D01*
X251285751Y-44822990D01*
X251285751Y-45061085D01*
X250285751Y-43584895D02*
X250285751Y-44061085D01*
X250761942Y-44108704D01*
X250714323Y-44061085D01*
X250666704Y-43965847D01*
X250666704Y-43727752D01*
X250714323Y-43632514D01*
X250761942Y-43584895D01*
X250857180Y-43537276D01*
X251095275Y-43537276D01*
X251190513Y-43584895D01*
X251238132Y-43632514D01*
X251285751Y-43727752D01*
X251285751Y-43965847D01*
X251238132Y-44061085D01*
X251190513Y-44108704D01*
X251285751Y-43061085D02*
X251285751Y-42870609D01*
X251238132Y-42775371D01*
X251190513Y-42727752D01*
X251047656Y-42632514D01*
X250857180Y-42584895D01*
X250476228Y-42584895D01*
X250380990Y-42632514D01*
X250333371Y-42680133D01*
X250285751Y-42775371D01*
X250285751Y-42965847D01*
X250333371Y-43061085D01*
X250380990Y-43108704D01*
X250476228Y-43156323D01*
X250714323Y-43156323D01*
X250809561Y-43108704D01*
X250857180Y-43061085D01*
X250904799Y-42965847D01*
X250904799Y-42775371D01*
X250857180Y-42680133D01*
X250809561Y-42632514D01*
X250714323Y-42584895D01*
X248159380Y-43068704D02*
X247159380Y-43068704D01*
X248159380Y-42497276D02*
X247587952Y-42925847D01*
X247159380Y-42497276D02*
X247730809Y-43068704D01*
X194072751Y-58999285D02*
X193072751Y-58999285D01*
X193072751Y-58761190D01*
X193120371Y-58618333D01*
X193215609Y-58523095D01*
X193310847Y-58475476D01*
X193501323Y-58427857D01*
X193644180Y-58427857D01*
X193834656Y-58475476D01*
X193929894Y-58523095D01*
X194025132Y-58618333D01*
X194072751Y-58761190D01*
X194072751Y-58999285D01*
X193072751Y-57523095D02*
X193072751Y-57999285D01*
X193548942Y-58046904D01*
X193501323Y-57999285D01*
X193453704Y-57904047D01*
X193453704Y-57665952D01*
X193501323Y-57570714D01*
X193548942Y-57523095D01*
X193644180Y-57475476D01*
X193882275Y-57475476D01*
X193977513Y-57523095D01*
X194025132Y-57570714D01*
X194072751Y-57665952D01*
X194072751Y-57904047D01*
X194025132Y-57999285D01*
X193977513Y-58046904D01*
X193501323Y-56904047D02*
X193453704Y-56999285D01*
X193406085Y-57046904D01*
X193310847Y-57094523D01*
X193263228Y-57094523D01*
X193167990Y-57046904D01*
X193120371Y-56999285D01*
X193072751Y-56904047D01*
X193072751Y-56713571D01*
X193120371Y-56618333D01*
X193167990Y-56570714D01*
X193263228Y-56523095D01*
X193310847Y-56523095D01*
X193406085Y-56570714D01*
X193453704Y-56618333D01*
X193501323Y-56713571D01*
X193501323Y-56904047D01*
X193548942Y-56999285D01*
X193596561Y-57046904D01*
X193691799Y-57094523D01*
X193882275Y-57094523D01*
X193977513Y-57046904D01*
X194025132Y-56999285D01*
X194072751Y-56904047D01*
X194072751Y-56713571D01*
X194025132Y-56618333D01*
X193977513Y-56570714D01*
X193882275Y-56523095D01*
X193691799Y-56523095D01*
X193596561Y-56570714D01*
X193548942Y-56618333D01*
X193501323Y-56713571D01*
X190946380Y-57006904D02*
X189946380Y-57006904D01*
X190946380Y-56435476D02*
X190374952Y-56864047D01*
X189946380Y-56435476D02*
X190517809Y-57006904D01*
X307642751Y-45061085D02*
X306642751Y-45061085D01*
X306642751Y-44822990D01*
X306690371Y-44680133D01*
X306785609Y-44584895D01*
X306880847Y-44537276D01*
X307071323Y-44489657D01*
X307214180Y-44489657D01*
X307404656Y-44537276D01*
X307499894Y-44584895D01*
X307595132Y-44680133D01*
X307642751Y-44822990D01*
X307642751Y-45061085D01*
X306642751Y-43584895D02*
X306642751Y-44061085D01*
X307118942Y-44108704D01*
X307071323Y-44061085D01*
X307023704Y-43965847D01*
X307023704Y-43727752D01*
X307071323Y-43632514D01*
X307118942Y-43584895D01*
X307214180Y-43537276D01*
X307452275Y-43537276D01*
X307547513Y-43584895D01*
X307595132Y-43632514D01*
X307642751Y-43727752D01*
X307642751Y-43965847D01*
X307595132Y-44061085D01*
X307547513Y-44108704D01*
X306642751Y-43203942D02*
X306642751Y-42537276D01*
X307642751Y-42965847D01*
X304516380Y-43068704D02*
X303516380Y-43068704D01*
X304516380Y-42497276D02*
X303944952Y-42925847D01*
X303516380Y-42497276D02*
X304087809Y-43068704D01*
X224234751Y-59316685D02*
X223234751Y-59316685D01*
X223234751Y-59078590D01*
X223282371Y-58935733D01*
X223377609Y-58840495D01*
X223472847Y-58792876D01*
X223663323Y-58745257D01*
X223806180Y-58745257D01*
X223996656Y-58792876D01*
X224091894Y-58840495D01*
X224187132Y-58935733D01*
X224234751Y-59078590D01*
X224234751Y-59316685D01*
X223234751Y-57840495D02*
X223234751Y-58316685D01*
X223710942Y-58364304D01*
X223663323Y-58316685D01*
X223615704Y-58221447D01*
X223615704Y-57983352D01*
X223663323Y-57888114D01*
X223710942Y-57840495D01*
X223806180Y-57792876D01*
X224044275Y-57792876D01*
X224139513Y-57840495D01*
X224187132Y-57888114D01*
X224234751Y-57983352D01*
X224234751Y-58221447D01*
X224187132Y-58316685D01*
X224139513Y-58364304D01*
X223234751Y-56935733D02*
X223234751Y-57126209D01*
X223282371Y-57221447D01*
X223329990Y-57269066D01*
X223472847Y-57364304D01*
X223663323Y-57411923D01*
X224044275Y-57411923D01*
X224139513Y-57364304D01*
X224187132Y-57316685D01*
X224234751Y-57221447D01*
X224234751Y-57030971D01*
X224187132Y-56935733D01*
X224139513Y-56888114D01*
X224044275Y-56840495D01*
X223806180Y-56840495D01*
X223710942Y-56888114D01*
X223663323Y-56935733D01*
X223615704Y-57030971D01*
X223615704Y-57221447D01*
X223663323Y-57316685D01*
X223710942Y-57364304D01*
X223806180Y-57411923D01*
X221108380Y-57324304D02*
X220108380Y-57324304D01*
X221108380Y-56752876D02*
X220536952Y-57181447D01*
X220108380Y-56752876D02*
X220679809Y-57324304D01*
X224298751Y-45061085D02*
X223298751Y-45061085D01*
X223298751Y-44822990D01*
X223346371Y-44680133D01*
X223441609Y-44584895D01*
X223536847Y-44537276D01*
X223727323Y-44489657D01*
X223870180Y-44489657D01*
X224060656Y-44537276D01*
X224155894Y-44584895D01*
X224251132Y-44680133D01*
X224298751Y-44822990D01*
X224298751Y-45061085D01*
X223298751Y-43584895D02*
X223298751Y-44061085D01*
X223774942Y-44108704D01*
X223727323Y-44061085D01*
X223679704Y-43965847D01*
X223679704Y-43727752D01*
X223727323Y-43632514D01*
X223774942Y-43584895D01*
X223870180Y-43537276D01*
X224108275Y-43537276D01*
X224203513Y-43584895D01*
X224251132Y-43632514D01*
X224298751Y-43727752D01*
X224298751Y-43965847D01*
X224251132Y-44061085D01*
X224203513Y-44108704D01*
X223298751Y-42632514D02*
X223298751Y-43108704D01*
X223774942Y-43156323D01*
X223727323Y-43108704D01*
X223679704Y-43013466D01*
X223679704Y-42775371D01*
X223727323Y-42680133D01*
X223774942Y-42632514D01*
X223870180Y-42584895D01*
X224108275Y-42584895D01*
X224203513Y-42632514D01*
X224251132Y-42680133D01*
X224298751Y-42775371D01*
X224298751Y-43013466D01*
X224251132Y-43108704D01*
X224203513Y-43156323D01*
X221172380Y-43068704D02*
X220172380Y-43068704D01*
X221172380Y-42497276D02*
X220600952Y-42925847D01*
X220172380Y-42497276D02*
X220743809Y-43068704D01*
X194135751Y-45061085D02*
X193135751Y-45061085D01*
X193135751Y-44822990D01*
X193183371Y-44680133D01*
X193278609Y-44584895D01*
X193373847Y-44537276D01*
X193564323Y-44489657D01*
X193707180Y-44489657D01*
X193897656Y-44537276D01*
X193992894Y-44584895D01*
X194088132Y-44680133D01*
X194135751Y-44822990D01*
X194135751Y-45061085D01*
X193135751Y-43584895D02*
X193135751Y-44061085D01*
X193611942Y-44108704D01*
X193564323Y-44061085D01*
X193516704Y-43965847D01*
X193516704Y-43727752D01*
X193564323Y-43632514D01*
X193611942Y-43584895D01*
X193707180Y-43537276D01*
X193945275Y-43537276D01*
X194040513Y-43584895D01*
X194088132Y-43632514D01*
X194135751Y-43727752D01*
X194135751Y-43965847D01*
X194088132Y-44061085D01*
X194040513Y-44108704D01*
X193469085Y-42680133D02*
X194135751Y-42680133D01*
X193088132Y-42918228D02*
X193802418Y-43156323D01*
X193802418Y-42537276D01*
X191009380Y-43068704D02*
X190009380Y-43068704D01*
X191009380Y-42497276D02*
X190437952Y-42925847D01*
X190009380Y-42497276D02*
X190580809Y-43068704D01*
X167878751Y-59316685D02*
X166878751Y-59316685D01*
X166878751Y-59078590D01*
X166926371Y-58935733D01*
X167021609Y-58840495D01*
X167116847Y-58792876D01*
X167307323Y-58745257D01*
X167450180Y-58745257D01*
X167640656Y-58792876D01*
X167735894Y-58840495D01*
X167831132Y-58935733D01*
X167878751Y-59078590D01*
X167878751Y-59316685D01*
X166878751Y-57840495D02*
X166878751Y-58316685D01*
X167354942Y-58364304D01*
X167307323Y-58316685D01*
X167259704Y-58221447D01*
X167259704Y-57983352D01*
X167307323Y-57888114D01*
X167354942Y-57840495D01*
X167450180Y-57792876D01*
X167688275Y-57792876D01*
X167783513Y-57840495D01*
X167831132Y-57888114D01*
X167878751Y-57983352D01*
X167878751Y-58221447D01*
X167831132Y-58316685D01*
X167783513Y-58364304D01*
X166878751Y-57459542D02*
X166878751Y-56840495D01*
X167259704Y-57173828D01*
X167259704Y-57030971D01*
X167307323Y-56935733D01*
X167354942Y-56888114D01*
X167450180Y-56840495D01*
X167688275Y-56840495D01*
X167783513Y-56888114D01*
X167831132Y-56935733D01*
X167878751Y-57030971D01*
X167878751Y-57316685D01*
X167831132Y-57411923D01*
X167783513Y-57459542D01*
X164752380Y-57324304D02*
X163752380Y-57324304D01*
X164752380Y-56752876D02*
X164180952Y-57181447D01*
X163752380Y-56752876D02*
X164323809Y-57324304D01*
X167941751Y-45061085D02*
X166941751Y-45061085D01*
X166941751Y-44822990D01*
X166989371Y-44680133D01*
X167084609Y-44584895D01*
X167179847Y-44537276D01*
X167370323Y-44489657D01*
X167513180Y-44489657D01*
X167703656Y-44537276D01*
X167798894Y-44584895D01*
X167894132Y-44680133D01*
X167941751Y-44822990D01*
X167941751Y-45061085D01*
X166941751Y-43584895D02*
X166941751Y-44061085D01*
X167417942Y-44108704D01*
X167370323Y-44061085D01*
X167322704Y-43965847D01*
X167322704Y-43727752D01*
X167370323Y-43632514D01*
X167417942Y-43584895D01*
X167513180Y-43537276D01*
X167751275Y-43537276D01*
X167846513Y-43584895D01*
X167894132Y-43632514D01*
X167941751Y-43727752D01*
X167941751Y-43965847D01*
X167894132Y-44061085D01*
X167846513Y-44108704D01*
X167036990Y-43156323D02*
X166989371Y-43108704D01*
X166941751Y-43013466D01*
X166941751Y-42775371D01*
X166989371Y-42680133D01*
X167036990Y-42632514D01*
X167132228Y-42584895D01*
X167227466Y-42584895D01*
X167370323Y-42632514D01*
X167941751Y-43203942D01*
X167941751Y-42584895D01*
X164815380Y-43068704D02*
X163815380Y-43068704D01*
X164815380Y-42497276D02*
X164243952Y-42925847D01*
X163815380Y-42497276D02*
X164386809Y-43068704D01*
X137716751Y-59316685D02*
X136716751Y-59316685D01*
X136716751Y-59078590D01*
X136764371Y-58935733D01*
X136859609Y-58840495D01*
X136954847Y-58792876D01*
X137145323Y-58745257D01*
X137288180Y-58745257D01*
X137478656Y-58792876D01*
X137573894Y-58840495D01*
X137669132Y-58935733D01*
X137716751Y-59078590D01*
X137716751Y-59316685D01*
X136716751Y-57840495D02*
X136716751Y-58316685D01*
X137192942Y-58364304D01*
X137145323Y-58316685D01*
X137097704Y-58221447D01*
X137097704Y-57983352D01*
X137145323Y-57888114D01*
X137192942Y-57840495D01*
X137288180Y-57792876D01*
X137526275Y-57792876D01*
X137621513Y-57840495D01*
X137669132Y-57888114D01*
X137716751Y-57983352D01*
X137716751Y-58221447D01*
X137669132Y-58316685D01*
X137621513Y-58364304D01*
X137716751Y-56840495D02*
X137716751Y-57411923D01*
X137716751Y-57126209D02*
X136716751Y-57126209D01*
X136859609Y-57221447D01*
X136954847Y-57316685D01*
X137002466Y-57411923D01*
X134590380Y-57324304D02*
X133590380Y-57324304D01*
X134590380Y-56752876D02*
X134018952Y-57181447D01*
X133590380Y-56752876D02*
X134161809Y-57324304D01*
X137779751Y-45061085D02*
X136779751Y-45061085D01*
X136779751Y-44822990D01*
X136827371Y-44680133D01*
X136922609Y-44584895D01*
X137017847Y-44537276D01*
X137208323Y-44489657D01*
X137351180Y-44489657D01*
X137541656Y-44537276D01*
X137636894Y-44584895D01*
X137732132Y-44680133D01*
X137779751Y-44822990D01*
X137779751Y-45061085D01*
X136779751Y-43584895D02*
X136779751Y-44061085D01*
X137255942Y-44108704D01*
X137208323Y-44061085D01*
X137160704Y-43965847D01*
X137160704Y-43727752D01*
X137208323Y-43632514D01*
X137255942Y-43584895D01*
X137351180Y-43537276D01*
X137589275Y-43537276D01*
X137684513Y-43584895D01*
X137732132Y-43632514D01*
X137779751Y-43727752D01*
X137779751Y-43965847D01*
X137732132Y-44061085D01*
X137684513Y-44108704D01*
X136779751Y-42918228D02*
X136779751Y-42822990D01*
X136827371Y-42727752D01*
X136874990Y-42680133D01*
X136970228Y-42632514D01*
X137160704Y-42584895D01*
X137398799Y-42584895D01*
X137589275Y-42632514D01*
X137684513Y-42680133D01*
X137732132Y-42727752D01*
X137779751Y-42822990D01*
X137779751Y-42918228D01*
X137732132Y-43013466D01*
X137684513Y-43061085D01*
X137589275Y-43108704D01*
X137398799Y-43156323D01*
X137160704Y-43156323D01*
X136970228Y-43108704D01*
X136874990Y-43061085D01*
X136827371Y-43013466D01*
X136779751Y-42918228D01*
X134653380Y-43068704D02*
X133653380Y-43068704D01*
X134653380Y-42497276D02*
X134081952Y-42925847D01*
X133653380Y-42497276D02*
X134224809Y-43068704D01*
X109998751Y-45048485D02*
X108998751Y-45048485D01*
X108998751Y-44810390D01*
X109046371Y-44667533D01*
X109141609Y-44572295D01*
X109236847Y-44524676D01*
X109427323Y-44477057D01*
X109570180Y-44477057D01*
X109760656Y-44524676D01*
X109855894Y-44572295D01*
X109951132Y-44667533D01*
X109998751Y-44810390D01*
X109998751Y-45048485D01*
X109332085Y-43619914D02*
X109998751Y-43619914D01*
X108951132Y-43858009D02*
X109665418Y-44096104D01*
X109665418Y-43477057D01*
X109998751Y-43048485D02*
X109998751Y-42858009D01*
X109951132Y-42762771D01*
X109903513Y-42715152D01*
X109760656Y-42619914D01*
X109570180Y-42572295D01*
X109189228Y-42572295D01*
X109093990Y-42619914D01*
X109046371Y-42667533D01*
X108998751Y-42762771D01*
X108998751Y-42953247D01*
X109046371Y-43048485D01*
X109093990Y-43096104D01*
X109189228Y-43143723D01*
X109427323Y-43143723D01*
X109522561Y-43096104D01*
X109570180Y-43048485D01*
X109617799Y-42953247D01*
X109617799Y-42762771D01*
X109570180Y-42667533D01*
X109522561Y-42619914D01*
X109427323Y-42572295D01*
X106872380Y-43056104D02*
X105872380Y-43056104D01*
X106872380Y-42484676D02*
X106300952Y-42913247D01*
X105872380Y-42484676D02*
X106443809Y-43056104D01*
X273446751Y-59316685D02*
X272446751Y-59316685D01*
X272446751Y-59078590D01*
X272494371Y-58935733D01*
X272589609Y-58840495D01*
X272684847Y-58792876D01*
X272875323Y-58745257D01*
X273018180Y-58745257D01*
X273208656Y-58792876D01*
X273303894Y-58840495D01*
X273399132Y-58935733D01*
X273446751Y-59078590D01*
X273446751Y-59316685D01*
X272780085Y-57888114D02*
X273446751Y-57888114D01*
X272399132Y-58126209D02*
X273113418Y-58364304D01*
X273113418Y-57745257D01*
X272446751Y-57459542D02*
X272446751Y-56792876D01*
X273446751Y-57221447D01*
X270320380Y-57324304D02*
X269320380Y-57324304D01*
X270320380Y-56752876D02*
X269748952Y-57181447D01*
X269320380Y-56752876D02*
X269891809Y-57324304D01*
X303609751Y-59316685D02*
X302609751Y-59316685D01*
X302609751Y-59078590D01*
X302657371Y-58935733D01*
X302752609Y-58840495D01*
X302847847Y-58792876D01*
X303038323Y-58745257D01*
X303181180Y-58745257D01*
X303371656Y-58792876D01*
X303466894Y-58840495D01*
X303562132Y-58935733D01*
X303609751Y-59078590D01*
X303609751Y-59316685D01*
X302943085Y-57888114D02*
X303609751Y-57888114D01*
X302562132Y-58126209D02*
X303276418Y-58364304D01*
X303276418Y-57745257D01*
X302609751Y-56935733D02*
X302609751Y-57126209D01*
X302657371Y-57221447D01*
X302704990Y-57269066D01*
X302847847Y-57364304D01*
X303038323Y-57411923D01*
X303419275Y-57411923D01*
X303514513Y-57364304D01*
X303562132Y-57316685D01*
X303609751Y-57221447D01*
X303609751Y-57030971D01*
X303562132Y-56935733D01*
X303514513Y-56888114D01*
X303419275Y-56840495D01*
X303181180Y-56840495D01*
X303085942Y-56888114D01*
X303038323Y-56935733D01*
X302990704Y-57030971D01*
X302990704Y-57221447D01*
X303038323Y-57316685D01*
X303085942Y-57364304D01*
X303181180Y-57411923D01*
X300483380Y-57324304D02*
X299483380Y-57324304D01*
X300483380Y-56752876D02*
X299911952Y-57181447D01*
X299483380Y-56752876D02*
X300054809Y-57324304D01*
X277479751Y-45061085D02*
X276479751Y-45061085D01*
X276479751Y-44822990D01*
X276527371Y-44680133D01*
X276622609Y-44584895D01*
X276717847Y-44537276D01*
X276908323Y-44489657D01*
X277051180Y-44489657D01*
X277241656Y-44537276D01*
X277336894Y-44584895D01*
X277432132Y-44680133D01*
X277479751Y-44822990D01*
X277479751Y-45061085D01*
X276813085Y-43632514D02*
X277479751Y-43632514D01*
X276432132Y-43870609D02*
X277146418Y-44108704D01*
X277146418Y-43489657D01*
X276479751Y-42632514D02*
X276479751Y-43108704D01*
X276955942Y-43156323D01*
X276908323Y-43108704D01*
X276860704Y-43013466D01*
X276860704Y-42775371D01*
X276908323Y-42680133D01*
X276955942Y-42632514D01*
X277051180Y-42584895D01*
X277289275Y-42584895D01*
X277384513Y-42632514D01*
X277432132Y-42680133D01*
X277479751Y-42775371D01*
X277479751Y-43013466D01*
X277432132Y-43108704D01*
X277384513Y-43156323D01*
X274353380Y-43068704D02*
X273353380Y-43068704D01*
X274353380Y-42497276D02*
X273781952Y-42925847D01*
X273353380Y-42497276D02*
X273924809Y-43068704D01*
X247254751Y-59316685D02*
X246254751Y-59316685D01*
X246254751Y-59078590D01*
X246302371Y-58935733D01*
X246397609Y-58840495D01*
X246492847Y-58792876D01*
X246683323Y-58745257D01*
X246826180Y-58745257D01*
X247016656Y-58792876D01*
X247111894Y-58840495D01*
X247207132Y-58935733D01*
X247254751Y-59078590D01*
X247254751Y-59316685D01*
X246588085Y-57888114D02*
X247254751Y-57888114D01*
X246207132Y-58126209D02*
X246921418Y-58364304D01*
X246921418Y-57745257D01*
X246588085Y-56935733D02*
X247254751Y-56935733D01*
X246207132Y-57173828D02*
X246921418Y-57411923D01*
X246921418Y-56792876D01*
X244128380Y-57324304D02*
X243128380Y-57324304D01*
X244128380Y-56752876D02*
X243556952Y-57181447D01*
X243128380Y-56752876D02*
X243699809Y-57324304D01*
X247318751Y-45061085D02*
X246318751Y-45061085D01*
X246318751Y-44822990D01*
X246366371Y-44680133D01*
X246461609Y-44584895D01*
X246556847Y-44537276D01*
X246747323Y-44489657D01*
X246890180Y-44489657D01*
X247080656Y-44537276D01*
X247175894Y-44584895D01*
X247271132Y-44680133D01*
X247318751Y-44822990D01*
X247318751Y-45061085D01*
X246652085Y-43632514D02*
X247318751Y-43632514D01*
X246271132Y-43870609D02*
X246985418Y-44108704D01*
X246985418Y-43489657D01*
X246318751Y-43203942D02*
X246318751Y-42584895D01*
X246699704Y-42918228D01*
X246699704Y-42775371D01*
X246747323Y-42680133D01*
X246794942Y-42632514D01*
X246890180Y-42584895D01*
X247128275Y-42584895D01*
X247223513Y-42632514D01*
X247271132Y-42680133D01*
X247318751Y-42775371D01*
X247318751Y-43061085D01*
X247271132Y-43156323D01*
X247223513Y-43203942D01*
X244192380Y-43068704D02*
X243192380Y-43068704D01*
X244192380Y-42497276D02*
X243620952Y-42925847D01*
X243192380Y-42497276D02*
X243763809Y-43068704D01*
X190103751Y-59316685D02*
X189103751Y-59316685D01*
X189103751Y-59078590D01*
X189151371Y-58935733D01*
X189246609Y-58840495D01*
X189341847Y-58792876D01*
X189532323Y-58745257D01*
X189675180Y-58745257D01*
X189865656Y-58792876D01*
X189960894Y-58840495D01*
X190056132Y-58935733D01*
X190103751Y-59078590D01*
X190103751Y-59316685D01*
X189437085Y-57888114D02*
X190103751Y-57888114D01*
X189056132Y-58126209D02*
X189770418Y-58364304D01*
X189770418Y-57745257D01*
X189198990Y-57411923D02*
X189151371Y-57364304D01*
X189103751Y-57269066D01*
X189103751Y-57030971D01*
X189151371Y-56935733D01*
X189198990Y-56888114D01*
X189294228Y-56840495D01*
X189389466Y-56840495D01*
X189532323Y-56888114D01*
X190103751Y-57459542D01*
X190103751Y-56840495D01*
X186977380Y-57324304D02*
X185977380Y-57324304D01*
X186977380Y-56752876D02*
X186405952Y-57181447D01*
X185977380Y-56752876D02*
X186548809Y-57324304D01*
X303673751Y-45061085D02*
X302673751Y-45061085D01*
X302673751Y-44822990D01*
X302721371Y-44680133D01*
X302816609Y-44584895D01*
X302911847Y-44537276D01*
X303102323Y-44489657D01*
X303245180Y-44489657D01*
X303435656Y-44537276D01*
X303530894Y-44584895D01*
X303626132Y-44680133D01*
X303673751Y-44822990D01*
X303673751Y-45061085D01*
X303007085Y-43632514D02*
X303673751Y-43632514D01*
X302626132Y-43870609D02*
X303340418Y-44108704D01*
X303340418Y-43489657D01*
X303673751Y-42584895D02*
X303673751Y-43156323D01*
X303673751Y-42870609D02*
X302673751Y-42870609D01*
X302816609Y-42965847D01*
X302911847Y-43061085D01*
X302959466Y-43156323D01*
X300547380Y-43068704D02*
X299547380Y-43068704D01*
X300547380Y-42497276D02*
X299975952Y-42925847D01*
X299547380Y-42497276D02*
X300118809Y-43068704D01*
X220265751Y-59316685D02*
X219265751Y-59316685D01*
X219265751Y-59078590D01*
X219313371Y-58935733D01*
X219408609Y-58840495D01*
X219503847Y-58792876D01*
X219694323Y-58745257D01*
X219837180Y-58745257D01*
X220027656Y-58792876D01*
X220122894Y-58840495D01*
X220218132Y-58935733D01*
X220265751Y-59078590D01*
X220265751Y-59316685D01*
X219599085Y-57888114D02*
X220265751Y-57888114D01*
X219218132Y-58126209D02*
X219932418Y-58364304D01*
X219932418Y-57745257D01*
X219265751Y-57173828D02*
X219265751Y-57078590D01*
X219313371Y-56983352D01*
X219360990Y-56935733D01*
X219456228Y-56888114D01*
X219646704Y-56840495D01*
X219884799Y-56840495D01*
X220075275Y-56888114D01*
X220170513Y-56935733D01*
X220218132Y-56983352D01*
X220265751Y-57078590D01*
X220265751Y-57173828D01*
X220218132Y-57269066D01*
X220170513Y-57316685D01*
X220075275Y-57364304D01*
X219884799Y-57411923D01*
X219646704Y-57411923D01*
X219456228Y-57364304D01*
X219360990Y-57316685D01*
X219313371Y-57269066D01*
X219265751Y-57173828D01*
X217139380Y-57324304D02*
X216139380Y-57324304D01*
X217139380Y-56752876D02*
X216567952Y-57181447D01*
X216139380Y-56752876D02*
X216710809Y-57324304D01*
X220329751Y-45061085D02*
X219329751Y-45061085D01*
X219329751Y-44822990D01*
X219377371Y-44680133D01*
X219472609Y-44584895D01*
X219567847Y-44537276D01*
X219758323Y-44489657D01*
X219901180Y-44489657D01*
X220091656Y-44537276D01*
X220186894Y-44584895D01*
X220282132Y-44680133D01*
X220329751Y-44822990D01*
X220329751Y-45061085D01*
X219329751Y-44156323D02*
X219329751Y-43537276D01*
X219710704Y-43870609D01*
X219710704Y-43727752D01*
X219758323Y-43632514D01*
X219805942Y-43584895D01*
X219901180Y-43537276D01*
X220139275Y-43537276D01*
X220234513Y-43584895D01*
X220282132Y-43632514D01*
X220329751Y-43727752D01*
X220329751Y-44013466D01*
X220282132Y-44108704D01*
X220234513Y-44156323D01*
X220329751Y-43061085D02*
X220329751Y-42870609D01*
X220282132Y-42775371D01*
X220234513Y-42727752D01*
X220091656Y-42632514D01*
X219901180Y-42584895D01*
X219520228Y-42584895D01*
X219424990Y-42632514D01*
X219377371Y-42680133D01*
X219329751Y-42775371D01*
X219329751Y-42965847D01*
X219377371Y-43061085D01*
X219424990Y-43108704D01*
X219520228Y-43156323D01*
X219758323Y-43156323D01*
X219853561Y-43108704D01*
X219901180Y-43061085D01*
X219948799Y-42965847D01*
X219948799Y-42775371D01*
X219901180Y-42680133D01*
X219853561Y-42632514D01*
X219758323Y-42584895D01*
X217203380Y-43068704D02*
X216203380Y-43068704D01*
X217203380Y-42497276D02*
X216631952Y-42925847D01*
X216203380Y-42497276D02*
X216774809Y-43068704D01*
X190166751Y-45061085D02*
X189166751Y-45061085D01*
X189166751Y-44822990D01*
X189214371Y-44680133D01*
X189309609Y-44584895D01*
X189404847Y-44537276D01*
X189595323Y-44489657D01*
X189738180Y-44489657D01*
X189928656Y-44537276D01*
X190023894Y-44584895D01*
X190119132Y-44680133D01*
X190166751Y-44822990D01*
X190166751Y-45061085D01*
X189166751Y-44156323D02*
X189166751Y-43537276D01*
X189547704Y-43870609D01*
X189547704Y-43727752D01*
X189595323Y-43632514D01*
X189642942Y-43584895D01*
X189738180Y-43537276D01*
X189976275Y-43537276D01*
X190071513Y-43584895D01*
X190119132Y-43632514D01*
X190166751Y-43727752D01*
X190166751Y-44013466D01*
X190119132Y-44108704D01*
X190071513Y-44156323D01*
X189595323Y-42965847D02*
X189547704Y-43061085D01*
X189500085Y-43108704D01*
X189404847Y-43156323D01*
X189357228Y-43156323D01*
X189261990Y-43108704D01*
X189214371Y-43061085D01*
X189166751Y-42965847D01*
X189166751Y-42775371D01*
X189214371Y-42680133D01*
X189261990Y-42632514D01*
X189357228Y-42584895D01*
X189404847Y-42584895D01*
X189500085Y-42632514D01*
X189547704Y-42680133D01*
X189595323Y-42775371D01*
X189595323Y-42965847D01*
X189642942Y-43061085D01*
X189690561Y-43108704D01*
X189785799Y-43156323D01*
X189976275Y-43156323D01*
X190071513Y-43108704D01*
X190119132Y-43061085D01*
X190166751Y-42965847D01*
X190166751Y-42775371D01*
X190119132Y-42680133D01*
X190071513Y-42632514D01*
X189976275Y-42584895D01*
X189785799Y-42584895D01*
X189690561Y-42632514D01*
X189642942Y-42680133D01*
X189595323Y-42775371D01*
X187040380Y-43068704D02*
X186040380Y-43068704D01*
X187040380Y-42497276D02*
X186468952Y-42925847D01*
X186040380Y-42497276D02*
X186611809Y-43068704D01*
X163910751Y-59316685D02*
X162910751Y-59316685D01*
X162910751Y-59078590D01*
X162958371Y-58935733D01*
X163053609Y-58840495D01*
X163148847Y-58792876D01*
X163339323Y-58745257D01*
X163482180Y-58745257D01*
X163672656Y-58792876D01*
X163767894Y-58840495D01*
X163863132Y-58935733D01*
X163910751Y-59078590D01*
X163910751Y-59316685D01*
X162910751Y-58411923D02*
X162910751Y-57792876D01*
X163291704Y-58126209D01*
X163291704Y-57983352D01*
X163339323Y-57888114D01*
X163386942Y-57840495D01*
X163482180Y-57792876D01*
X163720275Y-57792876D01*
X163815513Y-57840495D01*
X163863132Y-57888114D01*
X163910751Y-57983352D01*
X163910751Y-58269066D01*
X163863132Y-58364304D01*
X163815513Y-58411923D01*
X162910751Y-57459542D02*
X162910751Y-56792876D01*
X163910751Y-57221447D01*
X160784380Y-57324304D02*
X159784380Y-57324304D01*
X160784380Y-56752876D02*
X160212952Y-57181447D01*
X159784380Y-56752876D02*
X160355809Y-57324304D01*
X163974751Y-45061085D02*
X162974751Y-45061085D01*
X162974751Y-44822990D01*
X163022371Y-44680133D01*
X163117609Y-44584895D01*
X163212847Y-44537276D01*
X163403323Y-44489657D01*
X163546180Y-44489657D01*
X163736656Y-44537276D01*
X163831894Y-44584895D01*
X163927132Y-44680133D01*
X163974751Y-44822990D01*
X163974751Y-45061085D01*
X162974751Y-44156323D02*
X162974751Y-43537276D01*
X163355704Y-43870609D01*
X163355704Y-43727752D01*
X163403323Y-43632514D01*
X163450942Y-43584895D01*
X163546180Y-43537276D01*
X163784275Y-43537276D01*
X163879513Y-43584895D01*
X163927132Y-43632514D01*
X163974751Y-43727752D01*
X163974751Y-44013466D01*
X163927132Y-44108704D01*
X163879513Y-44156323D01*
X162974751Y-42680133D02*
X162974751Y-42870609D01*
X163022371Y-42965847D01*
X163069990Y-43013466D01*
X163212847Y-43108704D01*
X163403323Y-43156323D01*
X163784275Y-43156323D01*
X163879513Y-43108704D01*
X163927132Y-43061085D01*
X163974751Y-42965847D01*
X163974751Y-42775371D01*
X163927132Y-42680133D01*
X163879513Y-42632514D01*
X163784275Y-42584895D01*
X163546180Y-42584895D01*
X163450942Y-42632514D01*
X163403323Y-42680133D01*
X163355704Y-42775371D01*
X163355704Y-42965847D01*
X163403323Y-43061085D01*
X163450942Y-43108704D01*
X163546180Y-43156323D01*
X160848380Y-43068704D02*
X159848380Y-43068704D01*
X160848380Y-42497276D02*
X160276952Y-42925847D01*
X159848380Y-42497276D02*
X160419809Y-43068704D01*
X133747751Y-59316685D02*
X132747751Y-59316685D01*
X132747751Y-59078590D01*
X132795371Y-58935733D01*
X132890609Y-58840495D01*
X132985847Y-58792876D01*
X133176323Y-58745257D01*
X133319180Y-58745257D01*
X133509656Y-58792876D01*
X133604894Y-58840495D01*
X133700132Y-58935733D01*
X133747751Y-59078590D01*
X133747751Y-59316685D01*
X132747751Y-58411923D02*
X132747751Y-57792876D01*
X133128704Y-58126209D01*
X133128704Y-57983352D01*
X133176323Y-57888114D01*
X133223942Y-57840495D01*
X133319180Y-57792876D01*
X133557275Y-57792876D01*
X133652513Y-57840495D01*
X133700132Y-57888114D01*
X133747751Y-57983352D01*
X133747751Y-58269066D01*
X133700132Y-58364304D01*
X133652513Y-58411923D01*
X132747751Y-56888114D02*
X132747751Y-57364304D01*
X133223942Y-57411923D01*
X133176323Y-57364304D01*
X133128704Y-57269066D01*
X133128704Y-57030971D01*
X133176323Y-56935733D01*
X133223942Y-56888114D01*
X133319180Y-56840495D01*
X133557275Y-56840495D01*
X133652513Y-56888114D01*
X133700132Y-56935733D01*
X133747751Y-57030971D01*
X133747751Y-57269066D01*
X133700132Y-57364304D01*
X133652513Y-57411923D01*
X130621380Y-57324304D02*
X129621380Y-57324304D01*
X130621380Y-56752876D02*
X130049952Y-57181447D01*
X129621380Y-56752876D02*
X130192809Y-57324304D01*
X133810751Y-45061085D02*
X132810751Y-45061085D01*
X132810751Y-44822990D01*
X132858371Y-44680133D01*
X132953609Y-44584895D01*
X133048847Y-44537276D01*
X133239323Y-44489657D01*
X133382180Y-44489657D01*
X133572656Y-44537276D01*
X133667894Y-44584895D01*
X133763132Y-44680133D01*
X133810751Y-44822990D01*
X133810751Y-45061085D01*
X132810751Y-44156323D02*
X132810751Y-43537276D01*
X133191704Y-43870609D01*
X133191704Y-43727752D01*
X133239323Y-43632514D01*
X133286942Y-43584895D01*
X133382180Y-43537276D01*
X133620275Y-43537276D01*
X133715513Y-43584895D01*
X133763132Y-43632514D01*
X133810751Y-43727752D01*
X133810751Y-44013466D01*
X133763132Y-44108704D01*
X133715513Y-44156323D01*
X133144085Y-42680133D02*
X133810751Y-42680133D01*
X132763132Y-42918228D02*
X133477418Y-43156323D01*
X133477418Y-42537276D01*
X130684380Y-43068704D02*
X129684380Y-43068704D01*
X130684380Y-42497276D02*
X130112952Y-42925847D01*
X129684380Y-42497276D02*
X130255809Y-43068704D01*
X106029751Y-45061085D02*
X105029751Y-45061085D01*
X105029751Y-44822990D01*
X105077371Y-44680133D01*
X105172609Y-44584895D01*
X105267847Y-44537276D01*
X105458323Y-44489657D01*
X105601180Y-44489657D01*
X105791656Y-44537276D01*
X105886894Y-44584895D01*
X105982132Y-44680133D01*
X106029751Y-44822990D01*
X106029751Y-45061085D01*
X105029751Y-44156323D02*
X105029751Y-43537276D01*
X105410704Y-43870609D01*
X105410704Y-43727752D01*
X105458323Y-43632514D01*
X105505942Y-43584895D01*
X105601180Y-43537276D01*
X105839275Y-43537276D01*
X105934513Y-43584895D01*
X105982132Y-43632514D01*
X106029751Y-43727752D01*
X106029751Y-44013466D01*
X105982132Y-44108704D01*
X105934513Y-44156323D01*
X105029751Y-43203942D02*
X105029751Y-42584895D01*
X105410704Y-42918228D01*
X105410704Y-42775371D01*
X105458323Y-42680133D01*
X105505942Y-42632514D01*
X105601180Y-42584895D01*
X105839275Y-42584895D01*
X105934513Y-42632514D01*
X105982132Y-42680133D01*
X106029751Y-42775371D01*
X106029751Y-43061085D01*
X105982132Y-43156323D01*
X105934513Y-43203942D01*
X102903380Y-43068704D02*
X101903380Y-43068704D01*
X102903380Y-42497276D02*
X102331952Y-42925847D01*
X101903380Y-42497276D02*
X102474809Y-43068704D01*
X269478751Y-59316685D02*
X268478751Y-59316685D01*
X268478751Y-59078590D01*
X268526371Y-58935733D01*
X268621609Y-58840495D01*
X268716847Y-58792876D01*
X268907323Y-58745257D01*
X269050180Y-58745257D01*
X269240656Y-58792876D01*
X269335894Y-58840495D01*
X269431132Y-58935733D01*
X269478751Y-59078590D01*
X269478751Y-59316685D01*
X268478751Y-58411923D02*
X268478751Y-57792876D01*
X268859704Y-58126209D01*
X268859704Y-57983352D01*
X268907323Y-57888114D01*
X268954942Y-57840495D01*
X269050180Y-57792876D01*
X269288275Y-57792876D01*
X269383513Y-57840495D01*
X269431132Y-57888114D01*
X269478751Y-57983352D01*
X269478751Y-58269066D01*
X269431132Y-58364304D01*
X269383513Y-58411923D01*
X269478751Y-56840495D02*
X269478751Y-57411923D01*
X269478751Y-57126209D02*
X268478751Y-57126209D01*
X268621609Y-57221447D01*
X268716847Y-57316685D01*
X268764466Y-57411923D01*
X266352380Y-57324304D02*
X265352380Y-57324304D01*
X266352380Y-56752876D02*
X265780952Y-57181447D01*
X265352380Y-56752876D02*
X265923809Y-57324304D01*
X299641751Y-59316685D02*
X298641751Y-59316685D01*
X298641751Y-59078590D01*
X298689371Y-58935733D01*
X298784609Y-58840495D01*
X298879847Y-58792876D01*
X299070323Y-58745257D01*
X299213180Y-58745257D01*
X299403656Y-58792876D01*
X299498894Y-58840495D01*
X299594132Y-58935733D01*
X299641751Y-59078590D01*
X299641751Y-59316685D01*
X298641751Y-58411923D02*
X298641751Y-57792876D01*
X299022704Y-58126209D01*
X299022704Y-57983352D01*
X299070323Y-57888114D01*
X299117942Y-57840495D01*
X299213180Y-57792876D01*
X299451275Y-57792876D01*
X299546513Y-57840495D01*
X299594132Y-57888114D01*
X299641751Y-57983352D01*
X299641751Y-58269066D01*
X299594132Y-58364304D01*
X299546513Y-58411923D01*
X298641751Y-57173828D02*
X298641751Y-57078590D01*
X298689371Y-56983352D01*
X298736990Y-56935733D01*
X298832228Y-56888114D01*
X299022704Y-56840495D01*
X299260799Y-56840495D01*
X299451275Y-56888114D01*
X299546513Y-56935733D01*
X299594132Y-56983352D01*
X299641751Y-57078590D01*
X299641751Y-57173828D01*
X299594132Y-57269066D01*
X299546513Y-57316685D01*
X299451275Y-57364304D01*
X299260799Y-57411923D01*
X299022704Y-57411923D01*
X298832228Y-57364304D01*
X298736990Y-57316685D01*
X298689371Y-57269066D01*
X298641751Y-57173828D01*
X296515380Y-57324304D02*
X295515380Y-57324304D01*
X296515380Y-56752876D02*
X295943952Y-57181447D01*
X295515380Y-56752876D02*
X296086809Y-57324304D01*
X273509751Y-45061085D02*
X272509751Y-45061085D01*
X272509751Y-44822990D01*
X272557371Y-44680133D01*
X272652609Y-44584895D01*
X272747847Y-44537276D01*
X272938323Y-44489657D01*
X273081180Y-44489657D01*
X273271656Y-44537276D01*
X273366894Y-44584895D01*
X273462132Y-44680133D01*
X273509751Y-44822990D01*
X273509751Y-45061085D01*
X272604990Y-44108704D02*
X272557371Y-44061085D01*
X272509751Y-43965847D01*
X272509751Y-43727752D01*
X272557371Y-43632514D01*
X272604990Y-43584895D01*
X272700228Y-43537276D01*
X272795466Y-43537276D01*
X272938323Y-43584895D01*
X273509751Y-44156323D01*
X273509751Y-43537276D01*
X273509751Y-43061085D02*
X273509751Y-42870609D01*
X273462132Y-42775371D01*
X273414513Y-42727752D01*
X273271656Y-42632514D01*
X273081180Y-42584895D01*
X272700228Y-42584895D01*
X272604990Y-42632514D01*
X272557371Y-42680133D01*
X272509751Y-42775371D01*
X272509751Y-42965847D01*
X272557371Y-43061085D01*
X272604990Y-43108704D01*
X272700228Y-43156323D01*
X272938323Y-43156323D01*
X273033561Y-43108704D01*
X273081180Y-43061085D01*
X273128799Y-42965847D01*
X273128799Y-42775371D01*
X273081180Y-42680133D01*
X273033561Y-42632514D01*
X272938323Y-42584895D01*
X270383380Y-43068704D02*
X269383380Y-43068704D01*
X270383380Y-42497276D02*
X269811952Y-42925847D01*
X269383380Y-42497276D02*
X269954809Y-43068704D01*
X243285751Y-59316685D02*
X242285751Y-59316685D01*
X242285751Y-59078590D01*
X242333371Y-58935733D01*
X242428609Y-58840495D01*
X242523847Y-58792876D01*
X242714323Y-58745257D01*
X242857180Y-58745257D01*
X243047656Y-58792876D01*
X243142894Y-58840495D01*
X243238132Y-58935733D01*
X243285751Y-59078590D01*
X243285751Y-59316685D01*
X242380990Y-58364304D02*
X242333371Y-58316685D01*
X242285751Y-58221447D01*
X242285751Y-57983352D01*
X242333371Y-57888114D01*
X242380990Y-57840495D01*
X242476228Y-57792876D01*
X242571466Y-57792876D01*
X242714323Y-57840495D01*
X243285751Y-58411923D01*
X243285751Y-57792876D01*
X242714323Y-57221447D02*
X242666704Y-57316685D01*
X242619085Y-57364304D01*
X242523847Y-57411923D01*
X242476228Y-57411923D01*
X242380990Y-57364304D01*
X242333371Y-57316685D01*
X242285751Y-57221447D01*
X242285751Y-57030971D01*
X242333371Y-56935733D01*
X242380990Y-56888114D01*
X242476228Y-56840495D01*
X242523847Y-56840495D01*
X242619085Y-56888114D01*
X242666704Y-56935733D01*
X242714323Y-57030971D01*
X242714323Y-57221447D01*
X242761942Y-57316685D01*
X242809561Y-57364304D01*
X242904799Y-57411923D01*
X243095275Y-57411923D01*
X243190513Y-57364304D01*
X243238132Y-57316685D01*
X243285751Y-57221447D01*
X243285751Y-57030971D01*
X243238132Y-56935733D01*
X243190513Y-56888114D01*
X243095275Y-56840495D01*
X242904799Y-56840495D01*
X242809561Y-56888114D01*
X242761942Y-56935733D01*
X242714323Y-57030971D01*
X240159380Y-57324304D02*
X239159380Y-57324304D01*
X240159380Y-56752876D02*
X239587952Y-57181447D01*
X239159380Y-56752876D02*
X239730809Y-57324304D01*
X243348751Y-45061085D02*
X242348751Y-45061085D01*
X242348751Y-44822990D01*
X242396371Y-44680133D01*
X242491609Y-44584895D01*
X242586847Y-44537276D01*
X242777323Y-44489657D01*
X242920180Y-44489657D01*
X243110656Y-44537276D01*
X243205894Y-44584895D01*
X243301132Y-44680133D01*
X243348751Y-44822990D01*
X243348751Y-45061085D01*
X242443990Y-44108704D02*
X242396371Y-44061085D01*
X242348751Y-43965847D01*
X242348751Y-43727752D01*
X242396371Y-43632514D01*
X242443990Y-43584895D01*
X242539228Y-43537276D01*
X242634466Y-43537276D01*
X242777323Y-43584895D01*
X243348751Y-44156323D01*
X243348751Y-43537276D01*
X242348751Y-43203942D02*
X242348751Y-42537276D01*
X243348751Y-42965847D01*
X240222380Y-43068704D02*
X239222380Y-43068704D01*
X240222380Y-42497276D02*
X239650952Y-42925847D01*
X239222380Y-42497276D02*
X239793809Y-43068704D01*
X186134751Y-59316685D02*
X185134751Y-59316685D01*
X185134751Y-59078590D01*
X185182371Y-58935733D01*
X185277609Y-58840495D01*
X185372847Y-58792876D01*
X185563323Y-58745257D01*
X185706180Y-58745257D01*
X185896656Y-58792876D01*
X185991894Y-58840495D01*
X186087132Y-58935733D01*
X186134751Y-59078590D01*
X186134751Y-59316685D01*
X185229990Y-58364304D02*
X185182371Y-58316685D01*
X185134751Y-58221447D01*
X185134751Y-57983352D01*
X185182371Y-57888114D01*
X185229990Y-57840495D01*
X185325228Y-57792876D01*
X185420466Y-57792876D01*
X185563323Y-57840495D01*
X186134751Y-58411923D01*
X186134751Y-57792876D01*
X185134751Y-56935733D02*
X185134751Y-57126209D01*
X185182371Y-57221447D01*
X185229990Y-57269066D01*
X185372847Y-57364304D01*
X185563323Y-57411923D01*
X185944275Y-57411923D01*
X186039513Y-57364304D01*
X186087132Y-57316685D01*
X186134751Y-57221447D01*
X186134751Y-57030971D01*
X186087132Y-56935733D01*
X186039513Y-56888114D01*
X185944275Y-56840495D01*
X185706180Y-56840495D01*
X185610942Y-56888114D01*
X185563323Y-56935733D01*
X185515704Y-57030971D01*
X185515704Y-57221447D01*
X185563323Y-57316685D01*
X185610942Y-57364304D01*
X185706180Y-57411923D01*
X183008380Y-57324304D02*
X182008380Y-57324304D01*
X183008380Y-56752876D02*
X182436952Y-57181447D01*
X182008380Y-56752876D02*
X182579809Y-57324304D01*
X299704751Y-45061085D02*
X298704751Y-45061085D01*
X298704751Y-44822990D01*
X298752371Y-44680133D01*
X298847609Y-44584895D01*
X298942847Y-44537276D01*
X299133323Y-44489657D01*
X299276180Y-44489657D01*
X299466656Y-44537276D01*
X299561894Y-44584895D01*
X299657132Y-44680133D01*
X299704751Y-44822990D01*
X299704751Y-45061085D01*
X298799990Y-44108704D02*
X298752371Y-44061085D01*
X298704751Y-43965847D01*
X298704751Y-43727752D01*
X298752371Y-43632514D01*
X298799990Y-43584895D01*
X298895228Y-43537276D01*
X298990466Y-43537276D01*
X299133323Y-43584895D01*
X299704751Y-44156323D01*
X299704751Y-43537276D01*
X298704751Y-42632514D02*
X298704751Y-43108704D01*
X299180942Y-43156323D01*
X299133323Y-43108704D01*
X299085704Y-43013466D01*
X299085704Y-42775371D01*
X299133323Y-42680133D01*
X299180942Y-42632514D01*
X299276180Y-42584895D01*
X299514275Y-42584895D01*
X299609513Y-42632514D01*
X299657132Y-42680133D01*
X299704751Y-42775371D01*
X299704751Y-43013466D01*
X299657132Y-43108704D01*
X299609513Y-43156323D01*
X296578380Y-43068704D02*
X295578380Y-43068704D01*
X296578380Y-42497276D02*
X296006952Y-42925847D01*
X295578380Y-42497276D02*
X296149809Y-43068704D01*
X216297751Y-59316685D02*
X215297751Y-59316685D01*
X215297751Y-59078590D01*
X215345371Y-58935733D01*
X215440609Y-58840495D01*
X215535847Y-58792876D01*
X215726323Y-58745257D01*
X215869180Y-58745257D01*
X216059656Y-58792876D01*
X216154894Y-58840495D01*
X216250132Y-58935733D01*
X216297751Y-59078590D01*
X216297751Y-59316685D01*
X215392990Y-58364304D02*
X215345371Y-58316685D01*
X215297751Y-58221447D01*
X215297751Y-57983352D01*
X215345371Y-57888114D01*
X215392990Y-57840495D01*
X215488228Y-57792876D01*
X215583466Y-57792876D01*
X215726323Y-57840495D01*
X216297751Y-58411923D01*
X216297751Y-57792876D01*
X215631085Y-56935733D02*
X216297751Y-56935733D01*
X215250132Y-57173828D02*
X215964418Y-57411923D01*
X215964418Y-56792876D01*
X213171380Y-57324304D02*
X212171380Y-57324304D01*
X213171380Y-56752876D02*
X212599952Y-57181447D01*
X212171380Y-56752876D02*
X212742809Y-57324304D01*
X216360751Y-45061085D02*
X215360751Y-45061085D01*
X215360751Y-44822990D01*
X215408371Y-44680133D01*
X215503609Y-44584895D01*
X215598847Y-44537276D01*
X215789323Y-44489657D01*
X215932180Y-44489657D01*
X216122656Y-44537276D01*
X216217894Y-44584895D01*
X216313132Y-44680133D01*
X216360751Y-44822990D01*
X216360751Y-45061085D01*
X215455990Y-44108704D02*
X215408371Y-44061085D01*
X215360751Y-43965847D01*
X215360751Y-43727752D01*
X215408371Y-43632514D01*
X215455990Y-43584895D01*
X215551228Y-43537276D01*
X215646466Y-43537276D01*
X215789323Y-43584895D01*
X216360751Y-44156323D01*
X216360751Y-43537276D01*
X215360751Y-43203942D02*
X215360751Y-42584895D01*
X215741704Y-42918228D01*
X215741704Y-42775371D01*
X215789323Y-42680133D01*
X215836942Y-42632514D01*
X215932180Y-42584895D01*
X216170275Y-42584895D01*
X216265513Y-42632514D01*
X216313132Y-42680133D01*
X216360751Y-42775371D01*
X216360751Y-43061085D01*
X216313132Y-43156323D01*
X216265513Y-43203942D01*
X213234380Y-43068704D02*
X212234380Y-43068704D01*
X213234380Y-42497276D02*
X212662952Y-42925847D01*
X212234380Y-42497276D02*
X212805809Y-43068704D01*
X186198751Y-45061085D02*
X185198751Y-45061085D01*
X185198751Y-44822990D01*
X185246371Y-44680133D01*
X185341609Y-44584895D01*
X185436847Y-44537276D01*
X185627323Y-44489657D01*
X185770180Y-44489657D01*
X185960656Y-44537276D01*
X186055894Y-44584895D01*
X186151132Y-44680133D01*
X186198751Y-44822990D01*
X186198751Y-45061085D01*
X185293990Y-44108704D02*
X185246371Y-44061085D01*
X185198751Y-43965847D01*
X185198751Y-43727752D01*
X185246371Y-43632514D01*
X185293990Y-43584895D01*
X185389228Y-43537276D01*
X185484466Y-43537276D01*
X185627323Y-43584895D01*
X186198751Y-44156323D01*
X186198751Y-43537276D01*
X185293990Y-43156323D02*
X185246371Y-43108704D01*
X185198751Y-43013466D01*
X185198751Y-42775371D01*
X185246371Y-42680133D01*
X185293990Y-42632514D01*
X185389228Y-42584895D01*
X185484466Y-42584895D01*
X185627323Y-42632514D01*
X186198751Y-43203942D01*
X186198751Y-42584895D01*
X183072380Y-43068704D02*
X182072380Y-43068704D01*
X183072380Y-42497276D02*
X182500952Y-42925847D01*
X182072380Y-42497276D02*
X182643809Y-43068704D01*
X159941751Y-59316685D02*
X158941751Y-59316685D01*
X158941751Y-59078590D01*
X158989371Y-58935733D01*
X159084609Y-58840495D01*
X159179847Y-58792876D01*
X159370323Y-58745257D01*
X159513180Y-58745257D01*
X159703656Y-58792876D01*
X159798894Y-58840495D01*
X159894132Y-58935733D01*
X159941751Y-59078590D01*
X159941751Y-59316685D01*
X159036990Y-58364304D02*
X158989371Y-58316685D01*
X158941751Y-58221447D01*
X158941751Y-57983352D01*
X158989371Y-57888114D01*
X159036990Y-57840495D01*
X159132228Y-57792876D01*
X159227466Y-57792876D01*
X159370323Y-57840495D01*
X159941751Y-58411923D01*
X159941751Y-57792876D01*
X159941751Y-56840495D02*
X159941751Y-57411923D01*
X159941751Y-57126209D02*
X158941751Y-57126209D01*
X159084609Y-57221447D01*
X159179847Y-57316685D01*
X159227466Y-57411923D01*
X156815380Y-57324304D02*
X155815380Y-57324304D01*
X156815380Y-56752876D02*
X156243952Y-57181447D01*
X155815380Y-56752876D02*
X156386809Y-57324304D01*
X160004751Y-45061085D02*
X159004751Y-45061085D01*
X159004751Y-44822990D01*
X159052371Y-44680133D01*
X159147609Y-44584895D01*
X159242847Y-44537276D01*
X159433323Y-44489657D01*
X159576180Y-44489657D01*
X159766656Y-44537276D01*
X159861894Y-44584895D01*
X159957132Y-44680133D01*
X160004751Y-44822990D01*
X160004751Y-45061085D01*
X159099990Y-44108704D02*
X159052371Y-44061085D01*
X159004751Y-43965847D01*
X159004751Y-43727752D01*
X159052371Y-43632514D01*
X159099990Y-43584895D01*
X159195228Y-43537276D01*
X159290466Y-43537276D01*
X159433323Y-43584895D01*
X160004751Y-44156323D01*
X160004751Y-43537276D01*
X159004751Y-42918228D02*
X159004751Y-42822990D01*
X159052371Y-42727752D01*
X159099990Y-42680133D01*
X159195228Y-42632514D01*
X159385704Y-42584895D01*
X159623799Y-42584895D01*
X159814275Y-42632514D01*
X159909513Y-42680133D01*
X159957132Y-42727752D01*
X160004751Y-42822990D01*
X160004751Y-42918228D01*
X159957132Y-43013466D01*
X159909513Y-43061085D01*
X159814275Y-43108704D01*
X159623799Y-43156323D01*
X159385704Y-43156323D01*
X159195228Y-43108704D01*
X159099990Y-43061085D01*
X159052371Y-43013466D01*
X159004751Y-42918228D01*
X156878380Y-43068704D02*
X155878380Y-43068704D01*
X156878380Y-42497276D02*
X156306952Y-42925847D01*
X155878380Y-42497276D02*
X156449809Y-43068704D01*
X129778751Y-59316685D02*
X128778751Y-59316685D01*
X128778751Y-59078590D01*
X128826371Y-58935733D01*
X128921609Y-58840495D01*
X129016847Y-58792876D01*
X129207323Y-58745257D01*
X129350180Y-58745257D01*
X129540656Y-58792876D01*
X129635894Y-58840495D01*
X129731132Y-58935733D01*
X129778751Y-59078590D01*
X129778751Y-59316685D01*
X129778751Y-57792876D02*
X129778751Y-58364304D01*
X129778751Y-58078590D02*
X128778751Y-58078590D01*
X128921609Y-58173828D01*
X129016847Y-58269066D01*
X129064466Y-58364304D01*
X129778751Y-57316685D02*
X129778751Y-57126209D01*
X129731132Y-57030971D01*
X129683513Y-56983352D01*
X129540656Y-56888114D01*
X129350180Y-56840495D01*
X128969228Y-56840495D01*
X128873990Y-56888114D01*
X128826371Y-56935733D01*
X128778751Y-57030971D01*
X128778751Y-57221447D01*
X128826371Y-57316685D01*
X128873990Y-57364304D01*
X128969228Y-57411923D01*
X129207323Y-57411923D01*
X129302561Y-57364304D01*
X129350180Y-57316685D01*
X129397799Y-57221447D01*
X129397799Y-57030971D01*
X129350180Y-56935733D01*
X129302561Y-56888114D01*
X129207323Y-56840495D01*
X126652380Y-57324304D02*
X125652380Y-57324304D01*
X126652380Y-56752876D02*
X126080952Y-57181447D01*
X125652380Y-56752876D02*
X126223809Y-57324304D01*
X129841751Y-45061085D02*
X128841751Y-45061085D01*
X128841751Y-44822990D01*
X128889371Y-44680133D01*
X128984609Y-44584895D01*
X129079847Y-44537276D01*
X129270323Y-44489657D01*
X129413180Y-44489657D01*
X129603656Y-44537276D01*
X129698894Y-44584895D01*
X129794132Y-44680133D01*
X129841751Y-44822990D01*
X129841751Y-45061085D01*
X129841751Y-43537276D02*
X129841751Y-44108704D01*
X129841751Y-43822990D02*
X128841751Y-43822990D01*
X128984609Y-43918228D01*
X129079847Y-44013466D01*
X129127466Y-44108704D01*
X129270323Y-42965847D02*
X129222704Y-43061085D01*
X129175085Y-43108704D01*
X129079847Y-43156323D01*
X129032228Y-43156323D01*
X128936990Y-43108704D01*
X128889371Y-43061085D01*
X128841751Y-42965847D01*
X128841751Y-42775371D01*
X128889371Y-42680133D01*
X128936990Y-42632514D01*
X129032228Y-42584895D01*
X129079847Y-42584895D01*
X129175085Y-42632514D01*
X129222704Y-42680133D01*
X129270323Y-42775371D01*
X129270323Y-42965847D01*
X129317942Y-43061085D01*
X129365561Y-43108704D01*
X129460799Y-43156323D01*
X129651275Y-43156323D01*
X129746513Y-43108704D01*
X129794132Y-43061085D01*
X129841751Y-42965847D01*
X129841751Y-42775371D01*
X129794132Y-42680133D01*
X129746513Y-42632514D01*
X129651275Y-42584895D01*
X129460799Y-42584895D01*
X129365561Y-42632514D01*
X129317942Y-42680133D01*
X129270323Y-42775371D01*
X126715380Y-43068704D02*
X125715380Y-43068704D01*
X126715380Y-42497276D02*
X126143952Y-42925847D01*
X125715380Y-42497276D02*
X126286809Y-43068704D01*
X102061251Y-45061085D02*
X101061251Y-45061085D01*
X101061251Y-44822990D01*
X101108871Y-44680133D01*
X101204109Y-44584895D01*
X101299347Y-44537276D01*
X101489823Y-44489657D01*
X101632680Y-44489657D01*
X101823156Y-44537276D01*
X101918394Y-44584895D01*
X102013632Y-44680133D01*
X102061251Y-44822990D01*
X102061251Y-45061085D01*
X102061251Y-43537276D02*
X102061251Y-44108704D01*
X102061251Y-43822990D02*
X101061251Y-43822990D01*
X101204109Y-43918228D01*
X101299347Y-44013466D01*
X101346966Y-44108704D01*
X101061251Y-43203942D02*
X101061251Y-42537276D01*
X102061251Y-42965847D01*
X98934880Y-43068704D02*
X97934880Y-43068704D01*
X98934880Y-42497276D02*
X98363452Y-42925847D01*
X97934880Y-42497276D02*
X98506309Y-43068704D01*
X295671751Y-59316685D02*
X294671751Y-59316685D01*
X294671751Y-59078590D01*
X294719371Y-58935733D01*
X294814609Y-58840495D01*
X294909847Y-58792876D01*
X295100323Y-58745257D01*
X295243180Y-58745257D01*
X295433656Y-58792876D01*
X295528894Y-58840495D01*
X295624132Y-58935733D01*
X295671751Y-59078590D01*
X295671751Y-59316685D01*
X295671751Y-57792876D02*
X295671751Y-58364304D01*
X295671751Y-58078590D02*
X294671751Y-58078590D01*
X294814609Y-58173828D01*
X294909847Y-58269066D01*
X294957466Y-58364304D01*
X294671751Y-56888114D02*
X294671751Y-57364304D01*
X295147942Y-57411923D01*
X295100323Y-57364304D01*
X295052704Y-57269066D01*
X295052704Y-57030971D01*
X295100323Y-56935733D01*
X295147942Y-56888114D01*
X295243180Y-56840495D01*
X295481275Y-56840495D01*
X295576513Y-56888114D01*
X295624132Y-56935733D01*
X295671751Y-57030971D01*
X295671751Y-57269066D01*
X295624132Y-57364304D01*
X295576513Y-57411923D01*
X292545380Y-57324304D02*
X291545380Y-57324304D01*
X292545380Y-56752876D02*
X291973952Y-57181447D01*
X291545380Y-56752876D02*
X292116809Y-57324304D01*
X239316751Y-59316685D02*
X238316751Y-59316685D01*
X238316751Y-59078590D01*
X238364371Y-58935733D01*
X238459609Y-58840495D01*
X238554847Y-58792876D01*
X238745323Y-58745257D01*
X238888180Y-58745257D01*
X239078656Y-58792876D01*
X239173894Y-58840495D01*
X239269132Y-58935733D01*
X239316751Y-59078590D01*
X239316751Y-59316685D01*
X239316751Y-57792876D02*
X239316751Y-58364304D01*
X239316751Y-58078590D02*
X238316751Y-58078590D01*
X238459609Y-58173828D01*
X238554847Y-58269066D01*
X238602466Y-58364304D01*
X238316751Y-57459542D02*
X238316751Y-56840495D01*
X238697704Y-57173828D01*
X238697704Y-57030971D01*
X238745323Y-56935733D01*
X238792942Y-56888114D01*
X238888180Y-56840495D01*
X239126275Y-56840495D01*
X239221513Y-56888114D01*
X239269132Y-56935733D01*
X239316751Y-57030971D01*
X239316751Y-57316685D01*
X239269132Y-57411923D01*
X239221513Y-57459542D01*
X236190380Y-57324304D02*
X235190380Y-57324304D01*
X236190380Y-56752876D02*
X235618952Y-57181447D01*
X235190380Y-56752876D02*
X235761809Y-57324304D01*
X239380751Y-45061085D02*
X238380751Y-45061085D01*
X238380751Y-44822990D01*
X238428371Y-44680133D01*
X238523609Y-44584895D01*
X238618847Y-44537276D01*
X238809323Y-44489657D01*
X238952180Y-44489657D01*
X239142656Y-44537276D01*
X239237894Y-44584895D01*
X239333132Y-44680133D01*
X239380751Y-44822990D01*
X239380751Y-45061085D01*
X239380751Y-43537276D02*
X239380751Y-44108704D01*
X239380751Y-43822990D02*
X238380751Y-43822990D01*
X238523609Y-43918228D01*
X238618847Y-44013466D01*
X238666466Y-44108704D01*
X238475990Y-43156323D02*
X238428371Y-43108704D01*
X238380751Y-43013466D01*
X238380751Y-42775371D01*
X238428371Y-42680133D01*
X238475990Y-42632514D01*
X238571228Y-42584895D01*
X238666466Y-42584895D01*
X238809323Y-42632514D01*
X239380751Y-43203942D01*
X239380751Y-42584895D01*
X236254380Y-43068704D02*
X235254380Y-43068704D01*
X236254380Y-42497276D02*
X235682952Y-42925847D01*
X235254380Y-42497276D02*
X235825809Y-43068704D01*
X182166751Y-59316685D02*
X181166751Y-59316685D01*
X181166751Y-59078590D01*
X181214371Y-58935733D01*
X181309609Y-58840495D01*
X181404847Y-58792876D01*
X181595323Y-58745257D01*
X181738180Y-58745257D01*
X181928656Y-58792876D01*
X182023894Y-58840495D01*
X182119132Y-58935733D01*
X182166751Y-59078590D01*
X182166751Y-59316685D01*
X182166751Y-57792876D02*
X182166751Y-58364304D01*
X182166751Y-58078590D02*
X181166751Y-58078590D01*
X181309609Y-58173828D01*
X181404847Y-58269066D01*
X181452466Y-58364304D01*
X182166751Y-56840495D02*
X182166751Y-57411923D01*
X182166751Y-57126209D02*
X181166751Y-57126209D01*
X181309609Y-57221447D01*
X181404847Y-57316685D01*
X181452466Y-57411923D01*
X179040380Y-57324304D02*
X178040380Y-57324304D01*
X179040380Y-56752876D02*
X178468952Y-57181447D01*
X178040380Y-56752876D02*
X178611809Y-57324304D01*
X295735751Y-45061085D02*
X294735751Y-45061085D01*
X294735751Y-44822990D01*
X294783371Y-44680133D01*
X294878609Y-44584895D01*
X294973847Y-44537276D01*
X295164323Y-44489657D01*
X295307180Y-44489657D01*
X295497656Y-44537276D01*
X295592894Y-44584895D01*
X295688132Y-44680133D01*
X295735751Y-44822990D01*
X295735751Y-45061085D01*
X295735751Y-43537276D02*
X295735751Y-44108704D01*
X295735751Y-43822990D02*
X294735751Y-43822990D01*
X294878609Y-43918228D01*
X294973847Y-44013466D01*
X295021466Y-44108704D01*
X294735751Y-42918228D02*
X294735751Y-42822990D01*
X294783371Y-42727752D01*
X294830990Y-42680133D01*
X294926228Y-42632514D01*
X295116704Y-42584895D01*
X295354799Y-42584895D01*
X295545275Y-42632514D01*
X295640513Y-42680133D01*
X295688132Y-42727752D01*
X295735751Y-42822990D01*
X295735751Y-42918228D01*
X295688132Y-43013466D01*
X295640513Y-43061085D01*
X295545275Y-43108704D01*
X295354799Y-43156323D01*
X295116704Y-43156323D01*
X294926228Y-43108704D01*
X294830990Y-43061085D01*
X294783371Y-43013466D01*
X294735751Y-42918228D01*
X292609380Y-43068704D02*
X291609380Y-43068704D01*
X292609380Y-42497276D02*
X292037952Y-42925847D01*
X291609380Y-42497276D02*
X292180809Y-43068704D01*
X212327751Y-58840495D02*
X211327751Y-58840495D01*
X211327751Y-58602400D01*
X211375371Y-58459542D01*
X211470609Y-58364304D01*
X211565847Y-58316685D01*
X211756323Y-58269066D01*
X211899180Y-58269066D01*
X212089656Y-58316685D01*
X212184894Y-58364304D01*
X212280132Y-58459542D01*
X212327751Y-58602400D01*
X212327751Y-58840495D01*
X212327751Y-57792876D02*
X212327751Y-57602400D01*
X212280132Y-57507161D01*
X212232513Y-57459542D01*
X212089656Y-57364304D01*
X211899180Y-57316685D01*
X211518228Y-57316685D01*
X211422990Y-57364304D01*
X211375371Y-57411923D01*
X211327751Y-57507161D01*
X211327751Y-57697638D01*
X211375371Y-57792876D01*
X211422990Y-57840495D01*
X211518228Y-57888114D01*
X211756323Y-57888114D01*
X211851561Y-57840495D01*
X211899180Y-57792876D01*
X211946799Y-57697638D01*
X211946799Y-57507161D01*
X211899180Y-57411923D01*
X211851561Y-57364304D01*
X211756323Y-57316685D01*
X209201380Y-57324304D02*
X208201380Y-57324304D01*
X209201380Y-56752876D02*
X208629952Y-57181447D01*
X208201380Y-56752876D02*
X208772809Y-57324304D01*
X212391751Y-44584895D02*
X211391751Y-44584895D01*
X211391751Y-44346800D01*
X211439371Y-44203942D01*
X211534609Y-44108704D01*
X211629847Y-44061085D01*
X211820323Y-44013466D01*
X211963180Y-44013466D01*
X212153656Y-44061085D01*
X212248894Y-44108704D01*
X212344132Y-44203942D01*
X212391751Y-44346800D01*
X212391751Y-44584895D01*
X211820323Y-43442038D02*
X211772704Y-43537276D01*
X211725085Y-43584895D01*
X211629847Y-43632514D01*
X211582228Y-43632514D01*
X211486990Y-43584895D01*
X211439371Y-43537276D01*
X211391751Y-43442038D01*
X211391751Y-43251561D01*
X211439371Y-43156323D01*
X211486990Y-43108704D01*
X211582228Y-43061085D01*
X211629847Y-43061085D01*
X211725085Y-43108704D01*
X211772704Y-43156323D01*
X211820323Y-43251561D01*
X211820323Y-43442038D01*
X211867942Y-43537276D01*
X211915561Y-43584895D01*
X212010799Y-43632514D01*
X212201275Y-43632514D01*
X212296513Y-43584895D01*
X212344132Y-43537276D01*
X212391751Y-43442038D01*
X212391751Y-43251561D01*
X212344132Y-43156323D01*
X212296513Y-43108704D01*
X212201275Y-43061085D01*
X212010799Y-43061085D01*
X211915561Y-43108704D01*
X211867942Y-43156323D01*
X211820323Y-43251561D01*
X209265380Y-43068704D02*
X208265380Y-43068704D01*
X209265380Y-42497276D02*
X208693952Y-42925847D01*
X208265380Y-42497276D02*
X208836809Y-43068704D01*
X182229751Y-44584895D02*
X181229751Y-44584895D01*
X181229751Y-44346800D01*
X181277371Y-44203942D01*
X181372609Y-44108704D01*
X181467847Y-44061085D01*
X181658323Y-44013466D01*
X181801180Y-44013466D01*
X181991656Y-44061085D01*
X182086894Y-44108704D01*
X182182132Y-44203942D01*
X182229751Y-44346800D01*
X182229751Y-44584895D01*
X181229751Y-43680133D02*
X181229751Y-43013466D01*
X182229751Y-43442038D01*
X179103380Y-43068704D02*
X178103380Y-43068704D01*
X179103380Y-42497276D02*
X178531952Y-42925847D01*
X178103380Y-42497276D02*
X178674809Y-43068704D01*
X155972751Y-58840495D02*
X154972751Y-58840495D01*
X154972751Y-58602400D01*
X155020371Y-58459542D01*
X155115609Y-58364304D01*
X155210847Y-58316685D01*
X155401323Y-58269066D01*
X155544180Y-58269066D01*
X155734656Y-58316685D01*
X155829894Y-58364304D01*
X155925132Y-58459542D01*
X155972751Y-58602400D01*
X155972751Y-58840495D01*
X154972751Y-57411923D02*
X154972751Y-57602400D01*
X155020371Y-57697638D01*
X155067990Y-57745257D01*
X155210847Y-57840495D01*
X155401323Y-57888114D01*
X155782275Y-57888114D01*
X155877513Y-57840495D01*
X155925132Y-57792876D01*
X155972751Y-57697638D01*
X155972751Y-57507161D01*
X155925132Y-57411923D01*
X155877513Y-57364304D01*
X155782275Y-57316685D01*
X155544180Y-57316685D01*
X155448942Y-57364304D01*
X155401323Y-57411923D01*
X155353704Y-57507161D01*
X155353704Y-57697638D01*
X155401323Y-57792876D01*
X155448942Y-57840495D01*
X155544180Y-57888114D01*
X152846380Y-57324304D02*
X151846380Y-57324304D01*
X152846380Y-56752876D02*
X152274952Y-57181447D01*
X151846380Y-56752876D02*
X152417809Y-57324304D01*
X156035751Y-44584895D02*
X155035751Y-44584895D01*
X155035751Y-44346800D01*
X155083371Y-44203942D01*
X155178609Y-44108704D01*
X155273847Y-44061085D01*
X155464323Y-44013466D01*
X155607180Y-44013466D01*
X155797656Y-44061085D01*
X155892894Y-44108704D01*
X155988132Y-44203942D01*
X156035751Y-44346800D01*
X156035751Y-44584895D01*
X155035751Y-43108704D02*
X155035751Y-43584895D01*
X155511942Y-43632514D01*
X155464323Y-43584895D01*
X155416704Y-43489657D01*
X155416704Y-43251561D01*
X155464323Y-43156323D01*
X155511942Y-43108704D01*
X155607180Y-43061085D01*
X155845275Y-43061085D01*
X155940513Y-43108704D01*
X155988132Y-43156323D01*
X156035751Y-43251561D01*
X156035751Y-43489657D01*
X155988132Y-43584895D01*
X155940513Y-43632514D01*
X152909380Y-43068704D02*
X151909380Y-43068704D01*
X152909380Y-42497276D02*
X152337952Y-42925847D01*
X151909380Y-42497276D02*
X152480809Y-43068704D01*
X125810751Y-58840495D02*
X124810751Y-58840495D01*
X124810751Y-58602400D01*
X124858371Y-58459542D01*
X124953609Y-58364304D01*
X125048847Y-58316685D01*
X125239323Y-58269066D01*
X125382180Y-58269066D01*
X125572656Y-58316685D01*
X125667894Y-58364304D01*
X125763132Y-58459542D01*
X125810751Y-58602400D01*
X125810751Y-58840495D01*
X125144085Y-57411923D02*
X125810751Y-57411923D01*
X124763132Y-57650019D02*
X125477418Y-57888114D01*
X125477418Y-57269066D01*
X122684380Y-57324304D02*
X121684380Y-57324304D01*
X122684380Y-56752876D02*
X122112952Y-57181447D01*
X121684380Y-56752876D02*
X122255809Y-57324304D01*
X125872751Y-44584895D02*
X124872751Y-44584895D01*
X124872751Y-44346800D01*
X124920371Y-44203942D01*
X125015609Y-44108704D01*
X125110847Y-44061085D01*
X125301323Y-44013466D01*
X125444180Y-44013466D01*
X125634656Y-44061085D01*
X125729894Y-44108704D01*
X125825132Y-44203942D01*
X125872751Y-44346800D01*
X125872751Y-44584895D01*
X124872751Y-43680133D02*
X124872751Y-43061085D01*
X125253704Y-43394419D01*
X125253704Y-43251561D01*
X125301323Y-43156323D01*
X125348942Y-43108704D01*
X125444180Y-43061085D01*
X125682275Y-43061085D01*
X125777513Y-43108704D01*
X125825132Y-43156323D01*
X125872751Y-43251561D01*
X125872751Y-43537276D01*
X125825132Y-43632514D01*
X125777513Y-43680133D01*
X122746380Y-43068704D02*
X121746380Y-43068704D01*
X122746380Y-42497276D02*
X122174952Y-42925847D01*
X121746380Y-42497276D02*
X122317809Y-43068704D01*
X98092551Y-44584895D02*
X97092551Y-44584895D01*
X97092551Y-44346800D01*
X97140171Y-44203942D01*
X97235409Y-44108704D01*
X97330647Y-44061085D01*
X97521123Y-44013466D01*
X97663980Y-44013466D01*
X97854456Y-44061085D01*
X97949694Y-44108704D01*
X98044932Y-44203942D01*
X98092551Y-44346800D01*
X98092551Y-44584895D01*
X97187790Y-43632514D02*
X97140171Y-43584895D01*
X97092551Y-43489657D01*
X97092551Y-43251561D01*
X97140171Y-43156323D01*
X97187790Y-43108704D01*
X97283028Y-43061085D01*
X97378266Y-43061085D01*
X97521123Y-43108704D01*
X98092551Y-43680133D01*
X98092551Y-43061085D01*
X94966180Y-43068704D02*
X93966180Y-43068704D01*
X94966180Y-42497276D02*
X94394752Y-42925847D01*
X93966180Y-42497276D02*
X94537609Y-43068704D01*
M02*
