  0
SECTION
  2
HEADER
  9
$ACADVER
  1
AC1014
  9
$HANDSEED
  5
FFFF
  9
$MEASUREMENT
 70
     1
  0
ENDSEC
  0
SECTION
  2
TABLES
  0
TABLE
  2
VPORT
  5
8
330
0
100
AcDbSymbolTable
 70
     4
  0
VPORT
  5
2E
330
8
100
AcDbSymbolTableRecord
100
AcDbViewportTableRecord
  2
*ACTIVE
 70
     0
 10
0.0
 20
0.0
 11
1.0
 21
1.0
 12
210.0
 22
148.5
 13
0.0
 23
0.0
 14
10.0
 24
10.0
 15
10.0
 25
10.0
 16
0.0
 26
0.0
 36
1.0
 17
0.0
 27
0.0
 37
0.0
 40
341.0
 41
1.24
 42
50.0
 43
0.0
 44
0.0
 50
0.0
 51
0.0
 71
     0
 72
   100
 73
     1
 74
     3
 75
     0
 76
     0
 77
     0
 78
     0
  0
ENDTAB
  0
TABLE
  2
LTYPE
  5
5
330
0
100
AcDbSymbolTable
 70
     1
  0
LTYPE
  5
14
330
5
100
AcDbSymbolTableRecord
100
AcDbLinetypeTableRecord
  2
BYBLOCK
 70
     0
  3

 72
    65
 73
     0
 40
0.0
  0
LTYPE
  5
15
330
5
100
AcDbSymbolTableRecord
100
AcDbLinetypeTableRecord
  2
BYLAYER
 70
     0
  3

 72
    65
 73
     0
 40
0.0
  0
LTYPE
  5
16
330
5
100
AcDbSymbolTableRecord
100
AcDbLinetypeTableRecord
  2
CONTINUOUS
 70
     0
  3
Solid line
 72
    65
 73
     0
 40
0.0
  0
ENDTAB
  0
TABLE
  2
LAYER
  5
2
100
AcDbSymbolTable
 70
2
  0
LAYER
  5
50
100
AcDbSymbolTableRecord
100
AcDbLayerTableRecord
  2
0
 70
0
  6
CONTINUOUS
  0
LAYER
  5
51
100
AcDbSymbolTableRecord
100
AcDbLayerTableRecord
  2
Layer_1
 70
0
  6
CONTINUOUS
  0
ENDTAB
  0
TABLE
  2
STYLE
  5
3
330
0
100
AcDbSymbolTable
 70
     1
  0
STYLE
  5
11
330
3
100
AcDbSymbolTableRecord
100
AcDbTextStyleTableRecord
  2
STANDARD
 70
     0
 40
0.0
 41
1.0
 50
0.0
 71
     0
 42
2.5
  3
txt
  4

  0
ENDTAB
  0
TABLE
  2
VIEW
  5
6
330
0
100
AcDbSymbolTable
 70
     0
  0
ENDTAB
  0
TABLE
  2
UCS
  5
7
330
0
100
AcDbSymbolTable
 70
     0
  0
ENDTAB
  0
TABLE
  2
APPID
  5
9
330
0
100
AcDbSymbolTable
 70
     2
  0
APPID
  5
12
330
9
100
AcDbSymbolTableRecord
100
AcDbRegAppTableRecord
  2
ACAD
 70
     0
  0
ENDTAB
  0
TABLE
  2
DIMSTYLE
  5
A
330
0
100
AcDbSymbolTable
 70
     1
  0
DIMSTYLE
105
27
330
A
100
AcDbSymbolTableRecord
100
AcDbDimStyleTableRecord
  2
ISO-25
 70
     0
  3

  4

  5

  6

  7

 40
1.0
 41
2.5
 42
0.625
 43
3.75
 44
1.25
 45
0.0
 46
0.0
 47
0.0
 48
0.0
140
2.5
141
2.5
142
0.0
143
0.03937007874016
144
1.0
145
0.0
146
1.0
147
0.625
 71
     0
 72
     0
 73
     0
 74
     0
 75
     0
 76
     0
 77
     1
 78
     8
170
     0
171
     3
172
     1
173
     0
174
     0
175
     0
176
     0
177
     0
178
     0
270
     2
271
     2
272
     2
273
     2
274
     3
340
11
275
     0
280
     0
281
     0
282
     0
283
     0
284
     8
285
     0
286
     0
287
     3
288
     0
  0
ENDTAB
  0
TABLE
  2
BLOCK_RECORD
  5
1
330
0
100
AcDbSymbolTable
 70
     1
  0
BLOCK_RECORD
  5
1F
330
1
100
AcDbSymbolTableRecord
100
AcDbBlockTableRecord
  2
*MODEL_SPACE
  0
BLOCK_RECORD
  5
1B
330
1
100
AcDbSymbolTableRecord
100
AcDbBlockTableRecord
  2
*PAPER_SPACE
  0
ENDTAB
  0
ENDSEC
  0
SECTION
  2
BLOCKS
  0
BLOCK
  5
20
330
1F
100
AcDbEntity
  8
0
100
AcDbBlockBegin
  2
*MODEL_SPACE
 70
     0
 10
0.0
 20
0.0
 30
0.0
  3
*MODEL_SPACE
  1

  0
ENDBLK
  5
21
330
1F
100
AcDbEntity
  8
0
100
AcDbBlockEnd
  0
BLOCK
  5
1C
330
1B
100
AcDbEntity
 67
     1
  8
0
100
AcDbBlockBegin
  2
*PAPER_SPACE
  1

  0
ENDBLK
  5
1D
330
1B
100
AcDbEntity
 67
     1
  8
0
100
AcDbBlockEnd
  0
ENDSEC
  0
SECTION
  2
ENTITIES
  0
SPLINE
  5
100
100
AcDbEntity
  8
Layer_1
 62
7
100
AcDbSpline
 70
8
 71
3
 72
8
 73
4
 74
0
 40
0
 40
0
 40
0
 40
0
 40
1
 40
1
 40
1
 40
1
 10
863.142520
 20
639.388913
 30
0.0
 10
863.142520
 20
643.115430
 30
0.0
 10
860.122636
 20
646.136926
 30
0.0
 10
856.396120
 20
646.138913
 30
0.0
  0
SPLINE
  5
101
100
AcDbEntity
  8
Layer_1
 62
7
100
AcDbSpline
 70
8
 71
3
 72
8
 73
4
 74
0
 40
0
 40
0
 40
0
 40
0
 40
1
 40
1
 40
1
 40
1
 10
-102.107480
 20
646.138913
 30
0.0
 10
-103.897692
 20
646.138913
 30
0.0
 10
-105.614581
 20
645.427755
 30
0.0
 10
-106.880451
 20
644.161884
 30
0.0
  0
SPLINE
  5
102
100
AcDbEntity
  8
Layer_1
 62
7
100
AcDbSpline
 70
8
 71
3
 72
8
 73
4
 74
0
 40
0
 40
0
 40
0
 40
0
 40
1
 40
1
 40
1
 40
1
 10
-106.880451
 20
644.161884
 30
0.0
 10
-108.146322
 20
642.896014
 30
0.0
 10
-108.857480
 20
641.179125
 30
0.0
 10
-108.857480
 20
639.388913
 30
0.0
  0
LWPOLYLINE
  5
103
100
AcDbEntity
  8
Layer_1
 62
7
100
AcDbPolyline
 90
2
 70
0
 10
-102.111080
 20
646.142513
 30
0.0
 10
856.388920
 20
646.142513
 30
0.0
  0
SPLINE
  5
104
100
AcDbEntity
  8
Layer_1
 62
7
100
AcDbSpline
 70
8
 71
3
 72
8
 73
4
 74
0
 40
0
 40
0
 40
0
 40
0
 40
1
 40
1
 40
1
 40
1
 10
856.396120
 20
137.638913
 30
0.0
 10
860.122636
 20
137.640901
 30
0.0
 10
863.142520
 20
140.662397
 30
0.0
 10
863.142520
 20
144.388913
 30
0.0
  0
LWPOLYLINE
  5
105
100
AcDbEntity
  8
Layer_1
 62
7
100
AcDbPolyline
 90
2
 70
0
 10
863.142520
 20
144.388913
 30
0.0
 10
863.142520
 20
639.388913
 30
0.0
  0
SPLINE
  5
106
100
AcDbEntity
  8
Layer_1
 62
7
100
AcDbSpline
 70
8
 71
3
 72
8
 73
4
 74
0
 40
0
 40
0
 40
0
 40
0
 40
1
 40
1
 40
1
 40
1
 10
-108.857480
 20
144.388913
 30
0.0
 10
-108.857480
 20
142.598702
 30
0.0
 10
-108.146322
 20
140.881813
 30
0.0
 10
-106.880451
 20
139.615943
 30
0.0
  0
SPLINE
  5
107
100
AcDbEntity
  8
Layer_1
 62
7
100
AcDbSpline
 70
8
 71
3
 72
8
 73
4
 74
0
 40
0
 40
0
 40
0
 40
0
 40
1
 40
1
 40
1
 40
1
 10
-106.880451
 20
139.615943
 30
0.0
 10
-105.614581
 20
138.350072
 30
0.0
 10
-103.897692
 20
137.638913
 30
0.0
 10
-102.107480
 20
137.638913
 30
0.0
  0
LWPOLYLINE
  5
108
100
AcDbEntity
  8
Layer_1
 62
7
100
AcDbPolyline
 90
2
 70
0
 10
-102.111080
 20
137.642513
 30
0.0
 10
856.388920
 20
137.642513
 30
0.0
  0
LWPOLYLINE
  5
109
100
AcDbEntity
  8
Layer_1
 62
7
100
AcDbPolyline
 90
2
 70
0
 10
-108.857480
 20
639.388913
 30
0.0
 10
-108.857480
 20
144.388913
 30
0.0
  0
LWPOLYLINE
  5
10a
100
AcDbEntity
  8
Layer_1
 62
7
100
AcDbPolyline
 90
36
 70
1
 10
850.264554
 20
166.716850
 30
0.0
 10
850.595754
 20
166.652050
 30
0.0
 10
851.186154
 20
166.407250
 30
0.0
 10
851.718954
 20
166.047250
 30
0.0
 10
852.172554
 20
165.593650
 30
0.0
 10
852.532554
 20
165.060850
 30
0.0
 10
852.777354
 20
164.470450
 30
0.0
 10
852.906954
 20
163.836850
 30
0.0
 10
852.906954
 20
163.196050
 30
0.0
 10
852.777354
 20
162.562450
 30
0.0
 10
852.532554
 20
161.972050
 30
0.0
 10
852.172554
 20
161.439250
 30
0.0
 10
851.718954
 20
160.985650
 30
0.0
 10
851.186154
 20
160.625650
 30
0.0
 10
850.595754
 20
160.380850
 30
0.0
 10
850.278954
 20
160.316050
 30
0.0
 10
849.962154
 20
160.251250
 30
0.0
 10
849.321354
 20
160.251250
 30
0.0
 10
849.004554
 20
160.316050
 30
0.0
 10
848.687754
 20
160.380850
 30
0.0
 10
848.097354
 20
160.625650
 30
0.0
 10
847.564554
 20
160.985650
 30
0.0
 10
847.110954
 20
161.439250
 30
0.0
 10
846.750954
 20
161.972050
 30
0.0
 10
846.506154
 20
162.562450
 30
0.0
 10
846.376554
 20
163.196050
 30
0.0
 10
846.376554
 20
163.836850
 30
0.0
 10
846.506154
 20
164.470450
 30
0.0
 10
846.750954
 20
165.060850
 30
0.0
 10
847.110954
 20
165.593650
 30
0.0
 10
847.564554
 20
166.047250
 30
0.0
 10
848.097354
 20
166.407250
 30
0.0
 10
848.687754
 20
166.652050
 30
0.0
 10
849.018954
 20
166.716850
 30
0.0
 10
849.321354
 20
166.781650
 30
0.0
 10
849.962154
 20
166.781650
 30
0.0
  0
LWPOLYLINE
  5
10b
100
AcDbEntity
  8
Layer_1
 62
7
100
AcDbPolyline
 90
36
 70
1
 10
402.532554
 20
168.970450
 30
0.0
 10
402.842154
 20
168.905650
 30
0.0
 10
403.439754
 20
168.660850
 30
0.0
 10
403.972554
 20
168.300850
 30
0.0
 10
404.426154
 20
167.847250
 30
0.0
 10
404.786154
 20
167.314450
 30
0.0
 10
405.030954
 20
166.716850
 30
0.0
 10
405.153354
 20
166.090450
 30
0.0
 10
405.153354
 20
165.442450
 30
0.0
 10
405.030954
 20
164.816050
 30
0.0
 10
404.786154
 20
164.218450
 30
0.0
 10
404.426154
 20
163.685650
 30
0.0
 10
403.972554
 20
163.232050
 30
0.0
 10
403.439754
 20
162.879250
 30
0.0
 10
402.842154
 20
162.627250
 30
0.0
 10
402.532554
 20
162.569650
 30
0.0
 10
402.215754
 20
162.504850
 30
0.0
 10
401.567754
 20
162.504850
 30
0.0
 10
401.258154
 20
162.569650
 30
0.0
 10
400.941354
 20
162.627250
 30
0.0
 10
400.343754
 20
162.879250
 30
0.0
 10
399.810954
 20
163.232050
 30
0.0
 10
399.357354
 20
163.685650
 30
0.0
 10
399.004554
 20
164.218450
 30
0.0
 10
398.752554
 20
164.816050
 30
0.0
 10
398.630154
 20
165.442450
 30
0.0
 10
398.630154
 20
166.090450
 30
0.0
 10
398.752554
 20
166.716850
 30
0.0
 10
399.004554
 20
167.314450
 30
0.0
 10
399.357354
 20
167.847250
 30
0.0
 10
399.810954
 20
168.300850
 30
0.0
 10
400.343754
 20
168.660850
 30
0.0
 10
400.941354
 20
168.905650
 30
0.0
 10
401.258154
 20
168.970450
 30
0.0
 10
401.567754
 20
169.028050
 30
0.0
 10
402.215754
 20
169.028050
 30
0.0
  0
LWPOLYLINE
  5
10c
100
AcDbEntity
  8
Layer_1
 62
7
100
AcDbPolyline
 90
36
 70
1
 10
-47.474646
 20
168.970450
 30
0.0
 10
-47.157846
 20
168.905650
 30
0.0
 10
-46.560246
 20
168.660850
 30
0.0
 10
-46.027446
 20
168.300850
 30
0.0
 10
-45.573846
 20
167.847250
 30
0.0
 10
-45.213846
 20
167.314450
 30
0.0
 10
-44.969046
 20
166.716850
 30
0.0
 10
-44.846646
 20
166.090450
 30
0.0
 10
-44.846646
 20
165.442450
 30
0.0
 10
-44.969046
 20
164.816050
 30
0.0
 10
-45.213846
 20
164.218450
 30
0.0
 10
-45.573846
 20
163.685650
 30
0.0
 10
-46.027446
 20
163.232050
 30
0.0
 10
-46.560246
 20
162.879250
 30
0.0
 10
-47.157846
 20
162.627250
 30
0.0
 10
-47.474646
 20
162.569650
 30
0.0
 10
-47.784246
 20
162.504850
 30
0.0
 10
-48.432246
 20
162.504850
 30
0.0
 10
-48.741846
 20
162.569650
 30
0.0
 10
-49.058646
 20
162.627250
 30
0.0
 10
-49.656246
 20
162.879250
 30
0.0
 10
-50.189046
 20
163.232050
 30
0.0
 10
-50.642646
 20
163.685650
 30
0.0
 10
-51.002646
 20
164.218450
 30
0.0
 10
-51.247446
 20
164.816050
 30
0.0
 10
-51.369846
 20
165.442450
 30
0.0
 10
-51.369846
 20
166.090450
 30
0.0
 10
-51.247446
 20
166.716850
 30
0.0
 10
-51.002646
 20
167.314450
 30
0.0
 10
-50.642646
 20
167.847250
 30
0.0
 10
-50.189046
 20
168.300850
 30
0.0
 10
-49.656246
 20
168.660850
 30
0.0
 10
-49.058646
 20
168.905650
 30
0.0
 10
-48.741846
 20
168.970450
 30
0.0
 10
-48.432246
 20
169.028050
 30
0.0
 10
-47.784246
 20
169.028050
 30
0.0
  0
LWPOLYLINE
  5
10d
100
AcDbEntity
  8
Layer_1
 62
7
100
AcDbPolyline
 90
36
 70
1
 10
-78.974646
 20
418.716850
 30
0.0
 10
-78.657846
 20
418.652050
 30
0.0
 10
-78.060246
 20
418.407250
 30
0.0
 10
-77.527446
 20
418.047250
 30
0.0
 10
-77.073846
 20
417.593650
 30
0.0
 10
-76.713846
 20
417.060850
 30
0.0
 10
-76.469046
 20
416.470450
 30
0.0
 10
-76.346646
 20
415.836850
 30
0.0
 10
-76.346646
 20
415.196050
 30
0.0
 10
-76.469046
 20
414.562450
 30
0.0
 10
-76.713846
 20
413.972050
 30
0.0
 10
-77.073846
 20
413.439250
 30
0.0
 10
-77.527446
 20
412.978450
 30
0.0
 10
-78.060246
 20
412.625650
 30
0.0
 10
-78.657846
 20
412.380850
 30
0.0
 10
-78.974646
 20
412.316050
 30
0.0
 10
-79.284246
 20
412.251250
 30
0.0
 10
-79.932246
 20
412.251250
 30
0.0
 10
-80.241846
 20
412.316050
 30
0.0
 10
-80.558646
 20
412.380850
 30
0.0
 10
-81.156246
 20
412.625650
 30
0.0
 10
-81.689046
 20
412.978450
 30
0.0
 10
-82.142646
 20
413.439250
 30
0.0
 10
-82.502646
 20
413.972050
 30
0.0
 10
-82.747446
 20
414.562450
 30
0.0
 10
-82.869846
 20
415.196050
 30
0.0
 10
-82.869846
 20
415.836850
 30
0.0
 10
-82.747446
 20
416.470450
 30
0.0
 10
-82.502646
 20
417.060850
 30
0.0
 10
-82.142646
 20
417.593650
 30
0.0
 10
-81.689046
 20
418.047250
 30
0.0
 10
-81.156246
 20
418.407250
 30
0.0
 10
-80.558646
 20
418.652050
 30
0.0
 10
-80.241846
 20
418.716850
 30
0.0
 10
-79.932246
 20
418.781650
 30
0.0
 10
-79.284246
 20
418.781650
 30
0.0
  0
LWPOLYLINE
  5
10e
100
AcDbEntity
  8
Layer_1
 62
7
100
AcDbPolyline
 90
36
 70
1
 10
402.532554
 20
418.716850
 30
0.0
 10
402.842154
 20
418.652050
 30
0.0
 10
403.439754
 20
418.407250
 30
0.0
 10
403.972554
 20
418.047250
 30
0.0
 10
404.426154
 20
417.593650
 30
0.0
 10
404.786154
 20
417.060850
 30
0.0
 10
405.030954
 20
416.470450
 30
0.0
 10
405.153354
 20
415.836850
 30
0.0
 10
405.153354
 20
415.196050
 30
0.0
 10
405.030954
 20
414.562450
 30
0.0
 10
404.786154
 20
413.972050
 30
0.0
 10
404.426154
 20
413.439250
 30
0.0
 10
403.972554
 20
412.978450
 30
0.0
 10
403.439754
 20
412.625650
 30
0.0
 10
402.842154
 20
412.380850
 30
0.0
 10
402.532554
 20
412.316050
 30
0.0
 10
402.215754
 20
412.251250
 30
0.0
 10
401.567754
 20
412.251250
 30
0.0
 10
401.258154
 20
412.316050
 30
0.0
 10
400.941354
 20
412.380850
 30
0.0
 10
400.343754
 20
412.625650
 30
0.0
 10
399.810954
 20
412.978450
 30
0.0
 10
399.357354
 20
413.439250
 30
0.0
 10
399.004554
 20
413.972050
 30
0.0
 10
398.752554
 20
414.562450
 30
0.0
 10
398.630154
 20
415.196050
 30
0.0
 10
398.630154
 20
415.836850
 30
0.0
 10
398.752554
 20
416.470450
 30
0.0
 10
399.004554
 20
417.060850
 30
0.0
 10
399.357354
 20
417.593650
 30
0.0
 10
399.810954
 20
418.047250
 30
0.0
 10
400.343754
 20
418.407250
 30
0.0
 10
400.941354
 20
418.652050
 30
0.0
 10
401.258154
 20
418.716850
 30
0.0
 10
401.567754
 20
418.781650
 30
0.0
 10
402.215754
 20
418.781650
 30
0.0
  0
LWPOLYLINE
  5
10f
100
AcDbEntity
  8
Layer_1
 62
7
100
AcDbPolyline
 90
36
 70
1
 10
850.278954
 20
461.463250
 30
0.0
 10
850.595754
 20
461.405650
 30
0.0
 10
851.186154
 20
461.160850
 30
0.0
 10
851.718954
 20
460.800850
 30
0.0
 10
852.172554
 20
460.347250
 30
0.0
 10
852.532554
 20
459.814450
 30
0.0
 10
852.777354
 20
459.216850
 30
0.0
 10
852.906954
 20
458.590450
 30
0.0
 10
852.906954
 20
457.942450
 30
0.0
 10
852.777354
 20
457.316050
 30
0.0
 10
852.532554
 20
456.718450
 30
0.0
 10
852.172554
 20
456.185650
 30
0.0
 10
851.718954
 20
455.732050
 30
0.0
 10
851.186154
 20
455.372050
 30
0.0
 10
850.595754
 20
455.127250
 30
0.0
 10
850.278954
 20
455.069650
 30
0.0
 10
849.962154
 20
455.004850
 30
0.0
 10
849.321354
 20
455.004850
 30
0.0
 10
849.004554
 20
455.069650
 30
0.0
 10
848.687754
 20
455.127250
 30
0.0
 10
848.097354
 20
455.372050
 30
0.0
 10
847.564554
 20
455.732050
 30
0.0
 10
847.110954
 20
456.185650
 30
0.0
 10
846.750954
 20
456.718450
 30
0.0
 10
846.506154
 20
457.316050
 30
0.0
 10
846.376554
 20
457.942450
 30
0.0
 10
846.376554
 20
458.590450
 30
0.0
 10
846.506154
 20
459.216850
 30
0.0
 10
846.750954
 20
459.814450
 30
0.0
 10
847.110954
 20
460.347250
 30
0.0
 10
847.564554
 20
460.800850
 30
0.0
 10
848.097354
 20
461.160850
 30
0.0
 10
848.687754
 20
461.405650
 30
0.0
 10
849.004554
 20
461.463250
 30
0.0
 10
849.321354
 20
461.528050
 30
0.0
 10
849.962154
 20
461.528050
 30
0.0
  0
LWPOLYLINE
  5
110
100
AcDbEntity
  8
Layer_1
 62
7
100
AcDbPolyline
 90
36
 70
1
 10
398.018154
 20
497.470450
 30
0.0
 10
398.342154
 20
497.405650
 30
0.0
 10
398.939754
 20
497.160850
 30
0.0
 10
399.472554
 20
496.800850
 30
0.0
 10
399.926154
 20
496.347250
 30
0.0
 10
400.278954
 20
495.814450
 30
0.0
 10
400.530954
 20
495.216850
 30
0.0
 10
400.653354
 20
494.590450
 30
0.0
 10
400.653354
 20
493.942450
 30
0.0
 10
400.530954
 20
493.316050
 30
0.0
 10
400.278954
 20
492.718450
 30
0.0
 10
399.926154
 20
492.185650
 30
0.0
 10
399.472554
 20
491.732050
 30
0.0
 10
398.939754
 20
491.372050
 30
0.0
 10
398.342154
 20
491.127250
 30
0.0
 10
398.025354
 20
491.069650
 30
0.0
 10
397.715754
 20
491.004850
 30
0.0
 10
397.067754
 20
491.004850
 30
0.0
 10
396.750954
 20
491.069650
 30
0.0
 10
396.441354
 20
491.127250
 30
0.0
 10
395.843754
 20
491.372050
 30
0.0
 10
395.310954
 20
491.732050
 30
0.0
 10
394.857354
 20
492.185650
 30
0.0
 10
394.497354
 20
492.718450
 30
0.0
 10
394.252554
 20
493.316050
 30
0.0
 10
394.130154
 20
493.942450
 30
0.0
 10
394.130154
 20
494.590450
 30
0.0
 10
394.252554
 20
495.216850
 30
0.0
 10
394.497354
 20
495.814450
 30
0.0
 10
394.857354
 20
496.347250
 30
0.0
 10
395.310954
 20
496.800850
 30
0.0
 10
395.843754
 20
497.160850
 30
0.0
 10
396.441354
 20
497.405650
 30
0.0
 10
396.765354
 20
497.470450
 30
0.0
 10
397.067754
 20
497.528050
 30
0.0
 10
397.715754
 20
497.528050
 30
0.0
  0
LWPOLYLINE
  5
111
100
AcDbEntity
  8
Layer_1
 62
7
100
AcDbPolyline
 90
36
 70
1
 10
-94.721046
 20
499.716850
 30
0.0
 10
-94.404246
 20
499.652050
 30
0.0
 10
-93.813846
 20
499.407250
 30
0.0
 10
-93.281046
 20
499.047250
 30
0.0
 10
-92.827446
 20
498.593650
 30
0.0
 10
-92.467446
 20
498.060850
 30
0.0
 10
-92.222646
 20
497.470450
 30
0.0
 10
-92.093046
 20
496.836850
 30
0.0
 10
-92.093046
 20
496.196050
 30
0.0
 10
-92.222646
 20
495.562450
 30
0.0
 10
-92.467446
 20
494.972050
 30
0.0
 10
-92.827446
 20
494.439250
 30
0.0
 10
-93.281046
 20
493.978450
 30
0.0
 10
-93.813846
 20
493.625650
 30
0.0
 10
-94.404246
 20
493.380850
 30
0.0
 10
-94.721046
 20
493.316050
 30
0.0
 10
-95.037846
 20
493.251250
 30
0.0
 10
-95.678646
 20
493.251250
 30
0.0
 10
-95.995446
 20
493.316050
 30
0.0
 10
-96.312246
 20
493.380850
 30
0.0
 10
-96.902646
 20
493.625650
 30
0.0
 10
-97.435446
 20
493.978450
 30
0.0
 10
-97.889046
 20
494.439250
 30
0.0
 10
-98.249046
 20
494.972050
 30
0.0
 10
-98.493846
 20
495.562450
 30
0.0
 10
-98.623446
 20
496.196050
 30
0.0
 10
-98.623446
 20
496.836850
 30
0.0
 10
-98.493846
 20
497.470450
 30
0.0
 10
-98.249046
 20
498.060850
 30
0.0
 10
-97.889046
 20
498.593650
 30
0.0
 10
-97.435446
 20
499.047250
 30
0.0
 10
-96.902646
 20
499.407250
 30
0.0
 10
-96.312246
 20
499.652050
 30
0.0
 10
-95.995446
 20
499.716850
 30
0.0
 10
-95.678646
 20
499.781650
 30
0.0
 10
-95.037846
 20
499.781650
 30
0.0
  0
LWPOLYLINE
  5
112
100
AcDbEntity
  8
Layer_1
 62
7
100
AcDbPolyline
 90
36
 70
1
 10
850.278954
 20
499.716850
 30
0.0
 10
850.595754
 20
499.652050
 30
0.0
 10
851.186154
 20
499.407250
 30
0.0
 10
851.718954
 20
499.047250
 30
0.0
 10
852.172554
 20
498.593650
 30
0.0
 10
852.532554
 20
498.060850
 30
0.0
 10
852.777354
 20
497.470450
 30
0.0
 10
852.906954
 20
496.836850
 30
0.0
 10
852.906954
 20
496.196050
 30
0.0
 10
852.777354
 20
495.562450
 30
0.0
 10
852.532554
 20
494.972050
 30
0.0
 10
852.172554
 20
494.439250
 30
0.0
 10
851.718954
 20
493.978450
 30
0.0
 10
851.186154
 20
493.625650
 30
0.0
 10
850.595754
 20
493.380850
 30
0.0
 10
850.278954
 20
493.316050
 30
0.0
 10
849.962154
 20
493.251250
 30
0.0
 10
849.321354
 20
493.251250
 30
0.0
 10
849.004554
 20
493.316050
 30
0.0
 10
848.687754
 20
493.380850
 30
0.0
 10
848.097354
 20
493.625650
 30
0.0
 10
847.564554
 20
493.978450
 30
0.0
 10
847.110954
 20
494.439250
 30
0.0
 10
846.750954
 20
494.972050
 30
0.0
 10
846.506154
 20
495.562450
 30
0.0
 10
846.376554
 20
496.196050
 30
0.0
 10
846.376554
 20
496.836850
 30
0.0
 10
846.506154
 20
497.470450
 30
0.0
 10
846.750954
 20
498.060850
 30
0.0
 10
847.110954
 20
498.593650
 30
0.0
 10
847.564554
 20
499.047250
 30
0.0
 10
848.097354
 20
499.407250
 30
0.0
 10
848.687754
 20
499.652050
 30
0.0
 10
849.004554
 20
499.716850
 30
0.0
 10
849.321354
 20
499.781650
 30
0.0
 10
849.962154
 20
499.781650
 30
0.0
  0
LWPOLYLINE
  5
113
100
AcDbEntity
  8
Layer_1
 62
7
100
AcDbPolyline
 90
36
 70
1
 10
-94.721046
 20
623.463250
 30
0.0
 10
-94.404246
 20
623.405650
 30
0.0
 10
-93.813846
 20
623.160850
 30
0.0
 10
-93.281046
 20
622.800850
 30
0.0
 10
-92.827446
 20
622.347250
 30
0.0
 10
-92.467446
 20
621.814450
 30
0.0
 10
-92.222646
 20
621.216850
 30
0.0
 10
-92.093046
 20
620.590450
 30
0.0
 10
-92.093046
 20
619.942450
 30
0.0
 10
-92.222646
 20
619.316050
 30
0.0
 10
-92.467446
 20
618.718450
 30
0.0
 10
-92.827446
 20
618.185650
 30
0.0
 10
-93.281046
 20
617.732050
 30
0.0
 10
-93.813846
 20
617.372050
 30
0.0
 10
-94.404246
 20
617.127250
 30
0.0
 10
-94.721046
 20
617.069650
 30
0.0
 10
-95.037846
 20
617.004850
 30
0.0
 10
-95.678646
 20
617.004850
 30
0.0
 10
-95.995446
 20
617.069650
 30
0.0
 10
-96.312246
 20
617.127250
 30
0.0
 10
-96.902646
 20
617.372050
 30
0.0
 10
-97.435446
 20
617.732050
 30
0.0
 10
-97.889046
 20
618.185650
 30
0.0
 10
-98.249046
 20
618.718450
 30
0.0
 10
-98.493846
 20
619.316050
 30
0.0
 10
-98.623446
 20
619.942450
 30
0.0
 10
-98.623446
 20
620.590450
 30
0.0
 10
-98.493846
 20
621.216850
 30
0.0
 10
-98.249046
 20
621.814450
 30
0.0
 10
-97.889046
 20
622.347250
 30
0.0
 10
-97.435446
 20
622.800850
 30
0.0
 10
-96.902646
 20
623.160850
 30
0.0
 10
-96.312246
 20
623.405650
 30
0.0
 10
-95.995446
 20
623.463250
 30
0.0
 10
-95.678646
 20
623.528050
 30
0.0
 10
-95.037846
 20
623.528050
 30
0.0
  0
LWPOLYLINE
  5
114
100
AcDbEntity
  8
Layer_1
 62
7
100
AcDbPolyline
 90
36
 70
1
 10
395.778954
 20
623.463250
 30
0.0
 10
396.088554
 20
623.405650
 30
0.0
 10
396.686154
 20
623.160850
 30
0.0
 10
397.218954
 20
622.800850
 30
0.0
 10
397.672554
 20
622.347250
 30
0.0
 10
398.032554
 20
621.814450
 30
0.0
 10
398.277354
 20
621.216850
 30
0.0
 10
398.399754
 20
620.590450
 30
0.0
 10
398.399754
 20
619.942450
 30
0.0
 10
398.277354
 20
619.316050
 30
0.0
 10
398.032554
 20
618.718450
 30
0.0
 10
397.672554
 20
618.185650
 30
0.0
 10
397.218954
 20
617.732050
 30
0.0
 10
396.686154
 20
617.372050
 30
0.0
 10
396.088554
 20
617.127250
 30
0.0
 10
395.778954
 20
617.069650
 30
0.0
 10
395.462154
 20
617.004850
 30
0.0
 10
394.821354
 20
617.004850
 30
0.0
 10
394.504554
 20
617.069650
 30
0.0
 10
394.187754
 20
617.127250
 30
0.0
 10
393.597354
 20
617.372050
 30
0.0
 10
393.057354
 20
617.732050
 30
0.0
 10
392.603754
 20
618.185650
 30
0.0
 10
392.250954
 20
618.718450
 30
0.0
 10
392.006154
 20
619.316050
 30
0.0
 10
391.876554
 20
619.942450
 30
0.0
 10
391.876554
 20
620.590450
 30
0.0
 10
392.006154
 20
621.216850
 30
0.0
 10
392.250954
 20
621.814450
 30
0.0
 10
392.603754
 20
622.347250
 30
0.0
 10
393.057354
 20
622.800850
 30
0.0
 10
393.597354
 20
623.160850
 30
0.0
 10
394.187754
 20
623.405650
 30
0.0
 10
394.504554
 20
623.463250
 30
0.0
 10
394.821354
 20
623.528050
 30
0.0
 10
395.462154
 20
623.528050
 30
0.0
  0
LWPOLYLINE
  5
115
100
AcDbEntity
  8
Layer_1
 62
7
100
AcDbPolyline
 90
36
 70
1
 10
850.278954
 20
623.463250
 30
0.0
 10
850.595754
 20
623.405650
 30
0.0
 10
851.186154
 20
623.160850
 30
0.0
 10
851.718954
 20
622.800850
 30
0.0
 10
852.172554
 20
622.347250
 30
0.0
 10
852.532554
 20
621.814450
 30
0.0
 10
852.777354
 20
621.216850
 30
0.0
 10
852.906954
 20
620.590450
 30
0.0
 10
852.906954
 20
619.942450
 30
0.0
 10
852.777354
 20
619.316050
 30
0.0
 10
852.532554
 20
618.718450
 30
0.0
 10
852.172554
 20
618.185650
 30
0.0
 10
851.718954
 20
617.732050
 30
0.0
 10
851.186154
 20
617.372050
 30
0.0
 10
850.595754
 20
617.127250
 30
0.0
 10
850.278954
 20
617.069650
 30
0.0
 10
849.962154
 20
617.004850
 30
0.0
 10
849.321354
 20
617.004850
 30
0.0
 10
849.004554
 20
617.069650
 30
0.0
 10
848.687754
 20
617.127250
 30
0.0
 10
848.097354
 20
617.372050
 30
0.0
 10
847.564554
 20
617.732050
 30
0.0
 10
847.110954
 20
618.185650
 30
0.0
 10
846.750954
 20
618.718450
 30
0.0
 10
846.506154
 20
619.316050
 30
0.0
 10
846.376554
 20
619.942450
 30
0.0
 10
846.376554
 20
620.590450
 30
0.0
 10
846.506154
 20
621.216850
 30
0.0
 10
846.750954
 20
621.814450
 30
0.0
 10
847.110954
 20
622.347250
 30
0.0
 10
847.564554
 20
622.800850
 30
0.0
 10
848.097354
 20
623.160850
 30
0.0
 10
848.687754
 20
623.405650
 30
0.0
 10
849.004554
 20
623.463250
 30
0.0
 10
849.321354
 20
623.528050
 30
0.0
 10
849.962154
 20
623.528050
 30
0.0
  0
LWPOLYLINE
  5
116
100
AcDbEntity
  8
Layer_1
 62
7
100
AcDbPolyline
 90
36
 70
1
 10
850.264554
 20
166.716850
 30
0.0
 10
850.595754
 20
166.652050
 30
0.0
 10
851.186154
 20
166.407250
 30
0.0
 10
851.718954
 20
166.047250
 30
0.0
 10
852.172554
 20
165.593650
 30
0.0
 10
852.532554
 20
165.060850
 30
0.0
 10
852.777354
 20
164.470450
 30
0.0
 10
852.906954
 20
163.836850
 30
0.0
 10
852.906954
 20
163.196050
 30
0.0
 10
852.777354
 20
162.562450
 30
0.0
 10
852.532554
 20
161.972050
 30
0.0
 10
852.172554
 20
161.439250
 30
0.0
 10
851.718954
 20
160.985650
 30
0.0
 10
851.186154
 20
160.625650
 30
0.0
 10
850.595754
 20
160.380850
 30
0.0
 10
850.278954
 20
160.316050
 30
0.0
 10
849.962154
 20
160.251250
 30
0.0
 10
849.321354
 20
160.251250
 30
0.0
 10
849.004554
 20
160.316050
 30
0.0
 10
848.687754
 20
160.380850
 30
0.0
 10
848.097354
 20
160.625650
 30
0.0
 10
847.564554
 20
160.985650
 30
0.0
 10
847.110954
 20
161.439250
 30
0.0
 10
846.750954
 20
161.972050
 30
0.0
 10
846.506154
 20
162.562450
 30
0.0
 10
846.376554
 20
163.196050
 30
0.0
 10
846.376554
 20
163.836850
 30
0.0
 10
846.506154
 20
164.470450
 30
0.0
 10
846.750954
 20
165.060850
 30
0.0
 10
847.110954
 20
165.593650
 30
0.0
 10
847.564554
 20
166.047250
 30
0.0
 10
848.097354
 20
166.407250
 30
0.0
 10
848.687754
 20
166.652050
 30
0.0
 10
849.018954
 20
166.716850
 30
0.0
 10
849.321354
 20
166.781650
 30
0.0
 10
849.962154
 20
166.781650
 30
0.0
  0
LWPOLYLINE
  5
117
100
AcDbEntity
  8
Layer_1
 62
7
100
AcDbPolyline
 90
36
 70
1
 10
402.532554
 20
168.970450
 30
0.0
 10
402.842154
 20
168.905650
 30
0.0
 10
403.439754
 20
168.660850
 30
0.0
 10
403.972554
 20
168.300850
 30
0.0
 10
404.426154
 20
167.847250
 30
0.0
 10
404.786154
 20
167.314450
 30
0.0
 10
405.030954
 20
166.716850
 30
0.0
 10
405.153354
 20
166.090450
 30
0.0
 10
405.153354
 20
165.442450
 30
0.0
 10
405.030954
 20
164.816050
 30
0.0
 10
404.786154
 20
164.218450
 30
0.0
 10
404.426154
 20
163.685650
 30
0.0
 10
403.972554
 20
163.232050
 30
0.0
 10
403.439754
 20
162.879250
 30
0.0
 10
402.842154
 20
162.627250
 30
0.0
 10
402.532554
 20
162.569650
 30
0.0
 10
402.215754
 20
162.504850
 30
0.0
 10
401.567754
 20
162.504850
 30
0.0
 10
401.258154
 20
162.569650
 30
0.0
 10
400.941354
 20
162.627250
 30
0.0
 10
400.343754
 20
162.879250
 30
0.0
 10
399.810954
 20
163.232050
 30
0.0
 10
399.357354
 20
163.685650
 30
0.0
 10
399.004554
 20
164.218450
 30
0.0
 10
398.752554
 20
164.816050
 30
0.0
 10
398.630154
 20
165.442450
 30
0.0
 10
398.630154
 20
166.090450
 30
0.0
 10
398.752554
 20
166.716850
 30
0.0
 10
399.004554
 20
167.314450
 30
0.0
 10
399.357354
 20
167.847250
 30
0.0
 10
399.810954
 20
168.300850
 30
0.0
 10
400.343754
 20
168.660850
 30
0.0
 10
400.941354
 20
168.905650
 30
0.0
 10
401.258154
 20
168.970450
 30
0.0
 10
401.567754
 20
169.028050
 30
0.0
 10
402.215754
 20
169.028050
 30
0.0
  0
LWPOLYLINE
  5
118
100
AcDbEntity
  8
Layer_1
 62
7
100
AcDbPolyline
 90
36
 70
1
 10
-47.474646
 20
168.970450
 30
0.0
 10
-47.157846
 20
168.905650
 30
0.0
 10
-46.560246
 20
168.660850
 30
0.0
 10
-46.027446
 20
168.300850
 30
0.0
 10
-45.573846
 20
167.847250
 30
0.0
 10
-45.213846
 20
167.314450
 30
0.0
 10
-44.969046
 20
166.716850
 30
0.0
 10
-44.846646
 20
166.090450
 30
0.0
 10
-44.846646
 20
165.442450
 30
0.0
 10
-44.969046
 20
164.816050
 30
0.0
 10
-45.213846
 20
164.218450
 30
0.0
 10
-45.573846
 20
163.685650
 30
0.0
 10
-46.027446
 20
163.232050
 30
0.0
 10
-46.560246
 20
162.879250
 30
0.0
 10
-47.157846
 20
162.627250
 30
0.0
 10
-47.474646
 20
162.569650
 30
0.0
 10
-47.784246
 20
162.504850
 30
0.0
 10
-48.432246
 20
162.504850
 30
0.0
 10
-48.741846
 20
162.569650
 30
0.0
 10
-49.058646
 20
162.627250
 30
0.0
 10
-49.656246
 20
162.879250
 30
0.0
 10
-50.189046
 20
163.232050
 30
0.0
 10
-50.642646
 20
163.685650
 30
0.0
 10
-51.002646
 20
164.218450
 30
0.0
 10
-51.247446
 20
164.816050
 30
0.0
 10
-51.369846
 20
165.442450
 30
0.0
 10
-51.369846
 20
166.090450
 30
0.0
 10
-51.247446
 20
166.716850
 30
0.0
 10
-51.002646
 20
167.314450
 30
0.0
 10
-50.642646
 20
167.847250
 30
0.0
 10
-50.189046
 20
168.300850
 30
0.0
 10
-49.656246
 20
168.660850
 30
0.0
 10
-49.058646
 20
168.905650
 30
0.0
 10
-48.741846
 20
168.970450
 30
0.0
 10
-48.432246
 20
169.028050
 30
0.0
 10
-47.784246
 20
169.028050
 30
0.0
  0
LWPOLYLINE
  5
119
100
AcDbEntity
  8
Layer_1
 62
7
100
AcDbPolyline
 90
36
 70
1
 10
-78.974646
 20
418.716850
 30
0.0
 10
-78.657846
 20
418.652050
 30
0.0
 10
-78.060246
 20
418.407250
 30
0.0
 10
-77.527446
 20
418.047250
 30
0.0
 10
-77.073846
 20
417.593650
 30
0.0
 10
-76.713846
 20
417.060850
 30
0.0
 10
-76.469046
 20
416.470450
 30
0.0
 10
-76.346646
 20
415.836850
 30
0.0
 10
-76.346646
 20
415.196050
 30
0.0
 10
-76.469046
 20
414.562450
 30
0.0
 10
-76.713846
 20
413.972050
 30
0.0
 10
-77.073846
 20
413.439250
 30
0.0
 10
-77.527446
 20
412.978450
 30
0.0
 10
-78.060246
 20
412.625650
 30
0.0
 10
-78.657846
 20
412.380850
 30
0.0
 10
-78.974646
 20
412.316050
 30
0.0
 10
-79.284246
 20
412.251250
 30
0.0
 10
-79.932246
 20
412.251250
 30
0.0
 10
-80.241846
 20
412.316050
 30
0.0
 10
-80.558646
 20
412.380850
 30
0.0
 10
-81.156246
 20
412.625650
 30
0.0
 10
-81.689046
 20
412.978450
 30
0.0
 10
-82.142646
 20
413.439250
 30
0.0
 10
-82.502646
 20
413.972050
 30
0.0
 10
-82.747446
 20
414.562450
 30
0.0
 10
-82.869846
 20
415.196050
 30
0.0
 10
-82.869846
 20
415.836850
 30
0.0
 10
-82.747446
 20
416.470450
 30
0.0
 10
-82.502646
 20
417.060850
 30
0.0
 10
-82.142646
 20
417.593650
 30
0.0
 10
-81.689046
 20
418.047250
 30
0.0
 10
-81.156246
 20
418.407250
 30
0.0
 10
-80.558646
 20
418.652050
 30
0.0
 10
-80.241846
 20
418.716850
 30
0.0
 10
-79.932246
 20
418.781650
 30
0.0
 10
-79.284246
 20
418.781650
 30
0.0
  0
LWPOLYLINE
  5
11a
100
AcDbEntity
  8
Layer_1
 62
7
100
AcDbPolyline
 90
36
 70
1
 10
402.532554
 20
418.716850
 30
0.0
 10
402.842154
 20
418.652050
 30
0.0
 10
403.439754
 20
418.407250
 30
0.0
 10
403.972554
 20
418.047250
 30
0.0
 10
404.426154
 20
417.593650
 30
0.0
 10
404.786154
 20
417.060850
 30
0.0
 10
405.030954
 20
416.470450
 30
0.0
 10
405.153354
 20
415.836850
 30
0.0
 10
405.153354
 20
415.196050
 30
0.0
 10
405.030954
 20
414.562450
 30
0.0
 10
404.786154
 20
413.972050
 30
0.0
 10
404.426154
 20
413.439250
 30
0.0
 10
403.972554
 20
412.978450
 30
0.0
 10
403.439754
 20
412.625650
 30
0.0
 10
402.842154
 20
412.380850
 30
0.0
 10
402.532554
 20
412.316050
 30
0.0
 10
402.215754
 20
412.251250
 30
0.0
 10
401.567754
 20
412.251250
 30
0.0
 10
401.258154
 20
412.316050
 30
0.0
 10
400.941354
 20
412.380850
 30
0.0
 10
400.343754
 20
412.625650
 30
0.0
 10
399.810954
 20
412.978450
 30
0.0
 10
399.357354
 20
413.439250
 30
0.0
 10
399.004554
 20
413.972050
 30
0.0
 10
398.752554
 20
414.562450
 30
0.0
 10
398.630154
 20
415.196050
 30
0.0
 10
398.630154
 20
415.836850
 30
0.0
 10
398.752554
 20
416.470450
 30
0.0
 10
399.004554
 20
417.060850
 30
0.0
 10
399.357354
 20
417.593650
 30
0.0
 10
399.810954
 20
418.047250
 30
0.0
 10
400.343754
 20
418.407250
 30
0.0
 10
400.941354
 20
418.652050
 30
0.0
 10
401.258154
 20
418.716850
 30
0.0
 10
401.567754
 20
418.781650
 30
0.0
 10
402.215754
 20
418.781650
 30
0.0
  0
LWPOLYLINE
  5
11b
100
AcDbEntity
  8
Layer_1
 62
7
100
AcDbPolyline
 90
36
 70
1
 10
850.278954
 20
461.463250
 30
0.0
 10
850.595754
 20
461.405650
 30
0.0
 10
851.186154
 20
461.160850
 30
0.0
 10
851.718954
 20
460.800850
 30
0.0
 10
852.172554
 20
460.347250
 30
0.0
 10
852.532554
 20
459.814450
 30
0.0
 10
852.777354
 20
459.216850
 30
0.0
 10
852.906954
 20
458.590450
 30
0.0
 10
852.906954
 20
457.942450
 30
0.0
 10
852.777354
 20
457.316050
 30
0.0
 10
852.532554
 20
456.718450
 30
0.0
 10
852.172554
 20
456.185650
 30
0.0
 10
851.718954
 20
455.732050
 30
0.0
 10
851.186154
 20
455.372050
 30
0.0
 10
850.595754
 20
455.127250
 30
0.0
 10
850.278954
 20
455.069650
 30
0.0
 10
849.962154
 20
455.004850
 30
0.0
 10
849.321354
 20
455.004850
 30
0.0
 10
849.004554
 20
455.069650
 30
0.0
 10
848.687754
 20
455.127250
 30
0.0
 10
848.097354
 20
455.372050
 30
0.0
 10
847.564554
 20
455.732050
 30
0.0
 10
847.110954
 20
456.185650
 30
0.0
 10
846.750954
 20
456.718450
 30
0.0
 10
846.506154
 20
457.316050
 30
0.0
 10
846.376554
 20
457.942450
 30
0.0
 10
846.376554
 20
458.590450
 30
0.0
 10
846.506154
 20
459.216850
 30
0.0
 10
846.750954
 20
459.814450
 30
0.0
 10
847.110954
 20
460.347250
 30
0.0
 10
847.564554
 20
460.800850
 30
0.0
 10
848.097354
 20
461.160850
 30
0.0
 10
848.687754
 20
461.405650
 30
0.0
 10
849.004554
 20
461.463250
 30
0.0
 10
849.321354
 20
461.528050
 30
0.0
 10
849.962154
 20
461.528050
 30
0.0
  0
LWPOLYLINE
  5
11c
100
AcDbEntity
  8
Layer_1
 62
7
100
AcDbPolyline
 90
36
 70
1
 10
398.018154
 20
497.470450
 30
0.0
 10
398.342154
 20
497.405650
 30
0.0
 10
398.939754
 20
497.160850
 30
0.0
 10
399.472554
 20
496.800850
 30
0.0
 10
399.926154
 20
496.347250
 30
0.0
 10
400.278954
 20
495.814450
 30
0.0
 10
400.530954
 20
495.216850
 30
0.0
 10
400.653354
 20
494.590450
 30
0.0
 10
400.653354
 20
493.942450
 30
0.0
 10
400.530954
 20
493.316050
 30
0.0
 10
400.278954
 20
492.718450
 30
0.0
 10
399.926154
 20
492.185650
 30
0.0
 10
399.472554
 20
491.732050
 30
0.0
 10
398.939754
 20
491.372050
 30
0.0
 10
398.342154
 20
491.127250
 30
0.0
 10
398.025354
 20
491.069650
 30
0.0
 10
397.715754
 20
491.004850
 30
0.0
 10
397.067754
 20
491.004850
 30
0.0
 10
396.750954
 20
491.069650
 30
0.0
 10
396.441354
 20
491.127250
 30
0.0
 10
395.843754
 20
491.372050
 30
0.0
 10
395.310954
 20
491.732050
 30
0.0
 10
394.857354
 20
492.185650
 30
0.0
 10
394.497354
 20
492.718450
 30
0.0
 10
394.252554
 20
493.316050
 30
0.0
 10
394.130154
 20
493.942450
 30
0.0
 10
394.130154
 20
494.590450
 30
0.0
 10
394.252554
 20
495.216850
 30
0.0
 10
394.497354
 20
495.814450
 30
0.0
 10
394.857354
 20
496.347250
 30
0.0
 10
395.310954
 20
496.800850
 30
0.0
 10
395.843754
 20
497.160850
 30
0.0
 10
396.441354
 20
497.405650
 30
0.0
 10
396.765354
 20
497.470450
 30
0.0
 10
397.067754
 20
497.528050
 30
0.0
 10
397.715754
 20
497.528050
 30
0.0
  0
LWPOLYLINE
  5
11d
100
AcDbEntity
  8
Layer_1
 62
7
100
AcDbPolyline
 90
36
 70
1
 10
-94.721046
 20
499.716850
 30
0.0
 10
-94.404246
 20
499.652050
 30
0.0
 10
-93.813846
 20
499.407250
 30
0.0
 10
-93.281046
 20
499.047250
 30
0.0
 10
-92.827446
 20
498.593650
 30
0.0
 10
-92.467446
 20
498.060850
 30
0.0
 10
-92.222646
 20
497.470450
 30
0.0
 10
-92.093046
 20
496.836850
 30
0.0
 10
-92.093046
 20
496.196050
 30
0.0
 10
-92.222646
 20
495.562450
 30
0.0
 10
-92.467446
 20
494.972050
 30
0.0
 10
-92.827446
 20
494.439250
 30
0.0
 10
-93.281046
 20
493.978450
 30
0.0
 10
-93.813846
 20
493.625650
 30
0.0
 10
-94.404246
 20
493.380850
 30
0.0
 10
-94.721046
 20
493.316050
 30
0.0
 10
-95.037846
 20
493.251250
 30
0.0
 10
-95.678646
 20
493.251250
 30
0.0
 10
-95.995446
 20
493.316050
 30
0.0
 10
-96.312246
 20
493.380850
 30
0.0
 10
-96.902646
 20
493.625650
 30
0.0
 10
-97.435446
 20
493.978450
 30
0.0
 10
-97.889046
 20
494.439250
 30
0.0
 10
-98.249046
 20
494.972050
 30
0.0
 10
-98.493846
 20
495.562450
 30
0.0
 10
-98.623446
 20
496.196050
 30
0.0
 10
-98.623446
 20
496.836850
 30
0.0
 10
-98.493846
 20
497.470450
 30
0.0
 10
-98.249046
 20
498.060850
 30
0.0
 10
-97.889046
 20
498.593650
 30
0.0
 10
-97.435446
 20
499.047250
 30
0.0
 10
-96.902646
 20
499.407250
 30
0.0
 10
-96.312246
 20
499.652050
 30
0.0
 10
-95.995446
 20
499.716850
 30
0.0
 10
-95.678646
 20
499.781650
 30
0.0
 10
-95.037846
 20
499.781650
 30
0.0
  0
LWPOLYLINE
  5
11e
100
AcDbEntity
  8
Layer_1
 62
7
100
AcDbPolyline
 90
36
 70
1
 10
850.278954
 20
499.716850
 30
0.0
 10
850.595754
 20
499.652050
 30
0.0
 10
851.186154
 20
499.407250
 30
0.0
 10
851.718954
 20
499.047250
 30
0.0
 10
852.172554
 20
498.593650
 30
0.0
 10
852.532554
 20
498.060850
 30
0.0
 10
852.777354
 20
497.470450
 30
0.0
 10
852.906954
 20
496.836850
 30
0.0
 10
852.906954
 20
496.196050
 30
0.0
 10
852.777354
 20
495.562450
 30
0.0
 10
852.532554
 20
494.972050
 30
0.0
 10
852.172554
 20
494.439250
 30
0.0
 10
851.718954
 20
493.978450
 30
0.0
 10
851.186154
 20
493.625650
 30
0.0
 10
850.595754
 20
493.380850
 30
0.0
 10
850.278954
 20
493.316050
 30
0.0
 10
849.962154
 20
493.251250
 30
0.0
 10
849.321354
 20
493.251250
 30
0.0
 10
849.004554
 20
493.316050
 30
0.0
 10
848.687754
 20
493.380850
 30
0.0
 10
848.097354
 20
493.625650
 30
0.0
 10
847.564554
 20
493.978450
 30
0.0
 10
847.110954
 20
494.439250
 30
0.0
 10
846.750954
 20
494.972050
 30
0.0
 10
846.506154
 20
495.562450
 30
0.0
 10
846.376554
 20
496.196050
 30
0.0
 10
846.376554
 20
496.836850
 30
0.0
 10
846.506154
 20
497.470450
 30
0.0
 10
846.750954
 20
498.060850
 30
0.0
 10
847.110954
 20
498.593650
 30
0.0
 10
847.564554
 20
499.047250
 30
0.0
 10
848.097354
 20
499.407250
 30
0.0
 10
848.687754
 20
499.652050
 30
0.0
 10
849.004554
 20
499.716850
 30
0.0
 10
849.321354
 20
499.781650
 30
0.0
 10
849.962154
 20
499.781650
 30
0.0
  0
LWPOLYLINE
  5
11f
100
AcDbEntity
  8
Layer_1
 62
7
100
AcDbPolyline
 90
36
 70
1
 10
-94.721046
 20
623.463250
 30
0.0
 10
-94.404246
 20
623.405650
 30
0.0
 10
-93.813846
 20
623.160850
 30
0.0
 10
-93.281046
 20
622.800850
 30
0.0
 10
-92.827446
 20
622.347250
 30
0.0
 10
-92.467446
 20
621.814450
 30
0.0
 10
-92.222646
 20
621.216850
 30
0.0
 10
-92.093046
 20
620.590450
 30
0.0
 10
-92.093046
 20
619.942450
 30
0.0
 10
-92.222646
 20
619.316050
 30
0.0
 10
-92.467446
 20
618.718450
 30
0.0
 10
-92.827446
 20
618.185650
 30
0.0
 10
-93.281046
 20
617.732050
 30
0.0
 10
-93.813846
 20
617.372050
 30
0.0
 10
-94.404246
 20
617.127250
 30
0.0
 10
-94.721046
 20
617.069650
 30
0.0
 10
-95.037846
 20
617.004850
 30
0.0
 10
-95.678646
 20
617.004850
 30
0.0
 10
-95.995446
 20
617.069650
 30
0.0
 10
-96.312246
 20
617.127250
 30
0.0
 10
-96.902646
 20
617.372050
 30
0.0
 10
-97.435446
 20
617.732050
 30
0.0
 10
-97.889046
 20
618.185650
 30
0.0
 10
-98.249046
 20
618.718450
 30
0.0
 10
-98.493846
 20
619.316050
 30
0.0
 10
-98.623446
 20
619.942450
 30
0.0
 10
-98.623446
 20
620.590450
 30
0.0
 10
-98.493846
 20
621.216850
 30
0.0
 10
-98.249046
 20
621.814450
 30
0.0
 10
-97.889046
 20
622.347250
 30
0.0
 10
-97.435446
 20
622.800850
 30
0.0
 10
-96.902646
 20
623.160850
 30
0.0
 10
-96.312246
 20
623.405650
 30
0.0
 10
-95.995446
 20
623.463250
 30
0.0
 10
-95.678646
 20
623.528050
 30
0.0
 10
-95.037846
 20
623.528050
 30
0.0
  0
LWPOLYLINE
  5
120
100
AcDbEntity
  8
Layer_1
 62
7
100
AcDbPolyline
 90
36
 70
1
 10
395.778954
 20
623.463250
 30
0.0
 10
396.088554
 20
623.405650
 30
0.0
 10
396.686154
 20
623.160850
 30
0.0
 10
397.218954
 20
622.800850
 30
0.0
 10
397.672554
 20
622.347250
 30
0.0
 10
398.032554
 20
621.814450
 30
0.0
 10
398.277354
 20
621.216850
 30
0.0
 10
398.399754
 20
620.590450
 30
0.0
 10
398.399754
 20
619.942450
 30
0.0
 10
398.277354
 20
619.316050
 30
0.0
 10
398.032554
 20
618.718450
 30
0.0
 10
397.672554
 20
618.185650
 30
0.0
 10
397.218954
 20
617.732050
 30
0.0
 10
396.686154
 20
617.372050
 30
0.0
 10
396.088554
 20
617.127250
 30
0.0
 10
395.778954
 20
617.069650
 30
0.0
 10
395.462154
 20
617.004850
 30
0.0
 10
394.821354
 20
617.004850
 30
0.0
 10
394.504554
 20
617.069650
 30
0.0
 10
394.187754
 20
617.127250
 30
0.0
 10
393.597354
 20
617.372050
 30
0.0
 10
393.057354
 20
617.732050
 30
0.0
 10
392.603754
 20
618.185650
 30
0.0
 10
392.250954
 20
618.718450
 30
0.0
 10
392.006154
 20
619.316050
 30
0.0
 10
391.876554
 20
619.942450
 30
0.0
 10
391.876554
 20
620.590450
 30
0.0
 10
392.006154
 20
621.216850
 30
0.0
 10
392.250954
 20
621.814450
 30
0.0
 10
392.603754
 20
622.347250
 30
0.0
 10
393.057354
 20
622.800850
 30
0.0
 10
393.597354
 20
623.160850
 30
0.0
 10
394.187754
 20
623.405650
 30
0.0
 10
394.504554
 20
623.463250
 30
0.0
 10
394.821354
 20
623.528050
 30
0.0
 10
395.462154
 20
623.528050
 30
0.0
  0
LWPOLYLINE
  5
121
100
AcDbEntity
  8
Layer_1
 62
7
100
AcDbPolyline
 90
36
 70
1
 10
850.278954
 20
623.463250
 30
0.0
 10
850.595754
 20
623.405650
 30
0.0
 10
851.186154
 20
623.160850
 30
0.0
 10
851.718954
 20
622.800850
 30
0.0
 10
852.172554
 20
622.347250
 30
0.0
 10
852.532554
 20
621.814450
 30
0.0
 10
852.777354
 20
621.216850
 30
0.0
 10
852.906954
 20
620.590450
 30
0.0
 10
852.906954
 20
619.942450
 30
0.0
 10
852.777354
 20
619.316050
 30
0.0
 10
852.532554
 20
618.718450
 30
0.0
 10
852.172554
 20
618.185650
 30
0.0
 10
851.718954
 20
617.732050
 30
0.0
 10
851.186154
 20
617.372050
 30
0.0
 10
850.595754
 20
617.127250
 30
0.0
 10
850.278954
 20
617.069650
 30
0.0
 10
849.962154
 20
617.004850
 30
0.0
 10
849.321354
 20
617.004850
 30
0.0
 10
849.004554
 20
617.069650
 30
0.0
 10
848.687754
 20
617.127250
 30
0.0
 10
848.097354
 20
617.372050
 30
0.0
 10
847.564554
 20
617.732050
 30
0.0
 10
847.110954
 20
618.185650
 30
0.0
 10
846.750954
 20
618.718450
 30
0.0
 10
846.506154
 20
619.316050
 30
0.0
 10
846.376554
 20
619.942450
 30
0.0
 10
846.376554
 20
620.590450
 30
0.0
 10
846.506154
 20
621.216850
 30
0.0
 10
846.750954
 20
621.814450
 30
0.0
 10
847.110954
 20
622.347250
 30
0.0
 10
847.564554
 20
622.800850
 30
0.0
 10
848.097354
 20
623.160850
 30
0.0
 10
848.687754
 20
623.405650
 30
0.0
 10
849.004554
 20
623.463250
 30
0.0
 10
849.321354
 20
623.528050
 30
0.0
 10
849.962154
 20
623.528050
 30
0.0
  0
ENDSEC
  0
SECTION
  2
OBJECTS
  0
DICTIONARY
  5
C
330
0
100
AcDbDictionary
  3
ACAD_GROUP
350
D
  3
ACAD_MLINESTYLE
350
17
  0
DICTIONARY
  5
D
330
C
100
AcDbDictionary
  0
DICTIONARY
  5
1A
330
C
100
AcDbDictionary
  0
DICTIONARY
  5
17
330
C
100
AcDbDictionary
  3
STANDARD
350
18
  0
DICTIONARY
  5
19
330
C
100
AcDbDictionary
  0
ENDSEC
  0
EOF
