<?xml version="1.0" encoding="UTF-8" standalone="no"?>
<svg
   xmlns:dc="http://purl.org/dc/elements/1.1/"
   xmlns:cc="http://creativecommons.org/ns#"
   xmlns:rdf="http://www.w3.org/1999/02/22-rdf-syntax-ns#"
   xmlns:svg="http://www.w3.org/2000/svg"
   xmlns="http://www.w3.org/2000/svg"
   xmlns:sodipodi="http://sodipodi.sourceforge.net/DTD/sodipodi-0.dtd"
   xmlns:inkscape="http://www.inkscape.org/namespaces/inkscape"
   width="210mm"
   height="297mm"
   viewBox="0 0 210 297"
   version="1.1"
   id="svg8"
   inkscape:version="1.0.1 (3bc2e813f5, 2020-09-07)"
   sodipodi:docname="acrylicBottom.svg">
  <defs
     id="defs2" />
  <sodipodi:namedview
     id="base"
     pagecolor="#ffffff"
     bordercolor="#666666"
     borderopacity="1.0"
     inkscape:pageopacity="0.0"
     inkscape:pageshadow="2"
     inkscape:zoom="0.98994949"
     inkscape:cx="842.05965"
     inkscape:cy="863.97084"
     inkscape:document-units="mm"
     inkscape:current-layer="layer1"
     inkscape:document-rotation="0"
     showgrid="false"
     inkscape:window-width="1267"
     inkscape:window-height="1041"
     inkscape:window-x="52"
     inkscape:window-y="30"
     inkscape:window-maximized="0" />
  <metadata
     id="metadata5">
    <rdf:RDF>
      <cc:Work
         rdf:about="">
        <dc:format>image/svg+xml</dc:format>
        <dc:type
           rdf:resource="http://purl.org/dc/dcmitype/StillImage" />
        <dc:title></dc:title>
      </cc:Work>
    </rdf:RDF>
  </metadata>
  <g
     inkscape:label="Layer 1"
     inkscape:groupmode="layer"
     id="layer1">
    <g
       id="g67"
       transform="scale(0.00254)">
      <g
         style="fill:#000000;fill-opacity:1;stroke:#000000;stroke-linecap:round;stroke-linejoin:round;stroke-opacity:1"
         id="g14" />
      <g
         style="fill:#000000;fill-opacity:0;stroke:#000000;stroke-width:-0.000393701;stroke-linecap:round;stroke-linejoin:round;stroke-opacity:1"
         id="g42">
        <g
           id="g16" />
        <g
           id="g18" />
        <g
           id="g20" />
        <g
           id="g22" />
        <g
           id="g24" />
        <g
           id="g26" />
        <g
           id="g28" />
        <g
           id="g30" />
        <g
           id="g32" />
        <g
           id="g34" />
        <g
           id="g36" />
        <g
           id="g38" />
        <g
           id="g40" />
      </g>
    </g>
    <g
       id="g126"
       transform="scale(0.00254)">
      <g
         style="fill:#000000;fill-opacity:1;stroke:#000000;stroke-linecap:round;stroke-linejoin:round;stroke-opacity:1"
         id="g73" />
      <g
         style="fill:#000000;fill-opacity:0;stroke:#000000;stroke-width:-0.000393701;stroke-linecap:round;stroke-linejoin:round;stroke-opacity:1"
         id="g101">
        <g
           id="g75" />
        <g
           id="g77" />
        <g
           id="g79" />
        <g
           id="g81" />
        <g
           id="g83" />
        <g
           id="g85" />
        <g
           id="g87" />
        <g
           id="g89" />
        <g
           id="g91" />
        <g
           id="g93" />
        <g
           id="g95" />
        <g
           id="g97" />
        <g
           id="g99" />
      </g>
    </g>
    <g
       id="g185"
       transform="scale(0.00254)">
      <g
         style="fill:#000000;fill-opacity:1;stroke:#000000;stroke-linecap:round;stroke-linejoin:round;stroke-opacity:1"
         id="g132" />
      <g
         style="fill:#000000;fill-opacity:0;stroke:#000000;stroke-width:-0.000393701;stroke-linecap:round;stroke-linejoin:round;stroke-opacity:1"
         id="g160">
        <g
           id="g134" />
        <g
           id="g136" />
        <g
           id="g138" />
        <g
           id="g140" />
        <g
           id="g142" />
        <g
           id="g144" />
        <g
           id="g146" />
        <g
           id="g148" />
        <g
           id="g150" />
        <g
           id="g152" />
        <g
           id="g154" />
        <g
           id="g156" />
        <g
           id="g158" />
      </g>
    </g>
    <g
       id="g271"
       transform="matrix(0.00254,0,0,0.00254,109.08393,137.88635)">
      <g
         style="fill:#000000;fill-opacity:1;stroke:#000000;stroke-linecap:round;stroke-linejoin:round;stroke-opacity:1"
         id="g191" />
      <g
         style="fill:#000000;fill-opacity:0;stroke:#000000;stroke-width:-0.000393701;stroke-linecap:round;stroke-linejoin:round;stroke-opacity:1"
         id="g193" />
      <g
         style="fill:#000000;fill-opacity:0;stroke:#000000;stroke-width:19.685;stroke-linecap:round;stroke-linejoin:round;stroke-opacity:1"
         id="g237">
        <path
           d="m 140625,6875 a 937.5,937.5 0 0 0 -937,-937.5"
           id="path195" />
        <path
           d="M 6562,5937 H 139687"
           id="path197" />
        <path
           d="M 6562.5,5937.5 A 937.5,937.5 0 0 0 5625,6875"
           id="path199" />
        <path
           d="M 140625,75625 V 6875"
           id="path201" />
        <path
           d="m 139688,76562.5 a 937.5,937.5 0 0 0 937,-937.5"
           id="path203" />
        <path
           d="M 6562,76562 H 139687"
           id="path205" />
        <path
           d="m 5625,75625 a 937.5,937.5 0 0 0 937.5,937.5"
           id="path207" />
        <path
           d="M 5625,6875 V 75625"
           id="path209" />
        <g
           id="g211" />
        <g
           id="g213" />
        <g
           id="g215" />
        <g
           id="g217" />
        <g
           id="g219" />
        <g
           id="g221" />
        <g
           id="g223" />
        <g
           id="g225" />
        <g
           id="g227" />
        <g
           id="g229" />
        <g
           id="g231" />
        <g
           id="g233" />
        <g
           id="g235" />
      </g>
    </g>
    <g
       id="g336"
       transform="scale(0.00254)">
      <g
         style="fill:#000000;fill-opacity:1;stroke:#000000;stroke-linecap:round;stroke-linejoin:round;stroke-opacity:1"
         id="g277" />
      <g
         style="fill:#000000;fill-opacity:0;stroke:#000000;stroke-width:-0.000393701;stroke-linecap:round;stroke-linejoin:round;stroke-opacity:1"
         id="g309">
        <g
           id="g279" />
        <g
           id="g281" />
        <g
           id="g283" />
        <g
           id="g285" />
        <g
           id="g287" />
        <g
           id="g289" />
        <g
           id="g291" />
        <g
           id="g293" />
        <g
           id="g295" />
        <g
           id="g297" />
        <g
           id="g299" />
        <g
           id="g301" />
        <g
           id="g303" />
        <g
           id="g305" />
        <g
           id="g307" />
      </g>
    </g>
    <g
       id="g499"
       transform="scale(0.00254)">
      <g
         style="fill:#000000;fill-opacity:1;stroke:#000000;stroke-linecap:round;stroke-linejoin:round;stroke-opacity:1"
         id="g440" />
      <g
         style="fill:#000000;fill-opacity:0;stroke:#000000;stroke-width:-0.000393701;stroke-linecap:round;stroke-linejoin:round;stroke-opacity:1"
         id="g472">
        <g
           id="g442" />
        <g
           id="g444" />
        <g
           id="g446" />
        <g
           id="g448" />
        <g
           id="g450" />
        <g
           id="g452" />
        <g
           id="g454" />
        <g
           id="g456" />
        <g
           id="g458" />
        <g
           id="g460" />
        <g
           id="g462" />
        <g
           id="g464" />
        <g
           id="g466" />
        <g
           id="g468" />
        <g
           id="g470" />
      </g>
    </g>
    <g
       id="g1967"
       transform="matrix(0.00254,0,0,0.00254,109.0852,142.25197)">
      <g
         style="fill:#000000;fill-opacity:1;stroke:#000000;stroke-linecap:round;stroke-linejoin:round;stroke-opacity:1"
         id="g1914" />
      <g
         style="fill:#000000;fill-opacity:0;stroke:#000000;stroke-width:-0.000393701;stroke-linecap:round;stroke-linejoin:round;stroke-opacity:1"
         id="g1916" />
      <g
         style="fill:#000000;fill-opacity:1;stroke:#000000;stroke-width:0;stroke-linecap:round;stroke-linejoin:round;stroke-opacity:1"
         id="g1942">
        <path
           style="fill:#000000;fill-opacity:1;fill-rule:evenodd;stroke:#000000;stroke-width:0;stroke-linecap:round;stroke-linejoin:round;stroke-opacity:1"
           d="m 138836,70805 46,9 82,34 74,50 63,63 50,74 34,82 18,88 v 89 l -18,88 -34,82 -50,74 -63,63 -74,50 -82,34 -44,9 -44,9 h -89 l -44,-9 -44,-9 -82,-34 -74,-50 -63,-63 -50,-74 -34,-82 -18,-88 v -89 l 18,-88 34,-82 50,-74 63,-63 74,-50 82,-34 46,-9 42,-9 h 89 z"
           id="path1918" />
        <path
           style="fill:#000000;fill-opacity:1;fill-rule:evenodd;stroke:#000000;stroke-width:0;stroke-linecap:round;stroke-linejoin:round;stroke-opacity:1"
           d="m 76651,70492 43,9 83,34 74,50 63,63 50,74 34,83 17,87 v 90 l -17,87 -34,83 -50,74 -63,63 -74,49 -83,35 -43,8 -44,9 h -90 l -43,-9 -44,-8 -83,-35 -74,-49 -63,-63 -49,-74 -35,-83 -17,-87 v -90 l 17,-87 35,-83 49,-74 63,-63 74,-50 83,-34 44,-9 43,-8 h 90 z"
           id="path1920" />
        <path
           style="fill:#000000;fill-opacity:1;fill-rule:evenodd;stroke:#000000;stroke-width:0;stroke-linecap:round;stroke-linejoin:round;stroke-opacity:1"
           d="m 14150,70492 44,9 83,34 74,50 63,63 50,74 34,83 17,87 v 90 l -17,87 -34,83 -50,74 -63,63 -74,49 -83,35 -44,8 -43,9 h -90 l -43,-9 -44,-8 -83,-35 -74,-49 -63,-63 -50,-74 -34,-83 -17,-87 v -90 l 17,-87 34,-83 50,-74 63,-63 74,-50 83,-34 44,-9 43,-8 h 90 z"
           id="path1922" />
        <path
           style="fill:#000000;fill-opacity:1;fill-rule:evenodd;stroke:#000000;stroke-width:0;stroke-linecap:round;stroke-linejoin:round;stroke-opacity:1"
           d="m 9775,35805 44,9 83,34 74,50 63,63 50,74 34,82 17,88 v 89 l -17,88 -34,82 -50,74 -63,64 -74,49 -83,34 -44,9 -43,9 h -90 l -43,-9 -44,-9 -83,-34 -74,-49 -63,-64 -50,-74 -34,-82 -17,-88 v -89 l 17,-88 34,-82 50,-74 63,-63 74,-50 83,-34 44,-9 43,-9 h 90 z"
           id="path1924" />
        <path
           style="fill:#000000;fill-opacity:1;fill-rule:evenodd;stroke:#000000;stroke-width:0;stroke-linecap:round;stroke-linejoin:round;stroke-opacity:1"
           d="m 76651,35805 43,9 83,34 74,50 63,63 50,74 34,82 17,88 v 89 l -17,88 -34,82 -50,74 -63,64 -74,49 -83,34 -43,9 -44,9 h -90 l -43,-9 -44,-9 -83,-34 -74,-49 -63,-64 -49,-74 -35,-82 -17,-88 v -89 l 17,-88 35,-82 49,-74 63,-63 74,-50 83,-34 44,-9 43,-9 h 90 z"
           id="path1926" />
        <path
           style="fill:#000000;fill-opacity:1;fill-rule:evenodd;stroke:#000000;stroke-width:0;stroke-linecap:round;stroke-linejoin:round;stroke-opacity:1"
           d="m 138838,29868 44,8 82,34 74,50 63,63 50,74 34,83 18,87 v 90 l -18,87 -34,83 -50,74 -63,63 -74,50 -82,34 -44,8 -44,9 h -89 l -44,-9 -44,-8 -82,-34 -74,-50 -63,-63 -50,-74 -34,-83 -18,-87 v -90 l 18,-87 34,-83 50,-74 63,-63 74,-50 82,-34 44,-8 44,-9 h 89 z"
           id="path1928" />
        <path
           style="fill:#000000;fill-opacity:1;fill-rule:evenodd;stroke:#000000;stroke-width:0;stroke-linecap:round;stroke-linejoin:round;stroke-opacity:1"
           d="m 76024,24867 45,9 83,34 74,50 63,63 49,74 35,83 17,87 v 90 l -17,87 -35,83 -49,74 -63,63 -74,50 -83,34 -44,8 -43,9 h -90 l -44,-9 -43,-8 -83,-34 -74,-50 -63,-63 -50,-74 -34,-83 -17,-87 v -90 l 17,-87 34,-83 50,-74 63,-63 74,-50 83,-34 45,-9 42,-8 h 90 z"
           id="path1930" />
        <path
           style="fill:#000000;fill-opacity:1;fill-rule:evenodd;stroke:#000000;stroke-width:0;stroke-linecap:round;stroke-linejoin:round;stroke-opacity:1"
           d="m 7588,24555 44,9 82,34 74,50 63,63 50,74 34,82 18,88 v 89 l -18,88 -34,82 -50,74 -63,64 -74,49 -82,34 -44,9 -44,9 h -89 l -44,-9 -44,-9 -82,-34 -74,-49 -63,-64 -50,-74 -34,-82 -18,-88 v -89 l 18,-88 34,-82 50,-74 63,-63 74,-50 82,-34 44,-9 44,-9 h 89 z"
           id="path1932" />
        <path
           style="fill:#000000;fill-opacity:1;fill-rule:evenodd;stroke:#000000;stroke-width:0;stroke-linecap:round;stroke-linejoin:round;stroke-opacity:1"
           d="m 138838,24555 44,9 82,34 74,50 63,63 50,74 34,82 18,88 v 89 l -18,88 -34,82 -50,74 -63,64 -74,49 -82,34 -44,9 -44,9 h -89 l -44,-9 -44,-9 -82,-34 -74,-49 -63,-64 -50,-74 -34,-82 -18,-88 v -89 l 18,-88 34,-82 50,-74 63,-63 74,-50 82,-34 44,-9 44,-9 h 89 z"
           id="path1934" />
        <path
           style="fill:#000000;fill-opacity:1;fill-rule:evenodd;stroke:#000000;stroke-width:0;stroke-linecap:round;stroke-linejoin:round;stroke-opacity:1"
           d="m 7588,7368 44,8 82,34 74,50 63,63 50,74 34,83 18,87 v 90 l -18,87 -34,83 -50,74 -63,63 -74,50 -82,34 -44,8 -44,9 h -89 l -44,-9 -44,-8 -82,-34 -74,-50 -63,-63 -50,-74 -34,-83 -18,-87 v -90 l 18,-87 34,-83 50,-74 63,-63 74,-50 82,-34 44,-8 44,-9 h 89 z"
           id="path1936" />
        <path
           style="fill:#000000;fill-opacity:1;fill-rule:evenodd;stroke:#000000;stroke-width:0;stroke-linecap:round;stroke-linejoin:round;stroke-opacity:1"
           d="m 75713,7368 43,8 83,34 74,50 63,63 50,74 34,83 17,87 v 90 l -17,87 -34,83 -50,74 -63,63 -74,50 -83,34 -43,8 -44,9 h -89 l -44,-9 -44,-8 -82,-34 -75,-50 -63,-63 -49,-74 -34,-83 -18,-87 v -90 l 18,-87 34,-83 49,-74 63,-63 75,-50 82,-34 44,-8 44,-9 h 89 z"
           id="path1938" />
        <path
           style="fill:#000000;fill-opacity:1;fill-rule:evenodd;stroke:#000000;stroke-width:0;stroke-linecap:round;stroke-linejoin:round;stroke-opacity:1"
           d="m 138838,7368 44,8 82,34 74,50 63,63 50,74 34,83 18,87 v 90 l -18,87 -34,83 -50,74 -63,63 -74,50 -82,34 -44,8 -44,9 h -89 l -44,-9 -44,-8 -82,-34 -74,-50 -63,-63 -50,-74 -34,-83 -18,-87 v -90 l 18,-87 34,-83 50,-74 63,-63 74,-50 82,-34 44,-8 44,-9 h 89 z"
           id="path1940" />
      </g>
    </g>
    <g
       id="g2032"
       transform="scale(0.00254)">
      <g
         style="fill:#000000;fill-opacity:1;stroke:#000000;stroke-linecap:round;stroke-linejoin:round;stroke-opacity:1"
         id="g1973" />
      <g
         style="fill:#000000;fill-opacity:0;stroke:#000000;stroke-width:-0.000393701;stroke-linecap:round;stroke-linejoin:round;stroke-opacity:1"
         id="g2005">
        <g
           id="g1975" />
        <g
           id="g1977" />
        <g
           id="g1979" />
        <g
           id="g1981" />
        <g
           id="g1983" />
        <g
           id="g1985" />
        <g
           id="g1987" />
        <g
           id="g1989" />
        <g
           id="g1991" />
        <g
           id="g1993" />
        <g
           id="g1995" />
        <g
           id="g1997" />
        <g
           id="g1999" />
        <g
           id="g2001" />
        <g
           id="g2003" />
      </g>
    </g>
    <g
       id="g2055"
       transform="scale(0.00254)">
      <g
         style="fill:#000000;fill-opacity:1;stroke:#000000;stroke-linecap:round;stroke-linejoin:round;stroke-opacity:1"
         id="g2038" />
      <g
         style="fill:#000000;fill-opacity:0;stroke:#000000;stroke-width:-0.000393701;stroke-linecap:round;stroke-linejoin:round;stroke-opacity:1"
         id="g2042">
        <g
           id="g2040" />
      </g>
    </g>
    <g
       id="g2120"
       transform="scale(0.00254)">
      <g
         style="fill:#000000;fill-opacity:1;stroke:#000000;stroke-linecap:round;stroke-linejoin:round;stroke-opacity:1"
         id="g2061" />
      <g
         style="fill:#000000;fill-opacity:0;stroke:#000000;stroke-width:-0.000393701;stroke-linecap:round;stroke-linejoin:round;stroke-opacity:1"
         id="g2093">
        <g
           id="g2063" />
        <g
           id="g2065" />
        <g
           id="g2067" />
        <g
           id="g2069" />
        <g
           id="g2071" />
        <g
           id="g2073" />
        <g
           id="g2075" />
        <g
           id="g2077" />
        <g
           id="g2079" />
        <g
           id="g2081" />
        <g
           id="g2083" />
        <g
           id="g2085" />
        <g
           id="g2087" />
        <g
           id="g2089" />
        <g
           id="g2091" />
      </g>
    </g>
    <g
       id="g2179"
       transform="scale(0.00254)">
      <g
         style="fill:#000000;fill-opacity:1;stroke:#000000;stroke-linecap:round;stroke-linejoin:round;stroke-opacity:1"
         id="g2126" />
      <g
         style="fill:#000000;fill-opacity:0;stroke:#000000;stroke-width:-0.000393701;stroke-linecap:round;stroke-linejoin:round;stroke-opacity:1"
         id="g2154">
        <g
           id="g2128" />
        <g
           id="g2130" />
        <g
           id="g2132" />
        <g
           id="g2134" />
        <g
           id="g2136" />
        <g
           id="g2138" />
        <g
           id="g2140" />
        <g
           id="g2142" />
        <g
           id="g2144" />
        <g
           id="g2146" />
        <g
           id="g2148" />
        <g
           id="g2150" />
        <g
           id="g2152" />
      </g>
    </g>
    <g
       id="g2244"
       transform="scale(0.00254)">
      <g
         style="fill:#000000;fill-opacity:1;stroke:#000000;stroke-linecap:round;stroke-linejoin:round;stroke-opacity:1"
         id="g2185" />
      <g
         style="fill:#000000;fill-opacity:0;stroke:#000000;stroke-width:-0.000393701;stroke-linecap:round;stroke-linejoin:round;stroke-opacity:1"
         id="g2217">
        <g
           id="g2187" />
        <g
           id="g2189" />
        <g
           id="g2191" />
        <g
           id="g2193" />
        <g
           id="g2195" />
        <g
           id="g2197" />
        <g
           id="g2199" />
        <g
           id="g2201" />
        <g
           id="g2203" />
        <g
           id="g2205" />
        <g
           id="g2207" />
        <g
           id="g2209" />
        <g
           id="g2211" />
        <g
           id="g2213" />
        <g
           id="g2215" />
      </g>
    </g>
    <g
       id="g2303"
       transform="scale(0.00254)">
      <g
         style="fill:#000000;fill-opacity:1;stroke:#000000;stroke-linecap:round;stroke-linejoin:round;stroke-opacity:1"
         id="g2250" />
      <g
         style="fill:#000000;fill-opacity:0;stroke:#000000;stroke-width:-0.000393701;stroke-linecap:round;stroke-linejoin:round;stroke-opacity:1"
         id="g2278">
        <g
           id="g2252" />
        <g
           id="g2254" />
        <g
           id="g2256" />
        <g
           id="g2258" />
        <g
           id="g2260" />
        <g
           id="g2262" />
        <g
           id="g2264" />
        <g
           id="g2266" />
        <g
           id="g2268" />
        <g
           id="g2270" />
        <g
           id="g2272" />
        <g
           id="g2274" />
        <g
           id="g2276" />
      </g>
    </g>
    <g
       id="g2362"
       transform="matrix(0.00254,0,0,0.00254,109.0852,142.25197)">
      <g
         style="fill:#000000;fill-opacity:1;stroke:#000000;stroke-linecap:round;stroke-linejoin:round;stroke-opacity:1"
         id="g2309" />
      <g
         style="fill:#000000;fill-opacity:0;stroke:#000000;stroke-width:-0.000393701;stroke-linecap:round;stroke-linejoin:round;stroke-opacity:1"
         id="g2311" />
      <g
         style="fill:#000000;fill-opacity:1;stroke:#000000;stroke-width:0;stroke-linecap:round;stroke-linejoin:round;stroke-opacity:1"
         id="g2337">
        <path
           style="fill:#000000;fill-opacity:1;fill-rule:evenodd;stroke:#000000;stroke-width:0;stroke-linecap:round;stroke-linejoin:round;stroke-opacity:1"
           d="m 138836,70805 46,9 82,34 74,50 63,63 50,74 34,82 18,88 v 89 l -18,88 -34,82 -50,74 -63,63 -74,50 -82,34 -44,9 -44,9 h -89 l -44,-9 -44,-9 -82,-34 -74,-50 -63,-63 -50,-74 -34,-82 -18,-88 v -89 l 18,-88 34,-82 50,-74 63,-63 74,-50 82,-34 46,-9 42,-9 h 89 z"
           id="path2313" />
        <path
           style="fill:#000000;fill-opacity:1;fill-rule:evenodd;stroke:#000000;stroke-width:0;stroke-linecap:round;stroke-linejoin:round;stroke-opacity:1"
           d="m 76651,70492 43,9 83,34 74,50 63,63 50,74 34,83 17,87 v 90 l -17,87 -34,83 -50,74 -63,63 -74,49 -83,35 -43,8 -44,9 h -90 l -43,-9 -44,-8 -83,-35 -74,-49 -63,-63 -49,-74 -35,-83 -17,-87 v -90 l 17,-87 35,-83 49,-74 63,-63 74,-50 83,-34 44,-9 43,-8 h 90 z"
           id="path2315" />
        <path
           style="fill:#000000;fill-opacity:1;fill-rule:evenodd;stroke:#000000;stroke-width:0;stroke-linecap:round;stroke-linejoin:round;stroke-opacity:1"
           d="m 14150,70492 44,9 83,34 74,50 63,63 50,74 34,83 17,87 v 90 l -17,87 -34,83 -50,74 -63,63 -74,49 -83,35 -44,8 -43,9 h -90 l -43,-9 -44,-8 -83,-35 -74,-49 -63,-63 -50,-74 -34,-83 -17,-87 v -90 l 17,-87 34,-83 50,-74 63,-63 74,-50 83,-34 44,-9 43,-8 h 90 z"
           id="path2317" />
        <path
           style="fill:#000000;fill-opacity:1;fill-rule:evenodd;stroke:#000000;stroke-width:0;stroke-linecap:round;stroke-linejoin:round;stroke-opacity:1"
           d="m 9775,35805 44,9 83,34 74,50 63,63 50,74 34,82 17,88 v 89 l -17,88 -34,82 -50,74 -63,64 -74,49 -83,34 -44,9 -43,9 h -90 l -43,-9 -44,-9 -83,-34 -74,-49 -63,-64 -50,-74 -34,-82 -17,-88 v -89 l 17,-88 34,-82 50,-74 63,-63 74,-50 83,-34 44,-9 43,-9 h 90 z"
           id="path2319" />
        <path
           style="fill:#000000;fill-opacity:1;fill-rule:evenodd;stroke:#000000;stroke-width:0;stroke-linecap:round;stroke-linejoin:round;stroke-opacity:1"
           d="m 76651,35805 43,9 83,34 74,50 63,63 50,74 34,82 17,88 v 89 l -17,88 -34,82 -50,74 -63,64 -74,49 -83,34 -43,9 -44,9 h -90 l -43,-9 -44,-9 -83,-34 -74,-49 -63,-64 -49,-74 -35,-82 -17,-88 v -89 l 17,-88 35,-82 49,-74 63,-63 74,-50 83,-34 44,-9 43,-9 h 90 z"
           id="path2321" />
        <path
           style="fill:#000000;fill-opacity:1;fill-rule:evenodd;stroke:#000000;stroke-width:0;stroke-linecap:round;stroke-linejoin:round;stroke-opacity:1"
           d="m 138838,29868 44,8 82,34 74,50 63,63 50,74 34,83 18,87 v 90 l -18,87 -34,83 -50,74 -63,63 -74,50 -82,34 -44,8 -44,9 h -89 l -44,-9 -44,-8 -82,-34 -74,-50 -63,-63 -50,-74 -34,-83 -18,-87 v -90 l 18,-87 34,-83 50,-74 63,-63 74,-50 82,-34 44,-8 44,-9 h 89 z"
           id="path2323" />
        <path
           style="fill:#000000;fill-opacity:1;fill-rule:evenodd;stroke:#000000;stroke-width:0;stroke-linecap:round;stroke-linejoin:round;stroke-opacity:1"
           d="m 76024,24867 45,9 83,34 74,50 63,63 49,74 35,83 17,87 v 90 l -17,87 -35,83 -49,74 -63,63 -74,50 -83,34 -44,8 -43,9 h -90 l -44,-9 -43,-8 -83,-34 -74,-50 -63,-63 -50,-74 -34,-83 -17,-87 v -90 l 17,-87 34,-83 50,-74 63,-63 74,-50 83,-34 45,-9 42,-8 h 90 z"
           id="path2325" />
        <path
           style="fill:#000000;fill-opacity:1;fill-rule:evenodd;stroke:#000000;stroke-width:0;stroke-linecap:round;stroke-linejoin:round;stroke-opacity:1"
           d="m 7588,24555 44,9 82,34 74,50 63,63 50,74 34,82 18,88 v 89 l -18,88 -34,82 -50,74 -63,64 -74,49 -82,34 -44,9 -44,9 h -89 l -44,-9 -44,-9 -82,-34 -74,-49 -63,-64 -50,-74 -34,-82 -18,-88 v -89 l 18,-88 34,-82 50,-74 63,-63 74,-50 82,-34 44,-9 44,-9 h 89 z"
           id="path2327" />
        <path
           style="fill:#000000;fill-opacity:1;fill-rule:evenodd;stroke:#000000;stroke-width:0;stroke-linecap:round;stroke-linejoin:round;stroke-opacity:1"
           d="m 138838,24555 44,9 82,34 74,50 63,63 50,74 34,82 18,88 v 89 l -18,88 -34,82 -50,74 -63,64 -74,49 -82,34 -44,9 -44,9 h -89 l -44,-9 -44,-9 -82,-34 -74,-49 -63,-64 -50,-74 -34,-82 -18,-88 v -89 l 18,-88 34,-82 50,-74 63,-63 74,-50 82,-34 44,-9 44,-9 h 89 z"
           id="path2329" />
        <path
           style="fill:#000000;fill-opacity:1;fill-rule:evenodd;stroke:#000000;stroke-width:0;stroke-linecap:round;stroke-linejoin:round;stroke-opacity:1"
           d="m 7588,7368 44,8 82,34 74,50 63,63 50,74 34,83 18,87 v 90 l -18,87 -34,83 -50,74 -63,63 -74,50 -82,34 -44,8 -44,9 h -89 l -44,-9 -44,-8 -82,-34 -74,-50 -63,-63 -50,-74 -34,-83 -18,-87 v -90 l 18,-87 34,-83 50,-74 63,-63 74,-50 82,-34 44,-8 44,-9 h 89 z"
           id="path2331" />
        <path
           style="fill:#000000;fill-opacity:1;fill-rule:evenodd;stroke:#000000;stroke-width:0;stroke-linecap:round;stroke-linejoin:round;stroke-opacity:1"
           d="m 75713,7368 43,8 83,34 74,50 63,63 50,74 34,83 17,87 v 90 l -17,87 -34,83 -50,74 -63,63 -74,50 -83,34 -43,8 -44,9 h -89 l -44,-9 -44,-8 -82,-34 -75,-50 -63,-63 -49,-74 -34,-83 -18,-87 v -90 l 18,-87 34,-83 49,-74 63,-63 75,-50 82,-34 44,-8 44,-9 h 89 z"
           id="path2333" />
        <path
           style="fill:#000000;fill-opacity:1;fill-rule:evenodd;stroke:#000000;stroke-width:0;stroke-linecap:round;stroke-linejoin:round;stroke-opacity:1"
           d="m 138838,7368 44,8 82,34 74,50 63,63 50,74 34,83 18,87 v 90 l -18,87 -34,83 -50,74 -63,63 -74,50 -82,34 -44,8 -44,9 h -89 l -44,-9 -44,-8 -82,-34 -74,-50 -63,-63 -50,-74 -34,-83 -18,-87 v -90 l 18,-87 34,-83 50,-74 63,-63 74,-50 82,-34 44,-8 44,-9 h 89 z"
           id="path2335" />
      </g>
    </g>
    <g
       id="g2427"
       transform="scale(0.00254)">
      <g
         style="fill:#000000;fill-opacity:1;stroke:#000000;stroke-linecap:round;stroke-linejoin:round;stroke-opacity:1"
         id="g2368" />
      <g
         style="fill:#000000;fill-opacity:0;stroke:#000000;stroke-width:-0.000393701;stroke-linecap:round;stroke-linejoin:round;stroke-opacity:1"
         id="g2400">
        <g
           id="g2370" />
        <g
           id="g2372" />
        <g
           id="g2374" />
        <g
           id="g2376" />
        <g
           id="g2378" />
        <g
           id="g2380" />
        <g
           id="g2382" />
        <g
           id="g2384" />
        <g
           id="g2386" />
        <g
           id="g2388" />
        <g
           id="g2390" />
        <g
           id="g2392" />
        <g
           id="g2394" />
        <g
           id="g2396" />
        <g
           id="g2398" />
      </g>
    </g>
    <g
       id="g2450"
       transform="scale(0.00254)">
      <g
         style="fill:#000000;fill-opacity:1;stroke:#000000;stroke-linecap:round;stroke-linejoin:round;stroke-opacity:1"
         id="g2433" />
      <g
         style="fill:#000000;fill-opacity:0;stroke:#000000;stroke-width:-0.000393701;stroke-linecap:round;stroke-linejoin:round;stroke-opacity:1"
         id="g2437">
        <g
           id="g2435" />
      </g>
    </g>
  </g>
</svg>
