<?xml version="1.0" standalone="no"?>
 <!DOCTYPE svg PUBLIC "-//W3C//DTD SVG 1.1//EN" 
 "http://www.w3.org/Graphics/SVG/1.1/DTD/svg11.dtd"> 
<svg xmlns="http://www.w3.org/2000/svg" version="1.1" 
    width="41.9989cm" height="29.7002cm" viewBox="0 0 165350 116930 ">
<title>SVG Picture created as CZTKeyRev1AcrylicPlate-F_Fab.svg date 2020/12/20 15:42:08 </title>
  <desc>Picture generated by PCBNEW </desc>
<g style="fill:#000000; fill-opacity:1;stroke:#000000; stroke-opacity:1;
stroke-linecap:round; stroke-linejoin:round; "
 transform="translate(0 0) scale(1 1)">
</g>
<g style="fill:#000000; fill-opacity:0.0; 
stroke:#000000; stroke-width:-0.000393701; stroke-opacity:1; 
stroke-linecap:round; stroke-linejoin:round;">
<g >
</g>
<g >
</g>
<g >
</g>
<g >
</g>
<g >
</g>
<g >
</g>
<g >
</g>
<g >
</g>
<g >
</g>
<g >
</g>
<g >
</g>
<g >
</g>
</g>
<g style="fill:#000000; fill-opacity:0.0; 
stroke:#000000; stroke-width:-0.000393701; stroke-opacity:1; 
stroke-linecap:round; stroke-linejoin:round;">
</g>
<g style="fill:#000000; fill-opacity:0.0; 
stroke:#000000; stroke-width:59.0551; stroke-opacity:1; 
stroke-linecap:round; stroke-linejoin:round;">
<path d="M136162 72687
L136162 72294
L136294 72575
L136425 72294
L136425 72687
" />
<path d="M136669 72687
L136631 72669
L136612 72650
L136594 72612
L136594 72500
L136612 72462
L136631 72444
L136669 72425
L136725 72425
L136762 72444
L136781 72462
L136800 72500
L136800 72612
L136781 72650
L136762 72669
L136725 72687
L136669 72687
" />
<path d="M137137 72425
L137137 72687
" />
<path d="M136968 72425
L136968 72631
L136987 72669
L137025 72687
L137081 72687
L137118 72669
L137137 72650
" />
<path d="M137325 72425
L137325 72687
" />
<path d="M137325 72462
L137343 72444
L137381 72425
L137437 72425
L137475 72444
L137493 72481
L137493 72687
" />
<path d="M137625 72425
L137775 72425
" />
<path d="M137681 72294
L137681 72631
L137700 72669
L137737 72687
L137775 72687
" />
<path d="M137906 72687
L137906 72425
" />
<path d="M137906 72294
L137887 72312
L137906 72331
L137925 72312
L137906 72294
L137906 72331
" />
<path d="M138093 72425
L138093 72687
" />
<path d="M138093 72462
L138112 72444
L138150 72425
L138206 72425
L138243 72444
L138262 72481
L138262 72687
" />
<path d="M138618 72425
L138618 72744
L138600 72781
L138581 72800
L138543 72819
L138487 72819
L138450 72800
" />
<path d="M138618 72669
L138581 72687
L138506 72687
L138468 72669
L138450 72650
L138431 72612
L138431 72500
L138450 72462
L138468 72444
L138506 72425
L138581 72425
L138618 72444
" />
<path d="M138806 72687
L138806 72294
" />
<path d="M138806 72481
L139031 72481
" />
<path d="M139031 72687
L139031 72294
" />
<path d="M139274 72687
L139237 72669
L139218 72650
L139199 72612
L139199 72500
L139218 72462
L139237 72444
L139274 72425
L139331 72425
L139368 72444
L139387 72462
L139406 72500
L139406 72612
L139387 72650
L139368 72669
L139331 72687
L139274 72687
" />
<path d="M139631 72687
L139593 72669
L139574 72631
L139574 72294
" />
<path d="M139931 72669
L139893 72687
L139818 72687
L139781 72669
L139762 72631
L139762 72481
L139781 72444
L139818 72425
L139893 72425
L139931 72444
L139949 72481
L139949 72519
L139762 72556
" />
<path d="M140024 72725
L140324 72725
" />
<path d="M140418 72687
L140418 72294
L140568 72294
L140606 72312
L140624 72331
L140643 72369
L140643 72425
L140624 72462
L140606 72481
L140568 72500
L140418 72500
" />
<path d="M140980 72687
L140980 72481
L140962 72444
L140924 72425
L140849 72425
L140812 72444
" />
<path d="M140980 72669
L140943 72687
L140849 72687
L140812 72669
L140793 72631
L140793 72594
L140812 72556
L140849 72537
L140943 72537
L140980 72519
" />
<path d="M141337 72687
L141337 72294
" />
<path d="M141337 72669
L141299 72687
L141224 72687
L141187 72669
L141168 72650
L141149 72612
L141149 72500
L141168 72462
L141187 72444
L141224 72425
L141299 72425
L141337 72444
" />
<path d="M137640 71428
L137640 71034
L137790 71034
L137827 71053
L137846 71071
L137865 71109
L137865 71165
L137846 71203
L137827 71221
L137790 71240
L137640 71240
" />
<path d="M138258 71390
L138240 71409
L138183 71428
L138146 71428
L138090 71409
L138052 71371
L138033 71334
L138015 71259
L138015 71203
L138033 71128
L138052 71090
L138090 71053
L138146 71034
L138183 71034
L138240 71053
L138258 71071
" />
<path d="M138558 71221
L138615 71240
L138633 71259
L138652 71296
L138652 71353
L138633 71390
L138615 71409
L138577 71428
L138427 71428
L138427 71034
L138558 71034
L138596 71053
L138615 71071
L138633 71109
L138633 71146
L138615 71184
L138596 71203
L138558 71221
L138427 71221
" />
<path d="M138727 71465
L139027 71465
" />
<path d="M139252 71221
L139308 71240
L139327 71259
L139346 71296
L139346 71353
L139327 71390
L139308 71409
L139271 71428
L139121 71428
L139121 71034
L139252 71034
L139289 71053
L139308 71071
L139327 71109
L139327 71146
L139308 71184
L139289 71203
L139252 71221
L139121 71221
" />
<path d="M139739 71428
L139608 71240
" />
<path d="M139514 71428
L139514 71034
L139664 71034
L139702 71053
L139721 71071
L139739 71109
L139739 71165
L139721 71203
L139702 71221
L139664 71240
L139514 71240
" />
<path d="M140114 71428
L139889 71428
" />
<path d="M140002 71428
L140002 71034
L139964 71090
L139927 71128
L139889 71146
" />
<path d="M73975 72375
L73975 71981
L74106 72262
L74237 71981
L74237 72375
" />
<path d="M74481 72375
L74444 72356
L74425 72337
L74406 72300
L74406 72187
L74425 72150
L74444 72131
L74481 72112
L74537 72112
L74575 72131
L74594 72150
L74612 72187
L74612 72300
L74594 72337
L74575 72356
L74537 72375
L74481 72375
" />
<path d="M74950 72112
L74950 72375
" />
<path d="M74781 72112
L74781 72319
L74800 72356
L74837 72375
L74894 72375
L74931 72356
L74950 72337
" />
<path d="M75137 72112
L75137 72375
" />
<path d="M75137 72150
L75156 72131
L75194 72112
L75250 72112
L75287 72131
L75306 72169
L75306 72375
" />
<path d="M75437 72112
L75587 72112
" />
<path d="M75493 71981
L75493 72319
L75512 72356
L75550 72375
L75587 72375
" />
<path d="M75718 72375
L75718 72112
" />
<path d="M75718 71981
L75700 72000
L75718 72019
L75737 72000
L75718 71981
L75718 72019
" />
<path d="M75906 72112
L75906 72375
" />
<path d="M75906 72150
L75925 72131
L75962 72112
L76018 72112
L76056 72131
L76075 72169
L76075 72375
" />
<path d="M76431 72112
L76431 72431
L76412 72469
L76393 72487
L76356 72506
L76300 72506
L76262 72487
" />
<path d="M76431 72356
L76393 72375
L76318 72375
L76281 72356
L76262 72337
L76243 72300
L76243 72187
L76262 72150
L76281 72131
L76318 72112
L76393 72112
L76431 72131
" />
<path d="M76618 72375
L76618 71981
" />
<path d="M76618 72169
L76843 72169
" />
<path d="M76843 72375
L76843 71981
" />
<path d="M77087 72375
L77050 72356
L77031 72337
L77012 72300
L77012 72187
L77031 72150
L77050 72131
L77087 72112
L77143 72112
L77181 72131
L77200 72150
L77218 72187
L77218 72300
L77200 72337
L77181 72356
L77143 72375
L77087 72375
" />
<path d="M77443 72375
L77406 72356
L77387 72319
L77387 71981
" />
<path d="M77743 72356
L77706 72375
L77631 72375
L77593 72356
L77574 72319
L77574 72169
L77593 72131
L77631 72112
L77706 72112
L77743 72131
L77762 72169
L77762 72206
L77574 72244
" />
<path d="M77837 72412
L78137 72412
" />
<path d="M78231 72375
L78231 71981
L78381 71981
L78418 72000
L78437 72019
L78456 72056
L78456 72112
L78437 72150
L78418 72169
L78381 72187
L78231 72187
" />
<path d="M78793 72375
L78793 72169
L78774 72131
L78737 72112
L78662 72112
L78624 72131
" />
<path d="M78793 72356
L78756 72375
L78662 72375
L78624 72356
L78606 72319
L78606 72281
L78624 72244
L78662 72225
L78756 72225
L78793 72206
" />
<path d="M79149 72375
L79149 71981
" />
<path d="M79149 72356
L79112 72375
L79037 72375
L78999 72356
L78981 72337
L78962 72300
L78962 72187
L78981 72150
L78999 72131
L79037 72112
L79112 72112
L79149 72131
" />
<path d="M75452 71115
L75452 70721
L75602 70721
L75640 70740
L75658 70759
L75677 70796
L75677 70853
L75658 70890
L75640 70909
L75602 70928
L75452 70928
" />
<path d="M76071 71078
L76052 71096
L75996 71115
L75958 71115
L75902 71096
L75865 71059
L75846 71021
L75827 70946
L75827 70890
L75846 70815
L75865 70778
L75902 70740
L75958 70721
L75996 70721
L76052 70740
L76071 70759
" />
<path d="M76371 70909
L76427 70928
L76446 70946
L76465 70984
L76465 71040
L76446 71078
L76427 71096
L76390 71115
L76240 71115
L76240 70721
L76371 70721
L76408 70740
L76427 70759
L76446 70796
L76446 70834
L76427 70871
L76408 70890
L76371 70909
L76240 70909
" />
<path d="M76540 71152
L76840 71152
" />
<path d="M77065 70909
L77121 70928
L77140 70946
L77158 70984
L77158 71040
L77140 71078
L77121 71096
L77083 71115
L76933 71115
L76933 70721
L77065 70721
L77102 70740
L77121 70759
L77140 70796
L77140 70834
L77121 70871
L77102 70890
L77065 70909
L76933 70909
" />
<path d="M77552 71078
L77533 71096
L77477 71115
L77439 71115
L77383 71096
L77346 71059
L77327 71021
L77308 70946
L77308 70890
L77327 70815
L77346 70778
L77383 70740
L77439 70721
L77477 70721
L77533 70740
L77552 70759
" />
<path d="M77927 71115
L77702 71115
" />
<path d="M77814 71115
L77814 70721
L77777 70778
L77739 70815
L77702 70834
" />
<path d="M73975 37687
L73975 37294
L74106 37575
L74237 37294
L74237 37687
" />
<path d="M74481 37687
L74444 37669
L74425 37650
L74406 37612
L74406 37500
L74425 37463
L74444 37444
L74481 37425
L74537 37425
L74575 37444
L74594 37463
L74612 37500
L74612 37612
L74594 37650
L74575 37669
L74537 37687
L74481 37687
" />
<path d="M74950 37425
L74950 37687
" />
<path d="M74781 37425
L74781 37631
L74800 37669
L74837 37687
L74894 37687
L74931 37669
L74950 37650
" />
<path d="M75137 37425
L75137 37687
" />
<path d="M75137 37463
L75156 37444
L75194 37425
L75250 37425
L75287 37444
L75306 37481
L75306 37687
" />
<path d="M75437 37425
L75587 37425
" />
<path d="M75493 37294
L75493 37631
L75512 37669
L75550 37687
L75587 37687
" />
<path d="M75718 37687
L75718 37425
" />
<path d="M75718 37294
L75700 37313
L75718 37331
L75737 37313
L75718 37294
L75718 37331
" />
<path d="M75906 37425
L75906 37687
" />
<path d="M75906 37463
L75925 37444
L75962 37425
L76018 37425
L76056 37444
L76075 37481
L76075 37687
" />
<path d="M76431 37425
L76431 37744
L76412 37781
L76393 37800
L76356 37819
L76300 37819
L76262 37800
" />
<path d="M76431 37669
L76393 37687
L76318 37687
L76281 37669
L76262 37650
L76243 37612
L76243 37500
L76262 37463
L76281 37444
L76318 37425
L76393 37425
L76431 37444
" />
<path d="M76618 37687
L76618 37294
" />
<path d="M76618 37481
L76843 37481
" />
<path d="M76843 37687
L76843 37294
" />
<path d="M77087 37687
L77050 37669
L77031 37650
L77012 37612
L77012 37500
L77031 37463
L77050 37444
L77087 37425
L77143 37425
L77181 37444
L77200 37463
L77218 37500
L77218 37612
L77200 37650
L77181 37669
L77143 37687
L77087 37687
" />
<path d="M77443 37687
L77406 37669
L77387 37631
L77387 37294
" />
<path d="M77743 37669
L77706 37687
L77631 37687
L77593 37669
L77574 37631
L77574 37481
L77593 37444
L77631 37425
L77706 37425
L77743 37444
L77762 37481
L77762 37519
L77574 37556
" />
<path d="M77837 37725
L78137 37725
" />
<path d="M78231 37687
L78231 37294
L78381 37294
L78418 37313
L78437 37331
L78456 37369
L78456 37425
L78437 37463
L78418 37481
L78381 37500
L78231 37500
" />
<path d="M78793 37687
L78793 37481
L78774 37444
L78737 37425
L78662 37425
L78624 37444
" />
<path d="M78793 37669
L78756 37687
L78662 37687
L78624 37669
L78606 37631
L78606 37594
L78624 37556
L78662 37538
L78756 37538
L78793 37519
" />
<path d="M79149 37687
L79149 37294
" />
<path d="M79149 37669
L79112 37687
L79037 37687
L78999 37669
L78981 37650
L78962 37612
L78962 37500
L78981 37463
L78999 37444
L79037 37425
L79112 37425
L79149 37444
" />
<path d="M75499 36428
L75499 36034
L75649 36034
L75687 36053
L75705 36071
L75724 36109
L75724 36165
L75705 36203
L75687 36221
L75649 36240
L75499 36240
" />
<path d="M76118 36390
L76099 36409
L76043 36428
L76005 36428
L75949 36409
L75912 36371
L75893 36334
L75874 36259
L75874 36203
L75893 36128
L75912 36090
L75949 36053
L76005 36034
L76043 36034
L76099 36053
L76118 36071
" />
<path d="M76418 36221
L76474 36240
L76493 36259
L76511 36296
L76511 36353
L76493 36390
L76474 36409
L76436 36428
L76287 36428
L76287 36034
L76418 36034
L76455 36053
L76474 36071
L76493 36109
L76493 36146
L76474 36184
L76455 36203
L76418 36221
L76287 36221
" />
<path d="M76586 36465
L76886 36465
" />
<path d="M76924 36034
L77149 36034
" />
<path d="M77036 36428
L77036 36034
" />
<path d="M77505 36390
L77486 36409
L77430 36428
L77393 36428
L77336 36409
L77299 36371
L77280 36334
L77261 36259
L77261 36203
L77280 36128
L77299 36090
L77336 36053
L77393 36034
L77430 36034
L77486 36053
L77505 36071
" />
<path d="M77880 36428
L77655 36428
" />
<path d="M77768 36428
L77768 36034
L77730 36090
L77693 36128
L77655 36146
" />
<path d="M11475 72375
L11475 71981
L11606 72262
L11737 71981
L11737 72375
" />
<path d="M11981 72375
L11944 72356
L11925 72337
L11906 72300
L11906 72187
L11925 72150
L11944 72131
L11981 72112
L12037 72112
L12075 72131
L12094 72150
L12112 72187
L12112 72300
L12094 72337
L12075 72356
L12037 72375
L11981 72375
" />
<path d="M12450 72112
L12450 72375
" />
<path d="M12281 72112
L12281 72319
L12300 72356
L12337 72375
L12393 72375
L12431 72356
L12450 72337
" />
<path d="M12637 72112
L12637 72375
" />
<path d="M12637 72150
L12656 72131
L12693 72112
L12750 72112
L12787 72131
L12806 72169
L12806 72375
" />
<path d="M12937 72112
L13087 72112
" />
<path d="M12993 71981
L12993 72319
L13012 72356
L13050 72375
L13087 72375
" />
<path d="M13218 72375
L13218 72112
" />
<path d="M13218 71981
L13200 72000
L13218 72019
L13237 72000
L13218 71981
L13218 72019
" />
<path d="M13406 72112
L13406 72375
" />
<path d="M13406 72150
L13425 72131
L13462 72112
L13518 72112
L13556 72131
L13575 72169
L13575 72375
" />
<path d="M13931 72112
L13931 72431
L13912 72469
L13893 72487
L13856 72506
L13800 72506
L13762 72487
" />
<path d="M13931 72356
L13893 72375
L13818 72375
L13781 72356
L13762 72337
L13743 72300
L13743 72187
L13762 72150
L13781 72131
L13818 72112
L13893 72112
L13931 72131
" />
<path d="M14118 72375
L14118 71981
" />
<path d="M14118 72169
L14343 72169
" />
<path d="M14343 72375
L14343 71981
" />
<path d="M14587 72375
L14549 72356
L14531 72337
L14512 72300
L14512 72187
L14531 72150
L14549 72131
L14587 72112
L14643 72112
L14681 72131
L14699 72150
L14718 72187
L14718 72300
L14699 72337
L14681 72356
L14643 72375
L14587 72375
" />
<path d="M14943 72375
L14906 72356
L14887 72319
L14887 71981
" />
<path d="M15243 72356
L15206 72375
L15131 72375
L15093 72356
L15074 72319
L15074 72169
L15093 72131
L15131 72112
L15206 72112
L15243 72131
L15262 72169
L15262 72206
L15074 72244
" />
<path d="M15337 72412
L15637 72412
" />
<path d="M15731 72375
L15731 71981
L15881 71981
L15918 72000
L15937 72019
L15956 72056
L15956 72112
L15937 72150
L15918 72169
L15881 72187
L15731 72187
" />
<path d="M16293 72375
L16293 72169
L16274 72131
L16237 72112
L16162 72112
L16124 72131
" />
<path d="M16293 72356
L16255 72375
L16162 72375
L16124 72356
L16106 72319
L16106 72281
L16124 72244
L16162 72225
L16255 72225
L16293 72206
" />
<path d="M16649 72375
L16649 71981
" />
<path d="M16649 72356
L16612 72375
L16537 72375
L16499 72356
L16480 72337
L16462 72300
L16462 72187
L16480 72150
L16499 72131
L16537 72112
L16612 72112
L16649 72131
" />
<path d="M12990 71115
L12990 70721
L13140 70721
L13177 70740
L13196 70759
L13215 70796
L13215 70853
L13196 70890
L13177 70909
L13140 70928
L12990 70928
" />
<path d="M13608 71078
L13590 71096
L13533 71115
L13496 71115
L13440 71096
L13402 71059
L13383 71021
L13365 70946
L13365 70890
L13383 70815
L13402 70778
L13440 70740
L13496 70721
L13533 70721
L13590 70740
L13608 70759
" />
<path d="M13908 70909
L13965 70928
L13983 70946
L14002 70984
L14002 71040
L13983 71078
L13965 71096
L13927 71115
L13777 71115
L13777 70721
L13908 70721
L13946 70740
L13965 70759
L13983 70796
L13983 70834
L13965 70871
L13946 70890
L13908 70909
L13777 70909
" />
<path d="M14077 71152
L14377 71152
" />
<path d="M14602 70909
L14658 70928
L14677 70946
L14696 70984
L14696 71040
L14677 71078
L14658 71096
L14621 71115
L14471 71115
L14471 70721
L14602 70721
L14639 70740
L14658 70759
L14677 70796
L14677 70834
L14658 70871
L14639 70890
L14602 70909
L14471 70909
" />
<path d="M15052 71115
L14864 71115
L14864 70721
" />
<path d="M15389 71115
L15164 71115
" />
<path d="M15277 71115
L15277 70721
L15239 70778
L15202 70815
L15164 70834
" />
<path d="M73350 26750
L73350 26356
L73481 26637
L73612 26356
L73612 26750
" />
<path d="M73856 26750
L73818 26731
L73800 26712
L73781 26675
L73781 26562
L73800 26525
L73818 26506
L73856 26487
L73912 26487
L73950 26506
L73968 26525
L73987 26562
L73987 26675
L73968 26712
L73950 26731
L73912 26750
L73856 26750
" />
<path d="M74325 26487
L74325 26750
" />
<path d="M74156 26487
L74156 26694
L74175 26731
L74212 26750
L74268 26750
L74306 26731
L74325 26712
" />
<path d="M74512 26487
L74512 26750
" />
<path d="M74512 26525
L74531 26506
L74568 26487
L74625 26487
L74662 26506
L74681 26544
L74681 26750
" />
<path d="M74812 26487
L74962 26487
" />
<path d="M74868 26356
L74868 26694
L74887 26731
L74925 26750
L74962 26750
" />
<path d="M75093 26750
L75093 26487
" />
<path d="M75093 26356
L75075 26375
L75093 26394
L75112 26375
L75093 26356
L75093 26394
" />
<path d="M75281 26487
L75281 26750
" />
<path d="M75281 26525
L75299 26506
L75337 26487
L75393 26487
L75431 26506
L75449 26544
L75449 26750
" />
<path d="M75806 26487
L75806 26806
L75787 26844
L75768 26862
L75731 26881
L75674 26881
L75637 26862
" />
<path d="M75806 26731
L75768 26750
L75693 26750
L75656 26731
L75637 26712
L75618 26675
L75618 26562
L75637 26525
L75656 26506
L75693 26487
L75768 26487
L75806 26506
" />
<path d="M75993 26750
L75993 26356
" />
<path d="M75993 26544
L76218 26544
" />
<path d="M76218 26750
L76218 26356
" />
<path d="M76462 26750
L76424 26731
L76406 26712
L76387 26675
L76387 26562
L76406 26525
L76424 26506
L76462 26487
L76518 26487
L76556 26506
L76574 26525
L76593 26562
L76593 26675
L76574 26712
L76556 26731
L76518 26750
L76462 26750
" />
<path d="M76818 26750
L76781 26731
L76762 26694
L76762 26356
" />
<path d="M77118 26731
L77081 26750
L77006 26750
L76968 26731
L76949 26694
L76949 26544
L76968 26506
L77006 26487
L77081 26487
L77118 26506
L77137 26544
L77137 26581
L76949 26619
" />
<path d="M77212 26787
L77512 26787
" />
<path d="M77605 26750
L77605 26356
L77755 26356
L77793 26375
L77812 26394
L77830 26431
L77830 26487
L77812 26525
L77793 26544
L77755 26562
L77605 26562
" />
<path d="M78168 26750
L78168 26544
L78149 26506
L78112 26487
L78037 26487
L77999 26506
" />
<path d="M78168 26731
L78130 26750
L78037 26750
L77999 26731
L77980 26694
L77980 26656
L77999 26619
L78037 26600
L78130 26600
L78168 26581
" />
<path d="M78524 26750
L78524 26356
" />
<path d="M78524 26731
L78487 26750
L78412 26750
L78374 26731
L78355 26712
L78337 26675
L78337 26562
L78355 26525
L78374 26506
L78412 26487
L78487 26487
L78524 26506
" />
<path d="M74565 25490
L74565 25096
L74715 25096
L74752 25115
L74771 25134
L74790 25171
L74790 25228
L74771 25265
L74752 25284
L74715 25303
L74565 25303
" />
<path d="M75146 25490
L74958 25490
L74958 25096
" />
<path d="M75258 25378
L75446 25378
" />
<path d="M75221 25490
L75352 25096
L75483 25490
" />
<path d="M75558 25096
L75783 25096
" />
<path d="M75671 25490
L75671 25096
" />
<path d="M75914 25284
L76046 25284
" />
<path d="M76102 25490
L75914 25490
L75914 25096
L76102 25096
" />
<path d="M76177 25528
L76477 25528
" />
<path d="M76702 25284
L76758 25303
L76777 25321
L76796 25359
L76796 25415
L76777 25453
L76758 25471
L76721 25490
L76571 25490
L76571 25096
L76702 25096
L76739 25115
L76758 25134
L76777 25171
L76777 25209
L76758 25246
L76739 25265
L76702 25284
L76571 25284
" />
<path d="M77189 25453
L77170 25471
L77114 25490
L77077 25490
L77021 25471
L76983 25434
L76964 25396
L76946 25321
L76946 25265
L76964 25190
L76983 25153
L77021 25115
L77077 25096
L77114 25096
L77170 25115
L77189 25134
" />
<path d="M77564 25490
L77339 25490
" />
<path d="M77452 25490
L77452 25096
L77414 25153
L77377 25190
L77339 25209
" />
<path d="M7100 37687
L7100 37294
L7231 37575
L7362 37294
L7362 37687
" />
<path d="M7606 37687
L7569 37669
L7550 37650
L7531 37612
L7531 37500
L7550 37463
L7569 37444
L7606 37425
L7662 37425
L7700 37444
L7719 37463
L7737 37500
L7737 37612
L7719 37650
L7700 37669
L7662 37687
L7606 37687
" />
<path d="M8075 37425
L8075 37687
" />
<path d="M7906 37425
L7906 37631
L7925 37669
L7962 37687
L8018 37687
L8056 37669
L8075 37650
" />
<path d="M8262 37425
L8262 37687
" />
<path d="M8262 37463
L8281 37444
L8318 37425
L8375 37425
L8412 37444
L8431 37481
L8431 37687
" />
<path d="M8562 37425
L8712 37425
" />
<path d="M8618 37294
L8618 37631
L8637 37669
L8675 37687
L8712 37687
" />
<path d="M8843 37687
L8843 37425
" />
<path d="M8843 37294
L8825 37313
L8843 37331
L8862 37313
L8843 37294
L8843 37331
" />
<path d="M9031 37425
L9031 37687
" />
<path d="M9031 37463
L9050 37444
L9087 37425
L9143 37425
L9181 37444
L9200 37481
L9200 37687
" />
<path d="M9556 37425
L9556 37744
L9537 37781
L9518 37800
L9481 37819
L9425 37819
L9387 37800
" />
<path d="M9556 37669
L9518 37687
L9443 37687
L9406 37669
L9387 37650
L9368 37612
L9368 37500
L9387 37463
L9406 37444
L9443 37425
L9518 37425
L9556 37444
" />
<path d="M9743 37687
L9743 37294
" />
<path d="M9743 37481
L9968 37481
" />
<path d="M9968 37687
L9968 37294
" />
<path d="M10212 37687
L10174 37669
L10156 37650
L10137 37612
L10137 37500
L10156 37463
L10174 37444
L10212 37425
L10268 37425
L10306 37444
L10324 37463
L10343 37500
L10343 37612
L10324 37650
L10306 37669
L10268 37687
L10212 37687
" />
<path d="M10568 37687
L10531 37669
L10512 37631
L10512 37294
" />
<path d="M10868 37669
L10831 37687
L10756 37687
L10718 37669
L10699 37631
L10699 37481
L10718 37444
L10756 37425
L10831 37425
L10868 37444
L10887 37481
L10887 37519
L10699 37556
" />
<path d="M10962 37725
L11262 37725
" />
<path d="M11356 37687
L11356 37294
L11506 37294
L11543 37313
L11562 37331
L11581 37369
L11581 37425
L11562 37463
L11543 37481
L11506 37500
L11356 37500
" />
<path d="M11918 37687
L11918 37481
L11899 37444
L11862 37425
L11787 37425
L11749 37444
" />
<path d="M11918 37669
L11880 37687
L11787 37687
L11749 37669
L11731 37631
L11731 37594
L11749 37556
L11787 37538
L11880 37538
L11918 37519
" />
<path d="M12274 37687
L12274 37294
" />
<path d="M12274 37669
L12237 37687
L12162 37687
L12124 37669
L12105 37650
L12087 37612
L12087 37500
L12105 37463
L12124 37444
L12162 37425
L12237 37425
L12274 37444
" />
<path d="M8662 36428
L8662 36034
L8812 36034
L8849 36053
L8868 36071
L8886 36109
L8886 36165
L8868 36203
L8849 36221
L8812 36240
L8662 36240
" />
<path d="M9280 36390
L9261 36409
L9205 36428
L9168 36428
L9111 36409
L9074 36371
L9055 36334
L9036 36259
L9036 36203
L9055 36128
L9074 36090
L9111 36053
L9168 36034
L9205 36034
L9261 36053
L9280 36071
" />
<path d="M9580 36221
L9636 36240
L9655 36259
L9674 36296
L9674 36353
L9655 36390
L9636 36409
L9599 36428
L9449 36428
L9449 36034
L9580 36034
L9618 36053
L9636 36071
L9655 36109
L9655 36146
L9636 36184
L9618 36203
L9580 36221
L9449 36221
" />
<path d="M9749 36465
L10049 36465
" />
<path d="M10086 36034
L10311 36034
" />
<path d="M10199 36428
L10199 36034
" />
<path d="M10630 36428
L10443 36428
L10443 36034
" />
<path d="M10967 36428
L10743 36428
" />
<path d="M10855 36428
L10855 36034
L10818 36090
L10780 36128
L10743 36146
" />
<path d="M136162 31750
L136162 31356
L136294 31637
L136425 31356
L136425 31750
" />
<path d="M136669 31750
L136631 31731
L136612 31712
L136594 31675
L136594 31562
L136612 31525
L136631 31506
L136669 31487
L136725 31487
L136762 31506
L136781 31525
L136800 31562
L136800 31675
L136781 31712
L136762 31731
L136725 31750
L136669 31750
" />
<path d="M137137 31487
L137137 31750
" />
<path d="M136968 31487
L136968 31694
L136987 31731
L137025 31750
L137081 31750
L137118 31731
L137137 31712
" />
<path d="M137325 31487
L137325 31750
" />
<path d="M137325 31525
L137343 31506
L137381 31487
L137437 31487
L137475 31506
L137493 31544
L137493 31750
" />
<path d="M137625 31487
L137775 31487
" />
<path d="M137681 31356
L137681 31694
L137700 31731
L137737 31750
L137775 31750
" />
<path d="M137906 31750
L137906 31487
" />
<path d="M137906 31356
L137887 31375
L137906 31394
L137925 31375
L137906 31356
L137906 31394
" />
<path d="M138093 31487
L138093 31750
" />
<path d="M138093 31525
L138112 31506
L138150 31487
L138206 31487
L138243 31506
L138262 31544
L138262 31750
" />
<path d="M138618 31487
L138618 31806
L138600 31844
L138581 31862
L138543 31881
L138487 31881
L138450 31862
" />
<path d="M138618 31731
L138581 31750
L138506 31750
L138468 31731
L138450 31712
L138431 31675
L138431 31562
L138450 31525
L138468 31506
L138506 31487
L138581 31487
L138618 31506
" />
<path d="M138806 31750
L138806 31356
" />
<path d="M138806 31544
L139031 31544
" />
<path d="M139031 31750
L139031 31356
" />
<path d="M139274 31750
L139237 31731
L139218 31712
L139199 31675
L139199 31562
L139218 31525
L139237 31506
L139274 31487
L139331 31487
L139368 31506
L139387 31525
L139406 31562
L139406 31675
L139387 31712
L139368 31731
L139331 31750
L139274 31750
" />
<path d="M139631 31750
L139593 31731
L139574 31694
L139574 31356
" />
<path d="M139931 31731
L139893 31750
L139818 31750
L139781 31731
L139762 31694
L139762 31544
L139781 31506
L139818 31487
L139893 31487
L139931 31506
L139949 31544
L139949 31581
L139762 31619
" />
<path d="M140024 31787
L140324 31787
" />
<path d="M140418 31750
L140418 31356
L140568 31356
L140606 31375
L140624 31394
L140643 31431
L140643 31487
L140624 31525
L140606 31544
L140568 31562
L140418 31562
" />
<path d="M140980 31750
L140980 31544
L140962 31506
L140924 31487
L140849 31487
L140812 31506
" />
<path d="M140980 31731
L140943 31750
L140849 31750
L140812 31731
L140793 31694
L140793 31656
L140812 31619
L140849 31600
L140943 31600
L140980 31581
" />
<path d="M141337 31750
L141337 31356
" />
<path d="M141337 31731
L141299 31750
L141224 31750
L141187 31731
L141168 31712
L141149 31675
L141149 31562
L141168 31525
L141187 31506
L141224 31487
L141299 31487
L141337 31506
" />
<path d="M137687 30490
L137687 30096
L137836 30096
L137874 30115
L137893 30134
L137911 30171
L137911 30228
L137893 30265
L137874 30284
L137836 30303
L137687 30303
" />
<path d="M138305 30453
L138286 30471
L138230 30490
L138193 30490
L138136 30471
L138099 30434
L138080 30396
L138061 30321
L138061 30265
L138080 30190
L138099 30153
L138136 30115
L138193 30096
L138230 30096
L138286 30115
L138305 30134
" />
<path d="M138605 30284
L138661 30303
L138680 30321
L138699 30359
L138699 30415
L138680 30453
L138661 30471
L138624 30490
L138474 30490
L138474 30096
L138605 30096
L138643 30115
L138661 30134
L138680 30171
L138680 30209
L138661 30246
L138643 30265
L138605 30284
L138474 30284
" />
<path d="M138774 30528
L139074 30528
" />
<path d="M139111 30096
L139336 30096
" />
<path d="M139224 30490
L139224 30096
" />
<path d="M139693 30490
L139561 30303
" />
<path d="M139468 30490
L139468 30096
L139618 30096
L139655 30115
L139674 30134
L139693 30171
L139693 30228
L139674 30265
L139655 30284
L139618 30303
L139468 30303
" />
<path d="M140067 30490
L139842 30490
" />
<path d="M139955 30490
L139955 30096
L139917 30153
L139880 30190
L139842 30209
" />
<path d="M136162 26437
L136162 26044
L136294 26325
L136425 26044
L136425 26437
" />
<path d="M136669 26437
L136631 26419
L136612 26400
L136594 26362
L136594 26250
L136612 26213
L136631 26194
L136669 26175
L136725 26175
L136762 26194
L136781 26213
L136800 26250
L136800 26362
L136781 26400
L136762 26419
L136725 26437
L136669 26437
" />
<path d="M137137 26175
L137137 26437
" />
<path d="M136968 26175
L136968 26381
L136987 26419
L137025 26437
L137081 26437
L137118 26419
L137137 26400
" />
<path d="M137325 26175
L137325 26437
" />
<path d="M137325 26213
L137343 26194
L137381 26175
L137437 26175
L137475 26194
L137493 26231
L137493 26437
" />
<path d="M137625 26175
L137775 26175
" />
<path d="M137681 26044
L137681 26381
L137700 26419
L137737 26437
L137775 26437
" />
<path d="M137906 26437
L137906 26175
" />
<path d="M137906 26044
L137887 26063
L137906 26081
L137925 26063
L137906 26044
L137906 26081
" />
<path d="M138093 26175
L138093 26437
" />
<path d="M138093 26213
L138112 26194
L138150 26175
L138206 26175
L138243 26194
L138262 26231
L138262 26437
" />
<path d="M138618 26175
L138618 26494
L138600 26531
L138581 26550
L138543 26569
L138487 26569
L138450 26550
" />
<path d="M138618 26419
L138581 26437
L138506 26437
L138468 26419
L138450 26400
L138431 26362
L138431 26250
L138450 26213
L138468 26194
L138506 26175
L138581 26175
L138618 26194
" />
<path d="M138806 26437
L138806 26044
" />
<path d="M138806 26231
L139031 26231
" />
<path d="M139031 26437
L139031 26044
" />
<path d="M139274 26437
L139237 26419
L139218 26400
L139199 26362
L139199 26250
L139218 26213
L139237 26194
L139274 26175
L139331 26175
L139368 26194
L139387 26213
L139406 26250
L139406 26362
L139387 26400
L139368 26419
L139331 26437
L139274 26437
" />
<path d="M139631 26437
L139593 26419
L139574 26381
L139574 26044
" />
<path d="M139931 26419
L139893 26437
L139818 26437
L139781 26419
L139762 26381
L139762 26231
L139781 26194
L139818 26175
L139893 26175
L139931 26194
L139949 26231
L139949 26269
L139762 26306
" />
<path d="M140024 26475
L140324 26475
" />
<path d="M140418 26437
L140418 26044
L140568 26044
L140606 26063
L140624 26081
L140643 26119
L140643 26175
L140624 26213
L140606 26231
L140568 26250
L140418 26250
" />
<path d="M140980 26437
L140980 26231
L140962 26194
L140924 26175
L140849 26175
L140812 26194
" />
<path d="M140980 26419
L140943 26437
L140849 26437
L140812 26419
L140793 26381
L140793 26344
L140812 26306
L140849 26288
L140943 26288
L140980 26269
" />
<path d="M141337 26437
L141337 26044
" />
<path d="M141337 26419
L141299 26437
L141224 26437
L141187 26419
L141168 26400
L141149 26362
L141149 26250
L141168 26213
L141187 26194
L141224 26175
L141299 26175
L141337 26194
" />
<path d="M137377 25178
L137377 24784
L137527 24784
L137565 24803
L137583 24821
L137602 24859
L137602 24915
L137583 24953
L137565 24971
L137527 24990
L137377 24990
" />
<path d="M137958 25178
L137771 25178
L137771 24784
" />
<path d="M138071 25065
L138258 25065
" />
<path d="M138033 25178
L138165 24784
L138296 25178
" />
<path d="M138371 24784
L138596 24784
" />
<path d="M138483 25178
L138483 24784
" />
<path d="M138727 24971
L138858 24971
" />
<path d="M138914 25178
L138727 25178
L138727 24784
L138914 24784
" />
<path d="M138989 25215
L139289 25215
" />
<path d="M139514 24971
L139571 24990
L139589 25009
L139608 25046
L139608 25103
L139589 25140
L139571 25159
L139533 25178
L139383 25178
L139383 24784
L139514 24784
L139552 24803
L139571 24821
L139589 24859
L139589 24896
L139571 24934
L139552 24953
L139514 24971
L139383 24971
" />
<path d="M140002 25178
L139871 24990
" />
<path d="M139777 25178
L139777 24784
L139927 24784
L139964 24803
L139983 24821
L140002 24859
L140002 24915
L139983 24953
L139964 24971
L139927 24990
L139777 24990
" />
<path d="M140377 25178
L140152 25178
" />
<path d="M140264 25178
L140264 24784
L140227 24840
L140189 24878
L140152 24896
" />
<path d="M136162 9250
L136162 8856
L136294 9137
L136425 8856
L136425 9250
" />
<path d="M136669 9250
L136631 9231
L136612 9212
L136594 9175
L136594 9062
L136612 9025
L136631 9006
L136669 8987
L136725 8987
L136762 9006
L136781 9025
L136800 9062
L136800 9175
L136781 9212
L136762 9231
L136725 9250
L136669 9250
" />
<path d="M137137 8987
L137137 9250
" />
<path d="M136968 8987
L136968 9194
L136987 9231
L137025 9250
L137081 9250
L137118 9231
L137137 9212
" />
<path d="M137325 8987
L137325 9250
" />
<path d="M137325 9025
L137343 9006
L137381 8987
L137437 8987
L137475 9006
L137493 9044
L137493 9250
" />
<path d="M137625 8987
L137775 8987
" />
<path d="M137681 8856
L137681 9194
L137700 9231
L137737 9250
L137775 9250
" />
<path d="M137906 9250
L137906 8987
" />
<path d="M137906 8856
L137887 8875
L137906 8894
L137925 8875
L137906 8856
L137906 8894
" />
<path d="M138093 8987
L138093 9250
" />
<path d="M138093 9025
L138112 9006
L138150 8987
L138206 8987
L138243 9006
L138262 9044
L138262 9250
" />
<path d="M138618 8987
L138618 9306
L138600 9344
L138581 9362
L138543 9381
L138487 9381
L138450 9362
" />
<path d="M138618 9231
L138581 9250
L138506 9250
L138468 9231
L138450 9212
L138431 9175
L138431 9062
L138450 9025
L138468 9006
L138506 8987
L138581 8987
L138618 9006
" />
<path d="M138806 9250
L138806 8856
" />
<path d="M138806 9044
L139031 9044
" />
<path d="M139031 9250
L139031 8856
" />
<path d="M139274 9250
L139237 9231
L139218 9212
L139199 9175
L139199 9062
L139218 9025
L139237 9006
L139274 8987
L139331 8987
L139368 9006
L139387 9025
L139406 9062
L139406 9175
L139387 9212
L139368 9231
L139331 9250
L139274 9250
" />
<path d="M139631 9250
L139593 9231
L139574 9194
L139574 8856
" />
<path d="M139931 9231
L139893 9250
L139818 9250
L139781 9231
L139762 9194
L139762 9044
L139781 9006
L139818 8987
L139893 8987
L139931 9006
L139949 9044
L139949 9081
L139762 9119
" />
<path d="M140024 9287
L140324 9287
" />
<path d="M140418 9250
L140418 8856
L140568 8856
L140606 8875
L140624 8894
L140643 8931
L140643 8987
L140624 9025
L140606 9044
L140568 9062
L140418 9062
" />
<path d="M140980 9250
L140980 9044
L140962 9006
L140924 8987
L140849 8987
L140812 9006
" />
<path d="M140980 9231
L140943 9250
L140849 9250
L140812 9231
L140793 9194
L140793 9156
L140812 9119
L140849 9100
L140943 9100
L140980 9081
" />
<path d="M141337 9250
L141337 8856
" />
<path d="M141337 9231
L141299 9250
L141224 9250
L141187 9231
L141168 9212
L141149 9175
L141149 9062
L141168 9025
L141187 9006
L141224 8987
L141299 8987
L141337 9006
" />
<path d="M137424 7990
L137424 7596
L137574 7596
L137612 7615
L137630 7634
L137649 7671
L137649 7728
L137630 7765
L137612 7784
L137574 7803
L137424 7803
" />
<path d="M138005 7990
L137818 7990
L137818 7596
" />
<path d="M138118 7878
L138305 7878
" />
<path d="M138080 7990
L138211 7596
L138343 7990
" />
<path d="M138418 7596
L138643 7596
" />
<path d="M138530 7990
L138530 7596
" />
<path d="M138774 7784
L138905 7784
" />
<path d="M138961 7990
L138774 7990
L138774 7596
L138961 7596
" />
<path d="M139036 8028
L139336 8028
" />
<path d="M139374 7596
L139599 7596
" />
<path d="M139486 7990
L139486 7596
" />
<path d="M139955 7990
L139824 7803
" />
<path d="M139730 7990
L139730 7596
L139880 7596
L139917 7615
L139936 7634
L139955 7671
L139955 7728
L139936 7765
L139917 7784
L139880 7803
L139730 7803
" />
<path d="M140330 7990
L140105 7990
" />
<path d="M140217 7990
L140217 7596
L140180 7653
L140142 7690
L140105 7709
" />
<path d="M4912 26437
L4912 26044
L5044 26325
L5175 26044
L5175 26437
" />
<path d="M5419 26437
L5381 26419
L5362 26400
L5344 26362
L5344 26250
L5362 26213
L5381 26194
L5419 26175
L5475 26175
L5512 26194
L5531 26213
L5550 26250
L5550 26362
L5531 26400
L5512 26419
L5475 26437
L5419 26437
" />
<path d="M5887 26175
L5887 26437
" />
<path d="M5718 26175
L5718 26381
L5737 26419
L5775 26437
L5831 26437
L5868 26419
L5887 26400
" />
<path d="M6075 26175
L6075 26437
" />
<path d="M6075 26213
L6093 26194
L6131 26175
L6187 26175
L6225 26194
L6243 26231
L6243 26437
" />
<path d="M6375 26175
L6525 26175
" />
<path d="M6431 26044
L6431 26381
L6450 26419
L6487 26437
L6525 26437
" />
<path d="M6656 26437
L6656 26175
" />
<path d="M6656 26044
L6637 26063
L6656 26081
L6675 26063
L6656 26044
L6656 26081
" />
<path d="M6843 26175
L6843 26437
" />
<path d="M6843 26213
L6862 26194
L6900 26175
L6956 26175
L6993 26194
L7012 26231
L7012 26437
" />
<path d="M7368 26175
L7368 26494
L7350 26531
L7331 26550
L7293 26569
L7237 26569
L7200 26550
" />
<path d="M7368 26419
L7331 26437
L7256 26437
L7218 26419
L7200 26400
L7181 26362
L7181 26250
L7200 26213
L7218 26194
L7256 26175
L7331 26175
L7368 26194
" />
<path d="M7556 26437
L7556 26044
" />
<path d="M7556 26231
L7781 26231
" />
<path d="M7781 26437
L7781 26044
" />
<path d="M8024 26437
L7987 26419
L7968 26400
L7949 26362
L7949 26250
L7968 26213
L7987 26194
L8024 26175
L8081 26175
L8118 26194
L8137 26213
L8156 26250
L8156 26362
L8137 26400
L8118 26419
L8081 26437
L8024 26437
" />
<path d="M8381 26437
L8343 26419
L8324 26381
L8324 26044
" />
<path d="M8681 26419
L8643 26437
L8568 26437
L8531 26419
L8512 26381
L8512 26231
L8531 26194
L8568 26175
L8643 26175
L8681 26194
L8699 26231
L8699 26269
L8512 26306
" />
<path d="M8774 26475
L9074 26475
" />
<path d="M9168 26437
L9168 26044
L9318 26044
L9356 26063
L9374 26081
L9393 26119
L9393 26175
L9374 26213
L9356 26231
L9318 26250
L9168 26250
" />
<path d="M9730 26437
L9730 26231
L9712 26194
L9674 26175
L9599 26175
L9562 26194
" />
<path d="M9730 26419
L9693 26437
L9599 26437
L9562 26419
L9543 26381
L9543 26344
L9562 26306
L9599 26288
L9693 26288
L9730 26269
" />
<path d="M10087 26437
L10087 26044
" />
<path d="M10087 26419
L10049 26437
L9974 26437
L9937 26419
L9918 26400
L9899 26362
L9899 26250
L9918 26213
L9937 26194
L9974 26175
L10049 26175
L10087 26194
" />
<path d="M6165 25178
L6165 24784
L6315 24784
L6352 24803
L6371 24821
L6390 24859
L6390 24915
L6371 24953
L6352 24971
L6315 24990
L6165 24990
" />
<path d="M6746 25178
L6558 25178
L6558 24784
" />
<path d="M6858 25065
L7046 25065
" />
<path d="M6821 25178
L6952 24784
L7083 25178
" />
<path d="M7158 24784
L7383 24784
" />
<path d="M7271 25178
L7271 24784
" />
<path d="M7514 24971
L7646 24971
" />
<path d="M7702 25178
L7514 25178
L7514 24784
L7702 24784
" />
<path d="M7777 25215
L8077 25215
" />
<path d="M8302 24971
L8358 24990
L8377 25009
L8396 25046
L8396 25103
L8377 25140
L8358 25159
L8321 25178
L8171 25178
L8171 24784
L8302 24784
L8339 24803
L8358 24821
L8377 24859
L8377 24896
L8358 24934
L8339 24953
L8302 24971
L8171 24971
" />
<path d="M8752 25178
L8564 25178
L8564 24784
" />
<path d="M9089 25178
L8864 25178
" />
<path d="M8977 25178
L8977 24784
L8939 24840
L8902 24878
L8864 24896
" />
<path d="M4912 9250
L4912 8856
L5044 9137
L5175 8856
L5175 9250
" />
<path d="M5419 9250
L5381 9231
L5362 9212
L5344 9175
L5344 9062
L5362 9025
L5381 9006
L5419 8987
L5475 8987
L5512 9006
L5531 9025
L5550 9062
L5550 9175
L5531 9212
L5512 9231
L5475 9250
L5419 9250
" />
<path d="M5887 8987
L5887 9250
" />
<path d="M5718 8987
L5718 9194
L5737 9231
L5775 9250
L5831 9250
L5868 9231
L5887 9212
" />
<path d="M6075 8987
L6075 9250
" />
<path d="M6075 9025
L6093 9006
L6131 8987
L6187 8987
L6225 9006
L6243 9044
L6243 9250
" />
<path d="M6375 8987
L6525 8987
" />
<path d="M6431 8856
L6431 9194
L6450 9231
L6487 9250
L6525 9250
" />
<path d="M6656 9250
L6656 8987
" />
<path d="M6656 8856
L6637 8875
L6656 8894
L6675 8875
L6656 8856
L6656 8894
" />
<path d="M6843 8987
L6843 9250
" />
<path d="M6843 9025
L6862 9006
L6900 8987
L6956 8987
L6993 9006
L7012 9044
L7012 9250
" />
<path d="M7368 8987
L7368 9306
L7350 9344
L7331 9362
L7293 9381
L7237 9381
L7200 9362
" />
<path d="M7368 9231
L7331 9250
L7256 9250
L7218 9231
L7200 9212
L7181 9175
L7181 9062
L7200 9025
L7218 9006
L7256 8987
L7331 8987
L7368 9006
" />
<path d="M7556 9250
L7556 8856
" />
<path d="M7556 9044
L7781 9044
" />
<path d="M7781 9250
L7781 8856
" />
<path d="M8024 9250
L7987 9231
L7968 9212
L7949 9175
L7949 9062
L7968 9025
L7987 9006
L8024 8987
L8081 8987
L8118 9006
L8137 9025
L8156 9062
L8156 9175
L8137 9212
L8118 9231
L8081 9250
L8024 9250
" />
<path d="M8381 9250
L8343 9231
L8324 9194
L8324 8856
" />
<path d="M8681 9231
L8643 9250
L8568 9250
L8531 9231
L8512 9194
L8512 9044
L8531 9006
L8568 8987
L8643 8987
L8681 9006
L8699 9044
L8699 9081
L8512 9119
" />
<path d="M8774 9287
L9074 9287
" />
<path d="M9168 9250
L9168 8856
L9318 8856
L9356 8875
L9374 8894
L9393 8931
L9393 8987
L9374 9025
L9356 9044
L9318 9062
L9168 9062
" />
<path d="M9730 9250
L9730 9044
L9712 9006
L9674 8987
L9599 8987
L9562 9006
" />
<path d="M9730 9231
L9693 9250
L9599 9250
L9562 9231
L9543 9194
L9543 9156
L9562 9119
L9599 9100
L9693 9100
L9730 9081
" />
<path d="M10087 9250
L10087 8856
" />
<path d="M10087 9231
L10049 9250
L9974 9250
L9937 9231
L9918 9212
L9899 9175
L9899 9062
L9918 9025
L9937 9006
L9974 8987
L10049 8987
L10087 9006
" />
<path d="M6212 7990
L6212 7596
L6362 7596
L6399 7615
L6418 7634
L6437 7671
L6437 7728
L6418 7765
L6399 7784
L6362 7803
L6212 7803
" />
<path d="M6793 7990
L6605 7990
L6605 7596
" />
<path d="M6905 7878
L7093 7878
" />
<path d="M6868 7990
L6999 7596
L7130 7990
" />
<path d="M7205 7596
L7430 7596
" />
<path d="M7318 7990
L7318 7596
" />
<path d="M7561 7784
L7693 7784
" />
<path d="M7749 7990
L7561 7990
L7561 7596
L7749 7596
" />
<path d="M7824 8028
L8124 8028
" />
<path d="M8161 7596
L8386 7596
" />
<path d="M8274 7990
L8274 7596
" />
<path d="M8705 7990
L8517 7990
L8517 7596
" />
<path d="M9042 7990
L8817 7990
" />
<path d="M8930 7990
L8930 7596
L8892 7653
L8855 7690
L8817 7709
" />
<path d="M73037 9250
L73037 8856
L73168 9137
L73300 8856
L73300 9250
" />
<path d="M73543 9250
L73506 9231
L73487 9212
L73468 9175
L73468 9062
L73487 9025
L73506 9006
L73543 8987
L73600 8987
L73637 9006
L73656 9025
L73675 9062
L73675 9175
L73656 9212
L73637 9231
L73600 9250
L73543 9250
" />
<path d="M74012 8987
L74012 9250
" />
<path d="M73843 8987
L73843 9194
L73862 9231
L73900 9250
L73956 9250
L73993 9231
L74012 9212
" />
<path d="M74199 8987
L74199 9250
" />
<path d="M74199 9025
L74218 9006
L74256 8987
L74312 8987
L74349 9006
L74368 9044
L74368 9250
" />
<path d="M74499 8987
L74649 8987
" />
<path d="M74556 8856
L74556 9194
L74574 9231
L74612 9250
L74649 9250
" />
<path d="M74781 9250
L74781 8987
" />
<path d="M74781 8856
L74762 8875
L74781 8894
L74799 8875
L74781 8856
L74781 8894
" />
<path d="M74968 8987
L74968 9250
" />
<path d="M74968 9025
L74987 9006
L75024 8987
L75081 8987
L75118 9006
L75137 9044
L75137 9250
" />
<path d="M75493 8987
L75493 9306
L75474 9344
L75456 9362
L75418 9381
L75362 9381
L75324 9362
" />
<path d="M75493 9231
L75456 9250
L75381 9250
L75343 9231
L75324 9212
L75306 9175
L75306 9062
L75324 9025
L75343 9006
L75381 8987
L75456 8987
L75493 9006
" />
<path d="M75681 9250
L75681 8856
" />
<path d="M75681 9044
L75906 9044
" />
<path d="M75906 9250
L75906 8856
" />
<path d="M76149 9250
L76112 9231
L76093 9212
L76074 9175
L76074 9062
L76093 9025
L76112 9006
L76149 8987
L76205 8987
L76243 9006
L76262 9025
L76280 9062
L76280 9175
L76262 9212
L76243 9231
L76205 9250
L76149 9250
" />
<path d="M76505 9250
L76468 9231
L76449 9194
L76449 8856
" />
<path d="M76805 9231
L76768 9250
L76693 9250
L76655 9231
L76637 9194
L76637 9044
L76655 9006
L76693 8987
L76768 8987
L76805 9006
L76824 9044
L76824 9081
L76637 9119
" />
<path d="M76899 9287
L77199 9287
" />
<path d="M77293 9250
L77293 8856
L77443 8856
L77480 8875
L77499 8894
L77518 8931
L77518 8987
L77499 9025
L77480 9044
L77443 9062
L77293 9062
" />
<path d="M77855 9250
L77855 9044
L77837 9006
L77799 8987
L77724 8987
L77687 9006
" />
<path d="M77855 9231
L77818 9250
L77724 9250
L77687 9231
L77668 9194
L77668 9156
L77687 9119
L77724 9100
L77818 9100
L77855 9081
" />
<path d="M78211 9250
L78211 8856
" />
<path d="M78211 9231
L78174 9250
L78099 9250
L78061 9231
L78043 9212
L78024 9175
L78024 9062
L78043 9025
L78061 9006
L78099 8987
L78174 8987
L78211 9006
" />
<path d="M74299 7990
L74299 7596
L74449 7596
L74486 7615
L74505 7634
L74524 7671
L74524 7728
L74505 7765
L74486 7784
L74449 7803
L74299 7803
" />
<path d="M74880 7990
L74693 7990
L74693 7596
" />
<path d="M74993 7878
L75180 7878
" />
<path d="M74955 7990
L75086 7596
L75217 7990
" />
<path d="M75292 7596
L75517 7596
" />
<path d="M75405 7990
L75405 7596
" />
<path d="M75649 7784
L75780 7784
" />
<path d="M75836 7990
L75649 7990
L75649 7596
L75836 7596
" />
<path d="M75911 8028
L76211 8028
" />
<path d="M76249 7596
L76474 7596
" />
<path d="M76361 7990
L76361 7596
" />
<path d="M76830 7953
L76811 7971
L76755 7990
L76717 7990
L76661 7971
L76624 7934
L76605 7896
L76586 7821
L76586 7765
L76605 7690
L76624 7653
L76661 7615
L76717 7596
L76755 7596
L76811 7615
L76830 7634
" />
<path d="M77205 7990
L76980 7990
" />
<path d="M77092 7990
L77092 7596
L77055 7653
L77017 7690
L76980 7709
" />
<g >
</g>
</g> 
</svg>
