<?xml version="1.0" standalone="no"?>
 <!DOCTYPE svg PUBLIC "-//W3C//DTD SVG 1.1//EN" 
 "http://www.w3.org/Graphics/SVG/1.1/DTD/svg11.dtd"> 
<svg xmlns="http://www.w3.org/2000/svg" version="1.1" 
    width="41.9989cm" height="29.7002cm" viewBox="0 0 165350 116930 ">
<title>SVG Picture created as CZTKeyRev1AcrylicPlate-B_Mask.svg date 2020/12/20 15:42:08 </title>
  <desc>Picture generated by PCBNEW </desc>
<g style="fill:#000000; fill-opacity:1;stroke:#000000; stroke-opacity:1;
stroke-linecap:round; stroke-linejoin:round; "
 transform="translate(0 0) scale(1 1)">
</g>
<g style="fill:#000000; fill-opacity:0.0; 
stroke:#000000; stroke-width:-0.000393701; stroke-opacity:1; 
stroke-linecap:round; stroke-linejoin:round;">
</g>
<g style="fill:#000000; fill-opacity:1.0; 
stroke:#000000; stroke-width:0; stroke-opacity:1; 
stroke-linecap:round; stroke-linejoin:round;">
<path style="fill:#000000; fill-opacity:1.0; 
stroke:#000000; stroke-width:0; stroke-opacity:1; 
stroke-linecap:round; stroke-linejoin:round;fill-rule:evenodd;"
d="M 138836,70805
138882,70814
138964,70848
139038,70898
139101,70961
139151,71035
139185,71117
139203,71205
139203,71294
139185,71382
139151,71464
139101,71538
139038,71601
138964,71651
138882,71685
138838,71694
138794,71703
138705,71703
138661,71694
138617,71685
138535,71651
138461,71601
138398,71538
138348,71464
138314,71382
138296,71294
138296,71205
138314,71117
138348,71035
138398,70961
138461,70898
138535,70848
138617,70814
138663,70805
138705,70796
138794,70796
138836,70805
Z" /> 
<path style="fill:#000000; fill-opacity:1.0; 
stroke:#000000; stroke-width:0; stroke-opacity:1; 
stroke-linecap:round; stroke-linejoin:round;fill-rule:evenodd;"
d="M 76651,70492
76694,70501
76777,70535
76851,70585
76914,70648
76964,70722
76998,70805
77015,70892
77015,70982
76998,71069
76964,71152
76914,71226
76851,71289
76777,71338
76694,71373
76651,71381
76607,71390
76517,71390
76474,71381
76430,71373
76347,71338
76273,71289
76210,71226
76161,71152
76126,71069
76109,70982
76109,70892
76126,70805
76161,70722
76210,70648
76273,70585
76347,70535
76430,70501
76474,70492
76517,70484
76607,70484
76651,70492
Z" /> 
<path style="fill:#000000; fill-opacity:1.0; 
stroke:#000000; stroke-width:0; stroke-opacity:1; 
stroke-linecap:round; stroke-linejoin:round;fill-rule:evenodd;"
d="M 14150,70492
14194,70501
14277,70535
14351,70585
14414,70648
14464,70722
14498,70805
14515,70892
14515,70982
14498,71069
14464,71152
14414,71226
14351,71289
14277,71338
14194,71373
14150,71381
14107,71390
14017,71390
13974,71381
13930,71373
13847,71338
13773,71289
13710,71226
13660,71152
13626,71069
13609,70982
13609,70892
13626,70805
13660,70722
13710,70648
13773,70585
13847,70535
13930,70501
13974,70492
14017,70484
14107,70484
14150,70492
Z" /> 
<path style="fill:#000000; fill-opacity:1.0; 
stroke:#000000; stroke-width:0; stroke-opacity:1; 
stroke-linecap:round; stroke-linejoin:round;fill-rule:evenodd;"
d="M 9775,35805
9819,35814
9902,35848
9976,35898
10039,35961
10089,36035
10123,36117
10140,36205
10140,36294
10123,36382
10089,36464
10039,36538
9976,36602
9902,36651
9819,36685
9775,36694
9732,36703
9642,36703
9599,36694
9555,36685
9472,36651
9398,36602
9335,36538
9285,36464
9251,36382
9234,36294
9234,36205
9251,36117
9285,36035
9335,35961
9398,35898
9472,35848
9555,35814
9599,35805
9642,35796
9732,35796
9775,35805
Z" /> 
<path style="fill:#000000; fill-opacity:1.0; 
stroke:#000000; stroke-width:0; stroke-opacity:1; 
stroke-linecap:round; stroke-linejoin:round;fill-rule:evenodd;"
d="M 76651,35805
76694,35814
76777,35848
76851,35898
76914,35961
76964,36035
76998,36117
77015,36205
77015,36294
76998,36382
76964,36464
76914,36538
76851,36602
76777,36651
76694,36685
76651,36694
76607,36703
76517,36703
76474,36694
76430,36685
76347,36651
76273,36602
76210,36538
76161,36464
76126,36382
76109,36294
76109,36205
76126,36117
76161,36035
76210,35961
76273,35898
76347,35848
76430,35814
76474,35805
76517,35796
76607,35796
76651,35805
Z" /> 
<path style="fill:#000000; fill-opacity:1.0; 
stroke:#000000; stroke-width:0; stroke-opacity:1; 
stroke-linecap:round; stroke-linejoin:round;fill-rule:evenodd;"
d="M 138838,29868
138882,29876
138964,29910
139038,29960
139101,30023
139151,30097
139185,30180
139203,30267
139203,30357
139185,30444
139151,30527
139101,30601
139038,30664
138964,30714
138882,30748
138838,30756
138794,30765
138705,30765
138661,30756
138617,30748
138535,30714
138461,30664
138398,30601
138348,30527
138314,30444
138296,30357
138296,30267
138314,30180
138348,30097
138398,30023
138461,29960
138535,29910
138617,29876
138661,29868
138705,29859
138794,29859
138838,29868
Z" /> 
<path style="fill:#000000; fill-opacity:1.0; 
stroke:#000000; stroke-width:0; stroke-opacity:1; 
stroke-linecap:round; stroke-linejoin:round;fill-rule:evenodd;"
d="M 76024,24867
76069,24876
76152,24910
76226,24960
76289,25023
76338,25097
76373,25180
76390,25267
76390,25357
76373,25444
76338,25527
76289,25601
76226,25664
76152,25714
76069,25748
76025,25756
75982,25765
75892,25765
75848,25756
75805,25748
75722,25714
75648,25664
75585,25601
75535,25527
75501,25444
75484,25357
75484,25267
75501,25180
75535,25097
75585,25023
75648,24960
75722,24910
75805,24876
75850,24867
75892,24859
75982,24859
76024,24867
Z" /> 
<path style="fill:#000000; fill-opacity:1.0; 
stroke:#000000; stroke-width:0; stroke-opacity:1; 
stroke-linecap:round; stroke-linejoin:round;fill-rule:evenodd;"
d="M 7588,24555
7632,24564
7714,24598
7788,24648
7851,24711
7901,24785
7935,24867
7953,24955
7953,25044
7935,25132
7901,25214
7851,25288
7788,25352
7714,25401
7632,25435
7588,25444
7544,25453
7455,25453
7411,25444
7367,25435
7285,25401
7211,25352
7148,25288
7098,25214
7064,25132
7046,25044
7046,24955
7064,24867
7098,24785
7148,24711
7211,24648
7285,24598
7367,24564
7411,24555
7455,24546
7544,24546
7588,24555
Z" /> 
<path style="fill:#000000; fill-opacity:1.0; 
stroke:#000000; stroke-width:0; stroke-opacity:1; 
stroke-linecap:round; stroke-linejoin:round;fill-rule:evenodd;"
d="M 138838,24555
138882,24564
138964,24598
139038,24648
139101,24711
139151,24785
139185,24867
139203,24955
139203,25044
139185,25132
139151,25214
139101,25288
139038,25352
138964,25401
138882,25435
138838,25444
138794,25453
138705,25453
138661,25444
138617,25435
138535,25401
138461,25352
138398,25288
138348,25214
138314,25132
138296,25044
138296,24955
138314,24867
138348,24785
138398,24711
138461,24648
138535,24598
138617,24564
138661,24555
138705,24546
138794,24546
138838,24555
Z" /> 
<path style="fill:#000000; fill-opacity:1.0; 
stroke:#000000; stroke-width:0; stroke-opacity:1; 
stroke-linecap:round; stroke-linejoin:round;fill-rule:evenodd;"
d="M 7588,7368
7632,7376
7714,7410
7788,7460
7851,7523
7901,7597
7935,7680
7953,7767
7953,7857
7935,7944
7901,8027
7851,8101
7788,8164
7714,8214
7632,8248
7588,8256
7544,8265
7455,8265
7411,8256
7367,8248
7285,8214
7211,8164
7148,8101
7098,8027
7064,7944
7046,7857
7046,7767
7064,7680
7098,7597
7148,7523
7211,7460
7285,7410
7367,7376
7411,7368
7455,7359
7544,7359
7588,7368
Z" /> 
<path style="fill:#000000; fill-opacity:1.0; 
stroke:#000000; stroke-width:0; stroke-opacity:1; 
stroke-linecap:round; stroke-linejoin:round;fill-rule:evenodd;"
d="M 75713,7368
75756,7376
75839,7410
75913,7460
75976,7523
76026,7597
76060,7680
76077,7767
76077,7857
76060,7944
76026,8027
75976,8101
75913,8164
75839,8214
75756,8248
75713,8256
75669,8265
75580,8265
75536,8256
75492,8248
75410,8214
75335,8164
75272,8101
75223,8027
75189,7944
75171,7857
75171,7767
75189,7680
75223,7597
75272,7523
75335,7460
75410,7410
75492,7376
75536,7368
75580,7359
75669,7359
75713,7368
Z" /> 
<path style="fill:#000000; fill-opacity:1.0; 
stroke:#000000; stroke-width:0; stroke-opacity:1; 
stroke-linecap:round; stroke-linejoin:round;fill-rule:evenodd;"
d="M 138838,7368
138882,7376
138964,7410
139038,7460
139101,7523
139151,7597
139185,7680
139203,7767
139203,7857
139185,7944
139151,8027
139101,8101
139038,8164
138964,8214
138882,8248
138838,8256
138794,8265
138705,8265
138661,8256
138617,8248
138535,8214
138461,8164
138398,8101
138348,8027
138314,7944
138296,7857
138296,7767
138314,7680
138348,7597
138398,7523
138461,7460
138535,7410
138617,7376
138661,7368
138705,7359
138794,7359
138838,7368
Z" /> 
</g> 
</svg>
