  0
SECTION
  2
HEADER
  9
$ACADVER
  1
AC1014
  9
$HANDSEED
  5
FFFF
  9
$MEASUREMENT
 70
     1
  0
ENDSEC
  0
SECTION
  2
TABLES
  0
TABLE
  2
VPORT
  5
8
330
0
100
AcDbSymbolTable
 70
     4
  0
VPORT
  5
2E
330
8
100
AcDbSymbolTableRecord
100
AcDbViewportTableRecord
  2
*ACTIVE
 70
     0
 10
0.0
 20
0.0
 11
1.0
 21
1.0
 12
210.0
 22
148.5
 13
0.0
 23
0.0
 14
10.0
 24
10.0
 15
10.0
 25
10.0
 16
0.0
 26
0.0
 36
1.0
 17
0.0
 27
0.0
 37
0.0
 40
341.0
 41
1.24
 42
50.0
 43
0.0
 44
0.0
 50
0.0
 51
0.0
 71
     0
 72
   100
 73
     1
 74
     3
 75
     0
 76
     0
 77
     0
 78
     0
  0
ENDTAB
  0
TABLE
  2
LTYPE
  5
5
330
0
100
AcDbSymbolTable
 70
     1
  0
LTYPE
  5
14
330
5
100
AcDbSymbolTableRecord
100
AcDbLinetypeTableRecord
  2
BYBLOCK
 70
     0
  3

 72
    65
 73
     0
 40
0.0
  0
LTYPE
  5
15
330
5
100
AcDbSymbolTableRecord
100
AcDbLinetypeTableRecord
  2
BYLAYER
 70
     0
  3

 72
    65
 73
     0
 40
0.0
  0
LTYPE
  5
16
330
5
100
AcDbSymbolTableRecord
100
AcDbLinetypeTableRecord
  2
CONTINUOUS
 70
     0
  3
Solid line
 72
    65
 73
     0
 40
0.0
  0
ENDTAB
  0
TABLE
  2
LAYER
  5
2
100
AcDbSymbolTable
 70
2
  0
LAYER
  5
50
100
AcDbSymbolTableRecord
100
AcDbLayerTableRecord
  2
0
 70
0
  6
CONTINUOUS
  0
LAYER
  5
51
100
AcDbSymbolTableRecord
100
AcDbLayerTableRecord
  2
Layer_1
 70
0
  6
CONTINUOUS
  0
ENDTAB
  0
TABLE
  2
STYLE
  5
3
330
0
100
AcDbSymbolTable
 70
     1
  0
STYLE
  5
11
330
3
100
AcDbSymbolTableRecord
100
AcDbTextStyleTableRecord
  2
STANDARD
 70
     0
 40
0.0
 41
1.0
 50
0.0
 71
     0
 42
2.5
  3
txt
  4

  0
ENDTAB
  0
TABLE
  2
VIEW
  5
6
330
0
100
AcDbSymbolTable
 70
     0
  0
ENDTAB
  0
TABLE
  2
UCS
  5
7
330
0
100
AcDbSymbolTable
 70
     0
  0
ENDTAB
  0
TABLE
  2
APPID
  5
9
330
0
100
AcDbSymbolTable
 70
     2
  0
APPID
  5
12
330
9
100
AcDbSymbolTableRecord
100
AcDbRegAppTableRecord
  2
ACAD
 70
     0
  0
ENDTAB
  0
TABLE
  2
DIMSTYLE
  5
A
330
0
100
AcDbSymbolTable
 70
     1
  0
DIMSTYLE
105
27
330
A
100
AcDbSymbolTableRecord
100
AcDbDimStyleTableRecord
  2
ISO-25
 70
     0
  3

  4

  5

  6

  7

 40
1.0
 41
2.5
 42
0.625
 43
3.75
 44
1.25
 45
0.0
 46
0.0
 47
0.0
 48
0.0
140
2.5
141
2.5
142
0.0
143
0.03937007874016
144
1.0
145
0.0
146
1.0
147
0.625
 71
     0
 72
     0
 73
     0
 74
     0
 75
     0
 76
     0
 77
     1
 78
     8
170
     0
171
     3
172
     1
173
     0
174
     0
175
     0
176
     0
177
     0
178
     0
270
     2
271
     2
272
     2
273
     2
274
     3
340
11
275
     0
280
     0
281
     0
282
     0
283
     0
284
     8
285
     0
286
     0
287
     3
288
     0
  0
ENDTAB
  0
TABLE
  2
BLOCK_RECORD
  5
1
330
0
100
AcDbSymbolTable
 70
     1
  0
BLOCK_RECORD
  5
1F
330
1
100
AcDbSymbolTableRecord
100
AcDbBlockTableRecord
  2
*MODEL_SPACE
  0
BLOCK_RECORD
  5
1B
330
1
100
AcDbSymbolTableRecord
100
AcDbBlockTableRecord
  2
*PAPER_SPACE
  0
ENDTAB
  0
ENDSEC
  0
SECTION
  2
BLOCKS
  0
BLOCK
  5
20
330
1F
100
AcDbEntity
  8
0
100
AcDbBlockBegin
  2
*MODEL_SPACE
 70
     0
 10
0.0
 20
0.0
 30
0.0
  3
*MODEL_SPACE
  1

  0
ENDBLK
  5
21
330
1F
100
AcDbEntity
  8
0
100
AcDbBlockEnd
  0
BLOCK
  5
1C
330
1B
100
AcDbEntity
 67
     1
  8
0
100
AcDbBlockBegin
  2
*PAPER_SPACE
  1

  0
ENDBLK
  5
1D
330
1B
100
AcDbEntity
 67
     1
  8
0
100
AcDbBlockEnd
  0
ENDSEC
  0
SECTION
  2
ENTITIES
  0
SPLINE
  5
100
100
AcDbEntity
  8
Layer_1
 62
7
100
AcDbSpline
 70
8
 71
3
 72
8
 73
4
 74
0
 40
0
 40
0
 40
0
 40
0
 40
1
 40
1
 40
1
 40
1
 10
361.950500
 20
280.746500
 30
0.0
 10
361.950500
 20
282.061132
 30
0.0
 10
360.885152
 20
283.127049
 30
0.0
 10
359.570520
 20
283.127750
 30
0.0
  0
SPLINE
  5
101
100
AcDbEntity
  8
Layer_1
 62
7
100
AcDbSpline
 70
8
 71
3
 72
8
 73
4
 74
0
 40
0
 40
0
 40
0
 40
0
 40
1
 40
1
 40
1
 40
1
 10
21.431750
 20
283.127750
 30
0.0
 10
20.800203
 20
283.127750
 30
0.0
 10
20.194523
 20
282.876869
 30
0.0
 10
19.747952
 20
282.430298
 30
0.0
  0
SPLINE
  5
102
100
AcDbEntity
  8
Layer_1
 62
7
100
AcDbSpline
 70
8
 71
3
 72
8
 73
4
 74
0
 40
0
 40
0
 40
0
 40
0
 40
1
 40
1
 40
1
 40
1
 10
19.747952
 20
282.430298
 30
0.0
 10
19.301381
 20
281.983727
 30
0.0
 10
19.050500
 20
281.378047
 30
0.0
 10
19.050500
 20
280.746500
 30
0.0
  0
LWPOLYLINE
  5
103
100
AcDbEntity
  8
Layer_1
 62
7
100
AcDbPolyline
 90
2
 70
0
 10
21.430480
 20
283.129020
 30
0.0
 10
359.567980
 20
283.129020
 30
0.0
  0
SPLINE
  5
104
100
AcDbEntity
  8
Layer_1
 62
7
100
AcDbSpline
 70
8
 71
3
 72
8
 73
4
 74
0
 40
0
 40
0
 40
0
 40
0
 40
1
 40
1
 40
1
 40
1
 10
359.570520
 20
103.740250
 30
0.0
 10
360.885152
 20
103.740951
 30
0.0
 10
361.950500
 20
104.806868
 30
0.0
 10
361.950500
 20
106.121500
 30
0.0
  0
LWPOLYLINE
  5
105
100
AcDbEntity
  8
Layer_1
 62
7
100
AcDbPolyline
 90
2
 70
0
 10
361.950500
 20
106.121500
 30
0.0
 10
361.950500
 20
280.746500
 30
0.0
  0
SPLINE
  5
106
100
AcDbEntity
  8
Layer_1
 62
7
100
AcDbSpline
 70
8
 71
3
 72
8
 73
4
 74
0
 40
0
 40
0
 40
0
 40
0
 40
1
 40
1
 40
1
 40
1
 10
19.050500
 20
106.121500
 30
0.0
 10
19.050500
 20
105.489953
 30
0.0
 10
19.301381
 20
104.884273
 30
0.0
 10
19.747952
 20
104.437702
 30
0.0
  0
SPLINE
  5
107
100
AcDbEntity
  8
Layer_1
 62
7
100
AcDbSpline
 70
8
 71
3
 72
8
 73
4
 74
0
 40
0
 40
0
 40
0
 40
0
 40
1
 40
1
 40
1
 40
1
 10
19.747952
 20
104.437702
 30
0.0
 10
20.194523
 20
103.991131
 30
0.0
 10
20.800203
 20
103.740250
 30
0.0
 10
21.431750
 20
103.740250
 30
0.0
  0
LWPOLYLINE
  5
108
100
AcDbEntity
  8
Layer_1
 62
7
100
AcDbPolyline
 90
2
 70
0
 10
21.430480
 20
103.741520
 30
0.0
 10
359.567980
 20
103.741520
 30
0.0
  0
LWPOLYLINE
  5
109
100
AcDbEntity
  8
Layer_1
 62
7
100
AcDbPolyline
 90
2
 70
0
 10
19.050500
 20
280.746500
 30
0.0
 10
19.050500
 20
106.121500
 30
0.0
  0
LWPOLYLINE
  5
10a
100
AcDbEntity
  8
Layer_1
 62
7
100
AcDbPolyline
 90
36
 70
1
 10
357.407440
 20
113.998300
 30
0.0
 10
357.524280
 20
113.975440
 30
0.0
 10
357.732560
 20
113.889080
 30
0.0
 10
357.920520
 20
113.762080
 30
0.0
 10
358.080540
 20
113.602060
 30
0.0
 10
358.207540
 20
113.414100
 30
0.0
 10
358.293900
 20
113.205820
 30
0.0
 10
358.339620
 20
112.982300
 30
0.0
 10
358.339620
 20
112.756240
 30
0.0
 10
358.293900
 20
112.532720
 30
0.0
 10
358.207540
 20
112.324440
 30
0.0
 10
358.080540
 20
112.136480
 30
0.0
 10
357.920520
 20
111.976460
 30
0.0
 10
357.732560
 20
111.849460
 30
0.0
 10
357.524280
 20
111.763100
 30
0.0
 10
357.412520
 20
111.740240
 30
0.0
 10
357.300760
 20
111.717380
 30
0.0
 10
357.074700
 20
111.717380
 30
0.0
 10
356.962940
 20
111.740240
 30
0.0
 10
356.851180
 20
111.763100
 30
0.0
 10
356.642900
 20
111.849460
 30
0.0
 10
356.454940
 20
111.976460
 30
0.0
 10
356.294920
 20
112.136480
 30
0.0
 10
356.167920
 20
112.324440
 30
0.0
 10
356.081560
 20
112.532720
 30
0.0
 10
356.035840
 20
112.756240
 30
0.0
 10
356.035840
 20
112.982300
 30
0.0
 10
356.081560
 20
113.205820
 30
0.0
 10
356.167920
 20
113.414100
 30
0.0
 10
356.294920
 20
113.602060
 30
0.0
 10
356.454940
 20
113.762080
 30
0.0
 10
356.642900
 20
113.889080
 30
0.0
 10
356.851180
 20
113.975440
 30
0.0
 10
356.968020
 20
113.998300
 30
0.0
 10
357.074700
 20
114.021160
 30
0.0
 10
357.300760
 20
114.021160
 30
0.0
  0
LWPOLYLINE
  5
10b
100
AcDbEntity
  8
Layer_1
 62
7
100
AcDbPolyline
 90
36
 70
1
 10
199.457540
 20
114.793320
 30
0.0
 10
199.566760
 20
114.770460
 30
0.0
 10
199.777580
 20
114.684100
 30
0.0
 10
199.965540
 20
114.557100
 30
0.0
 10
200.125560
 20
114.397080
 30
0.0
 10
200.252560
 20
114.209120
 30
0.0
 10
200.338920
 20
113.998300
 30
0.0
 10
200.382100
 20
113.777320
 30
0.0
 10
200.382100
 20
113.548720
 30
0.0
 10
200.338920
 20
113.327740
 30
0.0
 10
200.252560
 20
113.116920
 30
0.0
 10
200.125560
 20
112.928960
 30
0.0
 10
199.965540
 20
112.768940
 30
0.0
 10
199.777580
 20
112.644480
 30
0.0
 10
199.566760
 20
112.555580
 30
0.0
 10
199.457540
 20
112.535260
 30
0.0
 10
199.345780
 20
112.512400
 30
0.0
 10
199.117180
 20
112.512400
 30
0.0
 10
199.007960
 20
112.535260
 30
0.0
 10
198.896200
 20
112.555580
 30
0.0
 10
198.685380
 20
112.644480
 30
0.0
 10
198.497420
 20
112.768940
 30
0.0
 10
198.337400
 20
112.928960
 30
0.0
 10
198.212940
 20
113.116920
 30
0.0
 10
198.124040
 20
113.327740
 30
0.0
 10
198.080860
 20
113.548720
 30
0.0
 10
198.080860
 20
113.777320
 30
0.0
 10
198.124040
 20
113.998300
 30
0.0
 10
198.212940
 20
114.209120
 30
0.0
 10
198.337400
 20
114.397080
 30
0.0
 10
198.497420
 20
114.557100
 30
0.0
 10
198.685380
 20
114.684100
 30
0.0
 10
198.896200
 20
114.770460
 30
0.0
 10
199.007960
 20
114.793320
 30
0.0
 10
199.117180
 20
114.813640
 30
0.0
 10
199.345780
 20
114.813640
 30
0.0
  0
LWPOLYLINE
  5
10c
100
AcDbEntity
  8
Layer_1
 62
7
100
AcDbPolyline
 90
36
 70
1
 10
40.705000
 20
114.793320
 30
0.0
 10
40.816760
 20
114.770460
 30
0.0
 10
41.027580
 20
114.684100
 30
0.0
 10
41.215540
 20
114.557100
 30
0.0
 10
41.375560
 20
114.397080
 30
0.0
 10
41.502560
 20
114.209120
 30
0.0
 10
41.588920
 20
113.998300
 30
0.0
 10
41.632100
 20
113.777320
 30
0.0
 10
41.632100
 20
113.548720
 30
0.0
 10
41.588920
 20
113.327740
 30
0.0
 10
41.502560
 20
113.116920
 30
0.0
 10
41.375560
 20
112.928960
 30
0.0
 10
41.215540
 20
112.768940
 30
0.0
 10
41.027580
 20
112.644480
 30
0.0
 10
40.816760
 20
112.555580
 30
0.0
 10
40.705000
 20
112.535260
 30
0.0
 10
40.595780
 20
112.512400
 30
0.0
 10
40.367180
 20
112.512400
 30
0.0
 10
40.257960
 20
112.535260
 30
0.0
 10
40.146200
 20
112.555580
 30
0.0
 10
39.935380
 20
112.644480
 30
0.0
 10
39.747420
 20
112.768940
 30
0.0
 10
39.587400
 20
112.928960
 30
0.0
 10
39.460400
 20
113.116920
 30
0.0
 10
39.374040
 20
113.327740
 30
0.0
 10
39.330860
 20
113.548720
 30
0.0
 10
39.330860
 20
113.777320
 30
0.0
 10
39.374040
 20
113.998300
 30
0.0
 10
39.460400
 20
114.209120
 30
0.0
 10
39.587400
 20
114.397080
 30
0.0
 10
39.747420
 20
114.557100
 30
0.0
 10
39.935380
 20
114.684100
 30
0.0
 10
40.146200
 20
114.770460
 30
0.0
 10
40.257960
 20
114.793320
 30
0.0
 10
40.367180
 20
114.813640
 30
0.0
 10
40.595780
 20
114.813640
 30
0.0
  0
LWPOLYLINE
  5
10d
100
AcDbEntity
  8
Layer_1
 62
7
100
AcDbPolyline
 90
36
 70
1
 10
29.592500
 20
202.898300
 30
0.0
 10
29.704260
 20
202.875440
 30
0.0
 10
29.915080
 20
202.789080
 30
0.0
 10
30.103040
 20
202.662080
 30
0.0
 10
30.263060
 20
202.502060
 30
0.0
 10
30.390060
 20
202.314100
 30
0.0
 10
30.476420
 20
202.105820
 30
0.0
 10
30.519600
 20
201.882300
 30
0.0
 10
30.519600
 20
201.656240
 30
0.0
 10
30.476420
 20
201.432720
 30
0.0
 10
30.390060
 20
201.224440
 30
0.0
 10
30.263060
 20
201.036480
 30
0.0
 10
30.103040
 20
200.873920
 30
0.0
 10
29.915080
 20
200.749460
 30
0.0
 10
29.704260
 20
200.663100
 30
0.0
 10
29.592500
 20
200.640240
 30
0.0
 10
29.483280
 20
200.617380
 30
0.0
 10
29.254680
 20
200.617380
 30
0.0
 10
29.145460
 20
200.640240
 30
0.0
 10
29.033700
 20
200.663100
 30
0.0
 10
28.822880
 20
200.749460
 30
0.0
 10
28.634920
 20
200.873920
 30
0.0
 10
28.474900
 20
201.036480
 30
0.0
 10
28.347900
 20
201.224440
 30
0.0
 10
28.261540
 20
201.432720
 30
0.0
 10
28.218360
 20
201.656240
 30
0.0
 10
28.218360
 20
201.882300
 30
0.0
 10
28.261540
 20
202.105820
 30
0.0
 10
28.347900
 20
202.314100
 30
0.0
 10
28.474900
 20
202.502060
 30
0.0
 10
28.634920
 20
202.662080
 30
0.0
 10
28.822880
 20
202.789080
 30
0.0
 10
29.033700
 20
202.875440
 30
0.0
 10
29.145460
 20
202.898300
 30
0.0
 10
29.254680
 20
202.921160
 30
0.0
 10
29.483280
 20
202.921160
 30
0.0
  0
LWPOLYLINE
  5
10e
100
AcDbEntity
  8
Layer_1
 62
7
100
AcDbPolyline
 90
36
 70
1
 10
199.457540
 20
202.898300
 30
0.0
 10
199.566760
 20
202.875440
 30
0.0
 10
199.777580
 20
202.789080
 30
0.0
 10
199.965540
 20
202.662080
 30
0.0
 10
200.125560
 20
202.502060
 30
0.0
 10
200.252560
 20
202.314100
 30
0.0
 10
200.338920
 20
202.105820
 30
0.0
 10
200.382100
 20
201.882300
 30
0.0
 10
200.382100
 20
201.656240
 30
0.0
 10
200.338920
 20
201.432720
 30
0.0
 10
200.252560
 20
201.224440
 30
0.0
 10
200.125560
 20
201.036480
 30
0.0
 10
199.965540
 20
200.873920
 30
0.0
 10
199.777580
 20
200.749460
 30
0.0
 10
199.566760
 20
200.663100
 30
0.0
 10
199.457540
 20
200.640240
 30
0.0
 10
199.345780
 20
200.617380
 30
0.0
 10
199.117180
 20
200.617380
 30
0.0
 10
199.007960
 20
200.640240
 30
0.0
 10
198.896200
 20
200.663100
 30
0.0
 10
198.685380
 20
200.749460
 30
0.0
 10
198.497420
 20
200.873920
 30
0.0
 10
198.337400
 20
201.036480
 30
0.0
 10
198.212940
 20
201.224440
 30
0.0
 10
198.124040
 20
201.432720
 30
0.0
 10
198.080860
 20
201.656240
 30
0.0
 10
198.080860
 20
201.882300
 30
0.0
 10
198.124040
 20
202.105820
 30
0.0
 10
198.212940
 20
202.314100
 30
0.0
 10
198.337400
 20
202.502060
 30
0.0
 10
198.497420
 20
202.662080
 30
0.0
 10
198.685380
 20
202.789080
 30
0.0
 10
198.896200
 20
202.875440
 30
0.0
 10
199.007960
 20
202.898300
 30
0.0
 10
199.117180
 20
202.921160
 30
0.0
 10
199.345780
 20
202.921160
 30
0.0
  0
LWPOLYLINE
  5
10f
100
AcDbEntity
  8
Layer_1
 62
7
100
AcDbPolyline
 90
36
 70
1
 10
357.412520
 20
217.978280
 30
0.0
 10
357.524280
 20
217.957960
 30
0.0
 10
357.732560
 20
217.871600
 30
0.0
 10
357.920520
 20
217.744600
 30
0.0
 10
358.080540
 20
217.584580
 30
0.0
 10
358.207540
 20
217.396620
 30
0.0
 10
358.293900
 20
217.185800
 30
0.0
 10
358.339620
 20
216.964820
 30
0.0
 10
358.339620
 20
216.736220
 30
0.0
 10
358.293900
 20
216.515240
 30
0.0
 10
358.207540
 20
216.304420
 30
0.0
 10
358.080540
 20
216.116460
 30
0.0
 10
357.920520
 20
215.956440
 30
0.0
 10
357.732560
 20
215.829440
 30
0.0
 10
357.524280
 20
215.743080
 30
0.0
 10
357.412520
 20
215.722760
 30
0.0
 10
357.300760
 20
215.699900
 30
0.0
 10
357.074700
 20
215.699900
 30
0.0
 10
356.962940
 20
215.722760
 30
0.0
 10
356.851180
 20
215.743080
 30
0.0
 10
356.642900
 20
215.829440
 30
0.0
 10
356.454940
 20
215.956440
 30
0.0
 10
356.294920
 20
216.116460
 30
0.0
 10
356.167920
 20
216.304420
 30
0.0
 10
356.081560
 20
216.515240
 30
0.0
 10
356.035840
 20
216.736220
 30
0.0
 10
356.035840
 20
216.964820
 30
0.0
 10
356.081560
 20
217.185800
 30
0.0
 10
356.167920
 20
217.396620
 30
0.0
 10
356.294920
 20
217.584580
 30
0.0
 10
356.454940
 20
217.744600
 30
0.0
 10
356.642900
 20
217.871600
 30
0.0
 10
356.851180
 20
217.957960
 30
0.0
 10
356.962940
 20
217.978280
 30
0.0
 10
357.074700
 20
218.001140
 30
0.0
 10
357.300760
 20
218.001140
 30
0.0
  0
LWPOLYLINE
  5
110
100
AcDbEntity
  8
Layer_1
 62
7
100
AcDbPolyline
 90
36
 70
1
 10
197.864960
 20
230.680820
 30
0.0
 10
197.979260
 20
230.657960
 30
0.0
 10
198.190080
 20
230.571600
 30
0.0
 10
198.378040
 20
230.444600
 30
0.0
 10
198.538060
 20
230.284580
 30
0.0
 10
198.662520
 20
230.096620
 30
0.0
 10
198.751420
 20
229.885800
 30
0.0
 10
198.794600
 20
229.664820
 30
0.0
 10
198.794600
 20
229.436220
 30
0.0
 10
198.751420
 20
229.215240
 30
0.0
 10
198.662520
 20
229.004420
 30
0.0
 10
198.538060
 20
228.816460
 30
0.0
 10
198.378040
 20
228.656440
 30
0.0
 10
198.190080
 20
228.529440
 30
0.0
 10
197.979260
 20
228.443080
 30
0.0
 10
197.867500
 20
228.422760
 30
0.0
 10
197.758280
 20
228.399900
 30
0.0
 10
197.529680
 20
228.399900
 30
0.0
 10
197.417920
 20
228.422760
 30
0.0
 10
197.308700
 20
228.443080
 30
0.0
 10
197.097880
 20
228.529440
 30
0.0
 10
196.909920
 20
228.656440
 30
0.0
 10
196.749900
 20
228.816460
 30
0.0
 10
196.622900
 20
229.004420
 30
0.0
 10
196.536540
 20
229.215240
 30
0.0
 10
196.493360
 20
229.436220
 30
0.0
 10
196.493360
 20
229.664820
 30
0.0
 10
196.536540
 20
229.885800
 30
0.0
 10
196.622900
 20
230.096620
 30
0.0
 10
196.749900
 20
230.284580
 30
0.0
 10
196.909920
 20
230.444600
 30
0.0
 10
197.097880
 20
230.571600
 30
0.0
 10
197.308700
 20
230.657960
 30
0.0
 10
197.423000
 20
230.680820
 30
0.0
 10
197.529680
 20
230.701140
 30
0.0
 10
197.758280
 20
230.701140
 30
0.0
  0
LWPOLYLINE
  5
111
100
AcDbEntity
  8
Layer_1
 62
7
100
AcDbPolyline
 90
36
 70
1
 10
24.037520
 20
231.473300
 30
0.0
 10
24.149280
 20
231.450440
 30
0.0
 10
24.357560
 20
231.364080
 30
0.0
 10
24.545520
 20
231.237080
 30
0.0
 10
24.705540
 20
231.077060
 30
0.0
 10
24.832540
 20
230.889100
 30
0.0
 10
24.918900
 20
230.680820
 30
0.0
 10
24.964620
 20
230.457300
 30
0.0
 10
24.964620
 20
230.231240
 30
0.0
 10
24.918900
 20
230.007720
 30
0.0
 10
24.832540
 20
229.799440
 30
0.0
 10
24.705540
 20
229.611480
 30
0.0
 10
24.545520
 20
229.448920
 30
0.0
 10
24.357560
 20
229.324460
 30
0.0
 10
24.149280
 20
229.238100
 30
0.0
 10
24.037520
 20
229.215240
 30
0.0
 10
23.925760
 20
229.192380
 30
0.0
 10
23.699700
 20
229.192380
 30
0.0
 10
23.587940
 20
229.215240
 30
0.0
 10
23.476180
 20
229.238100
 30
0.0
 10
23.267900
 20
229.324460
 30
0.0
 10
23.079940
 20
229.448920
 30
0.0
 10
22.919920
 20
229.611480
 30
0.0
 10
22.792920
 20
229.799440
 30
0.0
 10
22.706560
 20
230.007720
 30
0.0
 10
22.660840
 20
230.231240
 30
0.0
 10
22.660840
 20
230.457300
 30
0.0
 10
22.706560
 20
230.680820
 30
0.0
 10
22.792920
 20
230.889100
 30
0.0
 10
22.919920
 20
231.077060
 30
0.0
 10
23.079940
 20
231.237080
 30
0.0
 10
23.267900
 20
231.364080
 30
0.0
 10
23.476180
 20
231.450440
 30
0.0
 10
23.587940
 20
231.473300
 30
0.0
 10
23.699700
 20
231.496160
 30
0.0
 10
23.925760
 20
231.496160
 30
0.0
  0
LWPOLYLINE
  5
112
100
AcDbEntity
  8
Layer_1
 62
7
100
AcDbPolyline
 90
36
 70
1
 10
357.412520
 20
231.473300
 30
0.0
 10
357.524280
 20
231.450440
 30
0.0
 10
357.732560
 20
231.364080
 30
0.0
 10
357.920520
 20
231.237080
 30
0.0
 10
358.080540
 20
231.077060
 30
0.0
 10
358.207540
 20
230.889100
 30
0.0
 10
358.293900
 20
230.680820
 30
0.0
 10
358.339620
 20
230.457300
 30
0.0
 10
358.339620
 20
230.231240
 30
0.0
 10
358.293900
 20
230.007720
 30
0.0
 10
358.207540
 20
229.799440
 30
0.0
 10
358.080540
 20
229.611480
 30
0.0
 10
357.920520
 20
229.448920
 30
0.0
 10
357.732560
 20
229.324460
 30
0.0
 10
357.524280
 20
229.238100
 30
0.0
 10
357.412520
 20
229.215240
 30
0.0
 10
357.300760
 20
229.192380
 30
0.0
 10
357.074700
 20
229.192380
 30
0.0
 10
356.962940
 20
229.215240
 30
0.0
 10
356.851180
 20
229.238100
 30
0.0
 10
356.642900
 20
229.324460
 30
0.0
 10
356.454940
 20
229.448920
 30
0.0
 10
356.294920
 20
229.611480
 30
0.0
 10
356.167920
 20
229.799440
 30
0.0
 10
356.081560
 20
230.007720
 30
0.0
 10
356.035840
 20
230.231240
 30
0.0
 10
356.035840
 20
230.457300
 30
0.0
 10
356.081560
 20
230.680820
 30
0.0
 10
356.167920
 20
230.889100
 30
0.0
 10
356.294920
 20
231.077060
 30
0.0
 10
356.454940
 20
231.237080
 30
0.0
 10
356.642900
 20
231.364080
 30
0.0
 10
356.851180
 20
231.450440
 30
0.0
 10
356.962940
 20
231.473300
 30
0.0
 10
357.074700
 20
231.496160
 30
0.0
 10
357.300760
 20
231.496160
 30
0.0
  0
LWPOLYLINE
  5
113
100
AcDbEntity
  8
Layer_1
 62
7
100
AcDbPolyline
 90
36
 70
1
 10
24.037520
 20
275.128280
 30
0.0
 10
24.149280
 20
275.107960
 30
0.0
 10
24.357560
 20
275.021600
 30
0.0
 10
24.545520
 20
274.894600
 30
0.0
 10
24.705540
 20
274.734580
 30
0.0
 10
24.832540
 20
274.546620
 30
0.0
 10
24.918900
 20
274.335800
 30
0.0
 10
24.964620
 20
274.114820
 30
0.0
 10
24.964620
 20
273.886220
 30
0.0
 10
24.918900
 20
273.665240
 30
0.0
 10
24.832540
 20
273.454420
 30
0.0
 10
24.705540
 20
273.266460
 30
0.0
 10
24.545520
 20
273.106440
 30
0.0
 10
24.357560
 20
272.979440
 30
0.0
 10
24.149280
 20
272.893080
 30
0.0
 10
24.037520
 20
272.872760
 30
0.0
 10
23.925760
 20
272.849900
 30
0.0
 10
23.699700
 20
272.849900
 30
0.0
 10
23.587940
 20
272.872760
 30
0.0
 10
23.476180
 20
272.893080
 30
0.0
 10
23.267900
 20
272.979440
 30
0.0
 10
23.079940
 20
273.106440
 30
0.0
 10
22.919920
 20
273.266460
 30
0.0
 10
22.792920
 20
273.454420
 30
0.0
 10
22.706560
 20
273.665240
 30
0.0
 10
22.660840
 20
273.886220
 30
0.0
 10
22.660840
 20
274.114820
 30
0.0
 10
22.706560
 20
274.335800
 30
0.0
 10
22.792920
 20
274.546620
 30
0.0
 10
22.919920
 20
274.734580
 30
0.0
 10
23.079940
 20
274.894600
 30
0.0
 10
23.267900
 20
275.021600
 30
0.0
 10
23.476180
 20
275.107960
 30
0.0
 10
23.587940
 20
275.128280
 30
0.0
 10
23.699700
 20
275.151140
 30
0.0
 10
23.925760
 20
275.151140
 30
0.0
  0
LWPOLYLINE
  5
114
100
AcDbEntity
  8
Layer_1
 62
7
100
AcDbPolyline
 90
36
 70
1
 10
197.075020
 20
275.128280
 30
0.0
 10
197.184240
 20
275.107960
 30
0.0
 10
197.395060
 20
275.021600
 30
0.0
 10
197.583020
 20
274.894600
 30
0.0
 10
197.743040
 20
274.734580
 30
0.0
 10
197.870040
 20
274.546620
 30
0.0
 10
197.956400
 20
274.335800
 30
0.0
 10
197.999580
 20
274.114820
 30
0.0
 10
197.999580
 20
273.886220
 30
0.0
 10
197.956400
 20
273.665240
 30
0.0
 10
197.870040
 20
273.454420
 30
0.0
 10
197.743040
 20
273.266460
 30
0.0
 10
197.583020
 20
273.106440
 30
0.0
 10
197.395060
 20
272.979440
 30
0.0
 10
197.184240
 20
272.893080
 30
0.0
 10
197.075020
 20
272.872760
 30
0.0
 10
196.963260
 20
272.849900
 30
0.0
 10
196.737200
 20
272.849900
 30
0.0
 10
196.625440
 20
272.872760
 30
0.0
 10
196.513680
 20
272.893080
 30
0.0
 10
196.305400
 20
272.979440
 30
0.0
 10
196.114900
 20
273.106440
 30
0.0
 10
195.954880
 20
273.266460
 30
0.0
 10
195.830420
 20
273.454420
 30
0.0
 10
195.744060
 20
273.665240
 30
0.0
 10
195.698340
 20
273.886220
 30
0.0
 10
195.698340
 20
274.114820
 30
0.0
 10
195.744060
 20
274.335800
 30
0.0
 10
195.830420
 20
274.546620
 30
0.0
 10
195.954880
 20
274.734580
 30
0.0
 10
196.114900
 20
274.894600
 30
0.0
 10
196.305400
 20
275.021600
 30
0.0
 10
196.513680
 20
275.107960
 30
0.0
 10
196.625440
 20
275.128280
 30
0.0
 10
196.737200
 20
275.151140
 30
0.0
 10
196.963260
 20
275.151140
 30
0.0
  0
LWPOLYLINE
  5
115
100
AcDbEntity
  8
Layer_1
 62
7
100
AcDbPolyline
 90
36
 70
1
 10
357.412520
 20
275.128280
 30
0.0
 10
357.524280
 20
275.107960
 30
0.0
 10
357.732560
 20
275.021600
 30
0.0
 10
357.920520
 20
274.894600
 30
0.0
 10
358.080540
 20
274.734580
 30
0.0
 10
358.207540
 20
274.546620
 30
0.0
 10
358.293900
 20
274.335800
 30
0.0
 10
358.339620
 20
274.114820
 30
0.0
 10
358.339620
 20
273.886220
 30
0.0
 10
358.293900
 20
273.665240
 30
0.0
 10
358.207540
 20
273.454420
 30
0.0
 10
358.080540
 20
273.266460
 30
0.0
 10
357.920520
 20
273.106440
 30
0.0
 10
357.732560
 20
272.979440
 30
0.0
 10
357.524280
 20
272.893080
 30
0.0
 10
357.412520
 20
272.872760
 30
0.0
 10
357.300760
 20
272.849900
 30
0.0
 10
357.074700
 20
272.849900
 30
0.0
 10
356.962940
 20
272.872760
 30
0.0
 10
356.851180
 20
272.893080
 30
0.0
 10
356.642900
 20
272.979440
 30
0.0
 10
356.454940
 20
273.106440
 30
0.0
 10
356.294920
 20
273.266460
 30
0.0
 10
356.167920
 20
273.454420
 30
0.0
 10
356.081560
 20
273.665240
 30
0.0
 10
356.035840
 20
273.886220
 30
0.0
 10
356.035840
 20
274.114820
 30
0.0
 10
356.081560
 20
274.335800
 30
0.0
 10
356.167920
 20
274.546620
 30
0.0
 10
356.294920
 20
274.734580
 30
0.0
 10
356.454940
 20
274.894600
 30
0.0
 10
356.642900
 20
275.021600
 30
0.0
 10
356.851180
 20
275.107960
 30
0.0
 10
356.962940
 20
275.128280
 30
0.0
 10
357.074700
 20
275.151140
 30
0.0
 10
357.300760
 20
275.151140
 30
0.0
  0
LWPOLYLINE
  5
116
100
AcDbEntity
  8
Layer_1
 62
7
100
AcDbPolyline
 90
36
 70
1
 10
357.407440
 20
113.998300
 30
0.0
 10
357.524280
 20
113.975440
 30
0.0
 10
357.732560
 20
113.889080
 30
0.0
 10
357.920520
 20
113.762080
 30
0.0
 10
358.080540
 20
113.602060
 30
0.0
 10
358.207540
 20
113.414100
 30
0.0
 10
358.293900
 20
113.205820
 30
0.0
 10
358.339620
 20
112.982300
 30
0.0
 10
358.339620
 20
112.756240
 30
0.0
 10
358.293900
 20
112.532720
 30
0.0
 10
358.207540
 20
112.324440
 30
0.0
 10
358.080540
 20
112.136480
 30
0.0
 10
357.920520
 20
111.976460
 30
0.0
 10
357.732560
 20
111.849460
 30
0.0
 10
357.524280
 20
111.763100
 30
0.0
 10
357.412520
 20
111.740240
 30
0.0
 10
357.300760
 20
111.717380
 30
0.0
 10
357.074700
 20
111.717380
 30
0.0
 10
356.962940
 20
111.740240
 30
0.0
 10
356.851180
 20
111.763100
 30
0.0
 10
356.642900
 20
111.849460
 30
0.0
 10
356.454940
 20
111.976460
 30
0.0
 10
356.294920
 20
112.136480
 30
0.0
 10
356.167920
 20
112.324440
 30
0.0
 10
356.081560
 20
112.532720
 30
0.0
 10
356.035840
 20
112.756240
 30
0.0
 10
356.035840
 20
112.982300
 30
0.0
 10
356.081560
 20
113.205820
 30
0.0
 10
356.167920
 20
113.414100
 30
0.0
 10
356.294920
 20
113.602060
 30
0.0
 10
356.454940
 20
113.762080
 30
0.0
 10
356.642900
 20
113.889080
 30
0.0
 10
356.851180
 20
113.975440
 30
0.0
 10
356.968020
 20
113.998300
 30
0.0
 10
357.074700
 20
114.021160
 30
0.0
 10
357.300760
 20
114.021160
 30
0.0
  0
LWPOLYLINE
  5
117
100
AcDbEntity
  8
Layer_1
 62
7
100
AcDbPolyline
 90
36
 70
1
 10
199.457540
 20
114.793320
 30
0.0
 10
199.566760
 20
114.770460
 30
0.0
 10
199.777580
 20
114.684100
 30
0.0
 10
199.965540
 20
114.557100
 30
0.0
 10
200.125560
 20
114.397080
 30
0.0
 10
200.252560
 20
114.209120
 30
0.0
 10
200.338920
 20
113.998300
 30
0.0
 10
200.382100
 20
113.777320
 30
0.0
 10
200.382100
 20
113.548720
 30
0.0
 10
200.338920
 20
113.327740
 30
0.0
 10
200.252560
 20
113.116920
 30
0.0
 10
200.125560
 20
112.928960
 30
0.0
 10
199.965540
 20
112.768940
 30
0.0
 10
199.777580
 20
112.644480
 30
0.0
 10
199.566760
 20
112.555580
 30
0.0
 10
199.457540
 20
112.535260
 30
0.0
 10
199.345780
 20
112.512400
 30
0.0
 10
199.117180
 20
112.512400
 30
0.0
 10
199.007960
 20
112.535260
 30
0.0
 10
198.896200
 20
112.555580
 30
0.0
 10
198.685380
 20
112.644480
 30
0.0
 10
198.497420
 20
112.768940
 30
0.0
 10
198.337400
 20
112.928960
 30
0.0
 10
198.212940
 20
113.116920
 30
0.0
 10
198.124040
 20
113.327740
 30
0.0
 10
198.080860
 20
113.548720
 30
0.0
 10
198.080860
 20
113.777320
 30
0.0
 10
198.124040
 20
113.998300
 30
0.0
 10
198.212940
 20
114.209120
 30
0.0
 10
198.337400
 20
114.397080
 30
0.0
 10
198.497420
 20
114.557100
 30
0.0
 10
198.685380
 20
114.684100
 30
0.0
 10
198.896200
 20
114.770460
 30
0.0
 10
199.007960
 20
114.793320
 30
0.0
 10
199.117180
 20
114.813640
 30
0.0
 10
199.345780
 20
114.813640
 30
0.0
  0
LWPOLYLINE
  5
118
100
AcDbEntity
  8
Layer_1
 62
7
100
AcDbPolyline
 90
36
 70
1
 10
40.705000
 20
114.793320
 30
0.0
 10
40.816760
 20
114.770460
 30
0.0
 10
41.027580
 20
114.684100
 30
0.0
 10
41.215540
 20
114.557100
 30
0.0
 10
41.375560
 20
114.397080
 30
0.0
 10
41.502560
 20
114.209120
 30
0.0
 10
41.588920
 20
113.998300
 30
0.0
 10
41.632100
 20
113.777320
 30
0.0
 10
41.632100
 20
113.548720
 30
0.0
 10
41.588920
 20
113.327740
 30
0.0
 10
41.502560
 20
113.116920
 30
0.0
 10
41.375560
 20
112.928960
 30
0.0
 10
41.215540
 20
112.768940
 30
0.0
 10
41.027580
 20
112.644480
 30
0.0
 10
40.816760
 20
112.555580
 30
0.0
 10
40.705000
 20
112.535260
 30
0.0
 10
40.595780
 20
112.512400
 30
0.0
 10
40.367180
 20
112.512400
 30
0.0
 10
40.257960
 20
112.535260
 30
0.0
 10
40.146200
 20
112.555580
 30
0.0
 10
39.935380
 20
112.644480
 30
0.0
 10
39.747420
 20
112.768940
 30
0.0
 10
39.587400
 20
112.928960
 30
0.0
 10
39.460400
 20
113.116920
 30
0.0
 10
39.374040
 20
113.327740
 30
0.0
 10
39.330860
 20
113.548720
 30
0.0
 10
39.330860
 20
113.777320
 30
0.0
 10
39.374040
 20
113.998300
 30
0.0
 10
39.460400
 20
114.209120
 30
0.0
 10
39.587400
 20
114.397080
 30
0.0
 10
39.747420
 20
114.557100
 30
0.0
 10
39.935380
 20
114.684100
 30
0.0
 10
40.146200
 20
114.770460
 30
0.0
 10
40.257960
 20
114.793320
 30
0.0
 10
40.367180
 20
114.813640
 30
0.0
 10
40.595780
 20
114.813640
 30
0.0
  0
LWPOLYLINE
  5
119
100
AcDbEntity
  8
Layer_1
 62
7
100
AcDbPolyline
 90
36
 70
1
 10
29.592500
 20
202.898300
 30
0.0
 10
29.704260
 20
202.875440
 30
0.0
 10
29.915080
 20
202.789080
 30
0.0
 10
30.103040
 20
202.662080
 30
0.0
 10
30.263060
 20
202.502060
 30
0.0
 10
30.390060
 20
202.314100
 30
0.0
 10
30.476420
 20
202.105820
 30
0.0
 10
30.519600
 20
201.882300
 30
0.0
 10
30.519600
 20
201.656240
 30
0.0
 10
30.476420
 20
201.432720
 30
0.0
 10
30.390060
 20
201.224440
 30
0.0
 10
30.263060
 20
201.036480
 30
0.0
 10
30.103040
 20
200.873920
 30
0.0
 10
29.915080
 20
200.749460
 30
0.0
 10
29.704260
 20
200.663100
 30
0.0
 10
29.592500
 20
200.640240
 30
0.0
 10
29.483280
 20
200.617380
 30
0.0
 10
29.254680
 20
200.617380
 30
0.0
 10
29.145460
 20
200.640240
 30
0.0
 10
29.033700
 20
200.663100
 30
0.0
 10
28.822880
 20
200.749460
 30
0.0
 10
28.634920
 20
200.873920
 30
0.0
 10
28.474900
 20
201.036480
 30
0.0
 10
28.347900
 20
201.224440
 30
0.0
 10
28.261540
 20
201.432720
 30
0.0
 10
28.218360
 20
201.656240
 30
0.0
 10
28.218360
 20
201.882300
 30
0.0
 10
28.261540
 20
202.105820
 30
0.0
 10
28.347900
 20
202.314100
 30
0.0
 10
28.474900
 20
202.502060
 30
0.0
 10
28.634920
 20
202.662080
 30
0.0
 10
28.822880
 20
202.789080
 30
0.0
 10
29.033700
 20
202.875440
 30
0.0
 10
29.145460
 20
202.898300
 30
0.0
 10
29.254680
 20
202.921160
 30
0.0
 10
29.483280
 20
202.921160
 30
0.0
  0
LWPOLYLINE
  5
11a
100
AcDbEntity
  8
Layer_1
 62
7
100
AcDbPolyline
 90
36
 70
1
 10
199.457540
 20
202.898300
 30
0.0
 10
199.566760
 20
202.875440
 30
0.0
 10
199.777580
 20
202.789080
 30
0.0
 10
199.965540
 20
202.662080
 30
0.0
 10
200.125560
 20
202.502060
 30
0.0
 10
200.252560
 20
202.314100
 30
0.0
 10
200.338920
 20
202.105820
 30
0.0
 10
200.382100
 20
201.882300
 30
0.0
 10
200.382100
 20
201.656240
 30
0.0
 10
200.338920
 20
201.432720
 30
0.0
 10
200.252560
 20
201.224440
 30
0.0
 10
200.125560
 20
201.036480
 30
0.0
 10
199.965540
 20
200.873920
 30
0.0
 10
199.777580
 20
200.749460
 30
0.0
 10
199.566760
 20
200.663100
 30
0.0
 10
199.457540
 20
200.640240
 30
0.0
 10
199.345780
 20
200.617380
 30
0.0
 10
199.117180
 20
200.617380
 30
0.0
 10
199.007960
 20
200.640240
 30
0.0
 10
198.896200
 20
200.663100
 30
0.0
 10
198.685380
 20
200.749460
 30
0.0
 10
198.497420
 20
200.873920
 30
0.0
 10
198.337400
 20
201.036480
 30
0.0
 10
198.212940
 20
201.224440
 30
0.0
 10
198.124040
 20
201.432720
 30
0.0
 10
198.080860
 20
201.656240
 30
0.0
 10
198.080860
 20
201.882300
 30
0.0
 10
198.124040
 20
202.105820
 30
0.0
 10
198.212940
 20
202.314100
 30
0.0
 10
198.337400
 20
202.502060
 30
0.0
 10
198.497420
 20
202.662080
 30
0.0
 10
198.685380
 20
202.789080
 30
0.0
 10
198.896200
 20
202.875440
 30
0.0
 10
199.007960
 20
202.898300
 30
0.0
 10
199.117180
 20
202.921160
 30
0.0
 10
199.345780
 20
202.921160
 30
0.0
  0
LWPOLYLINE
  5
11b
100
AcDbEntity
  8
Layer_1
 62
7
100
AcDbPolyline
 90
36
 70
1
 10
357.412520
 20
217.978280
 30
0.0
 10
357.524280
 20
217.957960
 30
0.0
 10
357.732560
 20
217.871600
 30
0.0
 10
357.920520
 20
217.744600
 30
0.0
 10
358.080540
 20
217.584580
 30
0.0
 10
358.207540
 20
217.396620
 30
0.0
 10
358.293900
 20
217.185800
 30
0.0
 10
358.339620
 20
216.964820
 30
0.0
 10
358.339620
 20
216.736220
 30
0.0
 10
358.293900
 20
216.515240
 30
0.0
 10
358.207540
 20
216.304420
 30
0.0
 10
358.080540
 20
216.116460
 30
0.0
 10
357.920520
 20
215.956440
 30
0.0
 10
357.732560
 20
215.829440
 30
0.0
 10
357.524280
 20
215.743080
 30
0.0
 10
357.412520
 20
215.722760
 30
0.0
 10
357.300760
 20
215.699900
 30
0.0
 10
357.074700
 20
215.699900
 30
0.0
 10
356.962940
 20
215.722760
 30
0.0
 10
356.851180
 20
215.743080
 30
0.0
 10
356.642900
 20
215.829440
 30
0.0
 10
356.454940
 20
215.956440
 30
0.0
 10
356.294920
 20
216.116460
 30
0.0
 10
356.167920
 20
216.304420
 30
0.0
 10
356.081560
 20
216.515240
 30
0.0
 10
356.035840
 20
216.736220
 30
0.0
 10
356.035840
 20
216.964820
 30
0.0
 10
356.081560
 20
217.185800
 30
0.0
 10
356.167920
 20
217.396620
 30
0.0
 10
356.294920
 20
217.584580
 30
0.0
 10
356.454940
 20
217.744600
 30
0.0
 10
356.642900
 20
217.871600
 30
0.0
 10
356.851180
 20
217.957960
 30
0.0
 10
356.962940
 20
217.978280
 30
0.0
 10
357.074700
 20
218.001140
 30
0.0
 10
357.300760
 20
218.001140
 30
0.0
  0
LWPOLYLINE
  5
11c
100
AcDbEntity
  8
Layer_1
 62
7
100
AcDbPolyline
 90
36
 70
1
 10
197.864960
 20
230.680820
 30
0.0
 10
197.979260
 20
230.657960
 30
0.0
 10
198.190080
 20
230.571600
 30
0.0
 10
198.378040
 20
230.444600
 30
0.0
 10
198.538060
 20
230.284580
 30
0.0
 10
198.662520
 20
230.096620
 30
0.0
 10
198.751420
 20
229.885800
 30
0.0
 10
198.794600
 20
229.664820
 30
0.0
 10
198.794600
 20
229.436220
 30
0.0
 10
198.751420
 20
229.215240
 30
0.0
 10
198.662520
 20
229.004420
 30
0.0
 10
198.538060
 20
228.816460
 30
0.0
 10
198.378040
 20
228.656440
 30
0.0
 10
198.190080
 20
228.529440
 30
0.0
 10
197.979260
 20
228.443080
 30
0.0
 10
197.867500
 20
228.422760
 30
0.0
 10
197.758280
 20
228.399900
 30
0.0
 10
197.529680
 20
228.399900
 30
0.0
 10
197.417920
 20
228.422760
 30
0.0
 10
197.308700
 20
228.443080
 30
0.0
 10
197.097880
 20
228.529440
 30
0.0
 10
196.909920
 20
228.656440
 30
0.0
 10
196.749900
 20
228.816460
 30
0.0
 10
196.622900
 20
229.004420
 30
0.0
 10
196.536540
 20
229.215240
 30
0.0
 10
196.493360
 20
229.436220
 30
0.0
 10
196.493360
 20
229.664820
 30
0.0
 10
196.536540
 20
229.885800
 30
0.0
 10
196.622900
 20
230.096620
 30
0.0
 10
196.749900
 20
230.284580
 30
0.0
 10
196.909920
 20
230.444600
 30
0.0
 10
197.097880
 20
230.571600
 30
0.0
 10
197.308700
 20
230.657960
 30
0.0
 10
197.423000
 20
230.680820
 30
0.0
 10
197.529680
 20
230.701140
 30
0.0
 10
197.758280
 20
230.701140
 30
0.0
  0
LWPOLYLINE
  5
11d
100
AcDbEntity
  8
Layer_1
 62
7
100
AcDbPolyline
 90
36
 70
1
 10
24.037520
 20
231.473300
 30
0.0
 10
24.149280
 20
231.450440
 30
0.0
 10
24.357560
 20
231.364080
 30
0.0
 10
24.545520
 20
231.237080
 30
0.0
 10
24.705540
 20
231.077060
 30
0.0
 10
24.832540
 20
230.889100
 30
0.0
 10
24.918900
 20
230.680820
 30
0.0
 10
24.964620
 20
230.457300
 30
0.0
 10
24.964620
 20
230.231240
 30
0.0
 10
24.918900
 20
230.007720
 30
0.0
 10
24.832540
 20
229.799440
 30
0.0
 10
24.705540
 20
229.611480
 30
0.0
 10
24.545520
 20
229.448920
 30
0.0
 10
24.357560
 20
229.324460
 30
0.0
 10
24.149280
 20
229.238100
 30
0.0
 10
24.037520
 20
229.215240
 30
0.0
 10
23.925760
 20
229.192380
 30
0.0
 10
23.699700
 20
229.192380
 30
0.0
 10
23.587940
 20
229.215240
 30
0.0
 10
23.476180
 20
229.238100
 30
0.0
 10
23.267900
 20
229.324460
 30
0.0
 10
23.079940
 20
229.448920
 30
0.0
 10
22.919920
 20
229.611480
 30
0.0
 10
22.792920
 20
229.799440
 30
0.0
 10
22.706560
 20
230.007720
 30
0.0
 10
22.660840
 20
230.231240
 30
0.0
 10
22.660840
 20
230.457300
 30
0.0
 10
22.706560
 20
230.680820
 30
0.0
 10
22.792920
 20
230.889100
 30
0.0
 10
22.919920
 20
231.077060
 30
0.0
 10
23.079940
 20
231.237080
 30
0.0
 10
23.267900
 20
231.364080
 30
0.0
 10
23.476180
 20
231.450440
 30
0.0
 10
23.587940
 20
231.473300
 30
0.0
 10
23.699700
 20
231.496160
 30
0.0
 10
23.925760
 20
231.496160
 30
0.0
  0
LWPOLYLINE
  5
11e
100
AcDbEntity
  8
Layer_1
 62
7
100
AcDbPolyline
 90
36
 70
1
 10
357.412520
 20
231.473300
 30
0.0
 10
357.524280
 20
231.450440
 30
0.0
 10
357.732560
 20
231.364080
 30
0.0
 10
357.920520
 20
231.237080
 30
0.0
 10
358.080540
 20
231.077060
 30
0.0
 10
358.207540
 20
230.889100
 30
0.0
 10
358.293900
 20
230.680820
 30
0.0
 10
358.339620
 20
230.457300
 30
0.0
 10
358.339620
 20
230.231240
 30
0.0
 10
358.293900
 20
230.007720
 30
0.0
 10
358.207540
 20
229.799440
 30
0.0
 10
358.080540
 20
229.611480
 30
0.0
 10
357.920520
 20
229.448920
 30
0.0
 10
357.732560
 20
229.324460
 30
0.0
 10
357.524280
 20
229.238100
 30
0.0
 10
357.412520
 20
229.215240
 30
0.0
 10
357.300760
 20
229.192380
 30
0.0
 10
357.074700
 20
229.192380
 30
0.0
 10
356.962940
 20
229.215240
 30
0.0
 10
356.851180
 20
229.238100
 30
0.0
 10
356.642900
 20
229.324460
 30
0.0
 10
356.454940
 20
229.448920
 30
0.0
 10
356.294920
 20
229.611480
 30
0.0
 10
356.167920
 20
229.799440
 30
0.0
 10
356.081560
 20
230.007720
 30
0.0
 10
356.035840
 20
230.231240
 30
0.0
 10
356.035840
 20
230.457300
 30
0.0
 10
356.081560
 20
230.680820
 30
0.0
 10
356.167920
 20
230.889100
 30
0.0
 10
356.294920
 20
231.077060
 30
0.0
 10
356.454940
 20
231.237080
 30
0.0
 10
356.642900
 20
231.364080
 30
0.0
 10
356.851180
 20
231.450440
 30
0.0
 10
356.962940
 20
231.473300
 30
0.0
 10
357.074700
 20
231.496160
 30
0.0
 10
357.300760
 20
231.496160
 30
0.0
  0
LWPOLYLINE
  5
11f
100
AcDbEntity
  8
Layer_1
 62
7
100
AcDbPolyline
 90
36
 70
1
 10
24.037520
 20
275.128280
 30
0.0
 10
24.149280
 20
275.107960
 30
0.0
 10
24.357560
 20
275.021600
 30
0.0
 10
24.545520
 20
274.894600
 30
0.0
 10
24.705540
 20
274.734580
 30
0.0
 10
24.832540
 20
274.546620
 30
0.0
 10
24.918900
 20
274.335800
 30
0.0
 10
24.964620
 20
274.114820
 30
0.0
 10
24.964620
 20
273.886220
 30
0.0
 10
24.918900
 20
273.665240
 30
0.0
 10
24.832540
 20
273.454420
 30
0.0
 10
24.705540
 20
273.266460
 30
0.0
 10
24.545520
 20
273.106440
 30
0.0
 10
24.357560
 20
272.979440
 30
0.0
 10
24.149280
 20
272.893080
 30
0.0
 10
24.037520
 20
272.872760
 30
0.0
 10
23.925760
 20
272.849900
 30
0.0
 10
23.699700
 20
272.849900
 30
0.0
 10
23.587940
 20
272.872760
 30
0.0
 10
23.476180
 20
272.893080
 30
0.0
 10
23.267900
 20
272.979440
 30
0.0
 10
23.079940
 20
273.106440
 30
0.0
 10
22.919920
 20
273.266460
 30
0.0
 10
22.792920
 20
273.454420
 30
0.0
 10
22.706560
 20
273.665240
 30
0.0
 10
22.660840
 20
273.886220
 30
0.0
 10
22.660840
 20
274.114820
 30
0.0
 10
22.706560
 20
274.335800
 30
0.0
 10
22.792920
 20
274.546620
 30
0.0
 10
22.919920
 20
274.734580
 30
0.0
 10
23.079940
 20
274.894600
 30
0.0
 10
23.267900
 20
275.021600
 30
0.0
 10
23.476180
 20
275.107960
 30
0.0
 10
23.587940
 20
275.128280
 30
0.0
 10
23.699700
 20
275.151140
 30
0.0
 10
23.925760
 20
275.151140
 30
0.0
  0
LWPOLYLINE
  5
120
100
AcDbEntity
  8
Layer_1
 62
7
100
AcDbPolyline
 90
36
 70
1
 10
197.075020
 20
275.128280
 30
0.0
 10
197.184240
 20
275.107960
 30
0.0
 10
197.395060
 20
275.021600
 30
0.0
 10
197.583020
 20
274.894600
 30
0.0
 10
197.743040
 20
274.734580
 30
0.0
 10
197.870040
 20
274.546620
 30
0.0
 10
197.956400
 20
274.335800
 30
0.0
 10
197.999580
 20
274.114820
 30
0.0
 10
197.999580
 20
273.886220
 30
0.0
 10
197.956400
 20
273.665240
 30
0.0
 10
197.870040
 20
273.454420
 30
0.0
 10
197.743040
 20
273.266460
 30
0.0
 10
197.583020
 20
273.106440
 30
0.0
 10
197.395060
 20
272.979440
 30
0.0
 10
197.184240
 20
272.893080
 30
0.0
 10
197.075020
 20
272.872760
 30
0.0
 10
196.963260
 20
272.849900
 30
0.0
 10
196.737200
 20
272.849900
 30
0.0
 10
196.625440
 20
272.872760
 30
0.0
 10
196.513680
 20
272.893080
 30
0.0
 10
196.305400
 20
272.979440
 30
0.0
 10
196.114900
 20
273.106440
 30
0.0
 10
195.954880
 20
273.266460
 30
0.0
 10
195.830420
 20
273.454420
 30
0.0
 10
195.744060
 20
273.665240
 30
0.0
 10
195.698340
 20
273.886220
 30
0.0
 10
195.698340
 20
274.114820
 30
0.0
 10
195.744060
 20
274.335800
 30
0.0
 10
195.830420
 20
274.546620
 30
0.0
 10
195.954880
 20
274.734580
 30
0.0
 10
196.114900
 20
274.894600
 30
0.0
 10
196.305400
 20
275.021600
 30
0.0
 10
196.513680
 20
275.107960
 30
0.0
 10
196.625440
 20
275.128280
 30
0.0
 10
196.737200
 20
275.151140
 30
0.0
 10
196.963260
 20
275.151140
 30
0.0
  0
LWPOLYLINE
  5
121
100
AcDbEntity
  8
Layer_1
 62
7
100
AcDbPolyline
 90
36
 70
1
 10
357.412520
 20
275.128280
 30
0.0
 10
357.524280
 20
275.107960
 30
0.0
 10
357.732560
 20
275.021600
 30
0.0
 10
357.920520
 20
274.894600
 30
0.0
 10
358.080540
 20
274.734580
 30
0.0
 10
358.207540
 20
274.546620
 30
0.0
 10
358.293900
 20
274.335800
 30
0.0
 10
358.339620
 20
274.114820
 30
0.0
 10
358.339620
 20
273.886220
 30
0.0
 10
358.293900
 20
273.665240
 30
0.0
 10
358.207540
 20
273.454420
 30
0.0
 10
358.080540
 20
273.266460
 30
0.0
 10
357.920520
 20
273.106440
 30
0.0
 10
357.732560
 20
272.979440
 30
0.0
 10
357.524280
 20
272.893080
 30
0.0
 10
357.412520
 20
272.872760
 30
0.0
 10
357.300760
 20
272.849900
 30
0.0
 10
357.074700
 20
272.849900
 30
0.0
 10
356.962940
 20
272.872760
 30
0.0
 10
356.851180
 20
272.893080
 30
0.0
 10
356.642900
 20
272.979440
 30
0.0
 10
356.454940
 20
273.106440
 30
0.0
 10
356.294920
 20
273.266460
 30
0.0
 10
356.167920
 20
273.454420
 30
0.0
 10
356.081560
 20
273.665240
 30
0.0
 10
356.035840
 20
273.886220
 30
0.0
 10
356.035840
 20
274.114820
 30
0.0
 10
356.081560
 20
274.335800
 30
0.0
 10
356.167920
 20
274.546620
 30
0.0
 10
356.294920
 20
274.734580
 30
0.0
 10
356.454940
 20
274.894600
 30
0.0
 10
356.642900
 20
275.021600
 30
0.0
 10
356.851180
 20
275.107960
 30
0.0
 10
356.962940
 20
275.128280
 30
0.0
 10
357.074700
 20
275.151140
 30
0.0
 10
357.300760
 20
275.151140
 30
0.0
  0
ENDSEC
  0
SECTION
  2
OBJECTS
  0
DICTIONARY
  5
C
330
0
100
AcDbDictionary
  3
ACAD_GROUP
350
D
  3
ACAD_MLINESTYLE
350
17
  0
DICTIONARY
  5
D
330
C
100
AcDbDictionary
  0
DICTIONARY
  5
1A
330
C
100
AcDbDictionary
  0
DICTIONARY
  5
17
330
C
100
AcDbDictionary
  3
STANDARD
350
18
  0
DICTIONARY
  5
19
330
C
100
AcDbDictionary
  0
ENDSEC
  0
EOF
